<?xml version="1.0" encoding="utf-8"?>
<!-- Generator: Adobe Illustrator 24.2.0, SVG Export Plug-In . SVG Version: 6.00 Build 0)  -->
<svg version="1.1" id="Layer_2" xmlns="http://www.w3.org/2000/svg" xmlns:xlink="http://www.w3.org/1999/xlink" x="0px" y="0px"
	 viewBox="0 0 400 160" style="enable-background:new 0 0 400 160;" xml:space="preserve">
<style type="text/css">
	.st0{fill:#FAFAFA;stroke:#E37400;stroke-width:2;stroke-miterlimit:10;}
	.st1{fill:#F9AB01;}
	.st2{fill:#E37501;}
	.st3{fill:#777676;}
	.st4{fill:#777777;}
	.st5{fill:#787878;}
	.st6{fill:#787777;}
	.st7{fill:#757575;}
	.st8{fill:#797979;}
	.st9{fill:#797878;}
</style>
<g>
	<path class="st0" d="M376.7,150H23.3C16,150,10,144,10,136.7V23.3C10,16,16,10,23.3,10h353.4c7.3,0,13.3,6,13.3,13.3v113.4
		C390,144,384,150,376.7,150z"/>
	<g>
		<g>
			<path class="st1" d="M81.2,79.9c0-7.6,0-15.3,0-22.9c0-3.5,2.3-6.4,5.7-7.2c3.6-0.8,7.3,1.2,8.4,4.7c0.3,0.9,0.5,1.9,0.5,2.9
				c0,15.2,0,30.3,0,45.5c0,1.8-0.3,3.5-1.4,5c-1.3,1.9-3.2,2.9-5.5,3.1c-3.7,0.3-7-2.5-7.6-6.3c-0.1-0.6-0.1-1.3-0.1-1.9
				C81.2,95,81.2,87.4,81.2,79.9z"/>
			<path class="st2" d="M76.7,91.7c0,3.8,0,7.7,0,11.5c0,1.9-0.6,3.7-1.9,5.2c-1.5,1.7-3.4,2.5-5.6,2.4c-2.7-0.1-4.7-1.3-6.1-3.6
				c-0.8-1.3-1.1-2.7-1.1-4.2c0-7.6,0-15.2,0-22.8c0-4.3,3.8-7.4,7.6-7.2c3.4,0.1,6.2,2.4,6.9,5.8c0.1,0.6,0.2,1.2,0.2,1.7
				C76.7,84.2,76.7,87.9,76.7,91.7z"/>
			<path class="st2" d="M50.2,110.8c-3.4,0.2-7.3-2.6-7.3-7.3c0-4.2,3.4-7.3,7.3-7.2c4.3,0,7.2,3.5,7.3,7.2
				C57.6,107.9,53.7,110.9,50.2,110.8z"/>
		</g>
		<g>
			<path class="st3" d="M141.2,71.7c-0.9,0.8-1.7,1.6-2.6,2.5c-0.2-0.1-0.5-0.3-0.7-0.5c-5.9-4.3-14-0.9-15.2,6.4
				c-0.6,3.9,0.7,7.2,3.9,9.6c3.7,2.8,9.4,2.5,12.7-1.3c1-1.2,1.5-2.6,1.7-4.2c-2.9,0-5.8,0-8.8,0c0-1.4,0-2.6,0-3.9
				c0.6-0.2,11-0.2,12.4-0.1c0.1,0.2,0.2,0.5,0.2,0.7c0.2,2.8-0.1,5.5-1.6,8c-2,3.3-4.9,5.3-8.8,5.8c-4.2,0.5-7.9-0.5-11.2-3.3
				c-5.9-4.9-6.3-13.7-1-19.2c2.8-2.9,6.2-4.3,10.2-4.3c2.9,0,5.5,1.1,7.7,2.8C140.4,71.1,140.8,71.4,141.2,71.7z"/>
			<path class="st4" d="M184,96.9c1.2-0.5,2.2-0.9,3.2-1.2c0.5,0.7,1,1.3,1.5,1.8c1.8,1.6,4.6,1.5,6.2-0.1c0.6-0.6,0.9-1.4,1.1-2.2
				c0.1-0.5,0.1-1,0.2-1.5c0-0.4,0-0.8,0-1.3c-0.2,0.1-0.3,0.1-0.4,0.1c-1.9,2-5.3,2.5-8.2,0.8c-4.9-2.8-5.8-9.7-1.9-13.7
				c1.2-1.3,2.7-2.1,4.5-2.4c2.1-0.4,3.9,0.1,5.6,1.5c0.2,0.1,0.4,0.3,0.7,0.5c0-0.7,0.1-1.4,0.1-2.1c1.2,0,2.3,0,3.5,0
				c0,0.3,0,0.5,0,0.8c0,4.9,0,9.8,0,14.7c0,1.5-0.1,3-0.7,4.4c-0.9,2.5-2.7,4.1-5.3,4.7c-3.7,0.9-7-0.3-9.2-3.4
				C184.6,97.9,184.4,97.4,184,96.9z M196.5,85.7c0-0.6-0.2-1.5-0.5-2.4c-1.4-3-5.1-3.7-7.2-1.2c-1.9,2.1-1.8,5.7,0.1,7.8
				c1.6,1.7,4.1,1.8,5.8,0.3C195.9,89.1,196.5,87.7,196.5,85.7z"/>
			<path class="st4" d="M234.6,94.3c-1.1,0-2.1,0-3.3,0c3-7.8,5.9-15.5,8.8-23.3c1.1,0,2.2,0,3.4,0c2.9,7.7,5.9,15.5,8.8,23.3
				c-1.1,0-2.2,0-3.3,0c-0.8-2.1-1.5-4.2-2.3-6.3c-3.3,0-6.6,0-9.9,0C236.1,90.1,235.3,92.2,234.6,94.3z M245.7,85.1
				c-1.3-3.5-2.6-7-4-10.6c-1.3,3.6-2.6,7.1-3.8,10.6C240.5,85.1,243.1,85.1,245.7,85.1z"/>
			<path class="st4" d="M164.8,85.9c0-4.9,3.7-8.6,8.6-8.6c4.9,0,8.7,3.6,8.7,8.2c0,5.2-3.7,9-8.6,9
				C167.8,94.6,164.7,90.3,164.8,85.9z M173.5,80.6c-1,0-1.9,0.3-2.7,0.9c-2.5,1.8-3,5.5-1.1,7.9c2.3,2.9,6.5,2.3,7.9-0.9
				c0.7-1.6,0.8-3.3,0-4.9C176.9,81.7,175.5,80.7,173.5,80.6z"/>
			<path class="st4" d="M163.3,86c0.1,4.3-3.3,8.6-8.6,8.6c-5.1,0-8.6-3.6-8.6-8.6c0-4.9,3.7-8.7,8.6-8.7
				C159.6,77.3,163.3,81,163.3,86z M159.5,85.6c0-0.5-0.2-1.3-0.5-2.1c-1.3-3-5-3.9-7.4-1.7c-2.4,2.2-2.3,6.3,0.2,8.4
				c1.8,1.4,4.2,1.4,5.9-0.1C159,89,159.4,87.6,159.5,85.6z"/>
			<path class="st4" d="M221.4,88.7c1.1,0.7,2,1.3,3,2c-1.1,1.5-2.4,2.6-4,3.2c-3.1,1.2-6.1,0.8-8.7-1.2c-2.6-2-3.5-4.8-3.2-8
				c0.2-1.9,0.9-3.6,2.3-5c2.8-3,8.5-3.8,11.9,0.9c0.3,0.4,0.6,0.9,0.8,1.3c0.3,0.6,0.6,1.3,0.9,2c-3.9,1.6-7.7,3.2-11.5,4.8
				c0.4,1.3,2.3,2.6,4.2,2.6C219,91.2,220.3,90.3,221.4,88.7z M212.3,85.9c2.6-1.1,5.2-2.1,7.7-3.3c-0.1-0.2-0.1-0.3-0.1-0.3
				c-0.8-1.4-2.5-2-4.2-1.5C213.5,81.4,212.2,83.4,212.3,85.9z"/>
			<path class="st4" d="M284.9,94.3c-0.8,0-1.5,0-2.3,0c-0.1,0-0.2,0-0.4-0.1c0-0.7,0-1.4,0-2.1c-0.1,0-0.1,0-0.2,0
				c-0.1,0.2-0.3,0.3-0.4,0.5c-2.3,2.9-7,2.9-9.5,0.7c-2.4-2.2-2.1-6,0.5-7.9c1.1-0.8,2.4-1.3,3.8-1.4c1.8-0.1,3.5-0.1,5.2,0.7
				c0,0,0.1,0,0.2,0c0.4-1.4-0.5-3-2.1-3.7c-2.1-0.9-4.4-0.2-5.6,1.9c-0.9-0.4-1.8-0.8-2.7-1.2c0.3-0.9,0.9-1.6,1.6-2.2
				c1.6-1.3,3.5-1.8,5.6-1.6c0.9,0.1,1.8,0.3,2.7,0.6c2.3,1,3.7,2.8,3.8,5.3c0.1,3.4,0,6.9,0,10.3C285,94.1,285,94.2,284.9,94.3z
				 M278.4,86.4c-0.5,0-0.9,0-1.4,0.1c-0.8,0.1-1.5,0.4-2.2,1c-1.6,1.4-1.1,3.5,0.8,4.2c2.8,1,5.9-1.3,6.2-3.6
				c0.1-0.7,0.1-0.8-0.5-1.1C280.4,86.7,279.4,86.5,278.4,86.4z"/>
			<path class="st5" d="M253.6,78.1c1,0,2,0,3,0c0.1,0.7,0.2,1.5,0.3,2.3c0.3-0.3,0.4-0.4,0.6-0.6c1.8-1.9,4.5-2.5,6.9-1.6
				c1.9,0.7,2.9,2.2,3.4,4.1c0.2,0.6,0.2,1.3,0.3,2c0,3.2,0,6.4,0,9.7c0,0.2,0,0.3,0,0.6c-1,0-1.9,0-3,0c0-0.3,0-0.6,0-0.9
				c0-2.7,0-5.5,0-8.2c0-0.6,0-1.3-0.2-1.9c-0.6-2.5-3.2-3.7-5.5-2.5c-1.8,0.9-2.6,2.5-2.6,4.4c0,2.6,0,5.2,0,7.8c0,0.3,0,0.6,0,1.1
				c-1,0-2,0-3,0C253.6,88.9,253.6,83.5,253.6,78.1z"/>
			<path class="st5" d="M305.3,78.3c1.1,0,2,0,3.1,0c-3.3,7.7-6.6,15.4-9.9,23c-1,0-2,0-3,0c0.1-0.3,0.2-0.6,0.3-0.9
				c0.9-2.2,1.9-4.5,2.8-6.7c0.2-0.5,0.3-1,0-1.5c-1.9-4.4-3.8-8.8-5.7-13.2c-0.1-0.2-0.2-0.5-0.3-0.8c1,0,2,0,3,0
				c1.6,3.6,3.1,7.3,4.8,11.1C302.2,85.7,303.7,82,305.3,78.3z"/>
			<path class="st6" d="M342.6,81.9c-0.8,0.6-1.6,1.1-2.5,1.7c-0.1-0.2-0.2-0.4-0.3-0.6c-0.7-1.3-1.8-2.3-3.3-2.6
				c-1.6-0.3-3,0.3-4.1,1.5c-1.9,2.1-1.9,5.6-0.2,7.7c1.9,2.4,5.1,2.4,7.1,0c0.3-0.3,0.5-0.8,0.9-1.2c0.8,0.5,1.6,1,2.5,1.5
				c-1.2,2.5-3.1,4.1-5.8,4.5c-4.4,0.6-8-2.6-8.8-6.7c-0.6-2.9,0-5.6,2-7.9C333.6,75.7,340.3,76.7,342.6,81.9z"/>
			<path class="st6" d="M344.6,91.3c0.8-0.6,1.5-1.2,2.3-1.8c0.4,0.4,0.8,0.9,1.1,1.2c1.2,1.2,2.6,1.5,4.1,1.1c1-0.2,1.7-1.1,1.8-2
				c0.1-0.7-0.2-1.3-0.8-1.6c-0.8-0.3-1.7-0.6-2.6-0.9c-1-0.3-2-0.5-2.9-0.9c-1.6-0.6-2.7-1.7-2.8-3.5c-0.1-1.8,0.5-3.4,2-4.4
				c1.6-1.1,3.3-1.3,5.1-0.9c1.9,0.4,3.6,1.4,5,2.9c-0.6,0.6-1.2,1.1-1.9,1.6c-0.6-0.8-1.5-1.3-2.5-1.6c-1-0.3-1.9-0.4-2.9-0.1
				c-0.8,0.2-1.4,0.7-1.5,1.6c-0.1,0.7,0.1,1.4,0.7,1.7c0.6,0.3,1.3,0.6,2,0.8c1.1,0.4,2.2,0.6,3.3,1c1,0.4,1.8,1,2.3,1.9
				c1.3,2.5,0.1,5.6-2.5,6.7c-2.2,0.8-4.3,0.8-6.4-0.5c-0.6-0.4-1.2-0.8-1.7-1.3C345.5,92.1,345.1,91.8,344.6,91.3z"/>
			<path class="st4" d="M202.9,94.6c0-8.8,0-17.6,0-26.4c0.6,0,1.2,0,1.8,0c0.6,0,1.2,0,1.9,0c0,8.8,0,17.5,0,26.4
				C205.4,94.6,204.2,94.6,202.9,94.6z"/>
			<path class="st4" d="M319.5,94.1c-1.5,0-2.9,0.2-4.3-0.2c-1.2-0.3-2-1.2-2.4-2.3c-0.3-0.9-0.4-1.9-0.4-2.9c0-2.2,0-4.3,0-6.5
				c0-0.3,0-0.6,0-1c-1,0-2,0-2.9,0c0-1.1,0-2,0-3.1c0.9,0,1.9,0,2.9,0c0-1.7,0-3.2,0-4.8c1,0,2,0,3.1,0c0,1.6,0,3.1,0,4.8
				c1.2,0,2.4,0,3.5,0c0,1.1,0,2,0,3.1c-1.2,0-2.3,0-3.5,0c0,0.4,0,0.6,0,0.9c0,2.3,0,4.7,0,7c0,2.1,0.6,2.7,2.7,2.8
				c0.3,0,0.6,0,0.9,0.1c0.1,0.2,0.2,0.4,0.2,0.6C319.3,92.9,319.4,93.5,319.5,94.1z"/>
			<path class="st7" d="M288.2,71c0.6,0,1.3,0,1.9,0c0.3,0,0.6,0,0.9,0c0.2,0.7,0.3,21.9,0.1,23.3c-0.9,0-1.9,0-2.8,0
				C288,93.7,288,72.4,288.2,71z"/>
			<path class="st8" d="M322.1,78.1c1,0,2,0,3,0c0,5.4,0,10.8,0,16.2c-1,0-2,0-3,0C322.1,88.9,322.1,83.5,322.1,78.1z"/>
			<path class="st9" d="M323.4,74.3c-1.1,0-2-1-2.1-2c0-1.1,1-2,2-2c1.1,0,2,0.9,2,2C325.4,73.3,324.5,74.3,323.4,74.3z"/>
		</g>
	</g>
</g>
</svg>
