<svg width="21" height="24" viewBox="0 0 21 24" fill="none" xmlns="http://www.w3.org/2000/svg">
<path d="M15.1368 2.86364V20.8636C15.1368 22.8777 16.5277 24 18.0004 24C19.3641 24 20.8641 23.0455 20.8641 20.8636V3C20.8641 1.15364 19.5004 0 18.0004 0C16.5004 0 15.1368 1.27227 15.1368 2.86364Z" fill="#F9AB00"/>
<path d="M7.63675 12V20.8636C7.63675 22.8777 9.02766 24 10.5004 24C11.864 24 13.364 23.0455 13.364 20.8636V12.1364C13.364 10.29 12.0004 9.13636 10.5004 9.13636C9.00039 9.13636 7.63675 10.4086 7.63675 12Z" fill="#E37400"/>
<path d="M3.00037 24C4.58191 24 5.86401 22.7179 5.86401 21.1364C5.86401 19.5548 4.58191 18.2727 3.00037 18.2727C1.41882 18.2727 0.136719 19.5548 0.136719 21.1364C0.136719 22.7179 1.41882 24 3.00037 24Z" fill="#E37400"/>
</svg>
