<?xml version="1.0" encoding="utf-8"?>
<!-- Generator: Adobe Illustrator 24.2.0, SVG Export Plug-In . SVG Version: 6.00 Build 0)  -->
<svg version="1.1" id="Layer_1" xmlns="http://www.w3.org/2000/svg" xmlns:xlink="http://www.w3.org/1999/xlink" x="0px" y="0px"
	 viewBox="0 0 500 500" style="enable-background:new 0 0 500 500;" xml:space="preserve">
<style type="text/css">
	.st0{fill:#456287;}
	.st1{fill:#2196F3;}
</style>
<g>
	<path class="st0" d="M433.8,122H66.2c-8.3,0-15,6.7-15,15V363c0,8.3,6.7,15,15,15h367.6c8.3,0,15-6.7,15-15V137
		C448.8,128.8,442.1,122,433.8,122z M310.3,271.5c0,6.5-5.3,11.7-11.7,11.7H100.5c-6.5,0-11.7-5.3-11.7-11.7v0
		c0-6.5,5.3-11.7,11.7-11.7h198.1C305,259.8,310.3,265,310.3,271.5L310.3,271.5z M411.3,224.6c0,6.5-5.3,11.7-11.7,11.7h-299
		c-6.5,0-11.7-5.3-11.7-11.7v0c0-6.5,5.3-11.7,11.7-11.7h299C406,212.8,411.3,218.1,411.3,224.6L411.3,224.6z M399.5,189.3h-299
		c-6.5,0-11.7-5.3-11.7-11.7s5.3-11.7,11.7-11.7h299c6.5,0,11.7,5.3,11.7,11.7S406,189.3,399.5,189.3z"/>
</g>
</svg>
