<svg width="400" height="400" viewBox="0 0 400 400" fill="none" xmlns="http://www.w3.org/2000/svg">
<path opacity="0.5" d="M357.633 158.71C362.556 186.737 357.124 216.541 347.409 242.985C343.398 253.881 338.541 264.701 332.046 274.372C322.614 288.413 310.265 292.511 292.647 291.058C268.99 289.107 247.804 280.021 224.7 276.617C211.711 274.708 202.778 276.15 191.968 282.515C172.659 293.899 152.352 303.949 130.624 309.479C104.159 316.222 68.3373 318.304 47.2713 297.596C23.7334 274.459 29.1327 235.287 43.6284 208.811C48.323 200.235 56.1943 194.109 62.5151 186.726C78.442 168.143 86.4759 145.451 90.2922 121.479C93.0569 104.088 104.094 91.5226 121.723 88.7579C137.346 86.3077 152.232 91.3492 166.858 96.1955C181.939 101.194 195.568 101.389 211.473 99.7517C216.59 99.2204 221.729 98.5591 226.89 97.8652C252.488 94.4175 278.389 90.1349 303.445 97.3881C332.968 105.921 352.353 128.678 357.633 158.71Z" fill="#E4F7F9"/>
<g style="mix-blend-mode:overlay">
<path d="M114.491 219.764C114.491 219.166 114.409 218.574 114.251 218.021C114.092 217.468 113.86 216.966 113.567 216.543C113.274 216.121 112.926 215.785 112.543 215.556C112.16 215.327 111.749 215.209 111.335 215.209H42.9565C42.1193 215.209 41.3163 215.689 40.7243 216.543C40.1323 217.398 39.7997 218.556 39.7997 219.764C39.7998 220.972 40.1325 222.13 40.7245 222.984C41.3165 223.838 42.1193 224.318 42.9565 224.318H65.7801C66.1946 224.318 66.6051 224.436 66.9881 224.665C67.3711 224.893 67.719 225.229 68.0121 225.652C68.3052 226.075 68.5377 226.577 68.6963 227.129C68.8549 227.682 68.9365 228.274 68.9364 228.872C68.9364 230.08 68.6039 231.238 68.012 232.092C67.4201 232.946 66.6172 233.426 65.7801 233.426H13.1567C12.3195 233.426 11.5166 233.906 10.9246 234.76C10.3326 235.614 10 236.773 10 237.981C10.0001 239.188 10.3327 240.347 10.9247 241.201C11.5167 242.055 12.3196 242.535 13.1567 242.535H51.3123C52.1494 242.535 52.9523 243.014 53.5442 243.868C54.1361 244.722 54.4686 245.881 54.4686 247.088C54.4686 248.296 54.1361 249.454 53.5442 250.308C52.9523 251.163 52.1494 251.642 51.3123 251.642H41.6615C40.8244 251.642 40.0216 252.122 39.4297 252.976C38.8377 253.83 38.5052 254.988 38.5052 256.196C38.5051 256.794 38.5867 257.386 38.7453 257.939C38.9039 258.492 39.1364 258.994 39.4295 259.417C39.7226 259.84 40.0706 260.175 40.4536 260.404C40.8365 260.633 41.247 260.751 41.6615 260.751H95.6764C96.5136 260.751 97.3166 260.271 97.9086 259.417C98.5006 258.563 98.8332 257.404 98.8332 256.196C98.833 254.988 98.5004 253.83 97.9084 252.976C97.3164 252.122 96.5136 251.642 95.6764 251.642H78.5112C78.0965 251.642 77.6858 251.525 77.3027 251.296C76.9195 251.067 76.5713 250.731 76.2781 250.308C75.9849 249.885 75.7523 249.383 75.5937 248.83C75.435 248.277 75.3535 247.684 75.3536 247.086C75.3538 245.878 75.6863 244.72 76.2782 243.866C76.8701 243.012 77.6729 242.532 78.51 242.532H137.114C137.951 242.531 138.753 242.052 139.344 241.198C139.936 240.345 140.268 239.188 140.269 237.981C140.269 236.773 139.936 235.614 139.344 234.76C138.753 233.906 137.95 233.426 137.113 233.426H81.568C80.731 233.426 79.9282 232.946 79.3363 232.092C78.7444 231.238 78.4118 230.08 78.4117 228.872C78.4117 227.664 78.7442 226.506 79.3362 225.652C79.9281 224.798 80.7309 224.318 81.568 224.318H111.335C112.172 224.318 112.975 223.838 113.567 222.984C114.158 222.13 114.491 220.972 114.491 219.764Z" fill="white"/>
</g>
<path opacity="0.8" d="M360.126 140.418C360.126 139.187 359.637 138.007 358.767 137.137C357.897 136.266 356.716 135.777 355.485 135.777H209.516C208.285 135.777 207.105 136.266 206.234 137.137C205.364 138.007 204.875 139.187 204.875 140.418C204.875 141.028 204.995 141.631 205.228 142.194C205.462 142.757 205.803 143.269 206.234 143.7C206.665 144.131 207.177 144.472 207.74 144.706C208.303 144.939 208.907 145.059 209.516 145.059H316.908C317.518 145.059 318.121 145.179 318.684 145.412C319.247 145.645 319.759 145.987 320.19 146.418C320.621 146.849 320.963 147.361 321.196 147.924C321.429 148.487 321.549 149.09 321.549 149.7C321.549 150.309 321.429 150.913 321.196 151.476C320.963 152.039 320.621 152.55 320.19 152.981C319.759 153.412 319.247 153.754 318.684 153.987C318.121 154.22 317.518 154.34 316.908 154.34H246.334C245.724 154.34 245.121 154.46 244.558 154.693C243.995 154.926 243.483 155.268 243.052 155.699C242.621 156.13 242.28 156.642 242.046 157.205C241.813 157.768 241.693 158.371 241.693 158.981C241.693 160.212 242.182 161.392 243.053 162.262C243.923 163.132 245.103 163.621 246.334 163.621H285.144C286.375 163.621 287.555 164.11 288.426 164.98C289.296 165.851 289.785 167.031 289.785 168.262C289.785 169.492 289.296 170.673 288.426 171.543C287.555 172.413 286.375 172.902 285.144 172.902H270.956C269.725 172.902 268.545 173.391 267.675 174.261C266.805 175.131 266.316 176.312 266.316 177.542C266.316 178.773 266.804 179.953 267.675 180.824C268.545 181.694 269.725 182.183 270.956 182.183H347.9C348.509 182.183 349.113 182.063 349.676 181.83C350.239 181.597 350.75 181.255 351.181 180.824C351.612 180.393 351.954 179.881 352.187 179.318C352.42 178.755 352.54 178.152 352.54 177.542C352.54 176.312 352.051 175.131 351.181 174.261C350.311 173.391 349.13 172.902 347.9 172.902H322.664C321.433 172.902 320.253 172.413 319.383 171.543C318.512 170.673 318.023 169.492 318.023 168.262C318.023 167.031 318.512 165.851 319.383 164.98C320.253 164.11 321.433 163.621 322.664 163.621H385.361C386.591 163.621 387.772 163.132 388.642 162.262C389.512 161.392 390.001 160.212 390.001 158.981C390.001 158.371 389.881 157.768 389.648 157.205C389.415 156.642 389.073 156.13 388.642 155.699C388.211 155.268 387.7 154.926 387.137 154.693C386.574 154.46 385.97 154.34 385.361 154.34H340.737C340.128 154.34 339.524 154.22 338.961 153.987C338.398 153.754 337.886 153.412 337.455 152.981C337.024 152.55 336.683 152.039 336.449 151.476C336.216 150.913 336.096 150.309 336.096 149.7C336.096 148.469 336.585 147.288 337.455 146.418C338.326 145.548 339.506 145.059 340.737 145.059H355.485C356.095 145.059 356.698 144.939 357.261 144.706C357.824 144.472 358.336 144.131 358.767 143.7C359.198 143.269 359.54 142.757 359.773 142.194C360.006 141.631 360.126 141.028 360.126 140.418Z" fill="white"/>
<g style="mix-blend-mode:multiply" opacity="0.56">
<path d="M355.596 268.333V262.819L345.958 260.79C345.591 258.253 344.928 255.768 343.982 253.386L351.31 246.814L348.553 242.039L339.19 245.101C337.599 243.093 335.782 241.276 333.774 239.686L336.836 230.323L332.062 227.566L325.49 234.893C323.107 233.947 320.622 233.283 318.086 232.915L316.056 223.277H310.543L308.514 232.915C305.977 233.283 303.492 233.947 301.11 234.893L294.538 227.566L289.763 230.323L292.825 239.686C290.817 241.276 289 243.093 287.409 245.101L278.045 242.039L275.288 246.814L282.614 253.386C281.668 255.768 281.005 258.253 280.638 260.79L271 262.819V268.333L280.638 270.362C281.005 272.898 281.668 275.383 282.614 277.766L275.286 284.338L278.045 289.113L287.409 286.051C288.999 288.059 290.816 289.876 292.824 291.466L289.762 300.829L294.537 303.586L301.109 296.259C303.491 297.205 305.976 297.869 308.513 298.237L310.542 307.875H316.056L318.085 298.237C320.622 297.869 323.107 297.205 325.489 296.259L332.06 303.586L336.835 300.829L333.773 291.466C335.781 289.876 337.598 288.059 339.188 286.051L348.552 289.113L351.309 284.338L343.981 277.766C344.927 275.383 345.59 272.898 345.957 270.362L355.596 268.333ZM337.348 265.576C337.348 270.333 335.938 274.983 333.295 278.938C330.652 282.893 326.896 285.976 322.501 287.796C318.107 289.616 313.271 290.093 308.606 289.165C303.94 288.237 299.655 285.947 296.291 282.583C292.928 279.22 290.637 274.935 289.708 270.269C288.78 265.604 289.256 260.768 291.076 256.374C292.896 251.979 295.978 248.222 299.933 245.579C303.888 242.936 308.537 241.525 313.294 241.525C316.453 241.524 319.581 242.146 322.499 243.354C325.417 244.563 328.069 246.335 330.303 248.568C332.537 250.802 334.308 253.453 335.517 256.371C336.726 259.29 337.348 262.418 337.348 265.576Z" fill="#C5CAE9"/>
<path d="M323.521 267.998C324.862 262.348 321.369 256.681 315.72 255.34C310.07 253.998 304.403 257.491 303.061 263.141C301.72 268.79 305.213 274.457 310.862 275.799C316.512 277.14 322.179 273.647 323.521 267.998Z" fill="#C5CAE9"/>
</g>
<path d="M140.744 224.143H79.9922V282.132H140.744V224.143Z" fill="#242B5B"/>
<path d="M148.29 229.074H72.4219C72.4219 226.459 73.4609 223.95 75.3104 222.1C77.16 220.251 79.6685 219.212 82.2841 219.212H138.425C141.041 219.212 143.549 220.251 145.399 222.1C147.248 223.95 148.287 226.459 148.287 229.074H148.29Z" fill="url(#paint0_linear_1108_15386)"/>
<path d="M148.291 233.709H72.4258V243.571H148.291V233.709Z" fill="url(#paint1_linear_1108_15386)"/>
<path d="M148.291 248.207H72.4258V258.069H148.291V248.207Z" fill="url(#paint2_linear_1108_15386)"/>
<path d="M148.291 262.705H72.4258V272.567H148.291V262.705Z" fill="url(#paint3_linear_1108_15386)"/>
<path d="M138.429 287.066H82.288C79.6724 287.066 77.1639 286.027 75.3144 284.178C73.4648 282.328 72.4258 279.82 72.4258 277.204H148.294C148.294 278.499 148.038 279.782 147.543 280.979C147.047 282.175 146.32 283.263 145.404 284.179C144.488 285.094 143.401 285.821 142.204 286.316C141.007 286.812 139.724 287.067 138.429 287.066Z" fill="url(#paint4_linear_1108_15386)"/>
<path d="M138.425 287.067H82.2841C79.6685 287.067 77.16 286.028 75.3104 284.178C73.4609 282.329 72.4219 279.82 72.4219 277.205H148.29C148.29 278.5 148.035 279.783 147.539 280.979C147.043 282.176 146.316 283.263 145.4 284.179C144.484 285.095 143.397 285.821 142.2 286.317C141.003 286.812 139.72 287.067 138.425 287.067Z" fill="url(#paint5_linear_1108_15386)"/>
<path d="M87.0854 224.143C87.0854 224.455 86.9929 224.76 86.8195 225.02C86.6462 225.279 86.3998 225.482 86.1115 225.601C85.8232 225.72 85.506 225.752 85.1999 225.691C84.8939 225.63 84.6127 225.48 84.392 225.259C84.1714 225.039 84.021 224.758 83.9601 224.451C83.8991 224.145 83.9303 223.828 84.0496 223.54C84.1689 223.252 84.3711 223.005 84.6305 222.832C84.8899 222.658 85.1949 222.566 85.5069 222.565C85.7142 222.565 85.9194 222.606 86.1109 222.685C86.3024 222.765 86.4765 222.881 86.623 223.027C86.7696 223.174 86.8859 223.348 86.9652 223.539C87.0446 223.731 87.0854 223.936 87.0854 224.143Z" fill="#242B5B"/>
<path d="M94.1909 224.143C94.1909 224.455 94.0983 224.76 93.9249 225.02C93.7516 225.279 93.5051 225.482 93.2168 225.601C92.9285 225.72 92.6113 225.752 92.3052 225.691C91.9991 225.63 91.718 225.48 91.4973 225.259C91.2766 225.038 91.1264 224.757 91.0655 224.451C91.0046 224.145 91.0358 223.828 91.1553 223.539C91.2747 223.251 91.4769 223.005 91.7364 222.831C91.9959 222.658 92.3009 222.565 92.613 222.565C92.8202 222.565 93.0254 222.606 93.2168 222.686C93.4083 222.765 93.5822 222.881 93.7287 223.028C93.8752 223.174 93.9915 223.348 94.0708 223.539C94.15 223.731 94.1909 223.936 94.1909 224.143Z" fill="#242B5B"/>
<path d="M101.281 224.143C101.281 224.455 101.188 224.76 101.015 225.02C100.841 225.279 100.595 225.482 100.307 225.601C100.018 225.72 99.7011 225.752 99.395 225.691C99.0889 225.63 98.8078 225.48 98.5871 225.259C98.3665 225.038 98.2162 224.757 98.1553 224.451C98.0944 224.145 98.1257 223.828 98.2451 223.539C98.3645 223.251 98.5668 223.005 98.8262 222.831C99.0857 222.658 99.3908 222.565 99.7029 222.565C100.121 222.565 100.523 222.732 100.819 223.028C101.114 223.323 101.281 223.725 101.281 224.143Z" fill="#242B5B"/>
<g style="mix-blend-mode:screen" opacity="0.35">
<path d="M148.286 229.074C148.286 226.459 147.247 223.95 145.398 222.1C143.548 220.251 141.04 219.212 138.424 219.212H99.0508L108.913 229.074H148.286Z" fill="url(#paint6_linear_1108_15386)"/>
<path d="M148.285 233.709H113.547L123.409 243.572H148.287L148.285 233.709Z" fill="url(#paint7_linear_1108_15386)"/>
<path d="M148.292 248.207H128.051L137.914 258.069H148.292L148.292 248.207Z" fill="url(#paint8_linear_1108_15386)"/>
<path d="M148.28 262.705H142.539L148.28 268.446V262.705Z" fill="url(#paint9_linear_1108_15386)"/>
</g>
<path d="M228.637 297.266H173.113L180.917 259.093H220.834L228.637 297.266Z" fill="#7986CB"/>
<g style="mix-blend-mode:multiply" opacity="0.6">
<path d="M224.46 276.521H177.297L180.92 259.093H220.837L224.46 276.521Z" fill="#7986CB"/>
</g>
<path d="M248.48 302.808H153.273C153.273 300.511 154.186 298.308 155.81 296.683C157.435 295.059 159.638 294.146 161.935 294.146H239.819C242.116 294.146 244.319 295.059 245.944 296.683C247.568 298.308 248.48 300.511 248.48 302.808Z" fill="url(#paint10_linear_1108_15386)"/>
<path d="M285.574 150.234H116.179C111.259 150.234 107.27 154.223 107.27 159.144V263.676C107.27 268.596 111.259 272.585 116.179 272.585H285.574C290.494 272.585 294.483 268.596 294.483 263.676V159.144C294.483 154.223 290.494 150.234 285.574 150.234Z" fill="url(#paint11_linear_1108_15386)"/>
<path d="M289.422 158.973H112.328V252.347H289.422V158.973Z" fill="#0078C0"/>
<path d="M289.422 158.973H112.328V252.347H289.422V158.973Z" fill="url(#paint12_linear_1108_15386)"/>
<g style="mix-blend-mode:multiply" opacity="0.6">
<path d="M289.422 158.973H112.328V165.265H289.422V158.973Z" fill="#7986CB"/>
</g>
<path d="M200.877 266.401C203.05 266.401 204.812 264.639 204.812 262.466C204.812 260.292 203.05 258.53 200.877 258.53C198.703 258.53 196.941 260.292 196.941 262.466C196.941 264.639 198.703 266.401 200.877 266.401Z" fill="#EAEEF1"/>
<g style="mix-blend-mode:overlay" opacity="0.2">
<path d="M289.424 158.974H165.43L258.803 252.346H289.422L289.424 158.974Z" fill="white"/>
</g>
<path d="M182.265 133.931L94.1217 143.243C92.6996 143.393 91.7047 145.008 91.8993 146.851L97.2433 197.438C97.4379 199.28 98.7484 200.652 100.17 200.501L188.314 191.19C189.736 191.04 190.731 189.425 190.536 187.582L185.192 136.995C184.998 135.153 183.687 133.781 182.265 133.931Z" fill="url(#paint13_linear_1108_15386)"/>
<path d="M179.896 146.183L99.0024 154.729C98.2114 154.812 97.41 154.484 96.7743 153.819C96.1385 153.153 95.7202 152.204 95.6114 151.179C95.5037 150.155 95.7144 149.139 96.1971 148.355C96.6798 147.572 97.3951 147.084 98.1859 147L179.08 138.454C179.871 138.371 180.673 138.698 181.309 139.363C181.946 140.029 182.364 140.978 182.473 142.003C182.581 143.029 182.37 144.045 181.887 144.829C181.404 145.612 180.688 146.1 179.896 146.183Z" fill="url(#paint14_linear_1108_15386)"/>
<g style="mix-blend-mode:multiply" opacity="0.57">
<path d="M98.3401 148.46L179.234 139.914C179.927 139.841 180.631 140.084 181.226 140.599C181.82 141.115 182.267 141.872 182.491 142.74C182.518 142.171 182.446 141.596 182.28 141.054C182.114 140.513 181.858 140.019 181.532 139.609C181.205 139.199 180.816 138.882 180.392 138.683C179.968 138.483 179.52 138.405 179.08 138.454L98.1859 147C97.7456 147.044 97.3237 147.213 96.9507 147.497C96.5778 147.781 96.2631 148.172 96.0295 148.641C95.7959 149.111 95.6492 149.647 95.6001 150.211C95.5509 150.775 95.6005 151.353 95.7453 151.903C95.7827 151.008 96.0622 150.174 96.5357 149.546C97.0093 148.917 97.6473 148.533 98.3401 148.46Z" fill="#FB8C00"/>
</g>
<path d="M98.8814 151.948C99.3517 151.899 99.6807 151.365 99.6164 150.755C99.552 150.146 99.1186 149.692 98.6483 149.742C98.1781 149.792 97.8491 150.326 97.9134 150.935C97.9778 151.544 98.4112 151.998 98.8814 151.948Z" fill="white"/>
<path d="M103.038 151.509C103.508 151.459 103.837 150.925 103.773 150.316C103.708 149.707 103.275 149.253 102.805 149.303C102.334 149.352 102.005 149.886 102.07 150.496C102.134 151.105 102.567 151.559 103.038 151.509Z" fill="white"/>
<path d="M107.206 151.07C107.676 151.02 108.005 150.486 107.941 149.876C107.876 149.267 107.443 148.813 106.973 148.863C106.502 148.913 106.173 149.447 106.238 150.056C106.302 150.666 106.735 151.119 107.206 151.07Z" fill="white"/>
<path d="M112.017 183.694L104.281 178.944L110.854 172.682" stroke="#5C6BC0" stroke-width="2" stroke-linecap="round" stroke-linejoin="round"/>
<path d="M125.016 171.188L132.752 175.939L126.179 182.199" stroke="#5C6BC0" stroke-width="2" stroke-linecap="round" stroke-linejoin="round"/>
<path d="M122.989 167.099L114.051 187.784" stroke="#5C6BC0" stroke-width="2" stroke-linecap="round" stroke-linejoin="round"/>
<path d="M179.857 165.466L138.508 169.834C138.204 169.866 137.896 169.741 137.651 169.485C137.406 169.229 137.246 168.864 137.204 168.47C137.162 168.075 137.243 167.685 137.429 167.383C137.615 167.082 137.89 166.894 138.194 166.862L179.543 162.494C179.847 162.462 180.156 162.588 180.4 162.844C180.644 163.1 180.805 163.465 180.847 163.859C180.888 164.253 180.807 164.644 180.622 164.945C180.436 165.246 180.161 165.434 179.857 165.466Z" fill="#C5CAE9"/>
<path d="M180.591 172.387L139.242 176.755C138.938 176.787 138.63 176.661 138.385 176.405C138.141 176.149 137.98 175.784 137.938 175.39C137.897 174.996 137.978 174.605 138.163 174.304C138.349 174.003 138.624 173.815 138.928 173.783L180.278 169.415C180.582 169.383 180.89 169.509 181.134 169.765C181.379 170.021 181.539 170.386 181.581 170.78C181.623 171.174 181.542 171.564 181.356 171.866C181.171 172.167 180.896 172.355 180.591 172.387Z" fill="#C5CAE9"/>
<path d="M181.322 179.309L139.973 183.677C139.669 183.709 139.36 183.583 139.116 183.327C138.871 183.072 138.71 182.706 138.669 182.312C138.627 181.918 138.708 181.527 138.894 181.226C139.079 180.925 139.355 180.737 139.659 180.705L181.008 176.337C181.312 176.305 181.62 176.431 181.865 176.687C182.109 176.943 182.27 177.308 182.312 177.702C182.353 178.096 182.272 178.487 182.087 178.788C181.901 179.089 181.626 179.276 181.322 179.309Z" fill="#C5CAE9"/>
<path d="M200.558 114.705V111.192L194.417 109.899C194.183 108.283 193.76 106.7 193.157 105.182L197.826 100.995L196.07 97.953L190.105 99.9038C189.092 98.6245 187.934 97.4668 186.655 96.4536L188.605 90.4885L185.563 88.7322L181.376 93.4004C179.858 92.7974 178.275 92.3744 176.659 92.1398L175.366 86H171.854L170.56 92.141C168.944 92.3757 167.36 92.7988 165.843 93.4016L161.656 88.7335L158.613 90.4897L160.565 96.4548C159.285 97.4678 158.127 98.6256 157.114 99.905L151.149 97.9543L149.392 100.996L154.061 105.184C153.458 106.701 153.035 108.284 152.801 109.901L146.66 111.193V114.706L152.801 115.999C153.035 117.615 153.458 119.198 154.061 120.716L149.392 124.903L151.149 127.945L157.114 125.994C158.127 127.273 159.285 128.431 160.565 129.445L158.613 135.41L161.656 137.166L165.843 132.498C167.36 133.101 168.944 133.524 170.56 133.758L171.853 139.898H175.365L176.658 133.758C178.274 133.524 179.857 133.101 181.375 132.498L185.562 137.166L188.604 135.41L186.653 129.445C187.933 128.431 189.09 127.273 190.104 125.994L196.07 127.945L197.827 124.903L193.158 120.716C193.761 119.198 194.185 117.615 194.419 115.999L200.558 114.705ZM188.932 112.948C188.932 115.979 188.033 118.941 186.35 121.461C184.666 123.981 182.273 125.945 179.473 127.105C176.673 128.265 173.592 128.568 170.62 127.977C167.647 127.385 164.917 125.926 162.774 123.783C160.631 121.64 159.172 118.91 158.58 115.938C157.989 112.965 158.293 109.884 159.452 107.084C160.612 104.284 162.576 101.891 165.096 100.208C167.616 98.5239 170.578 97.6252 173.609 97.6252C177.673 97.6254 181.57 99.2398 184.444 102.113C187.317 104.987 188.932 108.884 188.932 112.948Z" fill="url(#paint15_linear_1108_15386)"/>
<path d="M225.218 132.738V130.956L222.102 130.299C221.983 129.479 221.769 128.676 221.463 127.905L223.832 125.78L222.94 124.237L219.916 125.224C219.4 124.577 218.812 123.991 218.162 123.479L219.149 120.454L217.606 119.562L215.481 121.932C214.711 121.626 213.908 121.411 213.087 121.292L212.431 118.175H210.648L209.992 121.292C209.172 121.411 208.368 121.626 207.598 121.932L205.473 119.562L203.93 120.454L204.917 123.479C204.268 123.993 203.68 124.581 203.166 125.23L200.141 124.242L199.25 125.786L201.62 127.911C201.313 128.681 201.099 129.485 200.979 130.305L197.863 130.961V132.738L200.979 133.395C201.098 134.215 201.313 135.018 201.62 135.788L199.25 137.914L200.141 139.457L203.166 138.469C203.68 139.119 204.268 139.707 204.917 140.221L203.93 143.246L205.473 144.138L207.598 141.768C208.368 142.074 209.172 142.289 209.992 142.408L210.648 145.524H212.431L213.087 142.408C213.908 142.289 214.711 142.074 215.481 141.768L217.606 144.138L219.149 143.246L218.162 140.221C218.811 139.707 219.398 139.119 219.912 138.469L222.937 139.457L223.829 137.914L221.459 135.788C221.766 135.018 221.98 134.215 222.099 133.395L225.218 132.738ZM219.318 131.847C219.318 133.385 218.862 134.889 218.007 136.168C217.152 137.447 215.938 138.444 214.516 139.033C213.095 139.622 211.531 139.776 210.022 139.476C208.514 139.176 207.128 138.435 206.04 137.347C204.952 136.259 204.211 134.873 203.911 133.364C203.611 131.856 203.765 130.292 204.354 128.87C204.942 127.449 205.939 126.234 207.219 125.38C208.498 124.525 210.001 124.069 211.54 124.069C212.562 124.069 213.573 124.27 214.517 124.661C215.461 125.052 216.319 125.625 217.041 126.348C217.763 127.071 218.336 127.928 218.727 128.872C219.118 129.817 219.318 130.828 219.318 131.85V131.847Z" fill="url(#paint16_linear_1108_15386)"/>
<path d="M287.097 116L247.547 111.293L240.526 170.281L280.077 174.989L287.097 116Z" fill="url(#paint17_linear_1108_15386)"/>
<path d="M251.585 105.456L284.537 109.378C284.97 109.43 285.389 109.566 285.769 109.78C286.15 109.993 286.485 110.279 286.755 110.622C287.025 110.965 287.225 111.358 287.343 111.778C287.461 112.198 287.495 112.637 287.444 113.071L287.095 116.001L247.544 111.293L247.892 108.363C247.997 107.488 248.444 106.69 249.137 106.145C249.829 105.6 250.71 105.352 251.585 105.456Z" fill="url(#paint18_linear_1108_15386)"/>
<path d="M240.566 169.935L280.117 174.642L279.768 177.572C279.717 178.005 279.58 178.424 279.367 178.805C279.153 179.185 278.867 179.52 278.524 179.79C277.832 180.335 276.951 180.583 276.076 180.479L243.125 176.557C242.25 176.453 241.452 176.005 240.906 175.313C240.361 174.62 240.114 173.74 240.218 172.865L240.566 169.935Z" fill="url(#paint19_linear_1108_15386)"/>
<g style="mix-blend-mode:overlay" opacity="0.24">
<path d="M287.09 116.002L247.539 111.294L246.321 121.528L281.164 165.786L287.09 116.002Z" fill="white"/>
</g>
<path d="M263.154 148.608C260.342 148.273 257.692 147.112 255.54 145.272C253.388 143.431 251.83 140.994 251.063 138.268C250.296 135.542 250.355 132.65 251.231 129.957C252.108 127.264 253.764 124.892 255.989 123.14C258.214 121.389 260.909 120.336 263.732 120.116C266.555 119.895 269.38 120.517 271.85 121.903C274.32 123.288 276.324 125.375 277.608 127.899C278.892 130.423 279.398 133.271 279.063 136.083C278.61 139.852 276.681 143.287 273.698 145.635C270.716 147.983 266.924 149.052 263.154 148.608ZM266.435 121.045C263.795 120.731 261.122 121.206 258.753 122.411C256.383 123.616 254.425 125.497 253.124 127.815C251.824 130.134 251.24 132.786 251.447 135.436C251.654 138.086 252.642 140.615 254.286 142.703C255.93 144.792 258.157 146.346 260.684 147.169C263.212 147.992 265.926 148.047 268.485 147.328C271.044 146.608 273.332 145.145 275.06 143.125C276.787 141.105 277.877 138.618 278.191 135.979C278.607 132.44 277.604 128.881 275.4 126.082C273.196 123.282 269.972 121.471 266.435 121.045Z" fill="white"/>
<path d="M263.158 148.609C258.968 148.11 256.429 141.474 257.378 133.502C258.327 125.529 262.352 119.675 266.542 120.173C270.732 120.672 273.27 127.308 272.322 135.28C271.373 143.253 267.347 149.107 263.158 148.609ZM266.438 121.046C262.799 120.613 259.126 126.247 258.25 133.606C257.375 140.964 259.623 147.303 263.262 147.736C266.9 148.169 270.573 142.535 271.449 135.177C272.325 127.818 270.077 121.479 266.438 121.046Z" fill="white"/>
<path d="M263.193 148.3C262.952 148.271 262.743 148.361 262.771 148.12L266.052 120.558C266.081 120.317 266.263 120.454 266.504 120.482C266.744 120.511 266.953 120.421 266.924 120.662L263.644 148.224C263.615 148.465 263.433 148.328 263.193 148.3Z" fill="white"/>
<path d="M278.575 136.468L251.012 133.188C250.896 133.174 250.791 133.115 250.719 133.023C250.647 132.931 250.614 132.815 250.628 132.699C250.642 132.583 250.701 132.478 250.792 132.406C250.884 132.334 251 132.301 251.116 132.315L278.679 135.595C278.795 135.609 278.9 135.668 278.972 135.76C279.045 135.851 279.077 135.968 279.064 136.084C279.05 136.199 278.991 136.305 278.899 136.377C278.807 136.449 278.691 136.482 278.575 136.468Z" fill="white"/>
<path d="M263.161 148.608C259.698 148.193 256.506 146.526 254.187 143.921C254.112 143.837 254.072 143.726 254.076 143.613C254.079 143.5 254.127 143.393 254.208 143.314C255.484 141.981 257.053 140.964 258.79 140.341C260.527 139.719 262.385 139.508 264.218 139.726C266.05 139.945 267.807 140.585 269.349 141.598C270.892 142.611 272.178 143.968 273.106 145.563C273.166 145.659 273.187 145.774 273.164 145.885C273.141 145.996 273.077 146.094 272.984 146.158C270.118 148.146 266.624 149.017 263.161 148.608ZM255.132 143.65C257.282 145.92 260.16 147.366 263.264 147.735C266.369 148.105 269.506 147.375 272.129 145.673C271.256 144.283 270.083 143.106 268.696 142.228C267.309 141.35 265.744 140.793 264.114 140.599C262.484 140.405 260.831 140.579 259.277 141.107C257.723 141.634 256.306 142.503 255.132 143.65Z" fill="white"/>
<path d="M265.485 129.054C263.661 128.809 261.915 128.157 260.376 127.147C258.838 126.137 257.546 124.794 256.596 123.217C256.536 123.121 256.516 123.006 256.538 122.895C256.561 122.784 256.626 122.687 256.719 122.622C259.583 120.632 263.078 119.76 266.542 120.172C270.006 120.585 273.198 122.252 275.515 124.859C275.591 124.944 275.631 125.054 275.627 125.167C275.623 125.28 275.576 125.387 275.495 125.466C274.202 126.776 272.631 127.778 270.898 128.399C269.165 129.02 267.315 129.244 265.485 129.054ZM257.574 123.108C258.446 124.498 259.619 125.675 261.006 126.553C262.393 127.431 263.959 127.987 265.589 128.181C267.218 128.375 268.871 128.202 270.425 127.674C271.98 127.146 273.396 126.277 274.57 125.131C272.42 122.86 269.543 121.415 266.438 121.045C263.333 120.675 260.197 121.405 257.574 123.108Z" fill="white"/>
<path d="M272.213 160.34C273.108 160.235 273.418 159.093 272.699 158.55L266.468 153.837C265.824 153.35 264.899 153.787 264.865 154.592L264.538 162.398C264.5 163.298 265.578 163.785 266.229 163.162L266.748 162.665C267.231 162.202 268.022 162.334 268.329 162.928L269.793 165.768C270.04 166.247 270.622 166.444 271.109 166.214L271.752 165.911C272.264 165.669 272.473 165.051 272.214 164.548L270.829 161.864C270.509 161.243 270.907 160.494 271.601 160.412L272.213 160.34Z" fill="white"/>
<path d="M187.421 235.983C187.575 236.357 187.94 236.601 188.345 236.601H193.375C194.099 236.601 194.583 235.855 194.288 235.193L181.85 207.377C181.689 207.017 181.331 206.785 180.937 206.785H175.419C175.024 206.785 174.666 207.017 174.506 207.378L162.108 235.194C161.813 235.856 162.297 236.601 163.021 236.601H167.882C168.287 236.601 168.652 236.357 168.807 235.983L170.937 230.83C171.091 230.456 171.456 230.212 171.861 230.212H184.367C184.771 230.212 185.136 230.456 185.291 230.83L187.421 235.983ZM174.904 224.973C174.191 224.973 173.707 224.249 173.98 223.59L177.211 215.788C177.552 214.965 178.718 214.965 179.059 215.788L182.29 223.59C182.563 224.249 182.079 224.973 181.366 224.973H174.904Z" fill="white"/>
<path d="M210.917 206.785H199.011C198.458 206.785 198.011 207.233 198.011 207.785V235.601C198.011 236.154 198.458 236.601 199.011 236.601H203.911C204.463 236.601 204.911 236.154 204.911 235.601V229.381C204.911 228.828 205.359 228.381 205.911 228.381H210.917C218.882 228.381 223.866 224.249 223.866 217.604C223.866 210.917 218.882 206.785 210.917 206.785ZM210.534 222.758H205.911C205.359 222.758 204.911 222.31 204.911 221.758V213.408C204.911 212.855 205.359 212.408 205.911 212.408H210.534C214.75 212.408 216.88 214.324 216.88 217.604C216.88 220.841 214.75 222.758 210.534 222.758Z" fill="white"/>
<path d="M228.792 235.601C228.792 236.154 229.24 236.601 229.792 236.601H234.692C235.245 236.601 235.692 236.154 235.692 235.601V207.785C235.692 207.233 235.245 206.785 234.692 206.785H229.792C229.24 206.785 228.792 207.233 228.792 207.785V235.601Z" fill="white"/>
<defs>
<linearGradient id="paint0_linear_1108_15386" x1="72.4219" y1="224.143" x2="148.29" y2="224.143" gradientUnits="userSpaceOnUse">
<stop stop-color="#FF9900"/>
<stop offset="1" stop-color="#FFC46E"/>
</linearGradient>
<linearGradient id="paint1_linear_1108_15386" x1="72.4258" y1="238.64" x2="148.291" y2="238.64" gradientUnits="userSpaceOnUse">
<stop stop-color="#FF9900"/>
<stop offset="1" stop-color="#FFC46E"/>
</linearGradient>
<linearGradient id="paint2_linear_1108_15386" x1="72.4258" y1="253.138" x2="148.291" y2="253.138" gradientUnits="userSpaceOnUse">
<stop stop-color="#FF9900"/>
<stop offset="1" stop-color="#FFC46E"/>
</linearGradient>
<linearGradient id="paint3_linear_1108_15386" x1="72.4258" y1="267.636" x2="148.291" y2="267.636" gradientUnits="userSpaceOnUse">
<stop stop-color="#FF9900"/>
<stop offset="1" stop-color="#FFC46E"/>
</linearGradient>
<linearGradient id="paint4_linear_1108_15386" x1="72.4258" y1="282.135" x2="148.294" y2="282.135" gradientUnits="userSpaceOnUse">
<stop stop-color="#FF9900"/>
<stop offset="1" stop-color="#FFC46E"/>
</linearGradient>
<linearGradient id="paint5_linear_1108_15386" x1="72.4219" y1="282.136" x2="148.29" y2="282.136" gradientUnits="userSpaceOnUse">
<stop stop-color="#FF9900"/>
<stop offset="1" stop-color="#FFC46E"/>
</linearGradient>
<linearGradient id="paint6_linear_1108_15386" x1="72.4143" y1="224.143" x2="148.286" y2="224.143" gradientUnits="userSpaceOnUse">
<stop stop-color="#FF9100"/>
<stop offset="1" stop-color="#FFC46E"/>
</linearGradient>
<linearGradient id="paint7_linear_1108_15386" x1="72.4148" y1="238.641" x2="148.287" y2="238.641" gradientUnits="userSpaceOnUse">
<stop stop-color="#FF9100"/>
<stop offset="1" stop-color="#FFC46E"/>
</linearGradient>
<linearGradient id="paint8_linear_1108_15386" x1="72.4266" y1="253.138" x2="148.292" y2="253.138" gradientUnits="userSpaceOnUse">
<stop stop-color="#FF9100"/>
<stop offset="1" stop-color="#FFC46E"/>
</linearGradient>
<linearGradient id="paint9_linear_1108_15386" x1="72.4469" y1="265.575" x2="148.28" y2="265.575" gradientUnits="userSpaceOnUse">
<stop stop-color="#FF9100"/>
<stop offset="1" stop-color="#FFC46E"/>
</linearGradient>
<linearGradient id="paint10_linear_1108_15386" x1="153.273" y1="298.477" x2="248.48" y2="298.477" gradientUnits="userSpaceOnUse">
<stop stop-color="#CCD1EC"/>
<stop offset="1" stop-color="white"/>
</linearGradient>
<linearGradient id="paint11_linear_1108_15386" x1="200.876" y1="272.585" x2="200.876" y2="150.234" gradientUnits="userSpaceOnUse">
<stop stop-color="#CFD6F9"/>
<stop offset="1" stop-color="white"/>
</linearGradient>
<linearGradient id="paint12_linear_1108_15386" x1="200.875" y1="158.973" x2="200.875" y2="252.347" gradientUnits="userSpaceOnUse">
<stop offset="0.275742" stop-color="#0380DC"/>
<stop offset="1" stop-color="#0061D3"/>
</linearGradient>
<linearGradient id="paint13_linear_1108_15386" x1="146.039" y1="212.852" x2="138.127" y2="137.957" gradientUnits="userSpaceOnUse">
<stop stop-color="#CCD1EC"/>
<stop offset="1" stop-color="white"/>
</linearGradient>
<linearGradient id="paint14_linear_1108_15386" x1="95.6114" y1="151.179" x2="182.473" y2="142.003" gradientUnits="userSpaceOnUse">
<stop stop-color="#FF9900"/>
<stop offset="1" stop-color="#FFC46E"/>
</linearGradient>
<linearGradient id="paint15_linear_1108_15386" x1="221.201" y1="160.541" x2="149.678" y2="89.0191" gradientUnits="userSpaceOnUse">
<stop stop-color="white"/>
<stop offset="1" stop-color="#DFE2F3"/>
</linearGradient>
<linearGradient id="paint16_linear_1108_15386" x1="226.695" y1="147.001" x2="155.206" y2="75.495" gradientUnits="userSpaceOnUse">
<stop stop-color="white"/>
<stop offset="1" stop-color="#DFE2F3"/>
</linearGradient>
<linearGradient id="paint17_linear_1108_15386" x1="267.322" y1="113.647" x2="260.301" y2="172.635" gradientUnits="userSpaceOnUse">
<stop stop-color="#FFC514"/>
<stop offset="1" stop-color="#FFA800"/>
</linearGradient>
<linearGradient id="paint18_linear_1108_15386" x1="297.128" y1="102.139" x2="286.233" y2="182.646" gradientUnits="userSpaceOnUse">
<stop stop-color="#CCD1EC"/>
<stop offset="1" stop-color="white"/>
</linearGradient>
<linearGradient id="paint19_linear_1108_15386" x1="87.6011" y1="-127.453" x2="76.7063" y2="-46.9453" gradientUnits="userSpaceOnUse">
<stop stop-color="#CCD1EC"/>
<stop offset="1" stop-color="white"/>
</linearGradient>
</defs>
</svg>
