<svg width="336" height="118" viewBox="0 0 336 118" fill="none" xmlns="http://www.w3.org/2000/svg">
<g filter="url(#filter0_d_750_8252)">
<rect x="12.5" y="8" width="311" height="94" rx="8" fill="white" shape-rendering="crispEdges"/>
<g filter="url(#filter1_d_750_8252)">
<rect x="32.5" y="28" width="54" height="54" rx="8" fill="white" shape-rendering="crispEdges"/>
<path d="M64.1368 45.8636V63.8636C64.1368 65.8777 65.5277 67 67.0004 67C68.3641 67 69.8641 66.0455 69.8641 63.8636V46C69.8641 44.1536 68.5004 43 67.0004 43C65.5004 43 64.1368 44.2723 64.1368 45.8636Z" fill="#F9AB00"/>
<path d="M56.6367 55V63.8636C56.6367 65.8777 58.0277 67 59.5004 67C60.864 67 62.364 66.0455 62.364 63.8636V55.1364C62.364 53.29 61.0004 52.1364 59.5004 52.1364C58.0004 52.1364 56.6367 53.4086 56.6367 55Z" fill="#E37400"/>
<path d="M52.0004 67C53.5819 67 54.864 65.7179 54.864 64.1364C54.864 62.5548 53.5819 61.2727 52.0004 61.2727C50.4188 61.2727 49.1367 62.5548 49.1367 64.1364C49.1367 65.7179 50.4188 67 52.0004 67Z" fill="#E37400"/>
</g>
<path d="M112.692 61.716C111.708 61.716 110.814 61.482 110.01 61.014C109.206 60.546 108.564 59.862 108.084 58.962C107.616 58.05 107.382 56.946 107.382 55.65C107.382 54.366 107.622 53.268 108.102 52.356C108.594 51.432 109.248 50.73 110.064 50.25C110.88 49.758 111.78 49.512 112.764 49.512C113.508 49.512 114.168 49.662 114.744 49.962C115.32 50.262 115.794 50.61 116.166 51.006L115.05 52.356C114.75 52.044 114.414 51.798 114.042 51.618C113.682 51.426 113.274 51.33 112.818 51.33C112.182 51.33 111.612 51.504 111.108 51.852C110.616 52.188 110.226 52.674 109.938 53.31C109.662 53.946 109.524 54.708 109.524 55.596C109.524 56.94 109.818 57.996 110.406 58.764C110.994 59.52 111.78 59.898 112.764 59.898C113.292 59.898 113.76 59.79 114.168 59.574C114.576 59.346 114.948 59.052 115.284 58.692L116.4 60.006C115.92 60.558 115.368 60.984 114.744 61.284C114.132 61.572 113.448 61.716 112.692 61.716ZM121.803 61.716C121.071 61.716 120.387 61.536 119.751 61.176C119.115 60.804 118.599 60.276 118.203 59.592C117.807 58.896 117.609 58.062 117.609 57.09C117.609 56.106 117.807 55.272 118.203 54.588C118.599 53.892 119.115 53.364 119.751 53.004C120.387 52.632 121.071 52.446 121.803 52.446C122.547 52.446 123.237 52.632 123.873 53.004C124.509 53.364 125.025 53.892 125.421 54.588C125.817 55.272 126.015 56.106 126.015 57.09C126.015 58.062 125.817 58.896 125.421 59.592C125.025 60.276 124.509 60.804 123.873 61.176C123.237 61.536 122.547 61.716 121.803 61.716ZM121.803 60.024C122.451 60.024 122.961 59.754 123.333 59.214C123.705 58.674 123.891 57.966 123.891 57.09C123.891 56.202 123.705 55.488 123.333 54.948C122.961 54.408 122.451 54.138 121.803 54.138C121.155 54.138 120.645 54.408 120.273 54.948C119.913 55.488 119.733 56.202 119.733 57.09C119.733 57.966 119.913 58.674 120.273 59.214C120.645 59.754 121.155 60.024 121.803 60.024ZM128.064 61.5V52.662H129.774L129.918 53.85H129.99C130.386 53.466 130.818 53.136 131.286 52.86C131.754 52.584 132.288 52.446 132.888 52.446C133.836 52.446 134.526 52.752 134.958 53.364C135.39 53.976 135.606 54.84 135.606 55.956V61.5H133.536V56.226C133.536 55.494 133.428 54.978 133.212 54.678C132.996 54.378 132.642 54.228 132.15 54.228C131.766 54.228 131.424 54.324 131.124 54.516C130.836 54.696 130.506 54.966 130.134 55.326V61.5H128.064ZM138.136 61.5V52.662H139.846L139.99 53.85H140.062C140.458 53.466 140.89 53.136 141.358 52.86C141.826 52.584 142.36 52.446 142.96 52.446C143.908 52.446 144.598 52.752 145.03 53.364C145.462 53.976 145.678 54.84 145.678 55.956V61.5H143.608V56.226C143.608 55.494 143.5 54.978 143.284 54.678C143.068 54.378 142.714 54.228 142.222 54.228C141.838 54.228 141.496 54.324 141.196 54.516C140.908 54.696 140.578 54.966 140.206 55.326V61.5H138.136ZM151.989 61.716C151.173 61.716 150.435 61.536 149.775 61.176C149.115 60.804 148.593 60.276 148.209 59.592C147.825 58.896 147.633 58.062 147.633 57.09C147.633 56.13 147.825 55.302 148.209 54.606C148.605 53.91 149.115 53.376 149.739 53.004C150.363 52.632 151.017 52.446 151.701 52.446C152.505 52.446 153.177 52.626 153.717 52.986C154.257 53.334 154.665 53.826 154.941 54.462C155.217 55.086 155.355 55.812 155.355 56.64C155.355 57.072 155.325 57.408 155.265 57.648H149.649C149.745 58.428 150.027 59.034 150.495 59.466C150.963 59.898 151.551 60.114 152.259 60.114C152.643 60.114 152.997 60.06 153.321 59.952C153.657 59.832 153.987 59.67 154.311 59.466L155.013 60.762C154.593 61.038 154.125 61.266 153.609 61.446C153.093 61.626 152.553 61.716 151.989 61.716ZM149.631 56.244H153.555C153.555 55.56 153.405 55.026 153.105 54.642C152.805 54.246 152.355 54.048 151.755 54.048C151.239 54.048 150.777 54.24 150.369 54.624C149.973 54.996 149.727 55.536 149.631 56.244ZM161.022 61.716C160.218 61.716 159.492 61.536 158.844 61.176C158.208 60.804 157.698 60.276 157.314 59.592C156.942 58.896 156.756 58.062 156.756 57.09C156.756 56.106 156.96 55.272 157.368 54.588C157.776 53.892 158.316 53.364 158.988 53.004C159.672 52.632 160.404 52.446 161.184 52.446C161.748 52.446 162.24 52.542 162.66 52.734C163.08 52.926 163.452 53.16 163.776 53.436L162.768 54.786C162.54 54.582 162.306 54.426 162.066 54.318C161.826 54.198 161.568 54.138 161.292 54.138C160.584 54.138 160.002 54.408 159.546 54.948C159.102 55.488 158.88 56.202 158.88 57.09C158.88 57.966 159.096 58.674 159.528 59.214C159.972 59.754 160.542 60.024 161.238 60.024C161.586 60.024 161.91 59.952 162.21 59.808C162.522 59.652 162.804 59.472 163.056 59.268L163.902 60.636C163.494 60.996 163.038 61.266 162.534 61.446C162.03 61.626 161.526 61.716 161.022 61.716ZM168.584 61.716C167.564 61.716 166.838 61.422 166.406 60.834C165.986 60.234 165.776 59.46 165.776 58.512V54.3H164.516V52.752L165.884 52.662L166.136 50.25H167.864V52.662H170.114V54.3H167.864V58.512C167.864 59.544 168.278 60.06 169.106 60.06C169.262 60.06 169.424 60.042 169.592 60.006C169.76 59.958 169.904 59.91 170.024 59.862L170.384 61.392C170.144 61.476 169.868 61.548 169.556 61.608C169.256 61.68 168.932 61.716 168.584 61.716ZM180.69 61.716C179.634 61.716 178.686 61.482 177.846 61.014C177.006 60.546 176.346 59.862 175.866 58.962C175.386 58.05 175.146 56.946 175.146 55.65C175.146 54.366 175.392 53.268 175.884 52.356C176.376 51.432 177.042 50.73 177.882 50.25C178.722 49.758 179.664 49.512 180.708 49.512C181.548 49.512 182.256 49.668 182.832 49.98C183.42 50.28 183.9 50.622 184.272 51.006L183.156 52.356C182.856 52.068 182.52 51.828 182.148 51.636C181.788 51.432 181.332 51.33 180.78 51.33C179.736 51.33 178.89 51.714 178.242 52.482C177.606 53.238 177.288 54.276 177.288 55.596C177.288 56.94 177.594 57.996 178.206 58.764C178.818 59.52 179.712 59.898 180.888 59.898C181.224 59.898 181.542 59.856 181.842 59.772C182.142 59.676 182.388 59.544 182.58 59.376V56.838H180.348V55.128H184.452V60.312C184.056 60.708 183.528 61.044 182.868 61.32C182.22 61.584 181.494 61.716 180.69 61.716ZM190.498 61.716C189.766 61.716 189.082 61.536 188.446 61.176C187.81 60.804 187.294 60.276 186.898 59.592C186.502 58.896 186.304 58.062 186.304 57.09C186.304 56.106 186.502 55.272 186.898 54.588C187.294 53.892 187.81 53.364 188.446 53.004C189.082 52.632 189.766 52.446 190.498 52.446C191.242 52.446 191.932 52.632 192.568 53.004C193.204 53.364 193.72 53.892 194.116 54.588C194.512 55.272 194.71 56.106 194.71 57.09C194.71 58.062 194.512 58.896 194.116 59.592C193.72 60.276 193.204 60.804 192.568 61.176C191.932 61.536 191.242 61.716 190.498 61.716ZM190.498 60.024C191.146 60.024 191.656 59.754 192.028 59.214C192.4 58.674 192.586 57.966 192.586 57.09C192.586 56.202 192.4 55.488 192.028 54.948C191.656 54.408 191.146 54.138 190.498 54.138C189.85 54.138 189.34 54.408 188.968 54.948C188.608 55.488 188.428 56.202 188.428 57.09C188.428 57.966 188.608 58.674 188.968 59.214C189.34 59.754 189.85 60.024 190.498 60.024ZM200.377 61.716C199.645 61.716 198.961 61.536 198.325 61.176C197.689 60.804 197.173 60.276 196.777 59.592C196.381 58.896 196.183 58.062 196.183 57.09C196.183 56.106 196.381 55.272 196.777 54.588C197.173 53.892 197.689 53.364 198.325 53.004C198.961 52.632 199.645 52.446 200.377 52.446C201.121 52.446 201.811 52.632 202.447 53.004C203.083 53.364 203.599 53.892 203.995 54.588C204.391 55.272 204.589 56.106 204.589 57.09C204.589 58.062 204.391 58.896 203.995 59.592C203.599 60.276 203.083 60.804 202.447 61.176C201.811 61.536 201.121 61.716 200.377 61.716ZM200.377 60.024C201.025 60.024 201.535 59.754 201.907 59.214C202.279 58.674 202.465 57.966 202.465 57.09C202.465 56.202 202.279 55.488 201.907 54.948C201.535 54.408 201.025 54.138 200.377 54.138C199.729 54.138 199.219 54.408 198.847 54.948C198.487 55.488 198.307 56.202 198.307 57.09C198.307 57.966 198.487 58.674 198.847 59.214C199.219 59.754 199.729 60.024 200.377 60.024ZM209.716 65.406C209.02 65.406 208.39 65.322 207.826 65.154C207.274 64.986 206.836 64.728 206.512 64.38C206.2 64.044 206.044 63.618 206.044 63.102C206.044 62.37 206.464 61.74 207.304 61.212V61.14C207.076 60.996 206.884 60.804 206.728 60.564C206.584 60.324 206.512 60.024 206.512 59.664C206.512 59.316 206.608 59.004 206.8 58.728C207.004 58.44 207.232 58.206 207.484 58.026V57.954C207.184 57.726 206.914 57.408 206.674 57C206.446 56.592 206.332 56.13 206.332 55.614C206.332 54.93 206.494 54.354 206.818 53.886C207.142 53.418 207.568 53.064 208.096 52.824C208.636 52.572 209.212 52.446 209.824 52.446C210.064 52.446 210.292 52.47 210.508 52.518C210.736 52.554 210.94 52.602 211.12 52.662H214.288V54.192H212.668C212.812 54.36 212.932 54.576 213.028 54.84C213.124 55.092 213.172 55.374 213.172 55.686C213.172 56.334 213.022 56.886 212.722 57.342C212.422 57.786 212.02 58.122 211.516 58.35C211.012 58.578 210.448 58.692 209.824 58.692C209.632 58.692 209.434 58.674 209.23 58.638C209.026 58.602 208.822 58.542 208.618 58.458C208.486 58.578 208.378 58.698 208.294 58.818C208.222 58.938 208.186 59.1 208.186 59.304C208.186 59.556 208.288 59.754 208.492 59.898C208.708 60.042 209.086 60.114 209.626 60.114H211.192C212.26 60.114 213.064 60.288 213.604 60.636C214.156 60.972 214.432 61.524 214.432 62.292C214.432 62.868 214.24 63.39 213.856 63.858C213.472 64.338 212.926 64.716 212.218 64.992C211.51 65.268 210.676 65.406 209.716 65.406ZM209.824 57.396C210.244 57.396 210.604 57.24 210.904 56.928C211.204 56.616 211.354 56.178 211.354 55.614C211.354 55.062 211.204 54.636 210.904 54.336C210.616 54.024 210.256 53.868 209.824 53.868C209.392 53.868 209.026 54.018 208.726 54.318C208.426 54.618 208.276 55.05 208.276 55.614C208.276 56.178 208.426 56.616 208.726 56.928C209.026 57.24 209.392 57.396 209.824 57.396ZM210.04 64.056C210.748 64.056 211.324 63.912 211.768 63.624C212.212 63.336 212.434 63.006 212.434 62.634C212.434 62.286 212.296 62.052 212.02 61.932C211.756 61.812 211.372 61.752 210.868 61.752H209.662C209.182 61.752 208.78 61.71 208.456 61.626C208 61.974 207.772 62.364 207.772 62.796C207.772 63.192 207.976 63.498 208.384 63.714C208.792 63.942 209.344 64.056 210.04 64.056ZM218.006 61.716C217.274 61.716 216.752 61.494 216.44 61.05C216.14 60.606 215.99 60 215.99 59.232V48.792H218.06V59.34C218.06 59.592 218.108 59.772 218.204 59.88C218.3 59.976 218.402 60.024 218.51 60.024C218.558 60.024 218.6 60.024 218.636 60.024C218.684 60.012 218.75 60 218.834 59.988L219.104 61.536C218.984 61.584 218.828 61.626 218.636 61.662C218.456 61.698 218.246 61.716 218.006 61.716ZM224.657 61.716C223.841 61.716 223.103 61.536 222.443 61.176C221.783 60.804 221.261 60.276 220.877 59.592C220.493 58.896 220.301 58.062 220.301 57.09C220.301 56.13 220.493 55.302 220.877 54.606C221.273 53.91 221.783 53.376 222.407 53.004C223.031 52.632 223.685 52.446 224.369 52.446C225.173 52.446 225.845 52.626 226.385 52.986C226.925 53.334 227.333 53.826 227.609 54.462C227.885 55.086 228.023 55.812 228.023 56.64C228.023 57.072 227.993 57.408 227.933 57.648H222.317C222.413 58.428 222.695 59.034 223.163 59.466C223.631 59.898 224.219 60.114 224.927 60.114C225.311 60.114 225.665 60.06 225.989 59.952C226.325 59.832 226.655 59.67 226.979 59.466L227.681 60.762C227.261 61.038 226.793 61.266 226.277 61.446C225.761 61.626 225.221 61.716 224.657 61.716ZM222.299 56.244H226.223C226.223 55.56 226.073 55.026 225.773 54.642C225.473 54.246 225.023 54.048 224.423 54.048C223.907 54.048 223.445 54.24 223.037 54.624C222.641 54.996 222.395 55.536 222.299 56.244ZM236.195 55.236L235.781 56.676H238.787L238.373 55.236C238.181 54.612 237.995 53.97 237.815 53.31C237.647 52.65 237.479 51.996 237.311 51.348H237.239C237.083 52.008 236.915 52.668 236.735 53.328C236.567 53.976 236.387 54.612 236.195 55.236ZM232.253 61.5L236.087 49.728H238.535L242.369 61.5H240.173L239.255 58.314H235.295L234.377 61.5H232.253ZM243.64 61.5V52.662H245.35L245.494 53.85H245.566C245.962 53.466 246.394 53.136 246.862 52.86C247.33 52.584 247.864 52.446 248.464 52.446C249.412 52.446 250.102 52.752 250.534 53.364C250.966 53.976 251.182 54.84 251.182 55.956V61.5H249.112V56.226C249.112 55.494 249.004 54.978 248.788 54.678C248.572 54.378 248.218 54.228 247.726 54.228C247.342 54.228 247 54.324 246.7 54.516C246.412 54.696 246.082 54.966 245.71 55.326V61.5H243.64ZM255.854 61.716C255.086 61.716 254.456 61.476 253.964 60.996C253.484 60.516 253.244 59.892 253.244 59.124C253.244 58.176 253.658 57.444 254.486 56.928C255.314 56.4 256.634 56.04 258.446 55.848C258.434 55.38 258.308 54.978 258.068 54.642C257.84 54.294 257.426 54.12 256.826 54.12C256.394 54.12 255.968 54.204 255.548 54.372C255.14 54.54 254.738 54.744 254.342 54.984L253.586 53.598C254.078 53.286 254.63 53.016 255.242 52.788C255.866 52.56 256.526 52.446 257.222 52.446C258.326 52.446 259.148 52.776 259.688 53.436C260.24 54.084 260.516 55.026 260.516 56.262V61.5H258.806L258.662 60.528H258.59C258.194 60.864 257.768 61.146 257.312 61.374C256.868 61.602 256.382 61.716 255.854 61.716ZM256.52 60.096C256.88 60.096 257.204 60.012 257.492 59.844C257.792 59.664 258.11 59.424 258.446 59.124V57.144C257.246 57.3 256.412 57.534 255.944 57.846C255.476 58.146 255.242 58.518 255.242 58.962C255.242 59.358 255.362 59.646 255.602 59.826C255.842 60.006 256.148 60.096 256.52 60.096ZM265.01 61.716C264.278 61.716 263.756 61.494 263.444 61.05C263.144 60.606 262.994 60 262.994 59.232V48.792H265.064V59.34C265.064 59.592 265.112 59.772 265.208 59.88C265.304 59.976 265.406 60.024 265.514 60.024C265.562 60.024 265.604 60.024 265.64 60.024C265.688 60.012 265.754 60 265.838 59.988L266.108 61.536C265.988 61.584 265.832 61.626 265.64 61.662C265.46 61.698 265.25 61.716 265.01 61.716ZM268.474 65.136C268.234 65.136 268.024 65.118 267.844 65.082C267.664 65.046 267.49 65.004 267.322 64.956L267.7 63.336C267.784 63.36 267.88 63.384 267.988 63.408C268.108 63.444 268.222 63.462 268.33 63.462C268.798 63.462 269.17 63.318 269.446 63.03C269.734 62.754 269.95 62.394 270.094 61.95L270.256 61.392L266.782 52.662H268.888L270.418 57C270.55 57.384 270.676 57.792 270.796 58.224C270.928 58.644 271.06 59.064 271.192 59.484H271.264C271.372 59.076 271.48 58.662 271.588 58.242C271.708 57.81 271.822 57.396 271.93 57L273.262 52.662H275.26L272.056 61.896C271.684 62.892 271.234 63.678 270.706 64.254C270.178 64.842 269.434 65.136 268.474 65.136ZM279.907 61.716C278.887 61.716 278.161 61.422 277.729 60.834C277.309 60.234 277.099 59.46 277.099 58.512V54.3H275.839V52.752L277.207 52.662L277.459 50.25H279.187V52.662H281.437V54.3H279.187V58.512C279.187 59.544 279.601 60.06 280.429 60.06C280.585 60.06 280.747 60.042 280.915 60.006C281.083 59.958 281.227 59.91 281.347 59.862L281.707 61.392C281.467 61.476 281.191 61.548 280.879 61.608C280.579 61.68 280.255 61.716 279.907 61.716ZM283.296 61.5V52.662H285.366V61.5H283.296ZM284.34 51.114C283.968 51.114 283.668 51.006 283.44 50.79C283.212 50.574 283.098 50.286 283.098 49.926C283.098 49.578 283.212 49.296 283.44 49.08C283.668 48.864 283.968 48.756 284.34 48.756C284.712 48.756 285.012 48.864 285.24 49.08C285.468 49.296 285.582 49.578 285.582 49.926C285.582 50.286 285.468 50.574 285.24 50.79C285.012 51.006 284.712 51.114 284.34 51.114ZM291.697 61.716C290.893 61.716 290.167 61.536 289.519 61.176C288.883 60.804 288.373 60.276 287.989 59.592C287.617 58.896 287.431 58.062 287.431 57.09C287.431 56.106 287.635 55.272 288.043 54.588C288.451 53.892 288.991 53.364 289.663 53.004C290.347 52.632 291.079 52.446 291.859 52.446C292.423 52.446 292.915 52.542 293.335 52.734C293.755 52.926 294.127 53.16 294.451 53.436L293.443 54.786C293.215 54.582 292.981 54.426 292.741 54.318C292.501 54.198 292.243 54.138 291.967 54.138C291.259 54.138 290.677 54.408 290.221 54.948C289.777 55.488 289.555 56.202 289.555 57.09C289.555 57.966 289.771 58.674 290.203 59.214C290.647 59.754 291.217 60.024 291.913 60.024C292.261 60.024 292.585 59.952 292.885 59.808C293.197 59.652 293.479 59.472 293.731 59.268L294.577 60.636C294.169 60.996 293.713 61.266 293.209 61.446C292.705 61.626 292.201 61.716 291.697 61.716ZM298.788 61.716C298.188 61.716 297.588 61.602 296.988 61.374C296.388 61.134 295.872 60.84 295.44 60.492L296.412 59.16C296.808 59.46 297.204 59.7 297.6 59.88C297.996 60.06 298.416 60.15 298.86 60.15C299.34 60.15 299.694 60.048 299.922 59.844C300.15 59.64 300.264 59.388 300.264 59.088C300.264 58.836 300.168 58.632 299.976 58.476C299.796 58.308 299.562 58.164 299.274 58.044C298.986 57.912 298.686 57.786 298.374 57.666C297.99 57.522 297.606 57.348 297.222 57.144C296.85 56.928 296.544 56.658 296.304 56.334C296.064 55.998 295.944 55.584 295.944 55.092C295.944 54.312 296.232 53.676 296.808 53.184C297.384 52.692 298.164 52.446 299.148 52.446C299.772 52.446 300.33 52.554 300.822 52.77C301.314 52.986 301.74 53.232 302.1 53.508L301.146 54.768C300.834 54.54 300.516 54.36 300.192 54.228C299.88 54.084 299.55 54.012 299.202 54.012C298.758 54.012 298.428 54.108 298.212 54.3C297.996 54.48 297.888 54.708 297.888 54.984C297.888 55.332 298.068 55.596 298.428 55.776C298.788 55.956 299.208 56.13 299.688 56.298C300.096 56.442 300.492 56.622 300.876 56.838C301.26 57.042 301.578 57.312 301.83 57.648C302.094 57.984 302.226 58.428 302.226 58.98C302.226 59.736 301.932 60.384 301.344 60.924C300.756 61.452 299.904 61.716 298.788 61.716Z" fill="#666666"/>
<rect x="13" y="8.5" width="310" height="93" rx="7.5" stroke="#1976FE" shape-rendering="crispEdges"/>
</g>
<defs>
<filter id="filter0_d_750_8252" x="0.5" y="0" width="335" height="118" filterUnits="userSpaceOnUse" color-interpolation-filters="sRGB">
<feFlood flood-opacity="0" result="BackgroundImageFix"/>
<feColorMatrix in="SourceAlpha" type="matrix" values="0 0 0 0 0 0 0 0 0 0 0 0 0 0 0 0 0 0 127 0" result="hardAlpha"/>
<feOffset dy="4"/>
<feGaussianBlur stdDeviation="6"/>
<feComposite in2="hardAlpha" operator="out"/>
<feColorMatrix type="matrix" values="0 0 0 0 0 0 0 0 0 0.4 0 0 0 0 0.835294 0 0 0 0.1 0"/>
<feBlend mode="normal" in2="BackgroundImageFix" result="effect1_dropShadow_750_8252"/>
<feBlend mode="normal" in="SourceGraphic" in2="effect1_dropShadow_750_8252" result="shape"/>
</filter>
<filter id="filter1_d_750_8252" x="26.5" y="24" width="66" height="66" filterUnits="userSpaceOnUse" color-interpolation-filters="sRGB">
<feFlood flood-opacity="0" result="BackgroundImageFix"/>
<feColorMatrix in="SourceAlpha" type="matrix" values="0 0 0 0 0 0 0 0 0 0 0 0 0 0 0 0 0 0 127 0" result="hardAlpha"/>
<feOffset dy="2"/>
<feGaussianBlur stdDeviation="3"/>
<feComposite in2="hardAlpha" operator="out"/>
<feColorMatrix type="matrix" values="0 0 0 0 0 0 0 0 0 0 0 0 0 0 0 0 0 0 0.12 0"/>
<feBlend mode="normal" in2="BackgroundImageFix" result="effect1_dropShadow_750_8252"/>
<feBlend mode="normal" in="SourceGraphic" in2="effect1_dropShadow_750_8252" result="shape"/>
</filter>
</defs>
</svg>