<svg width="500" height="250" viewBox="0 0 500 250" fill="none" xmlns="http://www.w3.org/2000/svg">
<g clip-path="url(#clip0_1799_12223)">
<path opacity="0.5" d="M383.1 177.567C383.199 186.736 382.945 196.418 378.021 204.292C371.584 214.594 358.399 219.503 345.85 220.096C333.301 220.676 320.908 217.696 308.515 215.754C296.108 213.826 285.826 220.41 271.095 220.51C251.481 220.644 212.536 219.173 193.221 215.754C163.865 210.557 163.488 206.587 146.78 197C130.058 187.426 144.715 167.473 146.78 149C149.129 127.965 148.459 125.082 149.138 103.939C149.647 87.7307 144.615 76.91 146.78 60.8367C147.968 52.0719 151.075 43.6598 156.974 36.8367C165.519 26.9932 175.428 22.0793 188.811 22.6456C197.512 23.0232 202.48 21.1219 211.025 22.6456C220.617 24.3581 230.987 22.8748 239.08 17.6969C243.777 14.6899 247.639 10.5367 252.633 8.02863C257.995 5.34525 264.276 4.76543 270.317 5.07557C282.88 5.69585 295.202 9.9434 305.29 17.1036C308.982 19.7195 312.377 22.7265 316.211 25.1402C335.027 36.9794 362.275 33.6757 378.446 48.6433C391.716 60.914 386.555 69.6531 383.1 91.2041C378.955 97.717 384.303 83.6799 383.1 91.2041C381.7 99.9419 375.107 134.39 378.248 142.696C382.421 153.78 382.973 165.781 383.1 177.567Z" fill="#F0F6FF"/>
<g filter="url(#filter0_f_1799_12223)">
<path d="M391.102 235.226C391.102 240.632 329.257 245 250.531 245C171.804 245 111.5 242.906 111.5 237.5C111.5 232.094 171.804 225.408 250.531 225.408C329.257 225.408 391.102 229.82 391.102 235.226Z" fill="#F7F7F7"/>
</g>
<path d="M376.89 89.0729L376.156 88.9995L376.413 85.4756L377.147 85.5123L376.89 89.0729Z" fill="#407BFF"/>
<path d="M377.359 82.3928L376.625 82.3561L377.359 72.0781L378.093 72.1515L377.359 82.3928Z" fill="#407BFF"/>
<path d="M357.245 187.448H177.454C171.948 187.448 167.764 182.97 168.168 177.464L177.675 44.7314C178.078 39.2253 182.887 34.7471 188.393 34.7471H368.22C373.69 34.7471 377.874 39.2253 377.47 44.7314L367.963 177.464C367.56 182.97 362.751 187.448 357.245 187.448Z" fill="#407BFF"/>
<path d="M315.445 233.919H257.081L246.656 161.79H305.057L315.445 233.919Z" fill="url(#paint0_linear_1799_12223)"/>
<path d="M304.909 233.919H241.773L243.021 229.624H306.157L304.909 233.919Z" fill="#096DB7"/>
<path d="M308.104 196.515L251.245 193.395L246.656 161.79H303.111L308.104 196.515Z" fill="#263238"/>
<path d="M355.229 187.448H175.402C169.933 187.448 165.748 182.97 166.152 177.464L175.659 44.7314C176.063 39.2253 180.871 34.7471 186.377 34.7471H366.168C371.674 34.7471 375.859 39.2253 375.455 44.7314L365.948 177.464C365.544 182.97 360.735 187.448 355.229 187.448Z" fill="#263238"/>
<path d="M370.237 122.22L369.539 122.183L375.008 46.0161L375.706 46.0895L370.237 122.22Z" fill="white"/>
<path d="M367.901 155.182L367.203 155.146L369.075 128.79L369.773 128.827L367.901 155.182Z" fill="white"/>
<path d="M354.858 184.989H176.132C171.874 184.989 168.607 181.465 168.937 177.207L178.407 44.9883C178.701 40.7303 182.445 37.2432 186.74 37.2432H365.429C369.724 37.2432 372.954 40.7303 372.661 44.9883L363.19 177.207C362.86 181.465 359.116 184.989 354.858 184.989Z" fill="white"/>
<path opacity="0.2" d="M354.858 184.989H176.132C171.874 184.989 168.607 181.465 168.937 177.207L178.407 44.9883C178.701 40.7303 182.445 37.2432 186.74 37.2432H365.429C369.724 37.2432 372.954 40.7303 372.661 44.9883L363.19 177.207C362.86 181.465 359.116 184.989 354.858 184.989Z" fill="#9CBBFF"/>
<path opacity="0.5" d="M221.982 179.115H180.247C178.191 179.115 176.613 177.427 176.759 175.371L185.973 46.8604C186.12 44.7681 187.955 43.0796 190.011 43.0796H231.746C233.802 43.0796 235.38 44.7681 235.234 46.8604L226.02 175.371C225.873 177.427 224.075 179.115 221.982 179.115Z" fill="white"/>
<path opacity="0.4" d="M220.379 61.2131H198.796C196.924 61.2131 195.529 59.6714 195.639 57.836L195.896 54.4957C196.006 52.6603 197.658 51.1187 199.493 51.1187H221.114C222.986 51.1187 224.38 52.6603 224.27 54.4957L224.013 57.836C223.867 59.6714 222.251 61.2131 220.379 61.2131Z" fill="#407BFF"/>
<path d="M206.639 113.19H173.676C170.409 113.19 167.95 110.547 168.17 107.28L170.556 74.317C170.776 71.0501 173.639 68.4072 176.87 68.4072H209.869C213.099 68.4072 215.559 71.0501 215.338 74.317L212.952 107.28C212.732 110.547 209.906 113.19 206.639 113.19Z" fill="#FE4C3C"/>
<path d="M214.711 86.1367C215.005 86.1367 215.262 86.3937 215.225 86.724L214.638 94.873C214.638 95.2033 214.344 95.4236 214.051 95.4236H210.71C209.462 95.4236 208.508 94.4325 208.618 93.1845L208.948 88.4126C209.059 87.1645 210.123 86.1367 211.371 86.1367H214.711Z" fill="white"/>
<path d="M198.639 76.8134H177.862C177.349 76.8134 176.981 76.3729 177.018 75.8957C177.055 75.3818 177.495 74.978 178.009 74.978H198.785C199.263 74.978 199.666 75.3818 199.63 75.8957C199.593 76.3729 199.152 76.8134 198.639 76.8134Z" fill="white"/>
<path d="M198.31 81.4012H177.534C177.057 81.4012 176.653 80.9974 176.69 80.4835C176.727 80.0063 177.167 79.6025 177.681 79.6025H198.457C198.934 79.6025 199.338 80.0063 199.301 80.4835C199.265 80.9974 198.824 81.4012 198.31 81.4012Z" fill="white"/>
<path d="M190.816 85.99H177.198C176.721 85.99 176.317 85.5863 176.354 85.0724C176.391 84.5952 176.831 84.1914 177.345 84.1914H190.927C191.44 84.1914 191.808 84.5952 191.771 85.0724C191.734 85.5863 191.294 85.99 190.816 85.99Z" fill="white"/>
<path opacity="0.5" d="M198.714 107.867H178.599C176.47 107.867 174.855 106.105 175.001 104.013L175.772 93.4411C175.919 91.3121 177.791 89.5869 179.92 89.5869H199.999C202.128 89.5869 203.743 91.3121 203.596 93.4411L202.825 104.013C202.678 106.105 200.843 107.867 198.714 107.867Z" fill="white"/>
<path opacity="0.4" d="M217.472 125.523H192.474C191.556 125.523 190.822 124.789 190.896 123.871C190.969 122.953 191.777 122.183 192.694 122.183H217.728C218.646 122.183 219.344 122.953 219.27 123.871C219.197 124.789 218.389 125.523 217.472 125.523Z" fill="#407BFF"/>
<path opacity="0.8" d="M212.441 132.094H196.547C195.629 132.094 194.932 131.36 195.005 130.442C195.079 129.525 195.886 128.754 196.804 128.754H212.661C213.579 128.754 214.276 129.525 214.24 130.442C214.166 131.36 213.359 132.094 212.441 132.094Z" fill="white"/>
<path opacity="0.4" d="M216.19 143.657H191.156C190.239 143.657 189.541 142.923 189.615 142.005C189.688 141.087 190.496 140.316 191.413 140.316H216.411C217.328 140.316 218.026 141.087 217.989 142.005C217.916 142.923 217.108 143.657 216.19 143.657Z" fill="#407BFF"/>
<path opacity="0.8" d="M211.123 150.227H195.266C194.348 150.227 193.651 149.493 193.724 148.539C193.761 147.621 194.568 146.887 195.486 146.887H211.38C212.298 146.887 212.995 147.621 212.922 148.539C212.885 149.493 212.078 150.227 211.123 150.227Z" fill="white"/>
<path opacity="0.4" d="M214.866 161.79H189.869C188.951 161.79 188.254 161.019 188.29 160.101C188.364 159.183 189.171 158.449 190.089 158.449H215.123C216.041 158.449 216.738 159.183 216.665 160.101C216.591 161.019 215.821 161.79 214.866 161.79Z" fill="#407BFF"/>
<path opacity="0.8" d="M209.832 168.36H193.974C193.02 168.36 192.323 167.589 192.396 166.671C192.469 165.754 193.277 165.02 194.195 165.02H210.089C211.006 165.02 211.704 165.754 211.63 166.671C211.557 167.589 210.749 168.36 209.832 168.36Z" fill="white"/>
<path opacity="0.5" d="M356.812 141.418C357.877 139.766 360.373 140.463 360.226 142.372L357.84 175.995C357.693 177.721 356.409 179.116 354.904 179.116H233.918C232.413 179.116 231.312 177.721 231.422 175.995L232.853 156.027C233.073 153.347 235.79 151.402 238.323 152.173C245.15 154.302 250.986 153.054 256.419 150.374C268.018 144.611 277.746 132.204 291.107 132.204C291.621 132.204 292.123 132.229 292.612 132.277C312.471 133.452 318.527 158.156 333.907 158.156C338.459 158.156 342.607 156.174 346.241 153.384C350.646 149.934 354.28 145.272 356.812 141.418Z" fill="#407BFF"/>
<path opacity="0.5" d="M359.309 155.256L357.84 175.996C357.693 177.721 356.409 179.116 354.904 179.116H233.918C232.413 179.116 231.312 177.721 231.422 175.996L234.395 134.81C234.578 132.021 238.286 130.809 239.791 133.085C243.645 138.995 249.592 146.593 256.419 150.374C259.025 151.806 261.778 152.687 264.568 152.687C274.369 152.687 282.665 141.087 292.612 132.278C298.705 126.845 305.386 122.514 313.388 122.514C330.127 122.514 332.586 149.677 346.241 153.384C348.847 154.082 351.894 153.935 355.564 152.54C357.51 151.806 359.455 153.237 359.309 155.256Z" fill="#407BFF"/>
<g opacity="0.8">
<path d="M359.898 147.254C359.824 147.229 359.763 147.205 359.714 147.18C359.69 147.156 359.677 147.119 359.677 147.07C359.653 147.046 359.641 147.021 359.641 146.997C359.641 146.923 359.665 146.862 359.714 146.813C359.824 146.703 359.971 146.703 360.081 146.813C360.13 146.862 360.155 146.923 360.155 146.997C360.155 147.021 360.155 147.046 360.155 147.07C360.13 147.119 360.106 147.156 360.081 147.18C360.044 147.217 359.971 147.254 359.898 147.254Z" fill="white"/>
<path d="M242.252 164.432C242.105 164.432 241.995 164.322 241.995 164.175C241.995 164.065 242.105 163.955 242.252 163.955C242.398 163.955 242.509 164.065 242.509 164.175C242.509 164.322 242.398 164.432 242.252 164.432ZM239.719 164.285C239.609 164.285 239.499 164.175 239.499 164.028C239.535 163.882 239.645 163.808 239.792 163.808C239.939 163.808 240.012 163.955 240.012 164.065C239.976 164.212 239.866 164.322 239.756 164.322C239.756 164.322 239.743 164.31 239.719 164.285ZM244.491 164.065C244.454 163.955 244.564 163.808 244.711 163.808C244.821 163.772 244.968 163.882 244.968 164.028C245.005 164.175 244.895 164.285 244.748 164.285C244.748 164.285 244.735 164.285 244.711 164.285C244.601 164.285 244.491 164.212 244.491 164.065ZM237.259 163.918C237.113 163.882 237.039 163.772 237.039 163.625C237.076 163.478 237.223 163.404 237.333 163.404C237.48 163.441 237.553 163.588 237.553 163.735C237.516 163.845 237.406 163.918 237.296 163.918C237.272 163.918 237.259 163.918 237.259 163.918ZM246.913 163.661C246.877 163.515 246.987 163.404 247.097 163.368C247.244 163.331 247.391 163.404 247.427 163.551C247.464 163.661 247.354 163.808 247.244 163.845C247.219 163.845 247.195 163.845 247.17 163.845C247.06 163.845 246.95 163.772 246.913 163.661ZM327.228 163.772C327.081 163.772 326.971 163.661 326.971 163.515C326.971 163.368 327.081 163.258 327.228 163.258C327.375 163.258 327.485 163.368 327.485 163.515C327.485 163.661 327.375 163.772 327.228 163.772ZM329.467 163.404C329.431 163.294 329.541 163.148 329.688 163.148C329.834 163.111 329.944 163.221 329.944 163.368C329.981 163.515 329.871 163.625 329.724 163.661C329.577 163.661 329.467 163.551 329.467 163.404ZM324.695 163.625C324.585 163.588 324.475 163.478 324.512 163.331C324.512 163.184 324.622 163.111 324.769 163.111C324.916 163.148 325.026 163.258 324.989 163.404C324.989 163.515 324.879 163.625 324.732 163.625C324.732 163.625 324.72 163.625 324.695 163.625ZM234.8 163.331C234.69 163.294 234.58 163.148 234.617 163.001C234.69 162.891 234.8 162.78 234.947 162.817C235.094 162.891 235.167 163.001 235.13 163.148C235.094 163.258 234.984 163.331 234.874 163.331C234.849 163.331 234.825 163.331 234.8 163.331ZM331.927 163.074C331.89 162.927 332 162.817 332.11 162.78C332.257 162.744 332.404 162.854 332.404 162.964C332.441 163.111 332.367 163.258 332.22 163.258C332.196 163.258 332.184 163.27 332.184 163.294C332.073 163.294 331.963 163.184 331.927 163.074ZM322.236 163.148C322.089 163.148 322.016 163.001 322.052 162.854C322.089 162.744 322.236 162.634 322.346 162.67C322.493 162.707 322.566 162.854 322.53 162.964C322.53 163.111 322.42 163.184 322.309 163.184C322.285 163.184 322.26 163.172 322.236 163.148ZM249.299 162.964C249.263 162.817 249.336 162.67 249.446 162.634C249.593 162.597 249.74 162.634 249.777 162.78C249.813 162.891 249.777 163.037 249.63 163.111C249.605 163.111 249.581 163.111 249.556 163.111C249.446 163.111 249.336 163.037 249.299 162.964ZM334.349 162.524C334.313 162.377 334.386 162.23 334.533 162.193C334.68 162.156 334.79 162.267 334.826 162.377C334.863 162.523 334.79 162.67 334.68 162.707C334.655 162.707 334.631 162.707 334.606 162.707C334.496 162.707 334.386 162.634 334.349 162.524ZM319.85 162.45C319.703 162.377 319.63 162.23 319.667 162.12C319.74 161.973 319.887 161.936 319.997 161.973C320.144 162.01 320.217 162.156 320.144 162.303C320.107 162.377 320.034 162.45 319.923 162.45C319.899 162.45 319.875 162.45 319.85 162.45ZM251.575 161.973C251.538 161.863 251.575 161.679 251.685 161.643C251.832 161.569 251.979 161.606 252.052 161.753C252.089 161.863 252.052 162.01 251.942 162.083C251.893 162.107 251.844 162.12 251.795 162.12C251.722 162.12 251.649 162.046 251.575 161.973ZM336.735 161.789C336.699 161.643 336.772 161.532 336.882 161.459C337.029 161.422 337.176 161.496 337.212 161.606C337.249 161.753 337.176 161.899 337.066 161.936C337.041 161.961 337.017 161.973 336.992 161.973C336.882 161.973 336.772 161.899 336.735 161.789ZM317.501 161.496C317.391 161.422 317.317 161.275 317.391 161.165C317.464 161.019 317.611 160.982 317.721 161.019C317.868 161.092 317.905 161.239 317.831 161.349C317.794 161.459 317.721 161.496 317.611 161.496C317.586 161.496 317.55 161.496 317.501 161.496ZM339.084 160.908C339.011 160.798 339.085 160.651 339.195 160.578C339.341 160.541 339.488 160.578 339.525 160.725C339.598 160.835 339.525 160.982 339.415 161.055C339.366 161.055 339.329 161.055 339.305 161.055C339.195 161.055 339.121 161.019 339.084 160.908ZM253.778 160.762C253.704 160.651 253.741 160.468 253.851 160.395C253.961 160.321 254.108 160.358 254.181 160.505C254.255 160.615 254.218 160.762 254.108 160.835C254.059 160.859 254.01 160.872 253.961 160.872C253.888 160.872 253.814 160.835 253.778 160.762ZM315.262 160.358C315.152 160.284 315.115 160.138 315.188 160.027C315.225 159.881 315.409 159.844 315.519 159.917C315.629 159.991 315.665 160.138 315.629 160.248C315.555 160.321 315.482 160.395 315.409 160.395C315.36 160.395 315.311 160.382 315.262 160.358ZM341.36 159.917C341.287 159.77 341.36 159.624 341.47 159.587C341.581 159.514 341.764 159.55 341.801 159.697C341.874 159.807 341.801 159.954 341.691 160.027C341.642 160.052 341.605 160.064 341.581 160.064C341.47 160.064 341.397 159.991 341.36 159.917ZM255.833 159.367C255.76 159.257 255.796 159.11 255.907 159.036C256.017 158.963 256.164 158.963 256.237 159.073C256.31 159.183 256.31 159.367 256.2 159.44C256.151 159.465 256.102 159.477 256.053 159.477C255.956 159.477 255.882 159.44 255.833 159.367ZM313.096 159.11C312.986 159.036 312.949 158.89 313.023 158.743C313.096 158.633 313.243 158.596 313.353 158.669C313.5 158.743 313.536 158.89 313.463 159C313.39 159.11 313.316 159.146 313.243 159.146C313.206 159.146 313.133 159.11 313.096 159.11ZM343.599 158.779C343.526 158.669 343.563 158.522 343.673 158.449C343.82 158.376 343.967 158.449 344.04 158.559C344.077 158.669 344.04 158.816 343.93 158.89C343.881 158.914 343.844 158.926 343.82 158.926C343.71 158.926 343.636 158.89 343.599 158.779ZM257.815 157.862C257.742 157.752 257.742 157.605 257.852 157.531C257.962 157.421 258.146 157.458 258.219 157.568C258.293 157.678 258.293 157.825 258.182 157.935C258.133 157.96 258.085 157.972 258.036 157.972C257.962 157.972 257.889 157.935 257.815 157.862ZM311.004 157.752C310.894 157.678 310.857 157.531 310.93 157.421C311.004 157.311 311.151 157.274 311.261 157.348C311.371 157.421 311.407 157.568 311.334 157.678C311.297 157.752 311.224 157.788 311.151 157.788C311.102 157.788 311.053 157.776 311.004 157.752ZM345.765 157.568C345.692 157.458 345.728 157.311 345.839 157.238C345.985 157.164 346.132 157.201 346.206 157.311C346.279 157.458 346.242 157.605 346.096 157.678C346.071 157.703 346.034 157.715 345.985 157.715C345.912 157.715 345.802 157.678 345.765 157.568ZM308.911 156.393C308.801 156.283 308.765 156.136 308.838 156.026C308.948 155.916 309.095 155.88 309.205 155.953C309.315 156.026 309.352 156.21 309.278 156.32C309.205 156.393 309.132 156.43 309.058 156.43C309.009 156.43 308.96 156.418 308.911 156.393ZM347.894 156.283C347.821 156.173 347.857 156.026 347.968 155.953C348.078 155.88 348.261 155.916 348.335 156.026C348.408 156.136 348.371 156.283 348.225 156.357C348.2 156.381 348.163 156.393 348.114 156.393C348.041 156.393 347.931 156.357 347.894 156.283ZM259.761 156.32C259.687 156.21 259.687 156.026 259.798 155.953C259.908 155.88 260.054 155.88 260.165 155.99C260.238 156.1 260.238 156.247 260.128 156.32C260.079 156.369 260.018 156.393 259.944 156.393C259.871 156.393 259.798 156.357 259.761 156.32ZM349.986 154.925C349.913 154.815 349.95 154.668 350.06 154.558C350.17 154.485 350.317 154.521 350.39 154.632C350.464 154.742 350.464 154.925 350.317 154.999C350.268 155.023 350.231 155.035 350.207 155.035C350.097 155.035 350.023 154.999 349.986 154.925ZM306.856 154.999C306.746 154.888 306.709 154.742 306.782 154.632C306.856 154.521 307.003 154.485 307.149 154.558C307.26 154.632 307.296 154.815 307.186 154.925C307.149 154.999 307.076 155.035 307.003 155.035C306.954 155.035 306.905 155.023 306.856 154.999ZM261.67 154.705C261.596 154.595 261.596 154.448 261.706 154.338C261.816 154.264 261.963 154.264 262.073 154.375C262.147 154.485 262.147 154.632 262.037 154.742C261.988 154.791 261.927 154.803 261.853 154.778C261.78 154.778 261.706 154.778 261.67 154.705ZM304.8 153.604C304.653 153.53 304.617 153.383 304.727 153.273C304.8 153.127 304.947 153.09 305.057 153.2C305.167 153.273 305.204 153.42 305.131 153.53C305.094 153.604 305.02 153.64 304.91 153.64C304.861 153.64 304.825 153.628 304.8 153.604ZM352.042 153.494C351.932 153.383 351.969 153.237 352.079 153.127C352.189 153.053 352.336 153.09 352.446 153.2C352.519 153.31 352.483 153.457 352.372 153.53C352.323 153.579 352.275 153.604 352.226 153.604C352.152 153.604 352.079 153.567 352.042 153.494ZM263.578 153.127C263.505 153.016 263.505 152.833 263.615 152.759C263.725 152.686 263.909 152.686 263.982 152.796C264.056 152.906 264.056 153.053 263.945 153.163C263.896 153.188 263.848 153.2 263.799 153.2C263.725 153.2 263.652 153.163 263.578 153.127ZM302.708 152.246C302.561 152.172 302.524 152.025 302.598 151.915C302.671 151.805 302.855 151.768 302.965 151.842C303.075 151.915 303.112 152.062 303.038 152.172C303.002 152.246 302.891 152.319 302.818 152.319C302.769 152.319 302.732 152.295 302.708 152.246ZM354.024 151.989C353.951 151.878 353.951 151.732 354.061 151.658C354.171 151.548 354.318 151.585 354.428 151.695C354.501 151.805 354.465 151.952 354.391 152.025C354.391 152.025 354.379 152.025 354.355 152.025C354.33 152.074 354.281 152.099 354.208 152.099C354.134 152.099 354.061 152.062 354.024 151.989ZM265.561 151.585C265.45 151.475 265.487 151.291 265.597 151.218C265.707 151.144 265.854 151.144 265.964 151.254C266.038 151.365 266.001 151.548 265.891 151.622C265.842 151.646 265.793 151.658 265.744 151.658C265.671 151.658 265.609 151.634 265.561 151.585ZM300.542 150.998C300.432 150.924 300.395 150.777 300.469 150.63C300.542 150.52 300.689 150.484 300.799 150.557C300.946 150.63 300.983 150.777 300.909 150.887C300.873 150.961 300.762 151.034 300.689 151.034C300.64 151.034 300.591 151.022 300.542 150.998ZM355.97 150.447C355.896 150.337 355.896 150.19 356.006 150.08C356.117 150.006 356.263 150.006 356.373 150.117C356.447 150.227 356.447 150.374 356.337 150.484C356.288 150.508 356.227 150.52 356.153 150.52C356.08 150.52 356.019 150.496 355.97 150.447ZM267.579 150.117C267.506 150.006 267.506 149.86 267.653 149.749C267.763 149.676 267.91 149.713 267.983 149.823C268.057 149.933 268.02 150.117 267.91 150.19C267.861 150.214 267.812 150.227 267.763 150.227C267.69 150.227 267.616 150.19 267.579 150.117ZM298.377 149.823C298.266 149.75 298.193 149.603 298.266 149.456C298.34 149.346 298.487 149.309 298.597 149.346C298.744 149.419 298.78 149.566 298.707 149.713C298.67 149.786 298.597 149.823 298.487 149.823C298.462 149.823 298.425 149.823 298.377 149.823ZM357.878 148.832C357.805 148.722 357.805 148.575 357.915 148.465C358.025 148.391 358.172 148.391 358.246 148.501C358.356 148.612 358.319 148.758 358.246 148.869C358.197 148.893 358.135 148.905 358.062 148.905C357.989 148.905 357.927 148.881 357.878 148.832ZM269.672 148.795C269.598 148.685 269.635 148.501 269.782 148.428C269.892 148.391 270.039 148.428 270.112 148.538C270.186 148.648 270.149 148.795 270.002 148.869C270.002 148.869 270.014 148.869 270.039 148.869C269.99 148.893 269.941 148.905 269.892 148.905C269.819 148.905 269.708 148.869 269.672 148.795ZM296.137 148.758C296.027 148.685 295.954 148.538 296.027 148.428C296.064 148.281 296.211 148.245 296.358 148.281C296.468 148.355 296.541 148.501 296.468 148.612C296.431 148.722 296.358 148.758 296.248 148.758C296.223 148.758 296.186 148.758 296.137 148.758ZM293.862 147.804C293.715 147.767 293.641 147.62 293.715 147.474C293.751 147.364 293.898 147.29 294.045 147.327C294.155 147.4 294.229 147.547 294.192 147.657C294.155 147.767 294.045 147.841 293.935 147.841C293.91 147.841 293.886 147.829 293.862 147.804ZM271.874 147.621C271.837 147.51 271.874 147.364 272.021 147.29C272.131 147.253 272.278 147.29 272.351 147.437C272.388 147.547 272.351 147.694 272.204 147.767C272.18 147.767 272.143 147.767 272.094 147.767C272.021 147.767 271.911 147.731 271.874 147.621ZM291.512 147.033C291.365 146.996 291.292 146.85 291.329 146.74C291.365 146.593 291.512 146.519 291.659 146.556C291.769 146.593 291.843 146.74 291.806 146.886C291.769 146.96 291.696 147.033 291.586 147.033C291.561 147.033 291.537 147.033 291.512 147.033ZM274.187 146.703C274.15 146.556 274.223 146.409 274.333 146.372C274.48 146.336 274.627 146.409 274.664 146.556C274.701 146.666 274.627 146.813 274.517 146.85C274.493 146.874 274.456 146.886 274.407 146.886C274.333 146.886 274.223 146.813 274.187 146.703ZM289.126 146.446C288.98 146.409 288.906 146.262 288.906 146.152C288.943 146.005 289.09 145.895 289.236 145.932C289.347 145.969 289.457 146.115 289.42 146.226C289.383 146.372 289.273 146.446 289.163 146.446C289.139 146.446 289.126 146.446 289.126 146.446ZM276.573 146.005C276.536 145.859 276.646 145.748 276.756 145.712C276.903 145.675 277.05 145.785 277.05 145.895C277.086 146.042 277.013 146.189 276.866 146.189C276.842 146.189 276.83 146.201 276.83 146.226C276.719 146.226 276.609 146.116 276.573 146.005ZM286.667 146.005C286.557 145.969 286.447 145.859 286.483 145.712C286.483 145.565 286.63 145.491 286.74 145.491C286.887 145.528 286.997 145.638 286.961 145.785C286.961 145.895 286.851 146.005 286.704 146.005C286.704 146.005 286.691 146.005 286.667 146.005ZM279.032 145.602C278.995 145.455 279.105 145.345 279.252 145.308C279.399 145.308 279.509 145.381 279.509 145.528C279.546 145.675 279.436 145.785 279.289 145.822C279.142 145.822 279.032 145.712 279.032 145.602ZM284.208 145.748C284.208 145.748 284.22 145.748 284.244 145.748C284.098 145.748 283.987 145.638 283.987 145.491C283.987 145.345 284.134 145.235 284.244 145.235C284.391 145.271 284.501 145.381 284.501 145.528C284.501 145.638 284.391 145.748 284.244 145.748C284.244 145.748 284.232 145.748 284.208 145.748ZM281.491 145.418C281.491 145.271 281.601 145.161 281.748 145.161C281.895 145.161 282.005 145.271 282.005 145.418C282.005 145.565 281.895 145.675 281.748 145.675C281.601 145.675 281.491 145.565 281.491 145.418Z" fill="white"/>
<path d="M232.413 162.523C232.389 162.523 232.352 162.523 232.303 162.523C232.279 162.499 232.254 162.474 232.23 162.45C232.205 162.425 232.193 162.401 232.193 162.376C232.168 162.352 232.156 162.315 232.156 162.266C232.156 162.193 232.181 162.132 232.23 162.083C232.254 162.058 232.279 162.046 232.303 162.046C232.377 162.009 232.45 162.009 232.523 162.046C232.548 162.046 232.572 162.058 232.597 162.083C232.646 162.132 232.67 162.193 232.67 162.266C232.67 162.315 232.658 162.352 232.633 162.376C232.633 162.401 232.621 162.425 232.597 162.45C232.572 162.474 232.548 162.499 232.523 162.523C232.474 162.523 232.438 162.523 232.413 162.523Z" fill="white"/>
</g>
<path d="M274.22 89.0364C265.63 97.0753 252.416 97.0753 244.964 89.0364C242.578 86.4669 240.963 83.2735 240.266 79.7496L242.615 79.1623L245.184 78.4648C246.506 85.1822 252.269 90.1009 259.537 90.1009C263.868 90.1009 267.906 88.339 270.953 85.5126L272.678 87.3479L274.22 89.0364Z" fill="white"/>
<path d="M281.349 74.4273C280.945 79.8966 278.412 85.1457 274.228 89.0367L272.319 86.9444L270.961 85.5128C274.008 82.6497 276.026 78.7587 276.357 74.4273C276.651 70.0592 275.182 66.1683 272.539 63.3051L274.081 61.8735L276.32 59.7812C279.954 63.6722 281.753 68.9213 281.349 74.4273Z" fill="#263238"/>
<path d="M274.516 61.4696L272.534 63.3049C269.891 60.4785 266.11 58.7166 261.779 58.7166C253.116 58.7166 245.591 65.7643 244.967 74.4271C244.857 75.822 244.967 77.1802 245.187 78.4649L243.205 79.0155L240.269 79.7496C238.874 72.6285 241.48 64.9935 247.06 59.7811C255.686 51.7422 268.863 51.7422 276.315 59.7811L274.516 61.4696Z" fill="#407BFF"/>
<path d="M295.622 89.037C288.17 80.9982 289.088 67.8204 297.714 59.7816C300.467 57.2121 303.771 55.3767 307.368 54.4224L307.808 56.7349L308.322 59.2677C301.495 61.0296 296.136 67.1597 295.585 74.4276C295.291 78.7591 296.76 82.65 299.402 85.5131L297.42 87.3485L295.622 89.037Z" fill="white"/>
<path d="M309.778 95.0932C304.309 95.0932 299.207 92.9275 295.609 89.0366L297.848 86.9443L299.39 85.5127C302.033 88.3391 305.814 90.1011 310.145 90.1011C314.477 90.1011 318.551 88.3391 321.561 85.5127L322.919 86.9443L324.865 89.0366C320.717 92.9275 315.284 95.0932 309.778 95.0932Z" fill="#263238"/>
<path d="M323.306 87.3483L321.581 85.5129C324.627 82.6498 326.683 78.7589 326.976 74.4274C327.601 65.7646 321.067 58.7169 312.404 58.7169C311.009 58.7169 309.651 58.9004 308.329 59.2675L307.926 57.2853L307.375 54.4222C314.643 52.5134 322.131 54.569 326.976 59.7814C334.428 67.8202 333.474 80.998 324.884 89.0368L323.306 87.3483Z" fill="#407BFF"/>
<path opacity="0.3" fill-rule="evenodd" clip-rule="evenodd" d="M361.652 57.1748L360.734 69.8387C360.661 71.0867 359.56 72.1145 358.312 72.1145H345.648C344.4 72.1145 343.445 71.0867 343.556 69.8387L344.437 57.1748C344.547 55.9267 345.611 54.8989 346.859 54.8989H359.523C360.771 54.8989 361.725 55.9267 361.652 57.1748ZM346.859 55.5597C345.978 55.5597 345.171 56.3305 345.097 57.2115L344.18 69.8754C344.143 70.3158 344.29 70.7196 344.583 71.0133C344.84 71.3069 345.207 71.4538 345.648 71.4538H358.312C359.193 71.4538 360.037 70.7196 360.074 69.8019L360.991 57.1381C361.028 56.6976 360.881 56.3305 360.624 56.0368C360.331 55.7432 359.964 55.5597 359.523 55.5597H346.859Z" fill="#407BFF"/>
<path opacity="0.3" fill-rule="evenodd" clip-rule="evenodd" d="M360.077 78.9789L359.196 91.6428C359.086 92.8909 357.985 93.9187 356.737 93.9187H344.073C342.825 93.9187 341.907 92.8909 341.981 91.6428L342.898 78.9789C342.972 77.7309 344.073 76.7031 345.321 76.7031H357.985C359.233 76.7031 360.187 77.7309 360.077 78.9789ZM345.321 77.3638C344.403 77.3638 343.596 78.098 343.522 79.0157L342.641 91.6795C342.605 92.12 342.715 92.4871 343.008 92.7808C343.265 93.0744 343.669 93.2579 344.073 93.2579H356.737C357.655 93.2579 358.462 92.4871 358.535 91.6061L359.453 78.9422C359.453 78.5018 359.343 78.098 359.049 77.8043C358.792 77.5107 358.389 77.3638 357.985 77.3638H345.321Z" fill="#407BFF"/>
<path fill-rule="evenodd" clip-rule="evenodd" d="M341.316 148.796C341.242 149.897 340.251 150.815 339.15 150.815C338.049 150.815 337.204 149.897 337.278 148.796C337.351 147.695 338.342 146.777 339.444 146.777C340.545 146.777 341.389 147.695 341.316 148.796ZM337.939 148.833C337.902 149.2 338.012 149.53 338.232 149.787C338.489 150.008 338.783 150.154 339.15 150.154C339.921 150.154 340.618 149.53 340.655 148.76C340.692 148.392 340.581 148.062 340.361 147.805C340.104 147.548 339.811 147.438 339.444 147.438C338.673 147.438 337.975 148.062 337.939 148.833Z" fill="#407BFF"/>
<path d="M339.596 146.777H339.266L339.339 146.116L339.669 146.153L339.596 146.777Z" fill="#407BFF"/>
<path d="M339.744 144.831L339.414 144.794L339.524 143.473H339.855L339.744 144.831ZM339.928 142.188H339.598L339.708 140.83L340.001 140.867L339.928 142.188ZM340.148 139.545L339.818 139.508L339.891 138.187L340.222 138.224L340.148 139.545ZM340.332 136.865H340.038L340.112 135.544H340.442L340.332 136.865ZM340.515 134.223L340.185 134.186L340.295 132.864L340.625 132.901L340.515 134.223ZM340.699 131.58L340.368 131.543L340.479 130.222L340.809 130.258L340.699 131.58ZM340.882 128.9H340.552L340.662 127.579H340.956L340.882 128.9ZM341.066 126.257L340.772 126.22L340.846 124.899L341.176 124.936L341.066 126.257ZM341.249 123.614L340.919 123.578L341.029 122.256L341.36 122.293L341.249 123.614ZM341.433 120.935H341.103L341.213 119.613H341.543L341.433 120.935ZM341.616 118.292L341.286 118.255L341.396 116.934L341.69 116.97L341.616 118.292Z" fill="#407BFF"/>
<path d="M341.838 115.649L341.508 115.612L341.581 114.988H341.875L341.838 115.649Z" fill="#407BFF"/>
<path fill-rule="evenodd" clip-rule="evenodd" d="M355.419 115.355H239.168C238.507 115.355 237.883 115.098 237.48 114.621C237.039 114.144 236.819 113.52 236.856 112.859L237.443 104.857C237.516 103.536 238.691 102.435 240.049 102.435H356.3C356.924 102.435 357.548 102.692 357.988 103.169C358.429 103.646 358.612 104.233 358.576 104.894L358.025 112.896C357.915 114.254 356.74 115.355 355.419 115.355ZM240.049 103.132C239.058 103.132 238.214 103.94 238.14 104.894L237.553 112.896C237.516 113.373 237.663 113.814 237.993 114.144C238.287 114.474 238.691 114.621 239.168 114.621H355.419C356.373 114.621 357.254 113.85 357.291 112.859L357.878 104.857C357.915 104.38 357.768 103.976 357.474 103.646C357.144 103.316 356.74 103.132 356.3 103.132H240.049Z" fill="#407BFF"/>
<path d="M352.912 107.611H242.717C242.093 107.611 241.653 107.097 241.69 106.509C241.726 105.922 242.277 105.408 242.864 105.408H353.058C353.646 105.408 354.123 105.922 354.05 106.509C354.013 107.097 353.499 107.611 352.912 107.611Z" fill="white"/>
<path d="M334.532 112.199H242.397C241.773 112.199 241.333 111.685 241.369 111.097C241.406 110.51 241.957 109.996 242.544 109.996H334.715C335.302 109.996 335.743 110.51 335.706 111.097C335.669 111.685 335.156 112.199 334.532 112.199Z" fill="white"/>
<path d="M196.08 175.992C196.08 194.731 180.894 209.883 162.188 209.883C143.483 209.883 128.297 194.731 128.297 175.992C128.297 157.286 143.483 142.134 162.188 142.134C180.894 142.134 196.08 157.286 196.08 175.992Z" fill="url(#paint1_linear_1799_12223)"/>
<path d="M179.253 183.768L166.414 196.608C165.241 197.781 163.732 198.351 162.19 198.351C160.648 198.351 159.14 197.781 157.966 196.608L145.127 183.768C142.781 181.455 142.781 177.667 145.127 175.321C147.474 173.008 151.262 173.008 153.575 175.321L156.223 177.969V159.632C156.223 156.313 158.871 153.665 162.19 153.665C165.509 153.665 168.157 156.313 168.157 159.632V177.969L170.806 175.321C173.119 173.008 176.907 173.008 179.253 175.321C181.6 177.667 181.6 181.455 179.253 183.768Z" fill="#FFF9E9"/>
</g>
<defs>
<filter id="filter0_f_1799_12223" x="103.5" y="217.408" width="295.602" height="35.5918" filterUnits="userSpaceOnUse" color-interpolation-filters="sRGB">
<feFlood flood-opacity="0" result="BackgroundImageFix"/>
<feBlend mode="normal" in="SourceGraphic" in2="BackgroundImageFix" result="shape"/>
<feGaussianBlur stdDeviation="4" result="effect1_foregroundBlur_1799_12223"/>
</filter>
<linearGradient id="paint0_linear_1799_12223" x1="4594.11" y1="32324.2" x2="35104.1" y2="1172.89" gradientUnits="userSpaceOnUse">
<stop stop-color="#2842A2"/>
<stop offset="1" stop-color="#3457B4"/>
</linearGradient>
<linearGradient id="paint1_linear_1799_12223" x1="162.188" y1="142.134" x2="162.188" y2="209.883" gradientUnits="userSpaceOnUse">
<stop offset="0.192708" stop-color="#FF6659"/>
<stop offset="1" stop-color="#F03323"/>
</linearGradient>
<clipPath id="clip0_1799_12223">
<rect width="500" height="250" fill="white"/>
</clipPath>
</defs>
</svg>
