<svg width="272" height="175" viewBox="0 0 272 175" fill="none" xmlns="http://www.w3.org/2000/svg">
<path opacity="0.3" d="M73.0235 173.989C66.8986 168.147 62.1476 160.994 59.6694 152.879C54.2507 135.172 61.7881 113.472 78.5192 105.523C93.594 98.3713 111.378 103.084 127.981 101.363C141.99 99.9122 155.049 93.8515 168.595 90.0121C182.155 86.1857 197.564 84.8117 209.595 92.1308C223.437 100.554 228.959 119.096 225.106 134.826C221.242 150.555 209.544 163.46 195.907 172.217C194.837 172.902 193.754 173.57 192.659 174.22L73.0235 173.989Z" fill="#EBEBFF"/>
<path opacity="0.6" fill-rule="evenodd" clip-rule="evenodd" d="M88.5468 174.143L88.5083 174.117C87.4297 173.437 86.3768 172.731 85.3624 172.024C70.493 161.752 60.4518 147.871 57.049 132.938C53.0556 115.385 59.4117 96.5736 72.1623 88.2145C82.088 81.7043 95.4935 80.9467 111.994 85.9802C116.282 87.2771 120.584 88.8565 124.744 90.3845C133.296 93.5304 142.143 96.7662 151.247 97.7807C156.871 98.4098 162.739 98.2044 168.428 97.9989C178.867 97.6394 189.666 97.267 199.155 102.121C214.769 110.095 222.974 132.347 217.478 151.711C215.09 160.07 210.262 166.683 201.299 173.822L201.248 173.861H201.171L88.5468 174.143ZM92.2449 83.1039C84.5662 83.1039 77.9277 84.9273 72.3806 88.5612C59.7712 96.8304 53.4922 115.462 57.4471 132.848C60.8241 147.679 70.8141 161.47 85.5935 171.691C86.5822 172.384 87.6223 173.065 88.6752 173.732L201.107 173.45C209.954 166.387 214.73 159.839 217.08 151.595C222.538 132.412 214.409 110.377 198.962 102.48C189.563 97.6779 178.828 98.0503 168.44 98.4098C162.739 98.6153 156.858 98.8207 151.196 98.1915C142.053 97.1643 133.18 93.9157 124.603 90.7697C120.443 89.2417 116.141 87.6623 111.865 86.3654C104.726 84.1954 98.1772 83.1039 92.2449 83.1039Z" fill="#9192FF"/>
<path fill-rule="evenodd" clip-rule="evenodd" d="M243.238 165.386C239.219 165.386 235.957 162.33 235.957 158.58C235.957 154.831 239.219 151.775 243.238 151.775C247.257 151.775 250.531 154.831 250.531 158.58C250.531 162.33 247.257 165.386 243.238 165.386ZM243.238 154.304C240.618 154.304 238.487 156.231 238.487 158.58C238.487 160.93 240.618 162.856 243.238 162.856C245.857 162.856 247.989 160.93 247.989 158.58C247.989 156.231 245.857 154.304 243.238 154.304Z" fill="url(#paint0_linear_2282_11384)"/>
<path d="M240.666 173.822H224.718L221.996 146.138H243.401L240.666 173.822Z" fill="white"/>
<path fill-rule="evenodd" clip-rule="evenodd" d="M240.923 174.092H224.474L221.688 145.868H243.696L240.923 174.092ZM224.975 173.539H240.435L243.105 146.407H222.304L224.975 173.539Z" fill="url(#paint1_linear_2282_11384)"/>
<path d="M237.895 171.523H227.495L225.723 154.163H239.68L237.895 171.523Z" fill="#EBEBFF"/>
<path d="M59.7832 63.7018H57.9439V63.3629H59.7832C60.199 63.3629 60.6069 63.2919 60.9987 63.15L61.1107 63.4653C60.6868 63.623 60.239 63.7018 59.7832 63.7018ZM56.0966 63.7018H54.2573V63.3629H56.0966V63.7018ZM52.418 63.7018H50.5787V63.3707H52.418V63.7018ZM48.7314 63.7018H46.8921V63.3629H48.7314V63.7018ZM45.0528 63.7018H43.2055V63.3707H45.0528V63.7018ZM41.3662 63.7018H39.5269V63.3629H41.3662V63.7018ZM37.6875 63.7018H35.8403V63.3707H37.6875V63.7018ZM34.0009 63.7018H32.1616V63.3629H34.0009V63.7018ZM30.3223 63.7018H28.475V63.3707H30.3223V63.7018ZM26.6357 63.7018H24.7964V63.3629H26.6357V63.7018ZM22.9251 63.418C22.3334 63.1737 21.8056 62.7796 21.4057 62.283L21.6696 62.0701C22.0375 62.5273 22.5173 62.882 23.0531 63.1106L22.9251 63.418ZM62.6781 62.3933L62.4222 62.1726C62.806 61.7312 63.0699 61.2031 63.1899 60.6356L63.5178 60.7065C63.3898 61.3213 63.1019 61.9046 62.6781 62.3933ZM20.638 60.5646C20.606 60.3597 20.582 60.1547 20.582 59.9498V58.7201H20.9259V59.9498C20.9259 60.1337 20.9419 60.3203 20.9739 60.5094L20.638 60.5646ZM63.5977 58.862H63.2539V57.0491H63.5977V58.862ZM20.9259 56.9072H20.582V55.0943H20.9259V56.9072ZM63.5977 55.2283H63.2539V53.4153H63.5977V55.2283ZM20.9259 53.2734H20.582V51.4605H20.9259V53.2734ZM63.5977 51.5945H63.2539V49.7737H63.5977V51.5945ZM20.9259 49.6476H20.582V47.8267H20.9259V49.6476ZM63.5977 47.9765H63.2539V46.1557H63.5977V47.9765ZM20.9259 46.0296H20.582V44.2087H20.9259V46.0296ZM63.5977 44.3585H63.2539V42.5377H63.5977V44.3585ZM20.9259 42.4116H20.582V40.5907H20.9259V42.4116ZM63.5977 40.7405H63.2539V38.9197H63.5977V40.7405ZM20.9259 38.7936H20.582V36.9727H20.9259V38.7936ZM63.5977 37.1225H63.2539V35.3017H63.5977V37.1225ZM20.9259 35.1677H20.582V34.7263C20.582 34.2454 20.678 33.7725 20.8539 33.3232L21.1738 33.4493C21.0059 33.8592 20.9259 34.2849 20.9259 34.7263V35.1677ZM63.0539 33.5676C62.862 33.0316 62.5181 32.535 62.0783 32.1566L62.3022 31.9044C62.79 32.3221 63.1579 32.866 63.3738 33.4572L63.0539 33.5676ZM22.2054 32.0699L21.9895 31.8098C22.4853 31.4078 23.0851 31.1319 23.7168 31.0216L23.7808 31.3526C23.205 31.4551 22.6612 31.6994 22.2054 32.0699ZM60.5349 31.3763C60.287 31.3211 60.0391 31.2974 59.7832 31.2974H58.7356V30.9664H59.7832C60.0631 30.9664 60.335 30.99 60.6069 31.0531L60.5349 31.3763ZM56.8963 31.2974H55.049V30.9585H56.8963V31.2974ZM53.2097 31.2974H51.3704V30.9664H53.2097V31.2974ZM49.5231 31.2974H47.6838V30.9585H49.5231V31.2974ZM45.8445 31.2974H44.0052V30.9664H45.8445V31.2974ZM42.1579 31.2974H40.3186V30.9585H42.1579V31.2974ZM38.4792 31.2974H36.6399V30.9664H38.4792V31.2974ZM34.7926 31.2974H32.9533V30.9585H34.7926V31.2974ZM31.114 31.2974H29.2747V30.9664H31.114V31.2974ZM27.4274 31.2974H25.5881V30.9585H27.4274V31.2974Z" fill="#9192FF"/>
<path opacity="0.2" d="M71.1027 72.6901H31.7042C29.4666 72.6901 27.6445 70.8469 27.6445 68.5734V39.5775C27.6445 37.2958 29.4666 35.4526 31.7042 35.4526H71.1027C73.3403 35.4526 75.1544 37.2958 75.1544 39.5775V68.5734C75.1544 70.8469 73.3403 72.6901 71.1027 72.6901Z" fill="url(#paint2_linear_2282_11384)"/>
<path d="M35.9903 68.8381H31.4961V46.3672H35.9903V68.8381Z" fill="white"/>
<path d="M44.9786 68.838H40.4844V50.2192H44.9786V68.838Z" fill="white"/>
<path d="M53.3262 68.8379H48.832V54.0713H53.3262V68.8379Z" fill="white"/>
<path d="M62.3145 68.8381H57.8203V56.6396H62.3145V68.8381Z" fill="white"/>
<path d="M70.6582 68.8384H66.1641V63.7021H70.6582V68.8384Z" fill="white"/>
<path d="M62.9567 42.5149H39.8438V40.5889H62.9567V42.5149Z" fill="white"/>
<path d="M129.724 7.89693C126.27 9.48916 121.929 11.672 121.891 16.0635C121.84 21.1355 127.502 20.9044 130.956 19.8514C134.269 18.8242 138.134 17.309 140.702 14.895C141.614 14.0219 142.564 12.6479 141.768 11.3896C141.113 10.3238 139.701 10.1569 138.596 10.3623C137.017 10.6705 135.373 11.5693 133.974 12.3398C132.189 13.3285 130.507 14.6767 129.865 16.7055C129.223 18.7086 130.006 20.6347 131.765 21.739C133.435 22.7919 135.45 22.8561 137.364 22.7149C138.648 22.6122 143.373 22.3553 141.922 19.8643C140.625 17.6429 137.633 19.5176 136.118 20.4164C134.539 21.3666 132.87 22.4966 132.202 24.2943C131.367 26.5028 132.471 28.5188 134.719 29.0966C136.003 29.4305 137.428 29.3791 138.751 29.2379C139.649 29.1351 140.792 28.9682 141.473 28.2877C142.436 27.3246 141.665 26.0406 140.574 25.681C138.545 25.0262 136.837 27.376 135.977 28.8655C134.166 31.9729 133.807 35.7223 134.86 39.1379C134.963 39.4846 134.436 39.6258 134.333 39.292C133.524 36.6597 133.512 33.8476 134.346 31.2281C135.052 29.0067 136.503 26.1305 138.84 25.2573C140.343 24.6795 142.705 25.5526 142.461 27.4787C142.217 29.392 139.752 29.7001 138.237 29.8157C136.414 29.9569 134.231 29.9569 132.728 28.7499C131.187 27.5172 131.059 25.4114 131.855 23.7164C132.895 21.4822 135.386 20.0826 137.492 19.0168C139.059 18.2207 141.306 17.7841 142.397 19.5818C143.309 21.097 142.012 22.3682 140.612 22.7919C138.314 23.4982 135.207 23.6522 132.908 22.869C131.072 22.2398 129.415 20.8145 129.12 18.8114C128.799 16.6285 130.07 14.5355 131.714 13.1872C133.512 11.7106 136.144 10.311 138.442 9.83585C140.035 9.51484 142.102 10.0413 142.538 11.8133C143.052 13.8935 140.933 15.5627 139.431 16.5258C137.107 18.0153 134.577 19.2094 131.971 20.0954C128.44 21.2896 122.392 22.1884 121.441 17.1935C120.466 12.0829 125.589 9.20667 129.441 7.43468C129.762 7.28059 130.045 7.75569 129.724 7.89693Z" fill="#1B1B43"/>
<path d="M89.8313 33.1543C90.7173 35.0033 91.5262 36.8909 92.2966 38.7913L93.4523 41.6419L94.5437 44.5053L92.913 44.0302L95.6609 41.873C96.5725 41.1539 97.5099 40.4605 98.4344 39.7543L99.5644 38.894L100.078 40.1909C100.45 41.1283 100.797 42.0656 101.157 43.003C101.516 43.9532 101.837 44.9034 102.184 45.8407C102.518 46.7909 102.852 47.7411 103.16 48.7042C103.476 49.6544 103.772 50.6174 104.046 51.5933L103.25 51.9143C102.77 51.024 102.308 50.1295 101.863 49.2306C101.413 48.3318 100.99 47.4201 100.553 46.5084C100.142 45.5968 99.7056 44.6851 99.3076 43.7606C98.9095 42.8489 98.4858 41.9244 98.1006 40.9999L99.7441 41.4493C98.8196 42.1555 97.908 42.8874 96.9834 43.5936L94.1971 45.6995L93.0157 46.5983L92.5535 45.2244L91.5904 42.2967L90.6787 39.3691C90.0881 37.4045 89.5231 35.4399 89.0352 33.4368L89.8313 33.1543Z" fill="#FE4C3C"/>
<path d="M167.593 39.1634C167.105 41.1665 166.527 43.1311 165.936 45.0957L165.024 48.0233L164.061 50.9509L163.612 52.3249L162.431 51.426L159.644 49.3202C158.707 48.614 157.795 47.8821 156.884 47.1758L158.514 46.7264C158.129 47.6509 157.718 48.5754 157.32 49.4871C156.909 50.4116 156.486 51.3233 156.075 52.235C155.638 53.1467 155.214 54.0583 154.752 54.9572C154.316 55.856 153.853 56.7506 153.365 57.6408L152.582 57.3198C152.856 56.3439 153.151 55.3809 153.468 54.4307C153.776 53.4677 154.11 52.5175 154.431 51.5673C154.778 50.6299 155.112 49.6797 155.471 48.7295C155.831 47.7922 156.177 46.8548 156.55 45.9175L157.063 44.6206L158.18 45.4809C159.105 46.1871 160.042 46.8805 160.967 47.5996L163.715 49.7568L162.071 50.2319L163.175 47.3684L164.318 44.5178C165.102 42.6174 165.91 40.7299 166.784 38.8809L167.593 39.1634Z" fill="#F44C3D"/>
<path d="M208.077 6.49726C208.077 8.65447 206.33 10.4136 204.173 10.4136C202.016 10.4136 200.27 8.65447 200.27 6.49726C200.27 4.34006 202.016 2.59375 204.173 2.59375C206.33 2.59375 208.077 4.34006 208.077 6.49726Z" fill="#D1D1FF"/>
<path d="M170.456 114.807L170.636 173.63L113.907 173.81L105.547 131.449L75.1797 158.35L90.6397 117.889C93.8241 109.504 100.874 103.187 109.541 100.888L134.272 94.3525L153.224 95.5082L170.456 114.807Z" fill="url(#paint3_linear_2282_11384)"/>
<path d="M138.11 117.465C134.669 117.465 131.459 116.13 129.34 113.767L129.751 113.407C132.011 115.924 135.606 117.234 139.343 116.862C143.349 116.476 146.841 114.229 148.947 110.711L149.41 110.993C147.227 114.666 143.567 117.003 139.394 117.401C138.957 117.444 138.529 117.465 138.11 117.465Z" fill="#C5C5FF"/>
<path d="M140.461 110.069C136.827 111.815 132.371 110.082 130.548 106.204L129.931 104.894L123.678 91.6044L119.852 83.4764L138.329 74.5522L146.367 91.643C149.68 98.6667 147.035 106.885 140.461 110.069Z" fill="#FFBC96"/>
<path d="M140.086 88.1758C138.455 96.0984 134.398 101.53 129.929 104.894L123.676 91.6042L140.086 88.1758Z" fill="#1B1B43"/>
<path d="M142.259 78.2631C142.259 87.8293 136.866 94.3908 130.022 97.7678C122.985 101.248 115.627 87.8806 112.122 78.9436C108.475 69.6728 118.504 62.7261 126.901 62.7261C135.299 62.7261 142.259 68.7098 142.259 78.2631Z" fill="#FFBC96"/>
<path d="M141.539 73.6273C141.539 73.6273 131.447 73.2678 127.903 68.0802C116.577 76.709 108.449 78.4425 99.6406 73.8071C99.6406 73.8071 106.985 70.1989 109.271 62.8156C112.815 51.3619 127.273 51.272 130.728 56.0872C139.819 53.7117 141.822 62.9954 142.631 72.8184L141.539 73.6273Z" fill="#1B1B43"/>
<path d="M145.455 77.4285C145.056 80.5359 142.771 82.7959 140.344 82.4877C137.93 82.1667 136.286 79.406 136.684 76.3114C137.082 73.204 139.368 70.9441 141.782 71.2522C144.209 71.5733 145.853 74.334 145.455 77.4285Z" fill="#FFBC96"/>
<path d="M141.948 74.5263C141.357 75.0142 141.164 75.6691 141.177 76.3753C141.177 76.722 141.229 77.0687 141.331 77.4026C141.447 77.7364 141.588 78.0574 141.832 78.3399L141.665 78.6096C141.216 78.4683 140.882 78.0831 140.676 77.6851C140.458 77.2742 140.355 76.8247 140.355 76.3753C140.368 75.9131 140.471 75.4508 140.715 75.0399C140.959 74.6419 141.37 74.3208 141.819 74.231L141.948 74.5263Z" fill="#1B1B43"/>
<path d="M127.991 80.3561C128.042 81.2036 127.477 81.9355 126.72 81.9869C125.962 82.0383 125.295 81.3834 125.243 80.5359C125.179 79.6884 125.757 78.9565 126.514 78.9052C127.272 78.8538 127.94 79.5087 127.991 80.3561Z" fill="#1B1B43"/>
<path d="M120.546 82.7573C120.829 83.4892 120.533 84.2724 119.891 84.5164C119.249 84.7732 118.492 84.388 118.209 83.6689C117.939 82.9499 118.235 82.1538 118.877 81.9098C119.519 81.653 120.264 82.0382 120.546 82.7573Z" fill="#1B1B43"/>
<path d="M130.353 76.4524C130.379 76.889 128.081 76.7477 127.092 76.9532C126.257 77.133 124.973 77.9547 124.395 77.133C123.869 76.401 125.179 75.5664 126.809 75.4508C128.427 75.3481 130.328 76.0287 130.353 76.4524Z" fill="#1B1B43"/>
<path d="M116.861 78.7127C117.824 78.0065 119.07 78.0322 119.25 78.8668C119.455 79.7913 118.235 79.7656 117.657 80.0353C116.99 80.3435 115.808 81.5633 115.551 81.2166C115.295 80.8571 115.898 79.4061 116.861 78.7127Z" fill="#1B1B43"/>
<path d="M124.742 90.9492C125.269 90.3072 126.026 89.8963 126.784 89.6395C127.554 89.3955 128.338 89.28 129.134 89.3442L129.198 89.6523C128.479 89.999 127.734 90.1916 127.028 90.4228C126.322 90.6411 125.654 90.8979 124.935 91.206L124.742 90.9492Z" fill="#1B1B43"/>
<path d="M122.677 84.0926C122.715 84.6832 122.638 85.3253 122.33 85.9031C122.176 86.1856 121.971 86.4424 121.752 86.6607C121.534 86.879 121.329 87.0587 121.277 87.1871C121.251 87.2642 121.226 87.3155 121.239 87.4054C121.239 87.4696 121.251 87.4696 121.251 87.4825C121.251 87.4953 121.277 87.5082 121.29 87.5338C121.393 87.6494 121.637 87.765 121.868 87.8548C122.369 88.0346 122.934 88.1502 123.486 88.2914L123.473 88.6124C122.882 88.6895 122.292 88.6766 121.675 88.5482C121.367 88.4712 121.046 88.3813 120.725 88.0988C120.648 88.0218 120.571 87.9319 120.52 87.8163C120.468 87.6879 120.43 87.5595 120.43 87.4696C120.404 87.277 120.443 87.0459 120.532 86.8404C120.751 86.4552 121.02 86.2755 121.213 86.0957C121.418 85.9159 121.585 85.7362 121.727 85.5307C122.022 85.1198 122.202 84.6062 122.356 84.0669L122.677 84.0926Z" fill="#D28572"/>
<path opacity="0.2" d="M137.558 82.4494C137.674 84.3627 136.223 86.0319 134.297 86.1603C132.384 86.2887 130.714 84.8249 130.586 82.9117C130.458 80.9856 131.921 79.3163 133.835 79.2008C135.761 79.0724 137.43 80.5233 137.558 82.4494Z" fill="#FFC514"/>
<path d="M192.75 130.806L172.089 138.472L153.227 95.5078L155.782 95.6619C168.314 96.4323 179.434 103.931 184.827 115.269L192.75 130.806Z" fill="url(#paint4_linear_2282_11384)"/>
<path d="M120.814 93.8388C121.186 95.2769 121.43 97.7038 120.48 103.289C119.311 110.121 107.28 145.227 100.744 161.483C98.7923 166.323 93.6946 169.097 88.5841 168.108C81.6117 166.76 77.7724 159.197 80.8156 152.777L106.086 99.3988C110.593 85.7621 110.593 72.9473 112.634 72.1255C114.676 71.3166 114.959 89.0365 114.959 89.0365C114.959 89.0365 115.434 78.4045 117.334 77.5827C119.247 76.7738 118.708 84.1314 118.913 87.2645C119.067 89.717 120.21 91.4633 120.814 93.8388Z" fill="#FFBC96"/>
<path d="M106.254 98.2175C107.024 96.1245 107.525 93.9288 108 91.7331C108.462 89.5245 108.848 87.3159 109.259 85.0945L110.44 78.4431C110.645 77.3389 110.864 76.2346 111.12 75.1303C111.249 74.5781 111.39 74.026 111.57 73.4739C111.66 73.2042 111.75 72.9346 111.878 72.6521C111.938 72.5237 112.015 72.391 112.109 72.254C112.199 72.1256 112.315 71.9587 112.571 71.8688L112.559 71.8816C112.636 71.8688 112.713 71.856 112.803 71.856C112.88 71.8688 112.944 71.8945 113.021 71.9202C113.136 71.9972 113.252 72.0742 113.303 72.1641C113.457 72.3439 113.534 72.5237 113.624 72.7034C113.778 73.0501 113.894 73.4097 113.984 73.7692C114.177 74.4883 114.305 75.2073 114.42 75.9392C114.652 77.3902 114.806 78.8412 114.934 80.2922C115.165 83.207 115.294 86.1218 115.268 89.0494L114.639 89.0237C114.716 87.3801 114.831 85.7366 115.024 84.1058C115.217 82.4622 115.448 80.8315 115.961 79.2264C116.103 78.8284 116.257 78.4303 116.501 78.0451C116.629 77.8525 116.757 77.6727 116.976 77.5186C117.168 77.3517 117.477 77.2618 117.759 77.3003C117.823 77.326 117.887 77.3389 117.952 77.3645C118.016 77.3902 118.067 77.3902 118.144 77.4673C118.187 77.4929 118.221 77.5229 118.247 77.5571C118.285 77.5957 118.298 77.6213 118.311 77.647C118.35 77.6984 118.388 77.7626 118.414 77.814C118.504 78.0322 118.568 78.2377 118.619 78.4431C118.722 78.8669 118.786 79.2778 118.85 79.6887C119.056 81.3323 119.12 82.9887 119.107 84.6323C119.094 85.4669 119.043 86.263 119.12 87.072C119.184 87.8681 119.326 88.6642 119.531 89.4475C119.749 90.2307 120.006 91.0012 120.301 91.7587C120.597 92.5163 120.892 93.3125 121.059 94.1214C121.406 95.765 121.444 97.4343 121.29 99.0778C121.136 100.721 120.815 102.352 120.391 103.932L120.147 103.867C120.545 102.288 120.841 100.67 120.956 99.0522C121.072 97.4343 121.008 95.7907 120.635 94.2241C120.456 93.428 120.186 92.6833 119.878 91.9128C119.582 91.1552 119.313 90.372 119.094 89.563C118.876 88.7669 118.709 87.9451 118.645 87.1105C118.555 86.2759 118.606 85.4412 118.606 84.6323C118.619 83.0015 118.542 81.3579 118.324 79.7657C118.273 79.3677 118.208 78.9568 118.106 78.5844C118.054 78.3918 117.99 78.212 117.926 78.0451C117.913 78.0066 117.887 77.9809 117.862 77.9552C117.849 77.9038 117.836 77.9038 117.836 77.9038C117.849 77.891 117.785 77.891 117.759 77.8782C117.733 77.8653 117.695 77.8525 117.656 77.8396C117.425 77.8011 117.156 78.0194 116.963 78.3404C116.77 78.6614 116.629 79.021 116.501 79.3933C116.013 80.9214 115.794 82.5521 115.615 84.17C115.435 85.7879 115.319 87.4187 115.268 89.0494L114.639 89.0366C114.664 86.1346 114.575 83.2326 114.356 80.3435C114.241 78.8926 114.099 77.4544 113.881 76.0291C113.766 75.3101 113.637 74.6038 113.457 73.9104C113.38 73.5637 113.265 73.2299 113.136 72.9217C113.072 72.7676 112.995 72.6135 112.905 72.5108C112.854 72.4466 112.815 72.4209 112.777 72.3953C112.764 72.3953 112.751 72.3824 112.751 72.3824C112.738 72.3953 112.726 72.3953 112.713 72.3824H112.7C112.687 72.3824 112.597 72.4595 112.533 72.5493C112.464 72.6521 112.405 72.7634 112.353 72.8832C112.238 73.1143 112.148 73.3711 112.058 73.6408C111.891 74.1673 111.75 74.7066 111.621 75.2459C111.352 76.3373 111.133 77.4287 110.915 78.533L109.695 85.1716C109.297 87.393 108.848 89.6015 108.347 91.8101C107.846 94.0058 107.294 96.2016 106.472 98.3074L106.254 98.2175Z" fill="#D28572"/>
<path d="M202.621 160.789C202.531 167.068 199.783 171.46 196.354 173.989L189.395 173.874L187.661 173.848H187.636L179.444 155.216L179.431 155.178L172.086 138.472L192.746 130.807L200.451 149.721C202.03 153.907 202.672 157.592 202.621 160.789Z" fill="#FFBC96"/>
<path d="M193.902 173.848L139.895 173.861L136.351 172.037C133.757 170.715 130.778 170.381 127.954 171.087C122.83 172.371 117.129 174.67 112.776 173.437C110.182 172.718 120.185 163.653 126.336 158.748C128.955 156.655 132.448 156.013 135.645 157.053L142.694 159.325L196.907 153.265L193.902 173.848Z" fill="#FFBC96"/>
<path d="M114.062 172.487C115.526 171.626 117.016 170.817 118.505 170.008C119.995 169.199 121.497 168.442 122.999 167.659C123.731 167.273 124.528 166.875 125.349 166.58C126.184 166.297 127.031 166.092 127.892 166.002C128.765 165.899 129.638 165.887 130.498 165.964C131.359 166.066 132.206 166.233 133.015 166.503L132.938 166.811C132.116 166.657 131.282 166.554 130.46 166.541C129.638 166.516 128.803 166.567 127.994 166.708C127.186 166.837 126.389 167.042 125.619 167.338C124.849 167.607 124.129 167.992 123.372 168.378C121.844 169.122 120.342 169.906 118.813 170.625C117.298 171.357 115.757 172.089 114.204 172.769L114.062 172.487Z" fill="#D28572"/>
<path d="M114.855 169.777C115.831 168.84 116.859 167.967 117.912 167.119C118.964 166.259 120.043 165.437 121.147 164.654C122.264 163.884 123.382 163.126 124.576 162.458C125.783 161.829 127.003 161.149 128.441 161.007L128.466 161.328C127.85 161.495 127.247 161.739 126.669 162.073C126.078 162.368 125.513 162.728 124.948 163.075C123.818 163.794 122.714 164.564 121.622 165.322C120.518 166.092 119.44 166.888 118.335 167.659C117.244 168.455 116.152 169.251 115.048 170.021L114.855 169.777Z" fill="#D28572"/>
<path d="M179.369 155.576L179.344 154.767L186.624 154.587L186.637 155.396L179.369 155.576Z" fill="#D28572"/>
<path d="M171.844 138.588L166.566 127.84L167.054 127.596L172.345 138.344L171.844 138.588Z" fill="#EBEBFF"/>
<path opacity="0.2" d="M202.624 160.789C202.534 167.068 199.786 171.46 196.358 173.989L189.398 173.874C189.385 173.874 189.385 173.861 189.385 173.848C189.128 172.936 189 171.986 189 170.984C189 166.477 191.799 162.625 195.767 161.084C196.961 160.609 198.271 160.353 199.632 160.353C200.672 160.353 201.674 160.507 202.624 160.789Z" fill="#FFC514"/>
<path d="M116.27 173.822H85.1836V167.273H116.27V173.822Z" fill="#1B1B43"/>
<path d="M95.7223 173.822H46.3634L32.1875 124.463H81.5464L95.7223 173.822Z" fill="#EBEBFF"/>
<path d="M46.1748 173.874L31.9219 124.258H47.1892V124.669H32.4612L46.5601 173.758L46.1748 173.874Z" fill="#1B1B43"/>
<path d="M90.4466 155.768L81.394 124.669H58.6406V124.258H81.7022L90.8318 155.666L90.4466 155.768Z" fill="#1B1B43"/>
<path d="M96.5466 4.09612C96.5466 6.35605 94.7104 8.17941 92.4505 8.17941C90.1905 8.17941 88.3672 6.35605 88.3672 4.09612C88.3672 1.83619 90.1905 0 92.4505 0C94.7104 0 96.5466 1.83619 96.5466 4.09612Z" fill="#EBEBFF"/>
<path d="M11.003 101.723C11.003 104.638 8.64034 106.987 5.73839 106.987C2.82359 106.987 0.460938 104.638 0.460938 101.723C0.460938 98.808 2.82359 96.4453 5.73839 96.4453C8.64034 96.4453 11.003 98.808 11.003 101.723Z" fill="#EBEBFF"/>
<path d="M268.086 112.085C268.086 114.345 266.249 116.168 263.99 116.168C261.73 116.168 259.906 114.345 259.906 112.085C259.906 109.825 261.73 107.989 263.99 107.989C266.249 107.989 268.086 109.825 268.086 112.085Z" fill="#EBEBFF"/>
<path d="M258.875 114.756V114.217C259.53 114.204 260.185 114.088 260.801 113.883L260.981 114.396C260.301 114.627 259.594 114.743 258.875 114.756ZM256.769 114.473C256.089 114.268 255.434 113.96 254.856 113.562L255.164 113.112C255.704 113.485 256.294 113.767 256.924 113.96L256.769 114.473ZM262.856 113.395L262.535 112.958C263.061 112.56 263.524 112.085 263.909 111.559L264.345 111.867C263.934 112.457 263.434 112.958 262.856 113.395ZM253.303 112.085C252.866 111.52 252.519 110.891 252.275 110.223L252.789 110.043C253.007 110.66 253.328 111.238 253.739 111.751L253.303 112.085ZM265.296 109.966L264.782 109.799C264.975 109.183 265.077 108.528 265.077 107.861C265.077 107.698 265.073 107.535 265.064 107.373L265.604 107.321C265.621 107.501 265.629 107.685 265.629 107.873C265.629 108.58 265.514 109.286 265.296 109.966ZM251.852 108.143C251.852 108.049 251.852 107.959 251.852 107.873C251.852 107.244 251.941 106.615 252.096 106.024L252.622 106.166C252.481 106.718 252.404 107.283 252.404 107.861C252.404 107.946 252.404 108.032 252.404 108.117L251.852 108.143ZM264.602 105.459C264.358 104.856 264.012 104.291 263.588 103.79L263.999 103.443C264.461 103.983 264.833 104.599 265.103 105.254L264.602 105.459ZM253.431 104.381L252.982 104.085C253.367 103.495 253.855 102.955 254.407 102.506L254.753 102.93C254.24 103.354 253.79 103.841 253.431 104.381ZM262.111 102.493C261.559 102.147 260.955 101.89 260.313 101.723L260.455 101.196C261.135 101.376 261.803 101.659 262.406 102.044L262.111 102.493ZM256.448 101.941L256.243 101.427C256.911 101.171 257.617 101.017 258.323 100.978L258.362 101.53C257.694 101.569 257.052 101.697 256.448 101.941Z" fill="#9192FF"/>
<path fill-rule="evenodd" clip-rule="evenodd" d="M167.18 16.0893C165.524 16.0893 164.176 14.741 164.176 13.0846C164.176 11.441 165.524 10.0928 167.18 10.0928C168.824 10.0928 170.172 11.441 170.172 13.0846C170.172 14.741 168.824 16.0893 167.18 16.0893ZM167.18 10.6321C165.819 10.6321 164.728 11.7364 164.728 13.0846C164.728 14.4457 165.819 15.55 167.18 15.55C168.529 15.55 169.633 14.4457 169.633 13.0846C169.633 11.7364 168.529 10.6321 167.18 10.6321Z" fill="#9192FF"/>
<path d="M271.538 174.22H2.82422V173.398H271.538V174.22Z" fill="#1B1B43"/>
<defs>
<linearGradient id="paint0_linear_2282_11384" x1="243.244" y1="151.775" x2="243.244" y2="165.386" gradientUnits="userSpaceOnUse">
<stop offset="0.275742" stop-color="#0380DC"/>
<stop offset="1" stop-color="#0061D3"/>
</linearGradient>
<linearGradient id="paint1_linear_2282_11384" x1="232.692" y1="145.868" x2="232.692" y2="174.092" gradientUnits="userSpaceOnUse">
<stop offset="0.275742" stop-color="#0380DC"/>
<stop offset="1" stop-color="#0061D3"/>
</linearGradient>
<linearGradient id="paint2_linear_2282_11384" x1="3030.27" y1="16639.6" x2="18048.6" y2="-3874.5" gradientUnits="userSpaceOnUse">
<stop stop-color="#2842A2"/>
<stop offset="1" stop-color="#3457B4"/>
</linearGradient>
<linearGradient id="paint3_linear_2282_11384" x1="122.908" y1="94.3525" x2="122.908" y2="173.81" gradientUnits="userSpaceOnUse">
<stop offset="0.275742" stop-color="#0380DC"/>
<stop offset="1" stop-color="#0061D3"/>
</linearGradient>
<linearGradient id="paint4_linear_2282_11384" x1="172.988" y1="95.5078" x2="172.988" y2="138.472" gradientUnits="userSpaceOnUse">
<stop offset="0.275742" stop-color="#0380DC"/>
<stop offset="1" stop-color="#0061D3"/>
</linearGradient>
</defs>
</svg>
