<svg width="400" height="400" viewBox="0 0 400 400" fill="none" xmlns="http://www.w3.org/2000/svg">
<path opacity="0.8" d="M321.454 245.03C295.983 304.563 228.742 330.142 176.062 325.778C161.681 324.588 132.74 322.189 110.137 300.821C66.7425 259.781 73.4234 174.002 114.969 123.495C120.316 116.994 157.353 73.4198 215.056 74.0059C257.305 74.4296 286.958 98.295 290.565 101.27C295.118 105.021 305.171 113.947 314.223 128.111C335.501 161.38 337.367 207.821 321.454 245.03Z" fill="url(#paint0_linear_1145_25994)"/>
<path d="M117.874 74.5098C175.297 150.497 146.608 192.051 146.608 192.051C85.5068 156.249 111.13 86.5371 116.017 74.7532C116.333 73.9868 117.369 73.8516 117.874 74.5098Z" fill="#BDD0FB"/>
<path opacity="0.9" d="M119.584 87.1773C119.647 91.2435 119.783 95.3187 119.963 99.3759C120.137 103.445 120.363 107.511 120.639 111.575C121.18 119.689 121.91 127.803 122.884 135.882C123.867 143.951 125.075 152.002 126.734 159.963C127.545 163.94 128.501 167.889 129.61 171.792C130.719 175.696 131.981 179.546 133.541 183.279C133.676 183.585 133.523 183.946 133.216 184.072C132.91 184.198 132.558 184.054 132.423 183.748V183.739C130.863 179.943 129.61 176.039 128.519 172.099C127.437 168.15 126.5 164.174 125.715 160.171C124.11 152.165 122.947 144.077 122.028 135.981C121.108 127.875 120.441 119.752 119.954 111.611C119.707 107.547 119.509 103.478 119.359 99.403C119.215 95.3277 119.106 91.2615 119.07 87.1773C119.07 87.042 119.188 86.9248 119.332 86.9248C119.467 86.9248 119.584 87.033 119.584 87.1773Z" fill="white"/>
<path d="M83.3525 77.6192C83.5419 76.375 85.282 76.2217 85.6877 77.4118C89.6457 88.9433 100.979 118.84 116.649 134.15C142.155 159.088 160.584 200.895 146.474 223.904C146.474 223.904 62.1379 213.328 83.3525 77.6192Z" fill="#91B3FA"/>
<path opacity="0.4" d="M86.995 94.1909C87.0401 94.4885 87.1212 94.8311 87.1934 95.1556L87.4278 96.1294L87.9237 98.0858C88.2543 99.3902 88.5969 100.691 88.9515 101.99C89.6547 104.586 90.385 107.174 91.1514 109.753C92.6661 114.916 94.28 120.049 95.993 125.152C99.4371 135.34 103.188 145.429 107.461 155.301C109.607 160.233 111.807 165.138 114.196 169.952C116.595 174.767 119.092 179.527 121.788 184.18C122.112 184.766 122.455 185.343 122.807 185.92L123.834 187.651L124.871 189.382C125.223 189.95 125.593 190.518 125.953 191.086C126.674 192.213 127.378 193.358 128.126 194.476L130.398 197.803C133.473 202.212 136.754 206.467 140.28 210.533C140.334 210.597 140.334 210.696 140.271 210.75C140.207 210.804 140.108 210.795 140.054 210.741C136.412 206.765 133.049 202.536 129.884 198.164L127.567 194.846C126.801 193.737 126.088 192.592 125.34 191.474C124.979 190.906 124.601 190.347 124.24 189.77L123.185 188.048L122.121 186.326C121.77 185.748 121.418 185.171 121.085 184.585C115.639 175.272 110.869 165.58 106.614 155.662C104.477 150.712 102.512 145.699 100.609 140.65C98.7158 135.601 96.9216 130.516 95.2717 125.386C93.6038 120.265 92.026 115.108 90.5834 109.915C89.8621 107.318 89.1679 104.722 88.5007 102.107C88.1761 100.8 87.8515 99.4923 87.545 98.185L87.0942 96.2105L86.8778 95.2188C86.8147 94.8852 86.7426 94.5696 86.6885 94.1999C86.6795 94.1188 86.7336 94.0467 86.8147 94.0377C86.8958 94.0196 86.968 94.0737 86.986 94.1549L86.995 94.1909Z" fill="white"/>
<path d="M320.043 283.499C320.043 285.753 318.185 287.602 315.922 287.602H93.5065C91.2525 287.602 89.3952 285.753 89.3952 283.499L87.5469 155.68C87.5469 153.416 90.2066 149.008 95.0933 149.341L312.46 143.715C315.3 143.643 318.041 144.734 320.052 146.736C322.062 148.737 323.162 151.478 323.09 154.318L320.043 283.499Z" fill="url(#paint1_linear_1145_25994)"/>
<path d="M315.951 279.555C315.951 281.701 314.202 283.45 312.065 283.45H98.8459C96.7091 283.45 94.96 281.701 94.96 279.555L93.2109 163.528C93.4183 156.541 99.5402 154.034 103.246 154.178L311.579 148.597C313.571 148.543 315.501 149.31 316.916 150.716C318.323 152.123 319.098 154.052 319.053 156.045L315.951 279.555Z" fill="#F0F6FF"/>
<path d="M97.2855 224.168C97.1232 224.168 96.988 224.033 96.988 223.871L96.8438 214.458C96.8438 214.287 96.979 214.151 97.1503 214.151C97.3216 214.151 97.4478 214.278 97.4568 214.449L97.5921 223.862C97.5921 224.024 97.4568 224.168 97.2946 224.168C97.2946 224.168 97.2915 224.168 97.2855 224.168Z" fill="url(#paint2_linear_1145_25994)"/>
<path d="M96.931 201.104C96.7597 201.104 96.6245 200.969 96.6245 200.807L96.1016 164.77C96.1106 162.363 96.8499 160.442 98.3015 159.054C100.934 156.529 105.063 156.655 105.235 156.665L171.764 154.879C171.935 154.87 172.07 155.006 172.079 155.168C172.079 155.339 171.953 155.474 171.782 155.483L105.235 157.269C105.054 157.26 101.169 157.142 98.7162 159.496C97.3909 160.767 96.7147 162.534 96.7056 164.761L97.2286 200.798C97.2376 200.969 97.1023 201.104 96.931 201.104Z" fill="url(#paint3_linear_1145_25994)"/>
<path d="M330.761 296.096H80.8012C80.4315 296.096 80.125 295.798 80.125 295.42V283.573C80.125 283.203 80.4315 282.896 80.8012 282.896H330.761C331.131 282.896 331.437 283.203 331.437 283.573V295.42C331.437 295.798 331.131 296.096 330.761 296.096Z" fill="url(#paint4_linear_1145_25994)"/>
<path d="M228.459 80.3415L292.951 140.749C291.021 142.552 288.479 143.706 285.657 143.859L121.349 152.415C119.338 152.524 117.427 152.109 115.75 151.297L202.466 79.6022C209.904 73.4533 221.463 73.7779 228.459 80.3415Z" fill="url(#paint5_linear_1145_25994)"/>
<path d="M282.36 273.72H124.193C117.809 273.72 112.625 268.536 112.625 262.153V159.163C112.625 153.023 117.422 147.956 123.543 147.613L287.815 138.462C294.694 138.074 300.383 143.754 300.005 150.634L293.901 262.784C293.567 268.915 288.5 273.72 282.36 273.72Z" fill="url(#paint6_linear_1145_25994)"/>
<path d="M180.966 210.921L116.258 150.748C118.169 148.936 122.803 145.879 125.625 145.726L286.877 136.548C288.896 136.439 291.736 138.757 293.422 139.559L206.959 211.57C199.548 217.746 187.989 217.457 180.966 210.921Z" fill="url(#paint7_linear_1145_25994)"/>
<mask id="mask0_1145_25994" style="mask-type:luminance" maskUnits="userSpaceOnUse" x="117" y="83" width="175" height="134">
<path d="M180.979 210.926L117.925 152.284C117.009 151.432 117.135 149.924 118.205 149.274C119.776 148.318 121.597 92.9142 123.556 92.8051L287.827 83.6485C288.438 83.6151 289.039 138.441 289.628 138.499C291.316 138.668 291.974 140.78 290.67 141.867L206.976 211.569C199.56 217.744 188.005 217.459 180.979 210.926Z" fill="white"/>
</mask>
<g mask="url(#mask0_1145_25994)">
<path d="M269.376 230.478H139.148V106.354C139.148 101.612 143.566 97.681 149.219 97.4105L258.079 92.1451C264.209 91.8476 269.376 95.9409 269.376 101.098V230.478Z" fill="url(#paint8_linear_1145_25994)"/>
<path d="M264.96 225.131H143.641V109.501C143.641 105.083 147.761 101.423 153.026 101.17L254.438 96.2654C260.145 95.9859 264.96 99.7997 264.96 104.605V225.131Z" fill="#DCE7FF"/>
</g>
<path d="M173.545 188.263C173.545 188.263 189.007 219.639 189.314 227.023C189.62 234.416 174.528 239.141 169.984 230.07C166.08 222.254 154.422 185.099 154.422 185.099L173.545 188.263Z" fill="url(#paint9_linear_1145_25994)"/>
<path d="M174.573 159.712L261.974 135.035L256.366 215.35L170.398 190.817L174.573 159.712Z" fill="url(#paint10_linear_1145_25994)"/>
<path d="M268.12 175.948C266.786 198.758 261.935 217.034 257.283 216.763C252.64 216.484 249.953 197.775 251.287 174.965C252.631 152.154 257.481 133.879 262.125 134.149C266.777 134.429 269.464 153.137 268.12 175.948Z" fill="#91B3FA"/>
<path d="M258.071 213.978C257.349 213.158 255.871 210.074 254.906 202.276C253.968 194.738 253.779 185.019 254.365 174.912C254.96 164.805 256.285 155.176 258.098 147.801C259.964 140.164 261.803 137.279 262.606 136.549C263.318 137.369 264.805 140.453 265.77 148.252C266.708 155.789 266.897 165.508 266.302 175.615C265.707 185.722 264.391 195.351 262.579 202.726C260.703 210.354 258.873 213.248 258.071 213.978Z" fill="url(#paint11_linear_1145_25994)"/>
<mask id="mask1_1145_25994" style="mask-type:luminance" maskUnits="userSpaceOnUse" x="254" y="136" width="23" height="78">
<path d="M258.108 213.979C257.392 213.16 255.91 210.078 254.942 202.279C254.006 194.74 253.817 185.023 254.409 174.916C255.001 164.81 256.324 155.181 258.134 147.804C260.007 140.17 261.839 137.283 262.645 136.554C263.36 137.371 264.842 140.453 265.811 148.254C266.746 155.792 277.014 166.1 276.421 176.206C275.829 186.313 264.428 195.351 262.619 202.728C260.745 210.362 258.914 213.249 258.108 213.979Z" fill="white"/>
</mask>
<g mask="url(#mask1_1145_25994)">
<path d="M271.169 175.589C270.754 182.603 266.643 188.076 259.16 187.634C251.677 187.192 245.942 181.152 246.357 174.137C246.763 167.114 253.164 161.785 260.647 162.218C268.131 162.66 271.575 168.565 271.169 175.589Z" fill="url(#paint12_linear_1145_25994)"/>
</g>
<path d="M160.858 157.179C164.915 156.944 170.704 157.115 176.862 158.91C174.175 169.549 173.832 180.773 175.527 192.512L157.91 191.484C155.097 191.313 152.825 189.14 152.545 186.336C151.996 180.719 151.473 171.307 153.05 163.868C153.853 160.136 157.044 157.395 160.858 157.179Z" fill="url(#paint13_linear_1145_25994)"/>
<path d="M170.971 166.031L157.24 165.229C156.78 165.202 156.383 164.931 156.185 164.508C155.987 164.084 156.032 163.606 156.302 163.236C156.419 163.074 156.645 163.038 156.798 163.155C156.96 163.272 156.987 163.498 156.879 163.651C156.753 163.813 156.735 164.021 156.825 164.21C156.906 164.39 157.078 164.508 157.285 164.517L171.016 165.328C171.314 165.346 171.575 165.112 171.593 164.814L171.647 163.831C171.665 163.534 171.44 163.272 171.133 163.254L157.303 162.443C157.105 162.434 156.96 162.272 156.969 162.073C156.978 161.875 157.15 161.731 157.348 161.74L171.179 162.551C171.864 162.587 172.396 163.182 172.351 163.876L172.297 164.85C172.26 165.544 171.665 166.067 170.971 166.031Z" fill="#BDD0FB"/>
<path d="M169.378 172.037L155.647 171.235C155.178 171.208 154.781 170.937 154.583 170.522C154.384 170.099 154.429 169.621 154.709 169.242C154.826 169.089 155.043 169.053 155.205 169.17C155.358 169.278 155.394 169.504 155.277 169.666C155.16 169.828 155.142 170.036 155.223 170.216C155.313 170.405 155.484 170.522 155.692 170.531L169.414 171.334C169.721 171.352 169.982 171.126 170 170.82L170.054 169.846C170.072 169.54 169.838 169.287 169.54 169.269L155.71 168.458C155.511 168.449 155.367 168.277 155.376 168.079C155.385 167.89 155.556 167.736 155.746 167.745L169.576 168.557C170.271 168.602 170.803 169.197 170.757 169.882L170.703 170.865C170.658 171.55 170.063 172.082 169.378 172.037Z" fill="#BDD0FB"/>
<path d="M187.173 158.268C187.028 158.259 186.893 158.151 186.857 157.998C186.803 157.808 186.92 157.619 187.109 157.574L253.197 140.732C253.386 140.678 253.575 140.795 253.63 140.984C253.675 141.174 253.557 141.363 253.368 141.417L187.281 158.259C187.245 158.265 187.209 158.268 187.173 158.268Z" fill="#BDD0FB"/>
<path d="M178.194 161.345C178.059 161.336 177.932 161.246 177.878 161.102C177.815 160.921 177.914 160.714 178.104 160.651L181.521 159.488C181.701 159.425 181.908 159.524 181.972 159.704C182.035 159.894 181.936 160.092 181.746 160.155L178.329 161.327C178.287 161.339 178.242 161.345 178.194 161.345Z" fill="#BDD0FB"/>
<path d="M170.189 179.229L156.467 178.427C155.998 178.4 155.601 178.13 155.403 177.706C155.205 177.291 155.25 176.813 155.529 176.435C155.637 176.272 155.863 176.245 156.016 176.353C156.178 176.471 156.215 176.696 156.097 176.849C155.971 177.012 155.953 177.228 156.043 177.408C156.124 177.589 156.305 177.706 156.503 177.724L170.234 178.526C170.532 178.544 170.793 178.31 170.811 178.012L170.866 177.039C170.884 176.732 170.658 176.471 170.352 176.453L156.521 175.65C156.332 175.632 156.178 175.47 156.187 175.271C156.206 175.082 156.368 174.929 156.566 174.938L170.397 175.749C171.091 175.794 171.614 176.389 171.578 177.075L171.515 178.057C171.479 178.743 170.884 179.275 170.189 179.229Z" fill="#BDD0FB"/>
<path d="M171.019 187.213L157.287 186.41C156.818 186.383 156.422 186.113 156.223 185.689C156.025 185.274 156.07 184.797 156.35 184.418C156.467 184.256 156.683 184.229 156.845 184.337C156.999 184.454 157.035 184.679 156.918 184.833C156.8 185.004 156.773 185.211 156.864 185.392C156.954 185.572 157.125 185.689 157.323 185.707L171.055 186.51C171.352 186.528 171.614 186.293 171.632 185.996L171.695 185.022C171.713 184.715 171.478 184.454 171.181 184.445L157.341 183.634C157.152 183.616 156.999 183.453 157.017 183.255C157.026 183.066 157.188 182.912 157.386 182.921L171.217 183.733C171.911 183.778 172.434 184.373 172.398 185.058L172.344 186.041C172.299 186.726 171.704 187.258 171.019 187.213Z" fill="#BDD0FB"/>
<path d="M180.766 230.913C180.135 230.868 179.504 230.769 178.873 230.588C176.114 229.822 173.95 227.847 172.931 225.179L163.392 200.159C163.32 199.979 163.41 199.781 163.59 199.708C163.78 199.636 163.978 199.727 164.05 199.907L173.589 224.926C174.527 227.379 176.519 229.2 179.062 229.912C181.559 230.606 184.147 230.101 186.176 228.524C186.29 228.439 186.401 228.352 186.509 228.262C186.662 228.145 186.879 228.163 187.005 228.316C187.131 228.47 187.104 228.695 186.951 228.812C186.837 228.908 186.726 228.998 186.617 229.083C184.913 230.399 182.858 231.03 180.766 230.913Z" fill="#BDD0FB"/>
<path d="M162.267 196.684C162.131 196.684 162.005 196.594 161.951 196.459L160.887 193.673C160.824 193.493 160.914 193.285 161.095 193.213C161.275 193.141 161.482 193.24 161.554 193.421L162.618 196.206C162.681 196.396 162.591 196.594 162.411 196.666C162.363 196.684 162.315 196.69 162.267 196.684Z" fill="#BDD0FB"/>
<path d="M269.187 175.102C268.998 175.093 268.854 174.939 268.854 174.759C268.808 171.306 267.763 168.664 265.752 166.924C262.272 163.913 257.025 164.571 256.97 164.58C256.772 164.607 256.601 164.472 256.574 164.273C256.547 164.084 256.682 163.904 256.871 163.877C257.106 163.85 262.497 163.174 266.221 166.392C268.385 168.268 269.512 171.081 269.557 174.75C269.557 174.939 269.404 175.102 269.205 175.102C269.199 175.102 269.193 175.102 269.187 175.102Z" fill="white"/>
<path d="M331.647 160.796C331.647 172.967 321.784 182.831 309.612 182.831C297.449 182.831 287.586 172.967 287.586 160.796C287.586 148.633 297.449 138.761 309.612 138.761C321.784 138.761 331.647 148.633 331.647 160.796Z" fill="url(#paint14_linear_1145_25994)"/>
<path d="M329.234 160.84C329.234 171.875 320.29 180.828 309.245 180.828C298.209 180.828 289.266 171.875 289.266 160.84C289.266 149.804 298.209 140.86 309.245 140.86C320.29 140.86 329.234 149.804 329.234 160.84Z" fill="url(#paint15_linear_1145_25994)"/>
<path d="M327.673 154.057C327.493 154.057 327.321 153.949 327.249 153.777C325.942 150.613 323.814 147.827 321.082 145.726C320.884 145.573 320.848 145.293 321.001 145.095C321.154 144.897 321.443 144.851 321.641 145.005C324.49 147.205 326.726 150.117 328.097 153.435C328.187 153.66 328.079 153.931 327.844 154.021C327.79 154.045 327.733 154.057 327.673 154.057Z" fill="url(#paint16_linear_1145_25994)"/>
<path d="M298.862 144.583C298.709 144.583 298.556 144.502 298.475 144.357C298.34 144.15 298.412 143.871 298.628 143.735C301.811 141.806 305.471 140.787 309.213 140.787C311.972 140.787 314.649 141.319 317.174 142.392C317.399 142.491 317.508 142.753 317.408 142.987C317.318 143.212 317.048 143.321 316.813 143.23C314.406 142.212 311.855 141.689 309.213 141.689C305.642 141.689 302.144 142.671 299.097 144.511C299.025 144.556 298.944 144.583 298.862 144.583Z" fill="url(#paint17_linear_1145_25994)"/>
<path d="M296.205 176.86C296.106 176.86 295.998 176.833 295.917 176.752C291.363 172.866 288.758 167.204 288.758 161.218C288.758 156.493 290.408 151.877 293.41 148.235C293.563 148.045 293.852 148.018 294.05 148.171C294.24 148.334 294.267 148.622 294.104 148.812C291.237 152.301 289.659 156.701 289.659 161.218C289.659 166.934 292.157 172.343 296.503 176.067C296.692 176.229 296.719 176.518 296.557 176.707C296.466 176.806 296.34 176.86 296.205 176.86Z" fill="url(#paint18_linear_1145_25994)"/>
<path d="M314.811 212.124C314.811 224.287 304.948 234.15 292.785 234.15C280.614 234.15 270.75 224.287 270.75 212.124C270.75 199.952 280.614 190.089 292.785 190.089C304.948 190.089 314.811 199.952 314.811 212.124Z" fill="url(#paint19_linear_1145_25994)"/>
<path d="M312.428 212.168C312.428 223.204 303.484 232.147 292.448 232.147C281.413 232.147 272.469 223.204 272.469 212.168C272.469 201.132 281.413 192.188 292.448 192.188C303.484 192.188 312.428 201.132 312.428 212.168Z" fill="url(#paint20_linear_1145_25994)"/>
<path d="M310.876 205.388C310.696 205.388 310.525 205.28 310.452 205.109C309.145 201.935 307.017 199.158 304.285 197.057C304.087 196.904 304.051 196.616 304.204 196.417C304.358 196.219 304.637 196.183 304.844 196.336C307.693 198.527 309.929 201.439 311.291 204.757C311.39 204.992 311.282 205.253 311.047 205.352C310.987 205.376 310.93 205.388 310.876 205.388Z" fill="url(#paint21_linear_1145_25994)"/>
<path d="M282.027 195.901C281.873 195.901 281.72 195.829 281.639 195.685C281.504 195.468 281.576 195.189 281.792 195.063C284.975 193.124 288.635 192.105 292.377 192.105C295.136 192.105 297.814 192.646 300.329 193.71C300.563 193.809 300.672 194.08 300.572 194.305C300.473 194.54 300.212 194.648 299.977 194.549C297.57 193.53 295.01 193.016 292.377 193.016C288.798 193.016 285.299 193.99 282.261 195.838C282.189 195.883 282.108 195.901 282.027 195.901Z" fill="url(#paint22_linear_1145_25994)"/>
<path d="M279.417 228.19C279.309 228.19 279.21 228.154 279.12 228.082C274.576 224.187 271.961 218.525 271.961 212.547C271.961 207.814 273.611 203.207 276.613 199.564C276.775 199.366 277.064 199.339 277.253 199.501C277.452 199.664 277.479 199.952 277.316 200.141C274.449 203.622 272.872 208.03 272.872 212.547C272.872 218.264 275.369 223.673 279.715 227.388C279.904 227.55 279.922 227.839 279.76 228.028C279.67 228.136 279.543 228.19 279.417 228.19Z" fill="url(#paint23_linear_1145_25994)"/>
<path d="M316.938 111.117C316.938 122.838 307.435 132.341 295.715 132.341C284.003 132.341 274.5 122.838 274.5 111.117C274.5 99.3964 284.003 89.8936 295.715 89.8936C307.435 89.8936 316.938 99.3964 316.938 111.117Z" fill="url(#paint24_linear_1145_25994)"/>
<path d="M314.63 111.159C314.63 121.789 306.011 130.408 295.381 130.408C284.751 130.408 276.141 121.789 276.141 111.159C276.141 100.529 284.751 91.9102 295.381 91.9102C306.011 91.9102 314.63 100.529 314.63 111.159Z" fill="url(#paint25_linear_1145_25994)"/>
<path d="M313.141 104.644C312.961 104.644 312.798 104.545 312.726 104.364C311.464 101.317 309.417 98.6391 306.794 96.6195C306.586 96.4663 306.55 96.1868 306.704 95.9884C306.857 95.7901 307.145 95.745 307.344 95.8983C310.094 98.017 312.249 100.821 313.565 104.022C313.655 104.256 313.547 104.518 313.321 104.617C313.261 104.635 313.201 104.644 313.141 104.644Z" fill="url(#paint26_linear_1145_25994)"/>
<path d="M285.343 95.5188C285.19 95.5188 285.045 95.4377 284.955 95.2934C284.829 95.0861 284.892 94.8066 285.108 94.6713C288.174 92.814 291.708 91.8223 295.315 91.8223C297.974 91.8223 300.553 92.3452 302.987 93.373C303.213 93.4722 303.321 93.7427 303.222 93.9681C303.131 94.2025 302.861 94.3107 302.627 94.2115C300.309 93.2288 297.848 92.7329 295.315 92.7329C291.87 92.7329 288.507 93.6705 285.577 95.4467C285.505 95.4918 285.424 95.5188 285.343 95.5188Z" fill="url(#paint27_linear_1145_25994)"/>
<path d="M282.828 126.616C282.728 126.616 282.62 126.58 282.539 126.499C278.148 122.748 275.633 117.294 275.633 111.524C275.633 106.97 277.229 102.526 280.123 99.0093C280.276 98.82 280.565 98.7929 280.754 98.9552C280.952 99.1085 280.979 99.397 280.817 99.5953C278.058 102.94 276.543 107.178 276.543 111.524C276.543 117.023 278.942 122.235 283.125 125.814C283.314 125.976 283.341 126.265 283.179 126.454C283.089 126.562 282.963 126.616 282.828 126.616Z" fill="url(#paint28_linear_1145_25994)"/>
<path opacity="0.2" d="M141.123 278.739C142.352 296.608 128.867 312.156 111.074 313.4C107.151 313.672 103.341 313.232 99.7697 312.19C93.9517 310.489 87.7564 310.666 82.004 312.571C79.3577 313.445 76.566 314.017 73.663 314.245C54.2134 315.764 37.2689 301.265 35.6902 281.74C34.1037 262.111 48.7365 244.972 68.2681 243.518C69.166 243.452 70.0607 243.419 70.9495 243.422C71.8494 243.421 72.6665 242.884 73.0215 242.049C76.3826 234.116 83.9352 228.299 93.0901 227.618C106.152 226.646 117.533 236.49 118.509 249.605C118.524 249.804 118.656 249.972 118.847 250.036C131.015 254.03 140.185 265.106 141.123 278.739Z" fill="#FFC514"/>
<path d="M99.1135 297.837C99.4679 302.599 95.8941 306.75 91.1291 307.105C86.367 307.459 82.2151 303.883 81.8607 299.121C81.5061 294.356 85.083 290.207 89.8451 289.852C94.6101 289.498 98.7589 293.072 99.1135 297.837Z" fill="url(#paint29_radial_1145_25994)"/>
<path d="M91.516 246.131C91.7169 248.83 89.6893 251.184 86.99 251.385C84.2907 251.586 81.9398 249.558 81.7389 246.859C81.538 244.159 83.5629 241.806 86.2621 241.605C88.9614 241.404 91.3152 243.432 91.516 246.131Z" fill="url(#paint30_radial_1145_25994)"/>
<path d="M115.723 298.785L65.5615 302.518C64.5813 302.591 63.868 301.607 64.2405 300.699L67.3383 293.146C68.6104 290.045 69.0651 286.672 68.6548 283.348L66.9834 269.718C65.5013 257.634 74.4234 246.762 86.5646 245.859C98.7086 244.955 109.139 254.387 109.462 266.557L109.826 280.284C109.915 283.632 110.862 286.901 112.579 289.779L116.763 296.79C117.266 297.633 116.703 298.712 115.723 298.785Z" fill="url(#paint31_linear_1145_25994)"/>
<path d="M109.225 251.725C109.497 255.376 106.757 258.554 103.108 258.826C99.4572 259.098 96.2792 256.36 96.0075 252.709C95.736 249.06 98.4735 245.879 102.125 245.608C105.773 245.336 108.951 248.074 109.225 251.725Z" fill="#F44C3D"/>
<path d="M99.8473 251.437L99.7316 249.883C101.007 249.402 101.444 248.855 101.794 248.184L103.453 248.06L103.92 254.34L105.475 254.224L105.586 255.727L100.546 256.102L100.434 254.599L102.184 254.469L101.881 250.389C101.023 251.001 100.349 251.263 99.8473 251.437Z" fill="white"/>
<mask id="path-54-outside-1_1145_25994" maskUnits="userSpaceOnUse" x="279.398" y="105.563" width="32" height="11" fill="black">
<rect fill="white" x="279.398" y="105.563" width="32" height="11"/>
<path d="M281.044 115.762C280.872 115.762 280.721 115.699 280.592 115.573C280.463 115.447 280.398 115.29 280.398 115.101V107.4C280.398 107.148 280.429 106.968 280.489 106.86C280.549 106.743 280.661 106.667 280.825 106.631C280.997 106.586 281.272 106.563 281.651 106.563C283.252 106.563 284.448 106.811 285.24 107.305C286.041 107.8 286.441 108.515 286.441 109.45C286.441 110.205 286.187 110.826 285.679 111.311C285.171 111.797 284.556 112.152 283.833 112.377C283.11 112.601 282.391 112.727 281.677 112.754V115.101C281.677 115.29 281.616 115.447 281.496 115.573C281.375 115.699 281.225 115.762 281.044 115.762ZM281.677 111.433C282.52 111.379 283.312 111.203 284.052 110.907C284.793 110.601 285.163 110.115 285.163 109.45C285.163 108.955 284.874 108.573 284.298 108.303C283.73 108.034 282.916 107.899 281.857 107.899H281.677V111.433Z"/>
<path d="M290.763 115.762C290.049 115.762 289.433 115.555 288.917 115.142C288.409 114.728 288.013 114.148 287.729 113.402C287.453 112.655 287.298 111.792 287.264 110.812C287.247 110.057 287.238 109.544 287.238 109.274L287.251 108.236C287.26 108.011 287.264 107.669 287.264 107.211C287.264 107.067 287.316 106.928 287.419 106.793C287.531 106.649 287.703 106.577 287.935 106.577C288.159 106.577 288.318 106.649 288.413 106.793C288.508 106.928 288.555 107.072 288.555 107.224L288.542 108.195C288.534 108.384 288.529 108.672 288.529 109.059C288.529 109.346 288.538 109.868 288.555 110.623C288.59 111.765 288.775 112.7 289.11 113.429C289.455 114.157 290.014 114.521 290.789 114.521C291.391 114.521 291.904 114.323 292.325 113.928C292.747 113.523 293.005 112.885 293.1 112.012C293.178 111.239 293.216 110.371 293.216 109.409L293.203 107.251C293.203 107.089 293.251 106.937 293.345 106.793C293.44 106.649 293.608 106.577 293.849 106.577C294.09 106.577 294.253 106.649 294.34 106.793C294.434 106.928 294.482 107.072 294.482 107.224L294.494 107.602C294.52 108.519 294.533 109.144 294.533 109.477C294.533 110.403 294.482 111.284 294.378 112.12C294.232 113.262 293.866 114.157 293.281 114.804C292.695 115.443 291.856 115.762 290.763 115.762Z"/>
<path d="M298.69 115.762C297.95 115.762 297.304 115.591 296.753 115.25C296.211 114.908 295.828 114.49 295.604 113.995C295.51 113.779 295.462 113.604 295.462 113.469C295.462 113.28 295.527 113.123 295.656 112.997C295.785 112.862 295.94 112.795 296.121 112.795C296.276 112.795 296.409 112.84 296.521 112.93C296.633 113.02 296.715 113.141 296.766 113.294C296.904 113.68 297.158 113.977 297.528 114.184C297.898 114.391 298.294 114.494 298.716 114.494C299.25 114.494 299.689 114.364 300.033 114.103C300.386 113.833 300.562 113.505 300.562 113.118C300.562 112.822 300.42 112.552 300.136 112.309C299.861 112.066 299.387 111.846 298.716 111.648C297.847 111.397 297.162 111.073 296.663 110.677C296.164 110.273 295.914 109.72 295.914 109.018C295.914 108.542 296.035 108.119 296.276 107.75C296.525 107.373 296.878 107.081 297.334 106.874C297.791 106.667 298.324 106.563 298.935 106.563C299.813 106.563 300.502 106.743 301.001 107.103C301.509 107.463 301.763 107.944 301.763 108.546C301.763 108.744 301.703 108.91 301.582 109.045C301.462 109.18 301.311 109.248 301.13 109.248C300.975 109.248 300.842 109.194 300.73 109.086C300.618 108.978 300.554 108.843 300.536 108.681C300.502 108.429 300.343 108.222 300.059 108.061C299.775 107.89 299.4 107.804 298.935 107.804C298.359 107.804 297.92 107.908 297.618 108.115C297.317 108.312 297.166 108.582 297.166 108.924C297.166 109.239 297.321 109.504 297.631 109.72C297.941 109.935 298.449 110.151 299.155 110.367C300.024 110.628 300.683 110.978 301.13 111.419C301.578 111.86 301.802 112.404 301.802 113.051C301.802 113.555 301.66 114.013 301.376 114.427C301.092 114.84 300.709 115.169 300.227 115.411C299.753 115.645 299.241 115.762 298.69 115.762Z"/>
<path d="M303.853 115.762C303.673 115.762 303.522 115.699 303.401 115.573C303.281 115.438 303.221 115.281 303.221 115.101V107.238C303.221 107.049 303.281 106.892 303.401 106.766C303.522 106.64 303.673 106.577 303.853 106.577C304.034 106.577 304.189 106.64 304.318 106.766C304.447 106.892 304.512 107.049 304.512 107.238V110.745L309.212 110.057V107.238C309.212 107.049 309.272 106.892 309.392 106.766C309.522 106.64 309.677 106.577 309.857 106.577C310.029 106.577 310.18 106.64 310.309 106.766C310.438 106.892 310.503 107.049 310.503 107.238V115.101C310.503 115.272 310.438 115.425 310.309 115.56C310.18 115.695 310.029 115.762 309.857 115.762C309.677 115.762 309.522 115.699 309.392 115.573C309.272 115.438 309.212 115.281 309.212 115.101V111.379L304.512 112.066V115.101C304.512 115.281 304.447 115.438 304.318 115.573C304.189 115.699 304.034 115.762 303.853 115.762Z"/>
</mask>
<path d="M281.044 115.762C280.872 115.762 280.721 115.699 280.592 115.573C280.463 115.447 280.398 115.29 280.398 115.101V107.4C280.398 107.148 280.429 106.968 280.489 106.86C280.549 106.743 280.661 106.667 280.825 106.631C280.997 106.586 281.272 106.563 281.651 106.563C283.252 106.563 284.448 106.811 285.24 107.305C286.041 107.8 286.441 108.515 286.441 109.45C286.441 110.205 286.187 110.826 285.679 111.311C285.171 111.797 284.556 112.152 283.833 112.377C283.11 112.601 282.391 112.727 281.677 112.754V115.101C281.677 115.29 281.616 115.447 281.496 115.573C281.375 115.699 281.225 115.762 281.044 115.762ZM281.677 111.433C282.52 111.379 283.312 111.203 284.052 110.907C284.793 110.601 285.163 110.115 285.163 109.45C285.163 108.955 284.874 108.573 284.298 108.303C283.73 108.034 282.916 107.899 281.857 107.899H281.677V111.433Z" fill="white"/>
<path d="M290.763 115.762C290.049 115.762 289.433 115.555 288.917 115.142C288.409 114.728 288.013 114.148 287.729 113.402C287.453 112.655 287.298 111.792 287.264 110.812C287.247 110.057 287.238 109.544 287.238 109.274L287.251 108.236C287.26 108.011 287.264 107.669 287.264 107.211C287.264 107.067 287.316 106.928 287.419 106.793C287.531 106.649 287.703 106.577 287.935 106.577C288.159 106.577 288.318 106.649 288.413 106.793C288.508 106.928 288.555 107.072 288.555 107.224L288.542 108.195C288.534 108.384 288.529 108.672 288.529 109.059C288.529 109.346 288.538 109.868 288.555 110.623C288.59 111.765 288.775 112.7 289.11 113.429C289.455 114.157 290.014 114.521 290.789 114.521C291.391 114.521 291.904 114.323 292.325 113.928C292.747 113.523 293.005 112.885 293.1 112.012C293.178 111.239 293.216 110.371 293.216 109.409L293.203 107.251C293.203 107.089 293.251 106.937 293.345 106.793C293.44 106.649 293.608 106.577 293.849 106.577C294.09 106.577 294.253 106.649 294.34 106.793C294.434 106.928 294.482 107.072 294.482 107.224L294.494 107.602C294.52 108.519 294.533 109.144 294.533 109.477C294.533 110.403 294.482 111.284 294.378 112.12C294.232 113.262 293.866 114.157 293.281 114.804C292.695 115.443 291.856 115.762 290.763 115.762Z" fill="white"/>
<path d="M298.69 115.762C297.95 115.762 297.304 115.591 296.753 115.25C296.211 114.908 295.828 114.49 295.604 113.995C295.51 113.779 295.462 113.604 295.462 113.469C295.462 113.28 295.527 113.123 295.656 112.997C295.785 112.862 295.94 112.795 296.121 112.795C296.276 112.795 296.409 112.84 296.521 112.93C296.633 113.02 296.715 113.141 296.766 113.294C296.904 113.68 297.158 113.977 297.528 114.184C297.898 114.391 298.294 114.494 298.716 114.494C299.25 114.494 299.689 114.364 300.033 114.103C300.386 113.833 300.562 113.505 300.562 113.118C300.562 112.822 300.42 112.552 300.136 112.309C299.861 112.066 299.387 111.846 298.716 111.648C297.847 111.397 297.162 111.073 296.663 110.677C296.164 110.273 295.914 109.72 295.914 109.018C295.914 108.542 296.035 108.119 296.276 107.75C296.525 107.373 296.878 107.081 297.334 106.874C297.791 106.667 298.324 106.563 298.935 106.563C299.813 106.563 300.502 106.743 301.001 107.103C301.509 107.463 301.763 107.944 301.763 108.546C301.763 108.744 301.703 108.91 301.582 109.045C301.462 109.18 301.311 109.248 301.13 109.248C300.975 109.248 300.842 109.194 300.73 109.086C300.618 108.978 300.554 108.843 300.536 108.681C300.502 108.429 300.343 108.222 300.059 108.061C299.775 107.89 299.4 107.804 298.935 107.804C298.359 107.804 297.92 107.908 297.618 108.115C297.317 108.312 297.166 108.582 297.166 108.924C297.166 109.239 297.321 109.504 297.631 109.72C297.941 109.935 298.449 110.151 299.155 110.367C300.024 110.628 300.683 110.978 301.13 111.419C301.578 111.86 301.802 112.404 301.802 113.051C301.802 113.555 301.66 114.013 301.376 114.427C301.092 114.84 300.709 115.169 300.227 115.411C299.753 115.645 299.241 115.762 298.69 115.762Z" fill="white"/>
<path d="M303.853 115.762C303.673 115.762 303.522 115.699 303.401 115.573C303.281 115.438 303.221 115.281 303.221 115.101V107.238C303.221 107.049 303.281 106.892 303.401 106.766C303.522 106.64 303.673 106.577 303.853 106.577C304.034 106.577 304.189 106.64 304.318 106.766C304.447 106.892 304.512 107.049 304.512 107.238V110.745L309.212 110.057V107.238C309.212 107.049 309.272 106.892 309.392 106.766C309.522 106.64 309.677 106.577 309.857 106.577C310.029 106.577 310.18 106.64 310.309 106.766C310.438 106.892 310.503 107.049 310.503 107.238V115.101C310.503 115.272 310.438 115.425 310.309 115.56C310.18 115.695 310.029 115.762 309.857 115.762C309.677 115.762 309.522 115.699 309.392 115.573C309.272 115.438 309.212 115.281 309.212 115.101V111.379L304.512 112.066V115.101C304.512 115.281 304.447 115.438 304.318 115.573C304.189 115.699 304.034 115.762 303.853 115.762Z" fill="white"/>
<path d="M281.044 115.762C280.872 115.762 280.721 115.699 280.592 115.573C280.463 115.447 280.398 115.29 280.398 115.101V107.4C280.398 107.148 280.429 106.968 280.489 106.86C280.549 106.743 280.661 106.667 280.825 106.631C280.997 106.586 281.272 106.563 281.651 106.563C283.252 106.563 284.448 106.811 285.24 107.305C286.041 107.8 286.441 108.515 286.441 109.45C286.441 110.205 286.187 110.826 285.679 111.311C285.171 111.797 284.556 112.152 283.833 112.377C283.11 112.601 282.391 112.727 281.677 112.754V115.101C281.677 115.29 281.616 115.447 281.496 115.573C281.375 115.699 281.225 115.762 281.044 115.762ZM281.677 111.433C282.52 111.379 283.312 111.203 284.052 110.907C284.793 110.601 285.163 110.115 285.163 109.45C285.163 108.955 284.874 108.573 284.298 108.303C283.73 108.034 282.916 107.899 281.857 107.899H281.677V111.433Z" stroke="white" stroke-width="0.6" mask="url(#path-54-outside-1_1145_25994)"/>
<path d="M290.763 115.762C290.049 115.762 289.433 115.555 288.917 115.142C288.409 114.728 288.013 114.148 287.729 113.402C287.453 112.655 287.298 111.792 287.264 110.812C287.247 110.057 287.238 109.544 287.238 109.274L287.251 108.236C287.26 108.011 287.264 107.669 287.264 107.211C287.264 107.067 287.316 106.928 287.419 106.793C287.531 106.649 287.703 106.577 287.935 106.577C288.159 106.577 288.318 106.649 288.413 106.793C288.508 106.928 288.555 107.072 288.555 107.224L288.542 108.195C288.534 108.384 288.529 108.672 288.529 109.059C288.529 109.346 288.538 109.868 288.555 110.623C288.59 111.765 288.775 112.7 289.11 113.429C289.455 114.157 290.014 114.521 290.789 114.521C291.391 114.521 291.904 114.323 292.325 113.928C292.747 113.523 293.005 112.885 293.1 112.012C293.178 111.239 293.216 110.371 293.216 109.409L293.203 107.251C293.203 107.089 293.251 106.937 293.345 106.793C293.44 106.649 293.608 106.577 293.849 106.577C294.09 106.577 294.253 106.649 294.34 106.793C294.434 106.928 294.482 107.072 294.482 107.224L294.494 107.602C294.52 108.519 294.533 109.144 294.533 109.477C294.533 110.403 294.482 111.284 294.378 112.12C294.232 113.262 293.866 114.157 293.281 114.804C292.695 115.443 291.856 115.762 290.763 115.762Z" stroke="white" stroke-width="0.6" mask="url(#path-54-outside-1_1145_25994)"/>
<path d="M298.69 115.762C297.95 115.762 297.304 115.591 296.753 115.25C296.211 114.908 295.828 114.49 295.604 113.995C295.51 113.779 295.462 113.604 295.462 113.469C295.462 113.28 295.527 113.123 295.656 112.997C295.785 112.862 295.94 112.795 296.121 112.795C296.276 112.795 296.409 112.84 296.521 112.93C296.633 113.02 296.715 113.141 296.766 113.294C296.904 113.68 297.158 113.977 297.528 114.184C297.898 114.391 298.294 114.494 298.716 114.494C299.25 114.494 299.689 114.364 300.033 114.103C300.386 113.833 300.562 113.505 300.562 113.118C300.562 112.822 300.42 112.552 300.136 112.309C299.861 112.066 299.387 111.846 298.716 111.648C297.847 111.397 297.162 111.073 296.663 110.677C296.164 110.273 295.914 109.72 295.914 109.018C295.914 108.542 296.035 108.119 296.276 107.75C296.525 107.373 296.878 107.081 297.334 106.874C297.791 106.667 298.324 106.563 298.935 106.563C299.813 106.563 300.502 106.743 301.001 107.103C301.509 107.463 301.763 107.944 301.763 108.546C301.763 108.744 301.703 108.91 301.582 109.045C301.462 109.18 301.311 109.248 301.13 109.248C300.975 109.248 300.842 109.194 300.73 109.086C300.618 108.978 300.554 108.843 300.536 108.681C300.502 108.429 300.343 108.222 300.059 108.061C299.775 107.89 299.4 107.804 298.935 107.804C298.359 107.804 297.92 107.908 297.618 108.115C297.317 108.312 297.166 108.582 297.166 108.924C297.166 109.239 297.321 109.504 297.631 109.72C297.941 109.935 298.449 110.151 299.155 110.367C300.024 110.628 300.683 110.978 301.13 111.419C301.578 111.86 301.802 112.404 301.802 113.051C301.802 113.555 301.66 114.013 301.376 114.427C301.092 114.84 300.709 115.169 300.227 115.411C299.753 115.645 299.241 115.762 298.69 115.762Z" stroke="white" stroke-width="0.6" mask="url(#path-54-outside-1_1145_25994)"/>
<path d="M303.853 115.762C303.673 115.762 303.522 115.699 303.401 115.573C303.281 115.438 303.221 115.281 303.221 115.101V107.238C303.221 107.049 303.281 106.892 303.401 106.766C303.522 106.64 303.673 106.577 303.853 106.577C304.034 106.577 304.189 106.64 304.318 106.766C304.447 106.892 304.512 107.049 304.512 107.238V110.745L309.212 110.057V107.238C309.212 107.049 309.272 106.892 309.392 106.766C309.522 106.64 309.677 106.577 309.857 106.577C310.029 106.577 310.18 106.64 310.309 106.766C310.438 106.892 310.503 107.049 310.503 107.238V115.101C310.503 115.272 310.438 115.425 310.309 115.56C310.18 115.695 310.029 115.762 309.857 115.762C309.677 115.762 309.522 115.699 309.392 115.573C309.272 115.438 309.212 115.281 309.212 115.101V111.379L304.512 112.066V115.101C304.512 115.281 304.447 115.438 304.318 115.573C304.189 115.699 304.034 115.762 303.853 115.762Z" stroke="white" stroke-width="0.6" mask="url(#path-54-outside-1_1145_25994)"/>
<mask id="path-55-outside-2_1145_25994" maskUnits="userSpaceOnUse" x="291.938" y="155.734" width="35" height="10" fill="black">
<rect fill="white" x="291.938" y="155.734" width="35" height="10"/>
<path d="M293.54 165.012C293.371 165.012 293.227 164.955 293.106 164.842C292.994 164.72 292.938 164.575 292.938 164.405V157.487C292.938 157.317 292.994 157.175 293.106 157.062C293.227 156.941 293.371 156.88 293.54 156.88H298.349C298.517 156.88 298.658 156.941 298.771 157.062C298.883 157.175 298.939 157.317 298.939 157.487C298.939 157.657 298.883 157.802 298.771 157.924C298.658 158.037 298.517 158.094 298.349 158.094H294.131V160.181H297.794C297.963 160.181 298.104 160.238 298.216 160.351C298.329 160.464 298.385 160.606 298.385 160.776C298.385 160.946 298.329 161.092 298.216 161.213C298.104 161.326 297.963 161.383 297.794 161.383H294.131V163.798H298.325C298.493 163.798 298.634 163.859 298.746 163.98C298.859 164.093 298.915 164.235 298.915 164.405C298.915 164.575 298.859 164.72 298.746 164.842C298.634 164.955 298.493 165.012 298.325 165.012H293.54Z"/>
<path d="M300.081 165.085C299.905 165.085 299.764 165.032 299.66 164.927C299.563 164.822 299.515 164.704 299.515 164.575C299.515 164.445 299.531 164.312 299.563 164.174L301.058 157.293C301.09 157.147 301.158 157.034 301.263 156.953C301.367 156.864 301.496 156.819 301.648 156.819C301.929 156.819 302.114 156.957 302.203 157.232L303.902 162.609L305.83 157.208C305.927 156.949 306.127 156.819 306.433 156.819C306.569 156.819 306.682 156.864 306.77 156.953C306.867 157.034 306.931 157.147 306.963 157.293L308.494 164.162C308.534 164.348 308.554 164.47 308.554 164.526C308.554 164.68 308.498 164.814 308.385 164.927C308.273 165.032 308.132 165.085 307.963 165.085C307.803 165.085 307.674 165.044 307.578 164.963C307.481 164.874 307.417 164.761 307.385 164.623L306.276 159.55L304.42 164.696C304.38 164.818 304.308 164.915 304.203 164.987C304.099 165.052 303.982 165.085 303.854 165.085C303.572 165.085 303.388 164.947 303.299 164.672L301.733 159.732L300.672 164.611C300.64 164.757 300.572 164.874 300.467 164.963C300.363 165.044 300.234 165.085 300.081 165.085Z"/>
<path d="M314.841 165.097C314.552 165.097 314.363 164.959 314.274 164.684L313.407 162.16L310.948 162.706L310.165 164.696C310.117 164.809 310.044 164.903 309.948 164.975C309.859 165.048 309.747 165.085 309.61 165.085C309.45 165.085 309.309 165.028 309.189 164.915C309.068 164.801 309.008 164.668 309.008 164.514C309.008 164.409 309.036 164.288 309.092 164.15L309.574 162.936C309.526 162.92 309.49 162.904 309.466 162.888C309.257 162.783 309.152 162.605 309.152 162.354C309.152 162.208 309.193 162.083 309.273 161.978C309.361 161.872 309.474 161.804 309.61 161.771L310.056 161.674L311.84 157.111C311.888 156.989 311.965 156.896 312.069 156.831C312.173 156.767 312.286 156.734 312.406 156.734C312.535 156.734 312.647 156.767 312.744 156.831C312.84 156.896 312.913 156.997 312.961 157.135L315.359 164.138C315.367 164.154 315.383 164.203 315.407 164.284C315.431 164.356 315.443 164.433 315.443 164.514C315.443 164.668 315.387 164.805 315.275 164.927C315.162 165.04 315.018 165.097 314.841 165.097ZM313.009 161.031L312.358 159.077L311.454 161.371L313.009 161.031Z"/>
<path d="M316.525 165.012C316.356 165.012 316.212 164.955 316.091 164.842C315.979 164.72 315.923 164.575 315.923 164.405C315.923 164.235 315.979 164.093 316.091 163.98C316.212 163.859 316.356 163.798 316.525 163.798H317.369V158.094H316.525C316.356 158.094 316.212 158.033 316.091 157.912C315.979 157.79 315.923 157.645 315.923 157.475C315.923 157.305 315.979 157.163 316.091 157.05C316.212 156.937 316.356 156.88 316.525 156.88H319.406C319.574 156.88 319.715 156.937 319.827 157.05C319.94 157.163 319.996 157.305 319.996 157.475C319.996 157.645 319.94 157.79 319.827 157.912C319.715 158.033 319.574 158.094 319.406 158.094H318.574V163.798H319.406C319.582 163.798 319.723 163.859 319.827 163.98C319.94 164.093 319.996 164.235 319.996 164.405C319.996 164.575 319.94 164.72 319.827 164.842C319.715 164.955 319.574 165.012 319.406 165.012H316.525Z"/>
<path d="M321.916 165.072C321.763 165.081 321.626 165.024 321.506 164.903C321.385 164.781 321.325 164.644 321.325 164.49V157.414C321.325 157.252 321.381 157.115 321.494 157.001C321.614 156.88 321.759 156.819 321.928 156.819C322.088 156.819 322.225 156.88 322.337 157.001C322.458 157.115 322.518 157.252 322.518 157.414V163.847L325.796 163.628C325.965 163.62 326.106 163.673 326.218 163.786C326.331 163.891 326.387 164.033 326.387 164.211C326.387 164.356 326.331 164.494 326.218 164.623C326.114 164.745 325.989 164.809 325.845 164.818L321.916 165.072Z"/>
</mask>
<path d="M293.54 165.012C293.371 165.012 293.227 164.955 293.106 164.842C292.994 164.72 292.938 164.575 292.938 164.405V157.487C292.938 157.317 292.994 157.175 293.106 157.062C293.227 156.941 293.371 156.88 293.54 156.88H298.349C298.517 156.88 298.658 156.941 298.771 157.062C298.883 157.175 298.939 157.317 298.939 157.487C298.939 157.657 298.883 157.802 298.771 157.924C298.658 158.037 298.517 158.094 298.349 158.094H294.131V160.181H297.794C297.963 160.181 298.104 160.238 298.216 160.351C298.329 160.464 298.385 160.606 298.385 160.776C298.385 160.946 298.329 161.092 298.216 161.213C298.104 161.326 297.963 161.383 297.794 161.383H294.131V163.798H298.325C298.493 163.798 298.634 163.859 298.746 163.98C298.859 164.093 298.915 164.235 298.915 164.405C298.915 164.575 298.859 164.72 298.746 164.842C298.634 164.955 298.493 165.012 298.325 165.012H293.54Z" fill="white"/>
<path d="M300.081 165.085C299.905 165.085 299.764 165.032 299.66 164.927C299.563 164.822 299.515 164.704 299.515 164.575C299.515 164.445 299.531 164.312 299.563 164.174L301.058 157.293C301.09 157.147 301.158 157.034 301.263 156.953C301.367 156.864 301.496 156.819 301.648 156.819C301.929 156.819 302.114 156.957 302.203 157.232L303.902 162.609L305.83 157.208C305.927 156.949 306.127 156.819 306.433 156.819C306.569 156.819 306.682 156.864 306.77 156.953C306.867 157.034 306.931 157.147 306.963 157.293L308.494 164.162C308.534 164.348 308.554 164.47 308.554 164.526C308.554 164.68 308.498 164.814 308.385 164.927C308.273 165.032 308.132 165.085 307.963 165.085C307.803 165.085 307.674 165.044 307.578 164.963C307.481 164.874 307.417 164.761 307.385 164.623L306.276 159.55L304.42 164.696C304.38 164.818 304.308 164.915 304.203 164.987C304.099 165.052 303.982 165.085 303.854 165.085C303.572 165.085 303.388 164.947 303.299 164.672L301.733 159.732L300.672 164.611C300.64 164.757 300.572 164.874 300.467 164.963C300.363 165.044 300.234 165.085 300.081 165.085Z" fill="white"/>
<path d="M314.841 165.097C314.552 165.097 314.363 164.959 314.274 164.684L313.407 162.16L310.948 162.706L310.165 164.696C310.117 164.809 310.044 164.903 309.948 164.975C309.859 165.048 309.747 165.085 309.61 165.085C309.45 165.085 309.309 165.028 309.189 164.915C309.068 164.801 309.008 164.668 309.008 164.514C309.008 164.409 309.036 164.288 309.092 164.15L309.574 162.936C309.526 162.92 309.49 162.904 309.466 162.888C309.257 162.783 309.152 162.605 309.152 162.354C309.152 162.208 309.193 162.083 309.273 161.978C309.361 161.872 309.474 161.804 309.61 161.771L310.056 161.674L311.84 157.111C311.888 156.989 311.965 156.896 312.069 156.831C312.173 156.767 312.286 156.734 312.406 156.734C312.535 156.734 312.647 156.767 312.744 156.831C312.84 156.896 312.913 156.997 312.961 157.135L315.359 164.138C315.367 164.154 315.383 164.203 315.407 164.284C315.431 164.356 315.443 164.433 315.443 164.514C315.443 164.668 315.387 164.805 315.275 164.927C315.162 165.04 315.018 165.097 314.841 165.097ZM313.009 161.031L312.358 159.077L311.454 161.371L313.009 161.031Z" fill="white"/>
<path d="M316.525 165.012C316.356 165.012 316.212 164.955 316.091 164.842C315.979 164.72 315.923 164.575 315.923 164.405C315.923 164.235 315.979 164.093 316.091 163.98C316.212 163.859 316.356 163.798 316.525 163.798H317.369V158.094H316.525C316.356 158.094 316.212 158.033 316.091 157.912C315.979 157.79 315.923 157.645 315.923 157.475C315.923 157.305 315.979 157.163 316.091 157.05C316.212 156.937 316.356 156.88 316.525 156.88H319.406C319.574 156.88 319.715 156.937 319.827 157.05C319.94 157.163 319.996 157.305 319.996 157.475C319.996 157.645 319.94 157.79 319.827 157.912C319.715 158.033 319.574 158.094 319.406 158.094H318.574V163.798H319.406C319.582 163.798 319.723 163.859 319.827 163.98C319.94 164.093 319.996 164.235 319.996 164.405C319.996 164.575 319.94 164.72 319.827 164.842C319.715 164.955 319.574 165.012 319.406 165.012H316.525Z" fill="white"/>
<path d="M321.916 165.072C321.763 165.081 321.626 165.024 321.506 164.903C321.385 164.781 321.325 164.644 321.325 164.49V157.414C321.325 157.252 321.381 157.115 321.494 157.001C321.614 156.88 321.759 156.819 321.928 156.819C322.088 156.819 322.225 156.88 322.337 157.001C322.458 157.115 322.518 157.252 322.518 157.414V163.847L325.796 163.628C325.965 163.62 326.106 163.673 326.218 163.786C326.331 163.891 326.387 164.033 326.387 164.211C326.387 164.356 326.331 164.494 326.218 164.623C326.114 164.745 325.989 164.809 325.845 164.818L321.916 165.072Z" fill="white"/>
<path d="M293.54 165.012C293.371 165.012 293.227 164.955 293.106 164.842C292.994 164.72 292.938 164.575 292.938 164.405V157.487C292.938 157.317 292.994 157.175 293.106 157.062C293.227 156.941 293.371 156.88 293.54 156.88H298.349C298.517 156.88 298.658 156.941 298.771 157.062C298.883 157.175 298.939 157.317 298.939 157.487C298.939 157.657 298.883 157.802 298.771 157.924C298.658 158.037 298.517 158.094 298.349 158.094H294.131V160.181H297.794C297.963 160.181 298.104 160.238 298.216 160.351C298.329 160.464 298.385 160.606 298.385 160.776C298.385 160.946 298.329 161.092 298.216 161.213C298.104 161.326 297.963 161.383 297.794 161.383H294.131V163.798H298.325C298.493 163.798 298.634 163.859 298.746 163.98C298.859 164.093 298.915 164.235 298.915 164.405C298.915 164.575 298.859 164.72 298.746 164.842C298.634 164.955 298.493 165.012 298.325 165.012H293.54Z" stroke="white" stroke-width="0.6" mask="url(#path-55-outside-2_1145_25994)"/>
<path d="M300.081 165.085C299.905 165.085 299.764 165.032 299.66 164.927C299.563 164.822 299.515 164.704 299.515 164.575C299.515 164.445 299.531 164.312 299.563 164.174L301.058 157.293C301.09 157.147 301.158 157.034 301.263 156.953C301.367 156.864 301.496 156.819 301.648 156.819C301.929 156.819 302.114 156.957 302.203 157.232L303.902 162.609L305.83 157.208C305.927 156.949 306.127 156.819 306.433 156.819C306.569 156.819 306.682 156.864 306.77 156.953C306.867 157.034 306.931 157.147 306.963 157.293L308.494 164.162C308.534 164.348 308.554 164.47 308.554 164.526C308.554 164.68 308.498 164.814 308.385 164.927C308.273 165.032 308.132 165.085 307.963 165.085C307.803 165.085 307.674 165.044 307.578 164.963C307.481 164.874 307.417 164.761 307.385 164.623L306.276 159.55L304.42 164.696C304.38 164.818 304.308 164.915 304.203 164.987C304.099 165.052 303.982 165.085 303.854 165.085C303.572 165.085 303.388 164.947 303.299 164.672L301.733 159.732L300.672 164.611C300.64 164.757 300.572 164.874 300.467 164.963C300.363 165.044 300.234 165.085 300.081 165.085Z" stroke="white" stroke-width="0.6" mask="url(#path-55-outside-2_1145_25994)"/>
<path d="M314.841 165.097C314.552 165.097 314.363 164.959 314.274 164.684L313.407 162.16L310.948 162.706L310.165 164.696C310.117 164.809 310.044 164.903 309.948 164.975C309.859 165.048 309.747 165.085 309.61 165.085C309.45 165.085 309.309 165.028 309.189 164.915C309.068 164.801 309.008 164.668 309.008 164.514C309.008 164.409 309.036 164.288 309.092 164.15L309.574 162.936C309.526 162.92 309.49 162.904 309.466 162.888C309.257 162.783 309.152 162.605 309.152 162.354C309.152 162.208 309.193 162.083 309.273 161.978C309.361 161.872 309.474 161.804 309.61 161.771L310.056 161.674L311.84 157.111C311.888 156.989 311.965 156.896 312.069 156.831C312.173 156.767 312.286 156.734 312.406 156.734C312.535 156.734 312.647 156.767 312.744 156.831C312.84 156.896 312.913 156.997 312.961 157.135L315.359 164.138C315.367 164.154 315.383 164.203 315.407 164.284C315.431 164.356 315.443 164.433 315.443 164.514C315.443 164.668 315.387 164.805 315.275 164.927C315.162 165.04 315.018 165.097 314.841 165.097ZM313.009 161.031L312.358 159.077L311.454 161.371L313.009 161.031Z" stroke="white" stroke-width="0.6" mask="url(#path-55-outside-2_1145_25994)"/>
<path d="M316.525 165.012C316.356 165.012 316.212 164.955 316.091 164.842C315.979 164.72 315.923 164.575 315.923 164.405C315.923 164.235 315.979 164.093 316.091 163.98C316.212 163.859 316.356 163.798 316.525 163.798H317.369V158.094H316.525C316.356 158.094 316.212 158.033 316.091 157.912C315.979 157.79 315.923 157.645 315.923 157.475C315.923 157.305 315.979 157.163 316.091 157.05C316.212 156.937 316.356 156.88 316.525 156.88H319.406C319.574 156.88 319.715 156.937 319.827 157.05C319.94 157.163 319.996 157.305 319.996 157.475C319.996 157.645 319.94 157.79 319.827 157.912C319.715 158.033 319.574 158.094 319.406 158.094H318.574V163.798H319.406C319.582 163.798 319.723 163.859 319.827 163.98C319.94 164.093 319.996 164.235 319.996 164.405C319.996 164.575 319.94 164.72 319.827 164.842C319.715 164.955 319.574 165.012 319.406 165.012H316.525Z" stroke="white" stroke-width="0.6" mask="url(#path-55-outside-2_1145_25994)"/>
<path d="M321.916 165.072C321.763 165.081 321.626 165.024 321.506 164.903C321.385 164.781 321.325 164.644 321.325 164.49V157.414C321.325 157.252 321.381 157.115 321.494 157.001C321.614 156.88 321.759 156.819 321.928 156.819C322.088 156.819 322.225 156.88 322.337 157.001C322.458 157.115 322.518 157.252 322.518 157.414V163.847L325.796 163.628C325.965 163.62 326.106 163.673 326.218 163.786C326.331 163.891 326.387 164.033 326.387 164.211C326.387 164.356 326.331 164.494 326.218 164.623C326.114 164.745 325.989 164.809 325.845 164.818L321.916 165.072Z" stroke="white" stroke-width="0.6" mask="url(#path-55-outside-2_1145_25994)"/>
<path d="M286.175 217.942L286.175 217.942C286.021 217.776 285.939 217.583 285.939 217.367C285.939 217.18 285.962 216.989 286.008 216.794L288.034 207.532L288.034 207.531C288.084 207.307 288.192 207.122 288.364 206.989C288.535 206.846 288.744 206.776 288.981 206.776C289.196 206.776 289.387 206.829 289.544 206.945C289.7 207.06 289.808 207.228 289.875 207.436L289.875 207.437L292.045 214.252L294.509 207.399L294.51 207.397C294.585 207.197 294.704 207.038 294.872 206.931C295.038 206.824 295.239 206.776 295.467 206.776C295.686 206.776 295.876 206.848 296.026 206.995C296.183 207.129 296.283 207.311 296.332 207.531L286.175 217.942ZM286.175 217.942L286.179 217.947C286.354 218.122 286.586 218.203 286.857 218.203C287.091 218.203 287.299 218.141 287.471 218.008L287.471 218.009L287.476 218.004C287.645 217.861 287.754 217.674 287.804 217.448L287.804 217.448L289.122 211.425L291.076 217.543L291.076 217.544C291.144 217.751 291.252 217.919 291.408 218.035C291.564 218.15 291.755 218.203 291.971 218.203C292.171 218.203 292.357 218.152 292.523 218.05L292.523 218.05L292.53 218.046C292.698 217.929 292.815 217.773 292.88 217.579L295.219 211.14L296.611 217.464L296.611 217.464L296.612 217.466C296.662 217.679 296.763 217.858 296.918 218L296.918 218L296.923 218.005C297.088 218.142 297.299 218.203 297.542 218.203C297.805 218.203 298.033 218.12 298.216 217.95L298.216 217.951L298.22 217.947C298.399 217.767 298.493 217.55 298.493 217.301C298.493 217.206 298.461 217.026 298.408 216.779L298.407 216.778L296.332 207.531L286.175 217.942ZM300.679 217.561L300.678 217.561C299.972 217.135 299.464 216.608 299.165 215.977L299.165 215.975C299.042 215.707 298.971 215.471 298.971 215.275C298.971 215.007 299.069 214.777 299.262 214.596C299.453 214.406 299.687 214.308 299.955 214.308C300.18 214.308 300.382 214.372 300.553 214.503C300.719 214.631 300.839 214.803 300.913 215.012C301.073 215.443 301.368 215.775 301.806 216.009C302.253 216.248 302.729 216.367 303.239 216.367C303.89 216.367 304.413 216.215 304.817 215.922C305.233 215.618 305.425 215.262 305.425 214.851C305.425 214.549 305.276 214.261 304.941 213.986L304.939 213.985L304.939 213.985C304.616 213.712 304.043 213.452 303.198 213.214C302.087 212.906 301.202 212.507 300.55 212.013L300.549 212.012C299.878 211.491 299.543 210.776 299.543 209.884C299.543 209.278 299.704 208.737 300.027 208.263L300.027 208.263C300.361 207.779 300.831 207.409 301.431 207.148C302.031 206.888 302.727 206.76 303.516 206.76C304.645 206.76 305.55 206.981 306.215 207.44C306.896 207.901 307.244 208.529 307.244 209.312C307.244 209.587 307.156 209.825 306.975 210.019L306.866 209.916L306.975 210.019C306.794 210.213 306.563 210.311 306.294 210.311C306.061 210.311 305.856 210.232 305.686 210.076C305.517 209.92 305.42 209.724 305.394 209.494M300.679 217.561L304.938 208.724C304.578 208.517 304.105 208.413 303.516 208.413C302.787 208.413 302.231 208.539 301.85 208.789C301.469 209.029 301.278 209.355 301.278 209.769C301.278 210.151 301.474 210.472 301.866 210.733C302.258 210.995 302.901 211.256 303.794 211.518M300.679 217.561C301.402 217.991 302.247 218.203 303.206 218.203C303.924 218.203 304.594 218.057 305.214 217.764L305.215 217.763C305.846 217.459 306.351 217.046 306.726 216.523C307.104 215.997 307.294 215.411 307.294 214.769C307.294 213.944 306.994 213.245 306.397 212.683C305.807 212.127 304.949 211.693 303.836 211.373M300.679 217.561L305.15 217.628M305.394 209.494C305.393 209.494 305.393 209.493 305.393 209.492L305.542 209.475L305.394 209.496C305.394 209.496 305.394 209.495 305.394 209.494ZM305.394 209.494C305.358 209.252 305.198 209.036 304.866 208.855L304.863 208.854L304.863 208.854C304.534 208.664 304.089 208.563 303.516 208.563C302.8 208.563 302.278 208.687 301.932 208.914L301.93 208.916L301.93 208.916C301.588 209.131 301.428 209.412 301.428 209.769C301.428 210.088 301.588 210.367 301.949 210.609C302.322 210.857 302.946 211.113 303.836 211.373M303.836 211.373C303.836 211.373 303.836 211.373 303.836 211.373L303.794 211.518M303.836 211.373C303.836 211.374 303.836 211.374 303.836 211.374L303.794 211.518M303.794 211.518C304.894 211.833 305.728 212.258 306.294 212.792C306.86 213.326 307.144 213.985 307.144 214.769C307.144 215.379 306.964 215.934 306.604 216.435C306.245 216.936 305.76 217.334 305.15 217.628M305.15 217.628C304.551 217.911 303.903 218.053 303.206 218.053C302.269 218.053 301.452 217.846 300.755 217.432L305.15 217.628ZM278.595 217.561L278.596 217.561C279.32 217.991 280.164 218.203 281.124 218.203C281.842 218.203 282.512 218.057 283.132 217.764L283.133 217.763C283.763 217.459 284.268 217.046 284.644 216.523C285.021 215.997 285.211 215.411 285.211 214.769C285.211 213.944 284.911 213.245 284.314 212.683C283.724 212.127 282.867 211.693 281.754 211.373C280.864 211.113 280.239 210.857 279.867 210.609C279.506 210.367 279.346 210.088 279.346 209.769C279.346 209.412 279.505 209.131 279.847 208.916L279.847 208.916L279.85 208.914C280.196 208.687 280.718 208.563 281.434 208.563C282.006 208.563 282.452 208.664 282.781 208.854L282.781 208.854L282.784 208.855C283.115 209.036 283.276 209.252 283.311 209.494C283.337 209.724 283.435 209.92 283.603 210.076C283.773 210.232 283.979 210.311 284.212 210.311C284.481 210.311 284.711 210.213 284.893 210.019C285.073 209.825 285.162 209.587 285.162 209.312C285.162 208.529 284.813 207.901 284.133 207.44C283.467 206.981 282.562 206.76 281.434 206.76C280.645 206.76 279.948 206.888 279.348 207.148C278.749 207.409 278.279 207.779 277.945 208.263L277.945 208.263L277.945 208.263C277.621 208.737 277.461 209.278 277.461 209.884C277.461 210.776 277.796 211.491 278.467 212.012L278.468 212.013C279.12 212.507 280.005 212.906 281.116 213.214C281.961 213.452 282.534 213.712 282.857 213.985L282.857 213.985L282.859 213.986C283.194 214.261 283.343 214.549 283.343 214.851C283.343 215.262 283.15 215.618 282.735 215.922C282.33 216.215 281.808 216.367 281.156 216.367C280.647 216.367 280.17 216.248 279.724 216.009C279.286 215.775 278.991 215.443 278.83 215.012C278.756 214.803 278.637 214.631 278.47 214.503C278.3 214.372 278.098 214.308 277.872 214.308C277.604 214.308 277.371 214.406 277.18 214.596C276.987 214.777 276.889 215.007 276.889 215.275C276.889 215.471 276.959 215.707 277.082 215.975L277.082 215.975L277.083 215.977C277.381 216.608 277.889 217.135 278.595 217.561Z" fill="white" stroke="white" stroke-width="0.3"/>
<defs>
<linearGradient id="paint0_linear_1145_25994" x1="727394" y1="1.45525e+06" x2="-59447.9" y2="608699" gradientUnits="userSpaceOnUse">
<stop stop-color="#EBF0FF"/>
<stop offset="1" stop-color="#F2F6FF"/>
</linearGradient>
<linearGradient id="paint1_linear_1145_25994" x1="220677" y1="359696" x2="276484" y2="85656.8" gradientUnits="userSpaceOnUse">
<stop stop-color="#09005D"/>
<stop offset="1" stop-color="#1A0F91"/>
</linearGradient>
<linearGradient id="paint2_linear_1145_25994" x1="579.219" y1="20342.9" x2="585.43" y2="20342.9" gradientUnits="userSpaceOnUse">
<stop stop-color="#DAE3FE"/>
<stop offset="1" stop-color="#E9EFFD"/>
</linearGradient>
<linearGradient id="paint3_linear_1145_25994" x1="48463.6" y1="62656.4" x2="112490" y2="62656.4" gradientUnits="userSpaceOnUse">
<stop stop-color="#DAE3FE"/>
<stop offset="1" stop-color="#E9EFFD"/>
</linearGradient>
<linearGradient id="paint4_linear_1145_25994" x1="737229" y1="35348.5" x2="707638" y2="172390" gradientUnits="userSpaceOnUse">
<stop stop-color="#09005D"/>
<stop offset="1" stop-color="#1A0F91"/>
</linearGradient>
<linearGradient id="paint5_linear_1145_25994" x1="115.75" y1="113.814" x2="292.951" y2="113.814" gradientUnits="userSpaceOnUse">
<stop offset="0.390625" stop-color="#F7751E"/>
<stop offset="1" stop-color="#F2480C"/>
</linearGradient>
<linearGradient id="paint6_linear_1145_25994" x1="112.625" y1="206.082" x2="300.023" y2="206.082" gradientUnits="userSpaceOnUse">
<stop offset="0.333333" stop-color="#FF8534"/>
<stop offset="1" stop-color="#FF630C"/>
</linearGradient>
<linearGradient id="paint7_linear_1145_25994" x1="116.258" y1="176.281" x2="293.422" y2="176.281" gradientUnits="userSpaceOnUse">
<stop offset="0.390625" stop-color="#F7751E"/>
<stop offset="1" stop-color="#F2480C"/>
</linearGradient>
<linearGradient id="paint8_linear_1145_25994" x1="139.148" y1="161.304" x2="269.376" y2="161.304" gradientUnits="userSpaceOnUse">
<stop offset="0.390625" stop-color="#3D8BFD"/>
<stop offset="1" stop-color="#1273FF"/>
</linearGradient>
<linearGradient id="paint9_linear_1145_25994" x1="67487.3" y1="83061.2" x2="74282.6" y2="103187" gradientUnits="userSpaceOnUse">
<stop stop-color="#09005D"/>
<stop offset="1" stop-color="#1A0F91"/>
</linearGradient>
<linearGradient id="paint10_linear_1145_25994" x1="216.186" y1="135.035" x2="216.186" y2="215.35" gradientUnits="userSpaceOnUse">
<stop offset="0.275742" stop-color="#0380DC"/>
<stop offset="1" stop-color="#0061D3"/>
</linearGradient>
<linearGradient id="paint11_linear_1145_25994" x1="260.337" y1="136.549" x2="260.337" y2="213.978" gradientUnits="userSpaceOnUse">
<stop offset="0.275742" stop-color="#0380DC"/>
<stop offset="1" stop-color="#0061D3"/>
</linearGradient>
<linearGradient id="paint12_linear_1145_25994" x1="66360.6" y1="43863.9" x2="49810.3" y2="43844.5" gradientUnits="userSpaceOnUse">
<stop stop-color="#09005D"/>
<stop offset="1" stop-color="#1A0F91"/>
</linearGradient>
<linearGradient id="paint13_linear_1145_25994" x1="53781.1" y1="39894.5" x2="50092.8" y2="43248.5" gradientUnits="userSpaceOnUse">
<stop stop-color="#09005D"/>
<stop offset="1" stop-color="#1A0F91"/>
</linearGradient>
<linearGradient id="paint14_linear_1145_25994" x1="287.586" y1="160.796" x2="331.647" y2="160.796" gradientUnits="userSpaceOnUse">
<stop offset="0.390625" stop-color="#3D8BFD"/>
<stop offset="1" stop-color="#1273FF"/>
</linearGradient>
<linearGradient id="paint15_linear_1145_25994" x1="289.266" y1="160.844" x2="329.234" y2="160.844" gradientUnits="userSpaceOnUse">
<stop offset="0.390625" stop-color="#3D8BFD"/>
<stop offset="1" stop-color="#1273FF"/>
</linearGradient>
<linearGradient id="paint16_linear_1145_25994" x1="22926.3" y1="11497.7" x2="23504.1" y2="11497.7" gradientUnits="userSpaceOnUse">
<stop stop-color="#DAE3FE"/>
<stop offset="1" stop-color="#E9EFFD"/>
</linearGradient>
<linearGradient id="paint17_linear_1145_25994" x1="55134.7" y1="4679.73" x2="59153.8" y2="4679.73" gradientUnits="userSpaceOnUse">
<stop stop-color="#DAE3FE"/>
<stop offset="1" stop-color="#E9EFFD"/>
</linearGradient>
<linearGradient id="paint18_linear_1145_25994" x1="22213.6" y1="36898.9" x2="22906.9" y2="36898.9" gradientUnits="userSpaceOnUse">
<stop stop-color="#DAE3FE"/>
<stop offset="1" stop-color="#E9EFFD"/>
</linearGradient>
<linearGradient id="paint19_linear_1145_25994" x1="270.75" y1="212.119" x2="314.811" y2="212.119" gradientUnits="userSpaceOnUse">
<stop offset="0.390625" stop-color="#3D8BFD"/>
<stop offset="1" stop-color="#1273FF"/>
</linearGradient>
<linearGradient id="paint20_linear_1145_25994" x1="272.469" y1="212.168" x2="312.428" y2="212.168" gradientUnits="userSpaceOnUse">
<stop offset="0.390625" stop-color="#3D8BFD"/>
<stop offset="1" stop-color="#1273FF"/>
</linearGradient>
<linearGradient id="paint21_linear_1145_25994" x1="21551.1" y1="16760.6" x2="22129.3" y2="16760.6" gradientUnits="userSpaceOnUse">
<stop stop-color="#DAE3FE"/>
<stop offset="1" stop-color="#E9EFFD"/>
</linearGradient>
<linearGradient id="paint22_linear_1145_25994" x1="51566.7" y1="6891.58" x2="55587.7" y2="6891.58" gradientUnits="userSpaceOnUse">
<stop stop-color="#DAE3FE"/>
<stop offset="1" stop-color="#E9EFFD"/>
</linearGradient>
<linearGradient id="paint23_linear_1145_25994" x1="20732.3" y1="53351.6" x2="21426" y2="53351.6" gradientUnits="userSpaceOnUse">
<stop stop-color="#DAE3FE"/>
<stop offset="1" stop-color="#E9EFFD"/>
</linearGradient>
<linearGradient id="paint24_linear_1145_25994" x1="274.5" y1="111.117" x2="316.938" y2="111.117" gradientUnits="userSpaceOnUse">
<stop offset="0.390625" stop-color="#3D8BFD"/>
<stop offset="1" stop-color="#1273FF"/>
</linearGradient>
<linearGradient id="paint25_linear_1145_25994" x1="276.141" y1="111.159" x2="314.63" y2="111.159" gradientUnits="userSpaceOnUse">
<stop offset="0.390625" stop-color="#3D8BFD"/>
<stop offset="1" stop-color="#1273FF"/>
</linearGradient>
<linearGradient id="paint26_linear_1145_25994" x1="21067.1" y1="6254.41" x2="21608.6" y2="6254.41" gradientUnits="userSpaceOnUse">
<stop stop-color="#DAE3FE"/>
<stop offset="1" stop-color="#E9EFFD"/>
</linearGradient>
<linearGradient id="paint27_linear_1145_25994" x1="50440.1" y1="2504.57" x2="54181.7" y2="2504.57" gradientUnits="userSpaceOnUse">
<stop stop-color="#DAE3FE"/>
<stop offset="1" stop-color="#E9EFFD"/>
</linearGradient>
<linearGradient id="paint28_linear_1145_25994" x1="20385.3" y1="20385.9" x2="21035" y2="20385.9" gradientUnits="userSpaceOnUse">
<stop stop-color="#DAE3FE"/>
<stop offset="1" stop-color="#E9EFFD"/>
</linearGradient>
<radialGradient id="paint29_radial_1145_25994" cx="0" cy="0" r="1" gradientUnits="userSpaceOnUse" gradientTransform="translate(90.4871 298.479) rotate(85.7439) scale(8.65024)">
<stop stop-color="#F5B900"/>
<stop offset="1" stop-color="#FEB700"/>
</radialGradient>
<radialGradient id="paint30_radial_1145_25994" cx="0" cy="0" r="1" gradientUnits="userSpaceOnUse" gradientTransform="translate(86.6275 246.495) rotate(85.7439) scale(4.90351 4.90209)">
<stop stop-color="#F5B900"/>
<stop offset="1" stop-color="#FEB700"/>
</radialGradient>
<linearGradient id="paint31_linear_1145_25994" x1="68.8857" y1="276.61" x2="111.116" y2="272.847" gradientUnits="userSpaceOnUse">
<stop offset="0.385417" stop-color="#FFC514"/>
<stop offset="1" stop-color="#FFB800"/>
</linearGradient>
</defs>
</svg>
