<svg width="500" height="250" viewBox="0 0 500 250" fill="none" xmlns="http://www.w3.org/2000/svg">
<path d="M212.221 14.1392C251.962 -0.7504 309.693 0.813467 329.695 31.8805C338.92 46.205 329.196 49.819 339.065 82.0425C349.894 117.433 366.006 127.342 369.068 160.683C370.027 171.157 370.815 179.686 368.029 188.517C352.706 237.194 236.993 270.587 173.781 218.9C154.739 203.327 135.158 175.612 131.202 140.457C128.114 113.057 135.789 91.0314 140.967 79.5193C159.93 37.4132 196.964 19.869 212.221 14.1392Z" fill="#F0F6FF"/>
<path d="M368.071 203.17L366.113 204.839C365.009 205.772 363.538 206.153 362.118 205.851L150.418 161.09L149.446 25.2307C149.419 22.1687 151.023 19.3169 153.651 17.7399C155.517 16.6229 157.738 16.2417 159.867 16.6886L367.059 59.9117C369.149 60.3585 370.634 62.1852 370.634 64.3273V197.598C370.634 199.74 369.701 201.777 368.071 203.17Z" fill="url(#paint0_linear_2448_11333)"/>
<path d="M362.046 205.39L149.859 161.129V24.1659C149.859 22.4443 151.45 21.1433 153.145 21.4981L360.364 64.7344C362.453 65.168 363.951 67.0079 363.951 69.1369V203.84C363.951 204.851 363.018 205.601 362.046 205.39Z" fill="white"/>
<path fill-rule="evenodd" clip-rule="evenodd" d="M362.349 205.864C362.218 205.864 362.082 205.851 361.942 205.824L149.414 161.484V24.1662C149.414 23.2069 149.835 22.3132 150.584 21.7087C151.32 21.1174 152.292 20.8808 153.225 21.0779L360.444 64.3011C362.717 64.7742 364.373 66.8111 364.373 69.1372V203.84C364.373 204.458 364.097 205.023 363.624 205.404C363.256 205.706 362.809 205.864 362.349 205.864ZM150.281 160.774L362.113 204.97C362.455 205.036 362.809 204.957 363.072 204.734C363.348 204.51 363.506 204.195 363.506 203.84V69.1372C363.506 67.2185 362.139 65.5495 360.26 65.1553L153.041 21.919C152.371 21.7876 151.674 21.9584 151.136 22.3921C150.597 22.8258 150.281 23.4697 150.281 24.1662V160.774Z" fill="black"/>
<path d="M348.65 189.595L291.838 178.49C289.88 178.109 288.474 176.387 288.5 174.403L288.987 130.983C289.013 128.407 291.378 126.488 293.902 126.988L350.726 138.092C352.671 138.473 354.078 140.195 354.051 142.179L353.565 185.6C353.539 188.175 351.186 190.094 348.65 189.595Z" fill="white"/>
<path fill-rule="evenodd" clip-rule="evenodd" d="M349.44 190.107C349.151 190.107 348.857 190.081 348.56 190.028L291.735 178.924C289.579 178.503 288.029 176.598 288.055 174.403L288.541 130.983C288.554 129.629 289.172 128.354 290.223 127.5C291.275 126.646 292.641 126.304 293.969 126.554L350.794 137.659C352.949 138.079 354.5 139.985 354.473 142.179L353.987 185.6C353.974 186.953 353.369 188.228 352.318 189.082C351.49 189.753 350.478 190.107 349.44 190.107ZM293.101 127.342C292.26 127.342 291.432 127.632 290.775 128.17C289.921 128.867 289.422 129.892 289.409 130.996L288.922 174.403C288.909 176.19 290.158 177.728 291.906 178.07L348.73 189.174C349.808 189.385 350.912 189.109 351.766 188.412C352.62 187.716 353.107 186.69 353.12 185.587L353.606 142.179C353.632 140.392 352.371 138.855 350.623 138.513L293.811 127.408C293.575 127.364 293.338 127.342 293.101 127.342Z" fill="black"/>
<path d="M347.369 146.345C347.299 146.345 347.233 146.341 347.172 146.332L295.367 136.502C294.815 136.397 294.46 135.858 294.565 135.306C294.67 134.754 295.196 134.4 295.748 134.505L347.553 144.335C348.105 144.44 348.46 144.966 348.354 145.518C348.262 146.004 347.842 146.345 347.369 146.345Z" fill="#CADDFF"/>
<path d="M347.373 153.298C347.303 153.298 347.237 153.293 347.176 153.285L337.622 151.471C337.07 151.366 336.702 150.84 336.807 150.288C336.912 149.736 337.451 149.368 338.003 149.474L347.557 151.287C348.109 151.392 348.464 151.931 348.359 152.483C348.267 152.969 347.846 153.298 347.373 153.298Z" fill="url(#paint1_linear_2448_11333)"/>
<path d="M329.627 149.973C329.557 149.973 329.492 149.964 329.43 149.947L295.367 143.455C294.815 143.35 294.46 142.824 294.565 142.272C294.67 141.72 295.196 141.352 295.748 141.457L329.811 147.963C330.363 148.068 330.718 148.593 330.613 149.145C330.521 149.632 330.101 149.973 329.627 149.973Z" fill="#CADDFF"/>
<path d="M347.369 160.262C347.299 160.262 347.233 160.258 347.172 160.249L295.367 150.406C294.815 150.301 294.46 149.775 294.565 149.223C294.67 148.671 295.196 148.316 295.748 148.421L347.553 158.251C348.105 158.356 348.46 158.882 348.354 159.434C348.262 159.92 347.842 160.262 347.369 160.262Z" fill="#CADDFF"/>
<path d="M347.367 167.215C347.297 167.215 347.231 167.21 347.17 167.202L316.773 161.432C316.221 161.327 315.866 160.802 315.972 160.25C316.064 159.698 316.602 159.33 317.154 159.435L347.551 165.204C348.103 165.309 348.458 165.848 348.353 166.387C348.261 166.886 347.84 167.215 347.367 167.215Z" fill="#CADDFF"/>
<path d="M308.417 159.829C308.355 159.829 308.29 159.825 308.22 159.816L295.367 157.371C294.815 157.266 294.46 156.728 294.565 156.189C294.67 155.637 295.196 155.269 295.748 155.374L308.601 157.818C309.153 157.923 309.521 158.449 309.415 159.001C309.323 159.487 308.89 159.829 308.417 159.829Z" fill="url(#paint2_linear_2448_11333)"/>
<path d="M347.365 174.18C347.304 174.18 347.243 174.175 347.181 174.166L338.731 172.642C338.179 172.537 337.811 172.011 337.916 171.459C338.008 170.907 338.547 170.539 339.086 170.644L347.536 172.156C348.088 172.261 348.456 172.787 348.351 173.338C348.272 173.838 347.838 174.18 347.365 174.18Z" fill="url(#paint3_linear_2448_11333)"/>
<path d="M332.939 171.446C332.878 171.446 332.816 171.438 332.755 171.42L295.367 164.324C294.815 164.218 294.46 163.693 294.565 163.141C294.67 162.589 295.196 162.234 295.748 162.326L333.123 169.423C333.675 169.528 334.043 170.066 333.938 170.618C333.846 171.105 333.412 171.446 332.939 171.446Z" fill="#CADDFF"/>
<path d="M347.369 181.132C347.299 181.132 347.233 181.128 347.172 181.119L295.367 171.289C294.815 171.184 294.46 170.645 294.565 170.093C294.67 169.541 295.196 169.186 295.748 169.291L347.553 179.121C348.105 179.227 348.46 179.752 348.354 180.304C348.262 180.79 347.842 181.132 347.369 181.132Z" fill="#CADDFF"/>
<path d="M349.182 130.22L268.294 114.121C266.323 113.727 264.891 111.992 264.891 109.982V59.938C264.891 57.2834 267.335 55.2858 269.937 55.7984L350.824 71.9101C352.796 72.3044 354.215 74.0259 354.215 76.0497V126.08C354.215 128.748 351.784 130.746 349.182 130.22Z" fill="white"/>
<path d="M272.935 115.475C272.909 115.475 272.882 115.475 272.856 115.475L268.191 114.542C266.022 114.109 264.445 112.19 264.445 109.982V103.7C264.445 103.464 264.642 103.267 264.879 103.267C265.129 103.267 265.326 103.464 265.326 103.7V109.982C265.326 111.782 266.601 113.333 268.362 113.688L273.014 114.621C273.25 114.66 273.408 114.897 273.355 115.134C273.316 115.331 273.145 115.475 272.935 115.475Z" fill="black"/>
<path d="M349.998 130.732C349.691 130.741 349.385 130.715 349.078 130.654L281.175 117.131C280.938 117.078 280.78 116.855 280.833 116.618C280.886 116.382 281.109 116.224 281.346 116.277L349.249 129.799C350.366 130.023 351.509 129.734 352.39 129.011C353.27 128.288 353.77 127.224 353.77 126.08V76.0498C353.77 74.2493 352.495 72.6855 350.721 72.3306L269.847 56.232C268.73 56.0086 267.586 56.2977 266.706 57.0074C265.825 57.7302 265.326 58.7947 265.326 59.938V76.2732C265.326 76.5097 265.129 76.7068 264.879 76.7068C264.642 76.7068 264.445 76.5097 264.445 76.2732V59.938C264.445 58.545 265.076 57.2308 266.154 56.3372C267.231 55.4567 268.638 55.1018 270.017 55.3778L350.892 71.4764C353.06 71.9101 354.637 73.8288 354.637 76.0498V126.08C354.637 127.486 354.019 128.801 352.942 129.681C352.101 130.378 351.062 130.732 349.998 130.732Z" fill="black"/>
<path d="M274.244 110.244L270.63 109.508C269.999 109.376 269.539 108.824 269.539 108.167V103.817C269.539 102.963 270.314 102.319 271.142 102.477L274.822 103.16C275.479 103.292 275.939 103.857 275.939 104.527L275.873 108.93C275.86 109.771 275.085 110.415 274.244 110.244Z" fill="#CADDFF"/>
<path d="M284.784 112.307L281.104 111.571C280.46 111.453 280 110.888 280 110.244V95.4462C280 94.592 280.789 93.9481 281.63 94.1189L285.322 94.8549C285.953 94.9863 286.413 95.5382 286.413 96.1822V110.98C286.413 111.834 285.625 112.478 284.784 112.307Z" fill="#CADDFF"/>
<path d="M295.252 114.41L291.56 113.674C290.929 113.556 290.469 112.991 290.469 112.347V98.0093C290.469 97.1419 291.257 96.498 292.111 96.6819L295.791 97.4573C296.422 97.5887 296.882 98.1407 296.882 98.7846V113.07C296.882 113.924 296.093 114.568 295.252 114.41Z" fill="#CADDFF"/>
<path d="M305.682 116.434L302.041 115.751C301.397 115.619 300.938 115.067 300.938 114.41V89.1255C300.938 88.2713 301.713 87.6274 302.554 87.7851L306.247 88.5079C306.891 88.6262 307.351 89.1913 307.351 89.8483L307.298 115.094C307.298 115.948 306.523 116.592 305.682 116.434Z" fill="#CADDFF"/>
<path d="M316.187 118.576L312.495 117.866C311.864 117.748 311.391 117.183 311.391 116.526V94.5C311.391 93.6326 312.179 92.9887 313.033 93.1727L316.726 93.9217C317.357 94.0532 317.804 94.6051 317.804 95.2491V117.248C317.804 118.103 317.028 118.746 316.187 118.576Z" fill="#CADDFF"/>
<path d="M326.651 120.626L322.958 119.903C322.327 119.772 321.867 119.22 321.867 118.563V98.5218C321.867 97.6545 322.656 97.0106 323.497 97.1814L327.19 97.9305C327.82 98.0619 328.28 98.6138 328.28 99.2578V119.299C328.28 120.153 327.492 120.797 326.651 120.626Z" fill="#CADDFF"/>
<path d="M337.125 122.702L333.432 121.993C332.788 121.861 332.328 121.309 332.328 120.652V85.8661C332.328 84.9987 333.117 84.3548 333.958 84.5256L337.651 85.2616C338.281 85.393 338.741 85.9449 338.741 86.602V121.362C338.741 122.216 337.966 122.86 337.125 122.702Z" fill="#CADDFF"/>
<path d="M347.586 124.779L343.893 124.043C343.249 123.912 342.789 123.36 342.789 122.703V96.0907C342.789 95.2233 343.578 94.5794 344.432 94.7502L348.111 95.4993C348.755 95.6307 349.202 96.1827 349.202 96.8398V123.439C349.202 124.293 348.427 124.937 347.586 124.779Z" fill="#CADDFF"/>
<path d="M271.272 93.292C271.153 93.292 271.048 93.2526 270.956 93.1737C270.785 93.0029 270.785 92.7269 270.956 92.5561L284.466 79.0464L294.086 88.6661L307.083 75.6689L321.407 90.0066L335.18 76.234L347.862 88.9552C348.032 89.1261 348.032 89.402 347.862 89.5729C347.691 89.7437 347.415 89.7437 347.244 89.5729L335.18 77.4694L321.407 91.2287L307.083 76.9043L294.086 89.9014L284.466 80.2817L271.574 93.1737C271.495 93.2526 271.377 93.292 271.272 93.292Z" fill="black"/>
<path d="M275.396 92.8974C275.396 95.0264 273.675 96.7479 271.546 96.7479C269.417 96.7479 267.695 95.0264 267.695 92.8974C267.695 90.7684 269.417 89.0469 271.546 89.0469C273.675 89.0469 275.396 90.7684 275.396 92.8974Z" fill="#99B9FF"/>
<path fill-rule="evenodd" clip-rule="evenodd" d="M271.534 97.1948C269.169 97.1948 267.25 95.263 267.25 92.8975C267.25 90.532 269.169 88.6133 271.534 88.6133C273.9 88.6133 275.818 90.532 275.818 92.8975C275.818 95.263 273.9 97.1948 271.534 97.1948ZM271.534 89.4806C269.642 89.4806 268.117 91.0182 268.117 92.8975C268.117 94.7899 269.642 96.3143 271.534 96.3143C273.413 96.3143 274.951 94.7899 274.951 92.8975C274.951 91.0182 273.413 89.4806 271.534 89.4806Z" fill="black"/>
<path d="M298.128 89.1386C298.128 91.2676 296.394 93.0023 294.265 93.0023C292.149 93.0023 290.414 91.2676 290.414 89.1386C290.414 87.0228 292.149 85.2881 294.265 85.2881C296.394 85.2881 298.128 87.0228 298.128 89.1386Z" fill="#99B9FF"/>
<path fill-rule="evenodd" clip-rule="evenodd" d="M294.253 93.436C291.901 93.436 289.969 91.5042 289.969 89.1518C289.969 86.7863 291.901 84.8545 294.253 84.8545C296.618 84.8545 298.55 86.7863 298.55 89.1518C298.55 91.5042 296.618 93.436 294.253 93.436ZM294.253 85.735C292.374 85.735 290.849 87.2594 290.849 89.1518C290.849 91.0311 292.374 92.5555 294.253 92.5555C296.145 92.5555 297.67 91.0311 297.67 89.1518C297.67 87.2594 296.145 85.735 294.253 85.735Z" fill="black"/>
<path d="M287.92 80.0712C287.92 82.2002 286.185 83.9218 284.069 83.9218C281.94 83.9218 280.219 82.2002 280.219 80.0712C280.219 77.9554 281.94 76.2207 284.069 76.2207C286.185 76.2207 287.92 77.9554 287.92 80.0712Z" fill="url(#paint4_linear_2448_11333)"/>
<path fill-rule="evenodd" clip-rule="evenodd" d="M284.063 84.3687C281.697 84.3687 279.766 82.4368 279.766 80.0713C279.766 77.7058 281.697 75.7871 284.063 75.7871C286.415 75.7871 288.347 77.7058 288.347 80.0713C288.347 82.4368 286.415 84.3687 284.063 84.3687ZM284.063 76.6545C282.171 76.6545 280.646 78.192 280.646 80.0713C280.646 81.9637 282.171 83.4882 284.063 83.4882C285.942 83.4882 287.48 81.9637 287.48 80.0713C287.48 78.192 285.942 76.6545 284.063 76.6545Z" fill="black"/>
<path d="M323.484 90.8342C323.484 91.9775 322.551 92.9106 321.394 92.9106C320.238 92.9106 319.305 91.9775 319.305 90.8342C319.305 89.6777 320.238 88.7446 321.394 88.7446C322.551 88.7446 323.484 89.6777 323.484 90.8342Z" fill="#99B9FF"/>
<path fill-rule="evenodd" clip-rule="evenodd" d="M321.383 93.3443C319.99 93.3443 318.859 92.2141 318.859 90.8342C318.859 89.4412 319.99 88.311 321.383 88.311C322.776 88.311 323.906 89.4412 323.906 90.8342C323.906 92.2141 322.776 93.3443 321.383 93.3443ZM321.383 89.1784C320.476 89.1784 319.727 89.9143 319.727 90.8342C319.727 91.741 320.476 92.477 321.383 92.477C322.289 92.477 323.025 91.741 323.025 90.8342C323.025 89.9143 322.289 89.1784 321.383 89.1784Z" fill="black"/>
<path d="M309.213 76.155C309.213 77.3115 308.28 78.2445 307.123 78.2445C305.98 78.2445 305.047 77.3115 305.047 76.155C305.047 75.0117 305.98 74.0786 307.123 74.0786C308.28 74.0786 309.213 75.0117 309.213 76.155Z" fill="url(#paint5_linear_2448_11333)"/>
<path fill-rule="evenodd" clip-rule="evenodd" d="M307.117 78.6783C305.724 78.6783 304.594 77.5481 304.594 76.155C304.594 74.7752 305.724 73.6318 307.117 73.6318C308.51 73.6318 309.64 74.7752 309.64 76.155C309.64 77.5481 308.51 78.6783 307.117 78.6783ZM307.117 74.5123C306.21 74.5123 305.474 75.2483 305.474 76.155C305.474 77.075 306.21 77.8109 307.117 77.8109C308.024 77.8109 308.773 77.075 308.773 76.155C308.773 75.2483 308.024 74.5123 307.117 74.5123Z" fill="black"/>
<path d="M349.507 89.0212C349.507 90.1776 348.574 91.1107 347.418 91.1107C346.274 91.1107 345.328 90.1776 345.328 89.0212C345.328 87.8647 346.274 86.9316 347.418 86.9316C348.574 86.9316 349.507 87.8647 349.507 89.0212Z" fill="#99B9FF"/>
<path fill-rule="evenodd" clip-rule="evenodd" d="M347.406 91.5445C346.013 91.5445 344.883 90.4143 344.883 89.0213C344.883 87.6282 346.013 86.498 347.406 86.498C348.799 86.498 349.929 87.6282 349.929 89.0213C349.929 90.4143 348.799 91.5445 347.406 91.5445ZM347.406 87.3654C346.499 87.3654 345.763 88.1145 345.763 89.0213C345.763 89.928 346.499 90.664 347.406 90.664C348.313 90.664 349.062 89.928 349.062 89.0213C349.062 88.1145 348.313 87.3654 347.406 87.3654Z" fill="black"/>
<path d="M337.351 76.7595C337.351 77.9159 336.418 78.849 335.261 78.849C334.105 78.849 333.172 77.9159 333.172 76.7595C333.172 75.6161 334.105 74.6699 335.261 74.6699C336.418 74.6699 337.351 75.6161 337.351 76.7595Z" fill="url(#paint6_linear_2448_11333)"/>
<path fill-rule="evenodd" clip-rule="evenodd" d="M335.25 79.2828C333.857 79.2828 332.727 78.1526 332.727 76.7595C332.727 75.3665 333.857 74.2363 335.25 74.2363C336.643 74.2363 337.773 75.3665 337.773 76.7595C337.773 78.1526 336.643 79.2828 335.25 79.2828ZM335.25 75.1168C334.343 75.1168 333.594 75.8528 333.594 76.7595C333.594 77.6663 334.343 78.4154 335.25 78.4154C336.157 78.4154 336.906 77.6663 336.906 76.7595C336.906 75.8528 336.157 75.1168 335.25 75.1168Z" fill="black"/>
<path d="M227.63 102.636L197.943 96.3939C195.643 95.9076 194 93.8707 194 91.5314V71.1092C194 67.942 196.904 65.5897 199.993 66.2336L229.68 72.4759C231.98 72.9622 233.622 74.9992 233.622 77.3515V97.7738C233.622 100.928 230.718 103.28 227.63 102.636Z" fill="white"/>
<path d="M194.047 91.8076V87.2343L203.535 77.7591C204.429 76.8655 205.888 76.8655 206.794 77.7591L213.286 84.2642C214.154 85.1185 215.534 85.1579 216.454 84.3431L217.045 83.8174C217.952 83.0026 219.345 83.0421 220.212 83.9094L233.485 97.314V98.2865C233.472 101.191 230.791 103.359 227.939 102.755L197.674 96.2889C195.558 95.8421 194.047 93.9628 194.047 91.8076Z" fill="url(#paint7_linear_2448_11333)"/>
<path fill-rule="evenodd" clip-rule="evenodd" d="M228.656 103.175C228.28 103.175 227.907 103.135 227.539 103.056L197.852 96.8142C195.355 96.2885 193.555 94.0676 193.555 91.5312V71.109C193.555 69.4662 194.277 67.9418 195.552 66.9036C196.827 65.8785 198.47 65.4712 200.073 65.8128L229.76 72.0552C232.244 72.5808 234.044 74.8018 234.044 77.3513V97.7735C234.044 99.4031 233.322 100.928 232.047 101.966C231.074 102.754 229.878 103.175 228.656 103.175ZM227.71 102.202C229.05 102.491 230.444 102.15 231.508 101.282C232.572 100.428 233.177 99.1403 233.177 97.7735V77.3513C233.177 75.2092 231.666 73.343 229.576 72.9094L199.889 66.667C198.549 66.3779 197.169 66.7196 196.104 67.587C195.04 68.4412 194.422 69.7291 194.422 71.109V91.5312C194.422 93.6602 195.933 95.5263 198.023 95.96L227.71 102.202Z" fill="black"/>
<path d="M228.868 79.3621C228.868 81.3334 227.265 82.9236 225.293 82.9236C223.322 82.9236 221.719 81.3334 221.719 79.3621C221.719 77.3909 223.322 75.7876 225.293 75.7876C227.265 75.7876 228.868 77.3909 228.868 79.3621Z" fill="#99B9FF"/>
<path d="M248.165 69.0064L141.954 47.4014C140.246 47.0466 139.023 45.5484 139.023 43.8137V33.2083C139.023 30.8822 141.139 29.1475 143.413 29.6206L249.624 51.2125C251.319 51.5673 252.555 53.0655 252.555 54.8002V65.4056C252.555 67.7316 250.426 69.4664 248.165 69.0064Z" fill="white"/>
<path fill-rule="evenodd" clip-rule="evenodd" d="M248.895 69.5058C248.615 69.5058 248.339 69.4795 248.067 69.4269L141.856 47.8219C139.95 47.4408 138.57 45.7455 138.57 43.8137V33.2083C138.57 31.973 139.122 30.8165 140.082 30.028C141.041 29.2527 142.276 28.9373 143.485 29.1869L249.697 50.7919C251.602 51.1731 252.982 52.8683 252.982 54.8002V65.4055C252.982 66.6409 252.43 67.7973 251.471 68.5858C250.735 69.1904 249.828 69.5058 248.895 69.5058ZM248.238 68.5727C249.197 68.7698 250.17 68.5201 250.919 67.9156C251.681 67.298 252.115 66.378 252.115 65.4055V54.8002C252.115 53.2757 251.024 51.9484 249.526 51.6462L143.314 30.0412C142.368 29.844 141.383 30.0937 140.634 30.6982C139.884 31.3159 139.451 32.2358 139.451 33.2083V43.8137C139.451 45.3381 140.528 46.6654 142.027 46.9677L248.238 68.5727Z" fill="black"/>
<path d="M234.725 60.7263L191.817 51.9739C190.266 51.6585 189.136 50.2918 189.11 48.7016C189.071 46.5332 191.055 44.8905 193.171 45.3242L236.092 54.0897C237.642 54.4051 238.773 55.7587 238.799 57.362C238.825 59.5304 236.854 61.16 234.725 60.7263Z" fill="#CADDFF"/>
<path d="M179.645 49.4638L162.731 45.9813C161.167 45.6527 160.05 44.2991 160.024 42.709V42.6958C159.985 40.5406 161.969 38.8979 164.085 39.3315L180.998 42.8141C182.549 43.1295 183.679 44.4962 183.705 46.0864C183.732 48.2548 181.76 49.8975 179.645 49.4638Z" fill="#99B9FF"/>
<path fill-rule="evenodd" clip-rule="evenodd" d="M152.476 41.8949C150.899 43.4588 148.428 43.5902 146.707 42.2629L144.079 44.8912C143.855 45.1146 143.5 45.1146 143.277 44.8912C143.054 44.6678 143.054 44.313 143.277 44.0896L145.905 41.4612C144.591 39.7397 144.723 37.269 146.286 35.7051C147.995 33.9967 150.768 33.9967 152.476 35.7051C154.185 37.4136 154.185 40.1865 152.476 41.8949ZM151.701 36.4674C150.426 35.1926 148.336 35.1926 147.062 36.4674C145.774 37.7553 145.774 39.8316 147.062 41.1195C148.336 42.4074 150.426 42.4074 151.701 41.1195C152.989 39.8316 152.989 37.7553 151.701 36.4674Z" fill="url(#paint8_linear_2448_11333)"/>
<path fill-rule="evenodd" clip-rule="evenodd" d="M270.02 73.9472L270.033 73.9341C279.048 66.8638 292.151 68.5591 299.05 77.7846C305.45 86.3399 304.123 98.5617 296.014 105.514C291.178 109.666 285.041 111.151 279.285 110.192L276.906 118.721C276.735 119.326 276.078 119.68 275.461 119.47C274.896 119.286 274.593 118.629 274.764 118.051L277.103 109.693C273.082 108.563 269.363 106.197 266.577 102.649C260.545 94.974 260.886 84.3292 266.84 77.075C267.76 75.8922 268.824 74.8409 270.02 73.9472ZM300.312 88.022L300.299 87.8906C299.904 84.592 298.577 81.3592 296.264 78.5994C290.285 71.4766 279.653 70.2018 272.162 75.7082C263.883 81.7928 262.463 93.581 269.087 101.453C275.04 108.536 285.58 109.837 293.071 104.41C296.869 101.663 299.234 97.7206 300.075 93.5021C300.456 91.7017 300.535 89.8487 300.312 88.022Z" fill="white"/>
<path fill-rule="evenodd" clip-rule="evenodd" d="M275.817 119.97C275.677 119.97 275.537 119.952 275.396 119.917C274.568 119.681 274.082 118.826 274.319 117.999L276.553 109.995C272.453 108.747 268.891 106.302 266.223 102.925C263.28 99.1664 261.69 94.4617 261.768 89.6913C261.847 84.9865 263.516 80.4132 266.486 76.7992C266.644 76.6152 266.907 76.5758 267.104 76.7335C267.288 76.8912 267.314 77.1672 267.157 77.3512C261.269 84.5397 261.164 95.0662 266.92 102.386C269.548 105.737 273.11 108.129 277.21 109.272L277.617 109.391L275.16 118.235C275.055 118.59 275.265 118.971 275.633 119.076C276.001 119.181 276.369 118.958 276.474 118.603L278.958 109.693L279.352 109.759C284.898 110.692 290.601 109.233 295.017 105.764C299.222 102.465 301.89 97.7209 302.521 92.4116C303.165 87.1023 301.693 81.8588 298.394 77.6534C295.096 73.4481 290.352 70.7935 285.042 70.1495C279.733 69.5187 274.49 70.9774 270.284 74.276C270.1 74.4337 269.824 74.3943 269.68 74.2103C269.535 74.0263 269.561 73.7504 269.759 73.5927C274.135 70.1495 279.602 68.6251 285.148 69.2822C290.68 69.9524 295.635 72.7384 299.078 77.1146C302.521 81.504 304.058 86.9709 303.388 92.5167C302.731 98.0494 299.945 103.004 295.556 106.447C291.048 109.982 285.253 111.52 279.589 110.679L277.315 118.826C277.118 119.523 276.5 119.97 275.817 119.97ZM282.69 108.221C281.954 108.221 281.218 108.173 280.482 108.077C275.659 107.498 271.349 105.08 268.352 101.256C265.343 97.4317 264.016 92.6744 264.594 87.8514C265.172 83.0284 267.59 78.7179 271.414 75.7216C275.239 72.7122 279.996 71.3848 284.819 71.9631C289.642 72.5413 293.953 74.9594 296.962 78.7836C299.025 81.412 300.326 84.5397 300.721 87.8383C300.747 88.0748 300.576 88.2982 300.339 88.3245C300.103 88.364 299.879 88.18 299.853 87.9434C299.472 84.8025 298.237 81.8194 296.279 79.3224C293.414 75.6822 289.313 73.3824 284.714 72.8304C280.127 72.2785 275.594 73.5401 271.953 76.405C268.313 79.2567 266.013 83.357 265.461 87.9566C264.909 92.5562 266.171 97.0769 269.036 100.717C271.888 104.357 276.001 106.67 280.587 107.222C285.187 107.774 289.721 106.5 293.348 103.648C296.594 101.098 298.828 97.458 299.643 93.4235C299.682 93.187 299.919 93.0293 300.155 93.0818C300.379 93.1213 300.537 93.3578 300.497 93.5944C299.643 97.8391 297.304 101.65 293.887 104.331C290.654 106.868 286.738 108.221 282.69 108.221Z" fill="black"/>
<path d="M233.29 211.409C233.264 211.409 233.237 211.409 233.211 211.409C232.975 211.356 232.817 211.133 232.87 210.896C234.801 200.83 236.273 195.034 237.942 190.855C240.387 184.771 241.661 178.436 241.753 172.036L241.793 168.843C241.806 168.606 242.003 168.422 242.24 168.409C242.476 168.422 242.673 168.619 242.673 168.856L242.621 172.049C242.529 178.555 241.228 184.994 238.757 191.184C237.114 195.297 235.656 201.053 233.724 211.054C233.684 211.264 233.5 211.409 233.29 211.409Z" fill="#CADDFF"/>
<path d="M219.062 159.657C218.93 160.038 219.259 160.761 219.219 161.063C219.048 162.167 217.379 163.718 216.17 164.73C215.198 165.532 214.62 166.714 214.62 167.976C214.62 168.278 214.633 168.594 214.659 168.949C214.698 169.737 214.436 170.158 214.094 170.381C213.411 170.801 212.517 170.302 212.425 169.514C212.241 167.766 211.926 164.152 212.425 162.877C212.74 162.036 213.792 160.945 214.764 160.038C215.737 159.158 216.262 157.909 216.262 156.595C216.236 152.088 218.759 138.907 221.729 129.642L229.154 133.729C229.154 133.729 223.937 145.964 219.062 159.657Z" fill="white"/>
<path d="M272.844 120.206C272.844 120.206 272.449 117.512 274.526 115.922C276.537 114.384 278.679 112.781 278.902 116.894C278.902 117.104 278.941 117.328 279.007 117.538C279.204 118.169 279.415 119.904 276.602 121.651C276.431 121.756 276.313 121.914 276.274 122.098C276.155 122.545 276.129 122.992 276.182 123.439C276.537 126.54 277.798 139.629 274.263 142.731C270.242 146.253 261.805 136.068 261.805 136.068L268.086 129.3C268.086 129.3 270.242 132.48 270.728 132.572C271.227 132.677 272.804 120.482 272.844 120.206Z" fill="white"/>
<path d="M258.019 96.3802C258.676 96.6036 258.992 97.9704 259.097 98.6537C259.438 100.94 258.242 106.289 256.587 106.644C254.957 106.986 255.102 106.25 253.853 106.946C252.868 107.498 252.736 108.497 252.289 110.678C252.263 110.823 255.115 111.625 255.154 111.756C255.272 112.058 253.511 115.751 248.018 115.055C242.827 114.398 242.104 110.876 242.078 110.639C242.065 110.481 246.008 110.205 246.073 110.074C246.98 108.208 247.663 104.949 247.663 104.949C247.663 104.949 251.041 94.0016 258.019 96.3802Z" fill="white"/>
<path d="M255.029 102.241C255.012 102.241 254.994 102.241 254.977 102.241C253.86 102.097 253.242 100.914 253.111 99.8102C252.992 98.7983 253.308 98.0098 253.899 97.7864C254.937 97.379 255.765 98.5092 256.094 99.232C256.199 99.4554 256.094 99.7182 255.87 99.8102C255.66 99.9022 255.397 99.8102 255.305 99.5868C255.187 99.3371 254.661 98.4303 254.201 98.6011C254.083 98.6406 253.899 99.0217 253.978 99.7182C254.057 100.454 254.451 101.295 255.095 101.374C255.331 101.413 255.502 101.637 255.463 101.873C255.437 102.084 255.253 102.241 255.029 102.241Z" fill="black"/>
<path d="M146.836 223.316L145.311 234.04L141.395 234.053L141.211 223.5L146.836 223.316Z" fill="white"/>
<path fill-rule="evenodd" clip-rule="evenodd" d="M141.384 234.5C141.147 234.5 140.95 234.303 140.95 234.066L140.766 223.513C140.753 223.277 140.95 223.079 141.187 223.066L146.811 222.882C146.943 222.869 147.061 222.922 147.153 223.027C147.232 223.119 147.271 223.25 147.258 223.369L145.721 234.105C145.694 234.316 145.51 234.473 145.3 234.473L141.384 234.5ZM141.647 223.921L141.804 233.619L144.919 233.606L146.325 223.763L141.647 223.921Z" fill="black"/>
<path d="M145.436 244.303C143.899 244.474 141.612 244.54 138.563 244.264C137.459 244.172 136.697 243.16 136.868 242.069C137.341 239.165 138.668 234.026 140.758 231.661L141.783 233.133L142.4 231.622C142.492 231.451 145.081 231.346 145.147 231.648L145.305 233.133L146.777 231.49L146.685 236.905C146.685 237.496 146.737 238.1 146.855 238.679L147.25 240.558C147.473 241.675 147.184 242.871 146.409 243.712C146.093 244.04 145.751 244.264 145.436 244.303Z" fill="white"/>
<path fill-rule="evenodd" clip-rule="evenodd" d="M142.457 244.882C141.353 244.882 140.039 244.829 138.514 244.698C137.87 244.645 137.292 244.33 136.898 243.817C136.49 243.305 136.333 242.647 136.438 242.004C136.556 241.241 137.726 234.421 140.42 231.385C140.512 231.28 140.63 231.227 140.775 231.227C140.906 231.24 141.024 231.306 141.103 231.411L141.668 232.226L141.984 231.451C141.992 231.433 142.001 231.416 142.01 231.398C142.339 230.859 144.77 231.056 144.927 231.096C145.059 231.122 145.493 231.201 145.558 231.582C145.558 231.591 145.558 231.6 145.558 231.608L145.624 232.108L146.439 231.201C146.557 231.056 146.754 231.017 146.925 231.083C147.083 231.148 147.201 231.306 147.201 231.49L147.109 236.905C147.109 237.47 147.162 238.035 147.28 238.6L147.661 240.466C147.924 241.767 147.569 243.094 146.715 244.014C146.307 244.448 145.874 244.698 145.466 244.737C144.743 244.816 143.745 244.882 142.457 244.882ZM140.722 232.384C138.869 234.868 137.7 239.612 137.292 242.148C137.226 242.542 137.332 242.963 137.581 243.278C137.831 243.607 138.186 243.791 138.58 243.83C141.839 244.119 144.073 244.014 145.374 243.87C145.571 243.857 145.821 243.686 146.071 243.41C146.741 242.7 147.017 241.662 146.807 240.637L146.426 238.771C146.294 238.153 146.242 237.522 146.242 236.891L146.307 232.647L145.611 233.422C145.506 233.553 145.322 233.606 145.151 233.553C144.993 233.501 144.875 233.356 144.862 233.185L144.73 231.937C144.284 231.858 143.153 231.884 142.72 231.963L142.181 233.304C142.115 233.448 141.984 233.553 141.826 233.567C141.668 233.593 141.511 233.514 141.419 233.383L140.722 232.384Z" fill="black"/>
<path d="M142.63 242.963C141.553 242.963 140.212 242.884 138.688 242.621C138.451 242.582 138.294 242.345 138.346 242.109C138.385 241.872 138.609 241.714 138.845 241.767C142.591 242.424 145.272 241.898 145.298 241.885C145.535 241.846 145.771 241.99 145.811 242.227C145.863 242.463 145.705 242.7 145.469 242.739C145.403 242.753 144.339 242.963 142.63 242.963Z" fill="black"/>
<path d="M143.888 238.85H140.34C140.103 238.85 139.906 238.653 139.906 238.416C139.906 238.18 140.103 237.982 140.34 237.982H143.888C144.125 237.982 144.322 238.18 144.322 238.416C144.322 238.653 144.125 238.85 143.888 238.85Z" fill="black"/>
<path d="M181.227 223.209L181.543 237.876L176.286 236.772L174.906 224.274L181.227 223.209Z" fill="white"/>
<path fill-rule="evenodd" clip-rule="evenodd" d="M181.534 238.31C181.508 238.31 181.477 238.31 181.442 238.31L176.185 237.206C176.001 237.166 175.857 237.009 175.844 236.825L174.464 224.314C174.438 224.09 174.595 223.88 174.832 223.841L181.14 222.789C181.271 222.763 181.389 222.803 181.495 222.881C181.587 222.96 181.652 223.078 181.652 223.197L181.968 237.876C181.968 238.007 181.915 238.126 181.81 238.218C181.731 238.283 181.639 238.31 181.534 238.31ZM176.672 236.417L181.087 237.337L180.785 223.722L175.371 224.629L176.672 236.417Z" fill="black"/>
<path d="M174.05 242.739C173.945 240.557 173.932 236.509 175.273 234.564L179.478 236.063V235.169C179.478 234.88 179.688 234.643 179.951 234.63L182.303 234.486C183.171 234.446 184.051 234.617 184.853 235.011C187.205 236.181 194.381 239.151 195.379 242.502C195.682 243.488 194.906 244.473 193.881 244.5C191.516 244.565 185.825 244.644 175.641 244.289C174.786 244.263 174.103 243.593 174.05 242.739Z" fill="white"/>
<path fill-rule="evenodd" clip-rule="evenodd" d="M189.155 244.999C186.027 244.999 181.598 244.934 175.619 244.723C174.528 244.697 173.674 243.843 173.608 242.765C173.49 240.492 173.503 236.365 174.909 234.328C175.014 234.157 175.224 234.092 175.408 234.157L179.036 235.445V235.169C179.036 234.644 179.43 234.223 179.916 234.197L182.268 234.052C183.202 234 184.161 234.197 185.028 234.631C185.317 234.762 185.659 234.933 186.066 235.117C189.142 236.562 194.858 239.243 195.791 242.371C195.962 242.962 195.857 243.58 195.489 244.079C195.121 244.592 194.517 244.92 193.873 244.934C192.861 244.96 191.323 244.999 189.155 244.999ZM175.448 235.09C174.646 236.536 174.305 239.283 174.475 242.726C174.515 243.343 175.014 243.843 175.645 243.856C185.738 244.198 191.389 244.132 193.859 244.066C194.227 244.053 194.569 243.869 194.793 243.567C194.99 243.291 195.055 242.949 194.95 242.621C194.135 239.861 188.432 237.193 185.685 235.905C185.291 235.708 184.936 235.55 184.647 235.406C183.911 235.051 183.11 234.88 182.321 234.92L179.969 235.064C179.942 235.064 179.903 235.104 179.903 235.169V236.063C179.903 236.208 179.837 236.339 179.719 236.418C179.614 236.51 179.456 236.523 179.325 236.483L175.448 235.09Z" fill="black"/>
<path d="M187.531 242.91C184.548 242.91 180.5 242.778 176.098 242.266C175.848 242.24 175.677 242.029 175.717 241.793C175.743 241.556 175.953 241.372 176.19 241.412C185.152 242.45 192.551 241.898 192.617 241.898C192.853 241.885 193.064 242.056 193.09 242.305C193.103 242.542 192.932 242.752 192.683 242.765C192.643 242.765 190.672 242.91 187.531 242.91Z" fill="black"/>
<path d="M186.232 239.335C186.14 239.335 186.048 239.309 185.982 239.256L181.921 236.339C181.724 236.194 181.684 235.931 181.829 235.734C181.96 235.537 182.236 235.485 182.434 235.629L186.481 238.547C186.678 238.691 186.718 238.954 186.586 239.151C186.494 239.269 186.363 239.335 186.232 239.335Z" fill="black"/>
<path d="M176.548 143.112C176.548 143.112 184.092 194.851 182.488 229.374L180.123 229.61C178.861 229.742 177.587 229.768 176.325 229.716L174.091 229.597C174.091 229.597 165.089 177.135 160.608 168.436C160.608 168.436 148.386 215.076 147.926 227.718C147.926 227.718 142.485 228.257 140.33 227.481C139.16 215.286 138.832 202.657 138.766 194.732C138.608 172.05 140.777 161.746 141.959 156.858C143.05 152.376 144.22 148.723 145.074 146.252L147.939 138.118L176.548 143.112Z" fill="#263238"/>
<path fill-rule="evenodd" clip-rule="evenodd" d="M177.589 230.176C177.151 230.176 176.717 230.167 176.288 230.149L174.054 230.031C173.857 230.018 173.686 229.873 173.647 229.676C173.568 229.164 165.249 180.894 160.702 169.737C158.81 177.096 148.769 216.416 148.349 227.731C148.336 227.955 148.165 228.126 147.955 228.152C147.731 228.178 142.396 228.691 140.175 227.889C140.017 227.837 139.899 227.692 139.885 227.521C138.637 214.485 138.374 201.395 138.322 194.746C138.164 173.154 140.083 162.719 141.528 156.753C142.396 153.165 143.46 149.591 144.656 146.121L147.508 137.973C147.587 137.763 147.784 137.645 147.994 137.684L176.617 142.678C176.801 142.718 176.945 142.862 176.971 143.046C177.037 143.559 184.502 195.219 182.911 229.4C182.898 229.611 182.728 229.795 182.517 229.808L180.165 230.044C179.311 230.136 178.443 230.176 177.589 230.176ZM174.448 229.177L176.327 229.269C177.576 229.335 178.838 229.308 180.073 229.177L182.057 228.98C183.503 196.283 176.774 147.843 176.157 143.48L148.217 138.604L145.484 146.397C144.288 149.854 143.237 153.402 142.369 156.963C140.937 162.89 139.044 173.246 139.202 194.733C139.242 201.317 139.504 214.248 140.727 227.153C142.566 227.666 146.299 227.416 147.495 227.311C148.178 214.248 160.058 168.778 160.176 168.318C160.216 168.147 160.373 168.015 160.544 168.002C160.728 167.976 160.899 168.068 160.978 168.226C165.315 176.623 173.594 224.236 174.448 229.177Z" fill="#263238"/>
<path d="M160.18 170.381C160.136 170.381 160.096 170.376 160.061 170.368C159.825 170.302 159.693 170.065 159.759 169.829L161.008 165.256C161.389 163.863 162.506 162.824 163.925 162.535L165.095 162.286C165.331 162.233 165.568 162.391 165.607 162.627C165.66 162.864 165.515 163.087 165.279 163.14L164.096 163.376C163.005 163.613 162.138 164.414 161.849 165.492L160.587 170.065C160.534 170.249 160.364 170.381 160.18 170.381Z" fill="black"/>
<path d="M143.598 161.878C143.388 161.878 143.204 161.72 143.178 161.51C143.138 161.274 143.296 161.05 143.533 161.011C150.012 159.933 151.313 154.874 151.313 154.821C151.378 154.584 151.615 154.453 151.838 154.506C152.075 154.558 152.219 154.795 152.167 155.031C152.154 155.084 150.708 160.695 143.677 161.865C143.651 161.874 143.625 161.878 143.598 161.878Z" fill="black"/>
<path d="M176.883 158.474C176.821 158.474 176.765 158.461 176.712 158.435C172.559 156.635 172.664 152.692 172.664 152.653C172.664 152.416 172.861 152.219 173.111 152.232C173.348 152.245 173.545 152.442 173.532 152.679C173.532 152.823 173.466 156.083 177.054 157.633C177.277 157.738 177.369 157.988 177.277 158.212C177.211 158.369 177.054 158.474 176.883 158.474Z" fill="black"/>
<path d="M182.809 102.701C190.313 108.825 194.374 119.903 197.068 126.737C198.251 129.773 196.661 133.176 193.559 134.215L192.547 134.556L181.101 136.068L182.047 150.707C182.1 153.533 180.076 154.308 178.065 154.019C178.013 154.019 177.408 149.209 177.356 149.183C171.1 146.988 161.257 149.012 154.305 151.562C145.382 154.834 138.246 150.852 137.97 148.513C137.694 146.16 141.137 132.598 141.137 132.598L132.503 130.693C130.886 130.325 129.796 128.787 130.032 127.131C131.583 115.842 140.927 106.42 145.881 102.149C147.563 100.703 150.757 99.3496 152.965 99.1525C160.298 98.4823 170.942 99.481 175.936 100.046C177.986 100.283 181.206 101.4 182.809 102.701Z" fill="#FFC514"/>
<path d="M169.089 143.032L175.279 118.089C175.463 117.327 176.146 116.801 176.922 116.801H194.794C195.898 116.801 196.7 117.839 196.437 118.904L190.247 143.847C190.063 144.596 189.38 145.122 188.605 145.122H170.732C169.628 145.122 168.826 144.097 169.089 143.032Z" fill="url(#paint9_linear_2448_11333)"/>
<path d="M194.865 129.114C195.259 129.43 195.654 129.929 195.785 130.705C196.35 133.767 195.115 139.273 190.818 138.011C183.038 135.725 182.88 132.084 183.642 129.916C184.01 128.891 185.206 128.457 186.139 129.022L187.374 129.771C188.452 130.429 189.595 130.954 190.778 131.348L192.947 132.071L193.551 129.548C193.696 128.97 194.405 128.733 194.865 129.114Z" fill="white"/>
<path fill-rule="evenodd" clip-rule="evenodd" d="M192.005 138.629C191.585 138.629 191.146 138.564 190.691 138.432C186.88 137.315 184.449 135.738 183.437 133.767C182.806 132.545 182.74 131.165 183.226 129.772C183.45 129.154 183.923 128.681 184.527 128.458C185.132 128.247 185.802 128.313 186.354 128.655L187.589 129.404C188.641 130.035 189.758 130.547 190.914 130.941L192.623 131.506L193.109 129.456C193.118 129.448 193.122 129.443 193.122 129.443C193.227 129.023 193.53 128.694 193.937 128.563C194.357 128.418 194.791 128.497 195.133 128.773C195.711 129.233 196.066 129.851 196.21 130.626C196.618 132.899 196.118 136.145 194.384 137.722C193.714 138.327 192.912 138.629 192.005 138.629ZM185.25 129.207C185.11 129.207 184.97 129.233 184.83 129.285C184.462 129.417 184.186 129.693 184.054 130.061C183.634 131.244 183.686 132.361 184.212 133.373C185.106 135.12 187.366 136.54 190.941 137.591C192.084 137.933 193.043 137.749 193.805 137.065C195.251 135.764 195.724 132.847 195.356 130.784C195.251 130.219 195.001 129.772 194.594 129.443C194.436 129.325 194.279 129.364 194.213 129.377C194.16 129.404 194.016 129.469 193.963 129.653L193.359 132.177C193.332 132.295 193.254 132.387 193.148 132.453C193.043 132.505 192.912 132.518 192.794 132.479L190.638 131.756C189.416 131.362 188.247 130.81 187.143 130.14L185.907 129.391C185.697 129.272 185.474 129.207 185.25 129.207Z" fill="black"/>
<path d="M152.976 114.318C153.686 113.582 154.724 113.253 155.736 113.424L163.069 114.791C164.199 114.949 164.238 116.394 163.384 116.762C162.28 117.248 159.626 116.749 159.626 116.749C158.482 121.217 153.383 120.284 153.383 120.284C153.383 120.284 136.023 146.423 132.304 136.251C130.017 129.996 131.371 129.089 134.21 126.671C136.444 124.766 145.419 119.588 149.165 117.446C150.282 116.815 151.294 116.026 152.187 115.119L152.976 114.318Z" fill="white"/>
<path fill-rule="evenodd" clip-rule="evenodd" d="M135.05 139.037C134.928 139.037 134.805 139.028 134.682 139.011C133.407 138.866 132.474 137.986 131.883 136.395C129.662 130.298 130.753 129.036 133.683 126.552L133.933 126.329C136.194 124.41 145.182 119.206 148.954 117.064C150.032 116.459 151.017 115.697 151.885 114.804L152.66 114.002C153.475 113.174 154.658 112.793 155.814 113.003L163.147 114.37C163.817 114.462 164.304 114.948 164.396 115.605C164.488 116.275 164.146 116.906 163.568 117.156C162.595 117.577 160.755 117.366 159.941 117.235C158.718 121.007 154.71 120.875 153.593 120.757C152.108 122.965 141.069 139.037 135.05 139.037ZM155.183 113.818C154.474 113.818 153.79 114.094 153.291 114.62L152.502 115.421C151.582 116.367 150.531 117.169 149.388 117.826C145.642 119.955 136.706 125.12 134.498 126.999L134.249 127.209C131.66 129.404 130.595 130.324 132.711 136.093C133.171 137.368 133.854 138.038 134.787 138.143C134.884 138.161 134.98 138.17 135.076 138.17C139.913 138.17 149.624 125.172 153.015 120.047C153.12 119.903 153.291 119.824 153.462 119.863C153.646 119.889 158.18 120.652 159.205 116.63C159.257 116.42 159.481 116.275 159.704 116.315C160.414 116.446 162.411 116.709 163.213 116.367C163.476 116.249 163.568 115.947 163.541 115.724C163.515 115.566 163.423 115.277 163.003 115.224L155.656 113.857C155.499 113.831 155.341 113.818 155.183 113.818Z" fill="black"/>
<path d="M169.18 90.4514L169.732 98.0868C169.851 99.0855 170.573 99.9003 171.546 100.15L174.227 100.86L172.479 102.174C168.628 105.118 163.28 105.118 159.416 102.187L156.656 100.097L159.994 99.3615C160.954 99.1381 161.69 98.3759 161.86 97.4165L163.332 87.3105L169.18 90.4514Z" fill="white"/>
<path fill-rule="evenodd" clip-rule="evenodd" d="M165.942 104.816C163.537 104.816 161.145 104.054 159.148 102.542L156.388 100.453C156.256 100.348 156.191 100.177 156.23 100.006C156.27 99.8484 156.401 99.7169 156.559 99.6775L159.897 98.9284C160.685 98.7576 161.29 98.1268 161.434 97.3383L162.893 87.2454C162.919 87.1009 163.011 86.9826 163.13 86.9169C163.261 86.8512 163.405 86.8512 163.537 86.93L169.385 90.0709C169.516 90.1366 169.608 90.2812 169.622 90.4257L170.16 98.0611C170.265 98.8627 170.844 99.5198 171.645 99.7301L174.326 100.44C174.484 100.479 174.615 100.611 174.642 100.768C174.681 100.939 174.615 101.097 174.484 101.202L172.736 102.529C170.739 104.054 168.334 104.816 165.942 104.816ZM157.663 100.321L159.673 101.846C163.366 104.645 168.531 104.645 172.21 101.833L173.249 101.044L171.422 100.571C170.279 100.282 169.438 99.3227 169.293 98.1399L168.767 90.728L163.668 87.9814L162.288 97.4697C162.078 98.6262 161.211 99.5329 160.081 99.7826L157.663 100.321Z" fill="black"/>
<path d="M178.833 86.2208C177.755 87.2721 175.219 85.038 173.734 86.2339C172.761 87.0224 173.747 88.5469 173.405 93.1333C173.34 94.1058 173.169 95.0915 173.05 95.88C172.945 96.4976 172.42 96.9576 171.802 96.9707C167.965 97.0627 166.151 95.88 165.599 94.8812C164.719 93.2911 166.072 91.0438 164.889 90.0319C163.969 89.2565 162.695 90.2028 161.906 89.4274C161.131 88.6652 161.972 87.351 162.248 84.6569C162.616 80.8327 161.512 79.8339 162.025 78.1649C162.406 76.9033 163.694 75.576 164.653 75.7468C166.112 75.9965 166.033 75.9308 168.346 77.9152C168.976 78.454 169.055 74.5772 171.46 76.6536C177.505 81.884 176.02 78.8614 177.86 79.8339C180.37 81.1612 179.95 85.1169 178.833 86.2208Z" fill="black"/>
<path d="M175.102 83.1721C174.655 85.5639 175.062 88.6391 175.286 90.019C175.338 90.2818 175.207 90.5446 174.97 90.6761C174.865 90.7286 174.76 90.7418 174.642 90.7418L174.077 90.7155L173.459 91.3989C173.459 91.3989 168.583 91.0966 168.57 89.5196C168.57 88.442 168.702 86.5364 168.781 85.4325C168.833 84.8368 168.842 84.2454 168.807 83.6584L168.728 82.3968C172.395 80.9775 175.102 83.1721 175.102 83.1721Z" fill="white"/>
<path fill-rule="evenodd" clip-rule="evenodd" d="M173.447 91.8321C173.439 91.8321 173.425 91.8321 173.408 91.8321C172.527 91.7796 168.138 91.3984 168.125 89.5192C168.125 88.4153 168.256 86.4703 168.335 85.3927C168.388 84.8276 168.388 84.2493 168.362 83.6842L168.283 82.4226C168.27 82.2387 168.375 82.0678 168.559 82.0021C172.422 80.4908 175.248 82.738 175.366 82.83C175.484 82.9352 175.55 83.0929 175.524 83.2506C175.077 85.6029 175.511 88.7175 175.708 89.9529C175.787 90.3997 175.563 90.8465 175.156 91.0568C174.998 91.1356 174.814 91.175 174.617 91.175L174.249 91.1487L173.763 91.6876C173.684 91.7795 173.566 91.8321 173.447 91.8321ZM169.163 82.6986L169.229 83.6317C169.255 84.2362 169.255 84.8539 169.203 85.4584C169.124 86.5229 168.992 88.4415 168.992 89.5192C169.006 90.242 171.41 90.8071 173.263 90.9516L173.737 90.426C173.829 90.3208 173.947 90.2683 174.078 90.2814L174.656 90.2945C174.7 90.3033 174.731 90.2989 174.748 90.2814C174.84 90.242 174.854 90.15 174.854 90.0974C174.604 88.573 174.249 85.7212 174.617 83.3688C173.973 82.9352 171.897 81.7787 169.163 82.6986Z" fill="black"/>
<path d="M167.871 86.2738C167.871 86.2738 167.687 83.2512 166.334 83.6324C164.98 84.0135 165.269 87.3252 167.871 86.2738Z" fill="white"/>
<path d="M320.543 240.729C320.372 240.729 320.214 240.624 320.135 240.453C320.057 240.229 320.162 239.98 320.385 239.888C335.235 234.026 348.154 226.365 357.76 217.717C357.944 217.547 358.22 217.56 358.378 217.744C358.536 217.928 358.522 218.204 358.338 218.361C348.666 227.074 335.643 234.802 320.7 240.702C320.648 240.72 320.595 240.729 320.543 240.729Z" fill="black"/>
<path d="M222.609 19.5402C222.425 19.5402 222.241 19.4219 222.189 19.238C222.123 19.0014 222.255 18.7649 222.478 18.686C242.493 12.7328 264.755 11.2084 283.587 14.5332C283.824 14.5726 283.981 14.7961 283.942 15.0326C283.902 15.2692 283.679 15.4269 283.442 15.3874C264.742 12.0889 242.611 13.6002 222.728 19.5271C222.693 19.5358 222.653 19.5402 222.609 19.5402Z" fill="black"/>
<path d="M328.385 47.5579C328.188 47.5579 328.004 47.4134 327.965 47.2031C327.413 44.3382 326.296 41.6967 324.311 38.6215C320.526 32.7603 315.151 27.8059 308.291 23.9028C308.094 23.7845 308.015 23.5217 308.134 23.3114C308.252 23.1012 308.528 23.0223 308.725 23.1406C315.703 27.1225 321.183 32.169 325.034 38.1484C327.084 41.3156 328.254 44.0622 328.819 47.0454C328.858 47.2819 328.7 47.5054 328.464 47.5448C328.438 47.5535 328.411 47.5579 328.385 47.5579Z" fill="black"/>
<path fill-rule="evenodd" clip-rule="evenodd" d="M270.375 211.081C270.02 211.081 269.665 211.016 269.323 210.871C268.64 210.595 268.127 210.069 267.838 209.386C267.562 208.716 267.562 207.967 267.851 207.297C268.43 205.904 270.033 205.246 271.426 205.825C272.819 206.403 273.476 208.006 272.898 209.399C272.464 210.451 271.439 211.081 270.375 211.081ZM270.375 206.482C269.639 206.482 268.955 206.915 268.653 207.638C268.456 208.098 268.456 208.598 268.653 209.058C268.837 209.517 269.192 209.872 269.652 210.069C270.598 210.464 271.702 210.017 272.096 209.071C272.49 208.124 272.044 207.021 271.084 206.626C270.861 206.534 270.611 206.482 270.375 206.482Z" fill="black"/>
<path d="M190.966 14.0601C190.467 15.2297 189.126 15.7817 187.957 15.2954C186.787 14.8092 186.222 13.4556 186.721 12.286C187.207 11.1164 188.548 10.5644 189.718 11.0507C190.9 11.5369 191.452 12.8905 190.966 14.0601Z" fill="#CADDFF"/>
<path fill-rule="evenodd" clip-rule="evenodd" d="M353.288 38.4515C352.933 38.4515 352.578 38.3858 352.236 38.2412C350.843 37.663 350.186 36.0465 350.765 34.6666C351.343 33.2736 352.946 32.6165 354.339 33.1948C355.009 33.4707 355.535 33.9964 355.811 34.6666C356.1 35.35 356.087 36.0859 355.811 36.7693C355.377 37.8207 354.352 38.4515 353.288 38.4515ZM353.288 33.8519C352.565 33.8519 351.868 34.2855 351.566 34.9952C351.172 35.9414 351.619 37.0321 352.565 37.4395C353.524 37.8338 354.615 37.3738 355.009 36.4276C355.207 35.9677 355.207 35.4683 355.009 35.0083C354.825 34.5484 354.471 34.1804 354.011 33.9964C353.774 33.8913 353.524 33.8519 353.288 33.8519Z" fill="black"/>
<path fill-rule="evenodd" clip-rule="evenodd" d="M263.936 24.9415C263.581 24.9415 263.227 24.8758 262.885 24.7312C261.492 24.153 260.835 22.5497 261.413 21.1567C261.702 20.4733 262.228 19.9477 262.898 19.6717C263.581 19.3957 264.317 19.3957 264.988 19.6848C265.671 19.9608 266.197 20.4865 266.473 21.1698C266.749 21.8401 266.749 22.5891 266.459 23.2594C266.183 23.9296 265.658 24.4553 264.974 24.7312C264.646 24.8758 264.291 24.9415 263.936 24.9415ZM263.936 20.3419C263.7 20.3419 263.463 20.3813 263.227 20.4865C262.767 20.6704 262.412 21.0253 262.215 21.4852C261.82 22.4314 262.267 23.5353 263.227 23.9296C263.687 24.1136 264.186 24.1136 264.646 23.9296C265.106 23.7456 265.474 23.3776 265.658 22.9177C265.855 22.4577 265.855 21.9583 265.658 21.4984C265.474 21.0384 265.119 20.6704 264.659 20.4865C264.422 20.3813 264.186 20.3419 263.936 20.3419Z" fill="white"/>
<path d="M197.632 213.459C197.185 213.459 196.725 213.367 196.305 213.184C194.544 212.448 193.703 210.424 194.438 208.663C194.885 207.598 195.818 206.823 196.949 206.6C197.185 206.547 197.422 206.705 197.461 206.928C197.514 207.165 197.356 207.401 197.119 207.441C196.278 207.611 195.569 208.19 195.24 208.991C194.688 210.319 195.319 211.83 196.633 212.382C197.277 212.645 197.974 212.658 198.618 212.395C199.261 212.119 199.761 211.633 200.024 210.989C200.234 210.503 200.273 209.99 200.181 209.478C200.129 209.241 200.287 209.018 200.523 208.965C200.76 208.926 200.983 209.07 201.036 209.307C201.167 209.99 201.101 210.687 200.825 211.317C200.471 212.172 199.813 212.842 198.946 213.197C198.526 213.367 198.079 213.459 197.632 213.459Z" fill="white"/>
<path fill-rule="evenodd" clip-rule="evenodd" d="M283.164 221.41C282.704 221.41 282.244 221.318 281.811 221.134C280.943 220.779 280.26 220.096 279.905 219.228C279.55 218.361 279.55 217.402 279.918 216.534C280.273 215.667 280.956 214.997 281.824 214.629C282.691 214.274 283.651 214.274 284.518 214.642C285.385 214.997 286.055 215.68 286.423 216.547C286.778 217.415 286.778 218.374 286.41 219.242C286.055 220.109 285.372 220.779 284.505 221.147C284.071 221.318 283.611 221.41 283.164 221.41ZM283.164 215.233C282.823 215.233 282.481 215.299 282.152 215.444C281.495 215.706 280.996 216.219 280.72 216.863C280.444 217.52 280.444 218.243 280.72 218.9C280.983 219.557 281.495 220.056 282.139 220.332C282.796 220.608 283.519 220.608 284.176 220.332C284.82 220.069 285.333 219.557 285.609 218.913C285.885 218.256 285.885 217.533 285.609 216.876C285.346 216.232 284.833 215.72 284.189 215.444C283.861 215.312 283.506 215.233 283.164 215.233Z" fill="black"/>
<path d="M210.321 141.85C210.286 141.85 210.247 141.846 210.203 141.837L208.389 141.312C208.153 141.246 208.021 141.009 208.087 140.786C208.153 140.549 208.389 140.418 208.626 140.484L210.44 140.996C210.676 141.062 210.808 141.298 210.742 141.535C210.689 141.719 210.518 141.85 210.321 141.85Z" fill="#99B9FF"/>
<path d="M203.946 140.037C203.911 140.037 203.872 140.033 203.828 140.024L202.014 139.511C201.778 139.446 201.646 139.196 201.712 138.972C201.778 138.736 202.014 138.604 202.251 138.67L204.065 139.183C204.301 139.248 204.433 139.498 204.367 139.722C204.314 139.919 204.143 140.037 203.946 140.037Z" fill="#99B9FF"/>
<path d="M206.859 138.407C206.815 138.407 206.776 138.403 206.741 138.394C206.504 138.328 206.373 138.092 206.439 137.855L206.938 136.029C207.004 135.805 207.254 135.661 207.477 135.726C207.714 135.792 207.845 136.029 207.779 136.265L207.28 138.092C207.227 138.276 207.043 138.407 206.859 138.407Z" fill="#99B9FF"/>
<path d="M205.094 144.794C205.05 144.794 205.01 144.79 204.975 144.781C204.739 144.716 204.607 144.466 204.673 144.243L205.173 142.416C205.238 142.179 205.488 142.048 205.711 142.114C205.948 142.179 206.079 142.416 206.014 142.652L205.514 144.466C205.462 144.663 205.278 144.794 205.094 144.794Z" fill="#99B9FF"/>
<path d="M302.119 220.135C301.948 220.135 301.791 220.03 301.725 219.859L301.002 218.112C300.91 217.888 301.015 217.625 301.239 217.546C301.462 217.454 301.725 217.56 301.804 217.783L302.526 219.531C302.618 219.754 302.513 220.004 302.29 220.096C302.237 220.122 302.18 220.135 302.119 220.135Z" fill="black"/>
<path d="M299.627 213.998C299.456 213.998 299.285 213.893 299.219 213.722L298.51 211.974C298.418 211.751 298.523 211.501 298.746 211.409C298.97 211.317 299.219 211.422 299.311 211.646L300.021 213.394C300.113 213.617 300.008 213.88 299.785 213.959C299.732 213.985 299.679 213.998 299.627 213.998Z" fill="black"/>
<path d="M302.691 215.286C302.52 215.286 302.362 215.181 302.283 215.01C302.191 214.787 302.296 214.537 302.52 214.445L304.268 213.722C304.491 213.63 304.754 213.735 304.846 213.959C304.938 214.182 304.833 214.432 304.609 214.524L302.862 215.247C302.8 215.273 302.743 215.286 302.691 215.286Z" fill="black"/>
<path d="M296.576 217.822C296.405 217.822 296.247 217.717 296.182 217.546C296.09 217.323 296.195 217.073 296.418 216.981L298.166 216.258C298.39 216.166 298.639 216.272 298.731 216.495C298.823 216.718 298.718 216.968 298.495 217.06L296.747 217.783C296.694 217.809 296.637 217.822 296.576 217.822Z" fill="black"/>
<path d="M350.246 24.9282C350.184 24.9282 350.127 24.915 350.075 24.8887L348.327 24.1528C348.103 24.0608 347.998 23.8111 348.103 23.5877C348.195 23.3643 348.445 23.2592 348.669 23.3511L350.416 24.0871C350.64 24.1791 350.745 24.4419 350.64 24.6653C350.574 24.823 350.416 24.9282 350.246 24.9282Z" fill="black"/>
<path d="M344.136 22.3657C344.084 22.3657 344.027 22.3525 343.965 22.3262L342.231 21.5903C342.007 21.4983 341.902 21.2486 341.994 21.0252C342.086 20.8018 342.336 20.6967 342.559 20.7886L344.307 21.5246C344.531 21.6166 344.636 21.8663 344.544 22.0897C344.465 22.2605 344.307 22.3657 344.136 22.3657Z" fill="black"/>
<path d="M347.222 21.0909C347.169 21.0909 347.112 21.0778 347.051 21.0515C346.828 20.9595 346.723 20.7098 346.815 20.4864L347.537 18.7386C347.629 18.5152 347.892 18.41 348.116 18.502C348.339 18.594 348.444 18.8437 348.352 19.0671L347.629 20.815C347.55 20.9858 347.393 21.0909 347.222 21.0909Z" fill="black"/>
<path d="M344.693 27.215C344.641 27.215 344.588 27.2018 344.535 27.1755C344.312 27.0836 344.207 26.8339 344.299 26.6105L345.022 24.8626C345.114 24.6392 345.363 24.5341 345.587 24.626C345.81 24.718 345.915 24.9677 345.823 25.1911L345.101 26.939C345.035 27.1098 344.864 27.215 344.693 27.215Z" fill="black"/>
<path d="M161.719 69.0051C161.521 69.0051 161.337 68.8737 161.298 68.6766L159.59 61.8692C159.537 61.6326 159.668 61.3961 159.905 61.3435C160.142 61.2778 160.378 61.4224 160.431 61.6589L162.139 68.4663C162.192 68.6897 162.047 68.9263 161.824 68.992C161.789 69.0008 161.754 69.0051 161.719 69.0051Z" fill="black"/>
<path d="M165.302 70.7009C165.066 70.7009 164.882 70.53 164.869 70.2935L164.212 57.0597C164.198 56.8232 164.382 56.6129 164.619 56.5998C164.856 56.5866 165.066 56.7706 165.079 57.0072L165.736 70.254C165.749 70.4906 165.565 70.6877 165.329 70.7009C165.32 70.7009 165.311 70.7009 165.302 70.7009Z" fill="black"/>
<path d="M169.096 67.7444C169.069 67.7444 169.047 67.7444 169.03 67.7444C168.793 67.7049 168.622 67.4815 168.662 67.245L169.293 63.1448C169.332 62.9082 169.556 62.7505 169.792 62.7768C170.029 62.8162 170.186 63.0396 170.147 63.2762L169.516 67.3764C169.49 67.5867 169.306 67.7444 169.096 67.7444Z" fill="black"/>
<defs>
<linearGradient id="paint0_linear_2448_11333" x1="149.445" y1="111.229" x2="370.634" y2="111.229" gradientUnits="userSpaceOnUse">
<stop offset="0.390625" stop-color="#3D8BFD"/>
<stop offset="1" stop-color="#1273FF"/>
</linearGradient>
<linearGradient id="paint1_linear_2448_11333" x1="336.789" y1="151.377" x2="348.377" y2="151.377" gradientUnits="userSpaceOnUse">
<stop offset="0.390625" stop-color="#3D8BFD"/>
<stop offset="1" stop-color="#1273FF"/>
</linearGradient>
<linearGradient id="paint2_linear_2448_11333" x1="294.547" y1="157.592" x2="309.433" y2="157.592" gradientUnits="userSpaceOnUse">
<stop offset="0.390625" stop-color="#3D8BFD"/>
<stop offset="1" stop-color="#1273FF"/>
</linearGradient>
<linearGradient id="paint3_linear_2448_11333" x1="337.898" y1="172.403" x2="348.369" y2="172.403" gradientUnits="userSpaceOnUse">
<stop offset="0.390625" stop-color="#3D8BFD"/>
<stop offset="1" stop-color="#1273FF"/>
</linearGradient>
<linearGradient id="paint4_linear_2448_11333" x1="280.219" y1="80.0712" x2="287.92" y2="80.0712" gradientUnits="userSpaceOnUse">
<stop offset="0.390625" stop-color="#3D8BFD"/>
<stop offset="1" stop-color="#1273FF"/>
</linearGradient>
<linearGradient id="paint5_linear_2448_11333" x1="305.047" y1="76.1616" x2="309.213" y2="76.1616" gradientUnits="userSpaceOnUse">
<stop offset="0.390625" stop-color="#3D8BFD"/>
<stop offset="1" stop-color="#1273FF"/>
</linearGradient>
<linearGradient id="paint6_linear_2448_11333" x1="333.172" y1="76.7595" x2="337.351" y2="76.7595" gradientUnits="userSpaceOnUse">
<stop offset="0.390625" stop-color="#3D8BFD"/>
<stop offset="1" stop-color="#1273FF"/>
</linearGradient>
<linearGradient id="paint7_linear_2448_11333" x1="194.047" y1="89.9726" x2="233.485" y2="89.9726" gradientUnits="userSpaceOnUse">
<stop offset="0.390625" stop-color="#3D8BFD"/>
<stop offset="1" stop-color="#1273FF"/>
</linearGradient>
<linearGradient id="paint8_linear_2448_11333" x1="143.109" y1="39.7413" x2="153.757" y2="39.7413" gradientUnits="userSpaceOnUse">
<stop offset="0.390625" stop-color="#3D8BFD"/>
<stop offset="1" stop-color="#1273FF"/>
</linearGradient>
<linearGradient id="paint9_linear_2448_11333" x1="182.763" y1="116.801" x2="182.763" y2="145.122" gradientUnits="userSpaceOnUse">
<stop offset="0.275742" stop-color="#0380DC"/>
<stop offset="1" stop-color="#0061D3"/>
</linearGradient>
</defs>
</svg>
