<svg width="19" height="20" viewBox="0 0 19 20" fill="none" xmlns="http://www.w3.org/2000/svg">
  <path d="M19 10C19 15.2467 14.7467 19.5 9.5 19.5C4.25329 19.5 0 15.2467 0 10C0 4.75329 4.25329 0.5 9.5 0.5C14.7467 0.5 19 4.75329 19 10Z" fill="white"/>
  <path d="M8.17 11.71L6.10375 9.64375C5.92958 9.46958 5.71583 9.3825 5.4625 9.3825C5.20917 9.3825 4.9875 9.4775 4.7975 9.6675C4.62333 9.84167 4.53625 10.0633 4.53625 10.3325C4.53625 10.6017 4.62333 10.8233 4.7975 10.9975L7.505 13.705C7.67917 13.8792 7.90083 13.9663 8.17 13.9663C8.43917 13.9663 8.66083 13.8792 8.835 13.705L14.2263 8.31375C14.4004 8.13958 14.4875 7.92583 14.4875 7.6725C14.4875 7.41917 14.3925 7.1975 14.2025 7.0075C14.0283 6.83333 13.8067 6.74625 13.5375 6.74625C13.2683 6.74625 13.0467 6.83333 12.8725 7.0075L8.17 11.71ZM9.5 19.5C8.18583 19.5 6.95083 19.2505 5.795 18.7514C4.63917 18.253 3.63375 17.5763 2.77875 16.7213C1.92375 15.8663 1.24703 14.8608 0.7486 13.705C0.249533 12.5492 0 11.3142 0 10C0 8.68583 0.249533 7.45083 0.7486 6.295C1.24703 5.13917 1.92375 4.13375 2.77875 3.27875C3.63375 2.42375 4.63917 1.74672 5.795 1.24765C6.95083 0.749217 8.18583 0.5 9.5 0.5C10.8142 0.5 12.0492 0.749217 13.205 1.24765C14.3608 1.74672 15.3663 2.42375 16.2213 3.27875C17.0763 4.13375 17.753 5.13917 18.2514 6.295C18.7505 7.45083 19 8.68583 19 10C19 11.3142 18.7505 12.5492 18.2514 13.705C17.753 14.8608 17.0763 15.8663 16.2213 16.7213C15.3663 17.5763 14.3608 18.253 13.205 18.7514C12.0492 19.2505 10.8142 19.5 9.5 19.5Z" fill="#0BD25F"/>
</svg>
