<svg width="400" height="347" viewBox="0 0 400 347" fill="none" xmlns="http://www.w3.org/2000/svg">
<path d="M250.011 36.5325H179.142C177.955 36.5325 177 35.6007 177 34.4439V18.0565C177 16.8997 177.955 16 179.142 16H250.011C251.164 16 252.12 16.8997 252.12 18.0565V34.4439C252.12 35.6007 251.164 36.5325 250.011 36.5325Z" fill="#FFC514"/>
<path d="M192.841 29.6879C191.259 31.6158 188.36 31.905 186.383 30.3626C184.439 28.8203 184.11 26.0248 185.691 24.0968C187.273 22.1689 190.139 21.8476 192.116 23.3899C194.093 24.9323 194.422 27.7599 192.841 29.6879Z" fill="white"/>
<path d="M191.828 25.3813C191.894 25.4455 190.807 26.6023 189.39 27.9519C189.171 28.1447 188.962 28.3375 188.764 28.5302L188.665 28.6266L188.534 28.5302C187.413 27.4056 186.656 26.538 186.689 26.5059C186.754 26.4416 187.644 27.2128 188.764 28.2732H188.534C188.731 28.1018 188.929 27.909 189.127 27.6948C190.576 26.3452 191.762 25.317 191.828 25.3813Z" fill="#FFC514"/>
<path d="M244.807 24.7398C244.807 24.8362 235.253 24.9326 223.458 24.9326C211.695 24.9326 202.141 24.8362 202.141 24.7398C202.141 24.6434 211.695 24.5791 223.458 24.5791C235.253 24.5791 244.807 24.6434 244.807 24.7398Z" fill="white"/>
<path d="M227.318 28.8203C227.318 28.9167 221.783 28.981 214.963 28.981C208.176 28.981 202.641 28.9167 202.641 28.8203C202.641 28.7239 208.176 28.6597 214.963 28.6597C221.783 28.6597 227.318 28.7239 227.318 28.8203Z" fill="white"/>
<g opacity="0.5" filter="url(#filter0_f_1207_18590)">
<path d="M308.982 143.328C369.839 178.465 369.839 235.436 308.982 270.573C248.159 305.71 149.498 305.71 88.6421 270.573C27.786 235.436 27.786 178.465 88.6421 143.328C149.498 108.224 248.159 108.224 308.982 143.328Z" fill="#F0F0F0"/>
</g>
<path d="M170.586 286.918C168.84 286.918 167.128 286.49 165.844 285.733L89.9051 241.869C88.1598 240.881 87.1719 239.333 87.1719 237.654C87.1719 235.974 88.1598 234.426 89.9051 233.438L223.604 156.248C224.922 155.491 226.601 155.063 228.379 155.063C230.125 155.063 231.804 155.491 233.121 156.248L309.06 200.079C310.805 201.067 311.793 202.615 311.793 204.295C311.793 206.007 310.805 207.522 309.06 208.543L175.361 285.733C174.043 286.49 172.364 286.918 170.586 286.918Z" fill="#E0E0E0"/>
<path d="M83.9148 214.339C83.9148 205.975 71.6646 187.237 68.5361 183.219C65.9675 179.86 61.917 173.9 63.6953 170.771C65.4736 167.643 70.9401 165.371 77.0323 171.99C83.1245 178.609 83.9148 187.303 83.9148 187.303V202.747V214.339Z" fill="#00E096"/>
<path d="M83.9067 200.31C83.7421 200.31 83.5774 200.178 83.5445 199.981C80.7783 183.153 67.9353 171.595 67.8365 171.496C67.6718 171.364 67.6389 171.101 67.8036 170.969C67.9353 170.804 68.1658 170.771 68.3305 170.936C68.4622 171.035 81.4699 182.758 84.3019 199.882C84.3348 200.08 84.2031 200.277 83.9726 200.31C83.9507 200.31 83.9287 200.31 83.9067 200.31Z" fill="white"/>
<path d="M83.9771 225.305C83.9771 225.305 82.9562 222.966 80.3217 222.374C77.7202 221.748 71.4633 222.473 69.4546 220.892C67.4787 219.344 66.9189 217.566 66.853 213.581C66.8201 209.564 64.7784 209.992 61.1231 209.168C57.5007 208.345 56.3481 205.019 57.9288 201.463C59.5095 197.906 58.8838 197.149 56.8421 194.975C54.8003 192.769 53.4831 189.41 57.4348 187.829C61.3865 186.282 66.1615 189.706 67.9727 191.122C69.8168 192.538 72.089 191.122 74.9211 191.583C77.7531 192.044 78.7081 194.284 78.9057 197.445C79.1362 200.573 79.9924 202.451 82.2317 202.846C84.504 203.241 83.9771 204.756 83.9771 204.756V225.305Z" fill="#B7FFD5"/>
<path d="M83.9823 221.221C83.8506 221.221 83.7518 221.123 83.6859 220.991C77.0668 201.331 62.0833 193.395 61.9516 193.329C61.7869 193.23 61.7211 193.065 61.8199 192.901C61.8857 192.736 62.0833 192.67 62.215 192.769C62.3797 192.835 77.5937 200.903 84.2787 220.793C84.3445 220.958 84.2458 221.155 84.0811 221.188C84.0591 221.21 84.0262 221.221 83.9823 221.221Z" fill="white"/>
<path d="M74.4968 204.064C74.4749 204.064 74.4529 204.064 74.431 204.064C70.117 203.077 63.1686 203.603 63.1027 203.603C62.9381 203.636 62.8064 203.505 62.7734 203.34C62.7734 203.142 62.9052 203.011 63.0698 202.978C63.3662 202.978 70.1499 202.451 74.5627 203.472C74.7273 203.505 74.8261 203.669 74.7932 203.834C74.7603 203.966 74.6285 204.064 74.4968 204.064Z" fill="white"/>
<path d="M78.0193 213.515C76.0435 213.515 73.9359 213.384 73.8042 213.384C73.6395 213.384 73.5078 213.219 73.5078 213.054C73.5407 212.89 73.6725 212.758 73.8701 212.758C73.903 212.758 78.7438 213.054 80.6209 212.758C80.7855 212.725 80.9502 212.857 80.9831 213.021C81.016 213.186 80.8843 213.351 80.7197 213.384C80.061 213.482 79.0402 213.515 78.0193 213.515Z" fill="white"/>
<path d="M72.4526 201.759C72.288 201.759 72.1562 201.595 72.1562 201.43C72.3538 197.972 73.5064 194.975 73.5393 194.844C73.6052 194.679 73.8028 194.613 73.9345 194.679C74.0992 194.745 74.198 194.91 74.1321 195.074C74.0992 195.107 72.9466 198.104 72.7819 201.463C72.7819 201.627 72.6173 201.759 72.4526 201.759Z" fill="white"/>
<path d="M91.1531 226.095L224.885 148.905C226.795 147.786 229.924 147.786 231.867 148.905L307.805 192.736C309.715 193.856 311.263 196.457 311.263 198.532C311.263 200.607 309.715 203.208 307.772 204.328L174.073 281.518C172.163 282.637 169.034 282.637 167.092 281.518L91.186 237.687C89.2431 236.567 87.6953 233.966 87.6953 231.891C87.6953 229.783 89.2431 227.215 91.1531 226.095Z" fill="url(#paint0_linear_1207_18590)"/>
<path opacity="0.5" d="M311.266 198.532C311.266 200.639 309.719 203.208 307.809 204.327L174.077 281.517C173.122 282.077 171.87 282.373 170.586 282.373V274.799C171.87 274.799 173.122 274.536 174.077 273.976L307.809 196.786C309.488 195.798 309.686 194.283 308.434 193.197C310.048 194.448 311.266 196.687 311.266 198.532Z" fill="#096DB7"/>
<path opacity="0.7" d="M170.582 274.8V282.341C169.331 282.341 168.079 282.078 167.092 281.518L91.1531 237.687C89.2431 236.567 87.6953 233.966 87.6953 231.891C87.6953 229.915 89.0455 227.511 90.8237 226.326C89.2431 227.445 89.3748 229.092 91.1531 230.113L167.092 273.977C168.079 274.536 169.331 274.8 170.582 274.8Z" fill="#096DB7"/>
<path d="M84.4087 226.227C82.5975 225.173 82.6963 223.428 82.6963 221.188V116.304C82.6963 114.064 84.2769 111.364 86.1869 110.277L219.919 33.0544C221.829 31.9677 224.859 31.9019 226.67 32.9557C228.481 33.9765 228.382 35.7548 228.382 37.9611V142.846C228.382 145.085 226.802 147.785 224.892 148.905L91.1595 226.095C89.2495 227.215 86.2199 227.248 84.4087 226.227Z" fill="#BDD8FF"/>
<path opacity="0.3" d="M228.384 37.9611C228.384 35.7548 226.803 34.8327 224.893 35.9524L91.1611 113.142C90.2061 113.702 89.3499 114.657 88.7242 115.777L83.7188 112.879C84.3444 111.759 85.2336 110.804 86.1886 110.244L219.921 33.0544C221.831 31.9677 224.86 31.9019 226.672 32.9557C228.483 33.9765 228.384 35.7548 228.384 37.9611Z" fill="url(#paint1_linear_1207_18590)"/>
<path opacity="0.7" d="M90.7643 226.293C88.8543 227.215 86.0881 227.182 84.4087 226.227C82.5975 225.173 82.6963 223.428 82.6963 221.188V116.304C82.6963 115.184 83.0914 113.966 83.7171 112.879L88.7226 115.744C88.0969 116.864 87.7018 118.082 87.7018 119.202V224.086C87.7018 226.128 89.019 227.083 90.7643 226.293Z" fill="url(#paint2_linear_1207_18590)"/>
<path d="M93.0356 117.193L221.96 42.7691C223.112 42.1104 224.067 42.6373 224.067 43.9875V135.535C224.067 136.852 223.112 138.499 221.96 139.158L93.0356 213.581C91.883 214.24 90.9609 213.68 90.9609 212.363V120.815C90.9609 119.465 91.883 117.851 93.0356 117.193Z" fill="#FAFAFA"/>
<path d="M120.035 140.211L195.71 96.5122C197.982 95.1949 199.793 96.117 199.793 98.5539C199.793 100.991 197.982 104.02 195.71 105.305L120.035 149.004C117.796 150.288 115.984 149.366 115.984 146.962C115.984 144.525 117.796 141.496 120.035 140.211Z" fill="#F44C3D"/>
<path d="M198.542 98.5535C198.542 100.562 196.962 103.131 195.085 104.218L179.64 113.142L119.409 147.917C118.817 148.279 118.389 148.345 118.125 148.345C117.532 148.345 117.203 147.884 117.203 146.962C117.203 144.953 118.784 142.352 120.661 141.298L179.64 107.247L196.336 97.5985C196.962 97.2363 197.39 97.1704 197.62 97.1704C198.235 97.1704 198.542 97.6314 198.542 98.5535Z" fill="#48BAFF"/>
<path d="M198.542 98.5535C198.542 100.562 196.962 103.131 195.085 104.218L179.64 113.142L119.409 147.917C118.817 148.279 118.389 148.345 118.125 148.345C117.532 148.345 117.203 147.884 117.203 146.962C117.203 144.953 118.784 142.352 120.661 141.298L179.64 107.247L196.336 97.5985C196.962 97.2363 197.39 97.1704 197.62 97.1704C198.235 97.1704 198.542 97.6314 198.542 98.5535Z" fill="#FF7064"/>
<path opacity="0.6" d="M137.95 137.215L119.409 147.917C118.817 148.279 118.389 148.345 118.125 148.345C117.532 148.345 117.203 147.884 117.203 146.962C117.203 144.953 118.784 142.352 120.661 141.298L137.95 131.287V137.215Z" fill="white"/>
<path opacity="0.4" d="M137.984 131.287L158.961 119.168V125.096L137.984 137.215V131.287Z" fill="white"/>
<path opacity="0.3" d="M100.843 226.292L224.926 154.635C225.914 154.075 227.462 154.075 228.417 154.635L230.491 155.787C231.446 156.347 231.446 157.236 230.491 157.796L106.375 229.421C105.387 229.98 103.839 229.98 102.884 229.421L100.843 228.301C99.8546 227.741 99.8546 226.852 100.843 226.292Z" fill="black" fill-opacity="0.6"/>
<path opacity="0.55" fill-rule="evenodd" clip-rule="evenodd" d="M217.631 190.84L213.91 188.699C213.745 188.633 213.778 188.469 213.942 188.37L217.828 186.13C217.993 186.032 218.256 186.032 218.388 186.13L222.109 188.271C222.241 188.337 222.241 188.501 222.076 188.6L218.191 190.84C218.026 190.938 217.762 190.938 217.631 190.84ZM213.086 183.068L216.807 185.208C216.939 185.274 216.939 185.439 216.775 185.538L212.889 187.777C212.724 187.876 212.461 187.876 212.329 187.777L208.608 185.636C208.443 185.571 208.476 185.406 208.641 185.307L212.526 183.068C212.691 182.969 212.922 182.969 213.086 183.068ZM200.54 190.313L204.228 192.453C204.393 192.519 204.36 192.684 204.195 192.782L197.642 196.569C197.477 196.668 197.214 196.668 197.082 196.602L193.361 194.429C193.196 194.363 193.229 194.198 193.394 194.133L199.947 190.313C200.112 190.214 200.375 190.214 200.54 190.313ZM207.389 186.328L211.11 188.469C211.275 188.567 211.242 188.699 211.078 188.798L207.192 191.037C207.027 191.136 206.796 191.169 206.632 191.07L202.911 188.93C202.779 188.831 202.779 188.699 202.944 188.6L206.829 186.361C206.994 186.262 207.258 186.262 207.389 186.328ZM192.142 195.121L195.863 197.294C196.028 197.36 195.995 197.524 195.831 197.623L191.945 199.863C191.78 199.961 191.55 199.961 191.385 199.863L187.664 197.722C187.532 197.623 187.532 197.492 187.697 197.393L191.582 195.153C191.747 195.055 192.011 195.055 192.142 195.121ZM186.478 198.414L190.199 200.554C190.331 200.653 190.331 200.785 190.166 200.883L186.281 203.123C186.116 203.222 185.852 203.222 185.721 203.156L182 201.015C181.835 200.916 181.868 200.785 182.032 200.686L185.918 198.447C186.083 198.348 186.314 198.315 186.478 198.414ZM199.914 207.206L196.193 205.066C196.061 204.967 196.061 204.835 196.226 204.736L200.112 202.497C200.276 202.398 200.54 202.398 200.671 202.464L204.393 204.638C204.557 204.703 204.524 204.868 204.36 204.934L200.474 207.206C200.309 207.272 200.079 207.305 199.914 207.206ZM194.25 210.499L190.529 208.359C190.364 208.26 190.397 208.128 190.562 208.029L194.447 205.757C194.612 205.691 194.843 205.658 195.007 205.757L198.728 207.898C198.86 207.996 198.86 208.128 198.695 208.227L194.81 210.466C194.645 210.565 194.382 210.565 194.25 210.499ZM188.553 213.759L184.832 211.619C184.7 211.553 184.7 211.388 184.865 211.29L188.75 209.05C188.915 208.951 189.178 208.951 189.31 209.017L193.031 211.191C193.196 211.257 193.163 211.421 192.998 211.52L189.113 213.759C188.948 213.858 188.717 213.858 188.553 213.759ZM182.889 217.052L179.168 214.912C179.003 214.813 179.036 214.681 179.2 214.583L183.086 212.343C183.251 212.245 183.514 212.212 183.646 212.31L187.367 214.451C187.499 214.55 187.499 214.681 187.334 214.78L183.449 217.02C183.284 217.118 183.02 217.118 182.889 217.052ZM211.934 194.133L208.213 191.992C208.081 191.893 208.081 191.762 208.245 191.663L212.131 189.424C212.296 189.325 212.559 189.325 212.724 189.391L216.412 191.531C216.577 191.63 216.544 191.762 216.379 191.86L212.494 194.1C212.329 194.198 212.098 194.231 211.934 194.133ZM205.611 203.946L201.89 201.773C201.725 201.707 201.758 201.542 201.923 201.443L205.512 199.402C205.677 199.303 205.677 199.138 205.545 199.072L200.77 196.306C200.605 196.207 200.638 196.076 200.803 195.977L205.282 193.375C205.446 193.309 205.677 193.276 205.841 193.375L214.865 198.578C214.996 198.677 214.996 198.809 214.832 198.908L206.171 203.913C206.006 204.012 205.743 204.012 205.611 203.946ZM180.781 201.707L184.502 203.847C184.667 203.913 184.634 204.078 184.469 204.177L180.584 206.416C180.419 206.515 180.188 206.515 180.024 206.416L176.303 204.275C176.171 204.209 176.171 204.045 176.335 203.946L180.221 201.707C180.386 201.608 180.649 201.608 180.781 201.707ZM175.117 204.967L178.838 207.107C178.97 207.206 178.97 207.338 178.805 207.437L174.919 209.676C174.755 209.775 174.491 209.808 174.36 209.709L170.638 207.568C170.474 207.47 170.507 207.338 170.671 207.239L174.557 205C174.722 204.901 174.985 204.901 175.117 204.967ZM139.42 237.865C139.255 237.766 139.288 237.634 139.453 237.535L143.339 235.296C143.503 235.197 143.734 235.197 143.899 235.263L147.62 237.404C147.751 237.503 147.751 237.634 147.587 237.733L143.701 239.972C143.536 240.071 143.273 240.071 143.108 240.005L139.42 237.865ZM129.705 231.213L133.427 233.353C133.591 233.452 133.558 233.584 133.394 233.683L129.508 235.922C129.343 236.021 129.08 236.021 128.948 235.955L125.227 233.814C125.095 233.715 125.095 233.584 125.26 233.485L129.146 231.246C129.31 231.147 129.574 231.114 129.705 231.213ZM132.636 235.658C132.472 235.56 132.505 235.428 132.669 235.329L136.555 233.09C136.72 232.991 136.983 232.991 137.115 233.057L140.836 235.23C140.968 235.296 140.968 235.461 140.803 235.527L136.917 237.799C136.753 237.865 136.489 237.898 136.357 237.799L132.636 235.658ZM151.44 241.355L147.719 239.215C147.587 239.116 147.587 238.984 147.751 238.886L151.637 236.646C151.802 236.548 152.065 236.548 152.23 236.613L155.918 238.754C156.083 238.853 156.05 238.984 155.885 239.083L152 241.323C151.835 241.421 151.604 241.454 151.44 241.355ZM142.054 242.475C141.89 242.409 141.923 242.245 142.087 242.146L145.973 239.906C146.138 239.808 146.401 239.808 146.533 239.906L150.254 242.047C150.386 242.113 150.386 242.278 150.221 242.376L146.335 244.616C146.171 244.714 145.907 244.714 145.776 244.649L142.054 242.475ZM135.369 227.92L139.091 230.06C139.255 230.126 139.222 230.291 139.058 230.389L135.172 232.629C135.007 232.728 134.777 232.728 134.612 232.629L130.891 230.488C130.759 230.422 130.759 230.258 130.924 230.159L134.81 227.92C134.974 227.821 135.238 227.821 135.369 227.92ZM163.789 211.52L167.51 213.661C167.642 213.759 167.642 213.891 167.477 213.99L163.591 216.229C163.427 216.328 163.163 216.328 162.998 216.262L159.31 214.089C159.146 214.023 159.178 213.858 159.343 213.792L163.229 211.52C163.394 211.454 163.624 211.421 163.789 211.52ZM141.067 224.627L144.788 226.767C144.919 226.866 144.919 226.998 144.755 227.096L140.869 229.336C140.704 229.434 140.441 229.434 140.309 229.369L136.588 227.228C136.423 227.129 136.456 226.998 136.621 226.899L140.507 224.66C140.671 224.561 140.902 224.561 141.067 224.627ZM169.453 208.227L173.174 210.368C173.339 210.466 173.306 210.598 173.141 210.697L169.255 212.936C169.091 213.035 168.827 213.068 168.696 212.969L164.974 210.829C164.843 210.73 164.843 210.598 165.007 210.499L168.893 208.26C169.058 208.161 169.321 208.161 169.453 208.227ZM158.092 214.78L161.813 216.954C161.978 217.02 161.945 217.184 161.78 217.25L157.894 219.522C157.73 219.621 157.466 219.621 157.334 219.522L153.613 217.382C153.481 217.283 153.481 217.151 153.646 217.052L157.532 214.813C157.697 214.714 157.96 214.714 158.092 214.78ZM152.428 218.073L156.149 220.214C156.281 220.313 156.281 220.444 156.116 220.543L152.23 222.782C152.065 222.881 151.802 222.881 151.67 222.815L147.949 220.675C147.784 220.576 147.817 220.444 147.982 220.346L151.868 218.106C152.033 218.007 152.263 217.975 152.428 218.073ZM146.731 221.366L150.452 223.507C150.616 223.573 150.584 223.737 150.419 223.836L146.533 226.076C146.368 226.174 146.138 226.174 145.973 226.076L142.252 223.935C142.12 223.869 142.12 223.705 142.285 223.606L146.171 221.366C146.335 221.268 146.599 221.268 146.731 221.366ZM198.004 220.576C198.169 220.675 198.136 220.807 197.971 220.905L165.995 239.38C165.831 239.478 165.567 239.478 165.435 239.38L161.714 237.239C161.55 237.14 161.582 237.009 161.747 236.91L193.723 218.436C193.888 218.37 194.151 218.337 194.283 218.436L198.004 220.576ZM225.666 175.79L229.387 177.931C229.519 178.029 229.519 178.161 229.354 178.26L225.468 180.499C225.304 180.598 225.04 180.598 224.908 180.532L221.187 178.359C221.023 178.293 221.056 178.128 221.22 178.062L225.106 175.79C225.271 175.724 225.501 175.691 225.666 175.79ZM218.783 179.742L222.504 181.915C222.636 181.981 222.636 182.146 222.472 182.212L218.586 184.484C218.421 184.55 218.158 184.583 218.026 184.484L214.305 182.343C214.14 182.245 214.173 182.113 214.338 182.014L218.223 179.775C218.388 179.676 218.652 179.676 218.783 179.742ZM231.33 172.497L235.051 174.638C235.216 174.736 235.183 174.868 235.018 174.967L231.132 177.206C230.968 177.305 230.704 177.338 230.573 177.239L226.851 175.099C226.72 175 226.72 174.868 226.884 174.769L230.77 172.53C230.935 172.431 231.198 172.431 231.33 172.497ZM198.827 201.707L195.106 199.566C194.941 199.467 194.974 199.336 195.139 199.237L199.025 196.998C199.189 196.899 199.453 196.899 199.585 196.965L203.306 199.105C203.438 199.204 203.438 199.336 203.273 199.434L199.387 201.674C199.222 201.773 198.959 201.806 198.827 201.707ZM240.748 171.377C240.88 171.443 240.88 171.608 240.715 171.707L236.829 173.946C236.665 174.045 236.401 174.045 236.237 173.946L232.548 171.806C232.384 171.74 232.417 171.575 232.581 171.476L236.467 169.237C236.632 169.138 236.862 169.138 237.027 169.237L240.748 171.377ZM177.225 220.313L173.503 218.139C173.372 218.073 173.372 217.909 173.536 217.843L177.422 215.571C177.587 215.505 177.85 215.472 177.982 215.571L181.703 217.711C181.868 217.81 181.835 217.942 181.67 218.04L177.784 220.28C177.62 220.378 177.389 220.378 177.225 220.313ZM246.873 180.104L243.152 177.931C243.02 177.865 243.02 177.7 243.185 177.601L247.071 175.362C247.236 175.263 247.499 175.263 247.631 175.362L251.352 177.503C251.517 177.568 251.484 177.733 251.319 177.832L247.433 180.071C247.268 180.17 247.038 180.17 246.873 180.104ZM235.874 180.302L232.186 178.161C232.022 178.062 232.054 177.931 232.219 177.832L236.105 175.593C236.27 175.494 236.5 175.494 236.665 175.56L240.386 177.7C240.518 177.799 240.518 177.931 240.353 178.029L236.467 180.269C236.303 180.368 236.039 180.4 235.874 180.302ZM246.05 174.44C246.182 174.506 246.182 174.67 246.017 174.769L242.131 177.009C241.967 177.107 241.703 177.107 241.571 177.009L237.85 174.868C237.719 174.802 237.719 174.638 237.883 174.539L241.769 172.299C241.934 172.201 242.197 172.201 242.329 172.299L246.05 174.44ZM243.58 171.279L247.466 169.006C247.631 168.941 247.861 168.908 248.026 169.006L257.049 174.209C257.181 174.308 257.181 174.44 257.016 174.539L253.13 176.778C252.966 176.877 252.702 176.877 252.57 176.811L243.547 171.575C243.383 171.509 243.416 171.344 243.58 171.279ZM230.968 178.853L234.689 180.993C234.854 181.059 234.821 181.224 234.656 181.323L230.77 183.562C230.605 183.661 230.342 183.661 230.21 183.562L226.489 181.421C226.357 181.355 226.357 181.191 226.522 181.092L230.408 178.853C230.573 178.754 230.836 178.754 230.968 178.853ZM188.223 203.518L191.945 205.658C192.109 205.757 192.076 205.889 191.912 205.988L188.026 208.227C187.861 208.326 187.598 208.326 187.466 208.26L183.745 206.119C183.613 206.021 183.613 205.889 183.778 205.79L187.664 203.551C187.828 203.452 188.092 203.419 188.223 203.518ZM237.488 181.224C237.323 181.125 237.356 180.993 237.521 180.894L241.407 178.655C241.571 178.556 241.835 178.556 241.967 178.622L245.688 180.763C245.82 180.861 245.82 180.993 245.655 181.092L241.769 183.331C241.604 183.43 241.341 183.43 241.209 183.364L237.488 181.224ZM193.921 200.258L197.642 202.398C197.773 202.464 197.773 202.629 197.609 202.728L193.723 204.967C193.525 205.066 193.295 205.066 193.13 204.967L189.409 202.826C189.277 202.76 189.277 202.596 189.442 202.497L193.328 200.258C193.525 200.159 193.756 200.159 193.921 200.258ZM145.117 234.539C144.952 234.473 144.985 234.308 145.15 234.209L149.036 231.97C149.2 231.871 149.464 231.871 149.596 231.97L153.317 234.111C153.449 234.177 153.449 234.341 153.284 234.44L149.398 236.679C149.233 236.778 148.97 236.778 148.838 236.679L145.117 234.539ZM142.779 229.764L146.5 231.904C146.665 232.003 146.632 232.135 146.467 232.234L142.581 234.473C142.417 234.572 142.186 234.572 142.022 234.506L138.3 232.365C138.169 232.267 138.169 232.135 138.333 232.036L142.219 229.797C142.384 229.698 142.647 229.665 142.779 229.764ZM154.502 233.419L150.781 231.279C150.649 231.18 150.649 231.048 150.814 230.949L154.7 228.71C154.865 228.611 155.128 228.611 155.26 228.677L158.981 230.818C159.146 230.916 159.113 231.048 158.948 231.147L155.062 233.386C154.897 233.485 154.667 233.518 154.502 233.419ZM160.199 230.159L156.478 227.986C156.314 227.92 156.346 227.755 156.511 227.656L160.397 225.417C160.562 225.318 160.792 225.318 160.957 225.417L164.678 227.557C164.81 227.623 164.81 227.788 164.645 227.887L160.759 230.126C160.595 230.225 160.331 230.225 160.199 230.159ZM165.863 226.866L162.142 224.725C162.011 224.627 162.011 224.495 162.175 224.396L166.061 222.157C166.226 222.058 166.489 222.058 166.621 222.124L170.342 224.264C170.507 224.363 170.474 224.495 170.309 224.594L166.423 226.833C166.259 226.932 166.028 226.965 165.863 226.866ZM148.476 226.471L152.197 228.644C152.329 228.71 152.329 228.875 152.164 228.941L148.278 231.213C148.114 231.279 147.85 231.312 147.719 231.213L143.997 229.072C143.833 228.973 143.866 228.842 144.03 228.743L147.916 226.504C148.081 226.405 148.311 226.405 148.476 226.471ZM154.14 223.211L157.861 225.351C158.026 225.45 157.993 225.582 157.828 225.68L153.942 227.92C153.778 228.018 153.514 228.018 153.383 227.953L149.661 225.779C149.53 225.713 149.53 225.549 149.694 225.483L153.58 223.211C153.745 223.145 154.008 223.112 154.14 223.211ZM176.862 210.104L180.584 212.245C180.715 212.31 180.715 212.475 180.551 212.574L176.665 214.813C176.5 214.912 176.237 214.912 176.105 214.813L172.384 212.673C172.252 212.607 172.252 212.442 172.417 212.343L176.303 210.104C176.467 210.005 176.731 210.005 176.862 210.104ZM171.198 213.364L174.919 215.505C175.051 215.604 175.051 215.735 174.887 215.834L171.001 218.073C170.836 218.172 170.573 218.172 170.408 218.106L166.72 215.966C166.555 215.867 166.588 215.735 166.753 215.636L170.638 213.397C170.803 213.298 171.034 213.298 171.198 213.364ZM182.559 206.811L186.248 208.951C186.412 209.05 186.379 209.182 186.215 209.281L182.329 211.52C182.164 211.619 181.934 211.619 181.769 211.553L178.048 209.413C177.916 209.314 177.916 209.182 178.081 209.083L181.967 206.844C182.131 206.745 182.395 206.712 182.559 206.811ZM159.837 219.917L163.558 222.058C163.69 222.157 163.69 222.288 163.525 222.387L159.64 224.627C159.475 224.725 159.211 224.758 159.047 224.66L155.359 222.519C155.194 222.42 155.227 222.288 155.391 222.19L159.277 219.95C159.442 219.852 159.672 219.852 159.837 219.917ZM165.501 216.657L169.222 218.798C169.387 218.864 169.354 219.028 169.189 219.127L165.304 221.366C165.139 221.465 164.876 221.465 164.744 221.366L161.023 219.226C160.891 219.16 160.891 218.995 161.056 218.897L164.941 216.657C165.106 216.559 165.369 216.559 165.501 216.657ZM157.137 238.029L153.416 235.889C153.251 235.823 153.284 235.658 153.449 235.56L157.334 233.32C157.499 233.222 157.762 233.222 157.894 233.32L161.615 235.461C161.747 235.527 161.747 235.691 161.582 235.79L157.697 238.029C157.532 238.128 157.269 238.128 157.137 238.029ZM127.697 236.943L123.811 239.182C123.646 239.281 123.416 239.281 123.251 239.182L119.53 237.041C119.398 236.976 119.398 236.811 119.563 236.712L123.449 234.473C123.613 234.374 123.877 234.374 124.041 234.473L127.73 236.613C127.894 236.679 127.861 236.844 127.697 236.943ZM135.106 238.787L129.146 242.245C128.981 242.343 128.717 242.343 128.586 242.278L124.865 240.104C124.7 240.038 124.733 239.874 124.897 239.808L130.858 236.35C131.023 236.251 131.286 236.251 131.418 236.317L135.139 238.458C135.304 238.556 135.271 238.688 135.106 238.787ZM122.164 232.695L117.389 235.461C117.225 235.56 116.961 235.56 116.829 235.461L113.108 233.32C112.944 233.254 112.977 233.09 113.141 232.991L117.916 230.258C118.081 230.159 118.344 230.126 118.476 230.225L122.197 232.365C122.329 232.464 122.329 232.596 122.164 232.695ZM122.131 228.117C122 228.018 122 227.887 122.164 227.788L126.05 225.549C126.215 225.45 126.478 225.417 126.643 225.516L130.331 227.656C130.496 227.755 130.463 227.887 130.298 227.986L126.412 230.225C126.248 230.324 126.017 230.324 125.852 230.258L122.131 228.117ZM141.923 240.993L134.447 245.307C134.283 245.406 134.019 245.406 133.888 245.34L130.166 243.2C130.002 243.101 130.035 242.969 130.199 242.87L137.675 238.556C137.839 238.458 138.103 238.458 138.234 238.523L141.956 240.664C142.087 240.763 142.087 240.894 141.923 240.993ZM144.524 245.636L139.749 248.37C139.585 248.468 139.321 248.501 139.189 248.403L135.468 246.262C135.337 246.163 135.337 246.032 135.501 245.933L140.276 243.167C140.441 243.068 140.704 243.068 140.869 243.134L144.557 245.307C144.722 245.373 144.689 245.538 144.524 245.636ZM164.382 203.748C164.217 203.65 164.25 203.518 164.415 203.419L168.3 201.147C168.465 201.081 168.696 201.048 168.86 201.147L172.581 203.287C172.713 203.386 172.713 203.518 172.548 203.617L168.663 205.856C168.498 205.955 168.234 205.955 168.103 205.889L164.382 203.748ZM153.02 210.302C152.856 210.203 152.889 210.071 153.053 209.972L156.939 207.733C157.104 207.634 157.334 207.634 157.499 207.7L161.22 209.841C161.352 209.939 161.352 210.071 161.187 210.17L157.301 212.409C157.137 212.508 156.873 212.541 156.709 212.442L153.02 210.302ZM127.861 224.857C127.697 224.758 127.73 224.627 127.894 224.528L131.78 222.288C131.945 222.19 132.175 222.157 132.34 222.256L136.061 224.396C136.193 224.495 136.193 224.627 136.028 224.725L132.142 226.965C131.978 227.063 131.714 227.063 131.55 226.998L127.861 224.857ZM158.75 207.042C158.586 206.943 158.619 206.811 158.783 206.712L162.669 204.473C162.834 204.374 163.097 204.341 163.229 204.44L166.95 206.58C167.082 206.679 167.082 206.811 166.917 206.91L163.031 209.149C162.867 209.248 162.603 209.248 162.472 209.182L158.75 207.042ZM147.389 213.595C147.225 213.496 147.258 213.364 147.422 213.265L151.308 211.026C151.473 210.927 151.736 210.927 151.868 210.993L155.589 213.134C155.721 213.233 155.721 213.397 155.556 213.463L151.67 215.735C151.506 215.801 151.242 215.834 151.11 215.735L147.389 213.595ZM151.11 247.711C151.275 247.777 151.242 247.942 151.078 248.04L145.117 251.465C144.952 251.564 144.689 251.597 144.557 251.498L140.836 249.358C140.671 249.259 140.704 249.127 140.869 249.028L146.829 245.571C146.994 245.472 147.258 245.472 147.422 245.571L151.11 247.711ZM139.189 218.304C139.058 218.205 139.058 218.073 139.222 217.975L143.108 215.735C143.273 215.636 143.536 215.636 143.668 215.702L147.389 217.843C147.554 217.942 147.521 218.073 147.356 218.172L143.47 220.411C143.306 220.51 143.075 220.543 142.911 220.444L139.189 218.304ZM133.525 221.597C133.361 221.498 133.394 221.366 133.558 221.268L137.444 219.028C137.609 218.93 137.839 218.897 138.004 218.995L141.725 221.136C141.857 221.235 141.857 221.366 141.692 221.465L137.806 223.705C137.642 223.803 137.378 223.803 137.247 223.737L133.525 221.597ZM256.324 186.954C256.456 187.052 256.456 187.184 256.292 187.283L246.709 192.815C246.544 192.914 246.281 192.914 246.149 192.815L242.428 190.675C242.296 190.609 242.296 190.444 242.461 190.346L252.043 184.846C252.208 184.747 252.439 184.714 252.603 184.813L256.324 186.954ZM243.745 194.198C243.91 194.297 243.877 194.429 243.712 194.528L239.826 196.767C239.661 196.866 239.431 196.866 239.266 196.8L235.545 194.66C235.413 194.561 235.413 194.429 235.578 194.33L239.464 192.058C239.629 191.992 239.892 191.959 240.057 192.058L243.745 194.198ZM162.801 234.802L159.08 232.662C158.915 232.563 158.948 232.431 159.113 232.332L162.998 230.06C163.163 229.994 163.427 229.961 163.558 230.06L167.279 232.201C167.411 232.299 167.411 232.431 167.247 232.53L163.361 234.769C163.196 234.868 162.933 234.868 162.801 234.802ZM232.384 200.752C232.515 200.85 232.515 200.982 232.351 201.081L228.465 203.32C228.3 203.419 228.037 203.419 227.872 203.353L224.184 201.18C224.019 201.114 224.052 200.949 224.217 200.883L228.103 198.611C228.267 198.545 228.498 198.512 228.663 198.611L232.384 200.752ZM261.956 183.661C262.12 183.759 262.087 183.891 261.923 183.99L258.037 186.229C257.872 186.328 257.642 186.328 257.477 186.262L253.756 184.089C253.624 184.023 253.624 183.858 253.789 183.792L257.675 181.52C257.839 181.454 258.103 181.421 258.234 181.52L261.956 183.661ZM267.62 180.697L263.734 182.936C263.569 183.035 263.306 183.035 263.174 182.969L254.151 177.766C253.986 177.667 254.019 177.535 254.184 177.437L258.07 175.197C258.234 175.099 258.465 175.066 258.63 175.164L267.653 180.368C267.784 180.466 267.784 180.598 267.62 180.697ZM211.143 213.002C211.308 213.068 211.275 213.232 211.11 213.331L206.335 216.097C206.171 216.163 205.907 216.196 205.776 216.097L202.054 213.957C201.923 213.858 201.923 213.726 202.087 213.628L206.862 210.861C207.027 210.763 207.29 210.763 207.422 210.861L211.143 213.002ZM225.501 204.703C225.666 204.802 225.633 204.934 225.468 205.033L219.508 208.49C219.343 208.589 219.08 208.589 218.915 208.49L215.227 206.35C215.062 206.284 215.095 206.119 215.26 206.021L221.22 202.563C221.385 202.497 221.648 202.464 221.78 202.563L225.501 204.703ZM171.528 223.606L167.839 221.432C167.675 221.366 167.708 221.202 167.872 221.103L171.758 218.864C171.923 218.765 172.153 218.765 172.318 218.864L176.039 221.004C176.171 221.07 176.171 221.235 176.006 221.333L172.12 223.573C171.956 223.672 171.692 223.672 171.528 223.606ZM164.217 240.071C164.382 240.17 164.349 240.302 164.184 240.4L159.409 243.167C159.244 243.265 158.981 243.265 158.849 243.2L155.128 241.026C154.996 240.96 154.996 240.796 155.161 240.697L159.936 237.964C160.101 237.865 160.364 237.832 160.529 237.931L164.217 240.071ZM204.557 216.789C204.689 216.855 204.689 217.02 204.524 217.085L199.749 219.852C199.585 219.95 199.321 219.95 199.189 219.885L195.468 217.744C195.304 217.645 195.337 217.514 195.501 217.415L200.276 214.649C200.441 214.55 200.704 214.55 200.836 214.616L204.557 216.789ZM157.631 243.891C157.762 243.99 157.762 244.122 157.598 244.22L152.823 246.987C152.658 247.085 152.395 247.085 152.263 246.987L148.542 244.846C148.377 244.78 148.41 244.616 148.575 244.517L153.35 241.784C153.514 241.685 153.778 241.652 153.91 241.751L157.631 243.891ZM217.73 209.215C217.861 209.281 217.861 209.445 217.697 209.511L212.889 212.278C212.724 212.376 212.494 212.376 212.329 212.31L208.608 210.17C208.476 210.071 208.476 209.939 208.641 209.841L213.449 207.074C213.613 206.976 213.844 206.976 214.008 207.042L217.73 209.215ZM238.048 197.492C238.18 197.59 238.18 197.722 238.015 197.821L234.129 200.06C233.964 200.159 233.701 200.159 233.569 200.093L229.848 197.92C229.683 197.854 229.716 197.689 229.881 197.623L233.767 195.351C233.931 195.285 234.195 195.252 234.327 195.351L238.048 197.492ZM246.478 186.493L242.757 184.319C242.625 184.253 242.625 184.089 242.79 184.023L246.676 181.751C246.84 181.685 247.104 181.652 247.268 181.751L250.957 183.891C251.121 183.99 251.088 184.122 250.924 184.22L247.038 186.46C246.873 186.559 246.643 186.559 246.478 186.493ZM223.295 187.612L219.607 185.439C219.442 185.373 219.475 185.208 219.64 185.11L223.525 182.87C223.69 182.771 223.921 182.771 224.085 182.87L227.806 185.011C227.938 185.11 227.938 185.241 227.773 185.34L223.888 187.579C223.723 187.678 223.459 187.678 223.295 187.612ZM208.213 208.556L204.524 206.416C204.36 206.35 204.393 206.185 204.557 206.087L215.885 199.533C216.05 199.434 216.313 199.434 216.478 199.533L220.199 201.674C220.331 201.74 220.331 201.904 220.133 202.003L208.805 208.556C208.641 208.655 208.377 208.655 208.213 208.556ZM237.093 187.612C236.928 187.546 236.961 187.382 237.126 187.283L241.012 185.044C241.176 184.945 241.44 184.945 241.571 185.011L245.293 187.184C245.424 187.25 245.424 187.415 245.26 187.514L241.374 189.753C241.209 189.852 240.946 189.852 240.814 189.753L237.093 187.612ZM235.479 186.69L231.791 184.55C231.626 184.484 231.659 184.319 231.824 184.22L235.71 181.981C235.874 181.882 236.105 181.882 236.27 181.981L239.991 184.122C240.123 184.187 240.122 184.352 239.958 184.451L236.072 186.69C235.907 186.789 235.644 186.789 235.479 186.69ZM202.548 211.849L198.827 209.709C198.696 209.61 198.696 209.478 198.86 209.38L202.746 207.14C202.911 207.042 203.174 207.041 203.306 207.107L207.027 209.281C207.159 209.347 207.159 209.511 206.994 209.61L203.108 211.849C202.944 211.948 202.68 211.948 202.548 211.849ZM224.546 194.857C224.382 194.791 224.414 194.627 224.579 194.528L228.465 192.288C228.63 192.19 228.86 192.19 229.025 192.288L232.746 194.429C232.878 194.495 232.878 194.659 232.713 194.758L228.827 196.998C228.663 197.096 228.399 197.096 228.234 197.031L224.546 194.857ZM174.162 228.216L170.474 226.076C170.309 226.01 170.342 225.845 170.507 225.746L174.393 223.507C174.557 223.408 174.788 223.408 174.952 223.474L178.674 225.647C178.805 225.713 178.805 225.878 178.641 225.977L174.755 228.216C174.59 228.315 174.327 228.315 174.162 228.216ZM179.859 224.956L176.138 222.815C176.006 222.717 176.006 222.585 176.171 222.486L180.057 220.247C180.221 220.148 180.485 220.115 180.616 220.214L184.338 222.354C184.469 222.453 184.469 222.585 184.305 222.684L180.419 224.923C180.254 225.022 179.991 225.022 179.859 224.956ZM168.498 231.509L164.777 229.369C164.645 229.27 164.645 229.138 164.81 229.039L168.696 226.8C168.86 226.701 169.124 226.701 169.255 226.767L172.977 228.908C173.141 229.006 173.108 229.138 172.944 229.237L169.058 231.476C168.893 231.575 168.63 231.575 168.498 231.509ZM191.22 218.403L187.499 216.229C187.334 216.163 187.367 215.999 187.532 215.9L191.418 213.661C191.582 213.562 191.846 213.562 191.978 213.661L195.699 215.801C195.831 215.9 195.831 216.032 195.666 216.13L191.78 218.37C191.615 218.468 191.352 218.469 191.22 218.403ZM185.523 221.663L181.802 219.522C181.67 219.423 181.67 219.292 181.835 219.193L185.721 216.954C185.885 216.855 186.149 216.855 186.314 216.921L190.002 219.094C190.166 219.16 190.133 219.325 189.969 219.391L186.083 221.663C185.918 221.729 185.688 221.762 185.523 221.663ZM196.884 215.11L193.163 212.969C193.031 212.87 193.031 212.739 193.196 212.64L197.082 210.4C197.247 210.302 197.51 210.302 197.675 210.368L201.363 212.508C201.528 212.607 201.495 212.739 201.33 212.837L197.444 215.077C197.279 215.175 197.049 215.208 196.884 215.11ZM227.477 168.908C227.312 168.809 227.345 168.677 227.51 168.578L231.396 166.339C231.56 166.24 231.791 166.24 231.956 166.306L232.944 166.899C233.075 166.965 233.075 167.129 232.911 167.195L229.025 169.467C228.86 169.566 228.597 169.566 228.465 169.467L227.477 168.908ZM196.489 185.208C196.357 185.142 196.357 184.978 196.555 184.879L200.441 182.64C200.605 182.541 200.836 182.541 201.001 182.64L204.722 184.78C204.854 184.846 204.854 185.011 204.689 185.11L200.803 187.349C200.638 187.448 200.375 187.448 200.21 187.349L196.489 185.208ZM207.85 178.655C207.719 178.589 207.719 178.425 207.883 178.326L211.769 176.087C211.934 175.988 212.197 175.988 212.329 176.087L216.05 178.227C216.215 178.293 216.182 178.458 216.017 178.556L212.131 180.796C211.967 180.894 211.736 180.894 211.571 180.796L207.85 178.655ZM189.574 189.226C189.409 189.127 189.442 188.995 189.607 188.897L193.492 186.657C193.657 186.559 193.888 186.559 194.052 186.624L197.773 188.798C197.905 188.864 197.905 189.028 197.741 189.127L193.855 191.366C193.69 191.465 193.427 191.465 193.295 191.366L189.574 189.226ZM202.186 181.948C202.022 181.849 202.054 181.718 202.219 181.619L206.105 179.38C206.27 179.281 206.5 179.281 206.665 179.347L210.386 181.52C210.518 181.586 210.518 181.751 210.353 181.849L206.467 184.089C206.303 184.188 206.039 184.188 205.907 184.089L202.186 181.948ZM178.213 195.812C178.048 195.713 178.081 195.582 178.245 195.483L182.131 193.243C182.296 193.145 182.526 193.112 182.691 193.211L186.412 195.351C186.544 195.45 186.544 195.582 186.379 195.68L182.494 197.92C182.329 198.018 182.065 198.018 181.901 197.953L178.213 195.812ZM183.91 192.519C183.745 192.453 183.778 192.288 183.942 192.19L187.828 189.95C187.993 189.852 188.256 189.852 188.388 189.95L192.109 192.091C192.241 192.157 192.241 192.321 192.076 192.42L188.191 194.66C188.026 194.758 187.762 194.758 187.631 194.66L183.91 192.519ZM216.116 175.494C215.984 175.428 215.984 175.263 216.149 175.197L220.035 172.925C220.199 172.826 220.463 172.826 220.595 172.925L221.582 173.485C221.747 173.584 221.714 173.715 221.55 173.814L217.664 176.054C217.499 176.152 217.236 176.152 217.104 176.087L216.116 175.494ZM233.141 165.647C233.009 165.549 233.009 165.417 233.174 165.318L237.06 163.079C237.225 162.98 237.488 162.98 237.653 163.046L238.641 163.639C238.772 163.705 238.772 163.869 238.608 163.968L234.722 166.207C234.557 166.306 234.294 166.306 234.129 166.207L233.141 165.647ZM238.245 168.578C238.081 168.512 238.114 168.348 238.278 168.282L242.164 166.01C242.329 165.944 242.592 165.911 242.724 166.01L246.445 168.15C246.577 168.249 246.577 168.381 246.412 168.479L242.526 170.719C242.362 170.818 242.098 170.818 241.967 170.752L238.245 168.578ZM252.208 183.2L248.487 181.059C248.355 180.96 248.355 180.829 248.52 180.73L252.406 178.49C252.57 178.392 252.834 178.359 252.966 178.458L256.687 180.598C256.851 180.697 256.818 180.829 256.654 180.927L252.768 183.167C252.603 183.265 252.34 183.265 252.208 183.2ZM221.78 172.201C221.648 172.102 221.648 171.97 221.813 171.871L225.699 169.632C225.863 169.533 226.127 169.533 226.292 169.599L227.279 170.159C227.411 170.258 227.411 170.389 227.247 170.488L223.361 172.728C223.196 172.826 222.933 172.859 222.768 172.76L221.78 172.201ZM172.548 199.072C172.384 198.973 172.417 198.842 172.581 198.743L176.467 196.504C176.632 196.405 176.895 196.405 177.027 196.471L180.748 198.611C180.88 198.71 180.88 198.842 180.715 198.941L176.829 201.18C176.665 201.279 176.401 201.279 176.27 201.213L172.548 199.072Z" fill="#F0F6FF"/>
<path opacity="0.55" d="M231.343 207.983L253.308 220.661L252.517 221.122L214.91 242.857L193.736 230.639L192.945 230.178L231.343 207.983Z" fill="#F0F6FF"/>
<path d="M84.4074 226.194C84.7367 226.391 85.099 226.545 85.4942 226.655C85.099 226.545 84.7367 226.402 84.4074 226.227C84.2977 226.161 84.1879 226.084 84.0781 225.996C84.1879 226.084 84.2977 226.15 84.4074 226.194Z" fill="#48BAFF"/>
<path d="M90.5312 226.556C90.5312 226.523 90.5642 226.523 90.5642 226.49C90.5642 226.512 90.5532 226.523 90.5312 226.523C90.5312 226.545 90.5312 226.556 90.5312 226.556Z" fill="#48BAFF"/>
<path d="M335.968 0.321076L338.471 1.70417C339.196 2.13227 339.821 3.18606 339.821 4.04226V97.6976C339.821 98.5538 339.196 99.6076 338.471 100.036L254.827 148.345C254.069 148.773 252.851 148.773 252.093 148.345L249.624 146.962C248.866 146.534 248.273 145.48 248.273 144.624V50.9687C248.273 50.1125 248.866 49.0587 249.624 48.6306L333.268 0.321076C334.025 -0.107025 335.244 -0.107025 335.968 0.321076Z" fill="#FAFAFA"/>
<path d="M253.469 147.555V53.8992C253.469 53.043 254.061 51.9892 254.819 51.5611L338.463 3.25159C339.188 2.82349 339.813 3.18573 339.813 4.04193V97.6972C339.813 98.5534 339.188 99.6072 338.463 100.035L254.819 148.345C254.061 148.773 253.469 148.411 253.469 147.555Z" fill="#37474F"/>
<path d="M254.827 148.345C254.102 148.74 252.785 148.773 252.093 148.345L249.624 146.962C248.866 146.534 248.273 145.48 248.273 144.624V50.9685C248.273 50.5075 248.438 50.0136 248.702 49.5854L253.872 52.5822C253.608 52.9773 253.477 53.4713 253.477 53.8994V147.555C253.477 148.345 254.036 148.806 254.827 148.345Z" fill="#263238"/>
<path d="M339.782 3.81175C339.683 3.1202 339.123 2.85675 338.465 3.25192L254.82 51.5615C254.425 51.759 254.096 52.1542 253.865 52.5823L248.695 49.5856C248.926 49.1904 249.255 48.8282 249.617 48.6306L333.262 0.321076C334.019 -0.107025 335.238 -0.107025 335.995 0.321076L338.465 1.70417C339.123 2.09934 339.683 2.98847 339.782 3.81175Z" fill="#455A64"/>
<path d="M238.063 106.984C237.24 106.457 233.288 104.218 233.091 104.086C232.465 103.724 232.235 102.802 232.794 102.176L248.371 85.4473L253.475 88.3781L237.899 105.074C237.339 105.7 237.503 106.556 238.063 106.984Z" fill="#FAFAFA"/>
<path d="M238.063 106.984C237.24 106.457 233.288 104.218 233.091 104.086C232.465 103.724 232.235 102.802 232.794 102.176L248.371 85.4473L253.475 88.3781L237.899 105.074C237.339 105.7 237.503 106.556 238.063 106.984Z" fill="#455A64"/>
<path d="M253.477 105.996L238.921 107.182C237.769 107.281 237.11 105.931 237.901 105.074L253.477 88.3784V105.996Z" fill="#FAFAFA"/>
<path d="M253.477 105.996L238.921 107.182C237.769 107.281 237.11 105.931 237.901 105.074L253.477 88.3784V105.996Z" fill="#37474F"/>
<path d="M305.674 83.4055C306.86 84.097 307.584 85.5789 307.584 87.6535C307.584 91.8687 304.62 97.0059 300.998 99.1135C299.154 100.167 297.507 100.266 296.289 99.5416C295.531 99.1135 292.568 97.4011 291.777 96.94C290.592 96.2485 289.867 94.7666 289.867 92.692C289.867 88.4768 292.831 83.3396 296.486 81.232C298.33 80.1782 299.977 80.0794 301.195 80.8039C301.953 81.2649 304.917 82.9444 305.674 83.4055Z" fill="#EBEBEB"/>
<path d="M300.998 99.1135C299.154 100.167 297.507 100.266 296.289 99.5416C295.531 99.1135 292.568 97.4011 291.777 96.9401C290.592 96.2485 289.867 94.7667 289.867 92.692C289.867 91.7041 290.032 90.7162 290.328 89.6953L303.369 97.2035C302.611 97.9609 301.821 98.6196 300.998 99.1135Z" fill="#E0E0E0"/>
<path d="M307.58 87.6535C307.58 91.8687 304.617 97.0059 300.994 99.1135C297.339 101.221 294.375 99.5087 294.375 95.2935C294.375 91.0784 297.339 85.9412 300.961 83.8336C304.616 81.726 307.58 83.4384 307.58 87.6535Z" fill="#FAFAFA"/>
<path d="M305.248 89.004C305.248 91.7372 303.338 95.0303 301 96.4134C298.629 97.7636 296.719 96.6439 296.719 93.9436C296.719 91.2104 298.629 87.9173 300.967 86.5342C303.338 85.184 305.248 86.2707 305.248 89.004Z" fill="#37474F"/>
<path d="M329.577 74.9096C329.577 75.5023 329.577 76.0292 329.544 76.6549L322.069 80.9688L317.59 78.3673C317.623 77.8733 317.623 77.1489 317.623 76.6549C317.623 71.5506 316.404 67.4672 314.297 64.6022L320.356 55.9414L324.835 58.5429C327.831 62.3629 329.577 67.8953 329.577 74.9096Z" fill="#48BAFF"/>
<path d="M329.581 74.9091C329.581 75.5019 329.581 76.0288 329.548 76.6544L322.073 80.9684C322.106 80.4744 322.106 79.7499 322.106 79.2231C322.106 74.1517 320.92 70.0683 318.812 67.2033L324.839 58.5425C327.836 62.3625 329.581 67.8948 329.581 74.9091Z" fill="#48BAFF"/>
<path opacity="0.1" d="M318.808 67.2038L314.297 64.6022L320.356 55.9414L324.835 58.5429L318.808 67.2038Z" fill="black" fill-opacity="0.6"/>
<path opacity="0.2" d="M322.101 79.2233C322.101 79.7502 322.101 80.4747 322.069 80.9687L317.59 78.3671C317.623 77.8732 317.623 77.1487 317.623 76.6547C317.623 71.5505 316.404 67.467 314.297 64.6021L318.808 67.2036C320.916 70.0686 322.101 74.152 322.101 79.2233Z" fill="black" fill-opacity="0.6"/>
<path d="M323.514 56.4022L317.487 65.0301L312.976 62.4286C312.888 62.3627 312.811 62.2859 312.745 62.1981C310.934 61.6712 308.925 61.5395 306.785 61.8358L302.273 59.2343L304.513 49.6185C308.827 48.9269 312.713 49.5856 315.907 51.4626C316.598 51.8578 319.332 53.4055 320.32 53.9654C320.517 54.0971 320.715 54.2178 320.912 54.3276C321.044 54.4154 321.165 54.5032 321.275 54.5911C321.406 54.6789 321.538 54.7667 321.67 54.8545C321.758 54.9204 321.845 54.9862 321.933 55.0521C322.306 55.3375 322.669 55.6339 323.02 55.9412C323.174 56.0949 323.338 56.2486 323.514 56.4022Z" fill="#48BAFF"/>
<path opacity="0.2" d="M317.492 65.0298L312.98 62.4283L312.75 62.1978C314.528 62.7576 316.142 63.7126 317.492 65.0298Z" fill="black" fill-opacity="0.6"/>
<path opacity="0.2" d="M323.526 56.4024L317.499 65.0303C314.799 62.3629 311.111 61.2103 306.797 61.836L309.003 52.2202C314.865 51.2982 319.903 52.813 323.526 56.4024Z" fill="white"/>
<path opacity="0.1" d="M304.513 49.6187L308.991 52.2202L306.785 61.836L302.273 59.2345L304.513 49.6187Z" fill="black" fill-opacity="0.6"/>
<path opacity="0.5" d="M315.91 51.4626C316.601 51.8578 319.335 53.4055 320.322 53.9654C317.128 52.1871 313.308 51.5285 308.994 52.22L304.516 49.6185C308.83 48.9269 312.715 49.5856 315.91 51.4626Z" fill="white"/>
<path d="M306.86 52.6484L304.621 62.2642C302.645 62.7911 300.537 63.6473 298.364 64.8987C296.19 66.1501 294.083 67.7307 292.074 69.509L287.595 66.9075L285.422 59.7944C288.089 57.3904 290.921 55.3158 293.819 53.6363C296.783 51.9239 299.648 50.7384 302.348 50.0469L306.86 52.6484Z" fill="#48BAFF"/>
<path opacity="0.1" d="M285.422 59.7944L289.9 62.396L292.074 69.509L287.595 66.9075L285.422 59.7944Z" fill="black" fill-opacity="0.6"/>
<path opacity="0.6" d="M306.86 52.6484C304.127 53.34 301.262 54.5255 298.331 56.2049C295.4 57.9173 292.568 59.992 289.9 62.3959L285.422 59.7944C288.089 57.3904 290.921 55.3158 293.819 53.6363C296.783 51.9239 299.648 50.7384 302.348 50.0469L306.86 52.6484Z" fill="white"/>
<path opacity="0.4" d="M306.85 52.6484L304.611 62.2642C302.635 62.7911 300.527 63.6473 298.354 64.8987C296.18 66.1501 294.073 67.7308 292.064 69.509L289.891 62.396C292.558 59.992 295.39 57.9174 298.321 56.205C301.252 54.5255 304.117 53.34 306.85 52.6484Z" fill="white"/>
<path d="M289.967 71.5173C285.983 75.5678 282.492 80.5404 279.858 85.8422L273.996 83.7017L269.484 81.1002C273.074 73.9213 277.816 67.2363 283.282 61.8027L287.794 64.4043L289.967 71.5173Z" fill="#48BAFF"/>
<path opacity="0.7" d="M287.794 64.4043C282.327 69.8379 277.552 76.5228 273.996 83.7017L269.484 81.1002C273.074 73.9213 277.816 67.2363 283.282 61.8027L287.794 64.4043Z" fill="white"/>
<path opacity="0.6" d="M289.964 71.5174C285.979 75.6008 282.488 80.5404 279.854 85.8423L273.992 83.7018C277.549 76.5228 282.324 69.8379 287.79 64.4043L289.964 71.5174Z" fill="white"/>
<path d="M278.509 88.7404C276.138 94.3057 274.755 99.7393 274.656 105.14L267.082 109.52L262.57 106.918C262.735 99.5087 264.744 91.5724 268.136 84.0312L274.03 86.1718L278.509 88.7404Z" fill="#48BAFF"/>
<path opacity="0.6" d="M272.604 86.6328L268.125 84.0312L274.02 86.1718L278.498 88.7404L272.604 86.6328Z" fill="white"/>
<path opacity="0.9" d="M272.614 86.6328C269.255 94.174 267.214 102.11 267.082 109.52L262.57 106.918C262.735 99.5087 264.744 91.5724 268.136 84.0312L272.614 86.6328Z" fill="white"/>
<path opacity="0.7" d="M278.505 88.7404V88.7733C276.134 94.3057 274.751 99.7393 274.652 105.14L267.078 109.52C267.21 102.11 269.252 94.174 272.611 86.6328L278.505 88.7404Z" fill="white"/>
<path d="M293.683 101.386L292.497 100.727L292.398 95.8864L324.835 70.6943L326.054 71.3859L293.683 101.386Z" fill="#E0E0E0"/>
<path d="M293.685 101.386L293.586 96.5778L326.056 71.3857L293.685 101.386Z" fill="#EBEBEB"/>
<path d="M324.835 70.6943L326.054 71.3859L293.584 96.578L292.398 95.8864L324.835 70.6943Z" fill="white"/>
<defs>
<filter id="filter0_f_1207_18590" x="-7" y="67" width="411.625" height="279.926" filterUnits="userSpaceOnUse" color-interpolation-filters="sRGB">
<feFlood flood-opacity="0" result="BackgroundImageFix"/>
<feBlend mode="normal" in="SourceGraphic" in2="BackgroundImageFix" result="shape"/>
<feGaussianBlur stdDeviation="25" result="effect1_foregroundBlur_1207_18590"/>
</filter>
<linearGradient id="paint0_linear_1207_18590" x1="87.6953" y1="215.211" x2="311.263" y2="215.211" gradientUnits="userSpaceOnUse">
<stop offset="0.390625" stop-color="#3D8BFD"/>
<stop offset="1" stop-color="#1273FF"/>
</linearGradient>
<linearGradient id="paint1_linear_1207_18590" x1="83.7188" y1="73.9889" x2="228.385" y2="73.9889" gradientUnits="userSpaceOnUse">
<stop offset="0.390625" stop-color="#3D8BFD"/>
<stop offset="1" stop-color="#1273FF"/>
</linearGradient>
<linearGradient id="paint2_linear_1207_18590" x1="82.6953" y1="169.922" x2="90.7643" y2="169.922" gradientUnits="userSpaceOnUse">
<stop offset="0.390625" stop-color="#3D8BFD"/>
<stop offset="1" stop-color="#1273FF"/>
</linearGradient>
</defs>
</svg>
