<?xml version="1.0" encoding="utf-8"?>
<!-- Generator: Adobe Illustrator 24.2.0, SVG Export Plug-In . SVG Version: 6.00 Build 0)  -->
<svg version="1.1" id="Layer_1" xmlns="http://www.w3.org/2000/svg" xmlns:xlink="http://www.w3.org/1999/xlink" x="0px" y="0px"
	 viewBox="0 0 500 500" style="enable-background:new 0 0 500 500;" xml:space="preserve">
<style type="text/css">
	.st0{fill:#456287;}
	.st1{fill:#2196F3;}
	.st2{fill:#1C79D0;}
</style>
<g>
	<g>
		<path class="st2" d="M336.1,227.2c0-4.6-2.6-7.3-7.2-7.7c-4.2-0.4-8.4-0.7-12.6-1c-6.8-0.5-13.7-1-20.5-1.5
			c-2.9-6.6-5.5-13.4-8.8-19.8c-2.3-4.6-1.3-7.6,2.2-11c5.9-5.7,11.4-11.6,16.8-17.8c4.3-5,4.2-8.8-0.4-13.5
			c-9.5-9.7-19.1-19.3-28.8-28.8c-6-5.9-9.2-6-15.5-0.4c-6.3,5.6-12.4,11.5-18.5,17.3c-2.2,2.1-4.2,2.9-7.2,1.6
			c-6.1-2.7-12.2-5.3-18.4-7.6c-3.8-1.4-4.7-4-4.7-7.7c-0.1-8.1-0.6-16.3-1.1-24.4c-0.5-8.4-2.2-10.2-10.3-10.3
			c-13.6-0.2-27.1-0.2-40.7,0c-8.1,0.1-10,2.1-10.5,10.2c-0.5,8.4-0.9,16.9-1.1,25.3c-0.1,3.5-1.3,5.5-4.6,6.8
			c-5.7,2.1-11.3,4.2-16.7,7c-4.3,2.2-7.1,1-10.3-2.1c-5.7-5.8-11.7-11.3-17.9-16.7c-5.4-4.7-9-4.7-14.2,0.3
			c-9.7,9.5-19.3,19.1-28.8,28.8c-5.5,5.7-5.7,8.9-0.4,14.8c5.4,6.1,11,12,16.8,17.8c3,2.9,3.9,5.6,2,9.6
			c-2.5,5.2-4.6,10.5-6.5,15.9c-1.5,4.3-3.9,6.1-8.7,6c-8.4-0.1-16.9,0.5-25.3,1.1c-7,0.5-9,2.5-9.1,9.7c-0.2,14.2-0.2,28.4,0,42.6
			c0.1,6.2,2.6,8.6,8.8,9.2c3.3,0.3,6.6,0.1,9.9,0.3c6.9,0.4,13.8,0.8,20.7,1.2c3.1,6.5,6.4,12.8,9.3,19.4c3.1,7,2.4,8.1-2.8,13.3
			c-5.5,5.5-10.9,11.2-15.8,17.2c-5.1,6.2-4.8,8.2,0.8,13.8c9.6,9.6,19.2,19.1,29,28.5c5.7,5.4,9.8,5.4,15.7-0.1
			c5.9-5.5,11.8-11.2,17.3-17.2c2.8-3,5.6-3.1,8.9-1.7c5.5,2.4,10.8,5.2,16.3,7.6c3,1.3,4.9,3,5.1,6.6c0.3,6.2,0.6,21.2,0.7,22.4
			c0.9,11.4,3.2,13.5,14.6,13.5c12.4,0,24.7,0.1,37.1,0c7.8-0.1,10.2-2.4,10.7-10.2c0.5-7.8,1.2-15.7,1-23.5c-0.2-5.6,2-8.3,7-9.8
			c4.9-1.5,9.7-3.2,14.4-5.3c6.4-2.8,6.4-2.9,11.2,2.1c4.8,5,9.7,9.9,14.7,14.7c7.2,6.7,10.5,6.8,17.6-0.1
			c8.9-8.6,17.4-17.5,26.3-26c7-6.6,7.5-10.2,1-17.5c-5.2-5.8-10.5-11.5-16.1-17c-3-3-3.7-5.7-1.7-9.6c2.4-4.8,4.6-9.9,6.2-15.1
			c1.6-5.2,4.7-7,10-6.9c8.1,0.2,16.3-0.2,24.4-0.7c6.1-0.4,8.6-2.6,8.7-8.2C336.3,257.4,336.2,242.3,336.1,227.2z M179.3,309.2
			c-33.7,0-61-27.3-61-61s27.3-61,61-61s61,27.3,61,61S212.9,309.2,179.3,309.2z"/>
	</g>
	<g>
		<path class="st2" d="M475,115.7c0-2.6-1.4-4.1-4-4.4c-2.4-0.3-4.7-0.4-7.1-0.6c-3.9-0.3-7.7-0.7-11.6-1c-1.6-3.7-3-7.6-4.8-11.2
			c-1.3-2.6-0.7-4.3,1.3-6.2c3.3-3.1,6.5-6.5,9.6-9.9c2.5-2.8,2.4-4.9-0.1-7.6c-5.3-5.6-10.6-11-16-16.5c-3.4-3.4-5.1-3.4-8.7-0.3
			c-3.6,3.1-7.1,6.4-10.6,9.6c-1.2,1.2-2.4,1.6-4.1,0.8c-3.4-1.6-6.8-3.1-10.3-4.4c-2.1-0.8-2.6-2.3-2.6-4.4c0-4.6-0.2-9.2-0.4-13.8
			c-0.2-4.8-1.2-5.8-5.7-5.9c-7.6-0.2-15.3-0.3-23-0.3c-4.6,0-5.7,1.1-6,5.7c-0.3,4.8-0.6,9.5-0.8,14.3c-0.1,2-0.8,3.1-2.7,3.8
			c-3.2,1.1-6.4,2.3-9.5,3.8c-2.5,1.2-4,0.5-5.8-1.3c-3.2-3.3-6.5-6.5-9.9-9.5c-3-2.7-5.1-2.7-8,0.1c-5.6,5.3-11,10.6-16.5,16
			c-3.2,3.2-3.3,5-0.4,8.4c3,3.5,6.1,6.9,9.3,10.1c1.7,1.7,2.2,3.2,1.1,5.4c-1.4,2.9-2.7,5.9-3.8,8.9c-0.9,2.4-2.3,3.4-4.9,3.3
			c-4.7-0.1-9.5,0.1-14.3,0.4c-4,0.2-5.1,1.3-5.2,5.4c-0.2,8-0.3,16-0.3,24c0,3.5,1.4,4.9,4.9,5.2c1.9,0.2,3.7,0.1,5.6,0.3
			c3.9,0.3,7.8,0.6,11.6,0.8c1.7,3.7,3.5,7.3,5.1,11c1.7,4,1.3,4.6-1.7,7.5c-3.2,3-6.2,6.2-9,9.6c-2.9,3.5-2.8,4.6,0.3,7.8
			c5.3,5.5,10.7,10.9,16.2,16.3c3.2,3.1,5.5,3.1,8.8,0.1c3.4-3.1,6.7-6.2,9.9-9.5c1.6-1.7,3.2-1.7,5-0.9c3.1,1.4,6.1,3,9.2,4.4
			c1.7,0.8,2.8,1.7,2.8,3.8c0.1,3.5,0.2,12,0.2,12.6c0.5,6.4,1.7,7.6,8.1,7.7c7,0.1,13.9,0.3,20.9,0.2c4.4,0,5.8-1.3,6.1-5.7
			c0.3-4.4,0.8-8.8,0.7-13.2c0-3.1,1.2-4.7,4-5.5c2.8-0.8,5.5-1.7,8.1-2.9c3.6-1.5,3.6-1.6,6.3,1.3c2.7,2.9,5.4,5.7,8.2,8.4
			c4,3.9,5.9,3.9,9.9,0.1c5.1-4.8,9.9-9.7,15-14.5c4-3.7,4.3-5.7,0.7-9.9c-2.9-3.3-5.9-6.6-8.9-9.7c-1.7-1.7-2-3.2-0.9-5.4
			c1.4-2.7,2.6-5.5,3.6-8.4c1-2.9,2.7-3.9,5.7-3.8c4.6,0.1,9.2,0,13.8-0.2c3.4-0.2,4.9-1.4,5-4.6C474.9,132.7,474.9,124.2,475,115.7
			z M386,160.8c-19-0.2-34.2-15.9-33.9-34.9s15.8-34.2,34.8-34c19,0.2,34.2,15.9,33.9,34.9S405,161.1,386,160.8z"/>
	</g>
	<g>
		<path class="st2" d="M474.8,360.7c0-2.6-1.5-4.1-4.1-4.4c-2.4-0.2-4.7-0.4-7.1-0.5c-3.9-0.3-7.7-0.6-11.6-0.9
			c-1.6-3.7-3.1-7.5-5-11.2c-1.3-2.6-0.7-4.3,1.3-6.2c3.3-3.2,6.4-6.6,9.5-10c2.4-2.8,2.4-5-0.2-7.6c-5.3-5.5-10.8-10.9-16.2-16.3
			c-3.4-3.3-5.2-3.4-8.7-0.2c-3.6,3.2-7,6.5-10.4,9.8c-1.2,1.2-2.4,1.7-4.1,0.9c-3.4-1.5-6.9-3-10.4-4.3c-2.1-0.8-2.6-2.2-2.7-4.3
			c-0.1-4.6-0.3-9.2-0.6-13.8c-0.3-4.8-1.2-5.8-5.8-5.8c-7.7-0.1-15.3-0.1-23,0c-4.6,0.1-5.6,1.2-5.9,5.8c-0.3,4.8-0.5,9.5-0.6,14.3
			c0,2-0.7,3.1-2.6,3.8c-3.2,1.2-6.4,2.4-9.4,3.9c-2.4,1.2-4,0.6-5.8-1.2c-3.2-3.2-6.6-6.4-10.1-9.4c-3-2.7-5.1-2.6-8,0.2
			c-5.5,5.3-10.9,10.8-16.3,16.2c-3.1,3.2-3.2,5-0.3,8.4c3,3.4,6.2,6.8,9.5,10c1.7,1.7,2.2,3.2,1.1,5.4c-1.4,2.9-2.6,5.9-3.7,9
			c-0.9,2.4-2.2,3.4-4.9,3.4c-4.7,0-9.5,0.3-14.3,0.6c-4,0.3-5,1.4-5.1,5.5c-0.1,8-0.1,16,0,24c0,3.5,1.5,4.8,5,5.2
			c1.9,0.2,3.7,0.1,5.6,0.2c3.9,0.2,7.8,0.5,11.7,0.7c1.8,3.6,3.6,7.2,5.2,10.9c1.7,4,1.4,4.6-1.6,7.5c-3.1,3.1-6.1,6.3-8.9,9.7
			c-2.9,3.5-2.7,4.6,0.4,7.8c5.4,5.4,10.8,10.8,16.4,16c3.2,3.1,5.5,3,8.8,0c3.4-3.1,6.6-6.3,9.8-9.7c1.6-1.7,3.2-1.8,5-1
			c3.1,1.4,6.1,2.9,9.2,4.3c1.7,0.7,2.8,1.7,2.9,3.7c0.1,3.5,0.4,11.9,0.4,12.6c0.5,6.4,1.8,7.6,8.2,7.6c7,0,13.9,0.1,20.9,0
			c4.4-0.1,5.7-1.4,6-5.8c0.3-4.4,0.7-8.8,0.6-13.3c-0.1-3.1,1.2-4.7,3.9-5.5c2.7-0.9,5.5-1.8,8.1-3c3.6-1.6,3.6-1.6,6.3,1.2
			c2.7,2.8,5.5,5.6,8.3,8.3c4.1,3.8,5.9,3.8,9.9-0.1c5-4.8,9.8-9.9,14.8-14.6c3.9-3.7,4.2-5.8,0.6-9.9c-2.9-3.3-5.9-6.5-9.1-9.6
			c-1.7-1.7-2.1-3.2-1-5.4c1.4-2.7,2.6-5.6,3.5-8.5c0.9-3,2.6-4,5.7-3.9c4.6,0.1,9.2-0.1,13.8-0.4c3.4-0.2,4.9-1.5,4.9-4.6
			C475,377.7,474.9,369.2,474.8,360.7z M386.4,407c-19,0-34.4-15.4-34.4-34.4s15.4-34.4,34.4-34.4c19,0,34.4,15.4,34.4,34.4
			S405.4,407,386.4,407z"/>
	</g>
</g>
</svg>
