<svg width="400" height="400" viewBox="0 0 400 400" fill="none" xmlns="http://www.w3.org/2000/svg">
<path fill-rule="evenodd" clip-rule="evenodd" d="M73.9661 150.298C74.7833 149.802 75.6588 149.451 76.5344 149.189L77.0597 146.65L81.3791 146.562L81.992 149.101C82.8967 149.305 83.7723 149.656 84.6187 150.123L86.7784 148.693L89.872 151.669L88.5295 153.917C89.0256 154.705 89.405 155.58 89.6385 156.485L92.2068 157.01L92.2652 161.3L89.7552 161.943C89.5218 162.818 89.1715 163.723 88.7046 164.54L90.1346 166.729L87.1578 169.823L84.9397 168.451C84.1225 168.947 83.247 169.326 82.3422 169.589L81.8169 172.128L77.5267 172.216L76.9138 169.677C76.009 169.443 75.1335 169.122 74.2871 168.655L72.1274 170.085L69.0338 167.079L70.3763 164.861C69.8802 164.044 69.5008 163.198 69.2381 162.293L66.699 161.767L66.6406 157.448L69.1505 156.835C69.384 155.93 69.7342 155.055 70.172 154.238L68.7711 152.049L71.748 148.955L73.9661 150.298ZM76.2717 156.018C74.4914 157.857 74.5498 160.775 76.3885 162.555C78.1979 164.336 81.1164 164.277 82.8967 162.439C84.677 160.6 84.6187 157.682 82.78 155.93C80.9413 154.15 78.0228 154.209 76.2717 156.018Z" fill="#F5F5F5"/>
<path fill-rule="evenodd" clip-rule="evenodd" d="M223.066 78.1812C223.766 77.7726 224.496 77.4515 225.255 77.2181L225.693 75.0584L229.37 75L229.895 77.1597C230.654 77.3348 231.413 77.6267 232.113 78.0061L233.952 76.8095L236.608 79.3486L235.44 81.2456C235.878 81.9461 236.199 82.6757 236.404 83.4345L238.563 83.8723L238.651 87.5496L236.491 88.0749C236.287 88.8337 235.995 89.5926 235.616 90.293L236.812 92.1609L234.273 94.7875L232.376 93.6493C231.705 94.0579 230.946 94.3789 230.187 94.5832L229.749 96.7429L226.072 96.8305L225.547 94.6708C224.788 94.4665 224.029 94.1746 223.329 93.7952L221.49 95.021L218.863 92.4527L220.001 90.5849C219.564 89.8844 219.272 89.1548 219.038 88.3668L216.879 87.929L216.82 84.2809L218.951 83.7264C219.155 82.9675 219.447 82.2379 219.826 81.5083L218.63 79.6696L221.169 77.043L223.066 78.1812ZM225.021 83.0551C223.504 84.6019 223.562 87.1118 225.109 88.6003C226.685 90.1179 229.166 90.0595 230.683 88.5127C232.172 86.9367 232.142 84.456 230.566 82.9384C229.02 81.4499 226.539 81.4791 225.021 83.0551Z" fill="#F5F5F5"/>
<path fill-rule="evenodd" clip-rule="evenodd" d="M99.2267 80.6619C100.336 79.9906 101.532 79.4653 102.787 79.115L103.517 75.6128L109.471 75.4961L110.317 78.9983C111.572 79.2902 112.769 79.7571 113.936 80.3992L116.942 78.4438L121.203 82.5589L119.364 85.6525C120.036 86.7616 120.532 87.9581 120.911 89.2131L124.413 89.9427L124.53 95.8965L121.028 96.7429C120.736 97.9978 120.24 99.1944 119.598 100.362L121.583 103.368L117.438 107.629L114.374 105.761C113.236 106.462 112.039 106.958 110.813 107.308L110.084 110.839L104.13 110.956L103.283 107.454C102.029 107.133 100.803 106.666 99.6645 106.024L96.6584 108.008L92.3682 103.864L94.2361 100.8C93.5648 99.6614 93.0395 98.4648 92.6893 97.239L89.1871 96.5094L89.0703 90.5556L92.5725 89.7092C92.8644 88.4543 93.3605 87.2285 93.9734 86.0903L92.018 83.0842L96.1623 78.794L99.2267 80.6619ZM102.379 88.6002C99.9272 91.1393 100.015 95.1669 102.554 97.6184C105.064 100.07 109.12 100.012 111.572 97.4725C114.024 94.9334 113.936 90.8767 111.397 88.4251C108.887 86.0027 104.83 86.0611 102.379 88.6002Z" fill="#F5F5F5"/>
<path fill-rule="evenodd" clip-rule="evenodd" d="M195.191 182.547C196.008 182.051 196.854 181.672 197.759 181.409L198.284 178.87L202.574 178.782L203.216 181.321C204.121 181.555 204.997 181.876 205.814 182.343L208.003 180.913L211.096 183.919L209.754 186.137C210.221 186.954 210.6 187.83 210.863 188.705L213.402 189.23L213.49 193.55L210.951 194.163C210.717 195.068 210.396 195.943 209.929 196.76L211.359 198.949L208.353 202.043L206.135 200.7C205.318 201.196 204.471 201.547 203.567 201.809L203.041 204.348L198.722 204.436L198.109 201.897C197.204 201.693 196.329 201.342 195.512 200.875L193.323 202.305L190.229 199.329L191.572 197.081C191.075 196.293 190.725 195.418 190.463 194.513L187.923 193.988L187.836 189.697L190.375 189.085C190.579 188.18 190.93 187.304 191.397 186.458L189.966 184.298L192.943 181.175L195.191 182.547ZM197.496 188.297C195.716 190.135 195.774 193.054 197.613 194.834C199.452 196.585 202.37 196.527 204.15 194.717C205.902 192.879 205.872 189.96 204.034 188.18C202.195 186.4 199.277 186.458 197.496 188.297Z" fill="#F5F5F5"/>
<path fill-rule="evenodd" clip-rule="evenodd" d="M207.308 259.538C208.125 259.071 209.001 258.692 209.876 258.429L210.401 255.89L214.721 255.802L215.334 258.341C216.238 258.546 217.114 258.896 217.931 259.363L220.12 257.933L223.214 260.939L221.871 263.157C222.367 263.974 222.718 264.82 222.98 265.725L225.519 266.251L225.607 270.541L223.068 271.183C222.863 272.088 222.513 272.963 222.046 273.78L223.476 275.969L220.499 279.063L218.252 277.72C217.464 278.187 216.589 278.567 215.684 278.829L215.159 281.368L210.868 281.456L210.226 278.917C209.351 278.713 208.446 278.362 207.629 277.895L205.469 279.325L202.346 276.319L203.718 274.101C203.222 273.284 202.842 272.438 202.58 271.533L200.041 271.008L199.953 266.688L202.492 266.075C202.726 265.171 203.047 264.295 203.514 263.478L202.084 261.289L205.09 258.195L207.308 259.538ZM209.584 265.287C207.833 267.097 207.862 270.045 209.701 271.796C211.54 273.576 214.458 273.518 216.238 271.679C218.019 269.84 217.96 266.922 216.122 265.171C214.283 263.39 211.364 263.449 209.584 265.287Z" fill="#F5F5F5"/>
<path fill-rule="evenodd" clip-rule="evenodd" d="M103.995 211.353C104.559 211.022 105.143 210.769 105.746 210.594L106.096 208.872L108.985 208.843L109.423 210.536C110.026 210.692 110.61 210.925 111.174 211.236L112.634 210.273L114.735 212.287L113.83 213.776C114.161 214.34 114.404 214.924 114.56 215.527L116.282 215.877L116.34 218.766L114.647 219.204C114.492 219.807 114.258 220.391 113.947 220.955L114.91 222.414L112.896 224.516L111.379 223.611C110.834 223.942 110.26 224.195 109.657 224.37L109.306 226.062L106.388 226.121L105.979 224.428C105.376 224.272 104.793 224.039 104.228 223.728L102.74 224.691L100.668 222.677L101.572 221.189C101.242 220.624 100.989 220.041 100.814 219.437L99.0917 219.087L99.0625 216.169L100.755 215.76C100.911 215.157 101.144 214.573 101.456 214.009L100.493 212.55L102.506 210.448L103.995 211.353ZM105.542 215.206C104.345 216.461 104.374 218.416 105.6 219.613C106.855 220.809 108.81 220.78 110.007 219.554C111.204 218.299 111.174 216.344 109.949 215.147C108.694 213.951 106.738 213.98 105.542 215.206Z" fill="#F5F5F5"/>
<path fill-rule="evenodd" clip-rule="evenodd" d="M108.307 233.709C109.3 233.125 110.379 232.658 111.459 232.337L112.131 229.215L117.413 229.127L118.172 232.221C119.281 232.483 120.361 232.921 121.382 233.476L124.038 231.724L127.861 235.402L126.198 238.145C126.811 239.137 127.248 240.217 127.569 241.297L130.692 241.968L130.809 247.251L127.686 248.01C127.424 249.119 126.986 250.199 126.431 251.22L128.182 253.876L124.505 257.699L121.762 256.036C120.769 256.649 119.719 257.086 118.61 257.407L117.968 260.53L112.656 260.647L111.897 257.524C110.788 257.261 109.708 256.824 108.687 256.269L106.031 258.02L102.208 254.343L103.871 251.599C103.258 250.607 102.82 249.557 102.499 248.448L99.3766 247.805L99.2891 242.494L102.383 241.735C102.645 240.626 103.083 239.546 103.638 238.525L101.887 235.869L105.564 232.045L108.307 233.709ZM111.138 240.772C108.949 243.019 109.008 246.609 111.284 248.798C113.531 250.957 117.121 250.899 119.31 248.652C121.47 246.405 121.411 242.815 119.164 240.626C116.888 238.437 113.298 238.525 111.138 240.772Z" fill="#F5F5F5"/>
<path d="M335.46 218.649H255.172V83.376H335.46V218.649Z" fill="#E0E0E0"/>
<path d="M333.005 216.402H257.328V85.915H333.005V216.402Z" fill="#F5F5F5"/>
<path d="M325.357 139.704H295.18V92.8906H325.357V139.704Z" fill="white"/>
<path d="M311.872 97.0055C311.872 97.6476 311.347 98.1437 310.734 98.1437C310.121 98.1437 309.625 97.6476 309.625 97.0055C309.625 96.3926 310.121 95.8965 310.734 95.8965C311.347 95.8965 311.872 96.3926 311.872 97.0055Z" fill="#E0E0E0"/>
<path d="M294.951 199.562H264.773V152.749H294.951V199.562Z" fill="white"/>
<path d="M281.472 156.894C281.472 157.506 280.946 158.003 280.334 158.003C279.721 158.003 279.195 157.506 279.195 156.894C279.195 156.252 279.721 155.755 280.334 155.755C280.946 155.755 281.472 156.252 281.472 156.894Z" fill="#E0E0E0"/>
<path d="M290.481 129.518H264.711V92.9487H290.481V129.518Z" fill="white"/>
<path d="M275.996 116.946C275.802 116.986 275.678 117.163 275.718 117.357C275.721 117.373 275.726 117.397 275.738 117.412L278.983 125.891C279.069 126.101 279.289 126.232 279.515 126.186L286.449 124.764C286.618 124.73 286.739 124.578 286.73 124.412L286.357 115.243C286.351 115.05 286.186 114.899 285.995 114.913C285.979 114.916 285.953 114.913 285.937 114.917L275.996 116.946ZM283.381 122.042L281.167 122.496L279.926 119.483L283.28 118.796L283.381 122.042Z" fill="#2684FF"/>
<path d="M286.471 118.141L283.28 118.796L283.389 122.04L281.167 122.496L279.185 126.136C279.281 126.192 279.394 126.211 279.507 126.187L286.449 124.764C286.618 124.73 286.739 124.578 286.73 124.412L286.471 118.141Z" fill="url(#paint0_linear_1207_18676)"/>
<path d="M278.165 96.1888C278.165 96.7141 277.756 97.1227 277.231 97.1227C276.705 97.1227 276.297 96.7141 276.297 96.1888C276.297 95.6927 276.705 95.2549 277.231 95.2549C277.756 95.2549 278.165 95.6927 278.165 96.1888Z" fill="#E0E0E0"/>
<path d="M328.075 168.655L300.495 171.778L298.773 156.485L326.353 153.391L328.075 168.655Z" fill="white"/>
<path d="M313.827 157.827C313.827 158.353 313.418 158.791 312.893 158.791C312.367 158.791 311.93 158.353 311.93 157.827C311.93 157.302 312.367 156.894 312.893 156.894C313.418 156.894 313.827 157.302 313.827 157.827Z" fill="#E0E0E0"/>
<path d="M290.923 163.431C290.923 163.548 286.166 163.636 280.329 163.636C274.492 163.636 269.734 163.548 269.734 163.431C269.734 163.285 274.492 163.198 280.329 163.198C286.166 163.198 290.923 163.285 290.923 163.431Z" fill="#E0E0E0"/>
<path d="M290.923 166.758C290.923 166.904 286.166 166.991 280.329 166.991C274.492 166.991 269.734 166.904 269.734 166.758C269.734 166.641 274.492 166.554 280.329 166.554C286.166 166.554 290.923 166.641 290.923 166.758Z" fill="#E0E0E0"/>
<path d="M290.923 170.114C290.923 170.231 286.166 170.348 280.329 170.348C274.492 170.348 269.734 170.231 269.734 170.114C269.734 169.998 274.492 169.91 280.329 169.91C286.166 169.91 290.923 169.998 290.923 170.114Z" fill="#E0E0E0"/>
<path d="M290.923 173.471C290.923 173.588 286.166 173.704 280.329 173.704C274.492 173.704 269.734 173.588 269.734 173.471C269.734 173.354 274.492 173.237 280.329 173.237C286.166 173.237 290.923 173.354 290.923 173.471Z" fill="#E0E0E0"/>
<path d="M290.923 176.827C290.923 176.943 286.166 177.06 280.329 177.06C274.492 177.06 269.734 176.943 269.734 176.827C269.734 176.71 274.492 176.593 280.329 176.593C286.166 176.593 290.923 176.71 290.923 176.827Z" fill="#E0E0E0"/>
<path d="M290.923 180.184C290.923 180.3 286.166 180.388 280.329 180.388C274.492 180.388 269.734 180.3 269.734 180.184C269.734 180.038 274.492 179.95 280.329 179.95C286.166 179.95 290.923 180.038 290.923 180.184Z" fill="#E0E0E0"/>
<path d="M290.923 183.51C290.923 183.656 286.166 183.744 280.329 183.744C274.492 183.744 269.734 183.656 269.734 183.51C269.734 183.394 274.492 183.306 280.329 183.306C286.166 183.306 290.923 183.394 290.923 183.51Z" fill="#E0E0E0"/>
<path d="M323.752 159.841C323.781 159.958 319.082 160.717 313.304 161.534C307.525 162.351 302.826 162.906 302.797 162.789C302.768 162.672 307.467 161.913 313.245 161.096C319.024 160.279 323.752 159.695 323.752 159.841Z" fill="#E0E0E0"/>
<path d="M324.187 161.913C324.187 162.059 319.518 162.818 313.739 163.635C307.931 164.452 303.232 165.007 303.203 164.89C303.203 164.773 307.873 164.015 313.651 163.197C319.459 162.38 324.158 161.797 324.187 161.913Z" fill="#E0E0E0"/>
<path d="M324.572 163.869C324.572 163.985 319.903 164.744 314.124 165.561C308.316 166.378 303.617 166.933 303.617 166.816C303.588 166.699 308.258 165.941 314.066 165.123C319.844 164.306 324.543 163.752 324.572 163.869Z" fill="#E0E0E0"/>
<path d="M322.705 102.668C322.705 102.814 317.335 102.902 310.739 102.902C304.143 102.902 298.773 102.814 298.773 102.668C298.773 102.551 304.143 102.464 310.739 102.464C317.335 102.464 322.705 102.551 322.705 102.668Z" fill="#E0E0E0"/>
<path d="M322.705 104.681C322.705 104.798 317.335 104.886 310.739 104.886C304.143 104.886 298.773 104.798 298.773 104.681C298.773 104.535 304.143 104.448 310.739 104.448C317.335 104.448 322.705 104.535 322.705 104.681Z" fill="#E0E0E0"/>
<path d="M322.705 106.666C322.705 106.783 317.335 106.9 310.739 106.9C304.143 106.9 298.773 106.783 298.773 106.666C298.773 106.549 304.143 106.433 310.739 106.433C317.335 106.433 322.705 106.549 322.705 106.666Z" fill="#E0E0E0"/>
<path d="M322.705 108.65C322.705 108.767 317.335 108.884 310.739 108.884C304.143 108.884 298.773 108.767 298.773 108.65C298.773 108.534 304.143 108.417 310.739 108.417C317.335 108.417 322.705 108.534 322.705 108.65Z" fill="#E0E0E0"/>
<path d="M322.705 110.635C322.705 110.781 317.335 110.868 310.739 110.868C304.143 110.868 298.773 110.781 298.773 110.635C298.773 110.518 304.143 110.431 310.739 110.431C317.335 110.431 322.705 110.518 322.705 110.635Z" fill="#E0E0E0"/>
<path d="M322.705 112.649C322.705 112.766 317.335 112.853 310.739 112.853C304.143 112.853 298.773 112.766 298.773 112.649C298.773 112.503 304.143 112.416 310.739 112.416C317.335 112.416 322.705 112.503 322.705 112.649Z" fill="#E0E0E0"/>
<path d="M322.705 114.633C322.705 114.75 317.335 114.867 310.739 114.867C304.143 114.867 298.773 114.75 298.773 114.633C298.773 114.517 304.143 114.4 310.739 114.4C317.335 114.4 322.705 114.517 322.705 114.633Z" fill="#E0E0E0"/>
<path d="M322.705 120.529C322.705 120.675 317.335 120.762 310.739 120.762C304.143 120.762 298.773 120.675 298.773 120.529C298.773 120.412 304.143 120.325 310.739 120.325C317.335 120.325 322.705 120.412 322.705 120.529Z" fill="#E0E0E0"/>
<path d="M322.885 122.63C322.885 122.776 317.515 122.864 310.919 122.864C304.323 122.864 298.953 122.776 298.953 122.63C298.953 122.513 304.323 122.426 310.919 122.426C317.515 122.426 322.885 122.513 322.885 122.63Z" fill="#E0E0E0"/>
<path d="M323.02 124.761C323.02 124.878 317.679 124.965 311.083 124.965C304.458 124.965 299.117 124.878 299.117 124.761C299.117 124.615 304.458 124.527 311.083 124.527C317.679 124.527 323.02 124.615 323.02 124.761Z" fill="#E0E0E0"/>
<path d="M323.192 126.862C323.192 126.979 317.851 127.067 311.226 127.067C304.63 127.067 299.289 126.979 299.289 126.862C299.289 126.716 304.63 126.629 311.226 126.629C317.851 126.629 323.192 126.716 323.192 126.862Z" fill="#E0E0E0"/>
<path d="M323.371 128.963C323.371 129.08 318.001 129.167 311.405 129.167C304.81 129.167 299.469 129.08 299.469 128.963C299.469 128.846 304.81 128.729 311.405 128.729C318.001 128.729 323.371 128.846 323.371 128.963Z" fill="#E0E0E0"/>
<path d="M323.549 131.065C323.549 131.181 318.179 131.298 311.583 131.298C304.987 131.298 299.617 131.181 299.617 131.065C299.617 130.948 304.987 130.831 311.583 130.831C318.179 130.831 323.549 130.948 323.549 131.065Z" fill="#E0E0E0"/>
<path d="M155.818 110.022H138.511C137.315 110.022 136.352 109.059 136.352 107.862V83.9307C136.352 82.7341 137.315 81.771 138.511 81.771H149.485L157.978 90.4973V107.862C157.978 109.059 157.015 110.022 155.818 110.022Z" fill="#FFC514"/>
<path opacity="0.1" d="M155.322 110.022H138.978C137.519 110.022 136.352 108.855 136.352 107.396V101.442H157.978V107.396C157.978 108.855 156.781 110.022 155.322 110.022Z" fill="#333333"/>
<path d="M144 106.987L144.555 106.345C144.788 106.637 145.051 106.812 145.343 106.812C145.722 106.812 145.926 106.55 145.926 106.083V104.069H144.467V103.31H146.919V106.053C146.919 107.075 146.393 107.6 145.401 107.6C144.817 107.6 144.321 107.396 144 106.987Z" fill="#FAFAFA"/>
<path d="M147.508 107.22L147.829 106.549C148.121 106.724 148.558 106.87 148.938 106.87C149.376 106.87 149.551 106.753 149.551 106.578C149.551 106.023 147.595 106.578 147.595 105.294C147.595 104.652 148.15 104.214 149.084 104.214C149.551 104.214 150.047 104.331 150.339 104.506L150.018 105.177C149.697 105.002 149.376 104.943 149.084 104.943C148.675 104.943 148.471 105.06 148.471 105.235C148.471 105.79 150.456 105.265 150.456 106.549C150.456 107.162 149.901 107.57 148.909 107.57C148.354 107.57 147.8 107.424 147.508 107.22Z" fill="#FAFAFA"/>
<path d="M140.945 96.947L141.617 96.159C142.054 96.7719 142.638 97.1221 143.309 97.1221C144.243 97.1221 144.739 96.5676 144.739 95.4585V90.8765H141.763V89.855H145.878V95.4002C145.878 97.2388 145.002 98.1436 143.309 98.1436C142.346 98.1436 141.471 97.7058 140.945 96.947Z" fill="#FAFAFA"/>
<path d="M147.328 97.3853L147.795 96.4805C148.32 96.86 149.138 97.1226 149.955 97.1226C151.005 97.1226 151.443 96.8308 151.443 96.3054C151.443 94.9045 147.503 96.1011 147.503 93.6496C147.503 92.5406 148.496 91.7817 150.101 91.7817C150.918 91.7817 151.823 91.986 152.348 92.3363L151.881 93.241C151.326 92.8616 150.684 92.7448 150.101 92.7448C149.108 92.7448 148.612 93.0951 148.612 93.5912C148.612 95.0505 152.552 93.8539 152.552 96.2762C152.552 97.3853 151.531 98.1149 149.867 98.1149C148.846 98.1149 147.824 97.7939 147.328 97.3853Z" fill="#FAFAFA"/>
<path opacity="0.3" d="M157.985 90.4973H151.506C150.397 90.4973 149.492 89.6218 149.492 88.4836V81.771L157.985 90.4973Z" fill="white"/>
<path opacity="0.1" d="M151.505 90.4976H157.984C157.984 90.4976 157.984 92.1903 157.984 92.307C157.984 92.453 152.41 91.4607 151.563 91.3147C151.486 91.2953 151.417 91.2758 151.359 91.2564C149.491 90.731 149.579 89.0967 149.579 89.0967C149.871 90.4684 151.505 90.4976 151.505 90.4976Z" fill="#333333"/>
<path d="M65.3203 316.478L96.1106 295.669L245.393 294.969L252.222 316.799L65.3203 316.478Z" fill="#455A64"/>
<path d="M251.843 325L65 324.883V316.069L251.931 316.653L251.843 325Z" fill="#455A64"/>
<path d="M247.257 316.624C247.257 316.682 206.894 316.741 157.163 316.712C107.373 316.682 67.0391 316.624 67.0391 316.536C67.0391 316.449 107.373 316.391 157.163 316.42C206.894 316.449 247.257 316.536 247.257 316.624Z" fill="#263238"/>
<path d="M200.659 123.359H171.328C169.314 123.359 167.68 121.725 167.68 119.711V79.0856C167.68 77.0719 169.314 75.4375 171.328 75.4375H189.948L204.336 90.2635V119.711C204.336 121.725 202.702 123.359 200.659 123.359Z" fill="url(#paint1_linear_1207_18676)"/>
<g opacity="0.2">
<path d="M200.681 123.623H171.554C169.482 123.623 167.789 121.93 167.789 119.858V109.818C167.789 109.409 168.11 109.088 168.49 109.088H203.716C204.125 109.088 204.446 109.409 204.446 109.818V119.858C204.446 121.93 202.753 123.623 200.681 123.623Z" fill="black"/>
</g>
<g opacity="0.2">
<path d="M204.443 90.5262H193.469C191.572 90.5262 190.055 89.0086 190.055 87.1116V75.7002L204.443 90.5262Z" fill="white"/>
</g>
<g opacity="0.2">
<path d="M193.465 90.5265H204.439C204.439 90.5265 204.439 93.3574 204.439 93.5909C204.439 93.8244 195.012 92.1317 193.553 91.8982C193.436 91.8593 193.319 91.8301 193.202 91.8106C190.05 90.9059 190.196 88.1333 190.196 88.1333C190.722 90.4389 193.465 90.5265 193.465 90.5265Z" fill="black"/>
</g>
<path d="M178.266 115.421C178.266 113.699 179.608 112.474 181.359 112.474C182.352 112.474 183.169 112.824 183.723 113.495L182.877 114.254C182.497 113.816 182.001 113.612 181.447 113.612C180.367 113.612 179.608 114.341 179.608 115.421C179.608 116.501 180.367 117.26 181.447 117.26C182.011 117.26 182.488 117.027 182.877 116.56L183.723 117.348C183.169 118.019 182.352 118.369 181.359 118.369C179.608 118.369 178.266 117.143 178.266 115.421Z" fill="#FAFAFA"/>
<path d="M184.109 117.727L184.547 116.735C185.043 117.085 185.744 117.318 186.444 117.318C187.232 117.318 187.553 117.056 187.553 116.705C187.553 115.626 184.226 116.384 184.226 114.254C184.226 113.291 185.014 112.474 186.619 112.474C187.349 112.474 188.079 112.649 188.604 112.97L188.195 113.991C187.67 113.67 187.115 113.524 186.619 113.524C185.831 113.524 185.539 113.816 185.539 114.196C185.539 115.246 188.867 114.517 188.867 116.618C188.867 117.552 188.049 118.369 186.444 118.369C185.539 118.369 184.606 118.106 184.109 117.727Z" fill="#FAFAFA"/>
<path d="M189.305 117.727L189.742 116.735C190.239 117.085 190.968 117.318 191.639 117.318C192.427 117.318 192.749 117.056 192.749 116.705C192.749 115.626 189.421 116.384 189.421 114.254C189.421 113.291 190.209 112.474 191.815 112.474C192.544 112.474 193.274 112.649 193.799 112.97L193.391 113.991C192.865 113.67 192.311 113.524 191.815 113.524C191.027 113.524 190.735 113.816 190.735 114.196C190.735 115.246 194.062 114.517 194.062 116.618C194.062 117.552 193.274 118.369 191.639 118.369C190.735 118.369 189.801 118.106 189.305 117.727Z" fill="#FAFAFA"/>
<path d="M180.136 96.9765C180.749 97.1516 181.012 97.531 181.012 98.4358V100.537C181.012 101.15 181.333 101.5 181.975 101.5H182.208V103.105H181.45C179.815 103.105 178.969 102.259 178.969 100.741V98.3774C178.969 97.9688 178.765 97.7645 178.385 97.7645H177.977V96.1593H178.385C178.765 96.1593 178.969 95.9842 178.969 95.5465V93.1825C178.969 91.6648 179.815 90.8477 181.45 90.8477H182.208V92.4237H181.975C181.333 92.4237 181.012 92.7739 181.012 93.4159V95.4881C181.012 96.3928 180.749 96.7722 180.136 96.9765Z" fill="#FAFAFA"/>
<path d="M194.263 96.1593V97.7645H193.825C193.475 97.7645 193.271 97.9688 193.271 98.3774V100.741C193.271 102.259 192.424 103.105 190.79 103.105H190.031V101.5H190.265C190.907 101.5 191.228 101.15 191.228 100.537V98.4358C191.228 97.531 191.491 97.1516 192.103 96.9765C191.491 96.7722 191.228 96.3928 191.228 95.4881V93.4159C191.228 92.7739 190.907 92.4237 190.265 92.4237H190.031V90.8477H190.79C192.424 90.8477 193.271 91.6648 193.271 93.1825V95.5465C193.271 95.9842 193.475 96.1593 193.825 96.1593H194.263Z" fill="#FAFAFA"/>
<path d="M241.864 153.099H212.095C210.023 153.099 208.359 151.436 208.359 149.393V108.154C208.359 106.111 210.023 104.448 212.095 104.448H230.978L245.57 119.507V149.393C245.57 151.436 243.907 153.099 241.864 153.099Z" fill="url(#paint2_linear_1207_18676)"/>
<g opacity="0.2">
<path d="M241.564 153.099H212.379C210.161 153.099 208.352 151.319 208.352 149.072V138.332H245.563L245.592 149.072C245.592 151.319 243.782 153.099 241.564 153.099Z" fill="black"/>
</g>
<g opacity="0.2">
<path d="M245.59 119.507H234.413C232.516 119.507 230.969 117.96 230.969 116.034V104.448L245.59 119.507Z" fill="white"/>
</g>
<g opacity="0.2">
<path d="M234.424 119.508H245.602C245.602 119.508 245.602 122.397 245.602 122.631C245.602 122.835 236 121.142 234.541 120.879C234.424 120.86 234.307 120.831 234.19 120.792C230.98 119.887 231.126 117.056 231.126 117.056C231.651 119.42 234.424 119.508 234.424 119.508Z" fill="black"/>
</g>
<path d="M223.649 126.162L219.184 127.796L223.649 129.401V131.094L217.258 128.672V126.92L223.649 124.498V126.162Z" fill="#FAFAFA"/>
<path d="M228.438 121.171H230.306L225.87 133.838H224.031L228.438 121.171Z" fill="#FAFAFA"/>
<path d="M236.923 126.92V128.672L230.531 131.094V129.401L235.026 127.796L230.531 126.162V124.498L236.923 126.92Z" fill="#FAFAFA"/>
<path d="M222.127 143.848V148.838H220.959V146.795H218.683V148.838H217.516V143.848H218.683V145.803H220.959V143.848H222.127Z" fill="#FAFAFA"/>
<path d="M224.347 144.782H222.742V143.848H227.091V144.782H225.486V148.838H224.347V144.782Z" fill="#FAFAFA"/>
<path d="M232.279 148.838L232.25 145.832L230.791 148.313H230.266L228.806 145.891V148.838H227.727V143.848H228.66L230.558 146.941L232.396 143.848H233.33L233.359 148.838H232.279Z" fill="#FAFAFA"/>
<path d="M234.539 143.848H235.706V147.904H238.216V148.838H234.539V143.848Z" fill="#FAFAFA"/>
<path d="M136.995 212.608H82.9444C81.9521 212.608 81.1641 211.82 81.1641 210.828V121.521C81.1641 120.529 81.9521 119.712 82.9444 119.712H136.995C137.987 119.712 138.775 120.529 138.775 121.521V210.828C138.775 211.82 137.987 212.608 136.995 212.608Z" fill="white"/>
<path d="M138.775 130.102H81.1641V121.842C81.1641 120.675 82.098 119.712 83.2654 119.712H136.762C137.871 119.712 138.775 120.617 138.775 121.755V130.102Z" fill="#E0E0E0"/>
<path d="M136.853 212.608C136.853 212.608 137.115 212.637 137.611 212.462C137.845 212.345 138.107 212.17 138.341 211.878C138.574 211.616 138.75 211.178 138.75 210.711C138.75 208.697 138.75 205.779 138.72 202.014C138.72 194.484 138.691 183.598 138.691 170.115C138.662 156.66 138.662 140.608 138.662 122.805V121.959C138.662 121.667 138.662 121.434 138.574 121.171C138.458 120.675 138.078 120.237 137.582 120.033C137.349 119.916 137.096 119.858 136.823 119.858H135.977C135.413 119.858 134.848 119.858 134.284 119.858C132.008 119.858 129.702 119.858 127.367 119.858C122.698 119.858 117.941 119.858 113.096 119.858C103.406 119.887 93.3667 119.887 83.0935 119.887C82.5098 119.858 81.9261 120.179 81.6051 120.675C81.43 120.938 81.3424 121.229 81.3132 121.521C81.3132 121.813 81.3132 122.134 81.3132 122.455C81.3132 123.739 81.3132 125.014 81.3132 126.278C81.3132 128.808 81.3132 131.328 81.3132 133.837C81.3132 138.838 81.3132 143.77 81.3132 148.634C81.3132 158.324 81.3132 167.663 81.284 176.564C81.284 185.466 81.284 193.93 81.284 201.868C81.284 203.833 81.284 205.779 81.284 207.705C81.284 208.658 81.284 209.602 81.284 210.536C81.1965 211.441 81.8386 212.287 82.7141 212.462C83.1227 212.55 83.6188 212.491 84.0566 212.491C84.5041 212.491 84.9614 212.491 85.4283 212.491C86.3233 212.491 87.2086 212.501 88.0842 212.521C89.8547 212.521 91.5767 212.521 93.2499 212.521C106.733 212.521 117.62 212.55 125.149 212.55C128.914 212.579 131.833 212.579 133.846 212.579C134.819 212.598 135.568 212.608 136.094 212.608C136.59 212.608 136.853 212.608 136.853 212.608C136.853 212.608 136.59 212.637 136.094 212.637C135.568 212.637 134.819 212.637 133.846 212.637C131.833 212.666 128.914 212.666 125.149 212.666C117.62 212.696 106.733 212.696 93.2499 212.725C91.5767 212.725 89.8547 212.725 88.0842 212.725C87.2086 212.725 86.3233 212.725 85.4283 212.725C84.9614 212.725 84.5041 212.725 84.0566 212.725C83.5897 212.725 83.1519 212.783 82.6557 212.696C82.1888 212.579 81.751 212.316 81.4591 211.908C81.1381 211.528 81.0214 211.003 81.0506 210.536C81.0506 209.602 81.0408 208.658 81.0214 207.705C81.0214 205.779 81.0214 203.833 81.0214 201.868C81.0214 193.93 81.0214 185.466 81.0214 176.564C81.0214 167.663 81.0214 158.324 81.0214 148.634C81.0214 143.77 81.0116 138.838 80.9922 133.837C80.9922 131.328 80.9922 128.808 80.9922 126.278C80.9922 125.014 80.9922 123.739 80.9922 122.455C81.0214 122.134 80.9922 121.842 81.0214 121.492C81.0506 121.142 81.1673 120.792 81.3424 120.529C81.7218 119.945 82.3931 119.566 83.0935 119.566C93.3667 119.566 103.406 119.566 113.096 119.566C117.941 119.566 122.698 119.566 127.367 119.566C129.702 119.566 132.008 119.566 134.284 119.566C134.848 119.585 135.413 119.595 135.977 119.595H136.823C137.144 119.566 137.436 119.653 137.699 119.77C138.253 120.004 138.691 120.5 138.866 121.084C138.925 121.375 138.925 121.696 138.925 121.959V122.805C138.925 140.608 138.895 156.66 138.895 170.115C138.866 183.598 138.866 194.484 138.837 202.014C138.837 205.779 138.837 208.697 138.808 210.711C138.808 211.207 138.604 211.616 138.37 211.908C138.137 212.199 137.845 212.375 137.611 212.491C137.378 212.579 137.174 212.608 137.057 212.608C136.921 212.608 136.853 212.608 136.853 212.608Z" fill="#263238"/>
<path d="M89.6647 125.724C89.6647 126.658 88.9058 127.417 87.9427 127.417C87.0088 127.417 86.25 126.658 86.25 125.724C86.25 124.79 87.0088 124.031 87.9427 124.031C88.9058 124.031 89.6647 124.79 89.6647 125.724Z" fill="white"/>
<path d="M94.8834 125.724C94.8834 126.658 94.1246 127.417 93.1907 127.417C92.2567 127.417 91.4688 126.658 91.4688 125.724C91.4688 124.79 92.2567 124.031 93.1907 124.031C94.1246 124.031 94.8834 124.79 94.8834 125.724Z" fill="white"/>
<path d="M100.104 125.724C100.104 126.658 99.3454 127.417 98.4115 127.417C97.4776 127.417 96.7188 126.658 96.7188 125.724C96.7188 124.79 97.4776 124.031 98.4115 124.031C99.3454 124.031 100.104 124.79 100.104 125.724Z" fill="white"/>
<path d="M106.238 144.169H95.6148C94.9727 144.169 94.4766 143.673 94.4766 143.031C94.4766 142.389 94.9727 141.863 95.6148 141.863H106.238C106.88 141.863 107.376 142.389 107.376 143.031C107.376 143.673 106.88 144.169 106.238 144.169Z" fill="#263238"/>
<path d="M106.238 150.21H95.6148C94.9727 150.21 94.4766 149.685 94.4766 149.043C94.4766 148.43 94.9727 147.904 95.6148 147.904H106.238C106.88 147.904 107.376 148.43 107.376 149.043C107.376 149.685 106.88 150.21 106.238 150.21Z" fill="#E0E0E0"/>
<path d="M106.527 166.729H95.933C95.291 166.729 94.7656 166.204 94.7656 165.562C94.7656 164.919 95.291 164.423 95.933 164.423H106.527C107.169 164.423 107.695 164.919 107.695 165.562C107.695 166.204 107.169 166.729 106.527 166.729Z" fill="#E0E0E0"/>
<path d="M106.238 156.426H95.6148C94.9727 156.426 94.4766 155.93 94.4766 155.288C94.4766 154.646 94.9727 154.121 95.6148 154.121H106.238C106.88 154.121 107.376 154.646 107.376 155.288C107.376 155.93 106.88 156.426 106.238 156.426Z" fill="#0BD25F"/>
<path d="M106.238 191.186H95.6148C94.9727 191.186 94.4766 190.661 94.4766 190.019C94.4766 189.377 94.9727 188.88 95.6148 188.88H106.238C106.88 188.88 107.376 189.377 107.376 190.019C107.376 190.661 106.88 191.186 106.238 191.186Z" fill="#0BD25F"/>
<path d="M123.252 144.169H112.628C111.986 144.169 111.461 143.673 111.461 143.031C111.461 142.389 111.986 141.863 112.628 141.863H123.252C123.865 141.863 124.39 142.389 124.39 143.031C124.39 143.673 123.865 144.169 123.252 144.169Z" fill="#455A64"/>
<path d="M134.721 150.21H112.512C111.957 150.21 111.461 149.685 111.461 149.043C111.461 148.43 111.957 147.904 112.512 147.904H134.721C135.305 147.904 135.772 148.43 135.772 149.043C135.772 149.685 135.305 150.21 134.721 150.21Z" fill="#263238"/>
<path d="M134.139 156.426H111.783C111.17 156.426 110.703 155.93 110.703 155.288C110.703 154.646 111.17 154.121 111.783 154.121H134.139C134.722 154.121 135.219 154.646 135.219 155.288C135.219 155.93 134.722 156.426 134.139 156.426Z" fill="#E0E0E0"/>
<path d="M117.959 161.475H95.6033C95.0196 161.475 94.5234 160.95 94.5234 160.308C94.5234 159.695 95.0196 159.169 95.6033 159.169H117.959C118.572 159.169 119.068 159.695 119.068 160.308C119.068 160.95 118.572 161.475 117.959 161.475Z" fill="#E0E0E0"/>
<path d="M90.4129 143.031C90.4129 143.673 89.8876 144.198 89.2455 144.198C88.6035 144.198 88.0781 143.673 88.0781 143.031C88.0781 142.389 88.6035 141.863 89.2455 141.863C89.8876 141.863 90.4129 142.389 90.4129 143.031Z" fill="#455A64"/>
<path d="M90.4129 137.252C90.4129 137.894 89.8876 138.419 89.2455 138.419C88.6035 138.419 88.0781 137.894 88.0781 137.252C88.0781 136.61 88.6035 136.084 89.2455 136.084C89.8876 136.084 90.4129 136.61 90.4129 137.252Z" fill="#455A64"/>
<path d="M90.4129 149.042C90.4129 149.684 89.8876 150.21 89.2455 150.21C88.6035 150.21 88.0781 149.684 88.0781 149.042C88.0781 148.4 88.6035 147.875 89.2455 147.875C89.8876 147.875 90.4129 148.4 90.4129 149.042Z" fill="#455A64"/>
<path d="M90.4129 155.288C90.4129 155.93 89.8876 156.455 89.2455 156.455C88.6035 156.455 88.0781 155.93 88.0781 155.288C88.0781 154.646 88.6035 154.121 89.2455 154.121C89.8876 154.121 90.4129 154.646 90.4129 155.288Z" fill="#455A64"/>
<path d="M106.527 183.569H95.933C95.291 183.569 94.7656 183.073 94.7656 182.431C94.7656 181.789 95.291 181.263 95.933 181.263H106.527C107.169 181.263 107.695 181.789 107.695 182.431C107.695 183.073 107.169 183.569 106.527 183.569Z" fill="#E0E0E0"/>
<path d="M106.238 173.296H95.6148C94.9727 173.296 94.4766 172.771 94.4766 172.128C94.4766 171.516 94.9727 170.99 95.6148 170.99H106.238C106.88 170.99 107.376 171.516 107.376 172.128C107.376 172.771 106.88 173.296 106.238 173.296Z" fill="#F44C3D"/>
<path d="M134.139 173.296H111.783C111.17 173.296 110.703 172.771 110.703 172.128C110.703 171.516 111.17 170.99 111.783 170.99H134.139C134.722 170.99 135.219 171.516 135.219 172.128C135.219 172.771 134.722 173.296 134.139 173.296Z" fill="#E0E0E0"/>
<path d="M117.959 178.315H95.6033C95.0196 178.315 94.5234 177.819 94.5234 177.177C94.5234 176.535 95.0196 176.039 95.6033 176.039H117.959C118.572 176.039 119.068 176.535 119.068 177.177C119.068 177.819 118.572 178.315 117.959 178.315Z" fill="#E0E0E0"/>
<path d="M90.4129 172.128C90.4129 172.8 89.8876 173.325 89.2455 173.325C88.6035 173.325 88.0781 172.8 88.0781 172.128C88.0781 171.486 88.6035 170.961 89.2455 170.961C89.8876 170.961 90.4129 171.486 90.4129 172.128Z" fill="#455A64"/>
<path d="M101.732 138.653H95.078C94.7861 138.653 94.5234 138.39 94.5234 138.099V136.99C94.5234 136.669 94.7861 136.435 95.078 136.435H101.732C102.024 136.435 102.287 136.669 102.287 136.99V138.099C102.287 138.39 102.024 138.653 101.732 138.653Z" fill="#455A64"/>
<path d="M106.238 197.315H95.6148C94.9727 197.315 94.4766 196.79 94.4766 196.147C94.4766 195.535 94.9727 195.009 95.6148 195.009H106.238C106.88 195.009 107.376 195.535 107.376 196.147C107.376 196.79 106.88 197.315 106.238 197.315Z" fill="#263238"/>
<path d="M123.252 197.315H112.628C111.986 197.315 111.461 196.79 111.461 196.147C111.461 195.535 111.986 195.009 112.628 195.009H123.252C123.865 195.009 124.39 195.535 124.39 196.147C124.39 196.79 123.865 197.315 123.252 197.315Z" fill="#455A64"/>
<path d="M90.4129 196.147C90.4129 196.789 89.8876 197.315 89.2455 197.315C88.6035 197.315 88.0781 196.789 88.0781 196.147C88.0781 195.505 88.6035 194.98 89.2455 194.98C89.8876 194.98 90.4129 195.505 90.4129 196.147Z" fill="#455A64"/>
<path d="M90.4129 201.693C90.4129 202.364 89.8876 202.889 89.2455 202.889C88.6035 202.889 88.0781 202.364 88.0781 201.693C88.0781 201.051 88.6035 200.525 89.2455 200.525C89.8876 200.525 90.4129 201.051 90.4129 201.693Z" fill="#455A64"/>
<path d="M101.732 203.094H95.078C94.7861 203.094 94.5234 202.86 94.5234 202.539V201.43C94.5234 201.138 94.7861 200.875 95.078 200.875H101.732C102.024 200.875 102.287 201.138 102.287 201.43V202.539C102.287 202.86 102.024 203.094 101.732 203.094Z" fill="#455A64"/>
<path d="M247.904 265.258H142.633V198.278H247.904V265.258Z" fill="white"/>
<path d="M161.603 265.258H142.633V198.278H161.603V265.258Z" fill="#EBEBEB"/>
<path fill-rule="evenodd" clip-rule="evenodd" d="M150.983 205.516C151.08 205.458 151.187 205.409 151.304 205.37L151.362 205.049H151.888L151.975 205.37C152.072 205.39 152.17 205.429 152.267 205.487L152.559 205.312L152.938 205.662L152.763 205.954C152.822 206.051 152.87 206.158 152.909 206.275L153.201 206.333L153.23 206.859L152.909 206.946C152.89 207.044 152.851 207.151 152.792 207.267L152.967 207.53L152.588 207.909L152.325 207.734C152.228 207.793 152.121 207.841 152.004 207.88L151.946 208.172L151.421 208.201L151.333 207.88C151.216 207.861 151.109 207.822 151.012 207.764L150.749 207.939L150.37 207.559L150.545 207.297C150.487 207.199 150.438 207.092 150.399 206.976L150.078 206.917V206.392L150.399 206.304C150.419 206.188 150.458 206.081 150.516 205.983L150.341 205.721L150.691 205.341L150.983 205.516ZM151.275 206.217C151.07 206.45 151.07 206.8 151.304 207.034C151.508 207.238 151.888 207.238 152.092 207.005C152.296 206.771 152.296 206.421 152.092 206.217C151.858 205.983 151.508 205.983 151.275 206.217Z" fill="#E0E0E0"/>
<path d="M155.356 220.313H147.096C146.629 220.313 146.25 219.933 146.25 219.437C146.25 218.97 146.629 218.591 147.096 218.591H155.356C155.823 218.591 156.202 218.97 156.202 219.437C156.202 219.933 155.823 220.313 155.356 220.313Z" fill="#E0E0E0"/>
<path d="M155.356 215.964H147.096C146.629 215.964 146.25 215.585 146.25 215.118C146.25 214.651 146.629 214.271 147.096 214.271H155.356C155.823 214.271 156.202 214.651 156.202 215.118C156.202 215.585 155.823 215.964 155.356 215.964Z" fill="#E0E0E0"/>
<path d="M155.356 212.024H147.096C146.629 212.024 146.25 211.645 146.25 211.178C146.25 210.711 146.629 210.302 147.096 210.302H155.356C155.823 210.302 156.202 210.711 156.202 211.178C156.202 211.645 155.823 212.024 155.356 212.024Z" fill="#E0E0E0"/>
<path d="M177.564 208.172H169.714C169.247 208.172 168.867 207.793 168.867 207.326C168.867 206.859 169.247 206.479 169.714 206.479H177.564C178.031 206.479 178.411 206.859 178.411 207.326C178.411 207.793 178.031 208.172 177.564 208.172Z" fill="#263238"/>
<path d="M177.564 212.608H169.714C169.247 212.608 168.867 212.228 168.867 211.761C168.867 211.294 169.247 210.915 169.714 210.915H177.564C178.031 210.915 178.411 211.294 178.411 211.761C178.411 212.228 178.031 212.608 177.564 212.608Z" fill="#E0E0E0"/>
<path d="M177.564 217.219H169.714C169.247 217.219 168.867 216.839 168.867 216.372C168.867 215.905 169.247 215.526 169.714 215.526H177.564C178.031 215.526 178.411 215.905 178.411 216.372C178.411 216.839 178.031 217.219 177.564 217.219Z" fill="#0BD25F"/>
<path d="M174.208 226.092H169.714C169.247 226.092 168.867 225.712 168.867 225.245C168.867 224.778 169.247 224.399 169.714 224.399H174.208C174.675 224.399 175.054 224.778 175.054 225.245C175.054 225.712 174.675 226.092 174.208 226.092Z" fill="#263238"/>
<path d="M174.208 230.702H169.714C169.247 230.702 168.867 230.323 168.867 229.856C168.867 229.389 169.247 229.01 169.714 229.01H174.208C174.675 229.01 175.054 229.389 175.054 229.856C175.054 230.323 174.675 230.702 174.208 230.702Z" fill="#263238"/>
<path d="M187.545 230.702H179.315C178.848 230.702 178.469 230.323 178.469 229.856C178.469 229.389 178.848 229.01 179.315 229.01H187.545C188.041 229.01 188.421 229.389 188.421 229.856C188.421 230.323 188.041 230.702 187.545 230.702Z" fill="#E0E0E0"/>
<path d="M182.897 234.788H174.667C174.2 234.788 173.82 234.409 173.82 233.942C173.82 233.475 174.2 233.096 174.667 233.096H182.897C183.364 233.096 183.743 233.475 183.743 233.942C183.743 234.409 183.364 234.788 182.897 234.788Z" fill="#0BD25F"/>
<path d="M184.716 239.458H179.084C178.763 239.458 178.5 239.196 178.5 238.875V238.349C178.5 238.028 178.763 237.766 179.084 237.766H184.716C185.037 237.766 185.3 238.028 185.3 238.349V238.875C185.3 239.196 185.037 239.458 184.716 239.458Z" fill="#F44C3D"/>
<path d="M184.454 248.622H179.346C178.879 248.622 178.5 248.243 178.5 247.776C178.5 247.309 178.879 246.93 179.346 246.93H184.454C184.921 246.93 185.3 247.309 185.3 247.776C185.3 248.243 184.921 248.622 184.454 248.622Z" fill="#0BD25F"/>
<path d="M184.454 258.283H179.346C178.879 258.283 178.5 257.903 178.5 257.436C178.5 256.969 178.879 256.59 179.346 256.59H184.454C184.921 256.59 185.3 256.969 185.3 257.436C185.3 257.903 184.921 258.283 184.454 258.283Z" fill="#F44C3D"/>
<path d="M197.033 258.283H188.073C187.606 258.283 187.227 257.903 187.227 257.436C187.227 256.969 187.606 256.59 188.073 256.59H197.033C197.5 256.59 197.879 256.969 197.879 257.436C197.879 257.903 197.5 258.283 197.033 258.283Z" fill="#455A64"/>
<path d="M203.31 258.283H202.026C201.559 258.283 201.18 257.903 201.18 257.436C201.18 256.969 201.559 256.59 202.026 256.59H203.31C203.777 256.59 204.157 256.969 204.157 257.436C204.157 257.903 203.777 258.283 203.31 258.283Z" fill="#E0E0E0"/>
<path d="M196.513 248.622H188.924C188.458 248.622 188.078 248.243 188.078 247.776C188.078 247.309 188.458 246.93 188.924 246.93H196.513C196.98 246.93 197.359 247.309 197.359 247.776C197.359 248.243 196.98 248.622 196.513 248.622Z" fill="#E0E0E0"/>
<path d="M213.119 252.854H188.924C188.458 252.854 188.078 252.475 188.078 252.008C188.078 251.541 188.458 251.162 188.924 251.162H213.119C213.586 251.162 213.965 251.541 213.965 252.008C213.965 252.475 213.586 252.854 213.119 252.854Z" fill="#E0E0E0"/>
<path d="M215.916 248.622H200.448C199.981 248.622 199.602 248.243 199.602 247.776C199.602 247.309 199.981 246.93 200.448 246.93H215.916C216.383 246.93 216.762 247.309 216.762 247.776C216.762 248.243 216.383 248.622 215.916 248.622Z" fill="#455A64"/>
<path d="M195.047 239.458H188.101C187.78 239.458 187.547 239.196 187.547 238.875V238.349C187.547 238.028 187.78 237.766 188.101 237.766H195.047C195.368 237.766 195.631 238.028 195.631 238.349V238.875C195.631 239.196 195.368 239.458 195.047 239.458Z" fill="#455A64"/>
<path d="M200.589 239.458H198.459C198.138 239.458 197.875 239.196 197.875 238.875V238.349C197.875 238.028 198.138 237.766 198.459 237.766H200.589C200.91 237.766 201.173 238.028 201.173 238.349V238.875C201.173 239.196 200.91 239.458 200.589 239.458Z" fill="#E0E0E0"/>
<path d="M212.791 239.458H204.24C203.919 239.458 203.656 239.196 203.656 238.875V238.349C203.656 238.028 203.919 237.766 204.24 237.766H212.791C213.112 237.766 213.375 238.028 213.375 238.349V238.875C213.375 239.196 213.112 239.458 212.791 239.458Z" fill="#E0E0E0"/>
<path d="M188.482 234.788H186.643C186.176 234.788 185.797 234.409 185.797 233.942C185.797 233.475 186.176 233.096 186.643 233.096H188.482C188.949 233.096 189.328 233.475 189.328 233.942C189.328 234.409 188.949 234.788 188.482 234.788Z" fill="#263238"/>
<path d="M204.013 234.788H192.339C191.872 234.788 191.492 234.409 191.492 233.942C191.492 233.475 191.872 233.096 192.339 233.096H204.013C204.48 233.096 204.888 233.475 204.888 233.942C204.888 234.409 204.48 234.788 204.013 234.788Z" fill="#E0E0E0"/>
<path d="M190.09 208.172H182.268C181.801 208.172 181.422 207.793 181.422 207.326C181.422 206.859 181.801 206.479 182.268 206.479H190.09C190.586 206.479 190.965 206.859 190.965 207.326C190.965 207.793 190.586 208.172 190.09 208.172Z" fill="#455A64"/>
<path d="M200.188 212.608H182.268C181.801 212.608 181.422 212.228 181.422 211.761C181.422 211.294 181.801 210.915 182.268 210.915H200.188C200.655 210.915 201.034 211.294 201.034 211.761C201.034 212.228 200.655 212.608 200.188 212.608Z" fill="#263238"/>
<path d="M219.479 217.219H182.268C181.801 217.219 181.422 216.839 181.422 216.372C181.422 215.905 181.801 215.526 182.268 215.526H219.479C219.946 215.526 220.326 215.905 220.326 216.372C220.326 216.839 219.946 217.219 219.479 217.219Z" fill="#E0E0E0"/>
<path d="M199.809 220.458H182.268C181.801 220.458 181.422 220.079 181.422 219.612C181.422 219.145 181.801 218.766 182.268 218.766H199.809C200.275 218.766 200.655 219.145 200.655 219.612C200.655 220.079 200.275 220.458 199.809 220.458Z" fill="#E0E0E0"/>
<path d="M196.215 226.092H178.675C178.208 226.092 177.828 225.712 177.828 225.245C177.828 224.778 178.208 224.399 178.675 224.399H196.215C196.682 224.399 197.061 224.778 197.061 225.245C197.061 225.712 196.682 226.092 196.215 226.092Z" fill="#455A64"/>
<path d="M206.054 226.092H200.159C199.692 226.092 199.312 225.712 199.312 225.245C199.312 224.778 199.692 224.399 200.159 224.399H206.054C206.521 224.399 206.901 224.778 206.901 225.245C206.901 225.712 206.521 226.092 206.054 226.092Z" fill="#0BD25F"/>
<path d="M221.075 226.062H209.956C209.489 226.062 209.109 225.683 209.109 225.216C209.109 224.749 209.489 224.37 209.956 224.37H221.075C221.542 224.37 221.922 224.749 221.922 225.216C221.922 225.683 221.542 226.062 221.075 226.062Z" fill="#263238"/>
<path d="M236.2 226.062H225.081C224.614 226.062 224.234 225.683 224.234 225.216C224.234 224.749 224.614 224.37 225.081 224.37H236.2C236.667 224.37 237.047 224.749 237.047 225.216C237.047 225.683 236.667 226.062 236.2 226.062Z" fill="#E0E0E0"/>
<path d="M151.766 224.895H147.096C146.629 224.895 146.25 224.486 146.25 224.019C146.25 223.552 146.629 223.173 147.096 223.173H151.766C152.233 223.173 152.612 223.552 152.612 224.019C152.612 224.486 152.233 224.895 151.766 224.895Z" fill="#E0E0E0"/>
<path d="M150.365 238.612H147.096C146.629 238.612 146.25 238.233 146.25 237.766C146.25 237.299 146.629 236.919 147.096 236.919H150.365C150.832 236.919 151.211 237.299 151.211 237.766C151.211 238.233 150.832 238.612 150.365 238.612Z" fill="#E0E0E0"/>
<path d="M156.202 229.448H147.096C146.629 229.448 146.25 229.068 146.25 228.601C146.25 228.134 146.629 227.755 147.096 227.755H156.202C156.669 227.755 157.048 228.134 157.048 228.601C157.048 229.068 156.669 229.448 156.202 229.448Z" fill="#E0E0E0"/>
<path d="M154.597 234.03H147.096C146.629 234.03 146.25 233.65 146.25 233.183C146.25 232.716 146.629 232.337 147.096 232.337H154.597C155.064 232.337 155.443 232.716 155.443 233.183C155.443 233.65 155.064 234.03 154.597 234.03Z" fill="#E0E0E0"/>
<path d="M165.902 207.326C165.902 207.793 165.522 208.201 165.026 208.201C164.559 208.201 164.18 207.793 164.18 207.326C164.18 206.859 164.559 206.45 165.026 206.45C165.522 206.45 165.902 206.859 165.902 207.326Z" fill="#455A64"/>
<path d="M165.902 202.802C165.902 203.269 165.522 203.648 165.026 203.648C164.559 203.648 164.18 203.269 164.18 202.802C164.18 202.306 164.559 201.926 165.026 201.926C165.522 201.926 165.902 202.306 165.902 202.802Z" fill="#455A64"/>
<path d="M165.902 211.762C165.902 212.229 165.522 212.608 165.026 212.608C164.559 212.608 164.18 212.229 164.18 211.762C164.18 211.266 164.559 210.886 165.026 210.886C165.522 210.886 165.902 211.266 165.902 211.762Z" fill="#455A64"/>
<path d="M165.902 216.373C165.902 216.84 165.522 217.219 165.026 217.219C164.559 217.219 164.18 216.84 164.18 216.373C164.18 215.876 164.559 215.497 165.026 215.497C165.522 215.497 165.902 215.876 165.902 216.373Z" fill="#455A64"/>
<path d="M165.902 220.984C165.902 221.451 165.522 221.83 165.026 221.83C164.559 221.83 164.18 221.451 164.18 220.984C164.18 220.488 164.559 220.108 165.026 220.108C165.522 220.108 165.902 220.488 165.902 220.984Z" fill="#455A64"/>
<path d="M165.902 225.566C165.902 226.062 165.522 226.442 165.026 226.442C164.559 226.442 164.18 226.062 164.18 225.566C164.18 225.099 164.559 224.72 165.026 224.72C165.522 224.72 165.902 225.099 165.902 225.566Z" fill="#455A64"/>
<path d="M165.902 230.177C165.902 230.674 165.522 231.053 165.026 231.053C164.559 231.053 164.18 230.674 164.18 230.177C164.18 229.71 164.559 229.331 165.026 229.331C165.522 229.331 165.902 229.71 165.902 230.177Z" fill="#455A64"/>
<path d="M165.902 234.789C165.902 235.285 165.522 235.664 165.026 235.664C164.559 235.664 164.18 235.285 164.18 234.789C164.18 234.322 164.559 233.942 165.026 233.942C165.522 233.942 165.902 234.322 165.902 234.789Z" fill="#455A64"/>
<path d="M165.902 239.4C165.902 239.867 165.522 240.275 165.026 240.275C164.559 240.275 164.18 239.867 164.18 239.4C164.18 238.933 164.559 238.553 165.026 238.553C165.522 238.553 165.902 238.933 165.902 239.4Z" fill="#455A64"/>
<path d="M165.902 244.011C165.902 244.478 165.522 244.887 165.026 244.887C164.559 244.887 164.18 244.478 164.18 244.011C164.18 243.544 164.559 243.136 165.026 243.136C165.522 243.136 165.902 243.544 165.902 244.011Z" fill="#455A64"/>
<path d="M165.902 248.623C165.902 249.09 165.522 249.498 165.026 249.498C164.559 249.498 164.18 249.09 164.18 248.623C164.18 248.156 164.559 247.747 165.026 247.747C165.522 247.747 165.902 248.156 165.902 248.623Z" fill="#455A64"/>
<path d="M165.902 253.233C165.902 253.7 165.522 254.08 165.026 254.08C164.559 254.08 164.18 253.7 164.18 253.233C164.18 252.767 164.559 252.358 165.026 252.358C165.522 252.358 165.902 252.767 165.902 253.233Z" fill="#455A64"/>
<path d="M165.902 257.844C165.902 258.311 165.522 258.691 165.026 258.691C164.559 258.691 164.18 258.311 164.18 257.844C164.18 257.348 164.559 256.969 165.026 256.969C165.522 256.969 165.902 257.348 165.902 257.844Z" fill="#455A64"/>
<path d="M247.904 191.39V198.278H142.633V192.295C142.633 190.573 144.063 189.143 145.785 189.143H245.685C246.911 189.143 247.904 190.165 247.904 191.39Z" fill="#E0E0E0"/>
<path d="M149.338 193.987C149.338 194.688 148.754 195.242 148.083 195.242C147.383 195.242 146.828 194.688 146.828 193.987C146.828 193.287 147.383 192.732 148.083 192.732C148.754 192.732 149.338 193.287 149.338 193.987Z" fill="white"/>
<path d="M153.197 193.987C153.197 194.688 152.643 195.242 151.942 195.242C151.242 195.242 150.688 194.688 150.688 193.987C150.688 193.287 151.242 192.732 151.942 192.732C152.643 192.732 153.197 193.287 153.197 193.987Z" fill="white"/>
<path d="M157.049 193.987C157.049 194.688 156.494 195.242 155.794 195.242C155.094 195.242 154.539 194.688 154.539 193.987C154.539 193.287 155.094 192.732 155.794 192.732C156.494 192.732 157.049 193.287 157.049 193.987Z" fill="white"/>
<path d="M182.001 264.208L173.917 273.809L165.016 264.208H182.001Z" fill="white"/>
<path d="M245.041 265.258C245.041 265.229 245.391 265.258 245.975 265.083C246.267 264.966 246.617 264.791 246.967 264.47C247.288 264.178 247.609 263.711 247.784 263.128C247.872 262.865 247.872 262.544 247.872 262.194C247.872 261.844 247.872 261.484 247.872 261.114C247.872 260.375 247.872 259.557 247.872 258.662C247.852 256.872 247.843 254.82 247.843 252.504C247.843 243.253 247.813 229.886 247.813 213.338C247.794 209.213 247.784 204.894 247.784 200.38C247.784 198.123 247.784 195.817 247.784 193.463C247.784 192.879 247.813 192.266 247.755 191.712C247.697 191.157 247.463 190.603 247.084 190.194C246.704 189.756 246.179 189.464 245.625 189.348C245.07 189.231 244.428 189.289 243.844 189.289C234.096 189.289 223.736 189.289 212.791 189.289C201.847 189.289 190.377 189.289 178.499 189.289C172.545 189.289 166.494 189.289 160.346 189.289C157.271 189.289 154.178 189.289 151.065 189.289C149.508 189.289 147.942 189.289 146.366 189.289C145.987 189.319 145.578 189.289 145.228 189.319C144.848 189.348 144.498 189.464 144.177 189.64C143.506 190.019 143.039 190.661 142.864 191.391C142.747 191.887 142.805 192.441 142.776 192.996V194.63C142.776 195.739 142.776 196.839 142.776 197.928C142.776 200.107 142.776 202.277 142.776 204.436C142.776 208.756 142.776 213.036 142.776 217.278C142.776 225.742 142.776 234.001 142.776 242.056C142.776 246.064 142.776 250.014 142.776 253.905C142.776 255.851 142.776 257.787 142.776 259.713C142.776 260.647 142.776 261.61 142.776 262.544C142.835 263.449 143.36 264.295 144.148 264.733C144.527 264.966 144.994 265.083 145.432 265.112C145.899 265.112 146.366 265.112 146.833 265.112C147.747 265.112 148.672 265.112 149.606 265.112C151.434 265.112 153.254 265.112 155.063 265.112C158.682 265.112 162.214 265.112 165.657 265.112H165.716L165.774 265.142C168.576 268.099 171.29 270.959 173.917 273.722L173.742 273.751C176.222 270.774 178.616 267.914 180.921 265.171L180.98 265.142H181.009C200.738 265.142 216.731 265.171 227.822 265.171C233.367 265.2 237.657 265.2 240.605 265.2C242.064 265.219 243.173 265.229 243.932 265.229C244.661 265.229 245.041 265.258 245.041 265.258C245.041 265.258 244.661 265.258 243.932 265.258C243.173 265.258 242.064 265.268 240.605 265.287C237.657 265.287 233.367 265.287 227.822 265.317C216.731 265.317 200.738 265.346 181.009 265.346L181.096 265.317C178.791 268.06 176.397 270.92 173.917 273.897L173.829 274.014L173.742 273.897C171.096 271.134 168.372 268.284 165.57 265.346L165.657 265.375C162.214 265.375 158.682 265.375 155.063 265.375C153.254 265.375 151.434 265.375 149.606 265.375C148.672 265.375 147.747 265.375 146.833 265.375C146.366 265.375 145.889 265.375 145.403 265.375C144.936 265.375 144.44 265.229 144.002 264.996C143.156 264.499 142.543 263.566 142.514 262.573C142.484 261.61 142.514 260.676 142.484 259.713C142.484 257.787 142.484 255.851 142.484 253.905C142.484 250.014 142.484 246.064 142.484 242.056C142.484 234.001 142.484 225.742 142.484 217.278C142.484 213.036 142.484 208.756 142.484 204.436C142.484 202.277 142.484 200.107 142.484 197.928C142.484 196.839 142.484 195.739 142.484 194.63V192.996V192.179C142.484 191.916 142.514 191.595 142.572 191.332C142.747 190.515 143.302 189.786 144.002 189.377C144.381 189.173 144.79 189.056 145.199 189.027C145.607 188.968 145.987 188.998 146.366 188.998C147.942 188.998 149.508 188.998 151.065 188.998C154.178 188.998 157.271 188.998 160.346 188.998C166.494 188.998 172.545 188.998 178.499 188.998C190.377 188.998 201.847 188.998 212.791 188.998C223.736 189.027 234.096 189.027 243.844 189.027C244.428 189.056 245.041 188.968 245.654 189.085C246.267 189.231 246.85 189.552 247.259 190.019C247.697 190.486 247.93 191.07 248.018 191.683C248.047 192.295 248.018 192.879 248.018 193.463C248.018 195.817 248.018 198.123 248.018 200.38C248.018 204.894 248.018 209.213 248.018 213.338C247.989 229.886 247.989 243.253 247.959 252.504C247.959 254.82 247.959 256.872 247.959 258.662C247.959 259.557 247.959 260.375 247.959 261.114C247.94 261.484 247.93 261.844 247.93 262.194C247.959 262.544 247.93 262.865 247.843 263.157C247.668 263.741 247.347 264.208 246.996 264.529C246.646 264.82 246.296 264.996 245.975 265.112C245.683 265.2 245.449 265.229 245.304 265.229C245.128 265.249 245.041 265.258 245.041 265.258Z" fill="#263238"/>
<path d="M230.065 175.543H150.915C149.893 175.543 149.047 174.696 149.047 173.675V133.312C149.047 132.29 149.893 131.473 150.915 131.473H230.415C231.436 131.473 232.283 132.29 232.283 133.312V173.325C232.283 174.55 231.291 175.543 230.065 175.543Z" fill="white"/>
<path d="M232.283 140.929H149.047V133.487C149.047 132.378 149.952 131.473 151.09 131.473H230.24C231.378 131.473 232.283 132.378 232.283 133.487V140.929Z" fill="#E0E0E0"/>
<path d="M229.953 175.543C229.953 175.514 230.157 175.543 230.566 175.426C230.974 175.309 231.587 174.988 231.996 174.259C232.171 173.879 232.258 173.442 232.229 172.916C232.229 172.391 232.229 171.827 232.229 171.223C232.229 169.998 232.229 168.587 232.229 166.992C232.2 160.658 232.2 151.465 232.171 140.112C232.171 138.692 232.171 137.242 232.171 135.764C232.171 135.024 232.171 134.275 232.171 133.516C232.229 132.787 231.821 132.057 231.149 131.736C230.828 131.59 230.449 131.59 230.07 131.59C229.68 131.59 229.282 131.59 228.873 131.59C228.095 131.59 227.297 131.59 226.48 131.59C224.884 131.59 223.25 131.59 221.577 131.59C214.893 131.59 207.772 131.59 200.272 131.619C185.27 131.619 168.752 131.619 151.445 131.619C151.182 131.619 150.92 131.619 150.686 131.678C150.423 131.736 150.19 131.824 149.986 131.969C149.577 132.291 149.314 132.728 149.227 133.224C149.198 133.458 149.198 133.75 149.198 134.012V134.8V136.406C149.198 138.546 149.198 140.676 149.198 142.797C149.198 147.019 149.198 151.173 149.198 155.259C149.198 159.345 149.198 163.353 149.198 167.283C149.198 169.229 149.198 171.165 149.198 173.091C149.168 174.025 149.723 174.901 150.569 175.222C150.978 175.397 151.445 175.397 151.912 175.397C152.379 175.397 152.855 175.397 153.342 175.397C168.343 175.397 181.856 175.426 193.209 175.426C204.562 175.455 213.726 175.455 220.088 175.455C223.24 175.485 225.721 175.485 227.385 175.485C228.221 175.504 228.854 175.514 229.282 175.514C229.719 175.514 229.953 175.543 229.953 175.543C229.953 175.543 229.719 175.543 229.282 175.543C228.854 175.543 228.221 175.553 227.385 175.572C225.721 175.572 223.24 175.572 220.088 175.601C213.726 175.601 204.562 175.601 193.209 175.63C181.856 175.66 168.343 175.66 153.342 175.66C152.855 175.66 152.379 175.66 151.912 175.66C151.474 175.66 150.949 175.689 150.453 175.485C149.519 175.134 148.877 174.113 148.906 173.091C148.906 171.165 148.906 169.229 148.906 167.283C148.906 163.353 148.906 159.345 148.906 155.259C148.906 151.173 148.906 147.019 148.906 142.797C148.906 140.676 148.906 138.546 148.906 136.406V134.8V134.012C148.906 133.75 148.877 133.458 148.935 133.166C149.022 132.612 149.344 132.086 149.81 131.736C150.044 131.561 150.336 131.444 150.598 131.386C150.89 131.298 151.182 131.327 151.445 131.327C168.752 131.327 185.27 131.327 200.272 131.327C207.772 131.327 214.893 131.327 221.577 131.327C223.25 131.347 224.884 131.357 226.48 131.357C227.297 131.357 228.095 131.357 228.873 131.357C229.282 131.357 229.68 131.357 230.07 131.357C230.449 131.327 230.887 131.357 231.266 131.532C232.025 131.882 232.463 132.728 232.404 133.516C232.404 134.275 232.404 135.024 232.404 135.764C232.404 137.242 232.395 138.692 232.375 140.112C232.375 151.465 232.346 160.658 232.346 166.992C232.346 168.587 232.336 169.998 232.317 171.223C232.317 171.827 232.317 172.391 232.317 172.916C232.317 173.179 232.317 173.412 232.258 173.646C232.22 173.879 232.151 174.093 232.054 174.288C231.616 175.047 230.974 175.339 230.595 175.455C230.157 175.572 229.953 175.543 229.953 175.543Z" fill="#263238"/>
<path d="M156.789 136.931C156.789 137.807 156.118 138.478 155.242 138.478C154.396 138.478 153.695 137.807 153.695 136.931C153.695 136.085 154.396 135.384 155.242 135.384C156.118 135.384 156.789 136.085 156.789 136.931Z" fill="white"/>
<path d="M161.57 136.931C161.57 137.807 160.87 138.478 160.023 138.478C159.148 138.478 158.477 137.807 158.477 136.931C158.477 136.085 159.148 135.384 160.023 135.384C160.87 135.384 161.57 136.085 161.57 136.931Z" fill="white"/>
<path d="M166.328 136.931C166.328 137.807 165.628 138.478 164.781 138.478C163.935 138.478 163.234 137.807 163.234 136.931C163.234 136.085 163.935 135.384 164.781 135.384C165.628 135.384 166.328 136.085 166.328 136.931Z" fill="white"/>
<path d="M173.045 154.267H163.355C162.772 154.267 162.305 153.8 162.305 153.216C162.305 152.632 162.772 152.166 163.355 152.166H173.045C173.629 152.166 174.095 152.632 174.095 153.216C174.095 153.8 173.629 154.267 173.045 154.267Z" fill="#263238"/>
<path d="M173.045 159.754H163.355C162.772 159.754 162.305 159.287 162.305 158.703C162.305 158.119 162.772 157.652 163.355 157.652H173.045C173.629 157.652 174.095 158.119 174.095 158.703C174.095 159.287 173.629 159.754 173.045 159.754Z" fill="#E0E0E0"/>
<path d="M224.111 154.267H196.035C195.451 154.267 194.984 153.8 194.984 153.216C194.984 152.632 195.451 152.166 196.035 152.166H224.111C224.695 152.166 225.162 152.632 225.162 153.216C225.162 153.8 224.695 154.267 224.111 154.267Z" fill="#E0E0E0"/>
<path d="M173.045 165.445H163.355C162.772 165.445 162.305 164.978 162.305 164.394C162.305 163.811 162.772 163.344 163.355 163.344H173.045C173.629 163.344 174.095 163.811 174.095 164.394C174.095 164.978 173.629 165.445 173.045 165.445Z" fill="#0BD25F"/>
<path d="M217.398 159.754H207.738C207.154 159.754 206.688 159.287 206.688 158.703C206.688 158.119 207.154 157.652 207.738 157.652H217.398C217.982 157.652 218.449 158.119 218.449 158.703C218.449 159.287 217.982 159.754 217.398 159.754Z" fill="#F44C3D"/>
<path d="M188.537 154.267H178.848C178.293 154.267 177.797 153.8 177.797 153.216C177.797 152.632 178.293 152.166 178.848 152.166H188.537C189.121 152.166 189.588 152.632 189.588 153.216C189.588 153.8 189.121 154.267 188.537 154.267Z" fill="#455A64"/>
<path d="M200.999 159.754H178.848C178.293 159.754 177.797 159.287 177.797 158.703C177.797 158.119 178.293 157.652 178.848 157.652H200.999C201.583 157.652 202.05 158.119 202.05 158.703C202.05 159.287 201.583 159.754 200.999 159.754Z" fill="#263238"/>
<path d="M222.713 165.445H178.818C178.264 165.445 177.797 164.978 177.797 164.394C177.797 163.811 178.264 163.344 178.818 163.344H222.713C223.267 163.344 223.705 163.811 223.705 164.394C223.705 164.978 223.267 165.445 222.713 165.445Z" fill="#E0E0E0"/>
<path d="M200.532 169.443H178.848C178.293 169.443 177.797 168.976 177.797 168.392C177.797 167.808 178.293 167.341 178.848 167.341H200.532C201.116 167.341 201.583 167.808 201.583 168.392C201.583 168.976 201.116 169.443 200.532 169.443Z" fill="#E0E0E0"/>
<path d="M158.623 153.217C158.623 153.8 158.127 154.267 157.543 154.267C156.959 154.267 156.492 153.8 156.492 153.217C156.492 152.633 156.959 152.137 157.543 152.137C158.127 152.137 158.623 152.633 158.623 153.217Z" fill="#455A64"/>
<path d="M158.623 147.963C158.623 148.547 158.127 149.014 157.543 149.014C156.959 149.014 156.492 148.547 156.492 147.963C156.492 147.379 156.959 146.883 157.543 146.883C158.127 146.883 158.623 147.379 158.623 147.963Z" fill="#455A64"/>
<path d="M158.623 158.703C158.623 159.287 158.127 159.754 157.543 159.754C156.959 159.754 156.492 159.287 156.492 158.703C156.492 158.09 156.959 157.623 157.543 157.623C158.127 157.623 158.623 158.09 158.623 158.703Z" fill="#455A64"/>
<path d="M158.623 164.394C158.623 164.978 158.127 165.445 157.543 165.445C156.959 165.445 156.492 164.978 156.492 164.394C156.492 163.811 156.959 163.314 157.543 163.314C158.127 163.314 158.623 163.811 158.623 164.394Z" fill="#455A64"/>
<path d="M169.047 148.722H163.094C162.773 148.722 162.539 148.459 162.539 148.167V147.263C162.539 146.941 162.773 146.708 163.094 146.708H169.047C169.368 146.708 169.602 146.941 169.602 147.263V148.167C169.602 148.459 169.368 148.722 169.047 148.722Z" fill="#455A64"/>
<path d="M108.309 312.713C103.435 314.843 98.7361 315.047 94.2708 312.713L91.0312 285.454H111.257L108.309 312.713Z" fill="#6F4439"/>
<path d="M111.988 283.849V287.38C105.042 288.81 97.7168 288.752 90.0703 287.38V283.849H92.0257L93.1348 280.638C93.2515 280.259 93.6601 279.996 94.0687 280.055L109.303 281.922L109.916 283.849H111.988Z" fill="#E0E0E0"/>
<path d="M109.914 283.849C109.914 283.849 109.962 283.849 110.06 283.849C110.157 283.849 110.293 283.839 110.468 283.819C110.838 283.819 111.344 283.81 111.986 283.79H112.044V283.849C112.044 284.783 112.073 285.95 112.073 287.38V287.468H112.015C109.563 287.993 106.353 288.489 102.588 288.547C98.8525 288.635 94.5623 288.343 90.1262 287.555L90.0386 287.526H89.9219V287.38C89.9219 286.193 89.9219 285.016 89.9219 283.849V283.703H90.0678C90.7293 283.703 91.3811 283.703 92.0232 283.703L91.8773 283.819C92.247 282.73 92.6069 281.679 92.9571 280.667C93.0447 280.376 93.2782 280.084 93.57 279.996C93.7062 279.918 93.8521 279.889 94.0078 279.909C94.1537 279.909 94.2705 279.938 94.4164 279.938C94.9417 280.016 95.4573 280.084 95.9632 280.142C97.977 280.405 99.8448 280.638 101.538 280.843C104.923 281.28 107.579 281.631 109.301 281.864H109.359V281.893C109.534 282.516 109.67 283.002 109.768 283.353C109.826 283.489 109.865 283.615 109.884 283.732C109.904 283.81 109.914 283.849 109.914 283.849C109.914 283.868 109.894 283.829 109.855 283.732C109.836 283.635 109.797 283.518 109.739 283.382C109.622 283.031 109.456 282.545 109.242 281.922L109.301 281.981C107.579 281.777 104.894 281.455 101.508 281.076C99.8156 280.872 97.9478 280.667 95.934 280.405C95.4281 280.346 94.9125 280.288 94.3872 280.23C94.0953 280.201 93.8619 280.142 93.6576 280.259C93.4533 280.346 93.3073 280.522 93.249 280.755C92.8988 281.786 92.5388 282.837 92.1691 283.907L92.1108 283.995H92.0232C91.3811 283.995 90.7293 284.004 90.0678 284.024L90.2137 283.849C90.2137 285.016 90.2137 286.193 90.2137 287.38L90.097 287.234L90.1845 287.263C94.6207 288.022 98.8525 288.343 102.588 288.285C106.324 288.226 109.534 287.759 111.957 287.293L111.898 287.38C111.898 285.95 111.927 284.783 111.927 283.849L111.986 283.907C111.324 283.907 110.809 283.897 110.439 283.878C110.283 283.878 110.147 283.878 110.03 283.878C109.953 283.878 109.914 283.868 109.914 283.849Z" fill="#263238"/>
<path d="M109.739 303.666C104.427 304.541 98.6196 304.395 92.4323 303.666L91.5859 295.406C98.0942 296.107 104.486 296.136 110.731 295.406L109.739 303.666Z" fill="#AE7461"/>
<path d="M102.097 302.557C101.221 302.848 100.229 302.44 99.8496 301.593L99.295 300.397C98.8865 299.55 99.2075 298.529 99.9955 298.062L102.097 302.557Z" fill="#6F4439"/>
<path d="M102.622 298.85L103.177 300.046C103.556 300.893 103.235 301.914 102.447 302.381L100.375 297.887C101.251 297.595 102.214 298.003 102.622 298.85Z" fill="#6F4439"/>
<path d="M110.087 283.907C110.087 283.936 109.853 283.995 109.387 284.112C108.949 284.228 108.307 284.374 107.489 284.52C105.855 284.812 103.579 285.075 101.04 285.075C98.5005 285.075 96.224 284.783 94.5897 284.491C93.7725 284.345 93.1304 284.199 92.6926 284.082C92.2257 283.966 91.9922 283.907 91.9922 283.878C91.9922 283.849 92.2549 283.878 92.6926 283.966C93.1596 284.053 93.8309 284.17 94.6188 284.287C96.2532 284.52 98.5297 284.754 101.04 284.754C103.549 284.783 105.826 284.549 107.431 284.316C108.248 284.199 108.92 284.082 109.357 283.995C109.824 283.936 110.087 283.878 110.087 283.907Z" fill="#263238"/>
<path d="M134.788 304.921L195.289 308.511C195.056 310.145 194.092 311.546 192.458 311.546C180.142 311.517 131.286 311.4 127.696 311.517C123.581 311.692 121.772 308.919 121.421 306.76C121.217 305.388 115.993 248.798 116.577 246.434C117.16 244.07 120.488 243.34 120.488 243.34L134.788 304.921Z" fill="#E0E0E0"/>
<path d="M121.055 243.398L131.124 245.733C131.737 245.879 132.204 246.404 132.262 247.046L137.078 294.851L181.994 295.173L195.273 308.335L126.134 308.043C125.141 308.014 124.295 307.255 124.207 306.263L118.954 245.237C118.837 244.069 119.917 243.135 121.055 243.398Z" fill="#E0E0E0"/>
<path d="M118.95 245.237C118.95 245.237 118.921 245.149 118.95 244.945C118.95 244.741 119.009 244.449 119.213 244.128C119.417 243.778 119.797 243.427 120.381 243.34C120.672 243.282 120.993 243.34 121.314 243.427C121.626 243.486 121.966 243.564 122.336 243.661C123.795 243.982 125.575 244.391 127.677 244.887C128.727 245.12 129.856 245.373 131.062 245.646C131.675 245.762 132.259 246.317 132.346 247.017C132.405 247.679 132.473 248.35 132.551 249.031C133.66 260.092 135.265 275.881 137.191 294.852L137.074 294.706C150.558 294.822 165.763 294.91 181.99 295.027H182.049L182.078 295.056C186.339 299.288 190.804 303.724 195.357 308.248L195.62 308.51H195.27C194.306 308.481 193.256 308.481 192.205 308.481C174.227 308.394 157.095 308.306 141.511 308.248C137.619 308.228 133.825 308.209 130.128 308.189C129.214 308.189 128.299 308.18 127.385 308.16C126.947 308.16 126.48 308.16 126.013 308.16C125.546 308.131 125.079 307.927 124.729 307.606C124.379 307.285 124.145 306.847 124.087 306.38C124.029 305.913 123.999 305.475 123.97 305.037C123.892 304.162 123.815 303.296 123.737 302.44C123.153 295.523 122.599 289.102 122.102 283.236C121.11 271.504 120.322 261.989 119.768 255.423C119.505 252.154 119.301 249.615 119.155 247.864C119.077 247.007 119.028 246.356 119.009 245.908C118.95 245.47 118.95 245.237 118.95 245.237C118.95 245.237 118.98 245.47 119.038 245.908C119.077 246.356 119.135 247.007 119.213 247.864C119.359 249.615 119.593 252.154 119.884 255.423C120.468 261.989 121.285 271.474 122.336 283.207C122.832 289.073 123.387 295.523 123.999 302.411C124.058 303.267 124.126 304.133 124.204 305.008C124.262 305.446 124.291 305.913 124.321 306.321C124.408 306.73 124.612 307.139 124.904 307.43C125.225 307.693 125.634 307.868 126.042 307.897C126.48 307.897 126.947 307.897 127.385 307.897C128.299 307.917 129.214 307.927 130.128 307.927C133.825 307.946 137.619 307.956 141.511 307.956C157.095 308.043 174.227 308.102 192.205 308.189C193.256 308.189 194.306 308.189 195.27 308.189L195.153 308.452C190.6 303.928 186.135 299.492 181.874 295.26L181.99 295.319C165.734 295.202 150.558 295.085 137.074 294.968H136.958L136.929 294.852C135.061 275.91 133.485 260.121 132.405 249.06C132.327 248.36 132.259 247.688 132.201 247.046C132.113 246.404 131.617 245.879 131.033 245.791C129.827 245.5 128.698 245.237 127.648 245.003C125.546 244.507 123.766 244.07 122.307 243.719C121.957 243.641 121.616 243.564 121.285 243.486C120.964 243.398 120.672 243.34 120.41 243.398C119.826 243.486 119.447 243.836 119.242 244.128C119.038 244.449 118.98 244.741 118.95 244.945C118.95 245.149 118.95 245.237 118.95 245.237Z" fill="#263238"/>
<path d="M164.055 296.223H167.878L175.991 306.759H169.571L164.055 296.223Z" fill="#263238"/>
<path d="M122.226 247.134L130.778 248.36C131.157 248.418 131.42 248.71 131.449 249.06L135.389 293.743L126.254 301.01L121.322 247.98C121.293 247.484 121.73 247.076 122.226 247.134Z" fill="#263238"/>
<path d="M140.708 296.223H144.531L137.789 306.759H131.164L140.708 296.223Z" fill="#263238"/>
<path d="M145.434 296.223H149.257L145.725 306.759H139.305L145.434 296.223Z" fill="#263238"/>
<path d="M150.133 296.223H153.927L153.606 306.759H147.156L150.133 296.223Z" fill="#263238"/>
<path d="M154.716 296.223H158.51L160.903 306.759H154.453L154.716 296.223Z" fill="#263238"/>
<path d="M159.438 296.223H163.261L168.485 306.759H162.064L159.438 296.223Z" fill="#263238"/>
<path d="M175.668 304.716C175.668 304.745 165.862 304.804 153.779 304.804C141.697 304.804 131.891 304.745 131.891 304.716C131.891 304.658 141.697 304.628 153.779 304.628C165.862 304.628 175.668 304.658 175.668 304.716Z" fill="#E0E0E0"/>
<path d="M174.497 302.76C174.497 302.819 165.187 302.877 153.717 302.877C142.248 302.877 132.938 302.819 132.938 302.76C132.938 302.731 142.248 302.673 153.717 302.673C165.187 302.673 174.497 302.731 174.497 302.76Z" fill="#E0E0E0"/>
<path d="M174.507 301.01C174.507 301.126 165.751 301.214 154.952 301.214C144.154 301.214 135.398 301.126 135.398 301.01C135.398 300.922 144.154 300.834 154.952 300.834C165.751 300.834 174.507 300.922 174.507 301.01Z" fill="#E0E0E0"/>
<path d="M174.77 299.434C174.77 299.521 166.218 299.609 155.653 299.609C145.088 299.609 136.508 299.521 136.508 299.434C136.508 299.317 145.088 299.229 155.653 299.229C166.218 299.229 174.77 299.317 174.77 299.434Z" fill="#E0E0E0"/>
<path d="M175.665 298.266C175.665 298.354 167.055 298.441 156.403 298.441C145.779 298.441 137.141 298.354 137.141 298.266C137.141 298.15 145.779 298.062 156.403 298.062C167.055 298.062 175.665 298.15 175.665 298.266Z" fill="#E0E0E0"/>
<path d="M176.629 297.04C176.629 297.128 167.844 297.215 156.987 297.215C146.16 297.215 137.375 297.128 137.375 297.04C137.375 296.923 146.16 296.836 156.987 296.836C167.844 296.836 176.629 296.923 176.629 297.04Z" fill="#E0E0E0"/>
<path d="M125.18 306.263C129.168 302.527 133.157 298.791 137.146 295.056L125.18 306.263Z" fill="#E0E0E0"/>
<path d="M137.147 295.056C137.205 295.114 134.578 297.682 131.28 300.776C127.953 303.87 125.239 306.321 125.181 306.263C125.122 306.204 127.749 303.636 131.047 300.543C134.374 297.449 137.088 294.997 137.147 295.056Z" fill="#263238"/>
<path d="M316.116 325H283.195C283.195 325 292.009 252.27 292.068 251.891C294.081 240.334 311.884 241.238 319.326 243.165C334.765 247.105 335.349 253.321 335.349 253.321L316.116 325Z" fill="#455A64"/>
<path d="M330.145 325H314.969L320.018 253.73C320.397 250.257 323.987 247.776 328.044 248.155L329.415 248.272C333.443 248.652 336.04 252.562 335.924 257.028L330.145 325Z" fill="#455A64"/>
<path d="M316.107 322.431C316.019 322.431 317.07 308.393 318.5 291.087C319.901 273.78 321.097 259.742 321.185 259.742C321.272 259.771 320.193 273.809 318.792 291.116C317.391 308.422 316.165 322.461 316.107 322.431Z" fill="#263238"/>
<path d="M332.42 249.935C332.42 249.994 331.632 249.614 330.289 249.439C328.976 249.264 327.02 249.41 325.24 250.431C323.46 251.453 322.351 253.058 321.825 254.313C321.3 255.539 321.242 256.414 321.183 256.385C321.154 256.385 321.154 256.181 321.212 255.801C321.271 255.422 321.388 254.868 321.621 254.225C322.117 252.941 323.226 251.249 325.094 250.169C326.962 249.089 328.976 249.001 330.318 249.235C331.019 249.352 331.544 249.527 331.894 249.673C332.244 249.818 332.449 249.935 332.42 249.935Z" fill="#263238"/>
<path d="M284.584 165.328L258.988 182.372C256.42 182.752 253.735 180.971 253.093 178.461C252.451 175.951 253.968 173.091 256.391 172.216C254.756 170.64 254.26 167.955 255.223 165.883C256.216 163.84 258.609 162.526 260.856 162.789C260.885 160.542 262.14 158.324 264.096 157.185C266.051 156.047 268.59 155.989 270.575 157.069C272.997 154.851 276.996 154.646 279.651 156.572C281.84 156.106 284.642 156.66 284.496 160.834C284.409 163.081 286.13 163.723 284.584 165.328Z" fill="#263238"/>
<path d="M258.265 183.131C258.791 171.486 268.159 162.205 279.804 161.797L280.971 161.738C293.492 162.03 300.233 172.829 299.591 185.32L299.27 226.967L299.183 234.876L270.581 241.676L270.29 225.187C270.29 225.187 258.207 223.757 257.652 211.762C257.361 205.954 257.769 193.988 258.265 183.131Z" fill="#FFC8AF"/>
<path d="M270.195 225.158C270.195 225.158 277.871 225.362 285.751 220.021C285.751 220.021 282.366 228.777 270.341 228.135L270.195 225.158Z" fill="#F3B99E"/>
<path d="M263.464 193.638C264.398 193.667 265.186 194.396 265.186 195.301C265.186 196.206 264.398 196.935 263.464 196.906C262.53 196.906 261.742 196.147 261.742 195.243C261.742 194.338 262.53 193.608 263.464 193.638Z" fill="#263238"/>
<path d="M261.562 188.589C262.087 188.122 263.05 187.655 264.189 187.626C265.327 187.567 266.348 187.947 266.932 188.355C267.545 188.764 267.778 189.172 267.691 189.26C267.486 189.493 266.086 188.589 264.247 188.676C262.408 188.735 261.153 189.756 260.92 189.523C260.832 189.435 261.007 189.026 261.562 188.589Z" fill="#263238"/>
<path d="M278.277 193.259C279.211 193.288 279.999 194.017 279.999 194.922C279.999 195.827 279.211 196.557 278.277 196.527C277.343 196.527 276.555 195.769 276.555 194.864C276.555 193.959 277.343 193.229 278.277 193.259Z" fill="#263238"/>
<path d="M279.186 187.684C279.712 187.246 280.675 186.779 281.813 186.721C282.98 186.692 283.973 187.071 284.556 187.48C285.169 187.888 285.403 188.268 285.315 188.384C285.111 188.618 283.739 187.713 281.901 187.801C280.033 187.859 278.778 188.881 278.573 188.647C278.457 188.559 278.632 188.151 279.186 187.684Z" fill="#263238"/>
<path d="M269.93 202.627C269.696 202.627 269.433 202.627 269.112 202.568C268.821 202.481 268.47 202.247 268.324 201.897C268.062 201.197 268.354 200.584 268.5 200.029C268.889 198.881 269.297 197.665 269.725 196.381C271.476 191.215 273.052 187.071 273.257 187.13C273.461 187.217 272.235 191.449 270.455 196.644C270.027 197.909 269.609 199.115 269.2 200.263C268.996 200.817 268.821 201.343 268.937 201.664C269.025 201.985 269.492 202.072 269.959 202.101C271.827 202.277 272.965 202.423 272.965 202.539C272.965 202.656 271.797 202.685 269.93 202.627Z" fill="#263238"/>
<path d="M278.785 204.932C278.755 205.749 278.347 206.946 277.325 207.851C276.304 208.755 275.02 209.077 274.144 209.077C273.239 209.077 272.714 208.843 272.743 208.726C272.743 208.434 274.903 208.58 276.567 207.092C278.23 205.603 278.143 203.619 278.464 203.619C278.58 203.59 278.814 204.086 278.785 204.932Z" fill="#263238"/>
<path d="M279.19 182.285C279.832 181.876 280.824 181.497 281.991 181.468C283.13 181.439 284.18 181.731 284.881 182.11C285.552 182.489 285.902 182.927 285.815 183.161C285.64 183.628 284.034 183.248 282.079 183.336C280.153 183.365 278.577 183.861 278.343 183.394C278.256 183.161 278.548 182.723 279.19 182.285Z" fill="#263238"/>
<path d="M261.799 183.423C262.353 183.014 263.258 182.693 264.309 182.693C265.359 182.723 266.293 183.073 266.819 183.511C267.373 183.919 267.548 184.357 267.431 184.561C267.11 184.999 265.826 184.561 264.279 184.561C262.762 184.532 261.478 184.911 261.157 184.474C261.04 184.24 261.244 183.832 261.799 183.423Z" fill="#263238"/>
<path d="M274.224 160.746C279.711 160.016 287.795 159.812 293.837 163.985C297.66 166.641 299.849 169.093 301.133 172.712C302.651 176.973 302.68 184.415 302.3 190.515C302.009 195.243 298.944 196.235 298.857 197.373C298.098 207.559 293.924 201.605 291.998 180.066C291.531 174.755 293.633 172.186 288.817 168.83C284.439 165.736 280.324 167.925 276.18 169.239C272.036 170.552 269.993 165.795 265.673 168.1C262.113 169.968 259.194 177.586 259.194 177.586C258.377 168.217 268.738 161.505 274.224 160.746Z" fill="#263238"/>
<path d="M298.068 197.053C298.097 195.214 299.644 193.696 301.483 193.813C303.73 193.93 306.269 195.126 306.269 199.738C306.328 207.968 298.068 206.304 298.039 206.071C298.039 205.896 298.068 200.496 298.068 197.053Z" fill="#FFC8AF"/>
<path d="M299.819 202.977C299.849 202.948 299.965 203.064 300.199 203.181C300.432 203.269 300.841 203.356 301.279 203.181C302.154 202.86 302.884 201.488 302.913 200C302.913 199.27 302.767 198.541 302.504 197.957C302.242 197.373 301.862 196.935 301.425 196.877C300.987 196.76 300.666 197.023 300.578 197.256C300.462 197.49 300.52 197.665 300.462 197.665C300.462 197.694 300.286 197.519 300.374 197.198C300.403 197.023 300.491 196.848 300.695 196.673C300.87 196.527 301.162 196.439 301.483 196.468C302.096 196.498 302.68 197.081 302.971 197.723C303.292 198.395 303.497 199.183 303.468 200.029C303.438 201.663 302.592 203.239 301.395 203.59C300.812 203.736 300.345 203.56 300.082 203.356C299.849 203.152 299.79 202.977 299.819 202.977Z" fill="#6F4439"/>
<path d="M297.377 181.175C296.327 181.934 295.218 182.722 293.934 182.897C292.679 183.072 291.161 182.401 290.898 181.117C290.782 180.562 290.898 179.891 290.519 179.453C290.052 178.957 289.235 179.132 288.534 179.249C286.17 179.57 283.66 177.994 282.989 175.688C282.405 176.622 280.975 176.622 280.041 176.068C279.108 175.513 278.465 174.55 277.707 173.762C276.977 172.945 275.926 172.245 274.847 172.449C274.263 172.566 273.679 172.945 273.095 172.916C271.986 172.857 271.432 171.602 271.228 170.552C271.023 169.472 270.848 168.217 269.914 167.692C269.068 167.166 267.988 167.517 266.996 167.692C266.003 167.896 264.719 167.692 264.427 166.729C264.282 166.232 264.457 165.678 264.748 165.24C265.945 163.168 268.688 162.176 270.936 162.993C271.636 160.249 274.117 158.061 276.919 157.652C279.72 157.273 282.668 158.703 284.127 161.125C285.791 159.491 288.301 158.761 290.607 159.199C292.912 159.637 294.955 161.242 295.889 163.372C297.874 162.789 300.179 163.489 301.493 165.065C302.835 166.641 303.098 169.034 302.135 170.873C303.652 171.661 304.966 173.091 305.053 174.784C305.141 176.476 303.565 178.227 301.901 177.848C302.602 179.132 302.135 180.971 300.88 181.73C299.625 182.518 297.786 182.167 296.94 180.942" fill="#263238"/>
<path d="M302.506 177.819C302.506 177.79 302.681 178.49 302.039 179.395C301.718 179.833 301.193 180.3 300.434 180.445C299.704 180.591 298.77 180.445 298.07 179.833L298.42 179.774C298.041 180.504 297.515 181.233 296.844 181.876C296.406 182.284 295.939 182.664 295.385 182.868C294.86 183.101 294.247 183.13 293.75 183.072C292.7 183.014 291.766 182.488 291.328 181.817C290.861 181.146 290.686 180.533 290.598 180.124C290.511 179.716 290.482 179.482 290.511 179.453C290.54 179.453 290.628 179.687 290.774 180.066C290.92 180.445 291.124 181.029 291.591 181.613C292.408 182.751 294.947 183.276 296.523 181.554C297.136 180.942 297.632 180.241 298.012 179.57L298.157 179.336L298.362 179.512C298.945 180.008 299.733 180.183 300.346 180.066C301.018 179.978 301.514 179.599 301.806 179.22C302.448 178.461 302.418 177.79 302.506 177.819Z" fill="#455A64"/>
<path d="M208.036 287.06C208.503 288.081 207.569 294.706 207.569 294.706C207.569 294.706 200.973 295.815 198.405 296.049C195.837 296.253 183.083 291.7 183.083 291.7L173.773 292.663C173.773 292.663 165.28 297.07 163.616 297.712C161.924 298.354 160.902 297.508 160.698 296.282C160.523 295.056 169.92 288.898 169.92 288.898L179.259 286.418C179.259 286.418 183.666 284.841 184.775 284.491C185.884 284.141 188.132 284.199 189.066 284.491C190 284.783 205.468 285.25 205.468 285.25C205.468 285.25 207.569 286.009 208.036 287.06Z" fill="#FFC8AF"/>
<path d="M161.365 301.739C161.365 301.739 169.216 293.334 171.404 292.195C173.564 291.057 185.676 289.073 185.676 289.073C185.676 289.073 189.558 287.467 190.958 288.051C192.389 288.606 207.419 290.882 208.09 290.97C208.732 291.057 204.88 304.22 204.88 304.22C204.88 304.22 199.656 305.154 193.614 303.753C187.573 302.323 185.472 300.426 185.472 300.426L179.46 298.85L175.753 300.251C175.753 300.251 175.082 305.737 172.426 305.445L171.2 304.599L172.163 298.529L168.282 300.134C168.282 300.134 165.246 304.687 162.999 304.015C160.723 303.373 161.365 301.739 161.365 301.739Z" fill="#FFC8AF"/>
<path d="M161.366 301.74C161.395 301.769 161.278 301.973 161.307 302.411C161.336 302.615 161.424 302.907 161.599 303.14C161.803 303.403 162.124 303.637 162.504 303.783C162.883 303.958 163.35 304.104 163.876 303.987C164.372 303.87 164.868 303.607 165.364 303.228C166.356 302.498 167.29 301.419 168.224 300.105V300.076H168.253C169.421 299.58 170.705 299.025 172.106 298.442L172.281 298.383L172.252 298.558C171.96 300.368 171.668 302.411 171.318 304.6L171.289 304.512C171.639 304.746 172.077 305.037 172.514 305.358L172.456 305.329C172.952 305.359 173.448 305.183 173.828 304.833C174.207 304.483 174.499 304.016 174.732 303.52C175.17 302.528 175.462 301.389 175.637 300.251V300.164L175.696 300.134C176.863 299.697 178.118 299.2 179.402 298.733L179.431 298.704H179.49C181.387 299.2 183.43 299.755 185.531 300.28L185.56 300.309L185.589 300.339C186.757 301.243 188.245 301.885 189.763 302.469C191.28 302.995 192.886 303.432 194.52 303.783C196.154 304.104 197.876 304.308 199.598 304.366C201.32 304.395 203.1 304.337 204.852 304.074L204.735 304.162C204.997 303.228 205.289 302.236 205.552 301.243C206.398 298.267 207.245 295.348 207.828 292.459C207.916 292.079 207.974 291.729 208.004 291.379C208.004 291.291 208.004 291.204 208.004 291.116C208.004 291.087 207.974 291.058 208.033 291.116C208.033 291.116 208.042 291.116 208.062 291.116H208.033H208.004H207.945L207.391 291.029C206.671 290.912 205.951 290.805 205.231 290.708C203.811 290.474 202.4 290.25 200.999 290.036C198.226 289.569 195.541 289.132 192.944 288.635C192.302 288.519 191.689 288.402 191.047 288.198C190.463 287.993 189.821 288.052 189.237 288.139C188.012 288.373 186.844 288.781 185.735 289.19L185.706 289.219C181.474 289.92 177.593 290.62 174.236 291.437C173.39 291.641 172.573 291.846 171.814 292.138C171.084 292.429 170.471 292.955 169.917 293.422C168.779 294.385 167.786 295.348 166.882 296.224C165.101 297.945 163.73 299.346 162.796 300.309C162.348 300.776 161.998 301.136 161.745 301.389C161.512 301.623 161.366 301.74 161.366 301.74C161.366 301.74 161.482 301.623 161.716 301.36C161.969 301.107 162.309 300.738 162.737 300.251C163.671 299.288 165.014 297.858 166.765 296.107C167.67 295.231 168.662 294.268 169.8 293.276C170.092 293.042 170.384 292.78 170.705 292.546C170.997 292.313 171.347 292.108 171.756 291.963C172.514 291.671 173.332 291.437 174.178 291.233C177.563 290.387 181.416 289.686 185.648 288.956H185.619C186.757 288.519 187.924 288.11 189.179 287.877C189.792 287.789 190.492 287.702 191.134 287.964C191.718 288.139 192.36 288.256 193.002 288.373C195.571 288.869 198.285 289.307 201.057 289.744C202.439 289.958 203.849 290.173 205.289 290.387C205.99 290.503 206.71 290.62 207.449 290.737L207.974 290.824H208.062H208.091C208.13 290.824 208.159 290.834 208.179 290.853C208.295 290.941 208.295 291.029 208.295 291.087C208.325 291.204 208.295 291.291 208.295 291.379C208.266 291.787 208.208 292.138 208.12 292.517C207.537 295.436 206.69 298.354 205.844 301.331C205.581 302.323 205.289 303.316 205.027 304.249L204.997 304.337L204.881 304.366C203.1 304.629 201.349 304.716 199.598 304.658C197.847 304.6 196.125 304.425 194.462 304.074C192.808 303.724 191.212 303.277 189.675 302.732C188.897 302.459 188.148 302.148 187.428 301.798C186.698 301.419 186.027 301.039 185.385 300.543L185.443 300.572C183.342 300.018 181.328 299.463 179.402 298.967H179.49C178.205 299.463 176.951 299.93 175.783 300.368L175.871 300.28C175.696 301.448 175.404 302.586 174.937 303.607C174.703 304.133 174.382 304.629 173.974 305.008C173.565 305.388 172.981 305.621 172.427 305.563H172.398L172.368 305.534C171.931 305.242 171.522 304.95 171.143 304.687L171.084 304.629L171.114 304.57C171.435 302.382 171.785 300.339 172.047 298.529L172.193 298.617C170.792 299.2 169.479 299.755 168.312 300.222L168.341 300.193C167.407 301.506 166.444 302.586 165.452 303.345C164.926 303.695 164.401 303.987 163.876 304.104C163.35 304.22 162.854 304.045 162.475 303.87C162.066 303.695 161.745 303.461 161.57 303.199C161.366 302.907 161.278 302.644 161.278 302.411C161.249 301.973 161.366 301.74 161.366 301.74Z" fill="#6F4439"/>
<path d="M185.147 294.648C185.147 294.648 184.914 294.648 184.534 294.618C184.155 294.589 183.6 294.531 182.929 294.473C182.229 294.385 181.411 294.297 180.536 294.21C180.322 294.171 180.098 294.142 179.865 294.122C179.631 294.093 179.427 294.093 179.164 294.122C178.697 294.21 178.201 294.327 177.705 294.443C175.75 294.998 173.765 295.377 173.006 296.545C172.598 297.099 172.422 297.625 172.306 297.975C172.189 298.325 172.16 298.529 172.16 298.529C172.131 298.529 172.131 298.325 172.189 297.946C172.277 297.566 172.422 297.012 172.831 296.428C173.035 296.136 173.298 295.844 173.648 295.611C173.969 295.377 174.378 295.173 174.816 295.027C175.662 294.706 176.625 294.414 177.617 294.152C178.143 294.006 178.639 293.889 179.135 293.83C179.369 293.801 179.66 293.801 179.894 293.83C180.127 293.869 180.351 293.899 180.565 293.918C181.441 294.035 182.258 294.152 182.958 294.239C183.63 294.356 184.184 294.443 184.563 294.502C184.943 294.56 185.147 294.618 185.147 294.648Z" fill="#6F4439"/>
<path d="M164.088 298.967C164.059 298.937 164.293 298.704 164.73 298.295C165.168 297.887 165.81 297.332 166.627 296.661C167.445 295.99 168.408 295.173 169.546 294.355C170.13 293.947 170.743 293.538 171.385 293.13C171.706 292.954 172.056 292.75 172.435 292.575C172.815 292.429 173.194 292.312 173.603 292.225C176.726 291.349 179.644 291.116 181.745 290.824C182.767 290.678 183.584 290.59 184.226 290.503C184.81 290.445 185.16 290.415 185.16 290.445C185.16 290.445 184.839 290.532 184.255 290.62C183.613 290.736 182.767 290.853 181.775 291.028C179.702 291.408 176.784 291.641 173.661 292.517C173.282 292.604 172.902 292.721 172.552 292.867C172.202 293.013 171.852 293.217 171.531 293.392C170.889 293.772 170.276 294.18 169.721 294.589C168.583 295.406 167.591 296.165 166.744 296.807C165.956 297.449 165.314 297.974 164.818 298.383C164.351 298.762 164.088 298.967 164.088 298.967Z" fill="#6F4439"/>
<path d="M270.196 236.89L266.373 297.128C266.373 297.128 257.851 306.35 249.854 308.802C241.857 311.253 206.164 298.529 206.164 298.529L205.609 284.257L242.587 282.331C242.587 282.331 251.664 262.456 254.465 256.619C257.734 249.79 261.849 244.128 261.849 244.128C267.015 236.306 270.196 236.89 270.196 236.89Z" fill="#FFC514"/>
<path d="M269.843 233.797L299.262 226.267C299.262 226.267 300.4 229.915 300.633 230.178C304.719 234.643 314.701 242.757 315.693 255.773C317.036 273.168 314.963 325 314.963 325H251.836L255.046 297.041C255.046 297.041 255.98 285.717 258.724 267.652C260.095 258.546 269.58 237.036 269.58 237.036L269.843 233.797Z" fill="#FFC514"/>
<path d="M266.527 240.305C266.547 240.305 266.527 240.373 266.469 240.509C266.411 240.645 266.333 240.84 266.235 241.093C266.002 241.618 265.681 242.367 265.272 243.34C264.484 245.295 263.288 248.126 262.12 251.716C260.924 255.306 259.786 259.654 258.852 264.587C257.918 269.49 257.159 274.918 256.517 280.668C255.349 292.167 254.299 302.557 253.54 310.086C253.16 313.851 252.839 316.886 252.606 319.017C252.489 320.048 252.402 320.856 252.343 321.439C252.304 321.692 252.285 321.897 252.285 322.052C252.265 322.208 252.246 322.286 252.227 322.286C252.227 322.266 252.227 322.188 252.227 322.052C252.246 321.897 252.265 321.683 252.285 321.41C252.343 320.846 252.411 320.038 252.489 318.988C252.694 316.857 252.985 313.822 253.336 310.057C254.065 302.527 255.028 292.137 256.225 280.639C256.867 274.889 257.626 269.431 258.589 264.528C259.523 259.596 260.69 255.247 261.916 251.658C263.113 248.068 264.338 245.237 265.185 243.282C265.593 242.318 265.944 241.56 266.177 241.063C266.294 240.83 266.381 240.635 266.44 240.48C266.498 240.363 266.527 240.305 266.527 240.305Z" fill="#263238"/>
<g opacity="0.3">
<path d="M297.163 291.174C294.857 299.492 291.559 307.839 285.46 313.938C282.541 316.886 278.922 319.279 274.865 320.155C267.306 321.76 259.777 317.995 252.977 314.318L291.472 259.362C296.171 262.66 298.739 268.41 299.323 274.13C299.906 279.879 298.71 285.629 297.163 291.174Z" fill="black"/>
</g>
<path d="M303.708 267.505C298.893 284.462 288.123 305.183 284.796 309.327C278.317 317.47 269.766 319.221 264.659 319.221C260.31 319.221 223.624 312.071 212.738 309.94C210.9 309.561 209.47 308.16 209.061 306.321L208.973 305.884L204.07 304.541L206.697 291.408L207.222 290.678L259.697 292.342L274.961 249.79C275.253 249.323 279.66 235.051 291.626 235.693" fill="#FFC514"/>
<path d="M291.629 235.693C291.629 235.693 291.502 235.693 291.25 235.693C290.987 235.693 290.578 235.664 290.082 235.722C289.031 235.781 287.485 235.985 285.646 236.773C283.836 237.561 281.764 238.991 279.896 241.209C278.029 243.427 276.365 246.346 275.052 249.848V249.819C271.199 260.617 265.975 275.239 259.817 292.371L259.788 292.458H259.7C244.086 291.991 226.225 291.437 207.196 290.824L207.342 290.766C207.167 290.999 206.992 291.262 206.817 291.495L206.846 291.437C206.087 295.231 205.299 299.288 204.482 303.374C204.395 303.782 204.307 304.191 204.249 304.57L204.132 304.395C205.825 304.862 207.459 305.3 209.035 305.708L209.123 305.738V305.825C209.298 306.934 209.765 307.926 210.582 308.656C210.961 309.035 211.428 309.327 211.924 309.532C212.391 309.736 212.946 309.823 213.471 309.94C215.631 310.349 217.781 310.767 219.921 311.195C224.163 312.012 228.346 312.81 232.471 313.588C240.672 315.164 248.61 316.624 256.169 317.908C258.066 318.229 259.934 318.521 261.773 318.783C262.677 318.9 263.611 319.046 264.516 319.075C265.43 319.095 266.335 319.046 267.23 318.929C270.82 318.55 274.205 317.412 277.153 315.748C280.101 314.084 282.582 311.866 284.566 309.444C285.529 308.218 286.317 306.876 287.105 305.592C287.864 304.288 288.584 303.004 289.265 301.739C294.723 291.583 298.283 282.944 300.53 276.932C301.639 273.926 302.427 271.562 302.924 269.957C303.176 269.159 303.371 268.546 303.507 268.118C303.624 267.709 303.712 267.505 303.712 267.505C303.712 267.505 303.653 267.709 303.536 268.118C303.4 268.546 303.215 269.169 302.982 269.986C302.515 271.591 301.727 273.955 300.647 276.99C298.4 283.002 294.868 291.641 289.469 301.856C288.788 303.121 288.068 304.405 287.31 305.708C286.522 307.022 285.734 308.335 284.741 309.59C282.727 312.041 280.247 314.289 277.27 315.981C274.322 317.645 270.878 318.812 267.259 319.192C266.364 319.309 265.45 319.357 264.516 319.338C263.582 319.309 262.648 319.163 261.743 319.046C259.875 318.783 258.008 318.491 256.111 318.2C248.552 316.915 240.643 315.427 232.412 313.88C228.287 313.102 224.104 312.304 219.863 311.487C217.722 311.059 215.572 310.641 213.413 310.232C212.887 310.115 212.333 310.028 211.808 309.794C211.282 309.59 210.786 309.269 210.378 308.89C209.502 308.131 209.006 306.992 208.831 305.913L208.947 306.029C207.401 305.592 205.737 305.154 204.044 304.687L203.898 304.658L203.928 304.512C204.015 304.132 204.103 303.724 204.19 303.315C204.978 299.229 205.795 295.173 206.554 291.378V291.349L206.583 291.32C206.759 291.087 206.934 290.824 207.08 290.59L207.138 290.532H207.226C226.254 291.145 244.086 291.699 259.7 292.196L259.584 292.283C265.742 275.152 271.024 260.53 274.906 249.76C276.219 246.287 277.912 243.34 279.809 241.122C281.677 238.904 283.778 237.474 285.617 236.686C287.485 235.927 289.031 235.722 290.053 235.693C290.578 235.635 290.987 235.664 291.25 235.664C291.502 235.683 291.629 235.693 291.629 235.693Z" fill="#263238"/>
<path d="M248.133 288.956C248.046 289.015 247.316 287.059 245.594 285.25C243.901 283.411 242.034 282.565 242.063 282.477C242.092 282.419 242.588 282.594 243.289 283.032C244.018 283.44 244.952 284.112 245.828 285.045C246.674 285.979 247.316 286.972 247.666 287.701C248.017 288.46 248.163 288.956 248.133 288.956Z" fill="#263238"/>
<path d="M266.053 302.615C265.995 302.644 265.878 301.944 265.587 300.893C265.295 299.842 264.74 298.412 263.865 296.982C262.989 295.552 261.968 294.414 261.15 293.655C260.362 292.896 259.808 292.488 259.837 292.459C259.837 292.429 259.983 292.517 260.246 292.692C260.508 292.867 260.888 293.13 261.296 293.48C262.172 294.21 263.223 295.348 264.127 296.807C265.003 298.267 265.528 299.755 265.791 300.835C265.937 301.389 265.995 301.827 266.024 302.148C266.053 302.44 266.053 302.615 266.053 302.615Z" fill="#263238"/>
<g opacity="0.3">
<path d="M260.19 256.356C258.059 268.176 255.607 280.113 255.111 292.108L252.047 291.991C253.389 279.821 254.79 267.359 260.19 256.356Z" fill="black"/>
</g>
<path d="M299.627 230.178C299.627 230.197 299.529 230.226 299.335 230.265C299.121 230.343 298.839 230.421 298.489 230.499C297.73 230.703 296.679 230.995 295.395 231.345C292.797 232.016 289.178 233.009 285.18 234.03C281.182 235.052 277.504 235.81 274.849 236.248C273.506 236.482 272.426 236.628 271.667 236.715C271.317 236.754 271.025 236.783 270.792 236.803C270.597 236.822 270.5 236.822 270.5 236.803C270.5 236.803 270.597 236.783 270.792 236.744C271.025 236.705 271.317 236.657 271.667 236.598C272.397 236.482 273.477 236.307 274.819 236.044C277.475 235.548 281.123 234.76 285.122 233.738C289.12 232.717 292.71 231.754 295.337 231.112C296.65 230.791 297.73 230.557 298.459 230.382C298.81 230.324 299.101 230.265 299.335 230.207C299.529 230.187 299.627 230.178 299.627 230.178Z" fill="#263238"/>
<path fill-rule="evenodd" clip-rule="evenodd" d="M275.865 101.684C272.432 101.292 269.358 103.584 268.99 106.812C268.695 109.393 270.224 111.78 272.602 112.835C272.904 112.928 273.038 112.757 273.056 112.603C273.071 112.467 273.114 112.002 273.169 111.519C271.402 111.67 271.162 110.585 271.162 110.585C270.962 109.877 270.57 109.656 270.57 109.656C270.046 109.234 270.652 109.303 270.652 109.303C271.275 109.413 271.54 110.011 271.54 110.011C271.993 110.964 272.916 110.815 273.294 110.701C273.388 110.33 273.583 110.088 273.774 109.963C272.412 109.67 271.02 109.002 271.276 106.76C271.349 106.122 271.655 105.628 272.092 105.267C272.047 105.115 271.899 104.491 272.33 103.728C272.33 103.728 272.872 103.633 273.968 104.522C274.489 104.452 275.018 104.446 275.542 104.506C276.067 104.565 276.593 104.694 277.072 104.876C278.341 104.257 278.847 104.472 278.847 104.472C279.095 105.313 278.81 105.887 278.732 106.025C279.087 106.477 279.263 107.026 279.191 107.664C278.935 109.906 277.429 110.233 276.025 110.22C276.23 110.429 276.385 110.799 276.323 111.35C276.233 112.133 276.151 112.76 276.129 112.953C276.112 113.108 276.204 113.305 276.519 113.282C279.074 112.79 281.101 110.809 281.396 108.229C281.775 105.002 279.287 102.074 275.865 101.684Z" fill="#24292F"/>
<defs>
<linearGradient id="paint0_linear_1207_18676" x1="287.393" y1="118.871" x2="282.956" y2="124.077" gradientUnits="userSpaceOnUse">
<stop offset="0.18" stop-color="#0052CC"/>
<stop offset="1" stop-color="#2684FF"/>
</linearGradient>
<linearGradient id="paint1_linear_1207_18676" x1="167.68" y1="99.3985" x2="204.336" y2="99.3985" gradientUnits="userSpaceOnUse">
<stop offset="0.390625" stop-color="#3D8BFD"/>
<stop offset="1" stop-color="#1273FF"/>
</linearGradient>
<linearGradient id="paint2_linear_1207_18676" x1="208.359" y1="128.774" x2="245.57" y2="128.774" gradientUnits="userSpaceOnUse">
<stop offset="0.333333" stop-color="#FF8534"/>
<stop offset="1" stop-color="#FF630C"/>
</linearGradient>
</defs>
</svg>
