<svg width="400" height="400" viewBox="0 0 400 400" fill="none" xmlns="http://www.w3.org/2000/svg">
<path opacity="0.5" d="M347.824 164.379C352.471 190.841 347.343 218.983 338.17 243.951C334.383 254.239 329.796 264.456 323.664 273.587C314.758 286.844 303.098 290.713 286.463 289.342C264.126 287.499 244.123 278.92 222.308 275.706C210.044 273.904 201.609 275.266 191.403 281.275C173.17 292.024 153.997 301.513 133.482 306.734C108.493 313.102 74.6701 315.067 54.7797 295.515C32.5552 273.669 37.6532 236.683 51.34 211.684C55.7726 203.586 63.2047 197.802 69.1729 190.831C84.211 173.285 91.7966 151.859 95.4 129.225C98.0105 112.805 108.432 100.94 125.077 98.3297C139.829 96.0161 153.884 100.776 167.694 105.352C181.933 110.071 194.801 110.256 209.819 108.71C214.651 108.208 219.503 107.584 224.376 106.929C248.545 103.673 273.002 99.6298 296.659 106.478C324.535 114.535 342.838 136.022 347.824 164.379Z" fill="#CAEFF3"/>
<path d="M341.924 225.493C341.924 229.844 289.419 233.376 224.639 233.376C159.859 233.376 107.344 229.844 107.344 225.493C107.344 221.143 159.859 217.611 224.639 217.611C289.419 217.611 341.924 221.143 341.924 225.493Z" fill="#8EC9CE"/>
<path d="M319.291 104.257V206.964C319.291 210.916 316.087 214.12 312.135 214.12H137.727C133.776 214.12 130.582 210.916 130.582 206.964V104.257C130.582 100.305 133.776 97.1011 137.727 97.1011H312.135C316.087 97.1011 319.291 100.305 319.291 104.257Z" fill="#232063"/>
<path d="M310.905 109.57V195.243C310.905 197.761 308.725 199.809 306.033 199.809H143.838C142.394 199.809 141.104 199.225 140.214 198.294C139.436 197.485 138.965 196.42 138.965 195.243V109.57C138.965 107.051 141.145 105.004 143.838 105.004H306.033C306.933 105.004 307.773 105.239 308.5 105.639C309.933 106.427 310.905 107.891 310.905 109.57Z" fill="white"/>
<path d="M112.957 210.046H336.922V210.701C336.922 213.936 335.878 216.935 334.117 219.372C331.425 223.088 327.053 225.504 322.109 225.504H127.76C122.825 225.504 118.444 223.088 115.752 219.372C113.991 216.935 112.957 213.936 112.957 210.701V210.046Z" fill="black"/>
<path d="M226.584 217.775C226.584 218.962 225.632 219.914 224.444 219.914C223.267 219.914 222.305 218.962 222.305 217.775C222.305 216.598 223.267 215.635 224.444 215.635C225.632 215.635 226.584 216.598 226.584 217.775Z" fill="#222222"/>
<path fill-rule="evenodd" clip-rule="evenodd" d="M226.635 217.775C226.635 218.983 225.653 219.965 224.445 219.965C223.237 219.965 222.254 218.983 222.254 217.775C222.254 216.567 223.237 215.584 224.445 215.584C225.653 215.584 226.635 216.567 226.635 217.775ZM226.533 217.775C226.533 216.628 225.601 215.686 224.445 215.686C223.288 215.686 222.356 216.628 222.356 217.775C222.356 218.931 223.288 219.863 224.445 219.863C225.601 219.863 226.533 218.931 226.533 217.775Z" fill="black"/>
<path d="M219.017 217.775C219.017 218.962 218.065 219.914 216.878 219.914C215.701 219.914 214.738 218.962 214.738 217.775C214.738 216.598 215.701 215.635 216.878 215.635C218.065 215.635 219.017 216.598 219.017 217.775Z" fill="#222222"/>
<path fill-rule="evenodd" clip-rule="evenodd" d="M219.073 217.775C219.073 218.983 218.09 219.965 216.882 219.965C215.674 219.965 214.691 218.983 214.691 217.775C214.691 216.567 215.674 215.584 216.882 215.584C218.09 215.584 219.073 216.567 219.073 217.775ZM218.97 217.775C218.97 216.628 218.039 215.686 216.882 215.686C215.736 215.686 214.794 216.628 214.794 217.775C214.794 218.931 215.736 219.863 216.882 219.863C218.039 219.863 218.97 218.931 218.97 217.775Z" fill="black"/>
<path d="M234.15 217.775C234.15 218.962 233.188 219.914 232.011 219.914C230.823 219.914 229.871 218.962 229.871 217.775C229.871 216.598 230.823 215.635 232.011 215.635C233.188 215.635 234.15 216.598 234.15 217.775Z" fill="#222222"/>
<path fill-rule="evenodd" clip-rule="evenodd" d="M234.202 217.775C234.202 218.983 233.219 219.965 232.011 219.965C230.803 219.965 229.82 218.983 229.82 217.775C229.82 216.567 230.803 215.584 232.011 215.584C233.219 215.584 234.202 216.567 234.202 217.775ZM234.099 217.775C234.099 216.628 233.158 215.686 232.011 215.686C230.854 215.686 229.923 216.628 229.923 217.775C229.923 218.931 230.854 219.863 232.011 219.863C233.158 219.863 234.099 218.931 234.099 217.775Z" fill="black"/>
<path d="M309.228 217.775C309.228 218.962 308.266 219.914 307.089 219.914C305.901 219.914 304.949 218.962 304.949 217.775C304.949 216.598 305.901 215.635 307.089 215.635C308.266 215.635 309.228 216.598 309.228 217.775Z" fill="#8E8E8E"/>
<path fill-rule="evenodd" clip-rule="evenodd" d="M309.28 217.775C309.28 218.983 308.297 219.965 307.089 219.965C305.881 219.965 304.898 218.983 304.898 217.775C304.898 216.567 305.881 215.584 307.089 215.584C308.297 215.584 309.28 216.567 309.28 217.775ZM309.178 217.775C309.178 216.628 308.236 215.686 307.089 215.686C305.932 215.686 305.001 216.628 305.001 217.775C305.001 218.931 305.932 219.863 307.089 219.863C308.236 219.863 309.178 218.931 309.178 217.775Z" fill="black"/>
<path d="M316.793 217.775C316.793 218.962 315.831 219.914 314.643 219.914C313.466 219.914 312.504 218.962 312.504 217.775C312.504 216.598 313.466 215.635 314.643 215.635C315.831 215.635 316.793 216.598 316.793 217.775Z" fill="#C8C8C8"/>
<path fill-rule="evenodd" clip-rule="evenodd" d="M316.845 217.775C316.845 218.983 315.852 219.965 314.644 219.965C313.436 219.965 312.453 218.983 312.453 217.775C312.453 216.567 313.436 215.584 314.644 215.584C315.852 215.584 316.845 216.567 316.845 217.775ZM316.742 217.775C316.742 216.628 315.801 215.686 314.644 215.686C313.497 215.686 312.555 216.628 312.555 217.775C312.555 218.931 313.497 219.863 314.644 219.863C315.801 219.863 316.742 218.931 316.742 217.775Z" fill="black"/>
<path d="M199.836 210.046H249.055V210.199C249.055 211.366 248.277 212.319 247.305 212.319H201.586C200.614 212.319 199.836 211.366 199.836 210.199V210.046Z" fill="#717171"/>
<path fill-rule="evenodd" clip-rule="evenodd" d="M199.785 209.995H249.107V210.199C249.107 211.397 248.298 212.37 247.305 212.37H201.587C200.594 212.37 199.785 211.397 199.785 210.199V209.995ZM199.888 210.189C199.888 211.336 200.645 212.267 201.587 212.267H247.305C248.247 212.267 249.005 211.336 249.005 210.189V210.097H199.888V210.189Z" fill="black"/>
<path d="M310.025 107.092C310.578 107.88 310.905 108.843 310.905 109.877V115.272H138.965V109.877C138.965 108.843 139.282 107.88 139.835 107.092C140.715 105.833 142.179 105.004 143.838 105.004H306.033C307.681 105.004 309.145 105.833 310.025 107.092Z" fill="#61BFFF"/>
<path d="M297.064 110.409C297.064 111.115 296.481 111.699 295.774 111.699C295.058 111.699 294.484 111.115 294.484 110.409C294.484 109.692 295.058 109.119 295.774 109.119C296.481 109.119 297.064 109.692 297.064 110.409Z" fill="#018E85"/>
<path d="M301.244 110.409C301.244 111.115 300.67 111.699 299.954 111.699C299.237 111.699 298.664 111.115 298.664 110.409C298.664 109.692 299.237 109.119 299.954 109.119C300.67 109.119 301.244 109.692 301.244 110.409Z" fill="#018E85"/>
<path d="M305.214 110.409C305.214 111.115 304.641 111.699 303.924 111.699C303.218 111.699 302.645 111.115 302.645 110.409C302.645 109.692 303.218 109.119 303.924 109.119C304.641 109.119 305.214 109.692 305.214 110.409Z" fill="#018E85"/>
<path d="M289.287 110.347V110.46C289.287 111.177 288.704 111.77 287.987 111.77H157.015C156.298 111.77 155.715 111.177 155.715 110.46V110.347C155.715 109.631 156.298 109.037 157.015 109.037H287.987C288.704 109.037 289.287 109.631 289.287 110.347Z" fill="#018E85"/>
<path d="M147.115 109.14V110.409V111.668C147.115 111.842 146.92 111.955 146.767 111.873L145.671 111.238L144.576 110.603C144.423 110.511 144.423 110.296 144.576 110.204L145.671 109.57L146.767 108.945C146.92 108.853 147.115 108.966 147.115 109.14Z" fill="#018E85"/>
<path d="M151.57 110.603L150.475 111.238L149.379 111.873C149.226 111.955 149.031 111.842 149.031 111.668V110.409V109.14C149.031 108.966 149.226 108.853 149.379 108.945L150.475 109.57L151.57 110.204C151.724 110.296 151.724 110.511 151.57 110.603Z" fill="#018E85"/>
<path d="M299.903 82.9129L304.919 172.016L273.973 81.8688L296.085 79.6576C298.05 79.4528 299.79 80.9372 299.903 82.9129Z" fill="#BAE0DD"/>
<path d="M304.889 171.667C305.165 173.571 303.845 175.342 301.94 175.609L172.023 194.363C170.119 194.629 168.348 193.308 168.071 191.404L154.845 99.7217C154.569 97.8176 155.889 96.0569 157.793 95.7805L287.711 77.0366C289.615 76.7602 291.386 78.0807 291.663 79.9848L304.889 171.667Z" fill="#DEF8F7"/>
<path d="M181.287 118.65C181.287 119.258 181.256 119.855 181.195 120.442C181.209 120.633 181.209 120.854 181.195 121.107C181.181 121.36 181.147 121.592 181.093 121.803C181.031 122.015 180.939 122.202 180.816 122.366C180.693 122.53 180.526 122.629 180.315 122.663C180.083 122.704 179.827 122.66 179.547 122.53C179.369 122.475 179.219 122.37 179.096 122.213C178.967 122.049 178.857 121.888 178.769 121.731C178.707 121.636 178.653 121.544 178.605 121.455C178.557 121.366 178.516 121.271 178.482 121.168C178.414 121.025 178.373 120.885 178.359 120.749C178.346 120.612 178.325 120.472 178.298 120.329L178.257 120.042C178.209 119.79 178.155 119.541 178.093 119.295C178.032 119.049 177.977 118.8 177.929 118.548L177.827 117.923C177.786 117.691 177.752 117.459 177.725 117.227C177.697 116.995 177.663 116.763 177.622 116.531C177.581 116.306 177.551 116.07 177.53 115.825C177.51 115.579 177.479 115.34 177.438 115.108L177.233 113.89C177.206 113.74 177.158 113.559 177.09 113.347C177.022 113.129 176.926 112.979 176.803 112.897C176.803 112.876 176.793 112.866 176.773 112.866C176.684 112.839 176.602 112.795 176.527 112.733C176.452 112.672 176.356 112.627 176.24 112.6C175.913 112.423 175.588 112.249 175.268 112.078C174.947 111.907 174.606 111.764 174.244 111.648C174.019 111.559 173.787 111.454 173.548 111.331C173.316 111.215 173.074 111.112 172.821 111.024C172.596 110.955 172.374 110.884 172.156 110.809C171.944 110.74 171.726 110.672 171.501 110.604C171.323 110.57 171.159 110.532 171.009 110.491C170.866 110.45 170.709 110.423 170.538 110.409L170.374 110.44C170.333 110.447 170.31 110.457 170.303 110.471C170.296 110.484 170.272 110.495 170.231 110.501C170.06 111.279 170.05 112.098 170.2 112.958C170.344 113.818 170.487 114.719 170.63 115.661C170.746 116.65 170.856 117.613 170.958 118.548C171.06 119.476 171.139 120.387 171.193 121.281C171.207 121.472 171.142 121.673 170.999 121.885C170.849 122.09 170.647 122.213 170.395 122.254C170.231 122.288 170.064 122.257 169.893 122.161C169.729 122.073 169.579 121.953 169.443 121.803C169.313 121.653 169.204 121.479 169.115 121.281C169.027 121.083 168.969 120.899 168.941 120.728C168.9 120.626 168.876 120.527 168.87 120.431C168.87 120.336 168.859 120.237 168.839 120.134C168.818 120.032 168.805 119.926 168.798 119.817C168.791 119.708 168.781 119.602 168.767 119.5C168.726 119.288 168.696 119.09 168.675 118.906C168.655 118.715 168.627 118.514 168.593 118.302L168.44 117.391C168.406 117.227 168.382 117.074 168.368 116.93C168.361 116.794 168.341 116.644 168.307 116.48C168.259 116.186 168.218 115.903 168.184 115.63C168.15 115.357 168.105 115.074 168.051 114.781C168.017 114.46 167.972 114.139 167.918 113.818C167.863 113.491 167.819 113.17 167.784 112.856C167.737 112.563 167.703 112.266 167.682 111.965C167.668 111.665 167.634 111.368 167.58 111.075C167.552 110.781 167.515 110.488 167.467 110.194C167.413 109.901 167.382 109.604 167.375 109.304C167.375 109.154 167.372 109.01 167.365 108.874C167.365 108.73 167.361 108.584 167.355 108.434C167.355 108.283 167.337 108.137 167.303 107.993C167.262 107.85 167.242 107.703 167.242 107.553C167.201 107.062 167.242 106.581 167.365 106.11C167.488 105.639 167.764 105.322 168.194 105.158L168.409 105.127C168.682 105.079 168.924 105.103 169.136 105.199C169.347 105.287 169.535 105.41 169.699 105.567C169.869 105.717 170.023 105.885 170.159 106.069C170.303 106.246 170.45 106.4 170.6 106.53L171.163 107.011C171.381 107.147 171.579 107.314 171.756 107.512C171.927 107.703 172.122 107.867 172.34 108.004C172.579 108.133 172.814 108.277 173.046 108.434C173.278 108.591 173.493 108.737 173.691 108.874C173.759 108.928 173.831 108.986 173.906 109.048C173.981 109.109 174.067 109.164 174.162 109.212C174.36 109.328 174.575 109.416 174.807 109.478C175.046 109.532 175.261 109.618 175.452 109.734C175.52 109.768 175.585 109.799 175.646 109.826C175.708 109.86 175.773 109.894 175.841 109.928C175.861 109.921 175.875 109.925 175.882 109.938C175.882 109.945 175.892 109.949 175.913 109.949L176.128 109.908C176.169 109.901 176.196 109.891 176.21 109.877C176.216 109.87 176.23 109.863 176.25 109.857L176.281 109.816C176.39 109.085 176.39 108.301 176.281 107.461C176.172 106.622 176.148 105.83 176.21 105.086C176.264 104.772 176.366 104.468 176.517 104.175C176.66 103.882 176.919 103.704 177.295 103.643C177.69 103.574 178.035 103.639 178.329 103.837C178.622 104.035 178.799 104.322 178.861 104.697C178.902 104.799 178.936 104.895 178.963 104.984C178.984 105.079 179.004 105.178 179.025 105.281L179.107 105.782C179.148 106.014 179.206 106.246 179.281 106.478C179.349 106.717 179.403 106.949 179.444 107.174L180.018 110.532C180.038 110.641 180.065 110.757 180.1 110.88C180.127 111.003 180.151 111.116 180.171 111.218C180.342 111.839 180.478 112.453 180.581 113.061L180.734 113.972C180.762 114.136 180.782 114.286 180.796 114.422C180.809 114.559 180.83 114.712 180.857 114.883C180.891 115.197 180.936 115.507 180.99 115.814C181.038 116.115 181.079 116.425 181.113 116.746C181.229 117.415 181.287 118.05 181.287 118.65Z" fill="url(#paint0_linear_1108_15551)"/>
<path d="M194.013 116.644C194.115 117.224 194.013 117.746 193.705 118.21C193.391 118.674 192.955 118.954 192.395 119.049C192.347 119.056 192.306 119.07 192.272 119.09C192.231 119.104 192.19 119.114 192.149 119.121L191.955 119.152C191.771 119.206 191.586 119.251 191.402 119.285C191.211 119.319 191.02 119.35 190.829 119.377L190.614 119.418C190.532 119.431 190.453 119.449 190.378 119.469C190.31 119.496 190.232 119.517 190.143 119.53C190.061 119.544 189.979 119.565 189.897 119.592C189.815 119.612 189.733 119.629 189.652 119.643L189.242 119.715C189.078 119.742 188.925 119.78 188.781 119.827C188.638 119.875 188.481 119.913 188.311 119.94L187.717 120.042C187.655 120.049 187.597 120.052 187.543 120.052C187.488 120.052 187.44 120.056 187.399 120.063L187.307 120.083C186.707 120.097 186.14 119.977 185.608 119.725C185.082 119.472 184.769 119.042 184.666 118.435L184.574 117.933L184.584 117.8L184.451 117.012C184.39 116.637 184.356 116.272 184.349 115.917C184.342 115.562 184.308 115.207 184.246 114.852L184.175 114.443L184.195 114.34L184.103 113.839L184.113 113.685L184.093 113.552C184.079 113.47 184.069 113.388 184.062 113.306C184.055 113.218 184.045 113.132 184.031 113.05L184.001 112.856C183.98 112.733 183.963 112.607 183.95 112.477C183.943 112.354 183.929 112.228 183.909 112.098L183.898 111.873L183.888 111.781C183.868 111.679 183.857 111.59 183.857 111.515C183.851 111.44 183.84 111.348 183.827 111.238L183.694 110.266C183.68 110.095 183.656 109.938 183.622 109.795C183.588 109.652 183.567 109.491 183.561 109.314L183.417 108.474C183.41 108.304 183.397 108.143 183.376 107.993C183.363 107.843 183.356 107.693 183.356 107.543C183.356 107.413 183.349 107.28 183.335 107.144C183.322 107.007 183.301 106.864 183.274 106.714C183.247 106.55 183.206 106.376 183.151 106.192C183.103 106.007 183.062 105.83 183.028 105.659C182.994 105.455 182.984 105.253 182.998 105.055C183.004 104.857 183.015 104.673 183.028 104.503C183.021 104.462 183.021 104.424 183.028 104.39C183.028 104.356 183.025 104.318 183.018 104.277C183.018 103.888 183.107 103.479 183.284 103.049C183.455 102.626 183.7 102.332 184.021 102.168C184.212 102.025 184.407 101.909 184.605 101.82C184.803 101.739 185.001 101.646 185.198 101.544C185.321 101.483 185.448 101.428 185.577 101.38C185.714 101.339 185.854 101.305 185.997 101.278L188.884 100.786C188.986 100.766 189.092 100.752 189.201 100.746C189.303 100.739 189.409 100.728 189.518 100.715C190.133 100.653 190.672 100.619 191.136 100.612C191.593 100.612 192.04 100.681 192.477 100.817C192.654 100.872 192.805 100.937 192.927 101.012C193.05 101.094 193.156 101.213 193.245 101.37C193.299 101.445 193.33 101.503 193.337 101.544C193.364 101.585 193.385 101.636 193.398 101.698C193.412 101.759 193.422 101.81 193.429 101.851L193.439 101.913C193.453 101.994 193.449 102.07 193.429 102.138C193.409 102.206 193.381 102.278 193.347 102.353C193.238 102.694 192.992 102.957 192.61 103.141C192.235 103.318 191.784 103.455 191.259 103.55L189.099 103.919C188.826 103.967 188.583 104.011 188.372 104.052C188.167 104.1 187.952 104.154 187.727 104.216L187.666 104.226C187.584 104.26 187.502 104.284 187.42 104.298C187.331 104.311 187.246 104.325 187.164 104.339L187.01 104.369C186.969 104.376 186.864 104.383 186.693 104.39C186.522 104.397 186.362 104.414 186.212 104.441C186.069 104.468 185.987 104.492 185.966 104.513C185.843 104.683 185.847 105.147 185.976 105.905L186.028 106.181C186.041 106.27 186.062 106.355 186.089 106.437C186.11 106.519 186.127 106.601 186.14 106.683C186.154 106.744 186.178 106.806 186.212 106.867C186.239 106.922 186.267 106.97 186.294 107.011L186.365 107C186.468 107 186.557 106.994 186.632 106.98C186.707 106.973 186.795 106.959 186.898 106.939L186.959 106.929L187.717 106.826L187.911 106.796C188.164 106.755 188.399 106.721 188.618 106.693C188.836 106.666 189.065 106.642 189.303 106.622C189.74 106.546 190.16 106.584 190.563 106.734C190.965 106.877 191.201 107.161 191.269 107.584C191.33 107.939 191.307 108.239 191.197 108.485C191.088 108.73 190.931 108.939 190.726 109.109C190.522 109.287 190.283 109.43 190.01 109.539C189.737 109.648 189.457 109.74 189.17 109.816L189.099 109.826L189.017 109.877L188.822 109.908C188.802 109.908 188.785 109.914 188.771 109.928C188.751 109.942 188.72 109.952 188.679 109.959L188.648 109.969C188.485 110.017 188.314 110.068 188.136 110.123C187.959 110.17 187.788 110.208 187.625 110.235L187.092 110.327C186.99 110.368 186.881 110.402 186.765 110.43C186.656 110.464 186.553 110.508 186.458 110.563C186.437 110.59 186.406 110.607 186.365 110.614C186.365 110.634 186.362 110.645 186.355 110.645C186.342 110.652 186.338 110.665 186.345 110.686C186.331 110.727 186.318 110.781 186.304 110.849C186.297 110.918 186.287 110.986 186.273 111.054C186.273 111.157 186.284 111.273 186.304 111.402C186.325 111.525 186.348 111.662 186.376 111.812L186.417 112.027C186.444 112.197 186.468 112.378 186.488 112.569C186.509 112.754 186.533 112.931 186.56 113.102C186.58 113.204 186.598 113.33 186.611 113.48C186.625 113.63 186.645 113.787 186.673 113.951C186.748 114.374 186.843 114.804 186.959 115.241C187.082 115.685 187.266 115.995 187.512 116.173C187.532 116.166 187.543 116.173 187.543 116.193C187.55 116.214 187.563 116.224 187.584 116.224C187.625 116.238 187.679 116.238 187.747 116.224C187.993 116.183 188.259 116.149 188.546 116.121C188.833 116.094 189.136 116.063 189.457 116.029L190.02 115.937L190.624 115.866C190.808 115.831 190.996 115.797 191.187 115.763C191.371 115.736 191.559 115.715 191.75 115.702C192.235 115.62 192.712 115.63 193.183 115.732C193.654 115.835 193.931 116.139 194.013 116.644Z" fill="url(#paint1_linear_1108_15551)"/>
<path d="M215.469 99.8958C215.606 100.688 215.626 101.411 215.531 102.066C215.442 102.714 215.394 103.393 215.387 104.103C215.415 104.663 215.421 105.192 215.408 105.69C215.401 106.181 215.387 106.69 215.367 107.215C215.353 107.754 215.299 108.256 215.203 108.72C215.114 109.191 215.06 109.696 215.039 110.235C215.012 110.692 214.954 111.143 214.865 111.586C214.783 112.037 214.715 112.481 214.66 112.917C214.613 113.252 214.565 113.579 214.517 113.9C214.476 114.214 214.394 114.511 214.271 114.791C213.964 115.405 213.35 115.79 212.429 115.947L212.367 115.958C212.115 115.999 211.852 116.033 211.579 116.06C211.306 116.087 211.084 116.05 210.914 115.947C210.75 115.845 210.603 115.743 210.474 115.64C210.351 115.531 210.221 115.401 210.085 115.251C209.88 115.074 209.675 114.92 209.47 114.791C209.266 114.661 209.081 114.494 208.918 114.289C208.761 114.098 208.607 113.914 208.457 113.736C208.307 113.559 208.143 113.388 207.965 113.224C207.733 113.006 207.498 112.798 207.259 112.6C207.02 112.402 206.795 112.184 206.584 111.945C206.365 111.679 206.16 111.361 205.969 110.993C205.778 110.631 205.519 110.382 205.191 110.245H205.161C205.045 110.307 204.959 110.409 204.905 110.553C204.857 110.689 204.819 110.812 204.792 110.921C204.656 111.399 204.529 111.883 204.413 112.375C204.29 112.873 204.185 113.364 204.096 113.849C204.007 114.32 203.929 114.797 203.86 115.282C203.792 115.767 203.71 116.234 203.615 116.685C203.547 117.039 203.434 117.394 203.277 117.749C203.127 118.111 202.82 118.333 202.356 118.415C202.124 118.449 201.926 118.411 201.762 118.302C201.591 118.193 201.441 118.053 201.311 117.882C201.189 117.705 201.073 117.514 200.963 117.309C200.854 117.104 200.752 116.923 200.656 116.766C200.219 116.063 199.851 115.333 199.551 114.576C199.25 113.825 198.865 113.016 198.394 112.15C198.285 111.993 198.162 111.737 198.025 111.382C197.889 111.027 197.776 110.761 197.688 110.583C197.353 110.017 197.08 109.396 196.869 108.72C196.657 108.051 196.415 107.406 196.142 106.785C196.005 106.485 195.876 106.178 195.753 105.864C195.637 105.55 195.548 105.216 195.487 104.861C195.459 104.67 195.429 104.482 195.394 104.298C195.36 104.107 195.336 103.916 195.323 103.724L195.292 103.53C195.258 103.305 195.241 103.073 195.241 102.834C195.241 102.595 195.319 102.377 195.476 102.179C195.654 101.974 195.882 101.742 196.162 101.483C196.435 101.223 196.749 101.063 197.104 101.001C197.452 100.94 197.718 101.029 197.903 101.268C198.08 101.506 198.213 101.769 198.302 102.056C198.397 102.363 198.489 102.673 198.578 102.987C198.667 103.308 198.739 103.636 198.793 103.97L198.814 104.093C198.936 104.81 199.08 105.523 199.244 106.233C199.407 106.949 199.605 107.601 199.837 108.188C199.987 108.55 200.103 108.949 200.185 109.386C200.274 109.822 200.38 110.215 200.503 110.563C200.585 110.802 200.684 111.037 200.8 111.269C200.916 111.494 201.015 111.73 201.096 111.975C201.178 112.201 201.26 112.392 201.342 112.549C201.424 112.706 201.557 112.822 201.741 112.897C201.939 112.672 202.083 112.453 202.171 112.242C202.267 111.771 202.383 111.348 202.519 110.972C202.663 110.59 202.792 110.164 202.908 109.693C202.943 109.515 202.984 109.351 203.031 109.201C203.079 109.058 203.134 108.904 203.195 108.741L203.185 108.71C203.239 108.526 203.301 108.345 203.369 108.167C203.437 107.983 203.509 107.799 203.584 107.615C203.673 107.253 203.765 106.891 203.86 106.529C203.963 106.168 204.092 105.823 204.249 105.495C204.345 105.284 204.454 105.069 204.577 104.851C204.707 104.639 204.915 104.509 205.202 104.462C205.434 104.421 205.638 104.444 205.816 104.533C205.993 104.622 206.15 104.752 206.287 104.922C206.423 105.093 206.536 105.284 206.624 105.495C206.713 105.7 206.795 105.895 206.87 106.079C207.068 106.604 207.293 107.065 207.546 107.461C207.798 107.864 208.02 108.317 208.211 108.822C208.245 108.904 208.276 108.986 208.303 109.068C208.324 109.15 208.365 109.229 208.426 109.304C208.679 109.665 208.962 110.065 209.276 110.501C209.583 110.931 209.911 111.266 210.259 111.505C210.443 111.586 210.634 111.668 210.832 111.75C211.03 111.832 211.238 111.887 211.456 111.914C211.511 111.866 211.562 111.822 211.61 111.781C211.658 111.74 211.699 111.696 211.733 111.648L211.722 111.607C211.852 110.727 211.924 109.877 211.937 109.058C211.944 108.239 211.995 107.413 212.091 106.581C212.159 106.117 212.193 105.646 212.193 105.168C212.187 104.697 212.231 104.236 212.326 103.786C212.463 103.185 212.552 102.575 212.593 101.953C212.64 101.332 212.695 100.705 212.756 100.07C212.77 99.9129 212.791 99.7594 212.818 99.6092C212.845 99.4522 212.879 99.2953 212.92 99.1383C212.982 98.8653 213.074 98.5787 213.197 98.2784C213.313 97.9781 213.551 97.7973 213.913 97.7358C214.179 97.6949 214.401 97.7324 214.579 97.8484C214.749 97.9713 214.896 98.1419 215.019 98.3603C215.142 98.5719 215.237 98.8175 215.305 99.0974C215.374 99.3772 215.428 99.6433 215.469 99.8958Z" fill="url(#paint2_linear_1108_15551)"/>
<path d="M227.211 109.447C227.368 110.368 227.293 111.146 226.985 111.781C226.672 112.416 226.262 112.958 225.757 113.409C225.348 113.784 224.863 114.074 224.303 114.279C223.751 114.477 223.15 114.634 222.502 114.75C221.976 114.838 221.481 114.855 221.017 114.801C220.56 114.753 220.185 114.572 219.891 114.258C219.762 114.129 219.68 113.958 219.646 113.746C219.598 113.473 219.659 113.211 219.83 112.958C220.007 112.699 220.168 112.504 220.311 112.375C220.543 112.183 220.819 112.027 221.14 111.904C221.502 111.76 221.864 111.603 222.225 111.433C222.58 111.262 222.887 111.057 223.147 110.819C223.344 110.593 223.522 110.337 223.679 110.051C223.836 109.771 223.88 109.42 223.812 108.996L223.781 108.812C223.658 108.464 223.464 108.13 223.198 107.809C223.068 107.679 222.925 107.57 222.768 107.481C222.618 107.386 222.468 107.277 222.317 107.154C222.195 107.045 222.058 106.932 221.908 106.816C221.765 106.707 221.621 106.608 221.478 106.519C221.144 106.342 220.809 106.168 220.475 105.997C220.14 105.826 219.806 105.652 219.471 105.475C219.355 105.413 219.243 105.352 219.134 105.291C219.024 105.236 218.919 105.164 218.816 105.076C218.53 104.796 218.304 104.461 218.141 104.072C217.977 103.683 217.854 103.247 217.772 102.762C217.711 102.407 217.67 102.049 217.649 101.687C217.629 101.325 217.646 100.988 217.7 100.674C217.83 100.155 217.987 99.6705 218.171 99.22C218.349 98.7696 218.574 98.3397 218.847 97.9302C219.072 97.589 219.291 97.2614 219.502 96.9474C219.721 96.6267 219.977 96.323 220.27 96.0363C220.434 95.8589 220.621 95.6917 220.833 95.5347C221.045 95.3846 221.297 95.2822 221.591 95.2276C221.836 95.1867 222.075 95.2003 222.307 95.2686C222.485 95.3027 222.611 95.3778 222.686 95.4938C222.754 95.6098 222.802 95.7531 222.829 95.9237C222.87 96.1558 222.87 96.3878 222.829 96.6199C222.781 96.8519 222.717 97.0396 222.635 97.1829C222.485 97.449 222.321 97.7186 222.143 97.9916C221.966 98.2714 221.758 98.5171 221.519 98.7287C221.15 99.0767 220.918 99.4623 220.823 99.8855C220.727 100.309 220.693 100.67 220.72 100.971L220.751 101.124C220.819 101.52 220.963 101.888 221.181 102.23C221.393 102.571 221.618 102.871 221.857 103.131C222.014 103.322 222.174 103.489 222.338 103.632C222.495 103.776 222.672 103.915 222.87 104.052C223.594 104.516 224.283 105.028 224.938 105.587C225.593 106.154 226.153 106.85 226.617 107.676C226.76 107.887 226.883 108.154 226.985 108.474C227.081 108.788 227.156 109.112 227.211 109.447Z" fill="url(#paint3_linear_1108_15551)"/>
<path d="M217.105 126.839L220.913 153.22L175.113 159.833L171.305 133.452L217.105 126.839Z" fill="#34CEBF"/>
<path d="M295.704 108.034L295.888 109.252L159.204 129.89L159.02 128.672L295.704 108.034Z" fill="#54BAC9"/>
<path d="M291.711 115.2L291.885 116.418L222.877 126.43L222.703 125.222L291.711 115.2Z" fill="#54BAC9"/>
<path d="M297.015 148.624L297.189 149.842L175.471 167.511L175.297 166.293L297.015 148.624Z" fill="#54BAC9"/>
<path d="M297.999 154.848L298.173 156.066L176.466 173.735L176.281 172.517L297.999 154.848Z" fill="#54BAC9"/>
<path d="M299.022 162.577L299.197 163.785L177.479 181.464L177.305 180.246L299.022 162.577Z" fill="#54BAC9"/>
<path d="M293.199 121.414L293.373 122.632L224.365 132.654L224.191 131.436L293.199 121.414Z" fill="#54BAC9"/>
<path d="M104.285 137.947C104.285 140.926 101.869 143.342 98.9003 143.342C95.9213 143.342 93.5156 140.926 93.5156 137.947C93.5156 134.978 95.9213 132.562 98.9003 132.562C101.869 132.562 104.285 134.978 104.285 137.947Z" fill="#096DB7"/>
<path d="M113.066 126.317C113.701 126.942 114.049 127.791 114.038 128.672C114.038 129.573 113.69 130.412 113.056 131.047C111.756 132.357 109.626 132.357 108.326 131.057L106.985 129.757C102.757 125.529 95.8883 125.529 91.6604 129.757L89.7973 131.62C88.487 132.93 86.3474 132.93 85.0269 131.61C83.7063 130.289 83.7063 128.15 85.0166 126.839L86.0915 125.754L86.8798 124.976C93.5236 118.332 104.18 118.077 111.141 124.403C111.193 124.444 111.244 124.475 111.275 124.516L111.52 124.741C111.602 124.823 111.684 124.894 111.766 124.976L113.066 126.317Z" fill="#096DB7"/>
<path d="M120.941 118.322C122.139 119.52 122.139 121.465 120.931 122.673C119.733 123.871 117.778 123.881 116.58 122.683L114.993 121.086C106.036 112.631 91.9397 112.682 83.054 121.26C83.0403 121.274 83.0267 121.291 83.013 121.311L80.9963 123.328C79.7986 124.526 77.8536 124.516 76.6456 123.318C75.4479 122.11 75.4377 120.165 76.6354 118.967L78.6521 116.94C78.7135 116.889 78.7647 116.858 78.8261 116.807C89.8104 106.243 107.07 105.936 118.423 115.896C118.6 116.012 118.767 116.145 118.924 116.295L119.815 117.186L119.825 117.196L120.941 118.322Z" fill="#096DB7"/>
<path d="M352.253 313.726C352.253 318.67 329.711 322.683 301.917 322.683C274.124 322.683 251.582 318.67 251.582 313.726C251.582 308.781 274.124 304.769 301.917 304.769C329.711 304.769 352.253 308.781 352.253 313.726Z" fill="#CAECEF"/>
<path d="M281.671 282.217L300.722 281.94L299.319 304.513L280.637 304.728L281.671 282.217Z" fill="#FBC5A9"/>
<path d="M300.569 298.913L300.692 313.327L264.361 313.644C263.727 313.644 263.419 312.846 263.911 312.436L272.152 305.424L279.584 299.097L300.569 298.913Z" fill="#FF4E02"/>
<path d="M299.062 306.826C299.083 309.508 296.923 311.709 294.23 311.74C291.538 311.76 289.347 309.6 289.317 306.908C289.296 304.216 291.456 302.025 294.148 301.994C296.83 301.974 299.031 304.134 299.062 306.826Z" fill="white"/>
<path d="M277.874 313.521L264.361 313.644C263.727 313.644 263.419 312.846 263.911 312.436L272.152 305.424C273.851 306.458 276.779 308.843 277.874 313.521Z" fill="#F99F80"/>
<path d="M300.691 313.173L300.721 315.958L263.95 316.275L263.93 313.491L300.691 313.173Z" fill="#FF2202"/>
<path d="M278.435 306.724C278.496 306.857 278.425 307.011 278.292 307.062C278.264 307.076 278.234 307.082 278.2 307.082C278.097 307.082 278.005 307.021 277.964 306.919C276.879 304.237 274.473 303.674 274.443 303.674C274.31 303.643 274.217 303.499 274.248 303.366C274.279 303.223 274.422 303.131 274.555 303.172C274.668 303.192 277.248 303.796 278.435 306.724Z" fill="white"/>
<path d="M280.869 304.851C280.92 304.984 280.859 305.127 280.726 305.188C280.692 305.202 280.661 305.209 280.634 305.209C280.531 305.209 280.429 305.147 280.388 305.045C279.303 302.363 276.897 301.8 276.877 301.8C276.733 301.759 276.651 301.626 276.682 301.483C276.713 301.35 276.846 301.257 276.989 301.288C277.102 301.319 279.682 301.923 280.869 304.851Z" fill="white"/>
<path d="M328.832 282.554L329.856 305.076L311.173 304.85L309.781 282.278L328.832 282.554Z" fill="#FBC5A9"/>
<path d="M330.92 299.446L333.96 313.726L309.801 313.665L309.924 299.261L330.92 299.446Z" fill="#FF4E02"/>
<path d="M309.802 313.511L333.992 313.726L333.971 316.51L309.781 316.295L309.802 313.511Z" fill="#FF2202"/>
<path d="M333.604 295.33L306.516 296.2L295.809 227.592L301.429 198.734L320.091 191.773C320.091 191.773 327.492 203.73 323.95 223.804C321.186 239.436 333.604 295.33 333.604 295.33Z" fill="#232063"/>
<path d="M307.149 127.75C308.173 128.866 312.38 134.271 312.38 134.271L306.351 141.591C306.351 141.591 302.174 140.639 299.85 140.311C297.537 139.973 294.373 138.499 292.449 138.315C290.524 138.131 291.425 135.295 295.96 135.756C300.505 136.206 294.742 132.029 294.742 132.029C294.742 132.029 289.992 129.501 290.76 127.709C291.528 125.918 297.23 129.532 297.23 129.532C297.23 129.532 298.151 128.057 300.106 128.62C300.413 127.832 301.969 127.064 302.932 127.157C304.119 126.43 306.115 126.645 307.149 127.75Z" fill="#FBC5A9"/>
<path d="M300.977 227.1C300.005 234.021 304.202 296.2 304.202 296.2L276.501 295.596C276.501 295.596 272.703 252.785 274.064 236.16C275.426 219.525 278.937 202.726 278.937 202.726L306.833 197.771C306.833 197.771 301.96 220.18 300.977 227.1Z" fill="#22217E"/>
<path d="M284.067 204.395C284.016 204.641 278.559 228.738 278.989 240.061C279.43 251.413 281.497 283.906 281.518 284.233L281.108 284.254C281.088 283.926 279.02 251.434 278.58 240.081C278.14 228.697 283.616 204.548 283.668 204.303L284.067 204.395Z" fill="#3C3C87"/>
<path d="M277.707 285.554H300.72V285.963H277.707V285.554Z" fill="#3C3C87"/>
<path d="M329.291 284.602L329.301 285.001L307.302 285.963L307.281 285.554L329.291 284.602Z" fill="#2C2C75"/>
<path fill-rule="evenodd" clip-rule="evenodd" d="M325.903 145.819C330.356 150.733 329.803 158.431 324.613 162.546C323.385 163.529 322.136 164.113 321.061 164.01L307.18 162.065C307.18 162.065 320.181 184.894 320.866 191.148C309.145 200.925 285.887 205.736 279.826 206.279C279.611 205.378 278.987 204.436 278.414 203.73L277.421 205.163L272.845 211.694L272.128 212.718L258.871 202.87C255.022 200.014 253.169 195.192 254.101 190.493L258.359 169.067C259.475 163.457 263.171 158.697 268.33 156.23L280.952 150.19L295.765 145.788C299.655 144.632 303.822 144.806 307.599 146.3L311.049 147.651L303.474 140.967L313.455 132.05L325.903 145.819ZM275.619 198.734L271.33 183.389L269.149 189.04C268.105 191.742 268.934 194.803 271.207 196.595L275.619 198.734Z" fill="#FFC514"/>
<path d="M281.146 214.54C279.201 216.986 275.065 213.751 272.844 211.694L277.42 205.163L278.413 203.729C278.986 204.436 279.61 205.378 279.825 206.278C279.887 206.545 279.917 206.801 279.897 207.057C279.733 208.981 283.879 211.11 281.146 214.54Z" fill="#FBC5A9"/>
<path d="M285.521 148.122C285.562 148.746 284.283 150.61 281.59 150.569C278.55 150.528 277.925 148.194 277.977 147.487C278.273 147.047 278.335 146.423 278.284 145.767C278.192 144.693 277.823 143.495 277.68 142.799C279.021 142.891 282.962 142.471 282.962 142.471L284.498 143.229C284.426 143.536 284.375 143.833 284.364 144.14C284.313 145.174 284.59 146.32 285.521 148.122Z" fill="#FBC5A9"/>
<path d="M282.962 142.471L284.498 143.229C284.426 143.526 284.375 143.833 284.364 144.14C283.453 145.01 281.693 146.075 279.85 146.044C279.225 146.034 278.714 145.931 278.284 145.767C278.192 144.693 277.823 143.495 277.68 142.799C279.021 142.891 282.962 142.471 282.962 142.471Z" fill="#F7A18A"/>
<path d="M291.465 138.592C290.544 140.987 287.708 140.168 287.708 140.168C287.708 140.168 286.889 142.134 284.218 143.7C282.917 144.468 281.372 144.816 279.877 144.887C278.086 144.959 276.274 144.601 274.687 143.772C272.67 142.727 271.36 140.793 270.643 138.704C270.551 138.448 269.231 135.49 269.016 135.664C270.07 134.814 270.48 133.565 270.613 132.634C271.002 129.88 271.718 127.669 271.718 127.669C276.53 118.015 291.926 126.778 287.841 134.589C291.383 132.931 292.417 136.268 291.465 138.592Z" fill="#FBC5A9"/>
<path d="M272.569 132.972C272.518 133.432 272.139 133.76 271.72 133.719C271.31 133.668 271.013 133.258 271.064 132.798C271.116 132.337 271.494 132.009 271.904 132.05C272.323 132.102 272.62 132.511 272.569 132.972Z" fill="#252525"/>
<path fill-rule="evenodd" clip-rule="evenodd" d="M272.61 132.971C272.579 133.207 272.477 133.422 272.313 133.565C272.16 133.698 271.985 133.77 271.801 133.77C271.774 133.77 271.747 133.767 271.719 133.76C271.279 133.709 270.962 133.279 271.023 132.797C271.044 132.562 271.156 132.347 271.32 132.204C271.494 132.05 271.699 131.989 271.914 132.009C272.354 132.06 272.661 132.49 272.61 132.971ZM271.904 132.101C271.876 132.094 271.852 132.091 271.832 132.091C271.668 132.091 271.515 132.153 271.382 132.275C271.228 132.408 271.136 132.593 271.105 132.808C271.054 133.238 271.33 133.627 271.73 133.678C271.914 133.698 272.098 133.637 272.252 133.504C272.395 133.371 272.497 133.176 272.518 132.961C272.569 132.531 272.293 132.142 271.904 132.101Z" fill="black"/>
<path d="M273.408 130.76C273.377 130.822 273.285 130.852 273.223 130.811C272.732 130.463 272.149 130.279 271.545 130.31C271.371 130.32 271.371 130.044 271.545 130.044C272.19 130.013 272.834 130.207 273.367 130.576C273.418 130.617 273.449 130.699 273.408 130.76Z" fill="black"/>
<path d="M269.139 135.612C269.16 135.633 269.18 135.653 269.201 135.674C269.173 135.701 269.149 135.725 269.129 135.745C269.129 135.704 269.132 135.66 269.139 135.612Z" fill="black"/>
<path d="M270.766 134.077C270.248 134.616 269.726 135.148 269.2 135.674C269.18 135.653 269.159 135.633 269.139 135.613C269.132 135.66 269.129 135.705 269.129 135.746C269.149 135.725 269.173 135.701 269.2 135.674C269.477 135.991 269.907 136.135 270.183 136.472C270.275 136.575 270.111 136.739 270.029 136.626C269.722 136.257 269.241 136.114 268.944 135.725C268.924 135.684 268.934 135.623 268.965 135.592C269.524 135.046 270.074 134.49 270.613 133.923C270.715 133.821 270.869 133.975 270.766 134.077Z" fill="black"/>
<path d="M293.558 132.685C294.418 140.199 285.901 142.748 285.901 142.748H280.219L277.087 134.374C277.087 134.374 273.452 134.62 273.545 133.033C273.647 131.436 273.381 131.149 272.511 129.624C271.641 128.099 270.054 120.339 274.783 117.903C279.513 115.456 279.451 119.776 279.451 119.776C279.451 119.776 284.427 118.609 287.17 121.076C289.903 123.543 287.006 124.526 287.006 124.526C287.006 124.526 292.698 125.171 293.558 132.685Z" fill="#262626"/>
<path fill-rule="evenodd" clip-rule="evenodd" d="M293.604 132.675C294.045 136.585 291.936 139.124 290.073 140.578C288.066 142.134 285.927 142.789 285.906 142.799H285.896H280.174L280.163 142.768L277.051 134.436C276.724 134.446 274.553 134.538 273.775 133.76C273.571 133.555 273.479 133.31 273.489 133.023C273.581 131.59 273.366 131.221 272.67 130.013C272.602 129.904 272.53 129.781 272.455 129.645C271.923 128.703 270.919 124.772 271.882 121.537C272.393 119.817 273.356 118.578 274.758 117.852C276.335 117.033 277.563 116.879 278.392 117.391C278.863 117.678 279.191 118.189 279.375 118.855C279.477 119.244 279.498 119.582 279.498 119.715C280.081 119.592 284.627 118.722 287.196 121.035C288.107 121.854 288.496 122.612 288.363 123.267C288.22 123.963 287.524 124.362 287.186 124.506C287.626 124.588 288.773 124.884 289.981 125.744C292.53 127.577 293.359 130.525 293.604 132.675ZM293.502 132.695C293.256 130.556 292.437 127.638 289.919 125.826C288.425 124.751 287.012 124.577 286.991 124.577L286.766 124.547L286.981 124.475C286.991 124.475 288.087 124.096 288.261 123.247C288.394 122.622 288.005 121.906 287.125 121.117C284.432 118.691 279.508 119.817 279.457 119.827L279.396 119.838V119.776C279.396 119.756 279.406 118.138 278.341 117.483C277.543 116.992 276.355 117.145 274.799 117.944C273.427 118.65 272.486 119.868 271.984 121.557C271.032 124.772 272.015 128.662 272.547 129.593C272.622 129.73 272.694 129.853 272.762 129.962C273.468 131.19 273.683 131.569 273.591 133.033C273.581 133.279 273.663 133.504 273.847 133.678C274.646 134.477 277.051 134.333 277.082 134.323H277.123L277.133 134.364L280.245 142.697H285.886C286.029 142.656 288.087 142.001 290.011 140.486C291.844 139.063 293.942 136.544 293.502 132.695Z" fill="black"/>
<path d="M277.169 138.735C276.022 139.226 275.152 134.282 275.152 134.282C275.152 134.282 276.381 133.166 277.783 134.108C279.186 135.05 278.305 138.244 277.169 138.735Z" fill="#FBC5A9"/>
<path d="M289.614 143.833C290.894 144.181 294.61 147.324 294.61 147.324L271.484 155.933C271.484 155.933 273.112 150.139 274.944 149.299C276.767 148.45 288.334 143.485 289.614 143.833Z" fill="#FF9C02"/>
<path d="M271.803 137.588C271.916 138.049 271.824 138.469 271.609 138.52C271.394 138.571 271.128 138.244 271.015 137.783C270.902 137.312 270.984 136.892 271.21 136.841C271.425 136.79 271.691 137.128 271.803 137.588Z" fill="white"/>
<g opacity="0.2">
<path d="M133.532 259.234C133.532 262.838 117.111 265.766 96.8627 265.766C76.6037 265.766 60.1836 262.838 60.1836 259.234C60.1836 255.631 76.6037 252.703 96.8627 252.703C117.111 252.703 133.532 255.631 133.532 259.234Z" fill="black"/>
</g>
<g opacity="0.2">
<path d="M263.662 282.278C263.662 285.902 219.715 288.85 165.51 288.85C111.295 288.85 67.3477 285.902 67.3477 282.278C67.3477 278.654 111.295 275.706 165.51 275.706C219.715 275.706 263.662 278.654 263.662 282.278Z" fill="black"/>
</g>
<path d="M209.468 189.336V247.984C209.468 255.109 203.694 260.882 196.569 260.882H77.7282C70.6135 260.882 64.8398 255.109 64.8398 247.984V189.336C64.8398 182.211 70.6135 176.438 77.7282 176.438H196.569C203.694 176.438 209.468 182.211 209.468 189.336Z" fill="#F0F6FF"/>
<path d="M73.9414 198.499H201.075V199.103H73.9414V198.499Z" fill="black"/>
<path d="M73.9414 208.377H201.075V208.981H73.9414V208.377Z" fill="black"/>
<path d="M73.9414 218.256H201.075V218.86H73.9414V218.256Z" fill="black"/>
<path d="M73.9414 228.135H201.075V228.739H73.9414V228.135Z" fill="black"/>
<path d="M73.9414 238.013H201.075V238.617H73.9414V238.013Z" fill="black"/>
<path d="M73.9414 247.892H201.075V248.496H73.9414V247.892Z" fill="black"/>
<path d="M247.858 201.948V267.639C247.858 274.764 242.084 280.538 234.959 280.538H121.953C114.828 280.538 109.055 274.764 109.055 267.639V201.948C109.055 194.834 114.828 189.06 121.953 189.06H234.959C242.084 189.06 247.858 194.834 247.858 201.948Z" fill="url(#paint4_linear_1108_15551)"/>
<path d="M247.858 201.948V204.037H109.055V201.948C109.055 194.834 114.828 189.06 121.953 189.06H234.959C242.084 189.06 247.858 194.834 247.858 201.948Z" fill="url(#paint5_linear_1108_15551)"/>
<path d="M175.504 237.805C175.504 231.177 180.876 225.805 187.504 225.805H225.466C232.094 225.805 237.466 231.177 237.466 237.805V258.52C237.466 265.147 232.094 270.52 225.466 270.52H187.504C180.876 270.52 175.504 265.147 175.504 258.52V237.805Z" fill="white"/>
<path d="M84.9648 252.703H137.153V283.68H84.9648V252.703Z" fill="#34CEBF"/>
<path d="M84.9648 252.703H137.153L111.059 268.192L84.9648 252.703Z" fill="#BFF6F7"/>
<path d="M96.5137 253.829C96.5137 259.04 92.2859 263.268 87.0752 263.268C81.8646 263.268 77.6367 259.04 77.6367 253.829C77.6367 248.618 81.8646 244.391 87.0752 244.391C92.2859 244.391 96.5137 248.618 96.5137 253.829Z" fill="white"/>
<path fill-rule="evenodd" clip-rule="evenodd" d="M96.5653 253.83C96.5653 259.061 92.3067 263.319 87.0756 263.319C81.8445 263.319 77.5859 259.061 77.5859 253.83C77.5859 248.598 81.8445 244.34 87.0756 244.34C92.3067 244.34 96.5653 248.598 96.5653 253.83ZM96.4629 253.83C96.4629 248.66 92.2453 244.442 87.0756 244.442C81.8957 244.442 77.6883 248.66 77.6883 253.83C77.6883 259.009 81.8957 263.217 87.0756 263.217C92.2453 263.217 96.4629 259.009 96.4629 253.83Z" fill="black"/>
<path fill-rule="evenodd" clip-rule="evenodd" d="M97.2408 253.829C97.2408 259.439 92.6751 263.995 87.0755 263.995C81.4656 263.995 76.9102 259.439 76.9102 253.829C76.9102 248.23 81.4656 243.674 87.0755 243.674C92.6751 243.674 97.2408 248.23 97.2408 253.829ZM95.7872 253.829C95.7872 249.028 91.8766 245.118 87.0755 245.118C82.2743 245.118 78.3638 249.028 78.3638 253.829C78.3638 258.641 82.2743 262.541 87.0755 262.541C91.8766 262.541 95.7872 258.641 95.7872 253.829Z" fill="#018E85"/>
<path d="M96.8619 241.637L98.3463 242.64L86.6557 259.941L80.0938 253.225L81.3734 251.966L86.41 257.116L96.8619 241.637Z" fill="#018E85"/>
<path d="M104.948 189.889L104.917 189.961C104.436 191.036 103.187 191.537 102.112 191.066C101.038 190.595 99.8603 189.981 98.6523 189.172C95.6529 187.186 94.4551 185.149 93.3086 183.532L96.3899 180.614C97.5672 182.14 98.6421 183.89 101.252 185.743C102.235 186.449 102.962 186.767 103.597 186.971C104.835 187.36 105.47 188.712 104.948 189.889Z" fill="#B60B2D"/>
<path d="M99.3279 184.156L96.1647 187.156C94.8441 185.856 94.0661 184.596 93.3086 183.532L96.3899 180.614C97.2191 181.699 98.0074 182.887 99.3279 184.156Z" fill="#FF9C02"/>
<path d="M98.1735 181.751C98.6034 182.201 98.5829 182.918 98.1325 183.338L95.3992 185.928C94.9488 186.358 94.2424 186.337 93.8125 185.887L92.9526 184.986C92.9116 184.945 92.9116 184.873 92.9526 184.832L97.1702 180.84C97.2112 180.809 97.2828 180.809 97.3135 180.85L98.1735 181.751Z" fill="#B60B2D"/>
<path d="M94.7915 150.937L115.47 172.762L104.005 176.908C102.234 177.553 100.616 178.546 99.2548 179.836L93.6245 185.18C90.6455 187.995 85.9468 187.872 83.1214 184.893L80.9306 182.58C78.1155 179.601 78.2383 174.902 81.2173 172.087L86.8476 166.743C88.2091 165.453 89.2943 163.897 90.0313 162.167L94.7915 150.937Z" fill="#FF9C02"/>
<path d="M107.446 159.659C113.158 165.678 116.69 171.606 115.339 172.875C113.998 174.155 108.275 170.305 102.563 164.276C96.861 158.257 93.319 152.329 94.6703 151.06C96.0114 149.78 101.734 153.629 107.446 159.659Z" fill="#FF4E02"/>
<path d="M98.7328 180.338L93.6245 185.18C90.6455 187.995 85.9468 187.873 83.1214 184.894L80.9306 182.58C78.1155 179.601 78.2383 174.902 81.2173 172.087L86.3255 167.245C87.7485 169.354 89.714 171.79 92.0378 174.247C94.3616 176.704 96.6956 178.803 98.7328 180.338Z" fill="#FF4E02"/>
<path d="M114.297 170.961C114.358 171.145 114.174 171.319 114 171.237C112.249 170.51 108.513 167.982 103.855 163.058C99.1867 158.144 96.8629 154.285 96.2385 152.493C96.1668 152.309 96.3511 152.135 96.5354 152.206C98.2859 152.933 102.012 155.462 106.68 160.386C111.338 165.31 113.662 169.169 114.297 170.961Z" fill="#B60B2D"/>
<g style="mix-blend-mode:multiply" opacity="0.3">
<path d="M115.46 172.743L115.471 172.763L115.43 172.773C115.443 172.76 115.454 172.75 115.46 172.743Z" fill="#5C5C5C"/>
<path d="M115.453 172.661L115.565 172.783L115.289 172.876L115.391 172.743C115.398 172.736 115.402 172.729 115.402 172.722C115.408 172.722 115.412 172.719 115.412 172.712L115.453 172.661Z" fill="black"/>
</g>
<mask id="mask0_1108_15551" style="mask-type:luminance" maskUnits="userSpaceOnUse" x="84" y="158" width="14" height="18">
<path d="M84.9597 172.434C86.8426 170.651 88.7256 168.867 90.6085 167.083C92.1891 164.124 93.77 161.164 95.3513 158.205C95.5069 158.569 95.7331 159.011 96.0668 159.475C96.4845 160.054 96.9288 160.472 97.283 160.759C95.8778 163.39 94.4726 166.02 93.0674 168.65C90.4986 171.084 87.9298 173.518 85.361 175.951C84.6598 175.612 84.1981 174.925 84.1622 174.164C84.1152 173.131 84.8799 172.498 84.9597 172.434Z" fill="white"/>
</mask>
<g mask="url(#mask0_1108_15551)">
<path d="M96.6211 158.206H97.2763V158.861L96.6211 158.206Z" fill="white"/>
<path d="M96.6229 158.206L97.278 158.861V164.727L88.0341 173.971L84.1133 170.05V169.159L95.0566 158.206H96.6229Z" fill="white"/>
<path d="M84.1133 170.05L88.0341 173.971L86.0583 175.957H84.1133V170.05Z" fill="white"/>
</g>
<g opacity="0.5">
<path d="M107.808 169.21C110.664 171.575 113.121 173.029 114.482 173.121L104.01 176.909C102.239 177.554 100.621 178.547 99.2599 179.836L93.6295 185.18C91.0088 187.647 87.0778 187.852 84.2422 185.866C85.1328 185.62 86.4022 185.201 87.7637 184.392C88.8795 183.737 89.6268 183.092 90.1285 182.641C92.4625 180.563 93.8547 178.956 94.991 177.799C97.7448 174.994 100.417 173.213 103.549 171.524C104.969 170.753 106.388 169.982 107.808 169.21Z" fill="#4D4D4D"/>
</g>
<path d="M232.031 190.329C232.031 194.25 228.847 197.434 224.937 197.434C221.016 197.434 217.832 194.25 217.832 190.329C217.832 186.419 221.016 183.235 224.937 183.235C228.847 183.235 232.031 186.419 232.031 190.329Z" fill="#B60B2D"/>
<path d="M225.634 190.227L228.244 194.516H226.842L225.767 192.663C225.399 192.059 225.122 191.598 224.866 191.138C224.661 191.568 224.436 191.987 224.027 192.673L223.013 194.516H221.621L224.18 190.278L221.723 186.142H223.126L224.232 188.108C224.498 188.568 224.723 188.978 224.948 189.408C225.163 188.947 225.378 188.578 225.644 188.108L226.791 186.142H228.183L225.634 190.227Z" fill="white"/>
<path d="M80.8008 201.508H231.581V216.864H80.8008V201.508Z" fill="white"/>
<path d="M125.168 209.166H223.238V210.926H125.168V209.166Z" fill="#232063"/>
<path d="M93.2256 205.07C93.2324 205.077 93.2358 205.101 93.2358 205.142C93.229 205.354 93.2256 205.562 93.2256 205.766C93.2256 205.971 93.2222 206.176 93.2154 206.381C93.2154 206.408 93.2051 206.422 93.1847 206.422L91.5979 206.565C91.5502 206.565 91.5365 206.582 91.557 206.616C91.5638 206.787 91.574 207.002 91.5877 207.261C91.6082 207.514 91.6252 207.797 91.6389 208.111C91.6593 208.418 91.6798 208.745 91.7003 209.093C91.7208 209.435 91.7378 209.772 91.7515 210.107C91.7651 210.441 91.7788 210.762 91.7924 211.069C91.8061 211.376 91.8129 211.653 91.8129 211.898C91.8129 212.137 91.8061 212.332 91.7924 212.482C91.7788 212.639 91.7583 212.731 91.731 212.758C91.6969 212.799 91.6218 212.837 91.5058 212.871C91.3966 212.905 91.2703 212.932 91.127 212.953C90.9769 212.98 90.8199 213.004 90.6561 213.024C90.4923 213.038 90.3319 213.052 90.175 213.065C90.018 213.079 89.8781 213.089 89.7553 213.096C89.6256 213.103 89.5266 213.106 89.4584 213.106C89.356 213.113 89.2878 213.103 89.2536 213.076C89.2195 213.055 89.1991 213.028 89.1922 212.994C89.1854 212.96 89.1956 212.919 89.2229 212.871C89.2571 212.612 89.2844 212.342 89.3048 212.062C89.3253 211.816 89.3492 211.537 89.3765 211.223C89.397 210.916 89.414 210.595 89.4277 210.26C89.4345 209.933 89.4447 209.592 89.4584 209.237C89.4652 208.882 89.4755 208.547 89.4891 208.234C89.4959 207.92 89.4993 207.647 89.4993 207.415C89.5062 207.189 89.5028 207.036 89.4891 206.954L87.9638 207.148C87.9433 207.155 87.9194 207.152 87.8921 207.138C87.8648 207.118 87.8546 207.094 87.8614 207.067C87.9297 206.8 88.0013 206.531 88.0764 206.258C88.1515 205.992 88.23 205.702 88.3119 205.388C88.3323 205.319 88.3596 205.272 88.3938 205.244C88.4279 205.224 88.4756 205.21 88.5371 205.203C88.9192 205.224 89.3014 205.231 89.6836 205.224C90.0726 205.21 90.4582 205.193 90.8404 205.173C91.2294 205.159 91.615 205.139 91.9972 205.111C92.3793 205.091 92.7649 205.074 93.154 205.06C93.1881 205.06 93.212 205.063 93.2256 205.07Z" fill="#232063"/>
<path fill-rule="evenodd" clip-rule="evenodd" d="M100.547 208.234C100.622 208.561 100.656 208.889 100.649 209.216C100.642 209.735 100.574 210.22 100.444 210.67C100.315 211.127 100.117 211.523 99.8506 211.858C99.5844 212.199 99.2466 212.468 98.8371 212.666C98.4276 212.864 97.9363 212.967 97.363 212.973C97.09 212.98 96.817 212.956 96.544 212.902C96.271 212.847 96.0049 212.762 95.7455 212.646C95.4862 212.53 95.2439 212.387 95.0187 212.216C94.7867 212.038 94.5785 211.834 94.3943 211.602C94.21 211.37 94.0564 211.11 93.9336 210.824C93.8108 210.537 93.7254 210.22 93.6777 209.872C93.6572 209.708 93.6435 209.53 93.6367 209.339C93.6367 209.148 93.647 208.954 93.6674 208.756C93.6811 208.558 93.705 208.367 93.7391 208.183C93.7664 207.991 93.8039 207.821 93.8517 207.671C93.9609 207.309 94.1179 206.978 94.3226 206.678C94.5342 206.377 94.7867 206.115 95.0801 205.889C95.3736 205.671 95.7046 205.5 96.0731 205.378C96.4417 205.255 96.8409 205.19 97.2708 205.183C97.6121 205.183 97.9328 205.234 98.2331 205.337C98.5334 205.446 98.8098 205.596 99.0623 205.787C99.3148 205.971 99.54 206.193 99.738 206.452C99.9427 206.712 100.11 206.992 100.24 207.292C100.376 207.592 100.478 207.906 100.547 208.234ZM98.6528 208.756C98.6392 208.551 98.6017 208.353 98.5402 208.162C98.472 207.964 98.3833 207.79 98.2741 207.64C98.1649 207.49 98.0284 207.37 97.8646 207.282C97.7076 207.186 97.5268 207.142 97.322 207.149C97.1378 207.149 96.9672 207.169 96.8102 207.21C96.6532 207.251 96.5099 207.316 96.3802 207.405C96.2574 207.486 96.1482 207.585 96.0526 207.701C95.9639 207.824 95.8957 207.961 95.8479 208.111C95.7865 208.295 95.7558 208.476 95.7558 208.653C95.7558 208.824 95.7763 208.988 95.8172 209.145C95.8513 209.315 95.9127 209.476 96.0015 209.626C96.0834 209.783 96.1891 209.919 96.3188 210.035C96.4416 210.158 96.5816 210.257 96.7385 210.332C96.9023 210.407 97.0798 210.448 97.2708 210.455C97.2845 210.455 97.305 210.459 97.3323 210.465C97.3596 210.465 97.3903 210.465 97.4244 210.465C97.4585 210.465 97.4892 210.465 97.5165 210.465C97.5438 210.472 97.5643 210.476 97.578 210.476C97.7759 210.455 97.9465 210.394 98.0898 210.291C98.2331 210.189 98.3491 210.059 98.4379 209.902C98.5266 209.739 98.588 209.558 98.6221 209.36C98.6563 209.162 98.6665 208.961 98.6528 208.756Z" fill="#232063"/>
<path fill-rule="evenodd" clip-rule="evenodd" d="M106.496 206.473C107.138 207.155 107.448 207.981 107.428 208.95C107.408 209.66 107.295 210.268 107.09 210.773C106.885 211.271 106.582 211.67 106.179 211.97C105.237 212.687 103.545 213.021 101.102 212.974C101.102 212.421 101.119 211.772 101.153 211.028C101.187 210.278 101.245 209.414 101.327 208.439C101.388 207.674 101.443 207.033 101.491 206.514C101.538 205.988 101.583 205.576 101.624 205.275C102.265 205.234 102.801 205.217 103.231 205.224C103.661 205.224 103.992 205.245 104.224 205.286C105.132 205.429 105.889 205.825 106.496 206.473ZM105.555 208.797C105.561 208.49 105.51 208.227 105.401 208.009C105.299 207.79 105.152 207.609 104.961 207.466C104.777 207.323 104.558 207.217 104.306 207.149C104.06 207.08 103.801 207.046 103.528 207.046C103.494 207.046 103.463 207.046 103.436 207.046C103.401 207.053 103.371 207.06 103.343 207.067C103.343 207.121 103.34 207.432 103.333 207.998C103.333 208.565 103.33 209.414 103.323 210.547C103.719 210.554 104.057 210.523 104.336 210.455C104.616 210.387 104.845 210.281 105.022 210.138C105.2 209.995 105.333 209.81 105.422 209.585C105.503 209.367 105.548 209.104 105.555 208.797Z" fill="#232063"/>
<path fill-rule="evenodd" clip-rule="evenodd" d="M115.78 212.718C115.786 212.759 115.79 212.793 115.79 212.82C115.79 212.847 115.769 212.868 115.728 212.881C115.722 212.881 115.653 212.885 115.524 212.892C115.401 212.898 115.247 212.902 115.063 212.902C114.872 212.909 114.671 212.916 114.459 212.922C114.247 212.922 114.05 212.922 113.865 212.922C113.674 212.922 113.517 212.919 113.394 212.912C113.265 212.905 113.193 212.895 113.179 212.881C113.159 212.847 113.135 212.782 113.108 212.687C113.08 212.598 113.053 212.489 113.026 212.359C113.005 212.236 112.981 212.103 112.954 211.96C112.927 211.824 112.903 211.694 112.883 211.571C112.862 211.441 112.845 211.332 112.831 211.243C112.818 211.148 112.807 211.083 112.801 211.049C112.801 211.035 112.801 211.022 112.801 211.008C112.794 210.994 112.79 210.977 112.79 210.957C112.647 210.95 112.48 210.94 112.289 210.926C112.091 210.919 111.896 210.909 111.705 210.895C111.514 210.889 111.337 210.882 111.173 210.875C111.009 210.868 110.883 210.865 110.794 210.865C110.726 211.063 110.654 211.257 110.579 211.448C110.511 211.639 110.443 211.82 110.374 211.991C110.306 212.161 110.248 212.315 110.2 212.451C110.153 212.595 110.115 212.718 110.088 212.82C110.074 212.861 110.054 212.885 110.026 212.892C109.999 212.898 109.965 212.898 109.924 212.892C109.91 212.892 109.852 212.888 109.75 212.881C109.641 212.868 109.511 212.858 109.361 212.851C109.211 212.837 109.044 212.823 108.859 212.81C108.682 212.803 108.511 212.793 108.348 212.779C108.184 212.772 108.044 212.762 107.928 212.748C107.805 212.741 107.726 212.738 107.692 212.738C107.679 212.738 107.672 212.731 107.672 212.718C107.679 212.663 107.703 212.567 107.744 212.431C107.791 212.294 107.849 212.127 107.918 211.929C107.979 211.725 108.057 211.496 108.153 211.243C108.242 210.991 108.337 210.725 108.44 210.445C108.549 210.158 108.661 209.865 108.777 209.565C108.893 209.257 109.016 208.954 109.146 208.654C109.303 208.285 109.46 207.93 109.617 207.589C109.781 207.241 109.934 206.923 110.078 206.637C110.221 206.35 110.354 206.101 110.477 205.89C110.6 205.678 110.699 205.524 110.774 205.429C110.821 205.361 110.856 205.316 110.876 205.296C110.897 205.275 110.944 205.265 111.019 205.265C111.06 205.265 111.129 205.262 111.224 205.255C111.326 205.248 111.446 205.241 111.582 205.234C111.712 205.234 111.852 205.234 112.002 205.234C112.152 205.228 112.299 205.224 112.442 205.224C112.586 205.224 112.715 205.228 112.831 205.234C112.947 205.234 113.036 205.238 113.097 205.245C113.173 205.258 113.224 205.282 113.251 205.316C113.278 205.344 113.306 205.395 113.333 205.47C113.422 205.654 113.507 205.849 113.589 206.053C113.664 206.265 113.749 206.47 113.845 206.668C114.056 207.145 114.264 207.633 114.469 208.131C114.674 208.63 114.862 209.135 115.032 209.646C115.21 210.158 115.363 210.67 115.493 211.182C115.623 211.694 115.718 212.206 115.78 212.718ZM112.668 209.503C112.661 209.469 112.657 209.442 112.657 209.421C112.657 209.401 112.657 209.38 112.657 209.36C112.657 209.333 112.644 209.271 112.616 209.176C112.589 209.08 112.558 208.967 112.524 208.838C112.483 208.715 112.442 208.582 112.401 208.439C112.354 208.295 112.306 208.166 112.258 208.05C112.217 207.927 112.173 207.828 112.125 207.753C112.084 207.671 112.046 207.63 112.012 207.63C111.965 207.623 111.907 207.674 111.838 207.783C111.777 207.886 111.712 208.015 111.644 208.172C111.582 208.323 111.521 208.483 111.46 208.654C111.405 208.824 111.361 208.971 111.326 209.094C111.299 209.176 111.309 209.244 111.357 209.298C111.405 209.36 111.473 209.404 111.562 209.432C111.644 209.459 111.739 209.479 111.849 209.493C111.958 209.507 112.067 209.513 112.176 209.513C112.285 209.52 112.384 209.52 112.473 209.513C112.562 209.507 112.627 209.503 112.668 209.503Z" fill="#232063"/>
<path d="M123.437 205.92C123.226 206.234 123.018 206.548 122.813 206.862C122.608 207.176 122.4 207.49 122.189 207.804C121.977 208.118 121.755 208.435 121.523 208.756C121.291 209.077 121.045 209.404 120.786 209.739C120.807 210.114 120.824 210.483 120.837 210.844C120.851 211.199 120.858 211.52 120.858 211.807C120.865 212.086 120.861 212.318 120.847 212.503C120.841 212.687 120.82 212.796 120.786 212.83C120.745 212.871 120.67 212.909 120.561 212.943C120.452 212.97 120.325 212.997 120.182 213.025C120.032 213.052 119.875 213.073 119.711 213.086C119.547 213.107 119.387 213.124 119.23 213.137C119.073 213.144 118.93 213.151 118.8 213.158C118.677 213.165 118.582 213.171 118.513 213.178C118.411 213.178 118.343 213.168 118.309 213.148C118.275 213.12 118.254 213.09 118.247 213.055C118.24 213.021 118.251 212.98 118.278 212.933C118.312 212.68 118.339 212.411 118.36 212.124C118.38 211.878 118.404 211.602 118.432 211.295C118.452 210.988 118.469 210.667 118.483 210.332C118.483 210.216 118.483 210.1 118.483 209.984C118.49 209.868 118.496 209.752 118.503 209.636C118.073 209.09 117.647 208.503 117.224 207.876C116.8 207.241 116.398 206.575 116.016 205.879C116.125 205.743 116.268 205.627 116.446 205.531C116.616 205.443 116.797 205.364 116.988 205.296C117.179 205.234 117.367 205.183 117.551 205.142C117.735 205.101 117.892 205.074 118.022 205.06C118.138 205.217 118.268 205.405 118.411 205.623C118.554 205.835 118.701 206.06 118.851 206.299C119.001 206.531 119.145 206.76 119.281 206.985C119.425 207.217 119.554 207.429 119.67 207.62C119.725 207.531 119.796 207.425 119.885 207.302C119.967 207.173 120.059 207.033 120.162 206.883C120.257 206.726 120.36 206.562 120.469 206.391C120.578 206.227 120.687 206.06 120.796 205.89C120.912 205.719 121.025 205.552 121.134 205.388C121.243 205.231 121.346 205.084 121.441 204.948C121.605 204.968 121.789 205.009 121.994 205.071C122.199 205.132 122.397 205.204 122.588 205.286C122.779 205.374 122.953 205.473 123.11 205.582C123.267 205.692 123.376 205.804 123.437 205.92Z" fill="#232063"/>
<path d="M300.109 128.621L303.109 132.04C301.88 129.614 300.109 128.621 300.109 128.621Z" fill="#F7A18A"/>
<path d="M302.934 127.157L306.404 131.282C305.493 128.436 302.934 127.157 302.934 127.157Z" fill="#F7A18A"/>
<path d="M297.23 129.532L299.759 132.961C299.35 131.548 297.23 129.532 297.23 129.532Z" fill="#F7A18A"/>
<path d="M320.448 189.224C320.663 189.971 320.806 190.616 320.868 191.148C310.109 201.099 285.857 206.186 279.899 206.688L279.776 206.268C279.776 206.248 279.766 206.197 279.746 206.115L279.736 206.105C279.729 206.084 279.722 206.064 279.715 206.043C279.633 205.767 279.439 205.275 279.05 204.651C279.036 204.637 279.026 204.624 279.019 204.61C278.845 204.344 278.65 204.067 278.415 203.77C278.773 203.105 279.848 200.976 279.848 200.976L275.692 198.836L271.566 183.737L274.32 177.165C274.32 177.165 276.716 197.393 283.963 200.495C291.068 203.545 313.159 195.212 320.448 189.224Z" fill="#FF8C02"/>
<path d="M293.278 146.761C293.278 146.761 282.642 149.74 277.012 153.507C280.595 153.271 293.278 146.761 293.278 146.761Z" fill="#FF8C02"/>
<g opacity="0.5">
<path d="M166.572 186.531C166.572 186.531 159.499 190.78 150.019 195.11C149.221 181.3 138.871 175.905 138.871 175.905C138.871 175.905 150.47 168.381 153.561 164.747C167.197 175.813 166.572 186.531 166.572 186.531Z" fill="#6B6B6B"/>
</g>
<path d="M167.977 183.736C167.977 183.736 160.893 187.985 151.414 192.325C150.625 178.516 140.266 173.11 140.266 173.11C140.266 173.11 151.864 165.586 154.956 161.962C168.591 173.029 167.977 183.736 167.977 183.736Z" fill="white"/>
<path d="M156.023 166.323C154.275 167.62 152.521 168.91 150.761 170.193C149.88 170.828 149 171.462 148.109 172.097C147.239 172.721 146.369 173.418 145.417 173.929C145.294 174.001 145.151 173.827 145.263 173.714C146.031 172.977 146.942 172.363 147.812 171.718C148.683 171.073 149.553 170.418 150.433 169.783C152.214 168.48 153.996 167.187 155.777 165.904C156.033 165.719 156.278 166.139 156.023 166.323Z" fill="#035BBD"/>
<path d="M157.814 168.862C156.043 170.07 154.252 171.247 152.471 172.435C151.59 173.029 150.71 173.602 149.819 174.185C149.369 174.493 148.918 174.789 148.468 175.086C148.048 175.353 147.629 175.67 147.158 175.834C147.025 175.885 146.953 175.711 147.035 175.619C147.362 175.26 147.833 174.984 148.243 174.697C148.683 174.39 149.133 174.093 149.584 173.786C150.464 173.193 151.334 172.599 152.215 172.005C153.996 170.807 155.777 169.61 157.569 168.443C157.835 168.269 158.07 168.678 157.814 168.862Z" fill="#035BBD"/>
<path d="M159.87 171.094C158.048 172.292 156.226 173.479 154.404 174.667C153.496 175.26 152.585 175.854 151.671 176.448C151.21 176.745 150.759 177.042 150.299 177.328C149.869 177.594 149.449 177.881 148.958 178.045C148.845 178.076 148.773 177.922 148.845 177.84C149.203 177.441 149.674 177.164 150.115 176.868C150.544 176.571 150.974 176.294 151.415 176.008C152.322 175.407 153.23 174.81 154.138 174.216C155.96 173.029 157.782 171.841 159.614 170.654C159.891 170.48 160.147 170.92 159.87 171.094Z" fill="#035BBD"/>
<path d="M162 174.032C161.918 174.114 161.897 174.216 161.815 174.288C161.744 174.359 161.621 174.4 161.529 174.451C161.263 174.595 161 174.735 160.741 174.871C160.215 175.151 159.69 175.427 159.164 175.7C158.161 176.233 157.154 176.765 156.144 177.297C155.12 177.84 154.086 178.372 153.053 178.915C152.08 179.416 151.077 180.051 150.002 180.338C149.92 180.368 149.848 180.256 149.91 180.194C150.78 179.457 151.875 178.976 152.868 178.444C153.872 177.912 154.875 177.379 155.888 176.847C156.912 176.301 157.939 175.758 158.97 175.219C159.475 174.953 159.976 174.687 160.474 174.421C160.741 174.284 161.003 174.148 161.263 174.011C161.365 173.96 161.488 173.878 161.59 173.847C161.693 173.817 161.785 173.868 161.897 173.847C161.989 173.827 162.082 173.95 162 174.032Z" fill="#035BBD"/>
<path d="M163.599 177.359C161.756 178.403 159.862 179.366 157.999 180.369C157.064 180.867 156.129 181.365 155.194 181.864C154.303 182.334 153.403 182.918 152.44 183.225C152.328 183.266 152.215 183.092 152.317 183.01C153.126 182.365 154.129 181.935 155.03 181.444C155.945 180.952 156.856 180.461 157.764 179.97C159.627 178.966 161.48 177.922 163.363 176.97C163.629 176.837 163.855 177.216 163.599 177.359Z" fill="#035BBD"/>
<path d="M165.073 180.911C163.23 181.894 161.384 182.873 159.534 183.849C158.613 184.341 157.692 184.832 156.77 185.313C156.299 185.559 155.839 185.805 155.368 186.03C154.948 186.245 154.508 186.511 154.037 186.603C153.955 186.613 153.884 186.521 153.945 186.45C154.293 186.091 154.795 185.866 155.214 185.62C155.675 185.364 156.136 185.119 156.596 184.873C157.487 184.382 158.388 183.911 159.289 183.43C161.131 182.44 162.974 181.457 164.817 180.481C165.103 180.328 165.359 180.758 165.073 180.911Z" fill="#035BBD"/>
<g opacity="0.5">
<path d="M60.1836 219.463C60.1836 219.463 47.7559 226.885 47.7559 244.022C35.7377 239.333 26.6677 234.583 26.6677 234.583C26.6677 234.583 25.1424 221.378 41.2145 206.718C45.299 210.987 60.1836 219.463 60.1836 219.463Z" fill="#6B6B6B"/>
</g>
<path d="M58.5547 216.782C58.5547 216.782 46.127 224.203 46.127 241.34C34.1088 236.652 25.0388 231.902 25.0388 231.902C25.0388 231.902 23.5135 218.696 39.5856 204.037C43.6701 208.305 58.5547 216.782 58.5547 216.782Z" fill="white"/>
<path d="M52.4232 217.877C52.5665 218.01 52.4027 218.236 52.2389 218.154C51.0207 217.58 49.9049 216.792 48.7788 216.076C47.6425 215.359 46.496 214.642 45.3699 213.916C43.0973 212.455 40.8349 210.988 38.5828 209.514C38.2552 209.299 38.5214 208.756 38.8592 208.961C41.1591 210.428 43.4522 211.902 45.7384 213.383C46.8747 214.11 48.0008 214.857 49.1269 215.594C50.2427 216.331 51.4097 217.017 52.4232 217.877Z" fill="#035BBD"/>
<path d="M50.3637 220.365C50.4763 220.467 50.3944 220.692 50.2306 220.641C49.6368 220.457 49.0943 220.098 48.5619 219.801C47.9682 219.474 47.3949 219.126 46.8114 218.788C45.6751 218.133 44.5388 217.478 43.4127 216.812C41.1197 215.471 38.8163 214.14 36.5437 212.769C36.2161 212.564 36.4823 212.032 36.8201 212.226C39.1234 213.547 41.4063 214.908 43.6891 216.259C44.8254 216.925 45.9515 217.601 47.0776 218.276C47.6509 218.614 48.2344 218.962 48.8076 219.31C49.3297 219.627 49.9235 219.935 50.3637 220.365Z" fill="#035BBD"/>
<path d="M48.2787 223.241C48.381 223.333 48.2991 223.528 48.1558 223.487C47.5416 223.333 46.999 223.006 46.4565 222.709C45.8627 222.381 45.2792 222.043 44.6957 221.716C43.5219 221.054 42.348 220.385 41.1742 219.709C38.8402 218.368 36.4959 217.038 34.1618 215.686C33.8138 215.482 34.1004 214.918 34.4485 215.123C36.7928 216.454 39.137 217.795 41.4711 219.136C42.6449 219.805 43.8153 220.477 44.9823 221.153C45.5351 221.47 46.0982 221.787 46.651 222.125C47.214 222.453 47.8078 222.77 48.2787 223.241Z" fill="#035BBD"/>
<path d="M47.1301 226.22C47.2222 226.292 47.1301 226.435 47.0277 226.415C45.6867 226.128 44.3968 225.422 43.1479 224.859C41.8375 224.275 40.5272 223.682 39.2169 223.078C37.9338 222.497 36.6508 221.914 35.3678 221.327C34.6989 221.02 34.0301 220.716 33.3613 220.416C33.0269 220.259 32.6925 220.105 32.3581 219.955C32.2352 219.894 32.0817 219.853 31.9896 219.771C31.877 219.689 31.8462 219.556 31.7439 219.464C31.6313 219.372 31.7336 219.218 31.8565 219.228C31.9896 219.249 32.1022 219.177 32.2352 219.208C32.3683 219.228 32.5219 219.331 32.6447 219.382C32.9791 219.532 33.3135 219.686 33.648 219.843C34.2895 220.129 34.931 220.419 35.5725 220.713C36.8828 221.313 38.1932 221.914 39.5035 222.515C40.7831 223.098 42.0628 223.682 43.3424 224.275C44.6118 224.859 46.004 225.381 47.1301 226.22Z" fill="#035BBD"/>
<path d="M44.2228 230.151C43.0046 229.844 41.8581 229.189 40.7218 228.667C39.5274 228.114 38.3365 227.561 37.1491 227.008C34.7638 225.913 32.3581 224.859 30.0036 223.692C29.6761 223.538 29.932 223.047 30.2596 223.19C32.6653 224.244 35.03 225.401 37.405 226.507C38.5652 227.046 39.7254 227.588 40.8856 228.134C42.0423 228.677 43.3117 229.138 44.3559 229.875C44.489 229.977 44.3661 230.192 44.2228 230.151Z" fill="#035BBD"/>
<path d="M42.5872 234.246C42.6793 234.328 42.5974 234.451 42.495 234.441C41.9013 234.369 41.3383 234.062 40.7957 233.837C40.202 233.581 39.6082 233.315 39.0247 233.048C37.8372 232.516 36.6702 231.974 35.4929 231.441C33.1384 230.363 30.7873 229.281 28.4397 228.196C28.0711 228.032 28.3475 227.469 28.7161 227.643C31.0706 228.722 33.4217 229.803 35.7693 230.888C36.9159 231.421 38.0624 231.943 39.209 232.485C39.7925 232.762 40.376 233.028 40.9595 233.315C41.5021 233.591 42.1367 233.837 42.5872 234.246Z" fill="#035BBD"/>
<g opacity="0.5">
<path d="M375.002 184.985C365.451 196.082 356.944 203.975 356.944 203.975C356.944 203.975 342.244 200.627 332.621 177.901C338.733 175.137 353.423 162.413 353.423 162.413C353.423 162.413 356.668 178.515 375.002 184.985Z" fill="#6B6B6B"/>
</g>
<path d="M374.998 182.099C365.447 193.196 356.94 201.099 356.94 201.099C356.94 201.099 342.24 197.751 332.617 175.015C338.729 172.251 353.419 159.537 353.419 159.537C353.419 159.537 356.664 175.629 374.998 182.099Z" fill="#DEF8F7"/>
<path d="M352.51 166.815C351.445 167.9 350.175 168.791 348.988 169.733C347.78 170.674 346.582 171.626 345.374 172.558C342.958 174.435 340.536 176.305 338.106 178.168C337.758 178.434 337.267 177.943 337.625 177.656C340.061 175.752 342.501 173.855 344.944 171.964C346.163 171.022 347.381 170.101 348.599 169.18C349.797 168.258 350.974 167.265 352.284 166.508C352.479 166.406 352.653 166.661 352.51 166.815Z" fill="#035BBD"/>
<path d="M354.413 169.906C353.993 170.469 353.399 170.909 352.877 171.37C352.304 171.872 351.72 172.363 351.147 172.854C350.011 173.817 348.874 174.789 347.738 175.752C345.445 177.697 343.152 179.652 340.818 181.566C340.48 181.843 340.009 181.361 340.347 181.065C342.63 179.099 344.943 177.174 347.257 175.24C348.393 174.277 349.54 173.336 350.686 172.373C351.27 171.892 351.853 171.401 352.447 170.92C352.99 170.48 353.542 169.957 354.167 169.65C354.32 169.568 354.525 169.742 354.413 169.906Z" fill="#035BBD"/>
<path d="M356.676 173.203C356.277 173.797 355.724 174.247 355.192 174.718C354.618 175.23 354.045 175.731 353.472 176.233C352.318 177.236 351.162 178.236 350.001 179.233C347.678 181.229 345.364 183.225 343.04 185.221C342.692 185.518 342.201 185.006 342.549 184.699C344.852 182.693 347.176 180.696 349.49 178.7C350.65 177.704 351.81 176.707 352.97 175.711C353.523 175.24 354.076 174.759 354.639 174.298C355.212 173.817 355.775 173.295 356.461 172.968C356.594 172.906 356.778 173.06 356.676 173.203Z" fill="#035BBD"/>
<path d="M359.38 175.506C358.561 176.837 357.322 177.943 356.257 179.069C355.131 180.256 353.995 181.434 352.859 182.611C351.753 183.764 350.644 184.914 349.532 186.061C348.952 186.661 348.375 187.262 347.802 187.862C347.508 188.163 347.215 188.463 346.921 188.763C346.819 188.866 346.717 189.019 346.594 189.091C346.461 189.173 346.317 189.152 346.174 189.234C346.031 189.316 345.898 189.152 345.969 189.019C346.031 188.886 346.01 188.743 346.082 188.61C346.164 188.477 346.317 188.354 346.43 188.241C346.717 187.941 347.003 187.637 347.29 187.33C347.849 186.757 348.406 186.184 348.958 185.61C350.091 184.436 351.224 183.259 352.357 182.078C353.473 180.932 354.579 179.785 355.705 178.639C356.8 177.503 357.885 176.202 359.216 175.332C359.318 175.261 359.441 175.404 359.38 175.506Z" fill="#035BBD"/>
<path d="M362.316 179.918C361.528 181.096 360.392 182.089 359.409 183.102C358.365 184.167 357.331 185.241 356.287 186.306C354.209 188.435 352.171 190.616 350.042 192.694C349.745 192.981 349.326 192.53 349.602 192.233C351.629 190.053 353.768 187.965 355.846 185.835C356.863 184.798 357.88 183.761 358.897 182.723C359.911 181.689 360.893 180.512 362.081 179.673C362.224 179.56 362.419 179.775 362.316 179.918Z" fill="#035BBD"/>
<path d="M366.249 183.399C365.952 183.993 365.409 184.484 364.969 184.976C364.467 185.518 363.955 186.05 363.454 186.583C362.44 187.647 361.417 188.692 360.393 189.746C358.356 191.855 356.308 193.964 354.271 196.072C353.944 196.4 353.452 195.888 353.78 195.561C355.817 193.452 357.864 191.343 359.912 189.244C360.915 188.221 361.908 187.187 362.922 186.173C363.433 185.651 363.945 185.119 364.467 184.607C364.969 184.126 365.471 183.542 366.085 183.215C366.197 183.153 366.31 183.286 366.249 183.399Z" fill="#035BBD"/>
<path d="M183.152 244.968V237.449H185.555C186.077 237.449 186.537 237.506 186.935 237.621C187.342 237.736 187.66 237.931 187.89 238.207C188.127 238.476 188.246 238.84 188.246 239.3C188.246 239.652 188.154 239.986 187.97 240.3C187.786 240.607 187.529 240.817 187.2 240.932V240.978C187.614 241.07 187.955 241.266 188.223 241.565C188.499 241.856 188.637 242.255 188.637 242.761C188.637 243.259 188.51 243.673 188.258 244.002C188.012 244.332 187.671 244.577 187.234 244.738C186.797 244.892 186.303 244.968 185.751 244.968H183.152ZM184.486 240.553H185.44C185.962 240.553 186.341 240.457 186.579 240.266C186.816 240.074 186.935 239.817 186.935 239.495C186.935 239.127 186.813 238.867 186.567 238.713C186.322 238.56 185.954 238.483 185.463 238.483H184.486V240.553ZM184.486 243.934H185.613C186.165 243.934 186.59 243.834 186.889 243.635C187.188 243.428 187.338 243.113 187.338 242.692C187.338 242.293 187.192 242.006 186.901 241.829C186.609 241.645 186.18 241.553 185.613 241.553H184.486V243.934Z" fill="#232063"/>
<path d="M190.013 244.968V237.449H192.554C193.075 237.449 193.543 237.518 193.957 237.655C194.379 237.793 194.708 238.027 194.946 238.357C195.191 238.679 195.314 239.12 195.314 239.679C195.314 240.254 195.176 240.718 194.9 241.07C194.632 241.423 194.271 241.676 193.819 241.829L195.613 244.968H194.118L192.497 242.025H191.347V244.968H190.013ZM191.347 240.967H192.416C192.93 240.967 193.321 240.86 193.589 240.645C193.865 240.423 194.003 240.101 194.003 239.679C194.003 239.25 193.865 238.951 193.589 238.782C193.321 238.606 192.93 238.518 192.416 238.518H191.347V240.967Z" fill="#232063"/>
<path d="M196.818 244.968V237.449H201.348V238.575H198.151V240.496H200.854V241.622H198.151V243.842H201.463V244.968H196.818Z" fill="#232063"/>
<path d="M204.545 240.967L204.281 241.887H206.201L205.937 240.967C205.814 240.568 205.695 240.158 205.58 239.737C205.473 239.315 205.366 238.897 205.258 238.483H205.212C205.113 238.905 205.005 239.327 204.89 239.748C204.783 240.162 204.668 240.568 204.545 240.967ZM202.027 244.968L204.476 237.449H206.04L208.489 244.968H207.087L206.5 242.933H203.971L203.384 244.968H202.027Z" fill="#232063"/>
<path d="M209.416 244.968V237.449H210.75V240.863H210.785L213.464 237.449H214.947L212.636 240.381L215.338 244.968H213.866L211.831 241.427L210.75 242.772V244.968H209.416Z" fill="#232063"/>
<path d="M216.277 244.968V237.449H217.611V244.968H216.277Z" fill="#232063"/>
<path d="M219.522 244.968V237.449H220.89L223.236 241.68L224.006 243.278H224.052C224.022 242.895 223.983 242.477 223.937 242.025C223.899 241.573 223.88 241.136 223.88 240.714V237.449H225.156V244.968H223.788L221.442 240.737L220.672 239.139H220.626C220.657 239.537 220.691 239.955 220.729 240.392C220.775 240.829 220.798 241.258 220.798 241.68V244.968H219.522Z" fill="#232063"/>
<path d="M230.218 245.106C229.544 245.106 228.938 244.957 228.402 244.658C227.865 244.359 227.443 243.922 227.137 243.347C226.83 242.765 226.677 242.059 226.677 241.231C226.677 240.411 226.834 239.71 227.148 239.127C227.463 238.537 227.888 238.089 228.425 237.782C228.961 237.468 229.563 237.311 230.23 237.311C230.766 237.311 231.219 237.41 231.587 237.609C231.962 237.801 232.269 238.02 232.506 238.265L231.794 239.127C231.602 238.943 231.387 238.79 231.15 238.667C230.92 238.537 230.628 238.472 230.276 238.472C229.609 238.472 229.068 238.717 228.655 239.208C228.248 239.691 228.045 240.354 228.045 241.197C228.045 242.055 228.241 242.73 228.632 243.221C229.022 243.704 229.594 243.945 230.345 243.945C230.559 243.945 230.763 243.918 230.954 243.865C231.146 243.803 231.303 243.719 231.426 243.612V241.99H230V240.898H232.621V244.209C232.368 244.462 232.031 244.677 231.61 244.853C231.196 245.022 230.732 245.106 230.218 245.106Z" fill="#232063"/>
<path d="M183.589 262.216V248.888H186.675L190.15 255.511L191.458 258.454H191.54C191.486 257.746 191.411 256.955 191.315 256.083C191.22 255.211 191.172 254.38 191.172 253.589V248.888H194.034V262.216H190.947L187.472 255.572L186.164 252.67H186.082C186.151 253.405 186.225 254.196 186.307 255.041C186.403 255.886 186.45 256.703 186.45 257.494V262.216H183.589Z" fill="#232063"/>
<path d="M197.183 262.216V248.888H205.523V251.423H200.188V254.1H204.726V256.615H200.188V259.681H205.727V262.216H197.183Z" fill="#232063"/>
<path d="M209.567 262.216L207.094 248.888H210.18L211.1 255.123C211.182 255.818 211.271 256.519 211.366 257.228C211.461 257.923 211.55 258.625 211.632 259.333H211.713C211.85 258.625 211.979 257.923 212.102 257.228C212.238 256.519 212.374 255.818 212.511 255.123L213.942 248.888H216.497L217.928 255.123C218.064 255.79 218.193 256.478 218.316 257.187C218.452 257.896 218.589 258.611 218.725 259.333H218.807C218.902 258.611 218.991 257.903 219.072 257.208C219.168 256.499 219.263 255.804 219.358 255.123L220.278 248.888H223.161L220.789 262.216H217.008L215.699 256.165C215.59 255.647 215.488 255.129 215.393 254.611C215.311 254.08 215.236 253.569 215.168 253.078H215.086C215.004 253.569 214.916 254.08 214.821 254.611C214.739 255.129 214.643 255.647 214.534 256.165L213.287 262.216H209.567Z" fill="#232063"/>
<path d="M229.078 262.461C228.206 262.461 227.333 262.297 226.461 261.97C225.603 261.643 224.833 261.166 224.151 260.539L225.869 258.475C226.345 258.884 226.877 259.218 227.463 259.476C228.049 259.735 228.614 259.865 229.16 259.865C229.786 259.865 230.25 259.749 230.55 259.517C230.863 259.286 231.02 258.972 231.02 258.577C231.02 258.155 230.843 257.848 230.488 257.657C230.148 257.453 229.684 257.228 229.098 256.983L227.361 256.247C226.911 256.056 226.482 255.804 226.073 255.49C225.664 255.163 225.33 254.761 225.071 254.284C224.812 253.807 224.683 253.249 224.683 252.608C224.683 251.872 224.881 251.205 225.276 250.605C225.685 250.005 226.243 249.528 226.952 249.174C227.674 248.82 228.499 248.643 229.425 248.643C230.188 248.643 230.952 248.793 231.715 249.092C232.478 249.392 233.146 249.828 233.718 250.401L232.185 252.302C231.749 251.961 231.313 251.702 230.877 251.525C230.441 251.334 229.957 251.239 229.425 251.239C228.907 251.239 228.492 251.348 228.178 251.566C227.879 251.77 227.729 252.063 227.729 252.445C227.729 252.854 227.919 253.16 228.301 253.365C228.696 253.569 229.18 253.787 229.752 254.019L231.469 254.714C232.273 255.041 232.914 255.49 233.391 256.063C233.868 256.635 234.106 257.391 234.106 258.332C234.106 259.068 233.909 259.749 233.514 260.376C233.118 261.003 232.546 261.507 231.796 261.889C231.047 262.27 230.141 262.461 229.078 262.461Z" fill="#232063"/>
<defs>
<linearGradient id="paint0_linear_1108_15551" x1="167.227" y1="108.941" x2="227.29" y2="108.941" gradientUnits="userSpaceOnUse">
<stop offset="0.390625" stop-color="#F7751E"/>
<stop offset="1" stop-color="#F2480C"/>
</linearGradient>
<linearGradient id="paint1_linear_1108_15551" x1="167.227" y1="108.941" x2="227.29" y2="108.941" gradientUnits="userSpaceOnUse">
<stop offset="0.390625" stop-color="#F7751E"/>
<stop offset="1" stop-color="#F2480C"/>
</linearGradient>
<linearGradient id="paint2_linear_1108_15551" x1="167.227" y1="108.941" x2="227.29" y2="108.941" gradientUnits="userSpaceOnUse">
<stop offset="0.390625" stop-color="#F7751E"/>
<stop offset="1" stop-color="#F2480C"/>
</linearGradient>
<linearGradient id="paint3_linear_1108_15551" x1="167.227" y1="108.941" x2="227.29" y2="108.941" gradientUnits="userSpaceOnUse">
<stop offset="0.390625" stop-color="#F7751E"/>
<stop offset="1" stop-color="#F2480C"/>
</linearGradient>
<linearGradient id="paint4_linear_1108_15551" x1="109.055" y1="234.799" x2="247.858" y2="234.799" gradientUnits="userSpaceOnUse">
<stop offset="0.390625" stop-color="#3D8BFD"/>
<stop offset="1" stop-color="#1273FF"/>
</linearGradient>
<linearGradient id="paint5_linear_1108_15551" x1="178.456" y1="189.06" x2="178.456" y2="204.037" gradientUnits="userSpaceOnUse">
<stop offset="0.275742" stop-color="#0380DC"/>
<stop offset="1" stop-color="#0061D3"/>
</linearGradient>
</defs>
</svg>
