<svg width="400" height="400" viewBox="0 0 400 400" fill="none" xmlns="http://www.w3.org/2000/svg">
<path d="M255.887 246.564C246.98 254.763 230.208 256.813 225.997 257.185C225.363 254.316 224.804 251.446 224.32 248.539L222.605 278.839V278.876C222.307 278.876 222.021 278.876 221.748 278.876L221.003 294.977C221.226 295.002 221.462 295.027 221.711 295.051L221.599 295.909L221.301 301.164H131.033L130.586 293.486L128.164 250.365C127.468 252.552 126.735 254.813 125.965 257.148C121.231 256.701 105.131 254.539 96.4844 246.564C98.7206 237.619 105.839 213.095 118.25 204.933C127.679 198.299 142.438 193.193 151.979 189.578C156.414 193.007 167.297 200.647 176.167 200.647C185.075 200.647 195.92 193.007 200.355 189.578C205.61 191.553 212.393 193.976 218.99 196.883C224.469 199.268 229.835 201.952 234.121 204.933C246.495 213.095 253.651 237.619 255.887 246.564Z" fill="url(#paint0_linear_1207_10374)"/>
<path d="M330.314 303.586C300.995 303.586 271.688 303.586 242.394 303.586C204.603 303.586 166.824 303.586 129.057 303.586C112.037 303.586 95.0175 303.586 77.9977 303.586C70.8171 303.586 63.6489 303.586 56.4931 303.586C49.3746 303.586 37.8582 306.94 32.6032 301.201C29.9943 298.331 29.8452 294.082 29.9198 290.206C30.1806 276.901 31.1124 264.267 42.6287 255.769C53.1761 247.98 69.7238 246.862 77.4014 236.799C84.9299 226.997 80.1966 213.99 79.7494 202.175C78.6686 174.67 106.919 148.954 138.412 148.693C149.742 148.619 161.072 151.377 172.29 149.923C194.987 147.016 210.492 128.195 231.81 120.741C248.022 115.076 267.328 116.716 282.012 124.99C296.696 133.264 306.349 147.948 307.169 163.191C307.803 175.117 303.405 187.454 307.803 198.709C311.716 208.772 321.704 215.816 330.016 223.531C352.787 244.663 364.155 277.497 351.036 303.586C344.128 303.586 337.221 303.586 330.314 303.586Z" fill="#F0F6FF"/>
<path d="M338.215 305.375C308.126 305.375 278.037 305.375 247.948 305.375C209.187 305.375 170.427 305.375 131.666 305.375C114.199 305.375 96.7319 305.375 79.2648 305.375C71.9102 305.375 64.5557 305.375 57.2011 305.375C49.8962 305.375 38.0445 308.804 32.6776 302.953C29.9942 300.009 29.8451 295.685 29.9197 291.735C30.1806 278.169 31.1123 265.31 42.9641 256.627C53.8096 248.688 70.7673 247.533 78.6685 237.284C86.346 227.295 81.501 214.027 81.0537 202.026C79.9729 173.962 108.932 147.762 141.244 147.501C152.873 147.426 164.501 150.222 176.017 148.768C199.311 145.786 215.225 126.593 237.102 119.027C253.762 113.25 273.552 114.89 288.609 123.313C303.703 131.773 313.617 146.755 314.437 162.297C315.07 174.41 310.598 187.007 315.108 198.486C319.096 208.735 329.382 215.928 337.917 223.792C361.248 245.297 372.95 278.765 359.459 305.375C352.377 305.375 345.296 305.375 338.215 305.375Z" stroke="#E6EDEF" stroke-width="1.6"/>
<path d="M284.022 305.487C261.685 305.487 239.124 305.487 216.34 305.487C186.698 305.487 156.683 305.487 126.296 305.487C112.482 305.487 98.5924 305.487 84.6287 305.487C78.7152 305.462 72.7893 305.45 66.851 305.45C60.9624 305.45 51.7568 308.58 46.6881 303.251C44.1538 300.567 43.5202 296.579 43.0729 292.964C41.5822 280.367 40.725 268.254 49.4833 260.13C57.5336 252.638 71.4725 251.707 76.8766 241.942C82.2062 232.326 76.6902 219.282 74.9386 207.356C70.8016 178.956 92.7535 152.457 120.37 153.054C130.21 153.277 140.31 156.483 149.888 155.253C169.156 152.793 181.269 133.264 199.121 125.921C212.762 120.368 229.272 122.716 241.944 131.996C254.467 141.127 262.853 156.669 263.784 172.285C264.53 184.286 261.25 196.51 264.977 207.691C268.294 217.568 276.381 224.5 283.053 231.991C300.942 252.117 309.663 282.268 299.712 305.524C294.495 305.499 289.264 305.487 284.022 305.487Z" stroke="white" stroke-width="1.6"/>
<path fill-rule="evenodd" clip-rule="evenodd" d="M130.96 117.126V132.295C130.96 134.233 129.394 135.798 127.456 135.798H122.909V140.345L118.363 135.798H103.417C101.479 135.798 99.9141 134.233 99.9141 132.295V117.126C99.9141 115.188 101.479 113.623 103.417 113.623H127.456C129.394 113.623 130.96 115.188 130.96 117.126ZM109.194 124.729C109.194 123.76 108.412 122.977 107.443 122.977C106.474 122.977 105.691 123.76 105.691 124.729C105.691 125.698 106.474 126.481 107.443 126.481C108.412 126.481 109.194 125.698 109.194 124.729ZM117.17 124.729C117.17 123.76 116.387 122.977 115.418 122.977C114.487 122.977 113.704 123.76 113.704 124.729C113.704 125.698 114.487 126.481 115.418 126.481C116.387 126.481 117.17 125.698 117.17 124.729ZM125.183 124.729C125.183 123.76 124.4 122.977 123.431 122.977C122.462 122.977 121.68 123.76 121.68 124.729C121.68 125.698 122.462 126.481 123.431 126.481C124.4 126.481 125.183 125.698 125.183 124.729Z" fill="#E6EDEF"/>
<path d="M255.887 246.564C246.98 254.763 230.208 256.813 225.997 257.185C225.363 254.316 224.804 251.446 224.32 248.539L222.605 278.839V278.876C222.307 278.876 222.021 278.876 221.748 278.876L221.003 294.977C221.226 295.002 221.462 295.027 221.711 295.051L221.599 295.909L221.301 301.164H131.033L130.586 293.486L128.164 250.365C127.468 252.552 126.735 254.813 125.965 257.148C121.231 256.701 105.131 254.539 96.4844 246.564C98.7206 237.619 105.839 213.095 118.25 204.933C127.679 198.299 142.438 193.193 151.979 189.578C156.414 193.007 167.297 200.647 176.167 200.647C185.075 200.647 195.92 193.007 200.355 189.578C205.61 191.553 212.393 193.976 218.99 196.883C224.469 199.268 229.835 201.952 234.121 204.933C246.495 213.095 253.651 237.619 255.887 246.564Z" fill="url(#paint1_linear_1207_10374)"/>
<g style="mix-blend-mode:multiply">
<path d="M217.683 294.567C219.025 294.741 220.354 294.902 221.671 295.051L221.485 298.629H217.273L217.683 294.567ZM224.466 232.028L224.28 248.576L222.566 278.876C221.497 278.901 220.429 278.938 219.361 278.988L224.466 232.028Z" fill="#D1D3D4"/>
</g>
<g style="mix-blend-mode:multiply">
<path d="M133.605 282.604L135.096 298.629H130.884L130.102 284.84L133.605 282.604Z" fill="#D1D3D4"/>
</g>
<g style="mix-blend-mode:multiply">
<path d="M128.054 248.539L127.867 231.991L131.035 261.322C130.315 261.695 129.582 262.08 128.836 262.478L128.054 248.539Z" fill="#D1D3D4"/>
</g>
<path d="M226 257.186C230.211 256.813 246.983 254.763 255.89 246.564C256.412 248.651 256.673 249.881 256.673 249.881C255.592 250.887 254.437 251.782 253.17 252.639C246.349 257.223 237.218 259.459 226.671 260.093C226.447 259.124 226.224 258.155 226 257.186Z" fill="url(#paint2_linear_1207_10374)"/>
<path d="M176.165 197.89C183.842 197.89 193.16 191.442 197.185 188.349C198.154 188.721 199.235 189.131 200.353 189.579C195.918 193.007 185.072 200.648 176.165 200.648C167.294 200.648 156.412 193.007 151.977 189.579C153.12 189.131 154.175 188.721 155.144 188.349C159.207 191.442 168.524 197.89 176.165 197.89Z" fill="url(#paint3_linear_1207_10374)"/>
<path d="M96.484 246.564C105.131 254.54 121.231 256.701 125.964 257.149C125.666 258.118 125.356 259.087 125.033 260.056C114.746 259.347 105.876 257.149 99.1674 252.639C97.9251 251.794 96.7573 250.875 95.6641 249.881C95.6641 249.881 95.925 248.651 96.484 246.564Z" fill="url(#paint4_linear_1207_10374)"/>
<g style="mix-blend-mode:multiply">
<path d="M130.363 289.573L129.133 267.398C134.649 264.528 140.202 261.658 145.755 258.751C148.091 257.534 150.426 256.304 152.762 255.062C154.215 254.242 155.743 253.086 157.309 252.304C157.458 250.328 157.346 248.353 157.495 246.378C157.607 245.185 157.793 244.03 158.017 242.874C158.315 241.085 158.613 239.309 158.911 237.545C159.11 236.501 159.296 235.458 159.47 234.414C159.508 234.153 159.582 233.892 159.731 233.669C160.029 233.333 160.514 233.259 160.924 233.445C161.334 233.594 161.632 233.967 161.856 234.302C162.303 234.973 162.601 235.756 162.75 236.539C163.086 238.663 162.34 241.16 163.719 242.763C164.017 243.135 168.415 236.874 168.713 236.464C169.235 235.644 169.794 234.824 170.502 234.116C171.136 233.52 171.844 233.035 172.589 232.551C174.714 231.134 176.95 229.793 179.372 228.936C179.782 229.83 179.186 230.799 178.59 231.544C176.279 234.265 173.297 236.464 171.434 239.483C174.416 237.023 177.621 234.787 180.9 232.774C181.385 232.476 181.944 232.141 182.503 232.253C183.025 234.153 181.72 235.98 180.453 237.47C180.938 236.874 181.609 236.427 182.317 236.203C182.615 236.129 182.95 236.091 183.174 236.278C183.323 236.389 183.398 236.576 183.472 236.725C183.957 238.328 182.876 238.924 181.758 240.154C179.372 242.763 176.204 245.036 174.266 247.943C176.838 246.303 179.745 245.632 182.466 244.179C182.727 244.067 183.025 243.918 183.323 243.955C183.733 243.993 184.031 244.402 184.106 244.812C184.18 245.185 184.106 245.632 183.882 246.005C182.913 247.533 179.484 249.397 176.987 251.446C174.937 253.124 173.521 256.292 172.105 258.528C171.173 260.056 170.241 261.696 168.788 262.814C167.26 264.044 165.21 264.528 163.235 264.305C161.632 266.243 159.508 267.92 157.644 269.522C150.227 275.858 140.053 283.349 130.363 289.573Z" fill="#D8D0BC"/>
</g>
<path d="M52.8821 294.456C50.7949 291.884 50.0123 288.492 50.0868 285.175C50.1986 281.896 51.0558 278.653 51.9876 275.485C52.9193 272.317 53.8883 269.149 54.1492 265.87C54.9319 256.85 51.2422 249.508 45.4281 242.912C43.7882 241.011 42.0366 239.185 40.7321 237.023C37.7133 232.141 38.1978 225.507 40.2849 220.289C42.5583 214.624 47.627 211.046 50.795 205.94C54.112 200.61 55.9754 194.312 54.8946 188.051C54.4474 185.442 53.5902 182.907 53.0684 180.298C52.323 176.683 52.1367 172.323 54.7083 169.304C59.5906 163.527 69.8398 164.645 75.6166 168.148C79.8281 170.72 83.4432 174.671 88.5119 175.416C89.2946 175.565 90.1145 175.379 90.8599 175.491" stroke="#112B46" stroke-width="1.6" stroke-linecap="round"/>
<path d="M61.0435 295.536L42.2969 234.526L56.0121 170.385L98.4623 157.266" stroke="#112B46" stroke-width="3.2" stroke-linecap="round"/>
<path d="M52.9922 284.877H62.5705V295.052H52.9922V284.877Z" fill="#112B46"/>
<path d="M62.5705 284.877C62.5705 287.523 60.4462 289.685 57.7627 289.685C55.1166 289.685 52.9922 287.523 52.9922 284.877C52.9922 282.194 55.1166 280.069 57.7627 280.069C60.4462 280.069 62.5705 282.194 62.5705 284.877Z" fill="#112B46"/>
<path d="M60.368 284.877C60.368 286.293 59.2126 287.449 57.7591 287.449C56.3429 287.449 55.1875 286.293 55.1875 284.877C55.1875 283.423 56.3429 282.268 57.7591 282.268C59.2126 282.268 60.368 283.423 60.368 284.877Z" fill="#385C7A"/>
<path d="M83.0672 298.033V298.816H32.4922V298.033C32.4922 294.344 35.511 291.325 39.238 291.325H76.3214C80.0484 291.325 83.0672 294.344 83.0672 298.033Z" fill="#112B46"/>
<path d="M92.9403 176.906H90.1451C89.5488 176.906 89.1016 176.459 89.1016 175.863V174.223C89.1016 173.664 89.5488 173.217 90.1451 173.217H92.9403C93.5367 173.217 93.9839 173.664 93.9839 174.223V175.863C93.9839 176.459 93.5367 176.906 92.9403 176.906Z" fill="#112B46"/>
<path d="M93.9858 178.509H90.9297V171.577H93.9858V178.509Z" fill="#112B46"/>
<path d="M142.918 171.167L142.955 178.845C142.955 182.572 139.936 185.628 136.172 185.628L126.706 185.665L126.594 164.459L136.098 164.421C139.862 164.421 142.881 167.44 142.918 171.167Z" fill="#112B46"/>
<path fill-rule="evenodd" clip-rule="evenodd" d="M141.353 183.243V182.236H139.564V183.988H140.607C140.359 184.187 140.11 184.373 139.862 184.547H139.564V184.696C139.39 184.82 139.203 184.92 139.005 184.994V184.547H137.253V185.553C137.054 185.578 136.868 185.603 136.694 185.628V184.547H134.905V185.665H134.346V184.547H132.594V185.665H132.035V184.547H130.246V185.665H129.687V184.547H126.668V183.988H129.687V182.236H126.668V181.677H129.687V179.926H126.668V179.367H129.687V177.652H126.668V177.056H129.687V175.341H126.631V174.782H129.687V173.031H126.631V172.472H129.687V170.72H126.631V170.161H129.687V168.447H126.631V167.85H129.687V166.136H126.594V165.577H129.687V164.459H130.246V165.577H132.035V164.459H132.594V165.577H134.346V164.421H134.905V165.577H136.694V164.459C136.868 164.484 137.054 164.508 137.253 164.533V165.577H139.005V165.092C139.203 165.167 139.39 165.266 139.564 165.39V165.577H139.899C140.148 165.751 140.384 165.937 140.607 166.136H139.564V167.85H141.353V166.881C141.551 167.13 141.738 167.403 141.912 167.701V167.85H142.023C142.123 168.049 142.222 168.248 142.322 168.447H141.912V170.161H142.806C142.856 170.36 142.881 170.546 142.881 170.72H141.912V172.472H142.918V173.031H141.912V174.782H142.918V175.341H141.912V177.056H142.918V177.652H141.912V179.367H142.918C142.893 179.565 142.868 179.752 142.843 179.926H141.912V181.677H142.322C142.222 181.876 142.123 182.062 142.023 182.236H141.912V182.423C141.738 182.721 141.551 182.994 141.353 183.243ZM132.035 182.236H130.246V183.988H132.035V182.236ZM132.035 179.926H130.246V181.64H132.035V179.926ZM132.035 177.652H130.246V179.367H132.035V177.652ZM132.035 175.341H130.246V177.093H132.035V175.341ZM132.035 173.031H130.246V174.745H132.035V173.031ZM132.035 170.757H130.246V172.472H132.035V170.757ZM132.035 168.447H130.246V170.198H132.035V168.447ZM132.035 166.136H130.246V167.887H132.035V166.136ZM134.346 182.236H132.594V183.951H134.346V182.236ZM134.346 179.963H132.594V181.677H134.346V179.963ZM134.346 177.652H132.594V179.404H134.346V177.652ZM134.346 175.341H132.594V177.056H134.346V175.341ZM134.346 173.068H132.594V174.782H134.346V173.068ZM134.346 170.757H132.594V172.509H134.346V170.757ZM134.346 168.447H132.594V170.198H134.346V168.447ZM134.346 166.136H132.594V167.85H134.346V166.136ZM136.694 182.236H134.905V183.988H136.694V182.236ZM136.694 179.926H134.905V181.677H136.694V179.926ZM136.694 177.615H134.905V179.329H136.694V177.615ZM136.694 175.341H134.905V177.056H136.694V175.341ZM136.694 173.031H134.905V174.782H136.694V173.031ZM136.694 170.72H134.905V172.472H136.694V170.72ZM136.694 168.409H134.905V170.124H136.694V168.409ZM136.694 166.099H134.905V167.85H136.694V166.099ZM139.005 182.199H137.253V183.951H139.005V182.199ZM139.005 179.888H137.253V181.603H139.005V179.888ZM139.005 177.615H137.253V179.329H139.005V177.615ZM139.005 175.304H137.253V177.056H139.005V175.304ZM139.005 172.993H137.253V174.708H139.005V172.993ZM139.005 170.72H137.253V172.434H139.005V170.72ZM139.005 168.409H137.253V170.161H139.005V168.409ZM139.005 166.099H137.253V167.85H139.005V166.099ZM139.564 170.124H141.353V168.372H139.564V170.124ZM139.564 172.434H141.353V170.72H139.564V172.434ZM139.564 174.708H141.353V172.993H139.564V174.708ZM139.564 177.019H141.353V175.267H139.564V177.019ZM139.564 179.329H141.353V177.578H139.564V179.329ZM141.353 181.64V179.926H139.564V181.64H141.353Z" fill="#254963"/>
<path d="M126.599 164.458L126.711 185.665L124.624 185.479L122.351 185.218L120.86 185.106L118.587 184.845L117.096 184.733L114.86 184.51L113.331 184.361L111.095 184.137L94.1748 182.46C93.0567 182.348 92.1996 181.379 92.1623 180.261L92.125 170.161C92.125 169.005 92.9822 168.036 94.1376 167.925L111.021 166.098L113.257 165.875L114.748 165.726L117.021 165.465L118.512 165.316L120.785 165.055L122.276 164.906L124.55 164.645L126.599 164.458Z" fill="#A5B7C6"/>
<path d="M102.038 175.155C102.038 177.093 100.473 178.659 98.5719 178.659C96.6338 178.659 95.0685 177.131 95.0312 175.192C95.0312 173.254 96.5966 171.689 98.5346 171.652C100.473 171.652 102.038 173.217 102.038 175.155Z" fill="url(#paint5_linear_1207_10374)"/>
<path d="M100.513 175.155C100.513 176.236 99.6559 177.13 98.5378 177.13C97.457 177.13 96.5998 176.273 96.5625 175.192C96.5625 174.074 97.457 173.217 98.5378 173.217C99.6186 173.18 100.513 174.074 100.513 175.155Z" fill="#112B46"/>
<path d="M123.016 185.702V164.421C123.016 163.937 123.426 163.564 123.873 163.564H127.972C128.457 163.564 128.83 163.937 128.83 164.421V185.702C128.83 186.187 128.457 186.559 127.972 186.559H123.873C123.426 186.559 123.016 186.187 123.016 185.702Z" fill="#C3D3DD"/>
<path d="M113.437 170.272H111.648V166.024L113.251 165.875L113.437 165.837V170.272Z" fill="#C3D3DD"/>
<path d="M119.291 170.273H117.539V165.428L118.508 165.316L119.291 165.241V170.273Z" fill="#C3D3DD"/>
<path d="M117.539 184.771V179.851H119.291V184.92L118.583 184.845L117.539 184.771Z" fill="#C3D3DD"/>
<path d="M105.805 183.615V179.851H107.556V183.764L105.805 183.615Z" fill="#C3D3DD"/>
<path d="M111.648 184.174V179.851H113.437V184.361H113.326L111.648 184.174Z" fill="#C3D3DD"/>
<path d="M107.556 170.273H105.805V166.658L107.556 166.471V170.273Z" fill="#C3D3DD"/>
<path d="M127.977 186.559V163.564C128.461 163.564 128.834 163.937 128.834 164.421V185.702C128.834 186.187 128.461 186.559 127.977 186.559Z" fill="url(#paint6_linear_1207_10374)"/>
<path d="M103.264 157.265C103.264 159.949 101.102 162.073 98.4562 162.073C95.8101 162.073 93.6484 159.949 93.6484 157.265C93.6484 154.619 95.8101 152.458 98.4562 152.458C101.102 152.458 103.264 154.619 103.264 157.265Z" fill="#112B46"/>
<path d="M101.071 157.265C101.071 158.719 99.9157 159.874 98.4622 159.874C97.046 159.874 95.8906 158.719 95.8906 157.265C95.8906 155.849 97.046 154.694 98.4622 154.694C99.9157 154.694 101.071 155.849 101.071 157.265Z" fill="#385C7A"/>
<path d="M60.8187 170.384C60.8187 173.031 58.6571 175.192 56.0109 175.192C53.3648 175.192 51.2031 173.031 51.2031 170.384C51.2031 167.738 53.3648 165.577 56.0109 165.577C58.6571 165.577 60.8187 167.738 60.8187 170.384Z" fill="#112B46"/>
<path d="M58.618 170.385C58.618 171.801 57.4626 172.956 56.0091 172.956C54.5929 172.956 53.4375 171.801 53.4375 170.385C53.4375 168.968 54.5929 167.813 56.0091 167.813C57.4626 167.813 58.618 168.968 58.618 170.385Z" fill="#385C7A"/>
<path d="M47.1 234.526C47.1 237.172 44.9383 239.333 42.2922 239.333C39.646 239.333 37.4844 237.172 37.4844 234.526C37.4844 231.879 39.646 229.718 42.2922 229.718C44.9383 229.718 47.1 231.879 47.1 234.526Z" fill="#112B46"/>
<path d="M44.868 234.525C44.868 235.942 43.7126 237.097 42.2964 237.097C40.8429 237.097 39.6875 235.942 39.6875 234.525C39.6875 233.072 40.8429 231.917 42.2964 231.917C43.7126 231.917 44.868 233.072 44.868 234.525Z" fill="#385C7A"/>
<path d="M98.4609 157.266V175.043" stroke="#112B46" stroke-width="3.2" stroke-linecap="round"/>
<path d="M168.008 264.081C168.952 264.453 169.933 264.714 170.952 264.863C169.983 264.565 168.977 264.304 168.008 264.081Z" fill="#FFC8AF"/>
<path d="M165.134 246.825C165.234 246.899 165.321 246.974 165.395 247.048C166.029 247.719 166.439 248.539 166.774 249.396C169.048 255.881 163.383 260.018 159.022 263.745C151.196 270.454 140.276 278.429 130.101 284.84C118.1 292.443 107.068 297.921 103.416 296.654C95.9992 294.157 94.5084 280.815 99.1671 252.639C105.876 257.148 114.746 259.347 125.032 260.055C124.734 260.9 124.436 261.77 124.138 262.664C123.84 263.559 123.541 264.453 123.243 265.348C125.032 264.416 126.933 263.447 128.834 262.478C134.946 259.31 141.058 256.142 147.133 252.937C149.469 251.719 151.804 250.489 154.14 249.247C156.041 248.241 157.979 246.638 159.954 245.967C160.376 245.818 160.811 245.719 161.258 245.669C162.637 245.52 164.091 245.93 165.134 246.825Z" fill="#FFC8AF"/>
<path d="M124.137 262.664C123.839 263.559 123.54 264.453 123.242 265.347L109.602 271.721L124.137 262.664Z" fill="#F4B298"/>
<path d="M160.328 231.768C160.502 230.724 160.688 229.68 160.887 228.637C160.924 228.376 160.962 228.078 161.148 227.891C161.409 227.556 161.931 227.481 162.341 227.668C162.713 227.817 163.011 228.152 163.272 228.525C163.72 229.196 164.018 229.941 164.13 230.724C164.502 232.848 163.72 235.345 165.136 236.985C165.434 237.321 169.832 231.097 170.093 230.649C170.652 229.829 171.211 229.01 171.882 228.339C172.515 227.742 173.261 227.221 173.969 226.736C176.13 225.357 178.367 223.978 180.789 223.158C181.199 224.015 180.603 225.022 179.969 225.73C177.696 228.488 174.714 230.649 172.813 233.706C175.832 231.246 179 229.01 182.317 226.96C182.802 226.662 183.361 226.363 183.92 226.475C184.442 228.339 183.1 230.165 181.87 231.656C182.354 231.097 182.988 230.649 183.733 230.426C183.994 230.351 184.367 230.314 184.591 230.5C184.74 230.575 184.814 230.761 184.852 230.948C185.373 232.55 184.292 233.146 183.137 234.376C180.752 236.948 177.584 239.221 175.646 242.166C178.218 240.489 181.162 239.855 183.883 238.402C184.143 238.252 184.442 238.103 184.74 238.141C185.15 238.215 185.448 238.588 185.522 238.998C185.56 239.408 185.522 239.855 185.299 240.19C184.292 241.756 180.864 243.619 178.404 245.632C176.354 247.309 174.938 250.477 173.522 252.713C172.553 254.278 171.621 255.918 170.205 257.036C168.378 258.453 165.881 258.9 163.645 258.341C162.042 257.968 160.626 257.111 159.471 255.993C158.315 254.875 158.129 253.868 158.055 252.303C157.98 250.514 158.465 248.725 158.651 246.974C158.912 244.849 158.725 242.688 158.912 240.563C158.986 239.408 159.21 238.215 159.396 237.06C159.719 235.296 160.03 233.532 160.328 231.768Z" fill="#FFC8AF"/>
<path d="M172.328 238.29C172.328 238.29 172.477 238.103 172.701 237.805C172.962 237.544 173.297 237.097 173.744 236.613C174.192 236.128 174.713 235.569 175.31 234.973C175.906 234.414 176.54 233.817 177.248 233.258C177.993 232.662 178.776 232.289 179.521 231.917C180.267 231.581 181.012 231.32 181.608 231.059C182.242 230.836 182.764 230.687 183.136 230.575C183.509 230.5 183.733 230.426 183.733 230.426C183.733 230.426 183.546 230.538 183.211 230.761C182.875 230.948 182.428 231.246 181.832 231.544C181.273 231.879 180.602 232.252 179.894 232.662C179.223 233.072 178.44 233.482 177.807 233.966C177.136 234.488 176.502 235.084 175.869 235.606C175.235 236.128 174.602 236.575 174.117 236.985C173.595 237.395 173.148 237.731 172.85 237.954C172.514 238.178 172.328 238.29 172.328 238.29Z" fill="#F4B298"/>
<path d="M170.055 235.644C170.055 235.644 170.204 235.457 170.502 235.159C170.8 234.898 171.21 234.451 171.732 233.967C172.254 233.519 172.887 232.96 173.558 232.401C174.229 231.842 175.012 231.246 175.757 230.687C176.502 230.165 177.285 229.606 178.03 229.159C178.776 228.674 179.521 228.264 180.155 227.929C180.788 227.594 181.31 227.37 181.72 227.184C182.093 227.035 182.316 226.96 182.316 226.96C182.316 226.96 182.13 227.109 181.795 227.37C181.459 227.594 181.012 227.966 180.416 228.376C179.857 228.786 179.223 229.308 178.515 229.83C177.794 230.352 177.061 230.886 176.316 231.432C175.546 231.979 174.788 232.513 174.043 233.035C173.334 233.557 172.626 234.004 172.067 234.377C171.471 234.787 170.949 235.085 170.614 235.308C170.241 235.532 170.055 235.644 170.055 235.644Z" fill="#F4B298"/>
<g style="mix-blend-mode:multiply">
<path fill-rule="evenodd" clip-rule="evenodd" d="M221.711 295.052L221.6 295.909L221.339 300.978C214.518 300.158 207.735 299.226 200.915 298.257C196.219 297.549 191.486 296.99 186.827 296.058C186.578 296.008 186.317 295.959 186.044 295.909C185.945 295.884 185.845 295.859 185.746 295.834C183.249 296.803 179.857 296.393 177.77 295.35C175.944 294.418 174.192 290.915 173.559 289.61C172.963 288.269 171.77 283.498 170.354 282.455C169.683 281.933 163.943 279.026 162.154 278.169C161.67 277.945 160.254 276.939 160.514 276.491C160.887 275.895 162.415 276.193 163.198 276.305C163.421 276.33 163.645 276.367 163.869 276.417L163.794 276.38C164.614 276.491 165.509 276.641 166.403 276.79C164.465 276.044 162.602 275.075 160.924 273.92C160.589 273.696 160.291 273.435 160.104 273.1C159.955 272.764 160.03 272.28 160.365 272.094C160.514 271.982 160.701 271.982 160.887 271.982C161.782 271.957 162.664 272.007 163.533 272.131C162.937 271.982 162.378 271.684 161.856 271.311C161.521 271.05 161.223 270.64 161.372 270.267C161.483 270.007 161.707 269.895 161.968 269.82C163.347 269.298 164.875 269.447 166.329 269.708C166.888 269.783 167.447 269.932 167.968 270.044L167.857 270.007H167.894C167.72 269.932 167.534 269.857 167.335 269.783C167.26 269.447 167.67 269.187 168.043 269.112C169.608 268.814 171.285 269.075 172.776 269.634C174.304 270.193 179.746 272.019 180.715 272.69C181.572 273.249 183.174 277.311 183.51 278.131C184.74 281.001 185.821 284.169 187.647 286.741C188.318 286.629 189.026 286.554 189.697 286.517C191.734 286.368 193.784 286.231 195.846 286.107C202.43 285.685 209.002 285.337 215.562 285.063C217.55 284.989 219.525 284.927 221.488 284.877L221.003 294.977C221.227 295.002 221.463 295.027 221.711 295.052ZM170.95 270.826C170.13 270.566 169.31 270.342 168.453 270.156C168.9 270.267 169.608 270.454 170.391 270.715C170.577 270.752 170.764 270.789 170.95 270.826Z" fill="#D8D0BC"/>
</g>
<path d="M248.953 296.654C246.083 297.623 234.343 296.58 221.709 295.052C214.777 294.232 207.844 293.263 200.912 292.294C196.216 291.623 191.483 291.026 186.824 290.095C186.576 290.045 186.315 289.995 186.042 289.946C185.259 289.797 184.402 289.61 183.843 289.014C183.358 288.492 183.172 287.784 183.06 287.076C182.836 285.697 182.836 284.169 183.582 282.976C184.886 280.926 187.495 280.703 189.694 280.554C191.731 280.405 193.781 280.268 195.843 280.144C202.428 279.721 209 279.373 215.559 279.1C217.92 279.026 220.268 278.951 222.603 278.877C225.659 278.765 228.753 278.727 231.772 278.69C229.871 272.69 228.119 266.428 226.666 260.093C237.213 259.459 246.344 257.223 253.164 252.639C257.823 280.815 256.332 294.157 248.953 296.654Z" fill="#FFC8AF"/>
<path d="M187.87 281.113C188.28 281.672 188.69 282.193 188.914 282.827C189.1 283.386 189.1 283.982 189.1 284.541C189.1 285.287 189.063 286.07 188.839 286.778C187.572 291.064 181.087 291.064 177.77 289.387C175.944 288.455 174.192 284.989 173.559 283.647C172.963 282.343 171.77 277.572 170.354 276.491C169.683 276.007 163.943 273.062 162.154 272.205C161.67 271.982 160.254 270.975 160.514 270.528C160.887 269.969 162.415 270.267 163.198 270.342C164.39 270.491 165.583 270.826 166.776 270.975C164.689 270.23 162.713 269.224 160.924 267.956C160.589 267.733 160.291 267.509 160.104 267.137C159.955 266.801 160.03 266.317 160.365 266.13C160.514 266.056 160.701 266.018 160.887 266.018C161.782 265.994 162.664 266.043 163.533 266.168C162.937 266.018 162.378 265.72 161.856 265.348C161.521 265.087 161.223 264.677 161.372 264.304C161.483 264.08 161.707 263.931 161.968 263.857C163.347 263.335 164.875 263.484 166.329 263.745C166.888 263.82 167.447 263.969 168.006 264.08C168.95 264.453 169.931 264.714 170.95 264.863C169.981 264.565 168.975 264.304 168.006 264.08C167.782 264.006 167.558 263.919 167.335 263.82C167.26 263.484 167.67 263.223 168.043 263.149C169.608 262.851 171.285 263.111 172.776 263.67C174.304 264.229 179.746 266.093 180.715 266.727C181.572 267.286 183.174 271.348 183.51 272.168C184.814 275.15 185.895 278.541 187.87 281.113Z" fill="#FFC8AF"/>
<path d="M163.797 270.454C163.797 270.454 163.946 270.417 164.207 270.417C164.468 270.379 164.84 270.379 165.288 270.379C165.735 270.417 166.257 270.417 166.816 270.491C167.375 270.566 167.971 270.678 168.567 270.789C169.126 270.938 169.723 271.05 170.245 271.237C170.804 271.386 171.288 271.572 171.698 271.721C172.145 271.87 172.481 272.019 172.704 272.131C172.965 272.243 173.077 272.317 173.077 272.317C173.077 272.317 172.928 272.317 172.667 272.317C172.406 272.28 172.033 272.28 171.586 272.206C171.139 272.168 170.617 272.094 170.095 272.019C169.536 271.945 168.94 271.796 168.381 271.684C167.785 271.572 167.226 271.46 166.667 271.311C166.145 271.162 165.66 271.013 165.213 270.901C164.803 270.789 164.43 270.64 164.17 270.566C163.946 270.491 163.797 270.454 163.797 270.454Z" fill="#F4B298"/>
<path d="M163.531 266.168C163.531 266.168 163.718 266.168 164.053 266.13C164.388 266.093 164.873 266.056 165.432 266.093C165.991 266.13 166.662 266.168 167.37 266.279C168.041 266.354 168.786 266.503 169.532 266.689C170.24 266.876 170.985 267.099 171.656 267.323C172.327 267.547 172.923 267.807 173.445 268.031C173.967 268.255 174.377 268.478 174.675 268.627C174.936 268.814 175.122 268.888 175.122 268.888C175.122 268.888 174.936 268.851 174.6 268.814C174.265 268.739 173.818 268.665 173.259 268.516C172.737 268.404 172.066 268.255 171.395 268.106C170.724 267.932 170.029 267.758 169.308 267.584C168.588 267.41 167.879 267.236 167.184 267.062C166.513 266.913 165.916 266.727 165.357 266.615C164.836 266.503 164.351 266.354 164.053 266.317C163.718 266.242 163.531 266.168 163.531 266.168Z" fill="#F4B298"/>
<path d="M167.852 264.043C167.852 264.043 168.038 264.043 168.299 264.08C168.597 264.118 169.007 264.118 169.454 264.229C169.939 264.304 170.498 264.378 171.057 264.527C171.653 264.677 172.249 264.863 172.846 265.087C173.479 265.273 174.076 265.534 174.597 265.757C175.156 266.018 175.641 266.316 176.051 266.54C176.461 266.801 176.796 267.062 177.02 267.248C177.244 267.435 177.355 267.546 177.355 267.546C177.355 267.546 177.206 267.472 176.908 267.397C176.684 267.285 176.275 267.211 175.827 267.025C175.38 266.875 174.858 266.726 174.299 266.54C173.728 266.341 173.144 266.143 172.548 265.944C171.989 265.72 171.392 265.534 170.833 265.31C170.274 265.124 169.752 264.9 169.305 264.714C168.858 264.527 168.522 264.341 168.262 264.229C168.001 264.118 167.852 264.043 167.852 264.043Z" fill="#F4B298"/>
<path d="M231.211 277.013L243.808 278.69H231.77L231.211 277.013Z" fill="#F4B298"/>
<path d="M346.974 250.552C347.98 250.44 348.837 251.148 348.949 252.154L353.049 292.666L349.471 293.039L345.371 252.527C345.259 251.521 345.967 250.626 346.974 250.552Z" fill="#878CF0"/>
<path d="M349.024 252.974L345.446 253.31L345.335 252.117C345.223 251.334 345.782 250.664 346.564 250.589L347.384 250.514C348.13 250.44 348.838 250.999 348.912 251.744L349.024 252.974Z" fill="#EC827D"/>
<path d="M349.098 253.757L345.52 254.092L345.445 253.31L349.023 252.974L349.098 253.757Z" fill="#56548C"/>
<path d="M349.285 255.508L345.707 255.881L345.633 255.098L349.211 254.726L349.285 255.508Z" fill="#56548C"/>
<g style="mix-blend-mode:multiply">
<path d="M348.944 252.154L353.044 292.666L351.739 297.698L346.969 250.552C347.975 250.44 348.832 251.148 348.944 252.154Z" fill="#E6E7E8"/>
</g>
<path d="M356.258 289.722H352.047V251.223H356.258V289.722Z" fill="#EC827D"/>
<path d="M355.325 251.223H352.977V248.502H355.325V251.223Z" fill="#878CF0"/>
<path d="M354.954 294.008H353.314L352.047 289.759H356.258L354.954 294.008Z" fill="#D8D6EC"/>
<path d="M354.611 295.536L354.127 297.064L353.68 295.536V294.008H354.611V295.536Z" fill="#B8B7C9"/>
<path d="M358.486 263.335H357.554V254.391C357.554 253.645 356.958 253.049 356.25 253.049V252.117C357.48 252.117 358.486 253.123 358.486 254.391V263.335Z" fill="#878CF0"/>
<g style="mix-blend-mode:multiply">
<path d="M354.133 297.064V289.759H356.257L354.953 294.008H354.617V295.536L354.133 297.064Z" fill="#EC827D"/>
<path d="M352.047 289.759H354.134V297.064L353.687 295.536V294.008H353.314L352.047 289.759Z" fill="#EC827D"/>
<path d="M358.493 254.391V263.335H357.562V254.391C357.562 253.645 356.965 253.049 356.257 253.049V289.722H354.133V248.502H355.325V251.223H356.257V252.117C357.487 252.117 358.493 253.123 358.493 254.391Z" fill="#E6E7E8"/>
</g>
<path d="M362.698 291.213L358.523 290.803L362.288 252.49L366.462 252.9L362.698 291.213Z" fill="#56548C"/>
<path d="M365.537 252.825L363.227 252.602L363.487 249.844L365.798 250.105L365.537 252.825Z" fill="#A5B7C6"/>
<path d="M361.019 295.35L359.379 295.164L358.484 290.84L362.696 291.25L361.019 295.35Z" fill="#D8D6EC"/>
<path d="M360.502 296.803L359.906 298.331L359.57 296.729L359.719 295.201L360.651 295.312L360.502 296.803Z" fill="#B8B7C9"/>
<path d="M367.503 265.161L366.572 265.087L367.466 256.179C367.541 255.434 366.982 254.8 366.273 254.726L366.385 253.794C367.615 253.906 368.51 255.024 368.398 256.254L367.503 265.161Z" fill="#A5B7C6"/>
<g style="mix-blend-mode:multiply">
<path d="M359.898 298.332L360.607 291.064L362.694 291.25L361.017 295.35L360.644 295.313L360.495 296.804L359.898 298.332Z" fill="#56548C"/>
<path d="M358.484 290.84L360.609 291.064L359.901 298.332L359.565 296.729L359.714 295.201L359.379 295.164L358.484 290.84Z" fill="#56548C"/>
<path d="M368.399 256.254L367.504 265.162L366.573 265.087L367.467 256.18C367.542 255.434 366.982 254.801 366.274 254.726L362.696 291.213L360.609 291.027L364.635 249.956L365.79 250.105L365.529 252.825L366.461 252.9L366.386 253.794C367.616 253.906 368.511 255.024 368.399 256.254Z" fill="#E6E7E8"/>
</g>
<path fill-rule="evenodd" clip-rule="evenodd" d="M369.781 264.155V298.816H345.258V289.685V287.933V286.442V283.833V282.38V279.771V278.317V275.671V274.218V271.609V270.155V268.627V264.155H369.781ZM349.134 287.933H346.525V289.685H349.134V287.933ZM349.134 283.833H346.525V286.479H349.134V283.833ZM349.134 279.734H346.525V282.342H349.134V279.734ZM349.134 275.671H346.525V278.28H349.134V275.671ZM349.134 271.609H346.525V274.218H349.134V271.609ZM349.134 268.664H346.525V270.155H349.134V268.664ZM353.01 287.97H350.401V289.722H353.01V287.97ZM353.01 283.87H350.401V286.517H353.01V283.87ZM353.01 279.771H350.401V282.417H353.01V279.771ZM353.01 275.671H350.401V278.28H353.01V275.671ZM353.01 271.609H350.401V274.218H353.01V271.609ZM353.01 268.664H350.401V270.155H353.01V268.664ZM356.886 287.97H354.277V289.722H356.886V287.97ZM356.886 283.87H354.277V286.517H356.886V283.87ZM356.886 279.771H354.277V282.417H356.886V279.771ZM356.886 275.671H354.277V278.28H356.886V275.671ZM356.886 271.609H354.277V274.218H356.886V271.609ZM356.886 268.664H354.277V270.155H356.886V268.664ZM360.799 287.97H358.153V289.722H360.799V287.97ZM360.799 283.87H358.153V286.517H360.799V283.87ZM360.799 279.771H358.153V282.417H360.799V279.771ZM360.799 275.671H358.153V278.28H360.799V275.671ZM360.799 271.609H358.153V274.218H360.799V271.609ZM360.799 268.664H358.153V270.155H360.799V268.664ZM364.675 287.97H362.029V289.722H364.675V287.97ZM364.675 283.87H362.029V286.517H364.675V283.87ZM364.675 279.771H362.029V282.417H364.675V279.771ZM364.675 275.671H362.029V278.317H364.675V275.671ZM364.675 271.571H362.029V274.18H364.675V271.571ZM364.675 268.627H362.029V270.118H364.675V268.627ZM368.551 287.933H365.905V289.685H368.551V287.933ZM368.551 283.87H365.905V286.479H368.551V283.87ZM368.551 279.771H365.905V282.417H368.551V279.771ZM368.551 275.671H365.905V278.317H368.551V275.671ZM368.551 271.571H365.905V274.18H368.551V271.571ZM368.551 268.627H365.905V270.118H368.551V268.627Z" fill="#758D9E"/>
<path d="M352.789 298.629H305.419C302.773 298.629 300.648 296.505 300.648 293.859V292.741C300.648 290.095 302.773 287.97 305.419 287.97H352.789V298.629Z" fill="#1976FE"/>
<path d="M364.604 297.474V298.629H312.65C309.706 298.629 307.32 296.244 307.32 293.3C307.32 290.355 309.706 287.97 312.65 287.97H364.604V289.126H363.449V297.474H364.604Z" fill="#096DB7"/>
<path d="M312.643 297.474C310.332 297.474 308.469 295.61 308.469 293.3C308.469 290.989 310.332 289.125 312.643 289.125H363.442V297.474H312.643Z" fill="#F9FBFC"/>
<path d="M363.449 291.548H310.414V291.026H363.449V291.548Z" fill="#E1E7EA"/>
<path d="M363.446 292.89H309.703V292.369H363.446V292.89Z" fill="#E1E7EA"/>
<path d="M363.446 294.232H309.703V293.71H363.446V294.232Z" fill="#E1E7EA"/>
<path d="M363.449 295.611H310.414V295.052H363.449V295.611Z" fill="#E1E7EA"/>
<path d="M345.294 287.971H311.341C308.732 287.971 306.57 285.846 306.57 283.2V282.082C306.57 279.436 308.732 277.312 311.341 277.312H345.294V287.971Z" fill="url(#paint7_linear_1207_10374)"/>
<path d="M356.818 286.815V287.971H318.58C315.635 287.971 313.25 285.585 313.25 282.641C313.25 279.697 315.635 277.312 318.58 277.312H356.818V278.467H355.663V286.815H356.818Z" fill="#FBD15B"/>
<path d="M318.573 286.815C316.262 286.815 314.398 284.951 314.398 282.641C314.398 280.33 316.262 278.466 318.573 278.466H355.656V286.815H318.573Z" fill="#F9FBFC"/>
<path d="M355.663 280.852H316.344V280.33H355.663V280.852Z" fill="#E1E7EA"/>
<path d="M355.653 282.231H315.625V281.709H355.653V282.231Z" fill="#E1E7EA"/>
<path d="M355.653 283.573H315.625V283.051H355.653V283.573Z" fill="#E1E7EA"/>
<path d="M355.663 284.914H316.344V284.393H355.663V284.914Z" fill="#E1E7EA"/>
<path d="M233.337 296.467V296.877C233.337 297.846 232.555 298.629 231.586 298.629H181.719C180.75 298.629 179.93 297.846 179.93 296.877V296.467C179.93 295.498 180.75 294.716 181.719 294.716H231.586C232.555 294.716 233.337 295.498 233.337 296.467Z" fill="#A5B7C6"/>
<path d="M316.9 244.812L300.166 298.629H229.727L245.939 246.526C246.572 244.439 248.51 243.023 250.672 243.023H315.596C316.528 243.023 317.161 243.917 316.9 244.812Z" fill="#A5B7C6"/>
<path d="M319.471 244.812L302.737 298.629H232.297L248.509 246.526C249.143 244.439 251.081 243.023 253.242 243.023H318.166C319.098 243.023 319.769 243.917 319.471 244.812Z" fill="#C3D3DD"/>
<path d="M273.293 253.384H253.875L254.583 250.999H274.001L273.293 253.384Z" fill="#A5B7C6"/>
<path d="M199.089 138.929C199.648 140.68 200.021 142.469 200.207 144.333C200.431 146.308 199.723 148.283 199.275 150.221C198.791 152.495 198.269 154.768 197.263 156.893C196.741 158.011 196.07 159.092 195.474 160.21C194.095 162.893 193.2 165.838 192.38 168.782C191.859 170.645 191.337 172.583 189.995 174C188.206 175.863 185.374 176.31 182.765 176.497C176.28 177.056 169.832 176.273 163.385 176.832C161.596 177.018 159.807 177.242 158.018 177.093C156.154 176.981 154.216 176.459 152.949 175.118C151.607 173.776 150.713 172.062 149.856 170.384C148.141 167.067 146.688 162.781 145.719 158.384C144.526 153.166 144.302 147.799 144.34 142.507C144.377 139.227 144.265 136.134 144.601 133.003C144.601 133.003 144.601 132.99 144.601 132.966C144.824 131.139 145.234 129.276 145.942 127.412C146.501 125.959 147.247 124.505 148.402 123.425C150.042 121.896 152.353 121.337 154.552 120.927C160.999 119.809 167.671 119.735 174.155 120.741C181.349 121.822 188.579 124.394 193.61 129.649C196.107 132.257 197.971 135.463 199.089 138.929Z" fill="#FFC8AF"/>
<path d="M159.136 186.597C160.366 185.926 161.112 185.367 161.261 184.882C162.006 181.751 161.633 176.832 161 172.471C163.348 175.9 186.604 171.763 192.381 166.657C191.375 171.465 189.921 180.149 191.114 184.882C191.337 185.777 193.648 186.895 197.189 188.348C193.164 191.442 183.846 197.889 176.169 197.889C168.528 197.889 159.211 191.442 155.148 188.348C156.751 187.677 158.093 187.118 159.136 186.597Z" fill="#FFC8AF"/>
<path d="M193.237 161.701C193.833 159.34 194.317 156.955 194.69 154.545C194.988 152.719 195.1 150.855 195.324 149.029C195.547 147.613 195.883 146.569 195.547 145.078C195.286 144.072 194.839 143.066 193.982 142.469C192.417 141.389 190.143 142.208 188.913 143.662C187.273 145.675 186.938 148.283 186.304 150.706C186.23 151.079 186.081 151.489 185.745 151.638C185.41 151.787 185 151.6 184.776 151.302C184.553 151.004 184.478 150.631 184.404 150.259C183.832 147.327 183.186 144.42 182.466 141.538C182.279 140.829 182.093 140.159 181.683 139.562C180.975 138.593 179.745 138.183 178.813 137.363C177.621 136.32 177.136 134.68 176.689 133.152C176.291 131.736 175.881 130.319 175.459 128.903C175.235 128.12 174.974 127.301 174.341 126.779C173.521 126.145 172.403 126.22 171.359 126.332C166.104 126.891 160.812 127.151 155.52 127.151C152.948 127.114 150.339 126.853 147.805 127.002C146.388 127.114 146.351 127.748 145.978 129.015C145.606 130.208 145.32 131.425 145.121 132.667C144.898 133.748 144.786 134.829 144.637 135.91C144.537 136.879 144.413 137.848 144.264 138.817C143.966 137.699 143.556 136.581 143.034 135.574C141.059 131.624 140.798 126.63 141.32 122.306C142.028 116.082 144.935 110.082 149.594 105.87C151.718 103.97 154.327 102.442 157.159 102.293C159.992 102.143 163.048 103.783 163.868 106.504C165.731 104.454 168.601 103.336 171.359 103.634C174.117 103.932 176.689 105.61 178.105 107.995C182.876 107.361 187.795 107.697 192.454 109.001C194.504 109.56 196.554 110.343 198.007 111.834C199.498 113.324 200.281 115.71 199.386 117.61C203.299 117.573 206.542 124.543 207.287 127.711C208.964 134.643 205.908 140.68 203.225 146.867C200.206 153.799 197.187 160.694 194.019 167.552C193.522 168.595 193.013 169.639 192.491 170.683C192.417 170.869 192.305 171.055 192.118 171.167C191.969 171.279 191.708 171.279 191.597 171.092C191.559 169.192 191.82 167.291 192.342 165.427C192.677 164.198 192.901 162.93 193.237 161.701Z" fill="url(#paint8_linear_1207_10374)"/>
<path d="M193.983 155.849C193.051 159.054 191.411 165.502 188.392 165.278C185.373 165.055 186.492 158.756 186.492 158.756C192.529 160.098 194.952 152.42 195.399 148.582C195.399 148.582 194.952 152.644 193.983 155.849Z" fill="#F4B298"/>
<path d="M190.071 146.532C190.369 146.159 190.668 145.786 191.115 145.563C191.599 145.302 192.196 145.302 192.755 145.414C193.165 145.488 193.575 145.637 193.761 145.973C193.91 146.234 193.91 146.532 193.91 146.793C193.835 149.215 193.016 151.601 191.599 153.576C191.376 153.874 191.189 154.135 190.928 154.321C190.63 154.508 190.332 154.582 189.997 154.657C189.4 154.731 188.767 154.657 188.282 154.247C187.835 153.874 187.649 153.129 187.984 152.644C188.282 152.197 188.841 152.048 189.214 151.712C189.549 151.377 189.699 150.855 189.587 150.371C189.475 149.961 189.177 149.625 188.99 149.253C188.506 148.209 189.512 147.277 190.071 146.532Z" fill="#F4B298"/>
<path d="M161.562 177.13C167.078 176.795 176.321 176.124 177.551 175.826C178.818 175.565 170.843 182.609 161.562 182.795V177.13Z" fill="#F4B298"/>
<path d="M181.046 107.138C182.462 106.989 185.705 106.952 187.419 107.995C189.133 109.039 192.488 112.356 194.761 119.884C197.035 127.45 193.904 141.352 193.904 141.352L188.91 140.979C192.637 121.375 186.599 112.356 178.102 107.995C178.102 107.995 179.667 107.25 181.046 107.138Z" fill="#002B45"/>
<path d="M200.094 150.743C199.237 156.669 195.547 161.03 191.82 160.508C191.224 160.409 190.677 160.21 190.18 159.912C187.422 158.309 185.894 153.799 186.602 148.842C187.273 143.848 190.031 139.972 193.087 139.19C193.683 139.041 194.267 139.003 194.839 139.078C198.566 139.637 200.914 144.855 200.094 150.743Z" fill="#002B45"/>
<path d="M190.175 159.912C190.672 160.21 191.219 160.409 191.815 160.508L188.387 160.024C184.66 159.502 182.312 154.284 183.169 148.358C183.989 142.432 187.716 138.072 191.443 138.594L194.834 139.078C194.263 139.004 193.679 139.041 193.083 139.19C190.026 139.973 187.268 143.849 186.598 148.843C185.889 153.8 187.418 158.309 190.175 159.912Z" fill="#002B45"/>
<path d="M198.901 150.594C198.38 154.246 196.069 156.93 193.758 156.594C193.609 156.569 193.46 156.544 193.311 156.52C191.261 155.849 190.068 152.793 190.553 149.401C191.037 146.01 193.05 143.401 195.174 143.326C195.323 143.326 195.485 143.339 195.659 143.363C197.97 143.699 199.386 146.941 198.901 150.594Z" fill="#336699"/>
<path d="M193.31 156.52C193.459 156.545 193.608 156.57 193.757 156.595L192.825 156.483C190.514 156.148 189.061 152.905 189.583 149.253C190.104 145.6 192.415 142.917 194.689 143.215L195.658 143.364C195.484 143.339 195.322 143.327 195.173 143.327C193.049 143.401 191.036 146.01 190.552 149.402C190.067 152.793 191.26 155.849 193.31 156.52Z" fill="#22557F"/>
<path d="M256.562 151.004C256.636 152.085 255.63 153.054 254.251 153.203C252.872 153.315 251.679 152.57 251.605 151.489C251.493 150.445 252.499 149.439 253.878 149.327C254.325 149.29 254.735 149.327 255.108 149.439V144.184L248.66 145.116V151.675C248.66 151.675 248.66 151.713 248.66 151.75C248.772 152.831 247.766 153.8 246.387 153.911C245.008 154.061 243.815 153.278 243.704 152.234C243.592 151.154 244.635 150.184 246.014 150.035C246.424 149.998 246.834 150.035 247.207 150.184V142.619L256.524 141.352H256.562V141.389V150.967V151.004Z" fill="#C3D3DD"/>
<path d="M102.52 207.021C102.669 208.4 101.327 209.63 99.5753 209.816C97.7863 210.002 96.2583 208.996 96.1092 207.617C95.9601 206.238 97.3018 204.971 99.0908 204.822C99.6498 204.747 100.172 204.822 100.656 204.971V198.15L92.345 199.38V207.878C92.345 207.878 92.345 207.915 92.345 207.952C92.4568 209.331 91.1523 210.599 89.3634 210.748C87.5744 210.934 86.0464 209.965 85.8973 208.549C85.7855 207.17 87.0899 205.903 88.8789 205.754C89.4379 205.679 89.9597 205.753 90.4442 205.903V196.101L102.52 194.498V194.535V206.946C102.52 206.946 102.52 206.983 102.52 207.021Z" fill="#C3D3DD"/>
<path d="M224.504 120.033C231.101 120.033 236.431 125.362 236.431 131.959C236.431 138.556 231.101 143.885 224.504 143.885C217.908 143.885 212.578 138.556 212.578 131.959C212.578 125.362 217.908 120.033 224.504 120.033Z" fill="url(#paint9_linear_1207_10374)"/>
<path d="M229.95 133.264L222.906 137.364C221.9 137.923 220.633 137.215 220.633 136.022V127.897C220.633 126.742 221.9 125.996 222.906 126.593L229.95 130.655C230.994 131.214 230.994 132.705 229.95 133.264Z" fill="#F9FBFC"/>
<path d="M269.299 101.249V102.479C269.374 99.0504 264.082 97.9323 264.082 96.2924V106.243C264.082 107.436 262.852 108.703 261.1 109.262C259.125 109.896 257.149 109.374 256.739 108.07C256.329 106.765 257.634 105.2 259.646 104.566C260.951 104.156 262.255 104.231 263.113 104.715V95.0625H264.082C264.082 96.6651 269.374 97.7832 269.299 101.249Z" fill="#E6EDEF"/>
<path d="M88.5802 272.802C88.5429 273.286 88.133 273.622 87.6857 273.547C87.2385 273.51 86.9031 273.1 86.9403 272.653L89.102 250.477C89.1392 250.179 89.3629 249.881 89.661 249.769L100.395 246.191C100.842 246.042 101.326 246.266 101.476 246.713C101.587 247.16 101.364 247.607 100.916 247.756L90.7046 251.185L88.5802 272.802Z" fill="#F9FBFC"/>
<path d="M103.077 263.037L102.928 264.788L100.17 298.629H78.032L75.2741 264.788L75.125 263.037H103.077Z" fill="url(#paint10_linear_1207_10374)"/>
<g style="mix-blend-mode:multiply">
<path d="M102.928 264.788H75.2741L75.125 263.037H103.077L102.928 264.788Z" fill="#D1D3D4"/>
</g>
<path d="M104.425 261.36V262.068C104.425 262.59 104.015 263.037 103.456 263.037H74.7581C74.199 263.037 73.7891 262.59 73.7891 262.068V261.36C73.7891 260.801 74.199 260.391 74.7581 260.391H103.456C104.015 260.391 104.425 260.801 104.425 261.36Z" fill="#F9FBFC"/>
<path d="M99.097 259.124L99.8424 260.391H78.375L79.1204 259.124C79.2695 258.863 79.5303 258.714 79.8285 258.714H98.3888C98.687 258.714 98.9479 258.863 99.097 259.124Z" fill="#F9FBFC"/>
<g style="mix-blend-mode:screen">
<path fill-rule="evenodd" clip-rule="evenodd" d="M94.732 278.019C94.732 278.317 94.5084 278.578 94.2102 278.578H93.9121V281.784C93.9121 282.38 93.763 282.939 93.5394 283.461C93.2785 283.982 92.9058 284.43 92.4958 284.802C91.7132 285.473 90.7442 285.883 89.6261 285.995V288.977H91.9368C92.2349 288.977 92.4958 289.237 92.4958 289.536C92.4958 289.834 92.2349 290.057 91.9368 290.057H86.2718C85.9736 290.057 85.7127 289.834 85.7127 289.536C85.7127 289.237 85.9736 288.977 86.2718 288.977H88.5825V285.995C87.7998 285.92 87.0545 285.697 86.4581 285.324C85.6755 284.877 85.0419 284.243 84.6692 283.461C84.4456 282.939 84.2965 282.38 84.2965 281.784V278.578H83.9983C83.7002 278.578 83.4766 278.317 83.4766 278.019C83.4766 277.758 83.7002 277.497 83.9983 277.497H85.7127V275C85.7127 274.069 86.0854 273.211 86.719 272.578C87.3153 271.982 88.1725 271.609 89.1043 271.609C90.036 271.609 90.8932 271.982 91.4896 272.578C92.1231 273.211 92.4958 274.069 92.4958 275V277.497H94.2102C94.5084 277.497 94.732 277.758 94.732 278.019ZM86.7936 277.497H91.415V275C91.415 274.367 91.1541 273.771 90.7442 273.361C90.3342 272.951 89.7379 272.69 89.1043 272.69C88.4707 272.69 87.8744 272.951 87.4644 273.361C87.0544 273.771 86.7936 274.367 86.7936 275V277.497ZM92.8313 278.541H92.4958V280.814C92.4958 281.746 92.1231 282.603 91.4896 283.2C90.8932 283.796 90.036 284.206 89.1043 284.206C88.1725 284.206 87.3153 283.796 86.719 283.2C86.0854 282.603 85.7127 281.746 85.7127 280.814V278.541H85.3773V281.746C85.3773 282.193 85.4643 282.603 85.6382 282.976C85.8246 283.349 86.0854 283.684 86.4209 283.982C87.0917 284.579 88.0607 284.951 89.1043 284.951C89.8869 284.951 90.6323 284.728 91.2287 284.392C91.825 284.02 92.2722 283.535 92.5704 282.976C92.7443 282.603 92.8313 282.193 92.8313 281.746V278.541ZM86.7936 280.777C86.7936 281.448 87.0544 282.007 87.4644 282.417C87.8744 282.827 88.4707 283.088 89.1043 283.088C89.7379 283.088 90.3342 282.827 90.7442 282.417C91.1541 282.007 91.415 281.448 91.415 280.777V278.541H86.7936V280.777ZM88.3961 280.554C88.3961 280.181 88.6943 279.845 89.1043 279.845C89.477 279.845 89.8124 280.181 89.8124 280.554C89.8124 280.964 89.477 281.262 89.1043 281.262C88.6943 281.262 88.3961 280.964 88.3961 280.554Z" fill="#F0F6FF"/>
</g>
<path d="M321.707 250.812C323.719 250.104 326.328 252.303 327.521 255.732C328.713 259.161 328.042 262.478 326.03 263.186C324.017 263.894 321.408 261.695 320.216 258.266C319.023 254.837 319.694 251.52 321.707 250.812Z" fill="#34B2A3"/>
<path d="M338.255 251.483C339.895 252.005 340.342 255.21 339.261 258.676C338.181 262.105 335.982 264.49 334.342 263.969C332.665 263.484 332.217 260.242 333.298 256.813C334.379 253.347 336.615 250.961 338.255 251.483Z" fill="#34B2A3"/>
<path d="M333.816 248.39C335.158 248.502 336.015 251.521 335.717 255.136C335.419 258.751 334.114 261.583 332.773 261.472C331.431 261.36 330.574 258.341 330.872 254.726C331.17 251.148 332.512 248.278 333.816 248.39Z" fill="#349F96"/>
<path d="M329.685 251.67C333.897 251.67 337.363 255.099 337.363 259.347C337.363 263.559 333.897 267.025 329.685 267.025C325.437 267.025 322.008 263.559 322.008 259.347C322.008 255.099 325.437 251.67 329.685 251.67Z" fill="#3EBFB4"/>
<path d="M328.714 256.254C328.714 256.664 329.05 256.999 329.497 256.999C329.05 256.999 328.714 257.335 328.714 257.782C328.714 257.335 328.379 256.999 327.969 256.999C328.379 256.999 328.714 256.664 328.714 256.254Z" fill="#4BE2CF"/>
<path d="M326.955 253.645C326.955 254.092 327.29 254.428 327.7 254.428C327.29 254.428 326.955 254.763 326.955 255.173C326.955 254.763 326.582 254.428 326.172 254.428C326.582 254.428 326.955 254.092 326.955 253.645Z" fill="#4BE2CF"/>
<path d="M334.08 254.95C334.08 255.36 334.415 255.695 334.825 255.695C334.415 255.695 334.08 256.031 334.08 256.478C334.08 256.031 333.707 255.695 333.297 255.695C333.707 255.695 334.08 255.36 334.08 254.95Z" fill="#4BE2CF"/>
<path d="M339.15 252.899C339.15 253.309 339.485 253.645 339.895 253.645C339.485 253.645 339.15 253.98 339.15 254.427C339.15 253.98 338.814 253.645 338.367 253.645C338.814 253.645 339.15 253.309 339.15 252.899Z" fill="#4BE2CF"/>
<path d="M323.863 256.03C323.863 256.478 324.198 256.813 324.608 256.813C324.198 256.813 323.863 257.148 323.863 257.558C323.863 257.148 323.527 256.813 323.117 256.813C323.527 256.813 323.863 256.478 323.863 256.03Z" fill="#4BE2CF"/>
<path d="M320.48 256.478C320.48 256.888 320.852 257.223 321.262 257.223C320.852 257.223 320.48 257.558 320.48 257.968C320.48 257.558 320.144 257.223 319.734 257.223C320.144 257.223 320.48 256.888 320.48 256.478Z" fill="#4BE2CF"/>
<path d="M320.48 252.005C320.48 252.452 320.852 252.788 321.262 252.788C320.852 252.788 320.48 253.123 320.48 253.533C320.48 253.123 320.144 252.788 319.734 252.788C320.144 252.788 320.48 252.452 320.48 252.005Z" fill="#4BE2CF"/>
<path d="M337.955 255.918C337.955 256.328 338.29 256.701 338.7 256.701C338.29 256.701 337.955 257.037 337.955 257.447C337.955 257.037 337.619 256.701 337.172 256.701C337.619 256.701 337.955 256.328 337.955 255.918Z" fill="#4BE2CF"/>
<path d="M336.798 256.515C336.798 256.925 337.134 257.26 337.544 257.26C337.134 257.26 336.798 257.633 336.798 258.043C336.798 257.633 336.463 257.26 336.016 257.26C336.463 257.26 336.798 256.925 336.798 256.515Z" fill="#4BE2CF"/>
<path d="M334.488 256.216C334.488 256.626 334.823 256.999 335.27 256.999C334.823 256.999 334.488 257.334 334.488 257.744C334.488 257.334 334.152 256.999 333.742 256.999C334.152 256.999 334.488 256.626 334.488 256.216Z" fill="#34B2A3"/>
<path d="M324.759 256.999C324.759 257.409 325.095 257.782 325.505 257.782C325.095 257.782 324.759 258.117 324.759 258.527C324.759 258.117 324.424 257.782 323.977 257.782C324.424 257.782 324.759 257.409 324.759 256.999Z" fill="#4BE2CF"/>
<path d="M330.761 252.602C330.761 253.012 331.096 253.347 331.544 253.347C331.096 253.347 330.761 253.72 330.761 254.13C330.761 253.72 330.426 253.347 330.016 253.347C330.426 253.347 330.761 253.012 330.761 252.602Z" fill="#4BE2CF"/>
<path d="M332.548 254.39C332.548 254.8 332.884 255.136 333.294 255.136C332.884 255.136 332.548 255.471 332.548 255.881C332.548 255.471 332.213 255.136 331.766 255.136C332.213 255.136 332.548 254.8 332.548 254.39Z" fill="#34B2A3"/>
<path d="M332.292 256.999C332.292 257.409 332.628 257.782 333.038 257.782C332.628 257.782 332.292 258.117 332.292 258.527C332.292 258.117 331.957 257.782 331.547 257.782C331.957 257.782 332.292 257.409 332.292 256.999Z" fill="#4BE2CF"/>
<path d="M340.234 259.496V274.143C340.234 275.895 338.817 277.311 337.066 277.311H322.269C320.518 277.311 319.102 275.895 319.102 274.143V259.496H340.234Z" fill="#C3D3DD"/>
<path fill-rule="evenodd" clip-rule="evenodd" d="M237.4 169.266V180.894C237.4 182.199 236.319 183.28 234.978 183.28H214.032C212.69 183.28 211.609 182.199 211.609 180.894V169.266C211.609 167.925 212.69 166.844 214.032 166.844H219.734L219.958 165.912C220.032 165.465 220.442 165.129 220.927 165.129H228.157C228.642 165.129 229.014 165.465 229.126 165.912L229.312 166.844H234.978C236.319 166.844 237.4 167.925 237.4 169.266ZM235.425 169.266C235.425 169.005 235.238 168.819 234.978 168.819H228.53C228.083 168.819 227.673 168.484 227.561 168.036L227.374 167.105H221.71L221.486 168.036C221.411 168.484 221.001 168.819 220.554 168.819H214.032C213.771 168.819 213.585 169.005 213.585 169.266V180.894C213.585 181.118 213.771 181.342 214.032 181.342H234.978C235.238 181.342 235.425 181.118 235.425 180.894V169.266ZM218.467 171.577H215.709C215.15 171.577 214.74 171.13 214.74 170.608C214.74 170.049 215.15 169.602 215.709 169.602H218.467C218.989 169.602 219.436 170.049 219.436 170.608C219.436 171.13 218.989 171.577 218.467 171.577ZM231.884 179.516C231.884 180.075 231.437 180.485 230.915 180.485H230.542C230.021 180.485 229.573 180.075 229.573 179.516C229.573 178.994 230.021 178.546 230.542 178.546H230.915C231.437 178.546 231.884 178.994 231.884 179.516ZM229.946 175.043C229.946 178.062 227.524 180.485 224.505 180.485C221.486 180.485 219.063 178.062 219.063 175.043C219.063 172.062 221.486 169.602 224.505 169.602C227.524 169.602 229.946 172.062 229.946 175.043ZM227.971 175.043C227.971 174.074 227.598 173.217 226.965 172.583C226.331 171.95 225.474 171.577 224.505 171.577C223.536 171.577 222.678 171.95 222.045 172.583C221.411 173.217 221.001 174.074 221.001 175.043C221.001 176.012 221.411 176.869 222.045 177.503C222.678 178.137 223.536 178.546 224.505 178.546C225.474 178.546 226.331 178.137 226.965 177.503C227.598 176.869 227.971 176.012 227.971 175.043Z" fill="#C3D3DD"/>
<path fill-rule="evenodd" clip-rule="evenodd" d="M373.995 224.575C373.995 230.911 368.852 236.054 362.479 236.054C356.143 236.054 351 230.911 351 224.575C351 218.202 356.143 213.059 362.479 213.059C368.852 213.059 373.995 218.202 373.995 224.575ZM371.908 224.575C371.908 221.966 370.865 219.618 369.15 217.904C367.436 216.189 365.088 215.146 362.479 215.146C359.87 215.146 357.522 216.189 355.808 217.904C354.093 219.618 353.05 221.966 353.05 224.575C353.05 227.184 354.093 229.532 355.808 231.246C357.522 232.923 359.87 234.004 362.479 234.004C365.088 234.004 367.436 232.923 369.15 231.246C370.865 229.532 371.908 227.184 371.908 224.575ZM363.97 217.307V224.91C363.97 225.171 363.895 225.432 363.709 225.618L360.243 229.308C359.833 229.718 359.199 229.718 358.789 229.345C358.379 228.936 358.342 228.302 358.752 227.892L361.92 224.5V217.307C361.92 216.748 362.405 216.264 362.964 216.264C363.523 216.264 363.97 216.748 363.97 217.307Z" fill="#E6EDEF"/>
<path fill-rule="evenodd" clip-rule="evenodd" d="M306.124 185.255V208.959C306.124 209.257 306.012 209.555 305.788 209.741C305.602 209.965 305.304 210.077 305.005 210.077H286.259C285.961 210.077 285.662 209.965 285.476 209.741C285.252 209.555 285.141 209.257 285.141 208.959V185.255C285.141 184.994 285.252 184.696 285.476 184.472C285.662 184.286 285.961 184.174 286.259 184.174H305.005C305.304 184.174 305.602 184.286 305.788 184.472C306.012 184.696 306.124 184.994 306.124 185.255ZM303.887 207.841V186.373H287.377V207.841H303.887ZM301.651 197.144C301.651 197.74 301.129 198.262 300.533 198.262H290.694C290.098 198.262 289.576 197.74 289.576 197.144C289.576 196.511 290.098 196.026 290.694 196.026H300.533C301.129 196.026 301.651 196.511 301.651 197.144ZM297.179 201.02C297.179 201.617 296.657 202.138 296.061 202.138H290.694C290.098 202.138 289.576 201.617 289.576 201.02C289.576 200.387 290.098 199.902 290.694 199.902H296.061C296.657 199.902 297.179 200.387 297.179 201.02ZM301.651 193.268C301.651 193.864 301.129 194.386 300.533 194.386H290.694C290.098 194.386 289.576 193.864 289.576 193.268C289.576 192.635 290.098 192.15 290.694 192.15H300.533C301.129 192.15 301.651 192.635 301.651 193.268ZM301.651 189.392C301.651 190.026 301.129 190.51 300.533 190.51H290.694C290.098 190.51 289.576 190.026 289.576 189.392C289.576 188.796 290.098 188.274 290.694 188.274H300.533C301.129 188.274 301.651 188.796 301.651 189.392Z" fill="#C3D3DD"/>
<path fill-rule="evenodd" clip-rule="evenodd" d="M324.88 163.676C327.041 165.8 327.302 169.117 325.662 171.577L329.65 175.565C329.836 175.714 329.836 176.012 329.65 176.161L328.532 177.28C328.383 177.466 328.085 177.466 327.936 177.28L323.911 173.292C321.339 175.006 317.724 174.596 315.599 172.062C313.773 169.788 313.736 166.471 315.562 164.198C317.91 161.216 322.271 161.067 324.88 163.676ZM323.165 165.39C321.674 163.9 319.252 163.9 317.761 165.39C316.27 166.881 316.27 169.304 317.761 170.795C319.252 172.248 321.674 172.248 323.165 170.795C324.619 169.304 324.619 166.881 323.165 165.39Z" fill="#C3D3DD"/>
<path fill-rule="evenodd" clip-rule="evenodd" d="M321.748 222.338V236.165C321.748 236.426 321.636 236.724 321.45 236.911C321.226 237.134 320.965 237.246 320.667 237.246H298.753C298.455 237.246 298.156 237.134 297.97 236.911C297.784 236.724 297.672 236.426 297.672 236.165V222.338C297.672 222.313 297.672 222.301 297.672 222.301C297.672 222.251 297.672 222.214 297.672 222.189C297.672 222.139 297.672 222.102 297.672 222.077C297.697 222.052 297.709 222.015 297.709 221.965C297.734 221.941 297.746 221.916 297.746 221.891C297.771 221.841 297.796 221.804 297.821 221.779C297.821 221.754 297.833 221.729 297.858 221.705C297.883 221.68 297.895 221.667 297.895 221.667C297.895 221.642 297.908 221.618 297.933 221.593C297.958 221.593 297.97 221.58 297.97 221.555C297.995 221.555 298.007 221.543 298.007 221.518C298.032 221.493 298.057 221.469 298.082 221.444C298.107 221.444 298.144 221.431 298.194 221.406C298.219 221.382 298.243 221.369 298.268 221.369C298.293 221.344 298.33 221.332 298.38 221.332C298.405 221.307 298.442 221.295 298.492 221.295C298.517 221.27 298.542 221.257 298.566 221.257C298.616 221.257 298.653 221.257 298.678 221.257C298.703 221.257 298.728 221.257 298.753 221.257H320.667C320.692 221.257 320.717 221.257 320.742 221.257C320.767 221.257 320.804 221.257 320.854 221.257C320.879 221.257 320.903 221.27 320.928 221.295C320.978 221.295 321.015 221.307 321.04 221.332C321.065 221.332 321.09 221.344 321.115 221.369C321.164 221.369 321.202 221.382 321.226 221.406C321.251 221.431 321.276 221.444 321.301 221.444C321.326 221.469 321.363 221.493 321.413 221.518C321.413 221.543 321.425 221.555 321.45 221.555C321.45 221.58 321.462 221.593 321.487 221.593C321.487 221.618 321.5 221.642 321.524 221.667C321.524 221.667 321.524 221.68 321.524 221.705C321.549 221.729 321.574 221.754 321.599 221.779C321.624 221.804 321.636 221.841 321.636 221.891C321.661 221.916 321.674 221.941 321.674 221.965C321.698 222.015 321.711 222.052 321.711 222.077C321.711 222.102 321.723 222.139 321.748 222.189C321.748 222.214 321.748 222.251 321.748 222.301C321.748 222.301 321.748 222.313 321.748 222.338ZM301.809 223.419L309.71 229.68L317.574 223.419H301.809ZM319.586 224.574L310.381 231.916C309.971 232.215 309.412 232.215 309.039 231.916L299.796 224.574V235.084H319.586V224.574Z" fill="white"/>
<path d="M334.008 186.895H361.438V189.392H334.008" fill="#E6EDEF"/>
<path d="M334.008 192.374H361.438V194.833H334.008" fill="#E6EDEF"/>
<path d="M321.672 190.771L323.498 189.094L324.877 190.584L328.492 186.298L330.393 187.901L324.952 194.386L321.672 190.771Z" fill="#E6EDEF"/>
<path d="M334.008 197.815H361.438V200.312H334.008" fill="#E6EDEF"/>
<path d="M334.008 203.256H350.369V205.753H334.008" fill="#E6EDEF"/>
<path fill-rule="evenodd" clip-rule="evenodd" d="M232.368 96.0314V104.976C232.368 107.734 230.095 109.97 227.337 109.97H227.113V110.79C227.113 111.908 226.442 112.915 225.399 113.362C225.051 113.486 224.703 113.548 224.355 113.548C223.61 113.548 222.902 113.287 222.38 112.728L219.622 109.97H209.447C206.689 109.97 204.453 107.734 204.453 104.976V96.0314C204.453 93.2735 206.689 91 209.447 91H227.337C230.095 91 232.368 93.2735 232.368 96.0314ZM209.447 93.7952C208.217 93.7952 207.211 94.8015 207.211 96.0314V104.976C207.211 106.206 208.217 107.212 209.447 107.212H220.777L224.355 110.79V107.212H227.337C228.567 107.212 229.573 106.206 229.573 104.976V96.0314C229.573 94.8015 228.567 93.7952 227.337 93.7952H209.447Z" fill="#E6EDEF"/>
<path d="M187.383 117.163C186.787 117.387 186.116 116.716 185.483 115.598C184.886 114.517 181.979 110.865 179.594 109.597C177.246 108.33 177.246 107.622 177.432 107.063C177.656 106.467 178.029 105.945 184.029 106.43C190.067 106.877 193.458 113.399 193.607 114.219C193.794 115.076 193.197 115.672 193.197 115.672L192.899 115.002C191.93 114.219 187.048 115.784 187.048 116.53L187.383 117.163Z" fill="#336699"/>
<path d="M267.739 235.495C267.739 236.539 266.882 237.396 265.838 237.396C264.795 237.396 263.938 236.539 263.938 235.495C263.938 234.451 264.795 233.594 265.838 233.594C266.882 233.594 267.739 234.451 267.739 235.495Z" fill="white"/>
<path d="M326.661 140.345C326.661 141.389 325.804 142.246 324.76 142.246C323.717 142.246 322.859 141.389 322.859 140.345C322.859 139.302 323.717 138.444 324.76 138.444C325.804 138.444 326.661 139.302 326.661 140.345Z" fill="#E6EDEF"/>
<path d="M276.387 197.815C276.387 199.716 274.859 201.281 272.958 201.281C271.058 201.281 269.492 199.716 269.492 197.815C269.492 195.914 271.058 194.386 272.958 194.386C274.859 194.386 276.387 195.914 276.387 197.815Z" fill="white"/>
<path d="M288.569 109.523C288.569 111.423 287.04 112.951 285.14 112.951C283.239 112.951 281.711 111.423 281.711 109.523C281.711 107.622 283.239 106.094 285.14 106.094C287.04 106.094 288.569 107.622 288.569 109.523Z" fill="#E6EDEF"/>
<path d="M73.8246 224.574C73.8246 226.475 72.2593 228.003 70.3585 228.003C68.4578 228.003 66.9297 226.475 66.9297 224.574C66.9297 222.674 68.4578 221.108 70.3585 221.108C72.2593 221.108 73.8246 222.674 73.8246 224.574Z" fill="#E6EDEF"/>
<path d="M117.317 194.833C117.317 195.914 116.497 196.734 115.416 196.734C114.373 196.734 113.516 195.914 113.516 194.833C113.516 193.79 114.373 192.933 115.416 192.933C116.497 192.933 117.317 193.79 117.317 194.833Z" fill="white"/>
<path d="M375 308.543H25V298.629H375V308.543Z" fill="#DCE8EF"/>
<path fill-rule="evenodd" clip-rule="evenodd" d="M291.736 150.446C291.736 151.079 291.214 151.564 290.581 151.564H289.947V158.384C289.947 159.651 289.649 160.844 289.127 161.962C288.605 163.043 287.823 164.012 286.891 164.832C285.288 166.248 283.201 167.142 280.853 167.366V173.702H285.773C286.406 173.702 286.928 174.224 286.928 174.857C286.928 175.491 286.406 176.013 285.773 176.013H273.66C273.027 176.013 272.542 175.491 272.542 174.857C272.542 174.224 273.027 173.702 273.66 173.702H278.58V167.366C276.94 167.217 275.375 166.695 274.07 165.912C272.43 164.981 271.126 163.602 270.306 161.962C269.784 160.844 269.486 159.651 269.486 158.384V151.564H268.852C268.219 151.564 267.734 151.079 267.734 150.446C267.734 149.812 268.219 149.29 268.852 149.29H272.542V143.961C272.542 141.985 273.325 140.159 274.629 138.855C275.934 137.55 277.76 136.768 279.735 136.768C281.711 136.768 283.499 137.55 284.804 138.855C286.108 140.159 286.928 141.985 286.928 143.961V149.29H290.581C291.214 149.29 291.736 149.812 291.736 150.446ZM274.816 149.29H284.655V143.961C284.655 142.582 284.096 141.389 283.201 140.495C282.307 139.6 281.077 139.041 279.735 139.041C278.356 139.041 277.126 139.6 276.232 140.495C275.375 141.389 274.816 142.582 274.816 143.961V149.29ZM287.674 151.564H286.928V156.334C286.928 158.309 286.108 160.136 284.804 161.44C283.499 162.745 281.711 163.527 279.735 163.527C277.76 163.527 275.934 162.745 274.629 161.44C273.325 160.136 272.542 158.309 272.542 156.334V151.564H271.759V158.347C271.759 159.278 271.983 160.136 272.356 160.956C272.766 161.738 273.325 162.484 274.033 163.117C275.486 164.347 277.499 165.13 279.735 165.13C281.412 165.13 282.94 164.683 284.245 163.937C285.512 163.192 286.481 162.148 287.077 160.956C287.487 160.136 287.674 159.278 287.674 158.347V151.564ZM274.816 156.334C274.816 157.713 275.375 158.943 276.232 159.838C277.126 160.695 278.356 161.254 279.735 161.254C281.077 161.254 282.307 160.695 283.201 159.838C284.096 158.943 284.655 157.713 284.655 156.334V151.564H274.816V156.334ZM278.207 155.887C278.207 155.067 278.878 154.396 279.735 154.396C280.555 154.396 281.226 155.067 281.226 155.887C281.226 156.707 280.555 157.378 279.735 157.378C278.878 157.378 278.207 156.707 278.207 155.887Z" fill="white"/>
<g style="mix-blend-mode:screen">
<path fill-rule="evenodd" clip-rule="evenodd" d="M212.581 233.93C212.581 234.302 212.283 234.6 211.91 234.6H211.575V238.551C211.575 239.296 211.389 240.004 211.091 240.638C210.792 241.272 210.345 241.831 209.786 242.278C208.854 243.098 207.624 243.62 206.283 243.769V247.458H209.152C209.488 247.458 209.786 247.719 209.786 248.092C209.786 248.465 209.488 248.763 209.152 248.763H202.109C201.736 248.763 201.438 248.465 201.438 248.092C201.438 247.719 201.736 247.458 202.109 247.458H204.978V243.769C204.009 243.657 203.115 243.396 202.332 242.912C201.4 242.352 200.618 241.57 200.17 240.638C199.872 240.004 199.686 239.296 199.686 238.551V234.6H199.351C198.978 234.6 198.68 234.302 198.68 233.93C198.68 233.594 198.978 233.296 199.351 233.296H201.438V230.203C201.438 229.047 201.922 228.004 202.668 227.221C203.413 226.476 204.494 226.028 205.612 226.028C206.767 226.028 207.811 226.476 208.593 227.221C209.339 228.004 209.786 229.047 209.786 230.203V233.296H211.91C212.283 233.296 212.581 233.594 212.581 233.93ZM202.779 233.296H208.482V230.203C208.482 229.383 208.146 228.674 207.624 228.19C207.14 227.668 206.432 227.333 205.612 227.333C204.829 227.333 204.121 227.668 203.599 228.19C203.115 228.674 202.779 229.383 202.779 230.203V233.296ZM210.233 234.6H209.786V237.358C209.786 238.514 209.339 239.557 208.593 240.303C207.811 241.085 206.767 241.533 205.612 241.533C204.494 241.533 203.413 241.085 202.668 240.303C201.922 239.557 201.438 238.514 201.438 237.358V234.6H201.028V238.551C201.028 239.073 201.139 239.57 201.363 240.042C201.587 240.489 201.922 240.936 202.332 241.309C203.152 242.017 204.345 242.464 205.612 242.464C206.618 242.464 207.513 242.203 208.258 241.793C208.966 241.346 209.562 240.75 209.898 240.042C210.121 239.57 210.233 239.073 210.233 238.551V234.6ZM202.779 237.358C202.779 238.141 203.115 238.849 203.599 239.371C204.121 239.893 204.829 240.191 205.612 240.191C206.432 240.191 207.14 239.893 207.624 239.371C208.146 238.849 208.482 238.141 208.482 237.358V234.6H202.779V237.358ZM204.755 237.097C204.755 236.613 205.127 236.203 205.612 236.203C206.096 236.203 206.506 236.613 206.506 237.097C206.506 237.582 206.096 237.955 205.612 237.955C205.127 237.955 204.755 237.582 204.755 237.097Z" fill="#11477C"/>
</g>
<defs>
<linearGradient id="paint0_linear_1207_10374" x1="152916" y1="44745.7" x2="174098" y2="97155.3" gradientUnits="userSpaceOnUse">
<stop stop-color="#7E75B6"/>
<stop offset="1" stop-color="#3656A5"/>
</linearGradient>
<linearGradient id="paint1_linear_1207_10374" x1="176.186" y1="189.578" x2="176.186" y2="301.164" gradientUnits="userSpaceOnUse">
<stop stop-color="#FFC71E"/>
<stop offset="1" stop-color="#FFC000"/>
</linearGradient>
<linearGradient id="paint2_linear_1207_10374" x1="226" y1="253.328" x2="256.673" y2="253.328" gradientUnits="userSpaceOnUse">
<stop offset="0.333333" stop-color="#FF8534"/>
<stop offset="1" stop-color="#FF630C"/>
</linearGradient>
<linearGradient id="paint3_linear_1207_10374" x1="151.977" y1="194.498" x2="200.353" y2="194.498" gradientUnits="userSpaceOnUse">
<stop offset="0.333333" stop-color="#FF8534"/>
<stop offset="1" stop-color="#FF630C"/>
</linearGradient>
<linearGradient id="paint4_linear_1207_10374" x1="95.6641" y1="253.31" x2="125.964" y2="253.31" gradientUnits="userSpaceOnUse">
<stop offset="0.333333" stop-color="#FF8534"/>
<stop offset="1" stop-color="#FF630C"/>
</linearGradient>
<linearGradient id="paint5_linear_1207_10374" x1="5111.13" y1="3599.33" x2="5242.86" y2="3599.33" gradientUnits="userSpaceOnUse">
<stop stop-color="#F16D7F"/>
<stop offset="1" stop-color="#E21F7F"/>
</linearGradient>
<linearGradient id="paint6_linear_1207_10374" x1="1528.47" y1="10913.9" x2="1528.47" y2="12332.7" gradientUnits="userSpaceOnUse">
<stop stop-color="#F16D7F"/>
<stop offset="1" stop-color="#E21F7F"/>
</linearGradient>
<linearGradient id="paint7_linear_1207_10374" x1="52172.5" y1="8513.62" x2="52172.5" y2="8818.47" gradientUnits="userSpaceOnUse">
<stop stop-color="#F9CE61"/>
<stop offset="1" stop-color="#F17162"/>
</linearGradient>
<linearGradient id="paint8_linear_1207_10374" x1="141.086" y1="136.763" x2="207.766" y2="136.763" gradientUnits="userSpaceOnUse">
<stop offset="0.390625" stop-color="#3D8BFD"/>
<stop offset="1" stop-color="#1273FF"/>
</linearGradient>
<linearGradient id="paint9_linear_1207_10374" x1="212.578" y1="131.959" x2="236.431" y2="131.959" gradientUnits="userSpaceOnUse">
<stop offset="0.333333" stop-color="#FF8534"/>
<stop offset="1" stop-color="#FF630C"/>
</linearGradient>
<linearGradient id="paint10_linear_1207_10374" x1="75.125" y1="280.833" x2="103.077" y2="280.833" gradientUnits="userSpaceOnUse">
<stop offset="0.390625" stop-color="#3D8BFD"/>
<stop offset="1" stop-color="#1273FF"/>
</linearGradient>
</defs>
</svg>
