<?xml version="1.0" encoding="utf-8"?>
<!-- Generator: Adobe Illustrator 24.2.0, SVG Export Plug-In . SVG Version: 6.00 Build 0)  -->
<svg version="1.1" id="Layer_1" xmlns="http://www.w3.org/2000/svg" xmlns:xlink="http://www.w3.org/1999/xlink" x="0px" y="0px"
	 viewBox="0 0 500 500" style="enable-background:new 0 0 500 500;" xml:space="preserve">
<style type="text/css">
	.st0{fill:#456287;}
	.st1{fill:#2196F3;}
	.st2{fill:#1C79D0;}
</style>
<g>
	<path class="st2" d="M449.9,220.6c0-6-3.4-9.3-9.2-9.9c-5.4-0.6-10.8-0.8-16.2-1.3c-8.8-0.7-17.6-1.3-26.4-2
		c-3.7-8.5-7.1-17.2-11.3-25.4c-3-5.9-1.7-9.8,2.9-14.2c7.5-7.3,14.7-14.9,21.6-22.8c5.6-6.4,5.4-11.3-0.6-17.4
		c-12.2-12.5-24.5-24.9-37-37.1c-7.8-7.6-11.8-7.7-19.9-0.5c-8.1,7.2-16,14.7-23.8,22.3c-2.8,2.7-5.4,3.8-9.3,2
		c-7.8-3.5-15.7-6.8-23.6-9.7c-4.9-1.8-6-5.1-6.1-9.9c-0.2-10.5-0.7-20.9-1.4-31.4c-0.7-10.8-2.8-13.1-13.3-13.3
		c-17.4-0.2-34.9-0.2-52.3,0c-10.4,0.1-12.9,2.7-13.4,13.2c-0.6,10.8-1.2,21.7-1.4,32.6c-0.1,4.5-1.7,7.1-6,8.7
		c-7.3,2.7-14.6,5.4-21.4,8.9c-5.6,2.8-9.2,1.3-13.2-2.7c-7.4-7.4-15.1-14.5-23-21.4c-6.9-6.1-11.6-6-18.2,0.4
		c-12.5,12.2-24.8,24.5-37,37c-7.1,7.3-7.3,11.5-0.6,19.1c6.9,7.8,14.1,15.5,21.6,22.8c3.8,3.8,5,7.2,2.6,12.3
		c-3.2,6.6-5.9,13.5-8.4,20.4c-2,5.5-5,7.8-11.1,7.7c-10.8-0.1-21.7,0.6-32.5,1.4c-9,0.7-11.5,3.2-11.7,12.4
		c-0.3,18.2-0.3,36.5,0,54.7c0.1,8,3.3,11,11.3,11.8c4.2,0.4,8.5,0.2,12.8,0.4c8.9,0.5,17.7,1,26.6,1.6c4,8.3,8.2,16.5,11.9,24.9
		c3.9,9,3.1,10.4-3.6,17.1c-7.1,7-14,14.4-20.3,22.1c-6.5,8-6.2,10.5,1,17.8c12.3,12.4,24.7,24.5,37.3,36.6c7.3,7,12.6,6.9,20.1-0.1
		c7.6-7.1,15.1-14.4,22.2-22c3.6-3.9,7.2-4,11.4-2.2c7,3.1,13.9,6.6,21,9.8c3.8,1.7,6.3,3.8,6.5,8.5c0.3,8,0.8,27.2,0.9,28.8
		c1.2,14.6,4.1,17.3,18.7,17.4c15.9,0,31.8,0.2,47.7-0.1c10.1-0.1,13.1-3.1,13.7-13.1c0.7-10.1,1.6-20.2,1.3-30.2
		c-0.2-7.1,2.6-10.6,9-12.6c6.2-2,12.5-4.1,18.5-6.8c8.2-3.6,8.2-3.7,14.3,2.7c6.1,6.4,12.4,12.8,18.9,18.8
		c9.3,8.7,13.5,8.7,22.6-0.1c11.4-11,22.3-22.5,33.8-33.4c9-8.5,9.6-13.1,1.3-22.5c-6.6-7.5-13.6-14.8-20.7-21.8
		c-3.8-3.8-4.7-7.3-2.2-12.3c3.1-6.2,5.9-12.7,7.9-19.4c2.1-6.7,6-9,12.9-8.9c10.5,0.2,20.9-0.2,31.4-0.9
		c7.8-0.5,11.1-3.4,11.2-10.5C450.1,259.4,450,240,449.9,220.6z M248.3,326c-43.3,0-78.3-35.1-78.3-78.5s35.1-78.5,78.3-78.5
		s78.3,35.1,78.3,78.5S291.6,326,248.3,326z"/>
</g>
</svg>
