<?xml version="1.0" encoding="utf-8"?>
<!-- Generator: Adobe Illustrator 24.2.0, SVG Export Plug-In . SVG Version: 6.00 Build 0)  -->
<svg version="1.1" id="Layer_1" xmlns="http://www.w3.org/2000/svg" xmlns:xlink="http://www.w3.org/1999/xlink" x="0px" y="0px"
	 viewBox="0 0 500 500" style="enable-background:new 0 0 500 500;" xml:space="preserve">
<style type="text/css">
	.st0{fill:#456287;}
	.st1{fill:#2196F3;}
</style>
<rect x="28.38" y="-442.66" class="st0" width="46.96" height="46.96"/>
<rect x="28.38" y="-369.1" class="st1" width="46.96" height="46.96"/>
<g>
	<path class="st0" d="M474.85,216.94c-0.03-6.71-3.82-10.5-10.4-11.19c-6.07-0.64-12.17-0.95-18.25-1.41
		c-9.89-0.74-19.77-1.47-29.66-2.2c-4.19-9.56-7.99-19.32-12.71-28.6c-3.39-6.67-1.86-11.05,3.23-15.97
		c8.47-8.17,16.53-16.8,24.27-25.67c6.26-7.17,6.04-12.7-0.62-19.54c-13.69-14.07-27.57-27.96-41.61-41.69
		c-8.74-8.54-13.26-8.63-22.36-0.54c-9.12,8.11-17.95,16.57-26.75,25.04c-3.16,3.04-6.11,4.24-10.46,2.29
		c-8.75-3.92-17.61-7.61-26.59-10.93c-5.5-2.03-6.75-5.72-6.85-11.1c-0.2-11.78-0.84-23.56-1.56-35.32
		c-0.74-12.19-3.2-14.79-14.94-14.93c-19.62-0.23-39.24-0.25-58.86-0.03c-11.7,0.13-14.46,3.02-15.11,14.8
		c-0.68,12.2-1.33,24.41-1.62,36.63c-0.12,5.03-1.86,8.01-6.72,9.8c-8.17,3.01-16.37,6.11-24.11,10.05
		c-6.26,3.18-10.3,1.49-14.85-3.08c-8.31-8.33-16.98-16.34-25.82-24.12c-7.76-6.84-13.04-6.77-20.48,0.47
		C97.94,83.4,84.07,97.3,70.34,111.33c-8.01,8.19-8.19,12.9-0.65,21.44c7.79,8.83,15.88,17.42,24.25,25.69
		c4.31,4.26,5.62,8.14,2.9,13.84c-3.55,7.47-6.62,15.2-9.4,23c-2.2,6.15-5.68,8.76-12.52,8.71c-12.18-0.1-24.4,0.67-36.56,1.56
		c-10.16,0.74-12.95,3.63-13.11,13.98c-0.3,20.52-0.33,41.05-0.05,61.56c0.12,8.98,3.74,12.4,12.76,13.27
		c4.76,0.46,9.59,0.21,14.38,0.46c9.97,0.52,19.93,1.16,29.9,1.75c4.49,9.33,9.25,18.55,13.39,28.03
		c4.44,10.15,3.48,11.72-4.1,19.22c-7.99,7.9-15.7,16.15-22.79,24.87c-7.31,8.99-7.01,11.85,1.1,20.02
		c13.81,13.9,27.82,27.61,41.99,41.14c8.22,7.85,14.15,7.8,22.66-0.1c8.6-7.99,17.03-16.2,25.02-24.8
		c4.05-4.37,8.15-4.54,12.84-2.45c7.93,3.53,15.68,7.45,23.61,10.98c4.29,1.91,7.12,4.3,7.33,9.54c0.37,9.03,0.92,30.64,1.06,32.37
		c1.37,16.44,4.65,19.5,21.06,19.53c17.88,0.03,35.76,0.18,53.63-0.06c11.32-0.15,14.72-3.53,15.46-14.76
		c0.74-11.32,1.79-22.69,1.46-33.99c-0.23-8.04,2.95-11.97,10.11-14.23c7.03-2.22,14.03-4.66,20.76-7.64
		c9.24-4.09,9.24-4.16,16.14,3.07c6.91,7.24,13.98,14.36,21.3,21.19c10.43,9.75,15.17,9.77,25.43-0.14
		c12.81-12.37,25.1-25.29,38-37.56c10.08-9.59,10.85-14.77,1.49-25.34c-7.48-8.44-15.25-16.63-23.25-24.58
		c-4.32-4.29-5.34-8.21-2.49-13.87c3.52-6.99,6.6-14.31,8.91-21.78c2.35-7.59,6.79-10.14,14.49-9.99
		c11.76,0.22,23.55-0.24,35.29-0.97c8.76-0.55,12.5-3.83,12.63-11.84C475.15,260.61,474.97,238.77,474.85,216.94z M248.07,335.53
		c-48.67,0-88.13-39.51-88.13-88.26s39.46-88.26,88.13-88.26s88.13,39.51,88.13,88.26S296.75,335.53,248.07,335.53z"/>
</g>
</svg>
