<svg width="15" height="11" viewBox="0 0 15 11" fill="none" xmlns="http://www.w3.org/2000/svg">
  <path d="M2.70767 4.49638L5.61779 7.4065L12.2408 0.783474C12.4861 0.538177 12.7983 0.415527 13.1774 0.415527C13.5565 0.415527 13.8687 0.538177 14.114 0.783474C14.3593 1.02877 14.4877 1.33517 14.4993 1.70267C14.51 2.07106 14.3927 2.37791 14.1474 2.6232L6.55438 10.2163C6.30908 10.4616 5.99689 10.5842 5.61779 10.5842C5.23869 10.5842 4.9265 10.4616 4.6812 10.2163L0.867946 6.40301C0.622649 6.15771 0.5 5.84552 0.5 5.46642C0.5 5.08732 0.622649 4.77513 0.867946 4.52983C1.11324 4.28453 1.42009 4.15653 1.78848 4.14583C2.15598 4.13423 2.46238 4.25108 2.70767 4.49638Z" fill="#0BD25F"/>
</svg>
