<svg width="400" height="400" viewBox="0 0 400 400" fill="none" xmlns="http://www.w3.org/2000/svg">
<path d="M66.4448 309.852C60.3016 286.459 42.8223 218.327 57.6969 194.426C72.5715 170.525 112.281 192.903 132.922 165.545C164.768 123.362 151.302 78.2797 223.415 70.8424C391.77 53.4941 300.016 309.852 300.016 309.852H66.4448Z" fill="#E5F0F8"/>
<path d="M302.297 309.72C302.297 309.72 308.817 283.673 325.1 275.646C341.367 267.603 358.732 278.612 354.325 290.177C350.525 300.154 334.88 287.884 322.725 292.7C310.553 297.532 308.637 309.72 308.637 309.72H302.297Z" fill="#40A87B"/>
<path d="M303.703 309.72C303.703 309.72 307.799 291.684 320.757 282.477C333.714 273.287 351.177 283.231 351.177 283.231" stroke="#6ADB6A"/>
<path d="M348.36 278.579L344.297 280.348" stroke="#6ADB6A"/>
<path d="M342.499 274.778L334.406 278.579" stroke="#6ADB6A"/>
<path d="M330.343 274.778L326.133 279.758" stroke="#6ADB6A"/>
<path d="M322.345 278.121L320.461 282.707" stroke="#6ADB6A"/>
<path d="M346.327 289.571L340.086 279.251" stroke="#6ADB6A"/>
<path d="M335.303 288.097L329.586 278.907" stroke="#6ADB6A"/>
<path d="M325.593 286.688L316.992 285.624" stroke="#6ADB6A"/>
<path d="M315.587 291.897L310.656 293.519" stroke="#6ADB6A"/>
<path d="M293.152 309.786C293.152 309.786 288.532 222.504 330.224 233.759C371.915 244.997 297.706 292.045 297.772 309.786H293.152Z" fill="#6ADB6A"/>
<path d="M294.82 309.786C294.82 309.786 296.278 264.196 325.995 241.638" stroke="#40A87B"/>
<path d="M312.977 254.858L313.714 239.132" stroke="#40A87B" stroke-width="2.31955"/>
<path d="M336.287 248.355L316.203 250.96" stroke="#40A87B"/>
<path d="M328.473 261.771L307.242 264.245" stroke="#40A87B"/>
<path d="M317.851 275.074L301.453 277.384" stroke="#40A87B"/>
<path d="M299.891 262.64L303.642 271.781" stroke="#40A87B" stroke-width="2.31955"/>
<path d="M306.062 247.814L309.257 260.674" stroke="#40A87B" stroke-width="2.31955"/>
<path d="M296.359 277.892L299.357 283.855" stroke="#40A87B" stroke-width="2.31955"/>
<path d="M309.254 287.392L297.508 291.111" stroke="#40A87B" stroke-width="2.31955"/>
<path fill-rule="evenodd" clip-rule="evenodd" d="M317.445 195.163C321.049 197.326 322.212 202.011 320.049 205.615C318.1 208.875 314.119 210.12 310.712 208.76L303.487 220.801L301.391 219.556L308.615 207.499C305.814 205.14 305.027 201.028 306.977 197.784C309.139 194.18 313.824 193.001 317.445 195.163ZM316.576 196.605C313.759 194.918 310.106 195.819 308.418 198.653C306.731 201.454 307.632 205.123 310.45 206.811C313.267 208.498 316.937 207.581 318.624 204.763C320.312 201.945 319.394 198.292 316.576 196.605Z" fill="white"/>
<path d="M314.284 315.095H62.5455C60.8909 315.095 59.5312 313.751 59.5312 312.08V311.179C59.5312 309.508 60.8909 308.165 62.5455 308.165H314.284C315.938 308.165 317.281 309.508 317.281 311.179V312.08C317.281 313.751 315.938 315.095 314.284 315.095Z" fill="#0775EF"/>
<path d="M70.7422 289.686V121.626H300.463V289.686H70.7422Z" fill="#BBDBF3"/>
<path d="M298.329 123.755V287.556H72.8672V123.755H298.329Z" fill="white"/>
<path d="M298.329 123.772V139.204H72.8672V123.772H298.329Z" fill="#BBDBF3"/>
<path d="M284.078 135.927L292.957 127.048" stroke="white" stroke-width="4.48445" stroke-linecap="round" stroke-linejoin="round"/>
<path d="M292.957 135.927L284.078 127.048" stroke="white" stroke-width="4.48445" stroke-linecap="round" stroke-linejoin="round"/>
<path d="M185.594 181.484V183.008H184.07" stroke="#BBDBF3" stroke-width="1.59791" stroke-linecap="round" stroke-linejoin="round"/>
<path d="M181.004 183.008H84.3516" stroke="#BBDBF3" stroke-width="1.59791" stroke-linecap="round" stroke-linejoin="round" stroke-dasharray="9.55 9.55"/>
<path d="M82.8126 183.008H81.2891V181.484" stroke="#BBDBF3" stroke-width="1.59791" stroke-linecap="round" stroke-linejoin="round"/>
<path d="M81.2891 178.127V173.081" stroke="#BBDBF3" stroke-width="1.59791" stroke-linecap="round" stroke-linejoin="round" stroke-dasharray="11.14 11.14"/>
<path d="M81.2891 171.41V169.887H82.8126" stroke="#BBDBF3" stroke-width="1.59791" stroke-linecap="round" stroke-linejoin="round"/>
<path d="M85.875 169.887H182.544" stroke="#BBDBF3" stroke-width="1.59791" stroke-linecap="round" stroke-linejoin="round" stroke-dasharray="9.55 9.55"/>
<path d="M184.07 169.887H185.594V171.41" stroke="#BBDBF3" stroke-width="1.59791" stroke-linecap="round" stroke-linejoin="round"/>
<path d="M185.586 174.768V179.814" stroke="#BBDBF3" stroke-width="1.59791" stroke-linecap="round" stroke-linejoin="round" stroke-dasharray="11.14 11.14"/>
<path d="M105.927 150.638H81.2891V146.936H105.927V150.638Z" fill="#E5F0F8"/>
<path d="M138.802 150.638H114.164V146.936H138.802V150.638Z" fill="#E5F0F8"/>
<path d="M171.669 150.638H147.031V146.936H171.669V150.638Z" fill="#E5F0F8"/>
<path d="M204.529 150.638H179.891V146.936H204.529V150.638Z" fill="#E5F0F8"/>
<path d="M237.404 150.638H212.766V146.936H237.404V150.638Z" fill="#E5F0F8"/>
<path d="M289.876 153.537H267.023V144.036H289.876V153.537Z" fill="#BBDBF3"/>
<path d="M193.766 246.471V169.887H289.877V246.471H193.766Z" fill="#E5F0F8"/>
<path d="M286.227 242.621H197.422V173.752H286.227V242.621Z" fill="white"/>
<path d="M197.422 242.621L222.535 212.134L240.162 233.971L265.046 191.985L286.227 242.621H197.422Z" fill="#E5F0F8"/>
<path d="M246.322 190.331C246.322 192.804 244.307 194.819 241.833 194.819C239.343 194.819 237.328 192.804 237.328 190.331C237.328 187.841 239.343 185.826 241.833 185.826C244.307 185.826 246.322 187.841 246.322 190.331Z" fill="#E5F0F8"/>
<path d="M188.407 183.188H81.1719V169.706H188.407V183.188Z" fill="white" stroke="#BBDBF3" stroke-width="2.57727"/>
<path d="M161.523 169.706H188.406V183.188H161.523V169.706Z" fill="#BBDBF3" stroke="#BBDBF3" stroke-width="2.268"/>
<path fill-rule="evenodd" clip-rule="evenodd" d="M168.602 173.114C169.798 170.951 172.517 170.198 174.68 171.394C176.613 172.475 177.415 174.785 176.678 176.816L183.853 180.829L183.165 182.074L175.974 178.061C174.647 179.732 172.255 180.272 170.322 179.191C168.176 177.995 167.39 175.26 168.602 173.114ZM169.454 173.589C168.52 175.276 169.11 177.389 170.797 178.339C172.468 179.273 174.598 178.667 175.548 176.996C176.482 175.309 175.875 173.179 174.205 172.245C172.517 171.295 170.388 171.918 169.454 173.589Z" fill="white"/>
<path d="M123.177 262.1V287.557H81.2891V262.1H123.177Z" fill="#E5F0F8"/>
<path d="M121.584 263.787V287.557H82.8906V263.787H121.584Z" fill="white"/>
<path d="M93.8226 280.512L99.5234 287.556H88.0234L93.8226 280.512Z" fill="#E5F0F8"/>
<path d="M118.982 287.556H102.977L112.363 271.731L118.982 287.556Z" fill="#E5F0F8"/>
<path d="M104.189 271.011C104.189 272.092 103.32 272.96 102.239 272.96C101.158 272.96 100.273 272.092 100.273 271.011C100.273 269.913 101.158 269.045 102.239 269.045C103.32 269.045 104.189 269.913 104.189 271.011Z" fill="#E5F0F8"/>
<path d="M289.88 262.1V287.557H247.992V262.1H289.88Z" fill="#E5F0F8"/>
<path d="M288.288 263.787V287.557H249.578V263.787H288.288Z" fill="white"/>
<path d="M260.518 280.512L266.219 287.556H254.719L260.518 280.512Z" fill="#E5F0F8"/>
<path d="M285.677 287.556H269.672L279.059 271.731L285.677 287.556Z" fill="#E5F0F8"/>
<path d="M270.892 271.011C270.892 272.092 270.024 272.96 268.942 272.96C267.861 272.96 266.977 272.092 266.977 271.011C266.977 269.913 267.861 269.045 268.942 269.045C270.024 269.045 270.892 269.913 270.892 271.011Z" fill="#E5F0F8"/>
<path d="M234.31 262.1V287.557H192.422V262.1H234.31Z" fill="#E5F0F8"/>
<path d="M232.718 263.787V287.557H194.008V263.787H232.718Z" fill="white"/>
<path d="M204.955 280.512L210.656 287.556H199.156L204.955 280.512Z" fill="#E5F0F8"/>
<path d="M230.114 287.556H214.109L223.496 271.731L230.114 287.556Z" fill="#E5F0F8"/>
<path d="M215.321 271.011C215.321 272.092 214.453 272.96 213.372 272.96C212.291 272.96 211.406 272.092 211.406 271.011C211.406 269.913 212.291 269.045 213.372 269.045C214.453 269.045 215.321 269.913 215.321 271.011Z" fill="#E5F0F8"/>
<path d="M178.747 262.1V287.557H136.859V262.1H178.747Z" fill="#E5F0F8"/>
<path d="M177.155 263.787V287.557H138.445V263.787H177.155Z" fill="white"/>
<path d="M149.393 280.512L155.094 287.556H143.594L149.393 280.512Z" fill="#E5F0F8"/>
<path d="M174.544 287.556H158.539L167.926 271.731L174.544 287.556Z" fill="#E5F0F8"/>
<path d="M159.759 271.011C159.759 272.092 158.891 272.96 157.81 272.96C156.728 272.96 155.844 272.092 155.844 271.011C155.844 269.913 156.728 269.045 157.81 269.045C158.891 269.045 159.759 269.913 159.759 271.011Z" fill="#E5F0F8"/>
<path d="M130.582 201.044H81.2891V194.95H130.582V201.044Z" fill="#E5F0F8"/>
<path d="M157.478 201.044H134.789V194.95H157.478V201.044Z" fill="#E5F0F8"/>
<path d="M113.184 211.758H81.2891V205.664H113.184V211.758Z" fill="#E5F0F8"/>
<path d="M169.403 211.758H117.391V205.664H169.403V211.758Z" fill="#E5F0F8"/>
<path d="M89.8403 220.654H81.2891V217.951H89.8403V220.654Z" fill="#E5F0F8"/>
<path d="M124.778 220.654H91.0312V217.951H124.778V220.654Z" fill="#E5F0F8"/>
<path d="M155.35 220.654H126.125V217.951H155.35V220.654Z" fill="#E5F0F8"/>
<path d="M186.902 220.654H156.547V217.951H186.902V220.654Z" fill="#E5F0F8"/>
<path d="M99.0141 225.781H81.2891V223.094H99.0141V225.781Z" fill="#E5F0F8"/>
<path d="M132.057 225.781H100.391V223.094H132.057V225.781Z" fill="#E5F0F8"/>
<path d="M186.9 225.781H133.43V223.094H186.9V225.781Z" fill="#E5F0F8"/>
<path d="M108.466 230.925H81.2891V228.238H108.466V230.925Z" fill="#E5F0F8"/>
<path d="M148.074 230.925H109.594V228.238H148.074V230.925Z" fill="#E5F0F8"/>
<path d="M186.904 230.925H149.57V228.238H186.904V230.925Z" fill="#E5F0F8"/>
<path d="M114.593 236.068H81.2891V233.382H114.593V236.068Z" fill="#E5F0F8"/>
<path d="M283.717 257.594H254.164V254.891H283.717V257.594Z" fill="#E5F0F8"/>
<path d="M228.154 257.594H198.602V254.891H228.154V257.594Z" fill="#E5F0F8"/>
<path d="M172.584 257.594H143.031V254.891H172.584V257.594Z" fill="#E5F0F8"/>
<path d="M278.471 70.0068C303.06 70.0068 322.996 89.927 322.996 114.532C322.996 115.264 322.98 115.996 322.947 116.728L318.639 116.007L315.543 119.087L312.987 118.677L303.338 117.153L293.673 115.63L283.942 114.074L281.583 113.697L281.37 113.074L277.128 111.518L277.635 113.975L280.404 116.449L281.42 113.877L283.942 114.287L293.657 115.908L303.306 117.53L312.922 119.119L315.461 119.562L317.394 123.477L321.932 124.23C321.549 125.967 321.063 127.66 320.474 129.309L310.874 127.081L301.241 124.853L291.412 122.576L291.085 122.51L290.921 121.871L286.809 120.02L287.12 122.51L289.545 125C289.731 124.793 289.916 124.585 290.102 124.378V124.361L290.921 122.674L291.298 122.756L301.127 125.115L310.743 127.425L320.326 129.718C314.134 146.821 297.719 159.058 278.471 159.058C253.882 159.058 233.945 139.121 233.945 114.532C233.945 89.927 253.882 70.0068 278.471 70.0068Z" fill="#C43A3B"/>
<path d="M296.032 122.756C295.671 123.324 295.273 123.859 294.836 124.362L295.655 122.674L296.032 122.756Z" fill="white"/>
<path d="M317.722 118.677L320.277 119.087L323.373 116.007L327.682 116.728C327.633 117.809 327.534 118.874 327.403 119.938C327.392 120.048 327.382 120.157 327.371 120.266C327.354 120.43 327.321 120.577 327.305 120.741C327.289 120.872 327.272 120.987 327.24 121.118C327.092 122.166 326.896 123.215 326.666 124.23L322.128 123.477L320.195 119.562L317.656 119.119C317.689 118.977 317.711 118.83 317.722 118.677Z" fill="#DE3C3B"/>
<path d="M308.08 117.153L317.728 118.677C317.718 118.83 317.696 118.983 317.663 119.136L308.047 117.53C308.058 117.399 308.069 117.273 308.08 117.153Z" fill="#E4EFF7"/>
<path d="M298.407 115.63L308.072 117.153C308.061 117.274 308.05 117.399 308.039 117.53L298.391 115.908C298.402 115.81 298.407 115.717 298.407 115.63Z" fill="#DE3C3B"/>
<path d="M298.41 115.63C298.41 115.718 298.405 115.811 298.394 115.909L288.696 114.287C288.685 114.211 288.68 114.14 288.68 114.074L298.41 115.63Z" fill="#E4EFF7"/>
<path d="M286.11 113.074L286.323 113.697L288.682 114.074C288.682 114.139 288.687 114.21 288.698 114.287L286.159 113.877L285.144 116.449L282.375 113.975L281.867 111.518L286.11 113.074Z" fill="#DE3C3B"/>
<path d="M315.608 127.081L325.207 129.308C325.164 129.45 325.12 129.587 325.076 129.718L315.477 127.425C315.526 127.31 315.575 127.195 315.608 127.081Z" fill="#DE3C3B"/>
<path d="M305.982 124.853L315.614 127.08C315.582 127.195 315.532 127.31 315.483 127.424L305.867 125.115C305.911 125.038 305.949 124.951 305.982 124.853Z" fill="#E4EFF7"/>
<path d="M296.154 122.576L305.983 124.853C305.95 124.951 305.912 125.038 305.868 125.115L296.039 122.756C296.088 122.707 296.121 122.641 296.154 122.576Z" fill="#DE3C3B"/>
<path d="M295.666 121.872L295.83 122.511L296.158 122.576C296.125 122.642 296.092 122.707 296.043 122.756L295.666 122.674L294.847 124.362V124.378C294.662 124.586 294.476 124.793 294.29 125.001L291.866 122.511L291.555 120.021L295.666 121.872Z" fill="#E4EFF7"/>
<path d="M294.838 124.378L294.461 125.181L294.281 125C294.467 124.793 294.653 124.585 294.838 124.378Z" fill="#F74242"/>
<path d="M283.205 70.0068C307.794 70.0068 327.731 89.927 327.731 114.532C327.731 115.264 327.714 115.996 327.682 116.728L323.373 116.007L320.277 119.087L317.722 118.677L308.073 117.153L298.407 115.63L288.677 114.074L286.318 113.697L286.105 113.074L281.862 111.518L282.37 113.975L285.138 116.449L286.154 113.877L288.693 114.287L298.391 115.908L308.04 117.53L317.656 119.119L320.195 119.562L322.128 123.477L326.666 124.23C326.284 125.967 325.798 127.66 325.208 129.309L315.608 127.081L305.976 124.853L296.147 122.576L295.819 122.51L295.655 121.871L291.544 120.02L291.855 122.51L294.279 125C294.465 124.793 294.651 124.585 294.836 124.378V124.361L295.655 122.674L296.032 122.756L305.861 125.115L315.477 127.425L325.077 129.718C318.868 146.821 302.454 159.058 283.205 159.058C258.616 159.058 238.68 139.121 238.68 114.532C238.68 89.927 258.616 70.0068 283.205 70.0068Z" fill="#F74242"/>
<path d="M286.728 79.9343C305.617 81.8018 319.901 99.576 317.755 118.431C317.745 118.519 317.734 118.601 317.723 118.677L308.074 117.154L298.409 115.63L288.678 114.074L286.319 113.697L286.106 113.075L281.863 111.518L282.371 113.976L285.139 116.449L286.155 113.877L288.694 114.287L298.392 115.909L308.041 117.53L317.657 119.136C317.297 121.888 316.609 124.558 315.609 127.081L305.977 124.853L296.148 122.576L295.82 122.51L295.657 121.872L291.545 120.02L291.856 122.51L294.28 125C294.466 124.793 294.652 124.585 294.837 124.378V124.362L295.657 122.674L296.033 122.756L305.862 125.115L315.478 127.425C309.892 141.366 295.542 150.867 279.258 149.082C263.319 147.312 250.459 134.485 248.674 118.546C246.167 96.3979 264.646 77.7555 286.728 79.9343Z" fill="white"/>
<path d="M283.202 89.5176C296.996 89.5176 308.217 100.739 308.217 114.532C308.206 115.417 308.157 116.291 308.07 117.154L298.405 115.63L288.674 114.074L286.315 113.697L286.102 113.075L281.859 111.518L282.367 113.976L285.135 116.449L286.151 113.877L288.69 114.287L298.388 115.909L308.037 117.53C307.726 120.119 307.005 122.576 305.973 124.853L296.144 122.576L295.816 122.51L295.653 121.872L291.541 120.02L291.852 122.51L294.276 125C294.462 124.793 294.648 124.585 294.833 124.378V124.362L295.653 122.674L296.029 122.756L305.858 125.115C301.861 133.634 293.212 139.531 283.202 139.531C269.425 139.531 258.188 128.31 258.188 114.532C258.188 100.739 269.425 89.5176 283.202 89.5176Z" fill="#F74242"/>
<path d="M283.212 99.2808C291.616 99.2808 298.464 106.128 298.464 114.532C298.464 114.893 298.447 115.258 298.415 115.63L288.684 114.073L286.325 113.697L286.112 113.074L281.869 111.518L282.377 113.975L285.145 116.449L286.161 113.877L288.7 114.286L298.398 115.908C298.185 118.349 297.383 120.61 296.154 122.576L295.826 122.51L295.662 121.871L291.551 120.02L291.862 122.51L294.286 125C291.501 127.932 287.57 129.767 283.212 129.767C274.808 129.767 267.961 122.936 267.961 114.532C267.961 106.128 274.808 99.2808 283.212 99.2808Z" fill="white"/>
<path d="M283.214 109.045C286.098 109.045 288.457 111.256 288.686 114.074L286.327 113.697L286.114 113.075L281.871 111.519L282.379 113.976L285.147 116.449L286.163 113.878L288.702 114.287C288.702 114.369 288.702 114.451 288.702 114.533C288.702 117.547 286.245 120.021 283.214 120.021C280.184 120.021 277.727 117.547 277.727 114.533C277.727 111.502 280.184 109.045 283.214 109.045Z" fill="#F74242"/>
<path d="M339.644 78.7217L283.586 111.78" stroke="#586773" stroke-width="2.268" stroke-linecap="round" stroke-linejoin="round"/>
<path d="M327.229 81.3427L341.317 73.0371L340.613 78.1482L326.508 86.4701L327.229 81.3427Z" fill="#F8EBB7"/>
<path d="M326.508 86.4708L340.613 78.1489L345.429 80.0001L331.34 88.322L326.508 86.4708Z" fill="#F9E181"/>
<path d="M318.302 86.6015L324.691 82.8501L324.232 87.8138L317.859 91.5652L318.302 86.6015Z" fill="#F8EBB7"/>
<path d="M317.859 91.5654L324.232 87.814L328.802 89.8125L322.413 93.5803L317.859 91.5654Z" fill="#F9E181"/>
<path d="M283.603 108.422L286.536 113.386L282.473 114.074L281.195 111.469L283.603 108.422Z" fill="#92ABBE"/>
<path d="M350.865 92.4336L292.234 120.643" stroke="#586773" stroke-width="2.268" stroke-linecap="round" stroke-linejoin="round"/>
<path d="M338.287 93.9898L353.031 86.8965L351.884 91.9421L337.141 99.0353L338.287 93.9898Z" fill="#F8EBB7"/>
<path d="M337.141 99.0352L351.884 91.9419L356.537 94.1862L341.793 101.296L337.141 99.0352Z" fill="#F9E181"/>
<path d="M328.946 98.4784L335.63 95.2676L334.762 100.182L328.078 103.393L328.946 98.4784Z" fill="#F8EBB7"/>
<path d="M328.078 103.393L334.762 100.182L339.136 102.574L332.452 105.785L328.078 103.393Z" fill="#F9E181"/>
<path d="M292.531 117.301L295.037 122.494L291.925 122.74L290.336 119.644L292.531 117.301Z" fill="#92ABBE"/>
<path fill-rule="evenodd" clip-rule="evenodd" d="M119.528 140.53C138.694 125.278 166.724 128.473 181.991 147.639C197.259 166.839 194.048 194.852 174.865 210.119C155.682 225.371 127.67 222.176 112.402 202.993C97.1504 183.81 100.328 155.798 119.528 140.53ZM115.776 200.323C129.57 217.671 154.847 220.555 172.195 206.745C189.543 192.935 192.427 167.691 178.633 150.326C164.823 132.961 139.563 130.078 122.214 143.888C104.85 157.698 101.967 182.958 115.776 200.323Z" fill="#93ACBF"/>
<path fill-rule="evenodd" clip-rule="evenodd" d="M122.201 143.889C139.549 130.079 164.81 132.962 178.62 150.327C192.413 167.691 189.53 192.935 172.182 206.745C154.833 220.555 129.556 217.672 115.763 200.324C101.953 182.959 104.836 157.698 122.201 143.889ZM117.467 198.964C130.523 215.362 154.408 218.081 170.822 205.042C187.237 191.985 189.956 168.101 176.916 151.686C163.843 135.272 139.959 132.552 123.561 145.609C107.146 158.665 104.41 182.533 117.467 198.964Z" fill="#586773"/>
<path opacity="0.3" d="M75.2207 220.475C91.6188 207.419 115.503 210.138 128.576 226.553C141.616 242.967 138.896 266.852 122.482 279.908C106.084 292.948 82.1829 290.229 69.1267 273.831C56.0704 257.4 58.8062 233.532 75.2207 220.475Z" fill="#E5F0F8"/>
<path d="M104.906 125.786L106.757 124.247L121.665 142.987L119.732 144.429L104.906 125.786Z" fill="#93ACBF"/>
<path d="M73.1546 83.7675C73.171 83.7511 73.171 83.7511 73.1874 83.7511C74.416 82.7682 76.218 82.9648 77.2173 84.2098L108.13 123.084L106.754 124.247L105.918 124.951L104.902 125.787L103.739 126.786L72.7123 87.781C71.7458 86.5524 71.926 84.7668 73.1546 83.7675Z" fill="#586773"/>
<path d="M73.1546 83.7671C73.1655 83.778 73.1764 83.7889 73.1874 83.7999L105.918 124.951L104.902 125.786L103.739 126.786L72.7123 87.7806C71.7458 86.552 71.926 84.7664 73.1546 83.7671Z" fill="#93ACBF"/>
<path fill-rule="evenodd" clip-rule="evenodd" d="M121.999 167.102C122.998 164.546 124.424 162.105 126.258 159.959C128.241 162.073 131.533 162.417 133.925 160.648C136.3 158.862 136.923 155.602 135.481 153.096C138.07 151.949 140.789 151.294 143.541 151.081C143.459 153.44 144.852 155.586 146.965 156.536C147.44 156.732 147.948 156.88 148.488 156.962C151.421 157.404 154.156 155.536 154.894 152.735C155.145 152.833 155.396 152.932 155.647 153.03C156.401 153.358 157.122 153.702 157.842 154.095C159.333 154.898 160.742 155.88 162.052 156.994C159.939 158.977 159.595 162.269 161.381 164.661C161.561 164.923 161.758 165.152 161.97 165.333C163.822 167.167 166.672 167.528 168.916 166.201C170.063 168.806 170.718 171.541 170.931 174.277C168.048 174.179 165.476 176.292 165.05 179.224C164.608 182.157 166.459 184.892 169.26 185.646C168.277 188.202 166.852 190.642 165.018 192.788C163.019 190.675 159.726 190.331 157.351 192.1C154.975 193.886 154.353 197.146 155.795 199.652C153.206 200.799 150.471 201.454 147.735 201.667C147.768 200.242 147.276 198.882 146.408 197.818C145.54 196.753 144.278 195.999 142.787 195.786C139.855 195.36 137.103 197.212 136.366 200.013C136.218 199.964 136.071 199.898 135.924 199.833C135.17 199.538 134.433 199.177 133.712 198.801C132.123 197.965 130.616 196.949 129.223 195.754C130.78 194.296 131.386 192.117 130.878 190.118C130.698 189.414 130.37 188.709 129.911 188.087C128.126 185.695 124.866 185.073 122.359 186.547C121.213 183.942 120.541 181.223 120.328 178.471C123.228 178.569 125.8 176.456 126.226 173.524C126.651 170.591 124.8 167.839 121.999 167.102ZM134.744 182.042C135.055 182.632 135.399 183.172 135.792 183.713C136.792 185.073 138.02 186.154 139.396 186.94C140.106 187.366 140.844 187.71 141.608 187.972C144.802 189.086 148.423 188.857 151.535 187.137C152.027 186.875 152.502 186.563 152.961 186.219C156.827 183.353 158.53 178.635 157.728 174.195C157.416 172.393 156.663 170.624 155.5 169.051C154.55 167.79 153.419 166.758 152.158 165.972C151.47 165.529 150.716 165.152 149.963 164.89C147.833 164.071 145.49 163.875 143.246 164.317C141.493 164.661 139.806 165.382 138.299 166.529C133.384 170.182 131.992 176.8 134.744 182.042Z" fill="#0775EF"/>
<path d="M154.891 152.735L158.036 150.622L156.463 156.994L154.891 152.735Z" fill="#0775EF"/>
<path d="M141.145 151.768L139.392 155.585L135.477 153.095L138.605 150.999L141.145 151.768Z" fill="#0775EF"/>
<path d="M125.144 178.798L122.343 180.551L120.328 178.471L123.473 176.357L125.144 178.798Z" fill="#0775EF"/>
<path d="M128.068 159.943L126.938 162.891L126.25 159.959L129.379 157.846L128.068 159.943Z" fill="#0775EF"/>
<path d="M139.5 197.916L136.371 200.012L134.93 197.801L136.83 195.95L139.5 197.916Z" fill="#0775EF"/>
<path d="M174.076 172.18L170.931 174.276L168.375 171.557L170.177 169.624L174.076 172.18Z" fill="#0775EF"/>
<path d="M158.917 197.539L155.788 199.652L151.742 198.423L154.953 196.392L158.917 197.539Z" fill="#0775EF"/>
<path d="M168.141 190.691L165.012 192.788L164.93 188.004L167.387 188.84L168.141 190.691Z" fill="#0775EF"/>
<path fill-rule="evenodd" clip-rule="evenodd" d="M125.123 165.005C126.123 162.433 127.548 160.008 129.383 157.846C131.381 159.959 134.674 160.303 137.049 158.534C139.441 156.748 140.047 153.505 138.605 150.998C141.194 149.851 143.93 149.18 146.665 148.967C146.6 151.342 147.976 153.488 150.105 154.422C150.564 154.619 151.072 154.782 151.613 154.848C154.545 155.29 157.297 153.439 158.034 150.621C158.274 150.72 158.52 150.823 158.771 150.933C159.525 151.244 160.246 151.604 160.967 151.981C162.457 152.8 163.882 153.767 165.193 154.897C163.063 156.879 162.719 160.156 164.505 162.564C164.685 162.809 164.882 163.039 165.095 163.235C166.946 165.054 169.813 165.414 172.041 164.104C173.187 166.692 173.859 169.428 174.072 172.18C171.172 172.081 168.6 174.178 168.175 177.111C167.732 180.059 169.6 182.779 172.401 183.532C171.402 186.104 169.977 188.529 168.142 190.691C166.16 188.561 162.867 188.234 160.475 190.003C158.1 191.789 157.477 195.032 158.919 197.539C156.331 198.685 153.611 199.357 150.859 199.57C150.908 198.128 150.417 196.769 149.548 195.72C148.664 194.639 147.402 193.902 145.928 193.673C142.979 193.247 140.244 195.098 139.49 197.915C139.343 197.85 139.195 197.801 139.048 197.735C138.294 197.424 137.557 197.08 136.836 196.703C135.264 195.851 133.756 194.836 132.348 193.656C133.904 192.198 134.51 190.003 134.019 188.021C133.822 187.3 133.511 186.612 133.036 185.99C131.25 183.581 127.99 182.975 125.484 184.45C124.337 181.845 123.682 179.109 123.469 176.357C126.352 176.455 128.924 174.358 129.35 171.41C129.776 168.477 127.941 165.742 125.123 165.005ZM137.868 179.945C138.18 180.518 138.524 181.075 138.917 181.599C139.916 182.959 141.161 184.04 142.521 184.843C143.231 185.258 143.968 185.602 144.732 185.875C147.943 186.989 151.547 186.759 154.66 185.039C155.151 184.777 155.642 184.466 156.101 184.122C159.967 181.239 161.655 176.537 160.852 172.098C160.541 170.296 159.803 168.51 158.624 166.938C157.69 165.676 156.543 164.644 155.282 163.858C154.594 163.415 153.857 163.055 153.103 162.777C150.957 161.974 148.631 161.777 146.37 162.22C144.634 162.547 142.947 163.284 141.423 164.415C136.525 168.068 135.133 174.686 137.868 179.945Z" fill="#088CFC"/>
<path d="M77.1953 265.965V182.844" stroke="#40A87B" stroke-width="1.34018"/>
<path d="M85.4503 175.8C85.4503 180.354 81.748 184.04 77.1939 184.04C75.5885 184.04 74.0977 183.582 72.82 182.795C72.405 182.533 72.0173 182.238 71.6569 181.911C71.3511 181.638 71.0726 181.343 70.8214 181.026C70.248 180.338 69.7894 179.535 69.4617 178.684C69.1341 177.783 68.9375 176.816 68.9375 175.8C68.9375 171.23 72.6398 167.544 77.1939 167.544C77.3249 167.544 77.4615 167.549 77.6034 167.56C78.5372 167.593 79.4218 167.79 80.2573 168.134C80.6286 168.276 80.989 168.45 81.3385 168.658C81.7644 168.904 82.1739 169.182 82.5343 169.51C84.32 171.017 85.4503 173.278 85.4503 175.8Z" fill="#F9E181"/>
<path d="M80.2565 168.133L70.8206 181.025C70.2473 180.337 69.7886 179.535 69.4609 178.683L77.6027 167.56C78.5364 167.592 79.421 167.789 80.2565 168.133Z" fill="#F9ECB8"/>
<path d="M82.5337 169.51L72.8194 182.795C72.4044 182.533 72.0166 182.238 71.6562 181.911L81.3379 168.658C81.7638 168.903 82.1733 169.182 82.5337 169.51Z" fill="#F9ECB8"/>
<path d="M77.1984 182.631C73.4306 182.631 70.3672 179.568 70.3672 175.8C70.3672 172.016 73.4306 168.953 77.1984 168.953C80.9662 168.953 84.0296 172.016 84.0296 175.8C84.0296 179.568 80.9662 182.631 77.1984 182.631Z" fill="#F2BB16"/>
<path d="M83.5217 175.8C83.5217 179.273 80.6877 182.107 77.1983 182.107C76.0189 182.107 74.9213 181.779 73.9711 181.222C73.5616 180.977 73.1684 180.665 72.808 180.321C72.5132 180.048 72.2511 179.742 72.0217 179.404C71.4647 178.601 71.088 177.667 70.9405 176.668C70.9078 176.384 70.8859 176.095 70.875 175.8C70.875 172.671 73.1521 170.083 76.1335 169.575C76.4721 169.509 76.827 169.477 77.1983 169.477C77.8536 169.477 78.4761 169.575 79.0659 169.755C79.459 169.875 79.8358 170.034 80.1962 170.23C80.6221 170.47 81.0208 170.754 81.3921 171.082C82.7026 172.229 83.5217 173.916 83.5217 175.8Z" fill="#F9E181"/>
<path d="M79.0628 169.755L72.0187 179.404C71.4617 178.601 71.0849 177.667 70.9375 176.668L76.1305 169.575C76.4691 169.509 76.824 169.477 77.1953 169.477C77.8506 169.477 78.4731 169.575 79.0628 169.755Z" fill="#F9ECB8"/>
<path d="M81.3887 171.082L73.9678 181.223C73.5582 180.977 73.1651 180.666 72.8047 180.322L80.1929 170.23C80.6188 170.471 81.0174 170.755 81.3887 171.082Z" fill="#F9ECB8"/>
<path fill-rule="evenodd" clip-rule="evenodd" d="M77.521 171.738H77.6193C77.9907 171.738 78.3729 171.803 78.7661 171.934C79.1592 172.066 79.4923 172.257 79.7653 172.508L78.848 173.524C78.6842 173.338 78.4821 173.196 78.2418 173.098C78.0125 172.988 77.7722 172.934 77.521 172.934V175.129L77.5538 175.145C77.8596 175.222 78.1654 175.309 78.4712 175.407C78.7661 175.517 79.0282 175.653 79.2575 175.817C79.4869 175.981 79.6725 176.188 79.8145 176.439C79.9565 176.691 80.0275 177.002 80.0275 177.373C80.0275 177.734 79.9619 178.056 79.8309 178.34C79.6998 178.624 79.5196 178.864 79.2903 179.061C79.0609 179.268 78.7988 179.432 78.504 179.552C78.1982 179.661 77.8705 179.738 77.521 179.781V180.568H76.9149V179.781C76.4344 179.792 75.9702 179.721 75.5225 179.568C75.0856 179.415 74.6979 179.164 74.3594 178.815L75.3587 177.783C75.5334 178.034 75.7627 178.225 76.0467 178.356C76.3197 178.487 76.6091 178.569 76.9149 178.602V176.276H76.8658C76.56 176.188 76.2651 176.09 75.9812 175.981C75.7081 175.872 75.4624 175.73 75.244 175.555C75.0256 175.391 74.8563 175.184 74.7362 174.932C74.6051 174.692 74.5396 174.386 74.5396 174.015C74.5396 173.687 74.6106 173.392 74.7525 173.13C74.8836 172.868 75.0583 172.639 75.2768 172.442C75.4952 172.246 75.7464 172.087 76.0303 171.967C76.3143 171.858 76.6091 171.787 76.9149 171.754V171.017H77.521V171.738ZM76.9149 172.95C76.6637 172.994 76.4344 173.103 76.2269 173.278C76.0303 173.442 75.932 173.665 75.932 173.949C75.932 174.113 75.9593 174.25 76.0139 174.359C76.0685 174.457 76.1395 174.545 76.2269 174.621C76.3143 174.698 76.418 174.758 76.5381 174.801C76.6583 174.845 76.7839 174.9 76.9149 174.965V172.95ZM77.521 178.585C77.6739 178.564 77.8159 178.52 77.947 178.454C78.078 178.389 78.1982 178.312 78.3074 178.225C78.4057 178.138 78.4876 178.028 78.5531 177.897C78.6186 177.766 78.6514 177.619 78.6514 177.455C78.6514 177.302 78.6132 177.171 78.5367 177.062C78.4712 176.942 78.3838 176.849 78.2746 176.783C78.1654 176.707 78.0453 176.641 77.9142 176.587C77.7832 176.543 77.6521 176.5 77.521 176.456V178.585Z" fill="#F2BB16"/>
<path d="M77.1953 199.603L90.5956 188.725" stroke="#40A87B" stroke-width="0.927818"/>
<path d="M97.8376 189.855C95.4787 191.756 92.0385 191.395 90.1382 189.036C89.4666 188.217 89.0898 187.251 88.9587 186.268C88.926 185.94 88.9151 185.618 88.926 185.301C88.9478 185.028 88.986 184.761 89.0406 184.499C89.1553 183.909 89.3683 183.352 89.6795 182.828C90.0072 182.271 90.4331 181.779 90.9573 181.353C93.2999 179.453 96.7401 179.813 98.6403 182.156C98.7059 182.232 98.7605 182.303 98.8042 182.369C99.1809 182.877 99.443 183.417 99.6232 183.974C99.6997 184.237 99.7598 184.499 99.8034 184.761C99.8471 185.088 99.869 185.411 99.869 185.727C99.8198 187.284 99.1318 188.807 97.8376 189.855Z" fill="#F9E181"/>
<path d="M99.6217 183.975L89.0391 184.499C89.1537 183.909 89.3667 183.352 89.678 182.828L98.8026 182.369C99.1794 182.877 99.4415 183.418 99.6217 183.975Z" fill="#F9ECB8"/>
<path d="M99.869 185.728L88.9587 186.268C88.926 185.941 88.9151 185.619 88.926 185.302L99.8034 184.761C99.8471 185.089 99.869 185.411 99.869 185.728Z" fill="#F9ECB8"/>
<path d="M90.8769 188.447C89.3043 186.514 89.5992 183.647 91.5486 182.074C93.4816 180.502 96.3484 180.813 97.9211 182.746C99.4937 184.695 99.1825 187.546 97.2494 189.119C95.3 190.691 92.4496 190.396 90.8769 188.447Z" fill="#F2BB16"/>
<path d="M97.0289 188.857C95.2269 190.315 92.5894 190.036 91.1314 188.234C90.64 187.628 90.3451 186.924 90.2468 186.203C90.2031 185.886 90.1922 185.564 90.214 185.236C90.2359 184.963 90.285 184.696 90.3615 184.434C90.5417 183.811 90.8693 183.238 91.328 182.746C91.4591 182.604 91.601 182.473 91.7539 182.353C93.3593 181.043 95.6528 181.141 97.1435 182.451C97.3292 182.604 97.4985 182.779 97.6514 182.976C97.9135 183.303 98.1264 183.664 98.2739 184.04C98.3722 184.303 98.4486 184.565 98.5032 184.827C98.5578 185.143 98.5797 185.466 98.5687 185.793C98.5196 186.956 97.9954 188.07 97.0289 188.857Z" fill="#F9E181"/>
<path d="M98.2796 184.04L90.3672 184.433C90.5474 183.811 90.875 183.238 91.3337 182.746L97.1492 182.451C97.3349 182.604 97.5042 182.779 97.6571 182.975C97.9192 183.303 98.1321 183.663 98.2796 184.04Z" fill="#F9ECB8"/>
<path d="M98.5687 185.793L90.2468 186.203C90.2031 185.886 90.1922 185.564 90.214 185.236L98.5032 184.827C98.5578 185.143 98.5797 185.466 98.5687 185.793Z" fill="#F9ECB8"/>
<path fill-rule="evenodd" clip-rule="evenodd" d="M96.6066 184.073L96.6558 184.122C96.8087 184.318 96.9343 184.542 97.0326 184.794C97.1309 185.056 97.1745 185.307 97.1636 185.547L96.2462 185.514C96.279 185.35 96.2735 185.187 96.2299 185.023C96.1862 184.859 96.1097 184.712 96.0005 184.581L94.8702 185.482L94.8865 185.514C94.963 185.711 95.0394 185.907 95.1159 186.104C95.1814 186.301 95.2251 186.492 95.2469 186.677C95.2579 186.863 95.2251 187.043 95.1487 187.218C95.0831 187.393 94.9521 187.562 94.7555 187.726C94.5698 187.879 94.3787 187.977 94.1821 188.021C93.9746 188.075 93.7726 188.086 93.576 188.053C93.3794 188.021 93.1883 187.95 93.0026 187.841C92.817 187.731 92.6422 187.595 92.4784 187.431L92.0689 187.759L91.8232 187.447L92.2163 187.12C92.0088 186.879 91.8559 186.612 91.7576 186.317C91.6484 186.022 91.6157 185.716 91.6593 185.4L92.5931 185.482C92.5385 185.678 92.5385 185.875 92.5931 186.071C92.6368 186.279 92.7132 186.464 92.8225 186.628L94.0183 185.662L94.0019 185.629C93.9255 185.432 93.8545 185.241 93.789 185.056C93.7234 184.87 93.6907 184.684 93.6907 184.499C93.6907 184.313 93.7289 184.138 93.8054 183.974C93.8818 183.811 94.0129 183.652 94.1985 183.499C94.3733 183.357 94.5535 183.265 94.7391 183.221C94.9357 183.188 95.1268 183.188 95.3125 183.221C95.5091 183.243 95.6947 183.303 95.8695 183.401C96.0551 183.51 96.2189 183.636 96.3609 183.778L96.7377 183.467L96.9834 183.778L96.6066 184.073ZM95.7384 184.269C95.6073 184.16 95.4545 184.089 95.2797 184.056C95.105 184.024 94.9466 184.062 94.8046 184.171C94.7173 184.247 94.6627 184.318 94.6408 184.384C94.6081 184.46 94.5917 184.537 94.5917 184.613C94.5917 184.69 94.6026 184.766 94.6244 184.843C94.6463 184.93 94.6736 185.017 94.7064 185.105L95.7384 184.269ZM93.0682 186.94C93.1446 187.005 93.2265 187.06 93.3139 187.103C93.4122 187.147 93.505 187.174 93.5924 187.185C93.6798 187.196 93.7671 187.191 93.8545 187.169C93.9528 187.147 94.0456 187.103 94.133 187.038C94.2094 186.972 94.264 186.901 94.2968 186.825C94.3187 186.737 94.3241 186.65 94.3132 186.563C94.3132 186.475 94.2968 186.388 94.264 186.301C94.2313 186.213 94.204 186.126 94.1821 186.039L93.0682 186.94Z" fill="#F2BB16"/>
<path d="M91.5432 185.236C91.5432 187.628 90.0689 189.102 90.0689 189.102C90.0689 189.102 88.5781 187.611 88.5781 185.236C88.5781 184.794 88.6273 184.351 88.7092 183.926L89.561 184.253L88.8894 183.188C89.3153 181.648 90.0689 180.453 90.0689 180.453C90.0689 180.453 90.5767 181.288 91.0026 182.468L90.4784 183.188L91.1664 182.943C91.3794 183.647 91.5432 184.45 91.5432 185.236Z" fill="#6ADB6A"/>
<path d="M90.0703 181.648V189.102" stroke="#40A87B" stroke-width="0.360818" stroke-linecap="round"/>
<path d="M89.5156 182.418L90.0726 183.221" stroke="#40A87B" stroke-width="0.360818" stroke-linecap="round"/>
<path d="M90.9222 183.942L90.0703 184.663" stroke="#40A87B" stroke-width="0.360818" stroke-linecap="round"/>
<path d="M88.8438 184.663L90.0724 185.465" stroke="#40A87B" stroke-width="0.360818" stroke-linecap="round"/>
<path d="M91.1843 185.515L90.0703 186.203" stroke="#40A87B" stroke-width="0.360818" stroke-linecap="round"/>
<path d="M96.3117 189.299L95.935 189.938L96.7541 189.561C97.8189 190.233 98.5233 190.905 98.5233 190.905C98.5233 190.905 97.1964 191.38 95.6073 191.494L94.69 190.61L94.8374 191.511C94.4115 191.494 93.9692 191.462 93.5432 191.363C91.2006 190.872 90.0703 189.103 90.0703 189.103C90.0703 189.103 91.8232 187.956 94.1657 188.464C94.9357 188.628 95.6729 188.939 96.3117 189.299Z" fill="#6ADB6A"/>
<path d="M97.3438 190.659L90.0703 189.103" stroke="#40A87B" stroke-width="0.360818" stroke-linecap="round"/>
<path d="M96.4927 191.035L95.8047 190.331" stroke="#40A87B" stroke-width="0.360818" stroke-linecap="round"/>
<path d="M95.2994 189.348L94.3984 190.036" stroke="#40A87B" stroke-width="0.360818" stroke-linecap="round"/>
<path d="M94.1492 191.232L93.625 189.856" stroke="#40A87B" stroke-width="0.360818" stroke-linecap="round"/>
<path d="M93.7994 188.758L92.8984 189.708" stroke="#40A87B" stroke-width="0.360818" stroke-linecap="round"/>
<path d="M77.1953 220.44L95.1661 205.844" stroke="#40A87B" stroke-width="1.18555"/>
<path d="M104.875 207.368C101.713 209.923 97.0934 209.432 94.5543 206.286C93.6533 205.172 93.1291 203.878 92.9652 202.568C92.9106 202.131 92.8997 201.694 92.9325 201.257C92.9543 200.897 92.998 200.542 93.0635 200.192C93.2274 199.406 93.5222 198.636 93.9318 197.932C94.3577 197.211 94.9311 196.539 95.6355 195.966C98.7972 193.41 103.417 193.902 105.956 197.047C106.032 197.145 106.103 197.244 106.169 197.342C106.66 198.014 107.037 198.734 107.267 199.488C107.376 199.837 107.458 200.187 107.512 200.536C107.578 200.973 107.605 201.41 107.594 201.847C107.545 203.927 106.611 205.959 104.875 207.368Z" fill="#F9E181"/>
<path d="M107.273 199.488L93.0703 200.193C93.2341 199.406 93.529 198.636 93.9385 197.932L106.176 197.342C106.667 198.014 107.044 198.735 107.273 199.488Z" fill="#F9ECB8"/>
<path d="M107.594 201.847L92.9652 202.568C92.9106 202.131 92.8997 201.694 92.9325 201.257L107.512 200.537C107.578 200.973 107.605 201.41 107.594 201.847Z" fill="#F9ECB8"/>
<path d="M95.5243 205.5C93.4274 202.879 93.8206 199.046 96.4416 196.949C99.0463 194.836 102.88 195.245 104.977 197.85C107.09 200.455 106.68 204.288 104.076 206.401C101.471 208.498 97.6375 208.105 95.5243 205.5Z" fill="#F2BB16"/>
<path d="M103.791 206.041C101.383 207.99 97.8285 207.614 95.8791 205.206C95.2238 204.387 94.8307 203.453 94.6996 202.486C94.6341 202.049 94.6232 201.613 94.6668 201.176C94.6887 200.815 94.7542 200.455 94.8634 200.094C95.0928 199.275 95.5351 198.489 96.1576 197.834C96.3323 197.648 96.518 197.473 96.7146 197.31C98.8769 195.557 101.94 195.671 103.955 197.441C104.196 197.648 104.419 197.877 104.627 198.129C104.987 198.587 105.266 199.079 105.462 199.587C105.604 199.925 105.708 200.269 105.774 200.619C105.85 201.056 105.877 201.492 105.856 201.929C105.79 203.469 105.086 204.993 103.791 206.041Z" fill="#F9E181"/>
<path d="M105.466 199.586L94.8672 200.094C95.0965 199.275 95.5388 198.489 96.1613 197.834L103.959 197.44C104.199 197.648 104.423 197.877 104.631 198.128C104.991 198.587 105.27 199.079 105.466 199.586Z" fill="#F9ECB8"/>
<path d="M105.856 201.929L94.6996 202.486C94.6341 202.049 94.6232 201.612 94.6668 201.175L105.774 200.618C105.85 201.055 105.877 201.492 105.856 201.929Z" fill="#F9ECB8"/>
<path fill-rule="evenodd" clip-rule="evenodd" d="M103.244 199.619L103.293 199.701C103.501 199.952 103.67 200.253 103.801 200.602C103.932 200.941 103.992 201.274 103.981 201.601L102.753 201.552C102.785 201.334 102.774 201.11 102.72 200.881C102.665 200.662 102.567 200.466 102.425 200.291L100.901 201.519L100.918 201.552C101.038 201.814 101.142 202.076 101.229 202.339C101.327 202.601 101.382 202.857 101.393 203.109C101.415 203.36 101.377 203.605 101.278 203.846C101.191 204.075 101.016 204.299 100.754 204.517C100.503 204.714 100.241 204.845 99.9677 204.91C99.7056 204.987 99.438 204.998 99.165 204.943C98.9029 204.9 98.6462 204.807 98.3951 204.665C98.1439 204.523 97.9091 204.343 97.6906 204.124L97.1337 204.566L96.806 204.157L97.3466 203.715C97.0736 203.387 96.8661 203.027 96.7241 202.633C96.5821 202.24 96.5385 201.825 96.5931 201.388L97.8545 201.519C97.778 201.782 97.7725 202.044 97.8381 202.306C97.9036 202.568 98.0128 202.814 98.1657 203.043L99.7711 201.749L99.7547 201.716C99.6346 201.454 99.5363 201.192 99.4599 200.93C99.3725 200.679 99.3288 200.433 99.3288 200.193C99.3288 199.941 99.378 199.707 99.4762 199.488C99.5745 199.27 99.7493 199.057 100 198.849C100.23 198.664 100.476 198.543 100.738 198.489C100.989 198.434 101.245 198.429 101.508 198.472C101.759 198.516 102.004 198.604 102.245 198.735C102.485 198.866 102.703 199.029 102.9 199.226L103.408 198.816L103.735 199.226L103.244 199.619ZM102.081 199.881C101.906 199.728 101.704 199.63 101.475 199.586C101.245 199.543 101.033 199.597 100.836 199.75C100.716 199.849 100.639 199.947 100.607 200.045C100.563 200.132 100.541 200.231 100.541 200.34C100.541 200.438 100.557 200.542 100.59 200.651C100.623 200.76 100.656 200.875 100.688 200.995L102.081 199.881ZM98.5097 203.453C98.6189 203.551 98.7336 203.627 98.8537 203.682C98.9739 203.736 99.094 203.775 99.2141 203.797C99.3343 203.818 99.4544 203.813 99.5745 203.78C99.6947 203.758 99.8093 203.698 99.9186 203.6C100.039 203.513 100.115 203.414 100.148 203.305C100.181 203.196 100.192 203.081 100.181 202.961C100.17 202.852 100.148 202.737 100.115 202.617C100.071 202.497 100.033 202.377 100 202.257L98.5097 203.453Z" fill="#F2BB16"/>
<path d="M96.4417 201.176C96.4417 204.37 94.4595 206.369 94.4595 206.369C94.4595 206.369 92.4609 204.37 92.4609 201.176C92.4609 200.586 92.5265 199.996 92.6411 199.423L93.7715 199.865L92.8705 198.424C93.4602 196.36 94.4595 194.771 94.4595 194.771C94.4595 194.771 95.1475 195.884 95.7209 197.457L95.0001 198.44L95.9339 198.112C96.2287 199.046 96.4417 200.111 96.4417 201.176Z" fill="#6ADB6A"/>
<path d="M94.4609 196.375V206.368" stroke="#40A87B" stroke-width="0.360818" stroke-linecap="round"/>
<path d="M93.7188 197.391L94.4559 198.489" stroke="#40A87B" stroke-width="0.360818" stroke-linecap="round"/>
<path d="M95.5913 199.439L94.4609 200.422" stroke="#40A87B" stroke-width="0.360818" stroke-linecap="round"/>
<path d="M92.8203 200.406L94.4585 201.487" stroke="#40A87B" stroke-width="0.360818" stroke-linecap="round"/>
<path d="M95.9681 201.552L94.4609 202.47" stroke="#40A87B" stroke-width="0.360818" stroke-linecap="round"/>
<path d="M102.832 206.631L102.324 207.483L103.438 206.991C104.847 207.876 105.797 208.777 105.797 208.777C105.797 208.777 104.028 209.432 101.882 209.563L100.67 208.384L100.866 209.596C100.276 209.58 99.6867 209.531 99.1133 209.4C95.9844 208.728 94.4609 206.369 94.4609 206.369C94.4609 206.369 96.8199 204.829 99.9488 205.501C100.981 205.714 101.98 206.156 102.832 206.631Z" fill="#6ADB6A"/>
<path d="M104.224 208.449L94.4609 206.369" stroke="#40A87B" stroke-width="0.360818" stroke-linecap="round"/>
<path d="M103.074 208.956L102.156 208.006" stroke="#40A87B" stroke-width="0.360818" stroke-linecap="round"/>
<path d="M101.469 206.696L100.273 207.614" stroke="#40A87B" stroke-width="0.360818" stroke-linecap="round"/>
<path d="M99.931 209.203L99.2266 207.384" stroke="#40A87B" stroke-width="0.360818" stroke-linecap="round"/>
<path d="M99.4701 205.893L98.2578 207.171" stroke="#40A87B" stroke-width="0.360818" stroke-linecap="round"/>
<path d="M77.1953 245.161L97.4104 228.763" stroke="#40A87B" stroke-width="1.34018"/>
<path d="M108.31 230.466C104.772 233.333 99.5786 232.792 96.7118 229.254C95.6961 227.993 95.1064 226.551 94.9262 225.06C94.8716 224.569 94.8607 224.077 94.8934 223.586C94.9153 223.193 94.9644 222.794 95.0409 222.39C95.2211 221.505 95.5487 220.654 96.0074 219.867C96.4988 219.032 97.1377 218.278 97.9404 217.639C101.479 214.773 106.672 215.33 109.539 218.868C109.626 218.966 109.708 219.07 109.784 219.179C110.341 219.933 110.751 220.752 111.013 221.604C111.133 221.997 111.221 222.39 111.275 222.783C111.357 223.275 111.39 223.766 111.373 224.258C111.324 226.584 110.276 228.894 108.31 230.466Z" fill="#F9E181"/>
<path d="M111.019 221.603L95.0469 222.39C95.2271 221.505 95.5547 220.653 96.0134 219.867L109.79 219.179C110.347 219.932 110.757 220.751 111.019 221.603Z" fill="#F9ECB8"/>
<path d="M111.373 224.258L94.9262 225.06C94.8716 224.569 94.8607 224.077 94.8934 223.586L111.275 222.783C111.357 223.275 111.39 223.766 111.373 224.258Z" fill="#F9ECB8"/>
<path d="M97.8099 228.353C95.4345 225.42 95.8932 221.112 98.8256 218.737C101.758 216.361 106.066 216.82 108.442 219.752C110.817 222.685 110.358 226.993 107.426 229.368C104.494 231.744 100.185 231.285 97.8099 228.353Z" fill="#F2BB16"/>
<path d="M107.104 228.959C104.401 231.154 100.404 230.728 98.225 228.025C97.4878 227.124 97.0291 226.059 96.8817 224.962C96.8161 224.486 96.7997 223.979 96.8489 223.504C96.8817 223.089 96.9526 222.684 97.0618 222.291C97.3403 221.358 97.8318 220.473 98.5198 219.736C98.7164 219.528 98.9294 219.332 99.1587 219.146C101.583 217.18 105.023 217.311 107.3 219.31C107.563 219.539 107.808 219.796 108.038 220.08C108.447 220.588 108.775 221.128 109.004 221.702C109.146 222.084 109.255 222.477 109.332 222.881C109.43 223.373 109.463 223.864 109.43 224.355C109.348 226.092 108.562 227.796 107.104 228.959Z" fill="#F9E181"/>
<path d="M109.005 221.702L97.0625 222.292C97.341 221.358 97.8324 220.473 98.5205 219.736L107.301 219.31C107.563 219.539 107.809 219.796 108.038 220.08C108.448 220.588 108.775 221.128 109.005 221.702Z" fill="#F9ECB8"/>
<path d="M109.43 224.356L96.8817 224.962C96.8161 224.487 96.7997 223.979 96.8489 223.504L109.332 222.881C109.43 223.373 109.463 223.864 109.43 224.356Z" fill="#F9ECB8"/>
<path fill-rule="evenodd" clip-rule="evenodd" d="M106.485 221.751L106.55 221.833C106.779 222.128 106.971 222.467 107.123 222.849C107.265 223.231 107.325 223.608 107.304 223.979L105.944 223.914C105.977 223.673 105.96 223.428 105.895 223.177C105.829 222.925 105.715 222.701 105.551 222.505L103.847 223.881L103.863 223.93C103.995 224.214 104.115 224.503 104.224 224.798C104.333 225.093 104.393 225.383 104.404 225.667C104.426 225.951 104.388 226.229 104.289 226.502C104.18 226.764 103.978 227.015 103.683 227.256C103.399 227.485 103.11 227.638 102.815 227.714C102.509 227.791 102.209 227.802 101.914 227.747C101.608 227.692 101.313 227.589 101.029 227.436C100.745 227.272 100.483 227.064 100.243 226.813L99.6206 227.305L99.2438 226.846L99.85 226.355C99.5442 225.983 99.3094 225.579 99.1455 225.142C98.9927 224.695 98.9435 224.23 98.9981 223.75L100.423 223.881C100.347 224.176 100.341 224.471 100.407 224.766C100.483 225.071 100.609 225.35 100.784 225.601L102.586 224.143L102.553 224.094C102.433 223.799 102.324 223.515 102.225 223.242C102.138 222.958 102.089 222.674 102.078 222.39C102.078 222.117 102.138 221.855 102.258 221.604C102.367 221.353 102.564 221.112 102.848 220.883C103.099 220.676 103.372 220.539 103.667 220.474C103.951 220.408 104.24 220.403 104.535 220.457C104.819 220.501 105.098 220.599 105.371 220.752C105.644 220.894 105.884 221.08 106.091 221.309L106.665 220.834L107.042 221.309L106.485 221.751ZM105.174 222.046C104.977 221.871 104.748 221.762 104.486 221.719C104.224 221.664 103.989 221.724 103.782 221.899C103.651 222.008 103.563 222.117 103.519 222.226C103.465 222.336 103.438 222.445 103.438 222.554C103.438 222.674 103.459 222.794 103.503 222.914C103.536 223.035 103.574 223.166 103.618 223.308L105.174 222.046ZM101.144 226.06C101.264 226.158 101.395 226.24 101.537 226.305C101.668 226.371 101.799 226.415 101.93 226.436C102.072 226.458 102.209 226.453 102.34 226.42C102.482 226.398 102.618 226.333 102.75 226.224C102.87 226.125 102.952 226.016 102.995 225.896C103.039 225.765 103.055 225.634 103.044 225.503C103.023 225.372 102.995 225.241 102.962 225.11C102.919 224.979 102.87 224.847 102.815 224.716L101.144 226.06Z" fill="#F2BB16"/>
<path d="M98.848 223.504C98.848 227.108 96.6037 229.336 96.6037 229.336C96.6037 229.336 94.3594 227.091 94.3594 223.504C94.3594 222.832 94.4413 222.177 94.556 221.538L95.8337 222.03L94.8344 220.408C95.4897 218.082 96.6037 216.296 96.6037 216.296C96.6037 216.296 97.39 217.541 98.0289 219.31L97.2262 220.424L98.2746 220.047C98.6022 221.112 98.848 222.308 98.848 223.504Z" fill="#6ADB6A"/>
<path d="M96.6094 218.098V229.336" stroke="#40A87B" stroke-width="0.360818" stroke-linecap="round"/>
<path d="M95.7891 219.244L96.6081 220.473" stroke="#40A87B" stroke-width="0.360818" stroke-linecap="round"/>
<path d="M97.8871 221.554L96.6094 222.652" stroke="#40A87B" stroke-width="0.360818" stroke-linecap="round"/>
<path d="M94.7656 222.652L96.6004 223.848" stroke="#40A87B" stroke-width="0.360818" stroke-linecap="round"/>
<path d="M98.2967 223.93L96.6094 224.945" stroke="#40A87B" stroke-width="0.360818" stroke-linecap="round"/>
<path d="M106.045 229.647L105.456 230.598L106.701 230.041C108.306 231.04 109.371 232.056 109.371 232.056C109.371 232.056 107.372 232.776 104.964 232.94L103.604 231.613L103.817 232.973C103.162 232.957 102.507 232.891 101.852 232.76C98.3295 232.006 96.6094 229.336 96.6094 229.336C96.6094 229.336 99.2632 227.616 102.785 228.37C103.948 228.615 105.062 229.107 106.045 229.647Z" fill="#6ADB6A"/>
<path d="M107.602 231.678L96.6094 229.335" stroke="#40A87B" stroke-width="0.360818" stroke-linecap="round"/>
<path d="M106.305 232.252L105.273 231.187" stroke="#40A87B" stroke-width="0.360818" stroke-linecap="round"/>
<path d="M104.491 229.712L103.164 230.728" stroke="#40A87B" stroke-width="0.360818" stroke-linecap="round"/>
<path d="M102.764 232.53L101.961 230.482" stroke="#40A87B" stroke-width="0.360818" stroke-linecap="round"/>
<path d="M102.242 228.812L100.898 230.253" stroke="#40A87B" stroke-width="0.360818" stroke-linecap="round"/>
<path d="M77.1969 202.257L63.125 190.839" stroke="#40A87B" stroke-width="0.927818"/>
<path d="M63.0244 183.336C65.367 185.482 65.5144 189.119 63.3684 191.445C62.5985 192.281 61.6647 192.821 60.6654 193.1C60.3269 193.187 59.9883 193.247 59.6498 193.28C59.3767 193.313 59.0983 193.318 58.8143 193.296C58.1918 193.263 57.5529 193.132 56.9632 192.887C56.3407 192.641 55.7673 192.264 55.2431 191.789C52.9005 189.643 52.7531 186.006 54.8991 183.664C54.9646 183.598 55.0301 183.533 55.0956 183.467C55.5543 183.008 56.0786 182.648 56.6355 182.386C56.8976 182.255 57.1597 182.151 57.4219 182.075C57.7495 181.966 58.0826 181.895 58.4211 181.862C60.0429 181.649 61.7303 182.14 63.0244 183.336Z" fill="#F9E181"/>
<path d="M56.6336 182.386L58.8124 193.296C58.1899 193.263 57.551 193.132 56.9613 192.886L55.0938 183.467C55.5524 183.008 56.0767 182.648 56.6336 182.386Z" fill="#F9ECB8"/>
<path d="M58.4212 181.861L60.6655 193.099C60.3269 193.187 59.9883 193.247 59.6498 193.279L57.4219 182.074C57.7495 181.965 58.0826 181.894 58.4212 181.861Z" fill="#F9ECB8"/>
<path d="M62.6295 190.789C60.8602 192.722 57.846 192.837 55.913 191.068C53.9799 189.282 53.8489 186.268 55.6345 184.335C57.4037 182.402 60.4179 182.271 62.351 184.056C64.284 185.826 64.4151 188.856 62.6295 190.789Z" fill="#F2BB16"/>
<path d="M62.0984 184.319C63.8841 185.957 63.9987 188.758 62.3605 190.544C61.8036 191.134 61.1155 191.56 60.3947 191.772C60.0562 191.871 59.7176 191.931 59.3791 191.953C59.0951 191.964 58.8112 191.953 58.5272 191.92C57.8556 191.822 57.2003 191.576 56.6269 191.166C56.4522 191.057 56.2938 190.932 56.1519 190.79C54.5465 189.332 54.2844 186.94 55.4311 185.171C55.5621 184.963 55.715 184.767 55.8898 184.581C56.1846 184.253 56.545 183.975 56.9054 183.762C57.1566 183.62 57.4133 183.5 57.6754 183.401C58.003 183.292 58.3416 183.221 58.691 183.188C59.8869 183.057 61.1483 183.434 62.0984 184.319Z" fill="#F9E181"/>
<path d="M56.9119 183.762L58.5336 191.92C57.862 191.822 57.2067 191.576 56.6334 191.166L55.4375 185.171C55.5686 184.963 55.7214 184.766 55.8962 184.581C56.1911 184.253 56.5515 183.975 56.9119 183.762Z" fill="#F9ECB8"/>
<path d="M58.6954 183.188L60.3991 191.773C60.0605 191.871 59.7219 191.931 59.3834 191.953L57.6797 183.401C58.0073 183.292 58.3459 183.221 58.6954 183.188Z" fill="#F9ECB8"/>
<path fill-rule="evenodd" clip-rule="evenodd" d="M57.2044 185.482L57.2536 185.432C57.4283 185.247 57.6413 185.083 57.8924 184.941C58.1436 184.799 58.3948 184.717 58.646 184.695L58.7443 185.645C58.5696 185.645 58.4003 185.678 58.2365 185.744C58.0726 185.809 57.9307 185.908 57.8105 186.039L58.9409 187.087L58.9573 187.071C59.1429 186.951 59.334 186.836 59.5306 186.727C59.7272 186.628 59.9183 186.557 60.104 186.514C60.3006 186.47 60.4971 186.47 60.6937 186.514C60.8903 186.557 61.0814 186.672 61.2671 186.858C61.4637 187.022 61.6002 187.207 61.6766 187.415C61.764 187.611 61.8022 187.813 61.7913 188.021C61.7913 188.239 61.7476 188.452 61.6602 188.66C61.5838 188.867 61.4691 189.069 61.3162 189.266L61.7258 189.643L61.4473 189.954L61.0377 189.577C60.8193 189.828 60.5681 190.036 60.2842 190.2C59.9893 190.352 59.6726 190.429 59.334 190.429L59.2849 189.446C59.4924 189.468 59.6944 189.441 59.891 189.364C60.0985 189.277 60.2787 189.162 60.4316 189.02L59.2521 187.923L59.2194 187.955C59.0228 188.075 58.8317 188.179 58.646 188.267C58.4603 188.354 58.2747 188.414 58.089 188.447C57.9034 188.479 57.7177 188.469 57.532 188.414C57.3464 188.359 57.1607 188.25 56.9751 188.086C56.8003 187.923 56.6802 187.748 56.6147 187.562C56.5382 187.366 56.5 187.164 56.5 186.956C56.5109 186.759 56.5491 186.557 56.6147 186.35C56.6911 186.153 56.7949 185.968 56.9259 185.793L56.5491 185.449L56.8276 185.138L57.2044 185.482ZM57.5484 186.366C57.4501 186.519 57.3955 186.688 57.3846 186.874C57.3846 187.049 57.4556 187.202 57.5976 187.333C57.6849 187.42 57.7669 187.475 57.8433 187.497C57.9198 187.508 57.9962 187.508 58.0726 187.497C58.16 187.497 58.2419 187.475 58.3184 187.431C58.3948 187.387 58.4822 187.349 58.5805 187.316L57.5484 186.366ZM60.7265 188.725C60.7811 188.627 60.8248 188.529 60.8575 188.43C60.8903 188.332 60.9067 188.234 60.9067 188.135C60.9067 188.048 60.8903 187.955 60.8575 187.857C60.8139 187.77 60.7538 187.688 60.6773 187.611C60.59 187.535 60.5026 187.486 60.4152 187.464C60.3279 187.453 60.2405 187.458 60.1531 187.48C60.0658 187.502 59.9729 187.535 59.8746 187.579C59.7873 187.622 59.7054 187.666 59.6289 187.71L60.7265 188.725Z" fill="#F2BB16"/>
<path d="M62.5192 184.777L63.2564 185.023L62.683 184.253C63.1417 183.024 63.6823 182.156 63.6823 182.156C63.6823 182.156 64.4522 183.401 64.9109 185.023L64.2229 186.153L65.1075 185.793C65.1894 186.252 65.2386 186.71 65.2386 187.169C65.2386 189.675 63.6823 191.232 63.6823 191.232C63.6823 191.232 62.126 189.675 62.126 187.169C62.1097 186.334 62.2899 185.515 62.5192 184.777Z" fill="#6ADB6A"/>
<path d="M63.6797 183.417V191.232" stroke="#40A87B" stroke-width="0.360818" stroke-linecap="round"/>
<path d="M64.253 184.221L63.6797 185.073" stroke="#40A87B" stroke-width="0.360818" stroke-linecap="round"/>
<path d="M62.7734 185.809L63.6744 186.579" stroke="#40A87B" stroke-width="0.360818" stroke-linecap="round"/>
<path d="M64.9575 186.579L63.6797 187.415" stroke="#40A87B" stroke-width="0.360818" stroke-linecap="round"/>
<path d="M62.5 187.464L63.6795 188.185" stroke="#40A87B" stroke-width="0.360818" stroke-linecap="round"/>
<path d="M59.3752 190.56C61.8325 190.036 63.6836 191.232 63.6836 191.232C63.6836 191.232 62.4877 193.099 60.0305 193.607C59.5718 193.705 59.1131 193.755 58.6708 193.771L58.8182 192.821L57.8681 193.738C56.1808 193.64 54.8047 193.132 54.8047 193.132C54.8047 193.132 55.5419 192.411 56.6558 191.723L57.5241 192.116L57.1145 191.445C57.7862 191.068 58.5725 190.724 59.3752 190.56Z" fill="#6ADB6A"/>
<path d="M56.0312 192.87L63.6815 191.231" stroke="#40A87B" stroke-width="0.360818" stroke-linecap="round"/>
<path d="M56.9297 193.263L57.6341 192.526" stroke="#40A87B" stroke-width="0.360818" stroke-linecap="round"/>
<path d="M58.1875 191.494L59.1213 192.215" stroke="#40A87B" stroke-width="0.360818" stroke-linecap="round"/>
<path d="M59.3828 193.46L59.9398 192.035" stroke="#40A87B" stroke-width="0.360818" stroke-linecap="round"/>
<path d="M59.75 190.872L60.7001 191.871" stroke="#40A87B" stroke-width="0.360818" stroke-linecap="round"/>
<path d="M77.1923 224.274L59.5 209.907" stroke="#40A87B" stroke-width="1.18555"/>
<path d="M57.5869 199.259C61.1909 200.979 62.7144 205.287 61.0107 208.891C60.4045 210.169 59.4708 211.185 58.3732 211.873C58.0128 212.113 57.6306 212.315 57.2265 212.479C56.8988 212.61 56.5657 212.719 56.2272 212.806C55.4572 213.003 54.6545 213.069 53.8518 212.987C53.0164 212.921 52.1809 212.692 51.3782 212.315C47.7742 210.595 46.2343 206.287 47.9544 202.683C48.009 202.573 48.0636 202.47 48.1182 202.371C48.495 201.651 49.0028 201.012 49.5762 200.487C49.8274 200.247 50.1004 200.029 50.3953 199.832C50.7557 199.581 51.1325 199.368 51.5256 199.193C53.3932 198.358 55.5883 198.325 57.5869 199.259Z" fill="#F9E181"/>
<path d="M49.5752 200.487L56.2261 212.806C55.4562 213.003 54.6535 213.068 53.8508 212.987L48.1172 202.371C48.494 201.65 49.0018 201.012 49.5752 200.487Z" fill="#F9ECB8"/>
<path d="M51.521 199.193L58.3685 211.873C58.0081 212.113 57.6259 212.315 57.2218 212.479L50.3906 199.832C50.751 199.581 51.1278 199.368 51.521 199.193Z" fill="#F9ECB8"/>
<path d="M59.8726 208.366C58.4638 211.348 54.8762 212.609 51.8947 211.201C48.9132 209.775 47.6518 206.204 49.0607 203.223C50.4859 200.241 54.0735 198.963 57.0549 200.389C60.0364 201.797 61.2978 205.385 59.8726 208.366Z" fill="#F2BB16"/>
<path d="M56.8612 200.799C59.6134 202.109 60.7765 205.418 59.4659 208.17C59.0236 209.104 58.352 209.841 57.5656 210.382C57.2052 210.622 56.8175 210.819 56.4025 210.972C56.0749 211.103 55.7309 211.196 55.3705 211.25C54.535 211.381 53.6504 211.332 52.8149 211.07C52.5747 210.994 52.3344 210.901 52.0941 210.791C49.6369 209.612 48.441 206.843 49.1454 204.288C49.2328 203.993 49.342 203.704 49.4731 203.42C49.7188 202.895 50.0464 202.437 50.4068 202.044C50.6471 201.782 50.9147 201.547 51.2095 201.339C51.559 201.077 51.9303 200.864 52.3235 200.7C53.7323 200.111 55.3705 200.094 56.8612 200.799Z" fill="#F9E181"/>
<path d="M50.402 202.044L55.3657 211.25C54.5302 211.382 53.6456 211.332 52.8101 211.07L49.1406 204.288C49.228 203.993 49.3372 203.704 49.4683 203.42C49.714 202.896 50.0416 202.437 50.402 202.044Z" fill="#F9ECB8"/>
<path d="M52.3249 200.7L57.567 210.382C57.2067 210.622 56.8189 210.819 56.4039 210.972L51.2109 201.339C51.5604 201.077 51.9317 200.864 52.3249 200.7Z" fill="#F9ECB8"/>
<path fill-rule="evenodd" clip-rule="evenodd" d="M51.3957 204.01L51.4448 203.944C51.5759 203.638 51.767 203.36 52.0182 203.109C52.2694 202.847 52.5479 202.65 52.8537 202.519L53.3124 203.633C53.1049 203.688 52.9137 203.791 52.739 203.944C52.5643 204.086 52.4332 204.261 52.3458 204.468L54.0823 205.288L54.0987 205.255C54.2843 205.047 54.47 204.845 54.6557 204.649C54.8522 204.452 55.0597 204.294 55.2782 204.174C55.4966 204.053 55.7314 203.982 55.9826 203.961C56.2338 203.939 56.5068 203.999 56.8017 204.141C57.0856 204.283 57.315 204.458 57.4897 204.665C57.6644 204.873 57.79 205.107 57.8665 205.369C57.932 205.621 57.9539 205.888 57.932 206.172C57.9102 206.456 57.8501 206.746 57.7518 207.04L58.3743 207.335L58.1614 207.81L57.5388 207.515C57.3641 207.898 57.1293 208.236 56.8344 208.531C56.5505 208.826 56.2065 209.039 55.8024 209.17L55.3601 207.991C55.6331 207.947 55.8734 207.838 56.0809 207.663C56.2884 207.499 56.4631 207.303 56.6051 207.073L54.7703 206.189L54.7376 206.238C54.5519 206.445 54.3663 206.636 54.1806 206.811C53.984 206.997 53.7765 207.144 53.5581 207.253C53.3506 207.352 53.1212 207.406 52.8701 207.417C52.6298 207.417 52.3677 207.352 52.0837 207.221C51.8216 207.09 51.6087 206.926 51.4448 206.729C51.2919 206.522 51.1773 206.298 51.1008 206.057C51.0353 205.806 51.008 205.544 51.0189 205.271C51.0408 204.998 51.0954 204.736 51.1827 204.485L50.6094 204.206L50.8223 203.748L51.3957 204.01ZM52.1329 204.927C52.0673 205.146 52.0673 205.369 52.1329 205.599C52.1875 205.817 52.3295 205.981 52.5588 206.09C52.6899 206.156 52.8045 206.183 52.9028 206.172C53.0011 206.172 53.0994 206.15 53.1977 206.107C53.2851 206.063 53.3724 206.003 53.4598 205.926C53.5362 205.85 53.6236 205.768 53.7219 205.681L52.1329 204.927ZM56.8181 206.582C56.8508 206.451 56.8727 206.32 56.8836 206.189C56.8836 206.058 56.8672 205.937 56.8344 205.828C56.8017 205.708 56.7416 205.599 56.6542 205.501C56.5778 205.402 56.4795 205.326 56.3594 205.271C56.2283 205.206 56.1082 205.178 55.999 205.189C55.8788 205.211 55.7696 205.249 55.6713 205.304C55.573 205.369 55.4802 205.44 55.3928 205.517C55.3055 205.604 55.2181 205.692 55.1307 205.779L56.8181 206.582Z" fill="#F2BB16"/>
<path d="M58.7266 202.29L59.644 202.617L58.9395 201.635C59.5129 200.095 60.1846 198.997 60.1846 198.997C60.1846 198.997 61.1675 200.57 61.7408 202.601L60.8562 204.01L61.9865 203.584C62.0848 204.141 62.1504 204.714 62.1504 205.304C62.1504 208.449 60.1846 210.415 60.1846 210.415C60.1846 210.415 58.2188 208.466 58.2188 205.304C58.2188 204.256 58.4481 203.207 58.7266 202.29Z" fill="#6ADB6A"/>
<path d="M60.1875 200.569V210.415" stroke="#40A87B" stroke-width="0.360818" stroke-linecap="round"/>
<path d="M60.9083 201.585L60.1875 202.65" stroke="#40A87B" stroke-width="0.360818" stroke-linecap="round"/>
<path d="M59.0781 203.6L60.1921 204.55" stroke="#40A87B" stroke-width="0.360818" stroke-linecap="round"/>
<path d="M61.8093 204.55L60.1875 205.615" stroke="#40A87B" stroke-width="0.360818" stroke-linecap="round"/>
<path d="M58.7109 205.681L60.1853 206.582" stroke="#40A87B" stroke-width="0.360818" stroke-linecap="round"/>
<path d="M54.7898 209.563C57.8696 208.908 60.1958 210.415 60.1958 210.415C60.1958 210.415 58.6887 212.741 55.6089 213.413C55.0355 213.527 54.4622 213.577 53.8888 213.593L54.0854 212.413L52.8895 213.577C50.7763 213.429 49.0234 212.807 49.0234 212.807C49.0234 212.807 49.9572 211.906 51.366 211.021L52.4636 211.512L51.9394 210.677C52.7912 210.202 53.7741 209.776 54.7898 209.563Z" fill="#6ADB6A"/>
<path d="M50.5703 212.463L60.1864 210.415" stroke="#40A87B" stroke-width="0.360818" stroke-linecap="round"/>
<path d="M51.6953 212.97L52.5963 212.037" stroke="#40A87B" stroke-width="0.360818" stroke-linecap="round"/>
<path d="M53.2969 210.742L54.46 211.643" stroke="#40A87B" stroke-width="0.360818" stroke-linecap="round"/>
<path d="M54.8047 213.216L55.5091 211.414" stroke="#40A87B" stroke-width="0.360818" stroke-linecap="round"/>
<path d="M55.2578 209.956L56.4373 211.217" stroke="#40A87B" stroke-width="0.360818" stroke-linecap="round"/>
<path d="M77.1916 249.272L56.9766 232.857" stroke="#40A87B" stroke-width="1.34018"/>
<path d="M56.7322 221.98C60.1396 225.011 60.4508 230.22 57.4366 233.628C56.3554 234.84 55.0285 235.659 53.6033 236.068C53.1227 236.21 52.6367 236.309 52.1453 236.363C51.7521 236.407 51.3535 236.423 50.9494 236.412C50.0484 236.38 49.1474 236.199 48.2792 235.855C47.3946 235.511 46.5427 235.004 45.7728 234.332C42.3654 231.301 42.0541 226.092 45.0848 222.685C45.1721 222.586 45.265 222.488 45.3633 222.39C46.0021 221.718 46.7557 221.177 47.542 220.784C47.9024 220.599 48.2792 220.446 48.6724 220.326C49.1311 220.162 49.6061 220.063 50.0976 219.998C52.4074 219.654 54.8483 220.309 56.7322 221.98Z" fill="#F9E181"/>
<path d="M47.546 220.784L50.9534 236.412C50.0524 236.38 49.1514 236.199 48.2831 235.855L45.3672 222.39C46.0061 221.718 46.7596 221.177 47.546 220.784Z" fill="#F9ECB8"/>
<path d="M50.0893 219.998L53.595 236.069C53.1144 236.211 52.6284 236.309 52.137 236.363L48.6641 220.326C49.1228 220.162 49.5978 220.064 50.0893 219.998Z" fill="#F9ECB8"/>
<path d="M56.3766 232.694C53.8702 235.512 49.5454 235.774 46.7277 233.268C43.9101 230.778 43.648 226.436 46.138 223.619C48.6444 220.801 52.9856 220.539 55.8032 223.045C58.6209 225.552 58.883 229.877 56.3766 232.694Z" fill="#F2BB16"/>
<path d="M55.4535 223.438C58.0582 225.748 58.2876 229.745 55.9777 232.35C55.2078 233.234 54.2249 233.84 53.1765 234.168C52.7178 234.316 52.2263 234.414 51.7349 234.447C51.3308 234.49 50.9213 234.485 50.5062 234.43C49.5397 234.316 48.606 233.988 47.7541 233.415C47.5139 233.262 47.2845 233.087 47.0661 232.89C44.7399 230.81 44.2976 227.402 45.8866 224.831C46.0723 224.525 46.2852 224.235 46.5255 223.962C46.9514 223.487 47.4429 223.078 47.9835 222.766C48.3329 222.548 48.6988 222.368 49.081 222.226C49.5397 222.062 50.0148 221.953 50.5062 221.898C52.2427 221.685 54.0447 222.193 55.4535 223.438Z" fill="#F9E181"/>
<path d="M47.9875 222.766L50.5103 234.43C49.5437 234.315 48.61 233.988 47.7581 233.414L45.8906 224.83C46.0763 224.524 46.2892 224.235 46.5295 223.962C46.9554 223.487 47.4469 223.077 47.9875 222.766Z" fill="#F9ECB8"/>
<path d="M50.5033 221.898L53.1736 234.168C52.7149 234.315 52.2234 234.414 51.732 234.446L49.0781 222.226C49.5368 222.062 50.0119 221.953 50.5033 221.898Z" fill="#F9ECB8"/>
<path fill-rule="evenodd" clip-rule="evenodd" d="M48.4431 225.24L48.5086 225.158C48.7489 224.885 49.0492 224.645 49.4096 224.437C49.77 224.219 50.1359 224.093 50.5072 224.061L50.6546 225.42C50.4144 225.42 50.1741 225.475 49.9338 225.584C49.6936 225.682 49.4915 225.83 49.3277 226.026L50.9659 227.484L51.015 227.452C51.2771 227.277 51.5447 227.113 51.8177 226.96C52.0908 226.807 52.3638 226.698 52.6368 226.632C52.9098 226.567 53.1883 226.567 53.4723 226.632C53.7562 226.687 54.0402 226.84 54.3241 227.091C54.5972 227.331 54.7937 227.594 54.9139 227.877C55.034 228.161 55.0941 228.456 55.0941 228.762C55.0941 229.068 55.0395 229.374 54.9303 229.679C54.8101 229.985 54.6518 230.28 54.4552 230.564L55.0449 231.088L54.6518 231.531L54.062 231.023C53.7453 231.383 53.3849 231.678 52.9808 231.907C52.5658 232.137 52.1181 232.262 51.6375 232.284L51.5229 230.859C51.8286 230.892 52.1235 230.848 52.4075 230.728C52.6914 230.608 52.9481 230.444 53.1774 230.236L51.4409 228.697L51.3918 228.729C51.1188 228.893 50.8512 229.046 50.5891 229.188C50.327 229.33 50.0594 229.423 49.7864 229.467C49.5134 229.51 49.2458 229.499 48.9837 229.434C48.7216 229.368 48.4485 229.21 48.1646 228.959C47.9243 228.74 47.7496 228.495 47.6404 228.222C47.5312 227.948 47.4766 227.665 47.4766 227.37C47.4766 227.075 47.5257 226.785 47.624 226.501C47.7332 226.207 47.8752 225.934 48.0499 225.682L47.5093 225.191L47.9025 224.749L48.4431 225.24ZM48.9509 226.485C48.8089 226.714 48.738 226.96 48.738 227.222C48.727 227.484 48.8253 227.708 49.0328 227.894C49.1639 228.003 49.284 228.074 49.3932 228.107C49.5134 228.129 49.628 228.134 49.7372 228.123C49.8465 228.101 49.9611 228.063 50.0813 228.009C50.2014 227.943 50.327 227.883 50.458 227.828L48.9509 226.485ZM53.5706 229.778C53.647 229.647 53.7071 229.51 53.7508 229.368C53.7945 229.226 53.8163 229.084 53.8163 228.942C53.8163 228.811 53.789 228.68 53.7344 228.549C53.6798 228.418 53.5924 228.298 53.4723 228.189C53.3521 228.08 53.2266 228.014 53.0955 227.992C52.9644 227.97 52.8334 227.976 52.7023 228.009C52.5822 228.052 52.4566 228.101 52.3256 228.156C52.2054 228.222 52.0853 228.293 51.9652 228.369L53.5706 229.778Z" fill="#F2BB16"/>
<path d="M56.1124 224.159L57.1609 224.536L56.3581 223.422C56.997 221.653 57.7834 220.391 57.7834 220.391C57.7834 220.391 58.8973 222.193 59.569 224.519L58.5533 226.125L59.8311 225.633C59.9621 226.272 60.0277 226.944 60.0277 227.599C60.0277 231.203 57.7834 233.447 57.7834 233.447C57.7834 233.447 55.5391 231.203 55.5391 227.599C55.5391 226.403 55.7848 225.224 56.1124 224.159Z" fill="#6ADB6A"/>
<path d="M57.7734 222.209V233.447" stroke="#40A87B" stroke-width="0.360818" stroke-linecap="round"/>
<path d="M58.5925 223.356L57.7734 224.585" stroke="#40A87B" stroke-width="0.360818" stroke-linecap="round"/>
<path d="M56.5 225.65L57.7778 226.747" stroke="#40A87B" stroke-width="0.360818" stroke-linecap="round"/>
<path d="M59.6246 226.747L57.7734 227.959" stroke="#40A87B" stroke-width="0.360818" stroke-linecap="round"/>
<path d="M56.0938 228.042L57.7811 229.057" stroke="#40A87B" stroke-width="0.360818" stroke-linecap="round"/>
<path d="M51.6081 232.464C55.1302 231.711 57.7841 233.447 57.7841 233.447C57.7841 233.447 56.064 236.101 52.5419 236.855C51.903 236.986 51.2314 237.051 50.5761 237.068L50.8054 235.724L49.4294 237.035C47.0213 236.888 45.0391 236.167 45.0391 236.167C45.0391 236.167 46.0875 235.135 47.6929 234.135L48.9379 234.692L48.3646 233.742C49.3311 233.202 50.445 232.71 51.6081 232.464Z" fill="#6ADB6A"/>
<path d="M46.7891 235.79L57.7812 233.447" stroke="#40A87B" stroke-width="0.360818" stroke-linecap="round"/>
<path d="M48.0938 236.347L49.1094 235.298" stroke="#40A87B" stroke-width="0.360818" stroke-linecap="round"/>
<path d="M49.8984 233.808L51.2417 234.84" stroke="#40A87B" stroke-width="0.360818" stroke-linecap="round"/>
<path d="M51.625 236.642L52.4277 234.594" stroke="#40A87B" stroke-width="0.360818" stroke-linecap="round"/>
<path d="M52.1484 232.907L53.4917 234.365" stroke="#40A87B" stroke-width="0.360818" stroke-linecap="round"/>
<path d="M69.9791 261.64C75.6964 264.818 77.269 270.372 77.269 270.372C77.269 270.372 71.732 271.961 66.0148 268.766C64.9663 268.177 63.967 267.472 63.0661 266.719L64.9827 265.113L61.5262 265.294C58.4136 262.197 56.5625 258.839 56.5625 258.839C56.5625 258.839 59.2327 258.708 62.6237 259.249L63.6558 261.509L63.9998 259.511C65.982 259.92 68.0952 260.592 69.9791 261.64Z" fill="#6ADB6A"/>
<path d="M59.4297 260.428L77.2694 270.372" stroke="#40A87B" stroke-width="0.463909" stroke-linecap="round"/>
<path d="M60.5312 262.755L63.2015 262.525" stroke="#40A87B" stroke-width="0.463909" stroke-linecap="round"/>
<path d="M66.0391 261.444L66.6452 264.442" stroke="#40A87B" stroke-width="0.463909" stroke-linecap="round"/>
<path d="M65.0234 267.374L68.5619 265.523" stroke="#40A87B" stroke-width="0.463909" stroke-linecap="round"/>
<path d="M70.1797 262.885L70.3107 266.489" stroke="#40A87B" stroke-width="0.463909" stroke-linecap="round"/>
<path d="M90.5583 259.511L90.8859 261.509L91.9343 259.249C95.309 258.708 97.9956 258.839 97.9956 258.839C97.9956 258.839 96.1444 262.197 93.0319 265.294L89.5754 265.113L91.492 266.719C90.5746 267.472 89.5917 268.177 88.5433 268.766C82.8261 271.961 77.2891 270.372 77.2891 270.372C77.2891 270.372 78.8453 264.818 84.5789 261.64C86.4628 260.592 88.5761 259.92 90.5583 259.511Z" fill="#6ADB6A"/>
<path d="M95.1288 260.428L77.2891 270.372" stroke="#40A87B" stroke-width="0.463909" stroke-linecap="round"/>
<path d="M94.0296 262.755L91.3594 262.525" stroke="#40A87B" stroke-width="0.463909" stroke-linecap="round"/>
<path d="M88.5358 261.444L87.9297 264.442" stroke="#40A87B" stroke-width="0.463909" stroke-linecap="round"/>
<path d="M89.5463 267.374L86.0078 265.523" stroke="#40A87B" stroke-width="0.463909" stroke-linecap="round"/>
<path d="M84.3889 262.885L84.2578 266.489" stroke="#40A87B" stroke-width="0.463909" stroke-linecap="round"/>
<path d="M84.7486 247.078L86.7144 249.207L86.2066 245.702C89.827 242.425 93.1525 240.492 93.1525 240.492C93.1525 240.492 93.5292 245.964 92.2023 252.09L87.9267 254.564L91.4651 254.99C90.9737 256.595 90.3348 258.217 89.5321 259.724C85.1418 267.981 77.2786 270.389 77.2786 270.389C77.2786 270.389 74.8704 262.526 79.2444 254.269C80.7023 251.55 82.7173 249.109 84.7486 247.078Z" fill="#40A87B"/>
<path d="M90.9522 244.636L77.2734 270.388" stroke="#6ADB6A" stroke-width="0.979364" stroke-linecap="round"/>
<path d="M91.4215 248.273L88.0469 250.075" stroke="#6ADB6A" stroke-width="0.979364" stroke-linecap="round"/>
<path d="M83.8047 250.976L85.4101 255.055" stroke="#6ADB6A" stroke-width="0.979364" stroke-linecap="round"/>
<path d="M89.6454 257.283L83.9609 257.807" stroke="#6ADB6A" stroke-width="0.979364" stroke-linecap="round"/>
<path d="M79.9844 255.923L82.6218 260.33" stroke="#6ADB6A" stroke-width="0.979364" stroke-linecap="round"/>
<path d="M75.0556 251.418L77.1361 252.286L75.629 249.96C77.1361 246.471 78.8725 244.014 78.8725 244.014C78.8725 244.014 80.9203 247.781 81.9687 252.549L79.7408 255.694L82.3782 254.842C82.5584 256.153 82.624 257.496 82.5584 258.839C82.1325 266.113 77.3327 270.372 77.3327 270.372C77.3327 270.372 73.057 265.588 73.483 258.315C73.6304 255.89 74.2693 253.515 75.0556 251.418Z" fill="#6ADB6A"/>
<path d="M78.6707 247.667L77.3438 270.372" stroke="#40A87B" stroke-width="0.463909" stroke-linecap="round"/>
<path d="M80.1926 250.091L78.3906 252.467" stroke="#40A87B" stroke-width="0.463909" stroke-linecap="round"/>
<path d="M75.6484 254.481L78.1221 256.84" stroke="#40A87B" stroke-width="0.463909" stroke-linecap="round"/>
<path d="M81.8505 257.07L77.9844 259.281" stroke="#40A87B" stroke-width="0.463909" stroke-linecap="round"/>
<path d="M74.5547 259.249L77.8474 261.51" stroke="#40A87B" stroke-width="0.463909" stroke-linecap="round"/>
<path d="M88.8221 308.164H65.8386L63.4141 277.203H91.2466L88.8221 308.164Z" fill="url(#paint0_linear_1217_13920)"/>
<path d="M75.3177 254.269C79.6916 262.526 77.2671 270.389 77.2671 270.389C77.2671 270.389 69.4039 267.981 65.03 259.724C64.2273 258.217 63.5884 256.595 63.0969 254.99L66.619 254.564L62.3434 252.09C61.0328 245.964 61.4096 240.492 61.4096 240.492C61.4096 240.492 64.7351 242.425 68.3554 245.702L67.8476 249.207L69.797 247.078C71.8448 249.109 73.8597 251.55 75.3177 254.269Z" fill="#40A87B"/>
<path d="M63.6094 244.636L77.2717 270.388" stroke="#6ADB6A" stroke-width="0.979364" stroke-linecap="round"/>
<path d="M63.1328 248.273L66.5075 250.075" stroke="#6ADB6A" stroke-width="0.979364" stroke-linecap="round"/>
<path d="M70.7538 250.976L69.1484 255.055" stroke="#6ADB6A" stroke-width="0.979364" stroke-linecap="round"/>
<path d="M64.9141 257.283L70.5985 257.807" stroke="#6ADB6A" stroke-width="0.979364" stroke-linecap="round"/>
<path d="M74.5906 255.923L71.9531 260.33" stroke="#6ADB6A" stroke-width="0.979364" stroke-linecap="round"/>
<path d="M83.471 177.569L83.815 178.617L84.1918 177.307C85.9938 176.733 87.4518 176.586 87.4518 176.586C87.4518 176.586 86.731 178.568 85.2894 180.501L83.4055 180.698L84.5686 181.402C84.1427 181.894 83.6676 182.352 83.1434 182.762C80.3094 184.973 77.1641 184.564 77.1641 184.564C77.1641 184.564 77.5572 181.435 80.3913 179.223C81.3414 178.486 82.439 177.962 83.471 177.569Z" fill="#6ADB6A"/>
<path d="M86.0266 177.684L77.1641 184.564" stroke="#40A87B" stroke-width="0.463909" stroke-linecap="round"/>
<path d="M85.6306 179.043L84.1562 179.142" stroke="#40A87B" stroke-width="0.463909" stroke-linecap="round"/>
<path d="M82.5194 178.782L82.4375 180.469" stroke="#40A87B" stroke-width="0.463909" stroke-linecap="round"/>
<path d="M83.5649 181.927L81.4844 181.207" stroke="#40A87B" stroke-width="0.463909" stroke-linecap="round"/>
<path d="M80.3906 179.912L80.62 181.878" stroke="#40A87B" stroke-width="0.463909" stroke-linecap="round"/>
<path d="M74.149 179.092C76.9011 181.419 77.1632 184.564 77.1632 184.564C77.1632 184.564 74.0179 184.842 71.2658 182.516C70.758 182.09 70.2993 181.615 69.8897 181.107L71.0856 180.452L69.2017 180.174C67.8584 178.175 67.2031 176.16 67.2031 176.16C67.2031 176.16 68.6611 176.373 70.4303 177.028L70.758 178.355L71.1511 177.307C72.1668 177.749 73.248 178.323 74.149 179.092Z" fill="#6ADB6A"/>
<path d="M68.5781 177.324L77.1622 184.564" stroke="#40A87B" stroke-width="0.463909" stroke-linecap="round"/>
<path d="M68.9375 178.7L70.3955 178.864" stroke="#40A87B" stroke-width="0.463909" stroke-linecap="round"/>
<path d="M72.0547 178.568V180.256" stroke="#40A87B" stroke-width="0.463909" stroke-linecap="round"/>
<path d="M70.875 181.664L72.9719 181.042" stroke="#40A87B" stroke-width="0.463909" stroke-linecap="round"/>
<path d="M74.1316 179.797L73.8203 181.747" stroke="#40A87B" stroke-width="0.463909" stroke-linecap="round"/>
<path d="M92.1019 280.07H62.5657L59.4531 269.324H95.2308L92.1019 280.07Z" fill="url(#paint1_linear_1217_13920)"/>
<path opacity="0.2" d="M63.6484 280.07H91.0223L64.0416 285.099L63.6484 280.07Z" fill="#333333"/>
<path d="M95.2286 269.324L94.5406 271.683L64.7422 269.324H95.2286Z" fill="white"/>
<path d="M275.294 188.693C275.589 188.758 275.769 189.07 275.687 189.364C275.605 189.676 275.294 189.856 274.999 189.774C274.704 189.692 274.524 189.381 274.606 189.086C274.688 188.775 274.983 188.611 275.294 188.693Z" stroke="white" stroke-width="0.463909"/>
<path d="M276.79 194.901L272.367 198.685L271.352 196.916L276.119 194.082L276.79 194.901Z" fill="white"/>
<path d="M269.304 194.492L271.352 196.916L270.107 198.407L268.812 194.934L269.304 194.492Z" fill="white"/>
<path d="M271.598 184.466C272.024 184.679 272.155 185.318 271.86 185.891C271.582 186.464 271.008 186.743 270.566 186.53C270.14 186.317 270.009 185.678 270.288 185.105C270.582 184.548 271.156 184.253 271.598 184.466Z" stroke="white" stroke-width="0.670091"/>
<path d="M139.923 128.163L139.891 121.577L147.623 122.707L139.923 128.163Z" fill="#2D628C"/>
<path d="M181.781 96.8729L182.486 94.8416C182.486 94.8416 183.747 92.8758 184.107 92.1222C184.32 91.6963 185.008 90.5987 185.189 90.4677C185.336 90.353 185.746 90.4021 185.778 90.5659C185.828 90.7953 185.484 92.0075 185.352 92.4826C185.238 92.9413 184.877 94.3174 184.877 94.3174C184.877 94.3174 187.515 91.9092 188.35 91.0574C188.825 90.5823 190.152 89.108 190.496 89.4192C190.775 89.6486 189.595 91.3031 189.186 91.8765C188.825 92.3843 187.744 93.9733 187.744 93.9733C187.744 93.9733 189.579 92.0567 190.201 91.4014C190.644 90.9427 191.807 89.3865 192.216 89.7141C192.61 90.0581 191.365 91.4997 191.004 92.0239C190.48 92.7775 188.94 95.0218 188.94 95.0218C188.94 95.0218 190.922 93.056 191.578 92.4007C191.938 92.0403 192.888 90.8281 193.248 91.1557C193.609 91.4997 192.495 92.6137 192.184 93.0232C191.627 93.7276 189.988 95.8572 189.988 95.8572C189.988 95.8572 191.446 94.4812 191.938 94.0225C192.151 93.8259 192.79 93.2525 192.97 93.4655C193.232 93.744 192.413 94.5795 192.184 94.8907L190.201 97.4299C190.038 97.6374 189.852 97.8176 189.644 97.9705L186.286 101.345L181.781 96.8729Z" fill="#FDAE97"/>
<path d="M155.708 120.479L181.886 137.074C182.64 137.385 183.361 137.827 183.999 138.401C186.997 141.12 187.21 145.772 184.491 148.77C181.772 151.768 177.119 151.981 174.121 149.262L143.93 133.437L155.708 120.479Z" fill="#035EA2"/>
<path d="M184.412 176.586H172.207L171.781 143.823C171.781 139.777 175.058 136.484 179.104 136.484C183.167 136.484 186.443 139.777 186.443 143.823C186.443 144.167 186.41 144.511 186.361 144.855L184.412 176.586Z" fill="#035EA2"/>
<path d="M142.847 121.74C146.32 118.841 151.513 119.299 154.413 122.772L170.811 142.381C173.71 145.854 173.252 151.047 169.779 153.947C166.322 156.846 161.113 156.371 158.23 152.915L141.815 133.289C138.915 129.833 139.391 124.623 142.847 121.74Z" fill="#096DB7"/>
<path d="M155.248 88.9933L162.996 92.499L161.932 124.017L139.882 124.361L136.523 91.9256L147.303 88.4199L155.248 88.9933Z" fill="#E5F0F8"/>
<path d="M155.233 84.4553V89.3699C155.233 89.3699 154.939 90.4347 152.449 90.4511C149.942 90.4511 147.305 88.7965 147.305 88.7965L148.075 78.0337L155.233 84.4553Z" fill="#FDAE97"/>
<path d="M155.252 88.6984L150.141 83.3907L155.252 83.3252V88.6984Z" fill="#E89780"/>
<path d="M157.327 74.5447C157.327 74.5447 157.327 77.5589 157.327 79.7049V81.4741C157.327 82.8666 156.934 84.9471 155.361 85.4221C153.805 85.9136 151.642 85.2583 150.135 83.6201C148.628 81.982 145.286 74.5938 149.922 71.8581C154.575 69.1223 157.228 73.8239 157.327 74.5447Z" fill="#FDAE97"/>
<path d="M167.244 111.567L181.463 95.5625L181.857 95.9884L185.346 99.6743L187.23 101.673L173.436 117.645C171.864 118.972 169.505 119.021 167.867 117.678C166.016 116.171 165.737 113.419 167.244 111.567Z" fill="#FFC514"/>
<path d="M172.686 147.968L164.626 179.683H151.914C151.914 179.683 156.222 154.701 158.27 145.314C159.155 141.284 161.383 139.597 165.429 139.597C169.475 139.597 172.768 142.873 172.768 146.919C172.768 147.28 172.735 147.624 172.686 147.968Z" fill="#096DB7"/>
<path d="M172.959 117.891C170.535 119.267 167.422 118.399 166.046 115.974L156.889 99.8383C155.512 97.4138 156.381 94.3013 158.805 92.9252C161.23 91.5491 164.342 92.401 165.718 94.8419L174.876 110.961C176.252 113.402 175.384 116.515 172.959 117.891Z" fill="#FFC514"/>
<path d="M150.417 71.5956C150.417 71.5956 156.036 69.0072 157.33 70.7109C158.641 72.4146 156.478 73.0044 156.478 73.0044C156.478 73.0044 159.148 72.6931 159.05 74.4951C158.952 76.3135 152.235 73.8399 152.235 73.8399C152.235 73.8399 154.463 74.8555 153.169 75.6582C151.891 76.4445 150.417 75.4125 150.417 75.4125C150.417 75.4125 149.139 76.1333 149.352 79.4915C149.549 82.8334 147.55 83.587 147.55 83.587C147.55 83.587 147.796 78.5086 146.813 77.149C145.83 75.7893 147.272 70.7601 150.417 71.5956Z" fill="#322A28"/>
<path d="M149.673 80.2615C150.213 81.1134 150.361 81.7195 149.689 82.1454C149.017 82.5878 147.903 82.4403 147.363 81.5885C146.806 80.7366 146.921 79.6882 147.592 79.2623C148.264 78.8363 149.132 79.4097 149.673 80.2615Z" fill="#FDAE97"/>
<path d="M147.914 80.1961C147.914 80.1961 148.602 80.0978 149.077 80.9824C149.077 80.9824 148.635 80.8842 148.111 80.9824" stroke="#E89780" stroke-width="0.412364"/>
<path d="M153.533 77.8867C153.746 77.8867 153.926 78.1488 153.926 78.4765C153.926 78.8041 153.746 79.0662 153.533 79.0662C153.336 79.0662 153.156 78.8041 153.156 78.4765C153.156 78.1488 153.336 77.8867 153.533 77.8867Z" fill="#2C3447"/>
<path d="M153.398 82.1621C153.398 82.1621 153.972 83.2597 155.397 82.9976" stroke="#2C3447" stroke-width="0.463909"/>
<path d="M154.776 78.7056L155.481 80.7697C155.563 80.9826 155.481 81.212 155.301 81.3266L154.711 81.7034" stroke="#2C3447" stroke-width="0.463909"/>
<path d="M152.57 77.4933C152.57 77.4933 153.357 76.9363 154.127 77.2967" stroke="#2C3447" stroke-width="0.463909"/>
<path d="M157.09 78.4765C157.09 78.8041 156.91 79.0662 156.697 79.0662C156.501 79.0662 156.32 78.8041 156.32 78.4765C156.32 78.1488 156.501 77.8867 156.697 77.8867C156.91 77.8867 157.09 78.1488 157.09 78.4765Z" fill="#2C3447"/>
<path d="M157.428 77.4607C157.428 77.4607 156.871 76.9365 156.117 77.2969" stroke="#2C3447" stroke-width="0.463909"/>
<path d="M131.747 119.742C129.06 119.037 127.422 116.253 128.11 113.55L132.779 95.5952C133.467 92.8922 136.252 91.254 138.955 91.9584C141.658 92.6628 143.296 95.4477 142.592 98.1507L137.939 116.105C137.235 118.792 134.45 120.43 131.747 119.742Z" fill="#FFC514"/>
<path d="M153.763 80.6223C153.664 80.9172 153.107 80.9991 152.518 80.8025C151.911 80.5895 151.518 80.1964 151.617 79.9015C151.715 79.5903 152.272 79.5247 152.878 79.7213C153.468 79.9179 153.861 80.3111 153.763 80.6223Z" fill="#E89780"/>
<path d="M157.332 79.7046V80.8513C156.857 80.9168 156.447 80.7858 156.382 80.5237C156.316 80.2288 156.742 79.8684 157.332 79.7046Z" fill="#E89780"/>
<path d="M173.684 181.5L173.422 176.586H183.333L183.497 181.5H173.684Z" fill="#FDAE97"/>
<path d="M183.431 179.436L173.422 176.586H183.333L183.431 179.436Z" fill="#E89780"/>
<path d="M151.836 184.598L152.655 179.683H162.32L161.092 184.598H151.836Z" fill="#FDAE97"/>
<path d="M153.989 91.5487L153.399 92.2695H152.695L151.859 91.6633L152.023 91.3193H153.809L153.989 91.5487Z" fill="#F74242"/>
<path d="M161.732 182.042L152.656 179.683H162.321L161.732 182.042Z" fill="#E89780"/>
<path d="M147.339 88.3706L152.975 90.4511L151.959 92.7937L147.094 88.8784L147.339 88.3706Z" fill="white"/>
<path d="M155.237 88.9443L155.516 89.4849L154.058 92.5811L152.977 90.4515L155.237 88.9443Z" fill="white"/>
<path d="M153.395 92.27L156.065 113.026L153.985 115.712L151.266 113.288L152.691 92.27H153.395Z" fill="#F74242"/>
<path d="M141.559 102.509L138.594 114.779" stroke="#2C3447" stroke-width="0.463909"/>
<path d="M162.43 109.962L162.675 102.509" stroke="#2C3447" stroke-width="0.463909"/>
<path d="M161.108 184.597H161.125C162.992 184.597 164.385 186.35 163.975 188.185H150.984L151.853 184.597H161.108Z" fill="#403534"/>
<path d="M183.492 181.501C185.507 181.501 187.162 183.074 187.26 185.072L187.277 185.4H173.68V181.501H183.492Z" fill="#403534"/>
<path d="M183.695 182.271C183.695 182.271 183.99 180.977 184.727 181.337C185.448 181.681 183.744 182.32 183.744 182.32L184.76 183.025" stroke="white" stroke-width="0.257727" stroke-linecap="round" stroke-linejoin="round"/>
<path d="M182.629 183.025L183.645 182.32C183.645 182.32 181.941 181.681 182.662 181.337C183.399 180.977 183.694 182.271 183.694 182.271" stroke="white" stroke-width="0.257727" stroke-linecap="round" stroke-linejoin="round"/>
<path d="M161.016 185.531C161.016 185.531 161.31 184.221 162.031 184.581C162.768 184.925 161.048 185.564 161.048 185.564L162.064 186.269" stroke="white" stroke-width="0.257727" stroke-linecap="round" stroke-linejoin="round"/>
<path d="M159.956 186.269L160.971 185.564C160.971 185.564 159.251 184.925 159.988 184.581C160.709 184.221 161.02 185.531 161.02 185.531" stroke="white" stroke-width="0.257727" stroke-linecap="round" stroke-linejoin="round"/>
<path d="M163.001 92.499C163.001 92.499 163.951 117.842 165.884 120.839C167.817 123.854 169.406 129.161 169.406 129.161C163.754 127.49 160.969 127.277 160.969 127.277C158.25 124.771 158.315 111.698 157.447 103.311C156.595 94.9235 156.055 89.3701 156.055 89.3701L163.001 92.499Z" fill="#FFC514"/>
<path d="M156.511 94.0718L157.166 100.608L155.086 98.8225L155.233 94.1865L156.511 94.0718Z" fill="#E5F0F8"/>
<path d="M145.386 89.0425C145.386 89.0425 147.466 98.0361 148.482 106.374C149.514 114.713 149.17 122.772 151.791 127.671C151.791 127.671 141.258 129.555 141.274 133.814C141.274 133.814 138.309 130.537 138.276 126.049C138.26 121.56 136.523 91.9257 136.523 91.9257L145.386 89.0425Z" fill="#FFC514"/>
<path d="M179.985 136.337H156.117L162.342 118.464H186.21L179.985 136.337Z" fill="#A5BBD6"/>
<path d="M156.368 135.468L148.57 128.572H171.652L180.253 135.468H156.368Z" fill="#89A5C7"/>
<path d="M179.532 135.943H155.664L161.889 118.071H185.774L179.532 135.943Z" fill="#A5BBD6"/>
<path d="M185.774 118.071L186.216 118.464H162.348L156.123 136.336L155.664 135.943L161.889 118.071H185.774Z" fill="#89A5C7"/>
<path d="M156.414 135.468L156.119 136.337L148.305 129.44L148.567 128.572L156.414 135.468Z" fill="#586773"/>
<path d="M174.807 127.605C174.807 128.26 173.627 128.784 172.169 128.784C170.711 128.784 169.516 128.26 169.516 127.605C169.516 126.966 170.711 126.442 172.169 126.442C173.627 126.442 174.807 126.966 174.807 127.605Z" fill="#89A5C7"/>
<path d="M153.562 123.247L157.116 124.099L161.982 128.047C162.146 128.178 162.178 128.424 162.047 128.588L161.884 128.834C161.753 128.997 161.523 129.047 161.359 128.948L158.28 127.13L159.361 129.374C159.475 129.62 159.754 129.751 160.032 129.686L161.933 129.145C162.178 129.079 162.391 129.309 162.326 129.554L161.589 131.913C161.425 132.47 161.032 132.913 160.508 133.158L157.166 134.715C156.822 134.879 156.412 134.813 156.134 134.534C154.905 133.339 151.498 130.062 149.876 129.21H149.859L153.398 123.133C153.496 123.215 153.562 123.247 153.562 123.247Z" fill="#FDAE97"/>
<path d="M136.163 110.88L154.494 122.232L149.596 130.669L129.807 119.316C127.825 118.006 127.415 115.073 128.906 112.829C130.396 110.568 134.164 109.569 136.163 110.88Z" fill="#FFC514"/>
<path d="M149.631 119.218L138.852 112.551L141.194 104" stroke="#322A28" stroke-width="0.670091"/>
<path d="M195.832 116.744H193.047V109.11H195.832V116.744Z" fill="#1EA8FD"/>
<path d="M200.246 116.744H197.461V105.178H200.246V116.744Z" fill="#1EA8FD"/>
<path d="M204.676 116.744H201.891V99.3467H204.676V116.744Z" fill="#1EA8FD"/>
<path d="M209.114 116.744H206.312V102.951H209.114V116.744Z" fill="#6FC8FF"/>
<path d="M213.536 116.744H210.734V104.458H213.536V116.744Z" fill="#1EA8FD"/>
<path d="M217.958 116.744H215.156V101.476H217.958V116.744Z" fill="#6FC8FF"/>
<path d="M222.379 116.744H219.578V98.085H222.379V116.744Z" fill="#6FC8FF"/>
<path d="M120.089 101.64L100.234 90.1725L120.089 78.7217L120.548 79.508L102.053 90.1725L120.548 100.87L120.089 101.64Z" fill="#E5F0F8"/>
<path d="M103.765 90.1889C103.765 91.6305 102.602 92.7936 101.144 92.7936C99.7022 92.7936 98.5391 91.6305 98.5391 90.1889C98.5391 88.731 99.7022 87.5679 101.144 87.5679C102.602 87.5679 103.765 88.731 103.765 90.1889Z" fill="#E5F0F8"/>
<path d="M122.703 79.1152C122.703 80.5568 121.524 81.7199 120.082 81.7199C118.64 81.7199 117.461 80.5568 117.461 79.1152C117.461 77.6572 118.64 76.4941 120.082 76.4941C121.524 76.4941 122.703 77.6572 122.703 79.1152Z" fill="#E5F0F8"/>
<path d="M122.703 101.247C122.703 102.705 121.524 103.868 120.082 103.868C118.64 103.868 117.461 102.705 117.461 101.247C117.461 99.8057 118.64 98.6426 120.082 98.6426C121.524 98.6426 122.703 99.8057 122.703 101.247Z" fill="#E5F0F8"/>
<path d="M132.057 286.754H132.073L121.261 304.053L110.466 286.754C109.221 284.771 108.5 282.462 108.5 279.955C108.5 272.911 114.217 267.194 121.261 267.194C128.322 267.194 134.039 272.911 134.039 279.955C134.039 282.462 133.302 284.771 132.057 286.754Z" fill="#F74242"/>
<path d="M121.26 290.652C115.362 290.652 110.562 285.852 110.562 279.955C110.562 274.058 115.362 269.258 121.26 269.258C127.157 269.258 131.957 274.058 131.957 279.955C131.957 285.852 127.157 290.652 121.26 290.652Z" fill="white"/>
<path d="M128.513 274.008L120.994 286.966L119.897 286.999L118.848 287.032L114.523 280.479L116.637 279.087L119.831 283.936L119.88 283.838L126.318 272.747L128.513 274.008Z" fill="#BBDBF3"/>
<path d="M309.251 324H200.749C198.137 324 196 321.355 196 318.063V196.938C196 193.672 198.137 191 200.749 191H309.251C311.884 191 314 193.672 314 196.938V318.063C314 321.355 311.884 324 309.251 324Z" fill="url(#paint2_linear_1217_13920)"/>
<path d="M323.998 211.16H306.891V209.444H323.998V211.16Z" fill="#B8D6FF"/>
<path d="M326.559 216.487H306.891V214.771H326.559V216.487Z" fill="#B8D6FF"/>
<path d="M317.034 221.763H306.867V220.047H317.034V221.763Z" fill="#B8D6FF"/>
<path d="M322.54 227.038H306.867V225.322H322.54V227.038Z" fill="#B8D6FF"/>
<path d="M205.961 237.819H205.68V207.421H205.961V237.819Z" fill="#F0F6FF"/>
<path d="M226.555 237.819H226.273V207.421H226.555V237.819Z" fill="#F0F6FF"/>
<path d="M247.159 237.819H246.852V207.421H247.159V237.819Z" fill="#F0F6FF"/>
<path d="M267.75 237.819H267.469V207.421H267.75V237.819Z" fill="#F0F6FF"/>
<path d="M288.352 237.819H288.07V207.421H288.352V237.819Z" fill="#F0F6FF"/>
<path d="M209.106 240.662H205.828V239.612H209.106V240.662Z" fill="#F0F6FF"/>
<path d="M210.745 204.477H205.828V203.683H210.745V204.477Z" fill="#F0F6FF"/>
<path d="M212.819 205.936H205.828V205.142H212.819V205.936Z" fill="#F0F6FF"/>
<path d="M231.991 204.477H226.203V203.683H231.991V204.477Z" fill="#F0F6FF"/>
<path d="M229.916 205.936H226.203V205.142H229.916V205.936Z" fill="#F0F6FF"/>
<path d="M250.757 204.477H247.172V203.683H250.757V204.477Z" fill="#F0F6FF"/>
<path d="M251.346 205.936H247.172V205.142H251.346V205.936Z" fill="#F0F6FF"/>
<path d="M272.982 204.477H267.758V203.683H272.982V204.477Z" fill="#F0F6FF"/>
<path d="M271.932 205.936H267.758V205.142H271.932V205.936Z" fill="#F0F6FF"/>
<path d="M291.351 204.477H288.227V203.683H291.351V204.477Z" fill="#F0F6FF"/>
<path d="M290.711 205.936H288.227V205.142H290.711V205.936Z" fill="#F0F6FF"/>
<path d="M229.708 240.662H226.43V239.612H229.708V240.662Z" fill="#F0F6FF"/>
<path d="M250.45 240.662H247.172V239.612H250.45V240.662Z" fill="#F0F6FF"/>
<path d="M271.036 240.662H267.758V239.612H271.036V240.662Z" fill="#F0F6FF"/>
<path d="M291.63 240.662H288.352V239.612H291.63V240.662Z" fill="#F0F6FF"/>
<path d="M281.068 228.78C274.64 228.78 269.058 226.014 263.244 223.12C256.048 219.535 248.621 215.847 238.71 216.846C232.385 217.511 228.416 220.072 224.933 222.352C221.757 224.4 218.761 226.219 214.689 226.372C208.133 226.628 205.854 223.811 205.828 223.658V221.865C205.828 221.891 207.262 225.015 214.689 224.989C218.351 224.964 221.04 223.222 224.164 221.199C227.801 218.843 231.924 216.154 238.582 215.488C248.877 214.438 256.483 218.229 263.859 221.865C271.542 225.706 278.917 229.292 288.213 226.193V227.653C285.55 228.549 283.424 228.78 281.068 228.78Z" fill="url(#paint3_linear_1217_13920)"/>
<path d="M242.501 228.446C237.763 228.446 233.998 225.245 230.311 222.121C227.519 219.765 224.625 217.332 221.296 216.154C211.078 212.517 205.854 219.15 205.828 219.227V217.204C205.879 217.127 206.801 215.923 209.49 214.771C211.949 213.721 216.072 212.876 221.732 214.848C225.342 216.102 228.313 218.638 231.207 221.071C237.071 226.039 242.142 230.341 250.926 223.606C257.585 218.535 263.859 213.67 270.031 211.903C276.049 210.161 282.349 211.442 288.239 217.332L288.213 219.176C275.69 206.601 265.037 214.566 251.746 224.707C248.237 227.396 245.215 228.446 242.501 228.446Z" fill="url(#paint4_linear_1217_13920)"/>
<path d="M310.942 300.958H236.086V299.191H310.942V300.958Z" fill="white"/>
<path d="M316.986 305.056H236.086V303.289H316.986V305.056Z" fill="white"/>
<path d="M288.585 309.153H236.086V307.386H288.585V309.153Z" fill="white"/>
<path d="M278.213 305.056H236.086V303.289H278.213V305.056Z" fill="url(#paint5_linear_1217_13920)"/>
<g filter="url(#filter0_d_1217_13920)">
<path d="M286.646 333H209.38C206.408 333 204 330.516 204 327.418V254.582C204 251.511 206.408 249 209.38 249H286.646C289.617 249 292 251.511 292 254.582V327.418C292 330.516 289.617 333 286.646 333Z" fill="white"/>
</g>
<path d="M270.379 279.447L266.691 287.283L254.424 288.128L250.455 293.993L240.852 293.737L240.877 293.276L250.199 293.506L254.168 287.668L266.384 286.848L270.072 279.012L281.391 277.142L281.468 277.629L270.379 279.447Z" fill="#4AAFFF"/>
<path d="M266.234 260.419C266.234 259.651 266.849 259.011 267.617 259.011H279.833C280.601 259.011 281.241 259.651 281.241 260.419C281.241 261.188 280.601 261.802 279.833 261.802H267.617C266.849 261.802 266.234 261.188 266.234 260.419Z" fill="#1487E3"/>
<path d="M266.234 265.285C266.234 264.517 266.849 263.876 267.617 263.876H279.833C280.601 263.876 281.241 264.517 281.241 265.285C281.241 266.053 280.601 266.668 279.833 266.668H267.617C266.849 266.668 266.234 266.053 266.234 265.285Z" fill="#4AAFFF"/>
<path d="M266.234 270.151C266.234 269.382 266.849 268.742 267.617 268.742H279.833C280.601 268.742 281.241 269.382 281.241 270.151C281.241 270.919 280.601 271.559 279.833 271.559H267.617C266.849 271.559 266.234 270.919 266.234 270.151Z" fill="#4AAFFF"/>
<path d="M256.793 265.285H212.95C212.156 265.285 211.516 264.645 211.516 263.826V260.01C211.516 259.216 212.156 258.576 212.95 258.576H256.793C257.612 258.576 258.253 259.216 258.253 260.01V263.826C258.253 264.645 257.612 265.285 256.793 265.285Z" fill="#FFC514"/>
<path d="M229.065 274.826H212.071C211.764 274.826 211.516 274.187 211.516 273.394V269.584C211.516 268.791 211.764 268.152 212.071 268.152H229.065C229.383 268.152 229.631 268.791 229.631 269.584V273.394C229.631 274.187 229.383 274.826 229.065 274.826Z" fill="#0BD25F"/>
<path fill-rule="evenodd" clip-rule="evenodd" d="M277.393 313.175C273.321 316.145 267.994 316.145 264.025 313.533C263.077 312.918 262.207 312.15 261.438 311.254C261.268 311.049 261.105 310.844 260.952 310.639C259.39 308.488 258.647 305.978 258.673 303.52C258.749 299.96 260.414 296.452 263.487 294.198C264.511 293.455 265.613 292.892 266.765 292.508C271.477 290.971 276.855 292.533 279.928 296.733C283.77 301.983 282.643 309.333 277.393 313.175ZM277.547 298.475C275.242 295.325 271.221 294.147 267.687 295.299C266.816 295.581 265.997 296.016 265.229 296.58C262.924 298.27 261.669 300.882 261.618 303.571C261.592 305.415 262.155 307.284 263.333 308.898C263.453 309.051 263.572 309.205 263.692 309.359C264.255 310.05 264.921 310.614 265.638 311.075C268.609 313.021 272.604 313.021 275.651 310.793C279.57 307.925 280.44 302.419 277.547 298.475Z" fill="#4AAFFF"/>
<path d="M278.363 321.088H221.484V318.809H278.363V321.088Z" fill="#B59074"/>
<defs>
<filter id="filter0_d_1217_13920" x="194" y="242" width="108" height="104" filterUnits="userSpaceOnUse" color-interpolation-filters="sRGB">
<feFlood flood-opacity="0" result="BackgroundImageFix"/>
<feColorMatrix in="SourceAlpha" type="matrix" values="0 0 0 0 0 0 0 0 0 0 0 0 0 0 0 0 0 0 127 0" result="hardAlpha"/>
<feOffset dy="3"/>
<feGaussianBlur stdDeviation="5"/>
<feComposite in2="hardAlpha" operator="out"/>
<feColorMatrix type="matrix" values="0 0 0 0 0 0 0 0 0 0 0 0 0 0 0 0 0 0 0.1 0"/>
<feBlend mode="normal" in2="BackgroundImageFix" result="effect1_dropShadow_1217_13920"/>
<feBlend mode="normal" in="SourceGraphic" in2="effect1_dropShadow_1217_13920" result="shape"/>
</filter>
<linearGradient id="paint0_linear_1217_13920" x1="63.4141" y1="292.683" x2="91.2466" y2="292.683" gradientUnits="userSpaceOnUse">
<stop offset="0.333333" stop-color="#FF8534"/>
<stop offset="1" stop-color="#FF630C"/>
</linearGradient>
<linearGradient id="paint1_linear_1217_13920" x1="59.4531" y1="274.697" x2="95.2308" y2="274.697" gradientUnits="userSpaceOnUse">
<stop offset="0.333333" stop-color="#FF8534"/>
<stop offset="1" stop-color="#FF630C"/>
</linearGradient>
<linearGradient id="paint2_linear_1217_13920" x1="7653.6" y1="59495.7" x2="63849.2" y2="6118.02" gradientUnits="userSpaceOnUse">
<stop offset="0.317708" stop-color="#319CFF"/>
<stop offset="0.723958" stop-color="#244BB4"/>
</linearGradient>
<linearGradient id="paint3_linear_1217_13920" x1="27417.6" y1="4336.84" x2="53921" y2="4336.84" gradientUnits="userSpaceOnUse">
<stop stop-color="#FBBB61"/>
<stop offset="1" stop-color="#EE4062"/>
</linearGradient>
<linearGradient id="paint4_linear_1217_13920" x1="27426.1" y1="5215.45" x2="53945.9" y2="5215.45" gradientUnits="userSpaceOnUse">
<stop stop-color="#42C5D7"/>
<stop offset="1" stop-color="#4F6FB5"/>
</linearGradient>
<linearGradient id="paint5_linear_1217_13920" x1="23292.4" y1="1462.3" x2="10965.9" y2="1462.3" gradientUnits="userSpaceOnUse">
<stop stop-color="#FBBB61"/>
<stop offset="1" stop-color="#EE4062"/>
</linearGradient>
</defs>
</svg>
