<svg width="500" height="250" viewBox="0 0 500 250" fill="none" xmlns="http://www.w3.org/2000/svg">
<path d="M377.861 175.361C377.962 184.679 377.703 194.517 372.696 202.52C366.149 212.988 352.739 217.976 339.976 218.579C327.214 219.168 314.61 216.14 302.005 214.167C289.387 212.207 276.005 211.372 264.221 216.113L226.552 214.879C223.344 211.563 218.135 210.659 213.459 211.235C208.768 211.824 204.38 213.674 199.905 215.14C181.157 221.279 159.473 220.333 142.481 210.59C125.473 200.862 114.15 181.87 116.25 163.097C118.639 141.721 136.826 123.798 137.517 102.312C138.034 85.8416 128.063 69.974 130.265 53.6404C131.473 44.7337 136.265 36.5669 142.265 29.6334C150.955 19.6305 163.502 11.45 177.114 12.0255C185.962 12.4092 194.164 16.3829 202.854 17.9313C212.61 19.6716 223.157 18.1643 231.387 12.9025C236.164 9.84678 240.092 5.62636 245.171 3.07767C250.624 0.350845 257.013 -0.238368 263.156 0.0767929C275.933 0.707114 288.466 5.02345 298.725 12.2996C302.48 14.9579 305.933 18.0135 309.833 20.4663C328.969 32.4972 356.681 29.1401 373.127 44.35C386.624 56.8194 387.027 78.634 377.257 93.9262C373.041 100.545 367.055 106.574 365.832 114.22C364.408 123.099 369.732 131.485 372.926 139.926C377.17 151.19 377.732 163.385 377.861 175.361Z" fill="#F0F6FF"/>
<path d="M200.979 175.875L190.705 187.985C182.321 190.013 165.992 171.081 165.992 171.081L182.376 155.724C186.705 162.82 194.404 167.218 199.541 169.519C202.02 170.629 202.746 173.807 200.979 175.875Z" fill="#FEFEFE"/>
<path d="M182.351 160.204L169.68 172.601" stroke="#105E80" stroke-width="0.634557"/>
<path d="M184.804 162.094L172.133 174.492" stroke="#105E80" stroke-width="0.634557"/>
<path d="M187.236 163.998L174.578 176.382" stroke="#105E80" stroke-width="0.634557"/>
<path d="M189.687 165.889L177.016 178.286" stroke="#105E80" stroke-width="0.634557"/>
<path d="M192.148 167.779L179.477 180.176" stroke="#105E80" stroke-width="0.634557"/>
<path d="M194.593 169.683L181.922 182.067" stroke="#105E80" stroke-width="0.634557"/>
<path d="M197.047 171.574L184.375 183.971" stroke="#105E80" stroke-width="0.634557"/>
<path d="M199.286 173.259L187.039 186.067" stroke="#105E80" stroke-width="0.634557"/>
<path d="M200.984 175.875C200.984 175.875 200.134 172.245 198.367 172.121C199.052 169.971 199.545 169.519 199.545 169.519C202.025 170.628 202.751 173.806 200.984 175.875Z" fill="#ABD1ED"/>
<path d="M245.927 201.41L210.734 188.958L245.927 176.519L280.119 188.958L245.927 201.41Z" fill="#FFC514"/>
<path d="M245.927 201.41L210.734 188.958L245.927 176.519L280.119 188.958L245.927 201.41Z" fill="black" fill-opacity="0.2"/>
<path d="M280.114 188.958L245.922 201.41V176.519L280.114 188.958Z" fill="#FFC514"/>
<path d="M280.114 188.958L245.922 201.41V176.519L280.114 188.958Z" fill="black" fill-opacity="0.2"/>
<path d="M245.922 243.575V201.41L280.114 188.958V231.136L245.922 243.575Z" fill="#FFC514"/>
<path d="M245.922 243.575V201.41L280.114 188.958V231.136L245.922 243.575Z" fill="black" fill-opacity="0.2"/>
<path d="M248.773 239.136V227.807L257.965 224.465V235.794L248.773 239.136Z" fill="#F4B25F"/>
<path d="M269.739 229.164V231.548L260.547 234.89V232.507L269.739 229.164Z" fill="#F4B25F"/>
<path d="M257.388 216.369L245.922 201.41L280.114 188.958L291.567 203.917L257.388 216.369Z" fill="#FFC514"/>
<path d="M257.388 216.369L245.922 201.41L280.114 188.958L291.567 203.917L257.388 216.369Z" fill="black" fill-opacity="0.25"/>
<path d="M210.734 231.136V188.958L245.927 201.41V243.575L210.734 231.136Z" fill="#FFC514"/>
<path d="M201.477 202.67L210.737 188.958L245.93 201.41L236.669 215.109L201.477 202.67Z" fill="#FFC514"/>
<path d="M201.477 202.67L210.737 188.958L245.93 201.41L236.669 215.109L201.477 202.67Z" fill="black" fill-opacity="0.05"/>
<path d="M210.734 188.958C210.734 188.958 245.927 201.41 236.625 139.285L245.927 136.545V201.41L210.734 188.958Z" fill="#FEFEFE"/>
<path d="M245.422 201.41V136.545L254.148 138.258C245.422 201.41 280.614 188.958 280.614 188.958L245.422 201.41Z" fill="#EAEAEB"/>
<path d="M236.909 125.559L231.046 142.861C230.607 145.82 226.525 146.286 225.429 143.505L214.758 118.299L225.142 101.312C227.922 117.093 233.991 123.381 236.909 125.559Z" fill="url(#paint0_linear_1799_11786)"/>
<path d="M276.095 118.299L265.409 143.505C264.313 146.286 260.245 145.82 259.793 142.861L253.93 125.559C256.848 123.381 262.93 117.093 265.711 101.312L276.095 118.299Z" fill="url(#paint1_linear_1799_11786)"/>
<path d="M237.351 124.258L234.474 132.751C230.912 129.641 225.021 122.299 222.062 106.353L227.515 97.4351L237.351 124.258Z" fill="url(#paint2_linear_1799_11786)"/>
<path d="M268.78 106.353C265.821 122.299 259.944 129.641 256.369 132.751L253.492 124.258L263.342 97.4351L268.78 106.353Z" fill="url(#paint3_linear_1799_11786)"/>
<path d="M236.912 125.559L234.474 132.751C230.912 129.641 225.021 122.299 222.062 106.353L225.145 101.312C227.926 117.093 233.994 123.381 236.912 125.559Z" fill="url(#paint4_linear_1799_11786)"/>
<path d="M268.779 106.353C265.82 122.299 259.944 129.641 256.368 132.751L253.93 125.559C256.848 123.381 262.93 117.093 265.711 101.312L268.779 106.353Z" fill="url(#paint5_linear_1799_11786)"/>
<path d="M253.929 125.559C252.943 126.299 252.312 126.559 252.312 126.559H245.422H238.545C238.545 126.559 237.915 126.299 236.915 125.559C233.997 123.381 227.928 117.093 225.147 101.312C224.257 96.257 223.695 90.2158 223.695 83.0239C223.695 65.3385 232.819 41.7079 239.244 27.2418C241.627 21.8719 249.23 21.8719 251.614 27.2418C258.039 41.7079 267.148 65.3385 267.148 83.0239C267.148 90.2158 266.6 96.257 265.71 101.312C262.929 117.093 256.847 123.381 253.929 125.559Z" fill="#E8E8E8"/>
<path d="M267.148 83.0239C267.148 120.299 252.312 126.559 252.312 126.559H245.422H238.545C238.545 126.559 223.695 120.299 223.695 83.0239C223.695 65.3385 232.819 41.7079 239.244 27.2418C241.627 21.8719 249.23 21.8719 251.614 27.2418C258.039 41.7079 267.148 65.3385 267.148 83.0239Z" fill="#FEFEFE"/>
<path d="M254.142 138.258C254.142 143.08 245.416 156.669 245.416 156.669C245.416 156.669 236.703 143.08 236.703 138.258C236.703 133.436 240.607 129.532 245.416 129.532C250.238 129.532 254.142 133.436 254.142 138.258Z" fill="#FE4C3C"/>
<path d="M250.228 135.23C250.228 137.874 245.42 145.354 245.42 145.354C245.42 145.354 240.625 137.874 240.625 135.23C240.625 132.573 242.776 130.422 245.42 130.422C248.077 130.422 250.228 132.573 250.228 135.23Z" fill="#FFC514"/>
<path d="M252.306 132.504H238.539V126.573H252.306V132.504Z" fill="url(#paint6_linear_1799_11786)"/>
<path d="M252.306 129.532H238.539V126.573H252.306V129.532Z" fill="url(#paint7_linear_1799_11786)"/>
<path d="M232.719 43.2285C234.911 37.2969 237.212 31.8173 239.239 27.2418C241.623 21.8719 249.226 21.8719 251.61 27.2418C253.637 31.8173 255.938 37.2969 258.13 43.2285C250.623 41.5572 240.226 41.5572 232.719 43.2285Z" fill="url(#paint8_linear_1799_11786)"/>
<path d="M254.185 33.2417C255.486 36.3514 256.829 39.7076 258.13 43.2282C250.623 41.5569 240.226 41.5569 232.719 43.2282C233.527 41.0364 234.349 38.9131 235.171 36.8719C237.335 38.0089 239.774 38.6528 242.363 38.6528C247.007 38.6528 251.199 36.5705 254.185 33.2417Z" fill="url(#paint9_linear_1799_11786)"/>
<path d="M266.298 72.7222C266.832 76.2976 267.147 79.7634 267.147 83.0238C267.147 120.299 252.311 126.559 252.311 126.559H245.42H238.544C238.544 126.559 229.31 122.668 225.406 102.737C229.763 109.435 235.132 113.394 240.955 113.394C253.119 113.394 263.339 96.1199 266.298 72.7222Z" fill="#EAEAEB"/>
<path d="M263.021 74.8868C263.021 84.613 255.144 92.4899 245.418 92.4899C235.705 92.4899 227.828 84.613 227.828 74.8868C227.828 65.1742 235.705 57.2974 245.418 57.2974C255.144 57.2974 263.021 65.1742 263.021 74.8868Z" fill="#A9ABAD"/>
<path d="M247.759 89.339C247.732 89.1472 247.855 88.9828 248.033 88.9417C248.211 88.9143 248.389 89.0376 248.417 89.2157C248.458 89.4075 248.321 89.5719 248.143 89.613C248.129 89.613 248.101 89.613 248.088 89.613C247.923 89.613 247.786 89.5034 247.759 89.339ZM237.622 87.7636C237.471 87.6677 237.403 87.4622 237.498 87.2978C237.594 87.1472 237.8 87.0924 237.951 87.1883C238.115 87.2704 238.17 87.4896 238.088 87.6403C238.019 87.7499 237.909 87.8047 237.786 87.8047C237.731 87.8047 237.677 87.791 237.622 87.7636ZM256.924 84.2978C256.787 84.1745 256.759 83.969 256.882 83.8183C257.006 83.6813 257.211 83.6676 257.348 83.7772C257.499 83.9005 257.513 84.1197 257.403 84.2567C257.335 84.3389 257.239 84.38 257.143 84.38C257.061 84.38 256.978 84.3526 256.924 84.2978ZM230.745 79.5853C230.676 79.421 230.759 79.2155 230.937 79.1607C231.115 79.0922 231.307 79.1881 231.375 79.3662C231.43 79.5305 231.348 79.7223 231.17 79.7908C231.133 79.8091 231.097 79.8182 231.06 79.8182C230.923 79.8182 230.786 79.7223 230.745 79.5853ZM260.376 74.2154C260.376 74.2062 260.376 74.1971 260.376 74.188C260.376 74.1743 260.376 74.1743 260.376 74.1606C260.376 73.9688 260.526 73.8181 260.704 73.8181C260.896 73.8181 261.047 73.9688 261.047 74.1606C261.047 74.1606 261.047 74.1743 261.047 74.188C261.047 74.2017 261.047 74.2017 261.047 74.2154C261.047 74.4072 260.896 74.5578 260.704 74.5578C260.526 74.5578 260.376 74.4072 260.376 74.2154ZM230.923 69.3385C230.745 69.2701 230.649 69.0783 230.718 68.9002C230.786 68.7221 230.978 68.6399 231.156 68.6947C231.32 68.7632 231.416 68.955 231.348 69.1331C231.307 69.2701 231.17 69.3523 231.033 69.3523C230.996 69.3523 230.96 69.3477 230.923 69.3385ZM256.841 64.5713C256.718 64.4206 256.745 64.2152 256.882 64.0919C257.019 63.9686 257.239 63.996 257.362 64.133C257.472 64.2699 257.458 64.4891 257.321 64.5987C257.248 64.6535 257.175 64.6809 257.102 64.6809C257.006 64.6809 256.91 64.6398 256.841 64.5713ZM237.457 61.1603C237.361 60.9959 237.416 60.7904 237.567 60.7082C237.731 60.6123 237.937 60.6671 238.033 60.8315C238.129 60.9822 238.074 61.1877 237.909 61.2836C237.855 61.311 237.8 61.3247 237.745 61.3247C237.622 61.3247 237.512 61.2699 237.457 61.1603ZM247.964 59.4753C247.786 59.4479 247.663 59.2835 247.69 59.0918C247.732 58.9137 247.91 58.7904 248.088 58.8178C248.266 58.8452 248.389 59.0233 248.362 59.2013C248.334 59.3794 248.197 59.489 248.033 59.489C248.015 59.489 247.992 59.4845 247.964 59.4753Z" fill="#FEFEFE"/>
<path d="M258.722 74.8866C258.722 82.2292 252.763 88.1882 245.421 88.1882C238.078 88.1882 232.133 82.2292 232.133 74.8866C232.133 67.5577 238.078 61.5986 245.421 61.5986C252.763 61.5986 258.722 67.5577 258.722 74.8866Z" fill="#8D8F91"/>
<path d="M257.04 74.8867C257.04 81.3115 251.834 86.5034 245.423 86.5034C239.012 86.5034 233.82 81.3115 233.82 74.8867C233.82 68.4756 239.012 63.2837 245.423 63.2837C251.834 63.2837 257.04 68.4756 257.04 74.8867Z" fill="#2BBDED"/>
<path d="M245.421 70.3246C245.421 72.6123 243.571 74.4753 241.284 74.4753C238.996 74.4753 237.133 72.6123 237.133 70.3246C237.133 68.0369 238.996 66.1875 241.284 66.1875C243.571 66.1875 245.421 68.0369 245.421 70.3246Z" fill="#87CFF1"/>
<path d="M257.039 74.8867C257.039 81.3115 251.834 86.5034 245.423 86.5034C239.943 86.5034 235.368 82.7088 234.148 77.5991C235.998 78.8594 238.231 79.5854 240.628 79.5854C247.039 79.5854 252.245 74.3798 252.245 67.9687C252.245 67.0372 252.121 66.1331 251.902 65.2563C254.998 67.3386 257.039 70.8729 257.039 74.8867Z" fill="#04B4EC"/>
<path d="M349.247 141L323.576 154.891L313 150.548L349.247 141Z" fill="url(#paint10_linear_1799_11786)"/>
<path d="M349.25 141L323.578 165.288V154.891L349.25 141Z" fill="url(#paint11_linear_1799_11786)"/>
<path d="M349.25 141L323.578 165.288V154.891L349.25 141Z" fill="black" fill-opacity="0.2"/>
<path d="M327.648 157L349.252 141L343.717 163.055L327.648 157Z" fill="url(#paint12_linear_1799_11786)"/>
<path d="M323.578 165.288L327.647 157L331.126 158.302L323.578 165.288Z" fill="url(#paint13_linear_1799_11786)"/>
<path opacity="0.2" d="M303.106 232.192L254.201 250L210.734 234.63V231.137L245.927 243.575L280.119 231.137V223.424L303.106 232.192Z" fill="#096DB7"/>
<path d="M177.25 128.997L174.469 125.806L178.4 122.381L181.181 125.586L177.25 128.997Z" fill="#D6D6D8"/>
<path d="M178.752 122.778L179.053 123.107L175.108 126.531L174.82 126.189L178.752 122.778Z" fill="#A5A7A9"/>
<path d="M180.596 124.901L180.897 125.244L176.952 128.669L176.664 128.326L180.596 124.901Z" fill="#A5A7A9"/>
<path d="M176.365 127.984L175.352 126.819L179.297 123.395L180.311 124.559L176.365 127.984Z" fill="url(#paint14_linear_1799_11786)"/>
<path d="M176.116 127.696L175.609 127.107L179.541 123.682L180.048 124.271L176.116 127.696Z" fill="#F08B8A"/>
<path d="M177.392 121.203L178.405 122.381L174.474 125.805L173.446 124.614C172.501 123.531 172.611 121.888 173.707 120.942C174.789 119.997 176.446 120.107 177.392 121.203Z" fill="url(#paint15_linear_1799_11786)"/>
<path d="M175.58 120.312C176.251 120.353 176.908 120.654 177.388 121.202L178.402 122.381L174.47 125.805L173.812 125.052C174.077 124.906 174.333 124.723 174.58 124.504C175.977 123.298 176.402 121.463 175.58 120.312Z" fill="url(#paint16_linear_1799_11786)"/>
<path d="M177.25 128.997L181.182 125.586L198.346 145.34C198.301 145.377 198.255 145.413 198.209 145.45C197.196 146.34 197.086 147.861 197.963 148.875C197.086 147.861 195.552 147.765 194.538 148.642C194.492 148.678 194.451 148.719 194.415 148.765L177.25 128.997Z" fill="#EF9359"/>
<path d="M179.086 127.408L181.182 125.586L198.347 145.34C198.301 145.377 198.255 145.413 198.21 145.45C197.196 146.34 197.086 147.861 197.963 148.875C197.758 148.642 197.511 148.45 197.237 148.313L179.086 127.408Z" fill="#ED7C54"/>
<path d="M198.079 145.587L198.353 145.34L200.764 152.108L194.422 148.765L194.696 148.518C195.71 147.779 197.134 147.916 197.97 148.875C197.134 147.916 197.189 146.477 198.079 145.587Z" fill="#F6C265"/>
<path d="M198.074 145.587L198.348 145.34L200.691 151.902L197.636 148.381C197.17 147.464 197.335 146.34 198.074 145.587Z" fill="#CF9352"/>
<path d="M200.763 152.108L199.242 151.299C199.324 151.108 199.448 150.916 199.612 150.779C199.79 150.628 199.982 150.532 200.187 150.478L200.763 152.108Z" fill="#3D2C0A"/>
<path d="M304.93 58.1194L307.793 54.9961L311.642 58.5167L308.779 61.6401L304.93 58.1194Z" fill="#D6D6D8"/>
<path d="M311.299 58.9L310.998 59.2288L307.148 55.7082L307.45 55.3794L311.299 58.9Z" fill="#A5A7A9"/>
<path d="M309.393 60.982L309.092 61.3108L305.242 57.7902L305.544 57.4614L309.393 60.982Z" fill="#A5A7A9"/>
<path d="M305.844 57.1331L306.885 55.9824L310.734 59.503L309.693 60.6538L305.844 57.1331Z" fill="url(#paint17_linear_1799_11786)"/>
<path d="M306.102 56.8454L306.622 56.27L310.472 59.7906L309.951 60.366L306.102 56.8454Z" fill="#F08B8A"/>
<path d="M312.693 57.3658L311.638 58.5165L307.789 54.9959L308.844 53.8315C309.817 52.7767 311.474 52.7082 312.529 53.6808C313.597 54.6534 313.666 56.2973 312.693 57.3658Z" fill="url(#paint18_linear_1799_11786)"/>
<path d="M313.378 55.4619C313.419 56.1331 313.186 56.818 312.693 57.366L311.638 58.5167L307.789 54.9961L308.474 54.2563C308.648 54.5029 308.853 54.7358 309.09 54.955C310.46 56.2153 312.323 56.4071 313.378 55.4619Z" fill="url(#paint19_linear_1799_11786)"/>
<path d="M304.931 58.1191L308.781 61.6398L291.123 80.9552C291.077 80.9096 291.032 80.8639 290.986 80.8183C290 79.9141 288.465 79.9826 287.561 80.9689C288.465 79.9826 288.397 78.4483 287.41 77.5442C287.365 77.5077 287.319 77.4712 287.273 77.4346L304.931 58.1191Z" fill="#82CFEC"/>
<path d="M306.719 59.7632L308.774 61.6399L291.116 80.9554C291.071 80.9098 291.025 80.8641 290.979 80.8184C289.993 79.9143 288.459 79.9828 287.555 80.9691C287.774 80.7362 287.925 80.4623 288.034 80.1883L306.719 59.7632Z" fill="#26BDE8"/>
<path d="M290.844 80.7086L291.118 80.9552L284.68 84.1196L287.269 77.4346L287.529 77.6811C288.392 78.599 288.419 80.0374 287.556 80.9689C288.419 80.0374 289.858 79.9278 290.844 80.7086Z" fill="#F6C265"/>
<path d="M290.846 80.7086L291.12 80.9552L284.859 84.0374L288.01 80.5853C288.873 80.0236 290.01 80.051 290.846 80.7086Z" fill="#CF9352"/>
<path d="M284.68 84.1199L285.296 82.5171C285.502 82.5719 285.693 82.6815 285.858 82.8322C286.022 82.9829 286.145 83.1609 286.214 83.3664L284.68 84.1199Z" fill="#3D2C0A"/>
<path d="M310.325 183.67L313.449 186.533L309.928 190.382L306.805 187.519L310.325 183.67Z" fill="#D6D6D8"/>
<path d="M309.54 190.04L309.211 189.739L312.732 185.889L313.06 186.191L309.54 190.04Z" fill="#A5A7A9"/>
<path d="M307.462 188.136L307.133 187.834L310.653 183.985L310.982 184.286L307.462 188.136Z" fill="#A5A7A9"/>
<path d="M311.31 184.588L312.46 185.629L308.94 189.478L307.789 188.437L311.31 184.588Z" fill="url(#paint20_linear_1799_11786)"/>
<path d="M311.599 184.848L312.174 185.369L308.653 189.218L308.078 188.698L311.599 184.848Z" fill="#F08B8A"/>
<path d="M311.08 191.437L309.93 190.382L313.45 186.533L314.601 187.588C315.67 188.56 315.738 190.218 314.765 191.273C313.793 192.341 312.149 192.41 311.08 191.437Z" fill="url(#paint21_linear_1799_11786)"/>
<path d="M312.985 192.122C312.3 192.163 311.615 191.93 311.08 191.437L309.93 190.382L313.45 186.533L314.19 187.218C313.943 187.391 313.706 187.597 313.478 187.834C312.231 189.204 312.026 191.067 312.985 192.122Z" fill="url(#paint22_linear_1799_11786)"/>
<path d="M310.324 183.67L306.804 187.519L287.488 169.861C287.534 169.815 287.58 169.77 287.625 169.724C288.529 168.738 288.461 167.204 287.461 166.299C288.461 167.204 289.995 167.135 290.899 166.149C290.936 166.103 290.972 166.057 291.009 166.012L310.324 183.67Z" fill="#E43847"/>
<path d="M308.681 185.464L306.804 187.519L287.488 169.861C287.534 169.815 287.58 169.77 287.625 169.724C288.529 168.738 288.461 167.203 287.461 166.299C287.708 166.518 287.968 166.669 288.255 166.779L308.681 185.464Z" fill="#C12D3B"/>
<path d="M287.737 169.587L287.491 169.861L284.312 163.423L291.011 166.012L290.765 166.272C289.847 167.135 288.408 167.163 287.463 166.3C288.408 167.163 288.518 168.601 287.737 169.587Z" fill="#F6C265"/>
<path d="M287.735 169.588L287.489 169.861L284.406 163.601L287.858 166.752C288.42 167.615 288.393 168.752 287.735 169.588Z" fill="#CF9352"/>
<path d="M284.312 163.423L285.915 164.039C285.874 164.245 285.765 164.437 285.614 164.601C285.463 164.765 285.271 164.889 285.08 164.957L284.312 163.423Z" fill="#3D2C0A"/>
<path fill-rule="evenodd" clip-rule="evenodd" d="M202.537 84.8734L165.687 112.353L160.016 104.751L196.866 77.2568L202.537 84.8734ZM199.112 85.0652C199.578 84.7227 199.674 84.0652 199.332 83.5994C198.989 83.1337 198.332 83.0515 197.866 83.394C197.4 83.7364 197.304 84.394 197.647 84.846C198.003 85.3118 198.647 85.4077 199.112 85.0652Z" fill="#EF9359"/>
<path d="M165.686 112.353L165.234 111.764L202.084 84.2705L202.537 84.8733L165.686 112.353Z" fill="#EE8055"/>
<path d="M162.618 108.244L160.016 104.751L196.866 77.2568L199.469 80.7501L162.618 108.244Z" fill="#EE8055"/>
<path d="M197.181 82.4622L194.578 78.969L195.414 78.3389L198.017 81.8321L197.181 82.4622Z" fill="url(#paint23_linear_1799_11786)"/>
<path d="M192.567 83.1883L191.266 81.4348L192.101 80.8047L193.403 82.5581L192.567 83.1883Z" fill="url(#paint24_linear_1799_11786)"/>
<path d="M190.57 87.4076L187.953 83.9006L188.789 83.2842L191.405 86.7774L190.57 87.4076Z" fill="url(#paint25_linear_1799_11786)"/>
<path d="M185.95 88.1199L184.648 86.3801L185.484 85.75L186.785 87.5035L185.95 88.1199Z" fill="url(#paint26_linear_1799_11786)"/>
<path d="M183.939 92.3392L181.336 88.846L182.172 88.2158L184.774 91.7227L183.939 92.3392Z" fill="url(#paint27_linear_1799_11786)"/>
<path d="M179.325 93.0652L178.023 91.3118L178.859 90.6953L180.16 92.4351L179.325 93.0652Z" fill="url(#paint28_linear_1799_11786)"/>
<path d="M177.32 97.2845L174.703 93.7913L175.552 93.1611L178.155 96.6544L177.32 97.2845Z" fill="url(#paint29_linear_1799_11786)"/>
<path d="M172.708 98.0106L171.406 96.2571L172.242 95.627L173.543 97.3804L172.708 98.0106Z" fill="url(#paint30_linear_1799_11786)"/>
<path d="M170.689 102.23L168.086 98.7229L168.922 98.1064L171.524 101.6L170.689 102.23Z" fill="url(#paint31_linear_1799_11786)"/>
<path d="M166.075 102.942L164.773 101.202L165.609 100.572L166.91 102.326L166.075 102.942Z" fill="url(#paint32_linear_1799_11786)"/>
<path d="M164.077 107.161L161.461 103.668L162.31 103.038L164.913 106.545L164.077 107.161Z" fill="url(#paint33_linear_1799_11786)"/>
<path d="M164.267 109.75C163.925 109.285 164.021 108.627 164.487 108.285L193.802 86.4212C194.254 86.0787 194.912 86.1746 195.254 86.6267C195.611 87.0924 195.515 87.75 195.049 88.0925L165.733 109.97C165.267 110.312 164.61 110.216 164.267 109.75Z" fill="#F3AE5F"/>
<path opacity="0.3" d="M222.062 60.9961C222.062 60.9961 136.704 32.927 168.088 79.1334" stroke="#096DB7" stroke-width="0.932005" stroke-dasharray="4.7 4.7"/>
<path opacity="0.3" d="M193.403 99.6406C193.403 99.6406 216.513 111.668 191.266 124.655" stroke="#096DB7" stroke-width="0.932005" stroke-dasharray="4.7 4.7"/>
<path opacity="0.3" d="M176.929 140.285C176.929 140.285 100.065 210.081 173.546 189.327" stroke="#096DB7" stroke-width="0.932005" stroke-dasharray="4.7 4.7"/>
<path opacity="0.3" d="M268.773 66.1878C268.773 66.1878 291.678 85.9828 277.897 55.215C265.993 28.6528 298.021 58.1192 298.021 58.1192" stroke="#096DB7" stroke-width="0.932005" stroke-dasharray="4.7 4.7"/>
<path opacity="0.3" d="M311.172 66.1875C327 75 360.5 83.5 342 102" stroke="#096DB7" stroke-width="0.932005" stroke-dasharray="4.7 4.7"/>
<path opacity="0.3" d="M289.507 124C289.507 124 271.075 138.007 305.5 148.5" stroke="#096DB7" stroke-width="0.932005" stroke-dasharray="4.7 4.7"/>
<path opacity="0.3" d="M353 158C353 158 373.002 167.286 316.562 174.491" stroke="#096DB7" stroke-width="0.932005" stroke-dasharray="4.7 4.7"/>
<path d="M332.871 125.285C332.835 125.285 332.808 125.304 332.789 125.34C332.771 125.377 332.762 125.431 332.762 125.504C332.762 125.578 332.771 125.632 332.789 125.669C332.808 125.705 332.835 125.724 332.871 125.724C332.908 125.724 332.935 125.705 332.954 125.669C332.972 125.632 332.981 125.578 332.981 125.504C332.981 125.431 332.972 125.377 332.954 125.34C332.935 125.304 332.908 125.285 332.871 125.285ZM332.871 125.23C332.926 125.23 332.967 125.253 332.995 125.299C333.031 125.345 333.05 125.413 333.05 125.504C333.05 125.596 333.031 125.664 332.995 125.71C332.967 125.756 332.926 125.778 332.871 125.778C332.808 125.778 332.762 125.756 332.734 125.71C332.698 125.664 332.68 125.596 332.68 125.504C332.68 125.413 332.698 125.345 332.734 125.299C332.762 125.253 332.808 125.23 332.871 125.23ZM333.365 125.587V125.299L333.187 125.587H333.365ZM333.132 125.573L333.351 125.244H333.433V125.587H333.515V125.641H333.433V125.765H333.365V125.641H333.132V125.573ZM333.817 125.587V125.299L333.639 125.587H333.817ZM333.584 125.573L333.803 125.244H333.899V125.587H333.967V125.641H333.899V125.765H333.817V125.641H333.584V125.573Z" fill="#FEFEFE"/>
<path d="M141.967 155.286C141.931 155.286 141.903 155.304 141.885 155.341C141.867 155.377 141.858 155.432 141.858 155.505C141.858 155.578 141.867 155.633 141.885 155.669C141.903 155.706 141.931 155.724 141.967 155.724C142.004 155.724 142.031 155.706 142.049 155.669C142.068 155.633 142.077 155.578 142.077 155.505C142.077 155.432 142.068 155.377 142.049 155.341C142.031 155.304 142.004 155.286 141.967 155.286ZM141.967 155.231C142.031 155.231 142.077 155.254 142.104 155.299C142.132 155.345 142.145 155.414 142.145 155.505C142.145 155.596 142.132 155.665 142.104 155.71C142.077 155.756 142.031 155.779 141.967 155.779C141.912 155.779 141.867 155.756 141.83 155.71C141.803 155.665 141.789 155.596 141.789 155.505C141.789 155.414 141.803 155.345 141.83 155.299C141.867 155.254 141.912 155.231 141.967 155.231ZM142.474 155.587V155.299L142.296 155.587H142.474ZM142.227 155.573L142.447 155.245H142.543V155.587H142.611V155.642H142.543V155.765H142.474V155.642H142.227V155.573ZM142.926 155.587V155.299L142.748 155.587H142.926ZM142.693 155.573L142.912 155.245H142.995V155.587H143.077V155.642H142.995V155.765H142.926V155.642H142.693V155.573Z" fill="#FEFEFE"/>
<path d="M214.996 160.765C214.96 160.765 214.933 160.784 214.914 160.82C214.896 160.857 214.887 160.911 214.887 160.984C214.887 161.057 214.896 161.112 214.914 161.149C214.933 161.185 214.96 161.204 214.996 161.204C215.033 161.204 215.06 161.185 215.079 161.149C215.097 161.112 215.106 161.057 215.106 160.984C215.106 160.911 215.097 160.857 215.079 160.82C215.06 160.784 215.033 160.765 214.996 160.765ZM214.996 160.71C215.051 160.71 215.092 160.733 215.12 160.779C215.156 160.825 215.175 160.893 215.175 160.984C215.175 161.076 215.156 161.144 215.12 161.19C215.092 161.236 215.051 161.258 214.996 161.258C214.933 161.258 214.887 161.236 214.859 161.19C214.823 161.144 214.805 161.076 214.805 160.984C214.805 160.893 214.823 160.825 214.859 160.779C214.887 160.733 214.933 160.71 214.996 160.71ZM215.49 161.067V160.779L215.312 161.067H215.49ZM215.257 161.053L215.476 160.724H215.558V161.067H215.64V161.121H215.558V161.245H215.49V161.121H215.257V161.053ZM215.942 161.067V160.779L215.764 161.067H215.942ZM215.709 161.053L215.928 160.724H216.024V161.067H216.092V161.121H216.024V161.245H215.942V161.121H215.709V161.053Z" fill="#124B77"/>
<path d="M291.241 43.6393C291.204 43.6393 291.177 43.6575 291.158 43.6941C291.14 43.7306 291.131 43.7854 291.131 43.8585C291.131 43.9315 291.14 43.9863 291.158 44.0228C291.177 44.0594 291.204 44.0776 291.241 44.0776C291.277 44.0776 291.305 44.0594 291.323 44.0228C291.341 43.9863 291.35 43.9315 291.35 43.8585C291.35 43.7854 291.341 43.7306 291.323 43.6941C291.305 43.6575 291.277 43.6393 291.241 43.6393ZM291.241 43.5845C291.295 43.5845 291.341 43.6073 291.378 43.653C291.405 43.6986 291.419 43.7671 291.419 43.8585C291.419 43.9498 291.405 44.0183 291.378 44.0639C291.341 44.1096 291.295 44.1324 291.241 44.1324C291.177 44.1324 291.131 44.1096 291.104 44.0639C291.076 44.0183 291.062 43.9498 291.062 43.8585C291.062 43.7671 291.076 43.6986 291.104 43.653C291.131 43.6073 291.177 43.5845 291.241 43.5845ZM291.734 43.9406V43.653L291.556 43.9406H291.734ZM291.501 43.9269L291.72 43.5982H291.802V43.9406H291.884V43.9954H291.802V44.1187H291.734V43.9954H291.501V43.9269ZM292.2 43.9406V43.653L292.021 43.9406H292.2ZM291.953 43.9269L292.172 43.5982H292.268V43.9406H292.337V43.9954H292.268V44.1187H292.2V43.9954H291.953V43.9269Z" fill="#124B77"/>
<path fill-rule="evenodd" clip-rule="evenodd" d="M272.568 172.519C272.486 172.902 272.335 173.259 272.13 173.587L273.623 175.081L272.28 176.409L270.801 174.93C270.472 175.122 270.102 175.272 269.719 175.368V177.478H267.842V175.368C267.458 175.272 267.088 175.122 266.76 174.93L265.28 176.409L263.938 175.081L265.431 173.587C265.225 173.259 265.075 172.902 264.979 172.519H262.883V170.628H264.979C265.075 170.245 265.225 169.889 265.431 169.56L263.938 168.067L265.28 166.738L266.76 168.217C267.088 168.026 267.458 167.875 267.842 167.779V165.669H269.719V167.779C270.102 167.875 270.472 168.026 270.801 168.217L272.28 166.738L273.623 168.067L272.13 169.56C272.335 169.889 272.486 170.245 272.568 170.628H274.678V172.519H272.568ZM270.116 171.574C270.116 170.834 269.513 170.231 268.773 170.231C268.034 170.231 267.431 170.834 267.431 171.574C267.431 172.313 268.034 172.916 268.773 172.916C269.513 172.916 270.116 172.313 270.116 171.574Z" fill="#FEFEFE"/>
<path fill-rule="evenodd" clip-rule="evenodd" d="M184.707 66.7909C184.611 67.1744 184.46 67.5306 184.268 67.8594L185.748 69.3526L184.419 70.6814L182.926 69.1882C182.597 69.3937 182.241 69.5443 181.857 69.6402V71.7499H179.967V69.6402C179.583 69.5443 179.227 69.3937 178.898 69.1882L177.405 70.6814L176.076 69.3526L177.556 67.8594C177.364 67.5306 177.213 67.1744 177.117 66.7909H175.008V64.9004H177.117C177.213 64.5168 177.364 64.1607 177.556 63.8319L176.076 62.3387L177.405 61.0099L178.898 62.4894C179.227 62.2976 179.583 62.1469 179.967 62.051V59.9414H181.857V62.051C182.241 62.1469 182.597 62.2976 182.926 62.4894L184.419 61.0099L185.748 62.3387L184.268 63.8319C184.46 64.1607 184.611 64.5168 184.707 64.9004H186.816V66.7909H184.707ZM182.255 65.8456C182.255 65.1059 181.652 64.5031 180.912 64.5031C180.172 64.5031 179.57 65.1059 179.57 65.8456C179.57 66.5854 180.172 67.1881 180.912 67.1881C181.652 67.1881 182.255 66.5854 182.255 65.8456Z" fill="#FEFEFE"/>
<path fill-rule="evenodd" clip-rule="evenodd" d="M187.691 200.026C187.595 200.41 187.444 200.78 187.239 201.108L188.732 202.588L187.39 203.93L185.91 202.437C185.581 202.643 185.212 202.793 184.842 202.876V204.985H182.951V202.876C182.568 202.793 182.198 202.643 181.869 202.437L180.389 203.93L179.047 202.588L180.54 201.108C180.348 200.78 180.198 200.41 180.102 200.026H177.992V198.149H180.102C180.198 197.766 180.348 197.396 180.54 197.067L179.047 195.588L180.389 194.245L181.869 195.738C182.198 195.533 182.568 195.382 182.951 195.286V193.19H184.842V195.286C185.212 195.382 185.581 195.533 185.91 195.738L187.39 194.245L188.732 195.588L187.239 197.067C187.444 197.396 187.595 197.766 187.691 198.149H189.787V200.026H187.691ZM185.239 199.081C185.239 198.341 184.636 197.752 183.896 197.752C183.157 197.752 182.554 198.341 182.554 199.081C182.554 199.834 183.157 200.423 183.896 200.423C184.636 200.423 185.239 199.834 185.239 199.081Z" fill="#096DB7"/>
<path fill-rule="evenodd" clip-rule="evenodd" d="M339.685 59.8495C339.589 60.233 339.439 60.5892 339.247 60.918L340.74 62.4112L339.397 63.74L337.904 62.2605C337.575 62.4523 337.219 62.6029 336.836 62.6988V64.8085H334.945V62.6988C334.562 62.6029 334.206 62.4523 333.877 62.2605L332.397 63.74L331.055 62.4112L332.548 60.918C332.343 60.5892 332.192 60.233 332.096 59.8495H330V57.959H332.096C332.192 57.5754 332.343 57.2193 332.548 56.8905L331.055 55.3973L332.397 54.0685L333.877 55.5617C334.206 55.3562 334.562 55.2055 334.945 55.1096V53H336.836V55.1096C337.219 55.2055 337.575 55.3562 337.904 55.5617L339.397 54.0685L340.74 55.3973L339.247 56.8905C339.439 57.2193 339.589 57.5754 339.685 57.959H341.795V59.8495H339.685ZM337.233 58.9042C337.233 58.1645 336.63 57.5617 335.891 57.5617C335.151 57.5617 334.548 58.1645 334.548 58.9042C334.548 59.644 335.151 60.2467 335.891 60.2467C336.63 60.2467 337.233 59.644 337.233 58.9042Z" fill="#096DB7"/>
<mask id="mask0_1799_11786" style="mask-type:luminance" maskUnits="userSpaceOnUse" x="292" y="84" width="50" height="55">
<path d="M294.553 91.0319C296.727 90.1871 306.509 85.8952 314.551 84C320.722 85.4541 327.915 88.3182 331.912 89.9544L341.977 86.4876L337.103 95.7062L337.089 116.298C337.082 126.182 325.503 134.016 314.551 138.935C303.6 134.016 292.021 126.182 292.014 116.298L292 95.563C291.998 93.0461 293.45 91.4606 294.553 91.0319ZM335.55 91.6881C335.754 91.879 335.953 92.1043 336.137 92.362L341.977 86.4876L335.55 91.6881Z" fill="white"/>
</mask>
<g mask="url(#mask0_1799_11786)">
<path d="M292 84.001H341.972V138.935H292V84.001Z" fill="#0BD25F"/>
</g>
<path d="M292.015 107.622L292.008 95.5618C292.008 93.0441 293.454 91.4586 294.562 91.0329C296.735 90.1888 306.519 85.8948 314.557 84.001C319.673 85.2048 325.494 87.3848 329.612 89.0217C321.06 90.6292 307.033 95.1214 292.015 107.622Z" fill="#0BD25F"/>
<path d="M292.015 107.622L292.008 95.5618C292.008 93.0441 293.454 91.4586 294.562 91.0329C296.735 90.1888 306.519 85.8948 314.557 84.001C319.673 85.2048 325.494 87.3848 329.612 89.0217C321.06 90.6292 307.033 95.1214 292.015 107.622Z" fill="white" fill-opacity="0.2"/>
<path d="M337.092 111.137L337.085 116.297C337.085 126.185 325.502 134.017 314.55 138.935C308.37 136.16 301.991 132.453 297.602 127.976C317.78 130.765 330.86 118.749 337.092 111.137Z" fill="#00BB4F"/>
<path d="M329.649 129.723C325.421 133.423 319.908 136.528 314.55 138.935C303.598 134.017 292.023 126.185 292.016 116.298V115.087C300.604 121.267 314 128.725 329.649 129.723Z" fill="#00BB4F"/>
<path d="M297.781 106.77C305.988 109.831 307.147 111.659 313.35 114.756C313.35 114.756 328.603 92.8163 341.69 87.0322C333.367 98.9527 322.386 107.849 316.176 128.497C316.176 128.497 307.287 116.907 297.781 106.77Z" fill="#00BB4F"/>
<path d="M297.781 106.77C303.286 106.33 306.597 107.431 312.917 110.646C312.917 110.646 328.889 92.2733 341.977 86.4893C342.872 86.9444 321.564 104.443 315.185 124.277C315.185 124.277 305.782 113.391 297.781 106.77Z" fill="white"/>
<path d="M341.977 86.4893C342.872 86.9444 321.564 104.443 315.185 124.277C315.185 124.277 305.782 113.391 297.781 106.77C304.791 109.67 309.929 115.131 314.062 119.234C322.334 102.623 341.977 86.4893 341.977 86.4893Z" fill="#00BB4F"/>
<defs>
<linearGradient id="paint0_linear_1799_11786" x1="214.758" y1="123.334" x2="236.909" y2="123.334" gradientUnits="userSpaceOnUse">
<stop offset="0.333333" stop-color="#FF8534"/>
<stop offset="1" stop-color="#FF630C"/>
</linearGradient>
<linearGradient id="paint1_linear_1799_11786" x1="253.93" y1="123.334" x2="276.095" y2="123.334" gradientUnits="userSpaceOnUse">
<stop offset="0.333333" stop-color="#FF8534"/>
<stop offset="1" stop-color="#FF630C"/>
</linearGradient>
<linearGradient id="paint2_linear_1799_11786" x1="222.062" y1="115.093" x2="237.351" y2="115.093" gradientUnits="userSpaceOnUse">
<stop offset="0.390625" stop-color="#F7751E"/>
<stop offset="1" stop-color="#F2480C"/>
</linearGradient>
<linearGradient id="paint3_linear_1799_11786" x1="253.492" y1="115.093" x2="268.78" y2="115.093" gradientUnits="userSpaceOnUse">
<stop offset="0.390625" stop-color="#F7751E"/>
<stop offset="1" stop-color="#F2480C"/>
</linearGradient>
<linearGradient id="paint4_linear_1799_11786" x1="222.062" y1="117.032" x2="236.912" y2="117.032" gradientUnits="userSpaceOnUse">
<stop offset="0.390625" stop-color="#F7751E"/>
<stop offset="1" stop-color="#F2480C"/>
</linearGradient>
<linearGradient id="paint5_linear_1799_11786" x1="253.93" y1="117.032" x2="268.779" y2="117.032" gradientUnits="userSpaceOnUse">
<stop offset="0.390625" stop-color="#F7751E"/>
<stop offset="1" stop-color="#F2480C"/>
</linearGradient>
<linearGradient id="paint6_linear_1799_11786" x1="238.539" y1="129.539" x2="252.306" y2="129.539" gradientUnits="userSpaceOnUse">
<stop offset="0.333333" stop-color="#FF8534"/>
<stop offset="1" stop-color="#FF630C"/>
</linearGradient>
<linearGradient id="paint7_linear_1799_11786" x1="238.539" y1="128.052" x2="252.306" y2="128.052" gradientUnits="userSpaceOnUse">
<stop offset="0.390625" stop-color="#F7751E"/>
<stop offset="1" stop-color="#F2480C"/>
</linearGradient>
<linearGradient id="paint8_linear_1799_11786" x1="232.719" y1="33.2214" x2="258.13" y2="33.2214" gradientUnits="userSpaceOnUse">
<stop offset="0.333333" stop-color="#FF8534"/>
<stop offset="1" stop-color="#FF630C"/>
</linearGradient>
<linearGradient id="paint9_linear_1799_11786" x1="232.719" y1="38.235" x2="258.13" y2="38.235" gradientUnits="userSpaceOnUse">
<stop offset="0.390625" stop-color="#F7751E"/>
<stop offset="1" stop-color="#F2480C"/>
</linearGradient>
<linearGradient id="paint10_linear_1799_11786" x1="313" y1="147.945" x2="349.247" y2="147.945" gradientUnits="userSpaceOnUse">
<stop offset="0.390625" stop-color="#3D8BFD"/>
<stop offset="1" stop-color="#1273FF"/>
</linearGradient>
<linearGradient id="paint11_linear_1799_11786" x1="323.578" y1="153.144" x2="349.25" y2="153.144" gradientUnits="userSpaceOnUse">
<stop offset="0.390625" stop-color="#3D8BFD"/>
<stop offset="1" stop-color="#1273FF"/>
</linearGradient>
<linearGradient id="paint12_linear_1799_11786" x1="327.648" y1="152.028" x2="349.252" y2="152.028" gradientUnits="userSpaceOnUse">
<stop offset="0.390625" stop-color="#3D8BFD"/>
<stop offset="1" stop-color="#1273FF"/>
</linearGradient>
<linearGradient id="paint13_linear_1799_11786" x1="323.578" y1="161.144" x2="331.126" y2="161.144" gradientUnits="userSpaceOnUse">
<stop offset="0.390625" stop-color="#3D8BFD"/>
<stop offset="1" stop-color="#1273FF"/>
</linearGradient>
<linearGradient id="paint14_linear_1799_11786" x1="175.352" y1="125.689" x2="180.311" y2="125.689" gradientUnits="userSpaceOnUse">
<stop offset="0.333333" stop-color="#FF8534"/>
<stop offset="1" stop-color="#FF630C"/>
</linearGradient>
<linearGradient id="paint15_linear_1799_11786" x1="172.805" y1="123.053" x2="178.405" y2="123.053" gradientUnits="userSpaceOnUse">
<stop offset="0.333333" stop-color="#FF8534"/>
<stop offset="1" stop-color="#FF630C"/>
</linearGradient>
<linearGradient id="paint16_linear_1799_11786" x1="173.812" y1="123.059" x2="178.402" y2="123.059" gradientUnits="userSpaceOnUse">
<stop offset="0.390625" stop-color="#F7751E"/>
<stop offset="1" stop-color="#F2480C"/>
</linearGradient>
<linearGradient id="paint17_linear_1799_11786" x1="305.844" y1="58.3181" x2="310.734" y2="58.3181" gradientUnits="userSpaceOnUse">
<stop offset="0.333333" stop-color="#FF8534"/>
<stop offset="1" stop-color="#FF630C"/>
</linearGradient>
<linearGradient id="paint18_linear_1799_11786" x1="307.789" y1="55.7551" x2="313.379" y2="55.7551" gradientUnits="userSpaceOnUse">
<stop offset="0.333333" stop-color="#FF8534"/>
<stop offset="1" stop-color="#FF630C"/>
</linearGradient>
<linearGradient id="paint19_linear_1799_11786" x1="307.789" y1="56.3865" x2="313.383" y2="56.3865" gradientUnits="userSpaceOnUse">
<stop offset="0.390625" stop-color="#F7751E"/>
<stop offset="1" stop-color="#F2480C"/>
</linearGradient>
<linearGradient id="paint20_linear_1799_11786" x1="307.789" y1="187.033" x2="312.46" y2="187.033" gradientUnits="userSpaceOnUse">
<stop offset="0.333333" stop-color="#FF8534"/>
<stop offset="1" stop-color="#FF630C"/>
</linearGradient>
<linearGradient id="paint21_linear_1799_11786" x1="309.93" y1="189.328" x2="315.451" y2="189.328" gradientUnits="userSpaceOnUse">
<stop offset="0.333333" stop-color="#FF8534"/>
<stop offset="1" stop-color="#FF630C"/>
</linearGradient>
<linearGradient id="paint22_linear_1799_11786" x1="309.93" y1="189.33" x2="314.19" y2="189.33" gradientUnits="userSpaceOnUse">
<stop offset="0.390625" stop-color="#F7751E"/>
<stop offset="1" stop-color="#F2480C"/>
</linearGradient>
<linearGradient id="paint23_linear_1799_11786" x1="194.578" y1="80.4006" x2="198.017" y2="80.4006" gradientUnits="userSpaceOnUse">
<stop offset="0.333333" stop-color="#FF8534"/>
<stop offset="1" stop-color="#FF630C"/>
</linearGradient>
<linearGradient id="paint24_linear_1799_11786" x1="191.266" y1="81.9965" x2="193.403" y2="81.9965" gradientUnits="userSpaceOnUse">
<stop offset="0.333333" stop-color="#FF8534"/>
<stop offset="1" stop-color="#FF630C"/>
</linearGradient>
<linearGradient id="paint25_linear_1799_11786" x1="187.953" y1="85.3459" x2="191.405" y2="85.3459" gradientUnits="userSpaceOnUse">
<stop offset="0.333333" stop-color="#FF8534"/>
<stop offset="1" stop-color="#FF630C"/>
</linearGradient>
<linearGradient id="paint26_linear_1799_11786" x1="184.648" y1="86.935" x2="186.785" y2="86.935" gradientUnits="userSpaceOnUse">
<stop offset="0.333333" stop-color="#FF8534"/>
<stop offset="1" stop-color="#FF630C"/>
</linearGradient>
<linearGradient id="paint27_linear_1799_11786" x1="181.336" y1="90.2775" x2="184.774" y2="90.2775" gradientUnits="userSpaceOnUse">
<stop offset="0.333333" stop-color="#FF8534"/>
<stop offset="1" stop-color="#FF630C"/>
</linearGradient>
<linearGradient id="paint28_linear_1799_11786" x1="178.023" y1="91.8803" x2="180.16" y2="91.8803" gradientUnits="userSpaceOnUse">
<stop offset="0.333333" stop-color="#FF8534"/>
<stop offset="1" stop-color="#FF630C"/>
</linearGradient>
<linearGradient id="paint29_linear_1799_11786" x1="174.703" y1="95.2228" x2="178.155" y2="95.2228" gradientUnits="userSpaceOnUse">
<stop offset="0.333333" stop-color="#FF8534"/>
<stop offset="1" stop-color="#FF630C"/>
</linearGradient>
<linearGradient id="paint30_linear_1799_11786" x1="171.406" y1="96.8188" x2="173.543" y2="96.8188" gradientUnits="userSpaceOnUse">
<stop offset="0.333333" stop-color="#FF8534"/>
<stop offset="1" stop-color="#FF630C"/>
</linearGradient>
<linearGradient id="paint31_linear_1799_11786" x1="168.086" y1="100.168" x2="171.524" y2="100.168" gradientUnits="userSpaceOnUse">
<stop offset="0.333333" stop-color="#FF8534"/>
<stop offset="1" stop-color="#FF630C"/>
</linearGradient>
<linearGradient id="paint32_linear_1799_11786" x1="164.773" y1="101.757" x2="166.91" y2="101.757" gradientUnits="userSpaceOnUse">
<stop offset="0.333333" stop-color="#FF8534"/>
<stop offset="1" stop-color="#FF630C"/>
</linearGradient>
<linearGradient id="paint33_linear_1799_11786" x1="161.461" y1="105.1" x2="164.913" y2="105.1" gradientUnits="userSpaceOnUse">
<stop offset="0.333333" stop-color="#FF8534"/>
<stop offset="1" stop-color="#FF630C"/>
</linearGradient>
</defs>
</svg>
