<svg width="400" height="400" viewBox="0 0 400 400" fill="none" xmlns="http://www.w3.org/2000/svg">
<path d="M35.7917 334.271C30.322 334.271 25.8247 330.057 25.46 324.628C23.8394 299.832 24.204 245.702 66.9892 241.853C131.288 236.06 109.329 166.331 192.063 162.806C307.25 157.904 281.887 233.912 324.672 243.19C377.546 254.656 375.277 296.064 374.872 324.142C374.791 329.774 370.172 334.271 364.54 334.271H35.7917Z" fill="#C8EFF9"/>
<path opacity="0.5" d="M374.87 324.142C374.789 329.774 370.171 334.271 364.539 334.271H342.255C342.701 306.234 344.362 265.555 292.055 254.251C249.27 244.973 274.633 168.924 159.405 173.867C155.435 174.029 151.748 174.353 148.223 174.799C158.635 168.235 172.37 163.657 192.061 162.806C307.249 157.904 281.886 233.912 324.671 243.19C377.545 254.656 375.276 296.064 374.87 324.142Z" fill="#90CEDD"/>
<path d="M143.28 65V155.149H141.254V65H143.28Z" fill="url(#paint0_linear_1219_16484)"/>
<path d="M273.944 65V168.316H271.918V65H273.944Z" fill="url(#paint1_linear_1219_16484)"/>
<path d="M282.816 171.234L272.687 257.776C272.039 263.53 266.812 267.662 261.018 267.014L125.735 251.213C119.941 250.524 115.808 245.297 116.497 239.544L126.585 153.001C127.274 147.248 132.501 143.115 138.295 143.764L273.538 159.565C279.332 160.254 283.464 165.48 282.816 171.234Z" fill="#F0F6FF"/>
<path d="M125.574 161.591L126.587 153.001C127.276 147.248 132.503 143.115 138.296 143.764L273.539 159.565C279.333 160.254 283.466 165.48 282.818 171.234L281.805 179.823L125.574 161.591Z" fill="url(#paint2_linear_1219_16484)"/>
<path fill-rule="evenodd" clip-rule="evenodd" d="M147.494 213.978L164.632 183.753C165.726 181.808 167.873 180.714 170.102 180.998C173.141 181.322 175.288 184.077 174.964 187.116L171.358 217.706H171.52C173.627 217.949 175.126 219.853 174.883 221.96C174.64 224.067 172.735 225.566 170.629 225.323H170.507L169.818 230.873C169.575 233.142 167.509 234.763 165.24 234.52C162.971 234.236 161.35 232.17 161.593 229.901L162.242 224.35L149.925 222.892C147.818 222.649 146.278 220.744 146.521 218.638L146.845 215.842C146.927 215.194 147.129 214.545 147.494 213.978ZM163.214 216.207L165.402 197.286C165.442 197.123 165.24 197.083 165.199 197.204L155.07 215.072C154.868 215.396 155.07 215.801 155.435 215.842L162.647 216.652C162.93 216.693 163.174 216.49 163.214 216.207Z" fill="url(#paint3_linear_1219_16484)"/>
<path fill-rule="evenodd" clip-rule="evenodd" d="M223.137 222.811L240.316 192.586C241.41 190.641 243.558 189.547 245.745 189.831C248.825 190.155 250.972 192.91 250.607 195.948L247.042 226.538H247.204C249.311 226.781 250.81 228.686 250.567 230.792C250.324 232.899 248.42 234.398 246.313 234.155H246.151L245.502 239.706C245.259 241.975 243.193 243.596 240.924 243.352C238.655 243.069 237.034 241.043 237.278 238.734L237.926 233.183L225.568 231.724C223.462 231.481 221.962 229.577 222.206 227.47L222.53 224.674C222.611 224.026 222.813 223.378 223.137 222.811ZM238.898 225.039L241.086 206.118C241.127 205.956 240.924 205.915 240.884 206.037L230.754 223.905C230.552 224.229 230.754 224.634 231.119 224.674L238.331 225.485C238.615 225.525 238.858 225.323 238.898 225.039Z" fill="url(#paint4_linear_1219_16484)"/>
<path fill-rule="evenodd" clip-rule="evenodd" d="M189.144 196.191C190.116 187.643 195.181 183.307 203.446 184.239C211.671 185.212 215.601 190.6 214.588 199.149L211.347 226.903C210.374 235.452 205.31 239.787 197.044 238.855C188.82 237.883 184.89 232.494 185.902 223.945L189.144 196.191ZM194.208 225.444C193.763 229.253 195.302 230.914 197.936 231.238C200.61 231.522 202.474 230.266 202.919 226.457L206.282 197.65C206.728 193.841 205.229 192.18 202.555 191.897C199.881 191.573 198.017 192.829 197.571 196.637L194.208 225.444Z" fill="url(#paint5_linear_1219_16484)"/>
<path d="M141.538 155.716C141.336 157.296 139.958 158.39 138.378 158.228C136.838 158.025 135.744 156.607 135.907 155.068C136.109 153.528 137.487 152.394 139.067 152.596C140.606 152.758 141.7 154.176 141.538 155.716Z" fill="white"/>
<path d="M155.113 157.296C154.91 158.876 153.532 159.97 151.952 159.808C150.413 159.605 149.319 158.187 149.481 156.648C149.643 155.108 151.061 153.974 152.641 154.176C154.181 154.338 155.275 155.756 155.113 157.296Z" fill="url(#paint6_linear_1219_16484)"/>
<path d="M169.171 158.957C169.009 160.497 167.591 161.631 166.051 161.429C164.471 161.267 163.377 159.849 163.539 158.309C163.742 156.729 165.119 155.635 166.7 155.797C168.239 156 169.374 157.418 169.171 158.957Z" fill="#FFBF4D"/>
<path d="M131.936 255.669C131.936 255.669 127.681 285.814 127.357 288.852C127.033 291.85 118.565 330.017 118.565 330.017H112.609C112.609 330.017 113.501 281.276 113.217 273.861C112.934 265.596 114.757 257.493 114.757 257.493L131.936 255.669Z" fill="#00668E"/>
<path d="M137.206 255.669C137.206 255.669 140.245 285.813 140.65 288.852C141.055 291.85 142.149 330.017 142.149 330.017H136.193C136.193 330.017 124.727 280.465 122.417 273.091C120.068 265.677 118.73 255.264 118.73 255.264L137.206 255.669Z" fill="#0582C1"/>
<path d="M141.578 330.017C144.05 330.381 146.724 331.88 148.385 332.974C148.912 333.339 148.669 334.19 148.02 334.19H136.676V330.017H141.578Z" fill="#0582C1"/>
<path d="M117.836 330.017C120.308 330.381 122.941 331.88 124.602 332.974C125.169 333.339 124.886 334.19 124.238 334.19H112.934V330.017H117.836Z" fill="#0582C1"/>
<path d="M130.639 211.588C130.639 211.588 132.502 220.825 123.71 217.22C114.878 213.614 120.347 203.606 121.806 202.35C123.994 200.446 127.965 200.891 127.965 200.891C127.965 200.891 129.342 199.879 132.786 200.324C137.283 200.891 133.353 206.807 133.353 206.807L130.639 211.588Z" fill="#00668E"/>
<path d="M134.569 201.216C132.826 200.973 128.532 200.608 127.235 203.93C127.235 203.93 123.872 202.593 122.454 205.47C121.077 208.346 121.968 218.435 130.355 216.085C129.626 217.746 127.843 218.921 123.71 217.22C114.878 213.614 120.347 203.606 121.806 202.35C123.994 200.446 127.965 200.891 127.965 200.891C127.965 200.891 129.342 199.879 132.786 200.324C133.718 200.446 134.245 200.77 134.569 201.216Z" fill="#05556D"/>
<path d="M133.354 206.807C133.354 206.807 134.367 209.278 134.529 212.722C134.691 216.206 130.477 217.908 130.477 217.908V220.258H123.711V217.219C126.588 217.341 127.033 213.613 127.033 213.613C125.575 213.451 125.007 210.858 125.858 209.683C126.75 208.549 127.884 209.683 127.884 209.683C131.044 209.4 133.354 206.807 133.354 206.807Z" fill="#F98D3D"/>
<path d="M126.426 217.098C128.857 218.435 130.477 217.908 130.477 217.908V220.258H129.505C129.465 219.61 129.586 219.164 128.938 218.881C127.844 218.435 126.426 217.098 126.426 217.098Z" fill="#ED701B"/>
<path d="M129.018 206.564C127.681 206.523 127.033 206.402 126.79 206.24C126.668 206.118 126.709 205.875 126.912 205.835L127.722 205.713C126.79 205.105 126.101 204.498 126.385 203.809C126.79 202.755 130.315 204.173 130.315 204.173L129.018 206.564Z" fill="#F98D3D"/>
<path fill-rule="evenodd" clip-rule="evenodd" d="M155.637 214.788C153.814 216.854 148.709 223.337 138.053 231.764L138.377 261.301L138.215 261.341C131.53 262.759 118.929 261.746 114.999 261.382C114.23 261.301 113.784 261.26 113.784 261.26L113.824 261.098L113.784 261.139L112.447 259.153L100.211 241.164C100.211 241.164 107.463 229.779 111.758 224.836C116.539 219.366 122.576 220.096 122.576 220.096L131.003 220.136C131.652 220.136 132.3 220.015 132.908 219.731C135.663 218.475 143.766 214.748 144.414 214.18C145.508 213.248 128.896 206.806 128.896 206.806L130.396 204.051C130.396 204.051 148.709 208.022 155.435 212.965C156.002 213.411 156.123 214.261 155.637 214.788ZM114.554 250.766L115.688 235.249L109.408 242.299L113.176 250.604L114.392 253.238L114.554 250.766Z" fill="#FFC514"/>
<path d="M113.175 250.605L114.39 253.239L113.823 261.099L113.782 261.139L112.445 259.154L113.175 250.605Z" fill="#EFAA3A"/>
<g style="mix-blend-mode:multiply" opacity="0.3">
<path d="M155.437 212.965C156.004 213.411 156.125 214.262 155.639 214.789C153.816 216.855 148.711 223.337 138.055 231.765L138.379 261.301L138.217 261.342C136.84 261.625 135.259 261.828 133.517 261.909C133.193 257.655 133.639 251.051 134.084 243.393C134.368 238.855 134.084 231.522 135.219 230.711C147.009 222.163 155.437 212.965 155.437 212.965Z" fill="#F98D2B"/>
</g>
<path d="M142.146 330.017H140.16C139.755 313.243 133.516 261.909 133.516 261.909L137.81 261.463C138.702 270.377 140.322 286.664 140.646 288.852C141.052 291.851 142.146 330.017 142.146 330.017Z" fill="#00668E"/>
<path d="M78.2917 316.241C77.6029 315.188 77.2383 311.541 77.5219 307.003C77.8055 302.465 77.0762 299.467 70.8367 290.837C64.6377 282.248 68.2842 260.369 68.3247 261.544C68.3652 262.719 80.3985 280.506 81.9382 287.555C83.4778 294.646 80.3175 300.885 79.102 307.368C77.8865 313.891 79.7098 315.593 79.7098 315.593L78.2917 316.241Z" fill="url(#paint7_linear_1219_16484)"/>
<path d="M76.2249 286.583C70.1474 276.373 68.3242 261.544 68.3242 261.544C68.3647 262.719 80.3981 280.506 81.9377 287.556C83.4773 294.646 80.317 300.886 79.1015 307.368C78.4533 310.893 78.6559 313 79.0205 314.175C78.8179 314.499 78.6559 314.58 78.5748 314.418C77.3999 312.676 77.8455 305.424 78.5748 302.506C79.3041 299.63 80.6006 293.876 76.2249 286.583Z" fill="#49B4D6"/>
<path d="M81.8965 315.147C81.8965 315.147 78.3716 306.315 84.368 298.698C90.3238 291.04 99.8857 281.235 100.088 277.386C100.088 277.386 102.56 295.821 94.7806 301.007C86.961 306.234 81.5318 307.085 82.8689 315.107L81.8965 315.147Z" fill="url(#paint8_linear_1219_16484)"/>
<path d="M100.091 277.386C100.091 277.386 102.563 295.821 94.7837 301.007C87.0856 306.193 81.6564 307.044 82.8314 314.823C82.5478 314.742 82.3452 314.58 82.2642 314.297C80.9271 310.934 81.6159 303.641 90.3269 297.32C98.9974 291 100.091 277.386 100.091 277.386Z" fill="#49B4D6"/>
<path d="M74.8066 315.39C74.8066 315.39 74.8876 312.271 73.5911 308.543C72.2946 304.816 58.1139 299.792 56.7769 292.094C55.4398 284.396 64.1103 273.861 64.1103 273.861C62.5707 275.198 63.3 289.703 65.8525 292.418C70.755 297.766 76.0221 300.602 76.6298 305.626C77.2376 310.65 76.1031 315.35 76.1031 315.35L74.8066 315.39Z" fill="url(#paint9_linear_1219_16484)"/>
<path d="M63.9527 274.063C62.6157 276.211 63.3855 289.784 65.857 292.417C70.7594 297.765 76.0266 300.602 76.6343 305.626C76.8369 307.449 76.8369 309.232 76.7153 310.771L75.5809 314.296C75.5809 314.296 77.8093 305.342 70.8 301.047C61.2786 295.172 58.321 285.773 61.1976 277.994C62.4536 276.008 63.5881 274.55 63.9527 274.063Z" fill="#49B4D6"/>
<path d="M63.9492 274.064C64.0708 273.942 64.1113 273.861 64.1113 273.861C64.0573 273.915 64.0032 273.983 63.9492 274.064Z" fill="#49B4D6"/>
<path d="M83.7227 314.742C83.7227 314.742 85.7485 307.206 90.7725 306.193C95.837 305.18 101.59 297.725 101.914 296.267C101.914 296.267 101.064 310.285 83.7227 314.742Z" fill="url(#paint10_linear_1219_16484)"/>
<path d="M90.4894 308.665C87.4102 310.204 86.1136 312.311 85.668 314.175C101.105 309.232 101.915 296.267 101.915 296.267C101.834 296.55 101.591 297.077 101.145 297.725C99.6055 300.399 95.9591 305.95 90.4894 308.665Z" fill="#49B4D6"/>
<path d="M91.501 331.637C91.2579 333.136 89.9613 334.23 88.4622 334.23H74.4436C72.9445 334.23 71.648 333.136 71.4049 331.637L68.2852 311.987H94.6207L91.501 331.637Z" fill="url(#paint11_linear_1219_16484)"/>
<path d="M68.8119 315.228L68.2852 311.987H94.6207L94.094 315.228H68.8119Z" fill="#FF9F50"/>
<path d="M94.6186 311.987L91.4989 331.637C91.2558 333.136 89.9593 334.23 88.4602 334.23H82.0586C83.5982 334.23 84.8542 333.136 85.0973 331.637L88.2171 311.987H94.6186Z" fill="#FF9F50"/>
<path d="M276.215 276.9V301.088H157.219V276.9H276.215Z" fill="url(#paint12_linear_1219_16484)"/>
<g style="mix-blend-mode:multiply" opacity="0.3">
<path d="M276.215 276.9V282.775H157.219V276.9H276.215Z" fill="#F98D2B"/>
</g>
<path d="M167.546 276.9H178.445L175.528 282.775H164.629L167.546 276.9Z" fill="#F77E2D"/>
<path d="M192.021 276.9H202.92L200.003 282.775H189.145L192.021 276.9Z" fill="#F77E2D"/>
<path d="M216.494 276.9H227.352L224.476 282.775H213.617L216.494 276.9Z" fill="#F77E2D"/>
<path d="M240.966 276.9H251.825L248.908 282.775H238.09L240.966 276.9Z" fill="#F77E2D"/>
<path d="M276.216 276.9V277.062L273.38 282.775H262.562L265.439 276.9H276.216Z" fill="#F77E2D"/>
<path d="M180.434 334.19H172.047V301.088H180.434V334.19Z" fill="url(#paint13_linear_1219_16484)"/>
<path d="M180.436 334.19H178.531V301.088H180.436V334.19Z" fill="#49B4D6"/>
<path d="M262.074 334.19H253.688V301.088H262.074V334.19Z" fill="url(#paint14_linear_1219_16484)"/>
<path d="M262.073 334.19H259.602V301.088H262.073V334.19Z" fill="#49B4D6"/>
<path d="M180.434 276.859H172.047V273.132H180.434V276.859Z" fill="url(#paint15_linear_1219_16484)"/>
<path d="M180.436 276.859H178.531V273.132H180.436V276.859Z" fill="#49B4D6"/>
<path d="M262.074 276.859H253.688V273.132H262.074V276.859Z" fill="url(#paint16_linear_1219_16484)"/>
<path d="M262.073 276.859H259.602V273.132H262.073V276.859Z" fill="#49B4D6"/>
<path d="M180.434 276.86H172.047V276.414H180.434V276.86Z" fill="#49B4D6"/>
<path d="M262.074 276.86H253.688V276.414H262.074V276.86Z" fill="#49B4D6"/>
<path d="M178.449 276.9L166.416 301.088H157.219V297.766L167.55 276.9H178.449Z" fill="#0582C1"/>
<path d="M202.923 276.9L190.89 301.088H180.031L192.024 276.9H202.923Z" fill="#0582C1"/>
<path d="M227.351 276.9L215.358 301.088H204.5L216.493 276.9H227.351Z" fill="#0582C1"/>
<path d="M251.824 276.9L239.831 301.088H228.973L240.965 276.9H251.824Z" fill="#0582C1"/>
<path d="M276.215 277.062L264.304 301.088H253.445L265.438 276.9L276.215 277.062Z" fill="#0582C1"/>
<path d="M178.445 276.9L175.528 282.775H164.629L167.546 276.9H178.445Z" fill="#00668E"/>
<path d="M202.92 276.9L200.003 282.775H189.145L192.021 276.9H202.92Z" fill="#00668E"/>
<path d="M227.352 276.9L224.476 282.775H213.617L216.494 276.9H227.352Z" fill="#00668E"/>
<path d="M251.825 276.9L248.908 282.775H238.09L240.966 276.9H251.825Z" fill="#00668E"/>
<path d="M276.216 277.062L273.38 282.775H262.562L265.439 276.9L276.216 277.062Z" fill="#00668E"/>
<path d="M176.019 275.36C171.886 275.36 168.523 271.997 168.523 267.865C168.523 263.732 171.886 260.369 176.019 260.369C180.152 260.369 183.474 263.732 183.474 267.865C183.474 271.997 180.152 275.36 176.019 275.36Z" fill="#FFBF4D"/>
<path d="M176.017 271.268C174.153 271.268 172.613 269.729 172.613 267.865C172.613 266.001 174.153 264.461 176.017 264.461C177.88 264.461 179.379 266.001 179.379 267.865C179.379 269.729 177.88 271.268 176.017 271.268Z" fill="#0582C1"/>
<path d="M257.82 275.36C253.687 275.36 250.324 271.997 250.324 267.865C250.324 263.732 253.687 260.369 257.82 260.369C261.952 260.369 265.315 263.732 265.315 267.865C265.315 271.997 261.952 275.36 257.82 275.36Z" fill="#FFBF4D"/>
<path d="M257.817 271.268C255.954 271.268 254.414 269.729 254.414 267.865C254.414 266.001 255.954 264.461 257.817 264.461C259.681 264.461 261.221 266.001 261.221 267.865C261.221 269.729 259.681 271.268 257.817 271.268Z" fill="#0582C1"/>
<path d="M321.308 331.597H283.426L289.22 317.578V317.538L291.529 311.865L292.177 310.326L293.231 307.814L293.433 307.287L295.783 301.615L296.188 300.602L300.321 290.554C301.091 288.731 303.643 288.731 304.373 290.554L308.505 300.602L308.951 301.615L311.26 307.287L311.504 307.814L312.557 310.326L313.165 311.865L315.515 317.538V317.578L321.308 331.597Z" fill="#FFBF4D"/>
<g style="mix-blend-mode:multiply" opacity="0.3">
<path d="M318.837 325.6L321.308 331.596H283.426L285.897 325.6H318.837Z" fill="#F98D2B"/>
</g>
<path d="M323.78 334.15H280.387V328.032H323.78V334.15Z" fill="url(#paint17_linear_1219_16484)"/>
<path d="M323.781 328.032V334.15H314.422V328.032H323.781Z" fill="#49B4D6"/>
<g style="mix-blend-mode:multiply" opacity="0.3">
<path d="M319.808 328.031H314.46L310.166 317.578L307.816 311.906L307.167 310.326L306.114 307.814L305.911 307.287L303.602 301.615L303.156 300.602L299.672 292.134L300.32 290.554C301.09 288.731 303.642 288.731 304.372 290.554L308.504 300.602L308.95 301.615L311.26 307.287L311.503 307.814L312.556 310.326L313.164 311.906L315.514 317.578L319.808 328.031Z" fill="#F98D2B"/>
</g>
<path d="M311.261 307.287H293.434L295.784 301.615H308.951L311.261 307.287Z" fill="#0582C1"/>
<path d="M315.514 317.538V317.579H289.219V317.538L291.528 311.866H313.164L315.514 317.538Z" fill="#0582C1"/>
<path d="M311.263 307.287H305.915L303.605 301.615H308.954L311.263 307.287Z" fill="#00668E"/>
<path d="M315.514 317.538V317.579H310.166V317.538L307.816 311.866H313.165L315.514 317.538Z" fill="#00668E"/>
<path d="M37.3737 193.801C34.0919 193.801 31.4583 191.046 31.6204 187.764C31.6204 187.737 31.6339 187.696 31.6609 187.642C32.0661 181.605 37.009 176.784 43.046 176.5C45.3959 176.419 47.5838 176.946 49.488 177.999C49.461 177.729 49.4475 177.446 49.4475 177.149C49.4475 170.504 54.8362 165.115 61.4403 165.115C67.7609 165.115 72.9064 169.977 73.4331 176.136C73.6762 176.109 73.9328 176.095 74.2029 176.095C80.4424 176.095 85.507 181.16 85.507 187.399C85.507 187.939 85.4664 188.453 85.3854 188.939C85.0208 191.734 82.5493 193.801 79.7131 193.801H37.3737Z" fill="#D7F0F9"/>
<path d="M306.764 202.674C298.701 202.674 297.04 191.046 304.86 189.061C305.994 188.737 307.169 188.615 308.384 188.615C310.572 188.615 312.639 189.102 314.502 189.993C315.515 182.457 321.917 176.663 329.736 176.663C337.354 176.663 343.674 182.214 344.849 189.507C346.308 189.021 347.847 188.777 349.427 188.777C349.67 188.777 349.914 188.777 350.157 188.777C359.111 189.223 358.625 202.674 349.67 202.674H306.764Z" fill="#D7F0F9"/>
<path d="M199.354 136.349C191.291 136.349 189.63 124.721 197.449 122.735C198.584 122.411 199.759 122.29 201.015 122.29C203.203 122.29 205.269 122.776 207.092 123.667C208.105 116.131 214.507 110.337 222.326 110.337C229.943 110.337 236.264 115.888 237.439 123.181C238.897 122.695 240.437 122.452 242.017 122.452C242.26 122.452 242.503 122.465 242.746 122.492C251.701 122.897 251.174 136.349 242.26 136.349H199.354Z" fill="#D7F0F9"/>
<path d="M99.8862 161.226C88.0555 161.226 78.4531 151.624 78.4531 139.793C78.4531 127.962 88.0555 118.36 99.8862 118.36C111.717 118.36 121.319 127.962 121.319 139.793C121.319 151.624 111.717 161.226 99.8862 161.226Z" fill="#FFC514"/>
<path d="M121.32 139.793C121.32 151.624 111.717 161.226 99.8864 161.226C95.5512 161.226 91.4996 159.93 88.1367 157.742C88.1907 157.742 88.2448 157.742 88.2988 157.742C100.13 157.742 109.732 148.139 109.732 136.309C109.732 128.813 105.883 122.209 100.048 118.36C111.798 118.481 121.32 128.043 121.32 139.793Z" fill="#FFB800"/>
<defs>
<linearGradient id="paint0_linear_1219_16484" x1="141.254" y1="110.074" x2="143.28" y2="110.074" gradientUnits="userSpaceOnUse">
<stop offset="0.390625" stop-color="#3D8BFD"/>
<stop offset="1" stop-color="#1273FF"/>
</linearGradient>
<linearGradient id="paint1_linear_1219_16484" x1="271.918" y1="116.658" x2="273.944" y2="116.658" gradientUnits="userSpaceOnUse">
<stop offset="0.390625" stop-color="#3D8BFD"/>
<stop offset="1" stop-color="#1273FF"/>
</linearGradient>
<linearGradient id="paint2_linear_1219_16484" x1="204.229" y1="143.697" x2="204.229" y2="179.823" gradientUnits="userSpaceOnUse">
<stop offset="0.275742" stop-color="#0380DC"/>
<stop offset="1" stop-color="#0061D3"/>
</linearGradient>
<linearGradient id="paint3_linear_1219_16484" x1="146.496" y1="207.749" x2="174.996" y2="207.749" gradientUnits="userSpaceOnUse">
<stop offset="0.390625" stop-color="#3D8BFD"/>
<stop offset="1" stop-color="#1273FF"/>
</linearGradient>
<linearGradient id="paint4_linear_1219_16484" x1="222.18" y1="216.581" x2="250.648" y2="216.581" gradientUnits="userSpaceOnUse">
<stop offset="0.390625" stop-color="#3D8BFD"/>
<stop offset="1" stop-color="#1273FF"/>
</linearGradient>
<linearGradient id="paint5_linear_1219_16484" x1="185.746" y1="211.547" x2="214.744" y2="211.547" gradientUnits="userSpaceOnUse">
<stop offset="0.390625" stop-color="#3D8BFD"/>
<stop offset="1" stop-color="#1273FF"/>
</linearGradient>
<linearGradient id="paint6_linear_1219_16484" x1="149.465" y1="156.988" x2="155.128" y2="156.988" gradientUnits="userSpaceOnUse">
<stop offset="0.390625" stop-color="#3D8BFD"/>
<stop offset="1" stop-color="#1273FF"/>
</linearGradient>
<linearGradient id="paint7_linear_1219_16484" x1="67.2227" y1="288.87" x2="82.3523" y2="288.87" gradientUnits="userSpaceOnUse">
<stop offset="0.390625" stop-color="#3D8BFD"/>
<stop offset="1" stop-color="#1273FF"/>
</linearGradient>
<linearGradient id="paint8_linear_1219_16484" x1="80.8672" y1="296.267" x2="100.461" y2="296.267" gradientUnits="userSpaceOnUse">
<stop offset="0.390625" stop-color="#3D8BFD"/>
<stop offset="1" stop-color="#1273FF"/>
</linearGradient>
<linearGradient id="paint9_linear_1219_16484" x1="56.6367" y1="294.626" x2="76.8088" y2="294.626" gradientUnits="userSpaceOnUse">
<stop offset="0.390625" stop-color="#3D8BFD"/>
<stop offset="1" stop-color="#1273FF"/>
</linearGradient>
<linearGradient id="paint10_linear_1219_16484" x1="83.7227" y1="305.504" x2="101.914" y2="305.504" gradientUnits="userSpaceOnUse">
<stop offset="0.390625" stop-color="#3D8BFD"/>
<stop offset="1" stop-color="#1273FF"/>
</linearGradient>
<linearGradient id="paint11_linear_1219_16484" x1="68.2852" y1="323.109" x2="94.6207" y2="323.109" gradientUnits="userSpaceOnUse">
<stop offset="0.333333" stop-color="#FF8534"/>
<stop offset="1" stop-color="#FF630C"/>
</linearGradient>
<linearGradient id="paint12_linear_1219_16484" x1="157.219" y1="288.994" x2="276.215" y2="288.994" gradientUnits="userSpaceOnUse">
<stop offset="0.333333" stop-color="#FFA365"/>
<stop offset="1" stop-color="#FF8038"/>
</linearGradient>
<linearGradient id="paint13_linear_1219_16484" x1="172.047" y1="317.639" x2="180.434" y2="317.639" gradientUnits="userSpaceOnUse">
<stop offset="0.390625" stop-color="#3D8BFD"/>
<stop offset="1" stop-color="#1273FF"/>
</linearGradient>
<linearGradient id="paint14_linear_1219_16484" x1="253.688" y1="317.639" x2="262.074" y2="317.639" gradientUnits="userSpaceOnUse">
<stop offset="0.390625" stop-color="#3D8BFD"/>
<stop offset="1" stop-color="#1273FF"/>
</linearGradient>
<linearGradient id="paint15_linear_1219_16484" x1="172.047" y1="274.996" x2="180.434" y2="274.996" gradientUnits="userSpaceOnUse">
<stop offset="0.390625" stop-color="#3D8BFD"/>
<stop offset="1" stop-color="#1273FF"/>
</linearGradient>
<linearGradient id="paint16_linear_1219_16484" x1="253.688" y1="274.996" x2="262.074" y2="274.996" gradientUnits="userSpaceOnUse">
<stop offset="0.390625" stop-color="#3D8BFD"/>
<stop offset="1" stop-color="#1273FF"/>
</linearGradient>
<linearGradient id="paint17_linear_1219_16484" x1="280.387" y1="331.091" x2="323.78" y2="331.091" gradientUnits="userSpaceOnUse">
<stop offset="0.390625" stop-color="#3D8BFD"/>
<stop offset="1" stop-color="#1273FF"/>
</linearGradient>
</defs>
</svg>
