<svg width="400" height="400" viewBox="0 0 400 400" fill="none" xmlns="http://www.w3.org/2000/svg">
<path opacity="0.75" d="M90.4326 318.566C35.1891 289.988 35.1891 243.633 90.4326 215.055C145.676 186.447 235.237 186.447 290.48 215.055C345.724 243.633 345.724 289.988 290.48 318.566C235.237 347.145 145.676 347.145 90.4326 318.566Z" fill="#F5F5F5"/>
<path d="M107.826 79.8451C107.826 81.405 106.737 83.2887 105.413 84.0539L76.1282 100.948C74.7744 101.713 73.7148 101.095 73.7148 99.5644C73.7148 98.0045 74.7744 96.1209 76.1282 95.3557L80.6019 92.7657C80.2487 92.0299 80.0721 91.1175 80.0721 90.058V87.7034C80.0721 83.5535 82.9859 78.4618 86.606 76.4016C89.9318 74.4591 92.6689 75.7836 93.081 79.2859C93.7873 78.2264 94.6997 77.3434 95.671 76.7842C98.0844 75.3715 100.056 76.5193 100.056 79.2859V80.8458C100.037 81.0813 100.017 81.3265 99.9974 81.5816L105.413 78.4618C106.737 77.6672 107.826 78.3147 107.826 79.8451Z" fill="#EBEBEB"/>
<path d="M133.229 91.206C133.229 92.3832 132.405 93.796 131.405 94.3846L109.301 107.129C108.301 107.717 107.477 107.246 107.477 106.069C107.477 104.921 108.301 103.508 109.301 102.92L112.686 100.948C112.421 100.418 112.274 99.7117 112.274 98.9171V97.1512C112.274 94.002 114.481 90.1759 117.218 88.616C119.72 87.1444 121.81 88.1451 122.104 90.7645C122.634 89.9993 123.311 89.3223 124.047 88.8809C125.871 87.8213 127.343 88.6748 127.343 90.7939V91.9712C127.343 92.1478 127.333 92.3244 127.314 92.501L131.405 90.1464C132.405 89.5872 133.229 90.0581 133.229 91.206Z" fill="#EBEBEB"/>
<path d="M89.7563 305.822L64.0035 290.959C62.5613 290.106 62.5613 288.752 64.0035 287.928L208.072 204.842C209.544 203.988 211.869 203.988 213.34 204.842L239.093 219.705C240.535 220.529 240.535 221.883 239.093 222.736L94.9952 305.822C93.553 306.646 91.1985 306.646 89.7563 305.822Z" fill="#E0E0E0"/>
<path d="M233.739 260.968C233.739 264.059 231.708 266.943 228.029 269.091L184.176 294.403C176.906 298.611 165.075 298.611 157.805 294.403L145.032 287.015C138.263 283.101 127.226 283.101 120.427 287.015L117.219 288.87C114.011 290.753 112.157 293.225 112.157 295.668C112.157 297.905 113.658 300.024 116.424 301.613L128.403 308.501C128.501 308.579 128.589 308.667 128.668 308.765L130.846 307.47C131.788 306.911 133.377 306.911 134.348 307.47L145.238 313.769C145.591 313.945 146.18 313.945 146.533 313.769L147.622 313.121C147.975 312.915 148.564 312.915 148.917 313.121L150.035 313.769C150.388 313.945 150.388 314.299 150.035 314.505L146.533 316.506C146.18 316.712 146.18 317.065 146.533 317.242L153.626 321.362C153.95 321.539 153.95 321.892 153.626 322.098L152.507 322.716C152.154 322.922 151.566 322.922 151.212 322.716L144.119 318.625C143.766 318.419 143.207 318.419 142.854 318.625L140.146 320.214C139.793 320.42 139.793 320.744 140.146 320.95L147.239 325.041C147.592 325.247 147.592 325.571 147.239 325.777L146.121 326.424C145.768 326.63 145.179 326.63 144.826 326.424L137.733 322.333C137.38 322.127 136.82 322.127 136.467 322.333L132.582 324.57C132.229 324.776 131.64 324.776 131.287 324.57L130.169 323.923C129.816 323.717 129.816 323.393 130.169 323.187L130.905 322.775C131.258 322.569 131.258 322.245 130.905 322.039L122.31 317.095C120.162 315.829 120.133 313.769 122.281 312.503L126.99 309.737L115.541 303.144C112.215 301.201 110.391 298.553 110.391 295.668C110.391 292.519 112.51 289.576 116.336 287.339L119.544 285.514C126.814 281.306 138.645 281.306 145.915 285.514L158.688 292.872C165.457 296.787 176.494 296.787 183.293 292.872L227.146 267.561C230.266 265.766 231.973 263.411 231.973 260.968C231.973 258.525 230.266 256.171 227.146 254.375L223.938 252.521C217.169 248.607 206.456 248.401 200.128 252.05L188.179 258.967C187.737 259.202 187.208 259.055 186.972 258.643C186.707 258.231 186.854 257.672 187.296 257.436L199.245 250.52C206.073 246.576 217.552 246.782 224.821 250.991L228.029 252.845C231.708 254.964 233.739 257.848 233.739 260.968Z" fill="#E0E0E0"/>
<path d="M187.734 255.465C187.734 255.465 193.061 252.375 199.684 248.548C206.276 244.752 217.343 244.958 224.377 249.019L227.585 250.844C234.619 254.935 234.619 261.498 227.585 265.56L183.732 290.901C176.697 294.962 165.278 294.962 158.244 290.901L145.47 283.513C138.436 279.452 127.017 279.452 119.982 283.513L116.774 285.368C109.74 289.429 109.387 295.816 115.98 299.642L127.958 306.529" stroke="#37474F" stroke-width="6" stroke-linecap="round" stroke-linejoin="round"/>
<path d="M123.072 304.91L127.546 302.35C128.929 301.526 131.284 301.408 132.755 302.114L142.056 306.382L142.026 314.682L132.49 320.185L123.072 314.77C121.66 313.946 120.512 311.974 120.512 310.355V309.325C120.512 307.706 121.66 305.734 123.072 304.91Z" fill="#37474F"/>
<path d="M142.058 306.382L132.463 311.915L123.192 307.618C121.721 306.941 121.662 305.734 123.075 304.91L127.548 302.35C128.931 301.526 131.286 301.408 132.758 302.114L142.058 306.382Z" fill="#455A64"/>
<path opacity="0.1" d="M139.613 305.263L142.056 306.382L142.026 314.681L132.49 320.185L130.312 318.949V312.121C130.312 311.297 130.872 310.325 131.578 309.913L139.613 305.263Z" fill="black"/>
<path d="M144.059 305.645C144.294 305.793 144.441 306.087 144.441 306.469V314.593C144.441 315.387 143.853 316.388 143.146 316.8L133.757 322.215C133.404 322.421 133.08 322.451 132.845 322.304C132.639 322.186 131.874 321.745 131.668 321.627C131.432 321.48 131.285 321.185 131.285 320.803V312.68C131.285 311.885 131.844 310.884 132.551 310.472L141.969 305.057C142.322 304.851 142.616 304.821 142.852 304.968C143.058 305.086 143.853 305.528 144.059 305.645Z" fill="#37474F"/>
<path d="M133.756 311.179L143.145 305.734C143.851 305.322 144.44 305.675 144.44 306.47V314.593C144.44 315.387 143.851 316.388 143.145 316.8L133.756 322.216C133.05 322.628 132.461 322.304 132.461 321.48V313.386C132.461 312.562 133.05 311.591 133.756 311.179Z" fill="#455A64"/>
<path fill-rule="evenodd" clip-rule="evenodd" d="M145.264 320.391V321.775C145.264 322.363 145.088 322.746 144.764 322.922C144.617 323.011 144.058 323.334 143.911 323.423C143.587 323.599 143.145 323.599 142.645 323.305L134.875 318.802V313.298L135.699 312.798L143.499 317.301C144.47 317.86 145.264 319.243 145.264 320.391ZM141.762 318.625C141.723 318.743 141.703 318.861 141.703 318.979C141.703 319.744 142.262 320.656 142.91 321.039C143.008 321.098 143.106 321.137 143.204 321.156C143.243 321.058 143.263 320.95 143.263 320.833C143.263 320.067 142.733 319.155 142.056 318.772C141.958 318.714 141.86 318.665 141.762 318.625Z" fill="#47B9FF"/>
<path opacity="0.9" d="M145.264 320.391V321.775C145.264 322.363 145.088 322.746 144.764 322.922C144.617 323.011 144.058 323.334 143.911 323.423C143.891 323.442 143.881 323.452 143.881 323.452C144.205 323.276 144.44 322.864 144.44 322.275V320.862C144.44 319.744 143.646 318.36 142.645 317.772L134.875 313.298L135.699 312.798L143.499 317.301C144.47 317.86 145.264 319.243 145.264 320.391Z" fill="white"/>
<path d="M145.262 320.391V321.774C145.262 322.363 145.086 322.745 144.762 322.922C144.615 323.01 144.055 323.334 143.908 323.422C143.889 323.422 143.879 323.432 143.879 323.452C144.203 323.275 144.438 322.863 144.438 322.275V320.862C144.438 320.303 144.232 319.685 143.908 319.125L144.762 318.625C145.086 319.184 145.262 319.802 145.262 320.391Z" fill="#47B9FF"/>
<path opacity="0.6" d="M145.262 320.391V321.774C145.262 322.363 145.086 322.745 144.762 322.922C144.615 323.01 144.055 323.334 143.908 323.422C143.889 323.422 143.879 323.432 143.879 323.452C144.203 323.275 144.438 322.863 144.438 322.275V320.862C144.438 320.303 144.232 319.685 143.908 319.125L144.762 318.625C145.086 319.184 145.262 319.802 145.262 320.391Z" fill="white"/>
<path opacity="0.1" d="M145.262 320.391V321.774C145.262 322.363 145.086 322.745 144.762 322.922C144.615 323.01 144.055 323.334 143.908 323.422C143.889 323.422 143.879 323.432 143.879 323.452C144.203 323.275 144.438 322.863 144.438 322.275V320.862C144.438 320.303 144.232 319.685 143.908 319.125L144.762 318.625C145.086 319.184 145.262 319.802 145.262 320.391Z" fill="black"/>
<path opacity="0.6" d="M142.91 321.038C143.008 321.097 143.106 321.137 143.204 321.156C143.086 321.686 142.615 321.862 142.056 321.539C141.409 321.156 140.879 320.214 140.879 319.449C140.879 318.831 141.232 318.507 141.762 318.625C141.742 318.723 141.723 318.841 141.703 318.978C141.703 319.743 142.262 320.656 142.91 321.038Z" fill="white"/>
<path opacity="0.1" d="M142.91 321.038C143.008 321.097 143.106 321.137 143.204 321.156C143.086 321.686 142.615 321.862 142.056 321.539C141.409 321.156 140.879 320.214 140.879 319.449C140.879 318.831 141.232 318.507 141.762 318.625C141.742 318.723 141.723 318.841 141.703 318.978C141.703 319.743 142.262 320.656 142.91 321.038Z" fill="black"/>
<path opacity="0.7" fill-rule="evenodd" clip-rule="evenodd" d="M144.44 320.862V322.275C144.44 323.422 143.646 323.864 142.645 323.305L134.875 318.802V313.298L142.645 317.771C143.646 318.36 144.44 319.743 144.44 320.862ZM143.263 320.832C143.263 320.067 142.733 319.155 142.056 318.772C141.409 318.39 140.879 318.684 140.879 319.449C140.879 320.214 141.409 321.156 142.056 321.539C142.733 321.921 143.263 321.598 143.263 320.832Z" fill="white"/>
<path fill-rule="evenodd" clip-rule="evenodd" d="M151.593 316.741V318.125C151.593 318.713 151.416 319.096 151.092 319.272C150.945 319.361 150.386 319.685 150.239 319.773C149.915 319.949 149.473 319.949 148.973 319.655L141.203 315.152V309.648L142.057 309.148L149.827 313.651C150.798 314.21 151.593 315.594 151.593 316.741ZM148.09 314.975C148.051 315.074 148.031 315.191 148.031 315.329C148.031 316.094 148.591 317.006 149.238 317.389C149.336 317.448 149.434 317.487 149.532 317.507C149.572 317.408 149.591 317.301 149.591 317.183C149.591 316.418 149.061 315.505 148.384 315.123C148.286 315.064 148.188 315.015 148.09 314.975Z" fill="#47B9FF"/>
<path opacity="0.9" d="M151.593 316.741V318.125C151.593 318.713 151.416 319.096 151.092 319.272C150.945 319.361 150.386 319.685 150.239 319.773C150.219 319.773 150.209 319.783 150.209 319.802C150.533 319.626 150.768 319.214 150.768 318.625V317.212C150.768 316.094 149.974 314.711 148.973 314.122L141.203 309.648L142.027 309.148L149.827 313.651C150.798 314.21 151.593 315.594 151.593 316.741Z" fill="white"/>
<path d="M151.594 316.741V318.125C151.594 318.713 151.418 319.096 151.094 319.273C150.947 319.361 150.388 319.685 150.24 319.773C150.221 319.773 150.211 319.783 150.211 319.802C150.535 319.626 150.77 319.214 150.77 318.625V317.212C150.77 316.653 150.564 316.035 150.24 315.446L151.094 314.976C151.418 315.535 151.594 316.153 151.594 316.741Z" fill="#47B9FF"/>
<path opacity="0.6" d="M151.594 316.741V318.125C151.594 318.713 151.418 319.096 151.094 319.273C150.947 319.361 150.388 319.685 150.24 319.773C150.221 319.773 150.211 319.783 150.211 319.802C150.535 319.626 150.77 319.214 150.77 318.625V317.212C150.77 316.653 150.564 316.035 150.24 315.446L151.094 314.976C151.418 315.535 151.594 316.153 151.594 316.741Z" fill="white"/>
<path opacity="0.1" d="M151.594 316.741V318.125C151.594 318.713 151.418 319.096 151.094 319.273C150.947 319.361 150.388 319.685 150.24 319.773C150.221 319.773 150.211 319.783 150.211 319.802C150.535 319.626 150.77 319.214 150.77 318.625V317.212C150.77 316.653 150.564 316.035 150.24 315.446L151.094 314.976C151.418 315.535 151.594 316.153 151.594 316.741Z" fill="black"/>
<path opacity="0.6" d="M149.238 317.389C149.336 317.448 149.434 317.487 149.532 317.507C149.414 318.036 148.944 318.213 148.384 317.889C147.737 317.507 147.207 316.565 147.207 315.8C147.207 315.152 147.59 314.858 148.09 314.976C148.07 315.074 148.051 315.191 148.031 315.329C148.031 316.094 148.59 317.006 149.238 317.389Z" fill="white"/>
<path opacity="0.1" d="M149.238 317.389C149.336 317.448 149.434 317.487 149.532 317.507C149.414 318.036 148.944 318.213 148.384 317.889C147.737 317.507 147.207 316.565 147.207 315.8C147.207 315.152 147.59 314.858 148.09 314.976C148.07 315.074 148.051 315.191 148.031 315.329C148.031 316.094 148.59 317.006 149.238 317.389Z" fill="black"/>
<path opacity="0.7" fill-rule="evenodd" clip-rule="evenodd" d="M150.768 317.212V318.625C150.768 319.773 149.974 320.214 148.973 319.655L141.203 315.152V309.648L148.973 314.122C149.974 314.711 150.768 316.094 150.768 317.212ZM149.591 317.183C149.591 316.418 149.061 315.505 148.384 315.123C147.737 314.74 147.207 315.034 147.207 315.8C147.207 316.565 147.737 317.507 148.384 317.889C149.061 318.272 149.591 317.948 149.591 317.183Z" fill="white"/>
<path d="M160.072 282.719L140.559 271.446C139.323 270.74 138.352 269.033 138.352 267.649V240.337L176.995 217.998V245.281C176.995 246.694 177.996 248.401 179.203 249.107L202.189 262.057C202.189 262.057 202.16 263.411 202.16 265.148C202.16 266.855 201.041 268.591 198.746 269.916L176.613 282.719C172.051 285.338 164.664 285.338 160.072 282.719Z" fill="#47B9FF"/>
<g opacity="0.6">
<path d="M160.064 282.718L140.551 271.446C139.315 270.739 138.344 269.032 138.344 267.649V240.336L176.988 217.998V245.281C176.988 246.694 177.988 248.401 179.195 249.107L202.181 262.057C202.181 262.057 202.152 263.411 202.152 265.147C202.152 266.854 201.033 268.591 198.738 269.915L176.605 282.718C172.043 285.337 164.656 285.337 160.064 282.718Z" fill="black"/>
</g>
<path opacity="0.3" d="M147.623 272.476V275.537L140.53 271.446C139.323 270.74 138.352 269.033 138.352 267.649V240.337L145.71 236.099C145.857 237.953 146.033 239.895 146.18 241.779L141 244.781V266.09C141 267.502 142.001 269.209 143.208 269.916L147.623 272.476Z" fill="black"/>
<path d="M140.996 244.781L179.669 222.442V243.751C179.669 245.163 180.67 246.87 181.877 247.577L198.741 257.289C203.303 259.938 203.303 264.206 198.741 266.825L176.609 279.628C172.047 282.277 164.63 282.277 160.068 279.628L143.203 269.915C141.997 269.209 140.996 267.502 140.996 266.089V244.781Z" fill="#47B9FF"/>
<path opacity="0.2" d="M140.996 244.781L179.669 222.442V243.751C179.669 245.163 180.67 246.87 181.877 247.577L198.741 257.289C203.303 259.938 203.303 264.206 198.741 266.825L176.609 279.628C172.047 282.277 164.63 282.277 160.068 279.628L143.203 269.915C141.997 269.209 140.996 267.502 140.996 266.089V244.781Z" fill="black"/>
<path opacity="0.3" d="M147.587 272.623L143.172 270.063C141.966 269.356 140.965 267.649 140.965 266.237V244.928L179.638 222.589V243.898C179.638 245.311 180.639 247.018 181.846 247.724L186.319 250.314L147.587 272.623Z" fill="black"/>
<path d="M202.187 262.058C202.187 262.058 202.187 263.411 202.187 265.148C202.187 266.884 201.039 268.591 198.743 269.916L176.61 282.719C174.432 283.984 171.578 284.602 168.723 284.661V281.6C171.578 281.571 174.432 280.894 176.61 279.628L198.743 266.826C201.039 265.531 202.187 263.794 202.187 262.058Z" fill="#47B9FF"/>
<path opacity="0.5" d="M202.187 262.058C202.187 262.058 202.187 263.411 202.187 265.148C202.187 266.884 201.039 268.591 198.743 269.916L176.61 282.719C174.432 283.984 171.578 284.602 168.723 284.661V281.6C171.578 281.571 174.432 280.894 176.61 279.628L198.743 266.826C201.039 265.531 202.187 263.794 202.187 262.058Z" fill="black"/>
<path d="M76.3359 287.928V151.776C76.3359 150.04 77.5721 147.891 79.1025 147.008L228.616 60.685C230.146 59.8021 232.53 59.7727 233.973 60.5968C235.385 61.4208 236.533 63.5105 236.533 67.6015V203.753C236.533 203.164 235.326 205.313 233.796 206.166C214.783 217.144 103.266 281.541 84.2531 292.519C82.7521 293.373 80.3681 293.432 78.9259 292.607C77.5132 291.783 76.3359 289.694 76.3359 287.928Z" fill="#47B9FF"/>
<path d="M81.5156 290.9V154.749C81.5156 153.013 82.7518 150.864 84.2822 149.981L233.796 63.6577C235.326 62.7747 236.562 63.5105 236.562 67.6016V203.753C236.562 203.164 235.326 205.313 233.796 206.166L84.2528 292.519C82.7518 293.373 81.5156 292.666 81.5156 290.9Z" fill="#47B9FF"/>
<path opacity="0.3" d="M81.5156 290.9V154.749C81.5156 153.013 82.7518 150.864 84.2822 149.981L233.796 63.6577C235.326 62.7747 236.562 63.5105 236.562 67.6016V203.753C236.562 203.164 235.326 205.313 233.796 206.166L84.2528 292.519C82.7518 293.373 81.5156 292.666 81.5156 290.9Z" fill="black"/>
<path d="M83.8705 295.639C82.34 296.316 80.2209 296.287 78.9259 295.551C77.5132 294.727 76.3359 292.637 76.3359 290.871V282.218L81.5159 285.191V293.844C81.5159 295.463 82.5166 296.198 83.8705 295.639Z" fill="#47B9FF"/>
<path opacity="0.5" d="M83.8705 295.639C82.34 296.316 80.2209 296.287 78.9259 295.551C77.5132 294.727 76.3359 292.637 76.3359 290.871V282.218L81.5159 285.191V293.844C81.5159 295.463 82.5166 296.198 83.8705 295.639Z" fill="black"/>
<path d="M236.562 195.659V204.342C236.562 206.107 235.326 208.227 233.796 209.11L84.2528 295.433C82.7518 296.316 81.5156 295.609 81.5156 293.844V285.191L236.562 195.659Z" fill="#47B9FF"/>
<path opacity="0.3" d="M236.562 195.659V204.342C236.562 206.107 235.326 208.227 233.796 209.11L84.2528 295.433C82.7518 296.316 81.5156 295.609 81.5156 293.844V285.161L236.562 195.659Z" fill="black"/>
<path d="M86.6641 274.33V156.485C86.6641 155.426 87.4293 154.131 88.3417 153.601L229.732 71.9869C230.644 71.4571 231.38 71.8691 231.38 72.9287V190.774C231.38 191.833 230.644 193.128 229.732 193.658L88.3417 275.272C87.4293 275.802 86.6641 275.36 86.6641 274.33Z" fill="#47B9FF"/>
<path d="M86.6641 274.33V156.485C86.6641 155.426 87.4293 154.131 88.3417 153.601L229.732 71.9869C230.644 71.4571 231.38 71.8691 231.38 72.9287V190.774C231.38 191.833 230.644 193.128 229.732 193.658L88.3417 275.272C87.4293 275.802 86.6641 275.36 86.6641 274.33Z" fill="#F0F6FF"/>
<path opacity="0.5" d="M82.3106 152.041C81.8397 152.895 81.5159 153.896 81.5159 154.749V285.191L76.3359 282.218V151.777C76.3359 150.894 76.6597 149.922 77.16 149.069L82.3106 152.041Z" fill="black"/>
<path opacity="0.3" d="M236.533 64.8055C236.327 63.3928 235.179 62.863 233.796 63.6577L84.2826 149.981C83.5174 150.423 82.8405 151.158 82.3107 152.041L77.1602 149.069C77.6605 148.215 78.3374 147.45 79.1027 147.008L228.616 60.685C230.147 59.8021 232.531 59.7727 233.973 60.5968C235.268 61.3325 236.357 63.1573 236.533 64.8055Z" fill="black"/>
<path d="M100.877 281.512C100.848 281.512 100.524 281.747 99.7885 281.835C99.2293 281.894 98.6406 281.806 98.2286 281.541C97.4928 281.129 96.9336 280.099 96.9336 279.216V172.32L99.5236 173.821V280.717C99.5236 281.335 99.8179 281.688 100.259 281.688C100.348 281.688 100.583 281.659 100.877 281.512Z" fill="#F0F0F0"/>
<path d="M100.266 281.365C99.8831 281.365 99.8242 280.894 99.8242 280.717V165.08L103.444 162.99C103.886 162.725 104.239 161.577 104.975 159.046C105.328 157.722 105.917 155.691 106.211 155.456L138.88 136.59C139.145 136.737 139.763 137.826 140.146 138.473C140.94 139.886 141.411 140.681 141.971 140.681C142.049 140.681 142.127 140.651 142.206 140.593L242.686 82.5825V197.867C242.686 198.632 242.127 199.574 241.479 199.956L100.737 281.218C100.56 281.316 100.403 281.365 100.266 281.365Z" fill="#FAFAFA"/>
<path fill-rule="evenodd" clip-rule="evenodd" d="M243.007 197.867C243.007 198.72 242.389 199.809 241.624 200.221L100.881 281.512C100.665 281.63 100.459 281.688 100.263 281.688C99.8217 281.688 99.5273 281.335 99.5273 280.717V164.903L103.295 162.725C104.03 162.284 105.267 155.632 106.032 155.191L138.76 136.295C138.799 136.276 138.829 136.266 138.848 136.266C139.643 136.266 141.203 140.357 141.968 140.357C141.988 140.357 142.017 140.347 142.056 140.328L243.007 82.0527V197.867ZM142.38 140.887C142.243 140.946 142.105 140.985 141.968 141.005C141.232 141.005 140.732 140.181 139.849 138.621C139.584 138.12 139.113 137.296 138.819 136.972L106.385 155.72C106.12 156.074 105.62 157.898 105.267 159.135C104.501 161.872 104.148 162.931 103.618 163.255L100.145 165.256V280.717C100.145 280.717 100.145 281.041 100.263 281.041C100.293 281.041 100.41 281.041 100.557 280.953L241.3 199.692C241.859 199.368 242.36 198.514 242.36 197.867V83.1417L142.38 140.887Z" fill="#E0E0E0"/>
<path d="M98.2286 169.112C97.5222 168.699 96.9336 167.669 96.9336 166.786V156.073C96.9336 155.19 97.5517 154.131 98.3169 153.689L239.06 72.4281C239.795 71.9867 241.002 71.9867 241.709 72.3987C242.415 72.8108 243.004 73.8409 242.974 74.7238L243.004 85.437C243.004 86.2905 242.385 87.3501 241.62 87.7915L100.877 169.053C100.112 169.494 98.935 169.524 98.2286 169.112Z" fill="#47B9FF"/>
<path opacity="0.4" d="M242.98 74.4884C242.892 73.782 242.303 73.5171 241.626 73.9292L100.883 155.19C100.501 155.396 100.177 155.779 99.9121 156.22L97.3516 154.719C97.587 154.307 97.9402 153.925 98.3228 153.689L239.066 72.4281C239.801 72.0161 241.008 71.9867 241.714 72.3987C242.362 72.7813 242.892 73.6643 242.98 74.4884Z" fill="white"/>
<path opacity="0.1" d="M99.9062 156.221C99.6708 156.633 99.5236 157.133 99.5236 157.575V173.821L96.9336 172.32V156.074C96.9336 156.015 96.9336 155.966 96.9336 155.926C96.963 155.779 96.963 155.691 96.9925 155.573C97.0513 155.279 97.1691 154.985 97.3456 154.72L99.9062 156.221Z" fill="black"/>
<path d="M242.978 74.7245L243.007 82.053L142.056 140.328C141.291 140.769 140.702 140.416 140.702 139.533V136.767C140.702 135.884 140.084 135.531 139.319 135.972L106.032 155.191C105.267 155.632 104.648 156.692 104.648 157.575V160.342C104.648 161.224 104.03 162.284 103.295 162.725L99.5273 164.903V157.575C99.5273 156.692 100.116 155.632 100.881 155.191L241.624 73.9298C242.389 73.4883 242.978 73.8415 242.978 74.7245Z" fill="#47B9FF"/>
<path d="M236.561 79.3157C237.502 78.7565 238.297 79.198 238.297 80.3164C238.297 81.4053 237.502 82.7592 236.561 83.289C235.619 83.8482 234.824 83.4067 234.824 82.2883C234.824 81.1993 235.619 79.8749 236.561 79.3157Z" fill="white"/>
<path d="M230.35 82.9058C231.292 82.3466 232.057 82.7881 232.057 83.877C232.057 84.9955 231.292 86.3199 230.35 86.8791C229.379 87.4383 228.613 86.9968 228.613 85.8784C228.613 84.7894 229.379 83.4356 230.35 82.9058Z" fill="white"/>
<path d="M224.143 86.4674C225.085 85.9377 225.85 86.3791 225.85 87.4681C225.85 88.5865 225.085 89.911 224.143 90.4702C223.171 90.9999 222.406 90.5585 222.406 89.4695C222.406 88.3805 223.171 87.0266 224.143 86.4674Z" fill="white"/>
<path d="M243.007 82.0527V90.9706L99.5273 173.821V164.903L102.323 163.255C103.089 162.814 103.353 162.166 103.707 160.871L104.648 157.575C104.972 156.397 105.267 155.632 106.032 155.191L138.76 136.295C139.525 135.854 140.114 135.795 140.702 136.766L141.85 138.885C142.292 139.621 142.498 140.063 143.263 139.621L243.007 82.0527Z" fill="#E6E6E6"/>
<path d="M99.5236 164.903V173.821L96.9336 172.32V163.402L99.5236 164.903Z" fill="#E0E0E0"/>
<path opacity="0.5" d="M105.974 165.698C105.974 165.845 105.916 166.022 105.798 166.08L103.649 167.317L104.473 167.935C104.532 167.994 104.562 168.17 104.503 168.317C104.464 168.396 104.415 168.445 104.356 168.464C104.316 168.504 104.277 168.504 104.238 168.464L103.09 167.582C103.09 167.582 103.08 167.582 103.061 167.582C103.061 167.562 103.051 167.542 103.031 167.523C103.031 167.483 103.031 167.444 103.031 167.405C103.031 167.366 103.031 167.326 103.031 167.287C103.031 167.287 103.031 167.277 103.031 167.258C103.051 167.238 103.061 167.219 103.061 167.199C103.08 167.179 103.09 167.169 103.09 167.169L104.238 164.933C104.326 164.785 104.415 164.727 104.503 164.815C104.562 164.903 104.532 165.05 104.473 165.198L103.649 166.787L105.798 165.551C105.916 165.492 105.974 165.551 105.974 165.698Z" fill="#455A64"/>
<path opacity="0.5" d="M107.592 164.491L109.77 163.255L108.946 162.637C108.858 162.578 108.858 162.401 108.917 162.254C108.976 162.107 109.093 162.048 109.152 162.078L110.33 162.99C110.349 163.01 110.359 163.029 110.359 163.049C110.359 163.049 110.369 163.049 110.388 163.049C110.388 163.088 110.388 163.127 110.388 163.167C110.388 163.206 110.388 163.245 110.388 163.284C110.369 163.284 110.359 163.284 110.359 163.284C110.359 163.324 110.349 163.353 110.33 163.373C110.33 163.373 110.33 163.382 110.33 163.402L109.152 165.639C109.133 165.698 109.103 165.737 109.064 165.757C109.005 165.796 108.956 165.796 108.917 165.757C108.858 165.668 108.858 165.492 108.946 165.374L109.77 163.785L107.592 165.021C107.504 165.08 107.445 165.021 107.445 164.874C107.445 164.727 107.504 164.55 107.592 164.491Z" fill="#455A64"/>
<path opacity="0.5" d="M114.804 159.547C114.804 159.635 114.774 159.753 114.686 159.782L113.832 160.371C113.744 160.43 113.685 160.312 113.744 160.165L113.95 159.606C113.597 159.635 113.185 159.988 112.92 160.577C112.508 161.43 112.508 162.431 112.92 162.814C113.303 163.196 113.95 162.814 114.362 161.99C114.421 161.842 114.539 161.784 114.598 161.842C114.656 161.901 114.656 162.078 114.598 162.225C114.333 162.784 113.98 163.196 113.626 163.402C113.273 163.579 112.92 163.579 112.655 163.343C112.125 162.814 112.125 161.489 112.655 160.341C113.067 159.488 113.685 158.988 114.186 159.046L114.48 158.311C114.539 158.193 114.657 158.163 114.657 158.311L114.804 159.547Z" fill="#455A64"/>
<path opacity="0.5" d="M138.614 141.122C138.702 141.21 138.702 141.446 138.614 141.622C138.555 141.74 138.496 141.809 138.437 141.828C138.378 141.867 138.319 141.867 138.261 141.828L137.466 141.063L136.701 142.741C136.642 142.839 136.583 142.907 136.524 142.947C136.465 142.986 136.406 142.976 136.347 142.917C136.259 142.829 136.259 142.623 136.347 142.417L137.142 140.739L136.347 140.003C136.259 139.915 136.259 139.68 136.347 139.474C136.465 139.268 136.612 139.209 136.701 139.297L137.466 140.033L138.261 138.385C138.349 138.179 138.496 138.09 138.614 138.179C138.702 138.267 138.702 138.502 138.614 138.708L137.819 140.357L138.614 141.122Z" fill="#455A64"/>
<path d="M117.539 160.341V157.575C117.539 156.692 118.128 155.632 118.893 155.191L233.912 88.8219C234.648 88.3804 235.266 88.7336 235.266 89.6166V92.3831C235.266 93.2661 234.648 94.3256 233.912 94.7671L118.893 161.136C118.128 161.577 117.539 161.224 117.539 160.341Z" fill="#FAFAFA"/>
<path d="M233.089 90.2937L233.472 91.0589C233.491 91.0982 233.531 91.108 233.589 91.0884L234.384 90.794C234.502 90.7352 234.561 90.9118 234.472 91.0884L233.884 92.1773C233.854 92.2656 233.825 92.3245 233.854 92.3834L233.972 93.384C234.002 93.5312 233.884 93.7372 233.766 93.7372L233.03 93.6489C233.001 93.6489 232.942 93.6784 232.883 93.7372L232.177 94.6496C232.059 94.7968 231.912 94.7379 231.941 94.5613L232.088 93.4135C232.088 93.3252 232.059 93.2663 232.03 93.2663L231.441 92.8248C231.353 92.766 231.412 92.5305 231.529 92.4128L232.353 91.7947C232.383 91.7653 232.442 91.7064 232.471 91.6181L232.824 90.4409C232.883 90.2643 233.03 90.1465 233.089 90.2937Z" stroke="#E0E0E0" stroke-width="1.6"/>
<g opacity="0.5">
<path d="M236.889 88.4689C236.742 88.4689 236.565 88.3806 236.477 88.2334C236.359 87.998 236.418 87.7331 236.653 87.5859L240.509 85.3491C240.744 85.2314 241.039 85.3197 241.156 85.5257C241.304 85.7612 241.215 86.0555 240.98 86.1732L237.124 88.41C237.046 88.4493 236.967 88.4689 236.889 88.4689Z" fill="#455A64"/>
<path d="M236.889 90.7055C236.742 90.7055 236.565 90.6172 236.477 90.47C236.359 90.2346 236.418 89.9403 236.653 89.8225L240.509 87.5857C240.744 87.468 241.039 87.5269 241.156 87.7623C241.304 87.9978 241.215 88.2921 240.98 88.4098L237.124 90.6466C237.046 90.6859 236.967 90.7055 236.889 90.7055Z" fill="#455A64"/>
<path d="M236.889 92.9427C236.742 92.9427 236.565 92.8544 236.477 92.7072C236.359 92.4718 236.418 92.1775 236.653 92.0597L240.509 89.8229C240.744 89.6758 241.039 89.7641 241.156 89.9995C241.304 90.235 241.215 90.4999 240.98 90.647L237.124 92.8838C237.046 92.9231 236.967 92.9427 236.889 92.9427Z" fill="#455A64"/>
</g>
<g opacity="0.5">
<path d="M103.738 176.323C103.591 176.323 103.414 176.234 103.326 176.087C103.208 175.852 103.297 175.557 103.503 175.44L107.358 173.203C107.594 173.056 107.888 173.144 108.006 173.379C108.153 173.585 108.065 173.88 107.859 174.027L103.974 176.234C103.915 176.293 103.836 176.323 103.738 176.323Z" fill="#455A64"/>
<path d="M103.738 178.53C103.591 178.53 103.414 178.471 103.326 178.295C103.208 178.089 103.297 177.794 103.503 177.647L107.358 175.44C107.594 175.293 107.888 175.381 108.006 175.587C108.153 175.822 108.065 176.117 107.859 176.264L103.974 178.471C103.915 178.51 103.836 178.53 103.738 178.53Z" fill="#455A64"/>
<path d="M103.738 180.767C103.591 180.767 103.414 180.678 103.326 180.531C103.208 180.296 103.297 180.031 103.503 179.884L107.358 177.647C107.594 177.529 107.888 177.618 108.006 177.824C108.153 178.059 108.065 178.353 107.859 178.471L103.974 180.708C103.915 180.747 103.836 180.767 103.738 180.767Z" fill="#455A64"/>
</g>
<path d="M139.085 154.749L184.969 128.231V134.176L139.085 160.724C138.496 161.047 137.996 160.783 137.996 160.076V156.662C137.996 155.956 138.496 155.102 139.085 154.749Z" fill="#E6E6E6"/>
<path d="M190.737 124.876C191.355 124.523 191.856 124.817 191.856 125.523V128.937C191.856 129.644 191.355 130.497 190.737 130.85L184.969 134.176V128.231L190.737 124.876Z" fill="#47B9FF"/>
<path fill-rule="evenodd" clip-rule="evenodd" d="M190.471 129.879C190.442 129.967 190.353 130.056 190.236 130.056C190.216 130.056 190.196 130.046 190.177 130.026L189.529 129.82C189.294 130.438 188.911 130.968 188.499 131.233C188.303 131.331 188.126 131.38 187.969 131.38C187.812 131.38 187.675 131.341 187.557 131.262C187.175 131.056 186.969 130.556 186.969 129.909C186.969 128.82 187.528 127.642 188.264 127.201C188.588 127.024 188.911 126.995 189.176 127.171C189.559 127.377 189.765 127.878 189.765 128.555C189.765 128.829 189.735 129.104 189.676 129.379L190.324 129.585C190.442 129.614 190.53 129.761 190.471 129.879ZM189.294 128.555C189.294 128.084 189.176 127.701 188.941 127.583C188.901 127.544 188.852 127.525 188.794 127.525C188.695 127.525 188.597 127.554 188.499 127.613C187.911 127.966 187.44 128.996 187.44 129.909C187.44 130.379 187.587 130.733 187.793 130.85C187.911 130.929 188.068 130.919 188.264 130.821C188.823 130.497 189.294 129.438 189.294 128.555Z" fill="#FAFAFA"/>
<path d="M120.011 167.022V170.436C120.011 171.142 119.54 171.996 118.922 172.32L112.3 176.175C111.711 176.499 111.211 176.234 111.211 175.528V172.114C111.211 171.407 111.711 170.583 112.3 170.23L118.922 166.404C119.54 166.051 120.011 166.316 120.011 167.022Z" fill="#47B9FF"/>
<path d="M236.678 101.389C236.678 103.037 235.53 105.038 234.088 105.862C232.675 106.687 231.527 106.01 231.527 104.361C231.527 102.713 232.675 100.712 234.088 99.8878C235.53 99.0637 236.678 99.7406 236.678 101.389Z" fill="#47B9FF"/>
<path d="M233.795 102.507C233.717 102.507 233.638 102.488 233.56 102.448C233.413 102.36 233.324 102.184 233.324 101.948C233.324 101.507 233.619 100.977 234.001 100.771C234.207 100.653 234.413 100.624 234.56 100.712C234.737 100.83 234.825 101.006 234.825 101.242C234.825 101.683 234.531 102.184 234.148 102.419C234.031 102.478 233.913 102.507 233.795 102.507Z" fill="white"/>
<path d="M235.531 103.538V103.597C235.148 104.244 234.648 104.774 234.089 105.098C233.529 105.421 233.029 105.451 232.676 105.245V104.98C232.676 104.244 233.176 103.361 233.824 102.979L234.206 102.773C234.53 102.567 234.854 102.537 235.119 102.684C235.384 102.831 235.531 103.155 235.531 103.538Z" fill="white"/>
<path d="M225.465 108.836C225.524 108.895 225.554 108.983 225.554 109.101C225.554 109.366 225.406 109.66 225.2 109.778L221.904 111.691C221.698 111.808 221.551 111.691 221.551 111.426C221.551 111.279 221.61 111.132 221.669 111.014C221.963 110.513 222.139 109.925 222.139 109.424V108.6C222.139 107.57 222.787 106.364 223.552 105.893C224.347 105.451 224.965 105.922 224.965 106.952V107.865C224.965 108.365 225.171 108.689 225.465 108.836Z" fill="#47B9FF"/>
<path d="M224.233 110.631C224.233 111.131 223.938 111.72 223.556 111.926C223.173 112.132 222.879 111.896 222.879 111.426L224.233 110.631Z" fill="#47B9FF"/>
<path d="M212.778 112.22C212.994 112.102 213.19 112.033 213.367 112.014C213.544 111.994 213.701 112.024 213.838 112.102C213.956 112.18 214.054 112.298 214.132 112.455C214.211 112.632 214.25 112.838 214.25 113.073C214.25 113.289 214.23 113.485 214.191 113.662C214.152 113.838 214.093 114.005 214.014 114.162C213.956 114.319 213.887 114.466 213.808 114.604C213.73 114.761 213.652 114.908 213.573 115.045C213.495 115.183 213.426 115.32 213.367 115.457C213.308 115.595 213.269 115.722 213.249 115.84C213.249 115.918 213.23 115.987 213.19 116.046C213.171 116.105 213.141 116.144 213.102 116.164L212.455 116.546C212.415 116.566 212.376 116.566 212.337 116.546C212.317 116.507 212.307 116.458 212.307 116.399C212.307 116.222 212.327 116.046 212.366 115.869C212.425 115.693 212.484 115.526 212.543 115.369C212.621 115.212 212.7 115.055 212.778 114.898C212.876 114.761 212.955 114.623 213.014 114.486C213.092 114.349 213.161 114.221 213.22 114.103C213.259 113.966 213.279 113.848 213.279 113.75C213.279 113.574 213.239 113.466 213.161 113.426C213.082 113.387 212.955 113.417 212.778 113.515C212.621 113.593 212.513 113.691 212.455 113.809C212.376 113.927 212.317 114.044 212.278 114.162C212.258 114.26 212.229 114.358 212.19 114.457C212.17 114.535 212.131 114.594 212.072 114.633L211.395 115.016C211.375 115.035 211.346 115.035 211.307 115.016C211.287 114.996 211.277 114.957 211.277 114.898C211.277 114.702 211.317 114.476 211.395 114.221C211.454 113.986 211.552 113.74 211.689 113.485C211.807 113.211 211.964 112.965 212.16 112.749C212.337 112.534 212.543 112.357 212.778 112.22ZM213.249 117.635C213.249 117.694 213.239 117.763 213.22 117.841C213.181 117.9 213.141 117.939 213.102 117.959L212.425 118.342C212.386 118.361 212.357 118.361 212.337 118.342C212.298 118.322 212.278 118.273 212.278 118.194V117.37C212.278 117.311 212.298 117.253 212.337 117.194C212.357 117.115 212.386 117.066 212.425 117.047L213.102 116.664C213.141 116.644 213.181 116.644 213.22 116.664C213.239 116.703 213.249 116.752 213.249 116.811V117.635Z" fill="#47B9FF"/>
<path fill-rule="evenodd" clip-rule="evenodd" d="M138.054 218.263C137.524 218.263 137.024 218.027 136.612 217.645C136.082 217.144 135.817 216.409 135.817 215.496V211.14L124.162 217.88C123.789 218.096 123.407 218.204 123.014 218.204C122.484 218.204 121.984 217.998 121.572 217.615C121.042 217.085 120.777 216.379 120.777 215.467V208.285C120.777 206.932 121.013 205.666 121.454 204.518L134.581 171.378C134.905 170.613 135.228 170.024 135.523 169.641C135.856 169.19 136.298 168.808 136.847 168.494L143.499 164.668C143.871 164.452 144.254 164.344 144.647 164.344C145.176 164.344 145.677 164.55 146.089 164.932C146.618 165.462 146.883 166.178 146.883 167.081V190.538L148.473 189.626C148.845 189.41 149.228 189.302 149.62 189.302C150.15 189.302 150.651 189.508 151.063 189.891C151.592 190.42 151.857 191.136 151.857 192.039V199.22C151.857 199.927 151.681 200.633 151.357 201.339C151.004 202.105 150.533 202.664 149.944 202.988L146.883 204.754V210.817C146.883 211.523 146.736 212.229 146.383 212.936C146.03 213.701 145.559 214.26 144.97 214.613L139.202 217.939C138.829 218.155 138.446 218.263 138.054 218.263ZM134.022 197.955L136.023 196.807V192.893L134.022 197.955Z" fill="#E0E0E0"/>
<path fill-rule="evenodd" clip-rule="evenodd" d="M162.627 203.547C162.509 203.547 162.392 203.537 162.274 203.517C160.302 203.429 158.654 202.693 157.359 201.369C156.123 200.103 155.24 198.367 154.651 196.189C154.121 194.158 153.798 191.892 153.709 189.39C153.651 187.565 153.621 185.564 153.621 183.445C153.621 181.296 153.651 179.207 153.709 177.235C153.798 174.674 154.121 172.055 154.622 169.465C155.152 166.845 155.976 164.314 157.065 161.96C158.154 159.576 159.537 157.339 161.214 155.367C162.892 153.307 164.952 151.6 167.277 150.246C169.603 148.921 171.604 148.274 173.399 148.274C173.517 148.274 173.635 148.274 173.752 148.274C175.724 148.362 177.373 149.098 178.668 150.452C179.904 151.688 180.787 153.424 181.375 155.602C181.905 157.633 182.229 159.929 182.317 162.401C182.376 164.344 182.405 166.404 182.405 168.494C182.405 170.613 182.376 172.643 182.317 174.556C182.229 177.117 181.905 179.736 181.405 182.326C180.845 184.946 180.051 187.477 178.962 189.861C177.873 192.245 176.49 194.452 174.812 196.454C173.134 198.485 171.074 200.192 168.749 201.545C166.424 202.87 164.423 203.547 162.627 203.547ZM169.985 163.166C169.867 163.166 169.485 163.196 168.749 163.637C168.043 164.049 167.425 164.55 166.983 165.138C166.483 165.786 166.071 166.492 165.776 167.257C165.453 168.052 165.217 168.935 165.07 169.877C164.893 170.848 164.805 171.908 164.776 172.967C164.629 176.764 164.629 180.561 164.776 184.24C164.795 185.279 164.884 186.192 165.041 186.977C165.188 187.771 165.394 188.183 165.57 188.389C165.718 188.566 165.835 188.625 165.982 188.625C166.188 188.625 166.542 188.595 167.277 188.154C167.984 187.742 168.572 187.242 169.043 186.653C169.544 186.005 169.956 185.299 170.279 184.534C170.603 183.739 170.839 182.856 170.986 181.914C171.133 180.943 171.221 179.913 171.251 178.824C171.368 174.969 171.368 171.172 171.251 167.552C171.192 166.551 171.104 165.639 170.927 164.844C170.809 164.226 170.633 163.726 170.427 163.402C170.279 163.225 170.191 163.166 170.044 163.166H169.985Z" fill="#E0E0E0"/>
<path fill-rule="evenodd" clip-rule="evenodd" d="M202.626 180.973C202.067 180.973 201.567 180.767 201.155 180.384C200.625 179.855 200.36 179.148 200.36 178.236V173.88L188.734 180.59C188.362 180.806 187.979 180.914 187.587 180.914C187.027 180.914 186.527 180.708 186.144 180.326C185.615 179.825 185.32 179.089 185.32 178.177V170.996C185.32 169.671 185.556 168.406 185.997 167.228L199.153 134.118C199.477 133.323 199.771 132.764 200.066 132.352C200.419 131.92 200.87 131.547 201.419 131.233L208.042 127.407C208.414 127.191 208.797 127.083 209.189 127.083C209.749 127.083 210.249 127.29 210.632 127.672C211.181 128.182 211.456 128.898 211.456 129.821V153.248L213.016 152.336C213.388 152.12 213.771 152.012 214.163 152.012C214.693 152.012 215.194 152.218 215.606 152.601C216.135 153.131 216.4 153.857 216.4 154.779V161.931C216.4 162.667 216.253 163.373 215.929 164.05C215.547 164.815 215.076 165.374 214.487 165.727L211.456 167.493V173.527C211.456 174.263 211.279 174.969 210.955 175.646C210.583 176.431 210.102 176.99 209.513 177.324L203.774 180.649C203.401 180.865 203.019 180.973 202.626 180.973ZM198.565 160.695L200.595 159.517V155.603L198.565 160.695Z" fill="#E0E0E0"/>
<path d="M155.446 195.012V202.193C155.446 202.684 155.328 203.174 155.093 203.665C154.857 204.175 154.573 204.518 154.239 204.695L150.472 206.873V213.789C150.472 214.28 150.354 214.77 150.119 215.261C149.883 215.771 149.599 216.114 149.265 216.291L143.526 219.617C143.251 219.774 143.016 219.793 142.82 219.676C142.761 219.646 138.258 217.027 138.052 216.909C137.993 216.889 137.944 216.85 137.905 216.791C137.669 216.576 137.551 216.222 137.551 215.732V214.348L128.486 219.558C128.231 219.715 127.996 219.735 127.78 219.617C127.751 219.587 123.218 216.968 123.012 216.85C122.953 216.831 122.904 216.801 122.865 216.762C122.629 216.526 122.512 216.163 122.512 215.673V208.492C122.512 207.314 122.698 206.235 123.071 205.254L136.227 172.143C136.502 171.496 136.747 171.025 136.963 170.731C137.179 170.456 137.473 170.211 137.846 169.995L144.497 166.139C144.752 166.002 144.988 165.992 145.204 166.11C145.233 166.139 149.766 168.759 149.972 168.876C150.03 168.896 150.079 168.925 150.119 168.965C150.354 169.2 150.472 169.563 150.472 170.054V191.245C150.472 191.245 154.74 193.687 154.946 193.805C154.985 193.844 155.034 193.884 155.093 193.923C155.328 194.158 155.446 194.521 155.446 195.012Z" fill="#47B9FF"/>
<path opacity="0.1" d="M141.703 173.497L141.673 173.585C141.477 173.86 141.261 174.302 141.026 174.91L127.87 208.021C127.693 208.452 127.565 208.903 127.487 209.374L122.66 206.608C122.758 206.137 122.886 205.686 123.043 205.254L136.199 172.143C136.454 171.496 136.699 171.025 136.935 170.73C136.915 170.73 136.915 170.73 136.935 170.73L141.703 173.497Z" fill="black"/>
<path opacity="0.3" d="M127.721 219.587C127.191 219.264 123.218 216.968 123.012 216.88C122.953 216.84 122.904 216.801 122.865 216.762C122.629 216.526 122.512 216.163 122.512 215.673V208.492C122.512 207.844 122.571 207.226 122.688 206.608L127.486 209.374C127.348 209.963 127.289 210.591 127.309 211.258V218.439C127.309 218.93 127.417 219.283 127.633 219.499C127.672 219.538 127.702 219.568 127.721 219.587Z" fill="black"/>
<path opacity="0.3" d="M142.556 188.154V200.633L138.523 198.308L142.556 188.154Z" fill="black"/>
<path opacity="0.4" d="M142.557 200.633L136.141 204.312L138.525 198.308L142.557 200.633Z" fill="black"/>
<path opacity="0.3" d="M142.672 219.558C142.711 219.578 142.741 219.607 142.76 219.646C142.23 219.323 138.228 217.027 138.051 216.909C137.992 216.89 137.943 216.85 137.904 216.791C137.669 216.576 137.551 216.222 137.551 215.732V214.349L142.319 211.582V218.469C142.319 218.979 142.436 219.342 142.672 219.558Z" fill="black"/>
<path opacity="0.1" d="M154.887 193.776C154.691 193.697 154.475 193.727 154.24 193.864L150.473 196.042V191.245C150.473 191.245 154.358 193.481 154.887 193.776Z" fill="black"/>
<path opacity="0.4" d="M149.944 168.847C149.748 168.749 149.522 168.768 149.267 168.906L142.645 172.732C142.263 172.967 141.968 173.203 141.733 173.497L136.965 170.731C137.181 170.456 137.475 170.211 137.848 169.995L144.499 166.139C144.754 166.002 144.99 165.992 145.206 166.11C145.235 166.139 149.503 168.582 149.944 168.847Z" fill="white"/>
<path fill-rule="evenodd" clip-rule="evenodd" d="M143.528 219.617C143.194 219.813 142.91 219.793 142.674 219.558C142.439 219.342 142.321 218.979 142.321 218.469V211.582L128.488 219.558C128.154 219.754 127.87 219.735 127.634 219.499C127.399 219.283 127.281 218.93 127.281 218.44V211.258C127.281 210.081 127.477 209.002 127.87 208.021L141.026 174.91C141.281 174.262 141.516 173.791 141.732 173.497C141.948 173.222 142.252 172.967 142.645 172.732L149.267 168.906C149.6 168.729 149.885 168.749 150.12 168.965C150.356 169.2 150.473 169.563 150.473 170.054V196.042L154.241 193.864C154.574 193.687 154.859 193.707 155.094 193.923C155.33 194.158 155.447 194.521 155.447 195.012V202.193C155.447 202.684 155.33 203.174 155.094 203.665C154.859 204.175 154.574 204.518 154.241 204.695L150.473 206.873V213.789C150.473 214.28 150.356 214.77 150.12 215.261C149.885 215.771 149.6 216.114 149.267 216.291L143.528 219.617ZM142.586 200.604V188.154L136.14 204.312L142.586 200.604Z" fill="#47B9FF"/>
<path fill-rule="evenodd" clip-rule="evenodd" d="M185.998 171.466C185.998 173.585 185.968 175.587 185.91 177.47C185.811 179.962 185.507 182.474 184.997 185.005C184.487 187.536 183.712 189.94 182.672 192.216C181.632 194.492 180.318 196.581 178.728 198.485C177.159 200.388 175.275 201.977 173.077 203.253C170.88 204.508 168.986 205.097 167.397 205.019C166.396 204.979 165.504 204.734 164.719 204.283C164.277 204.018 160.657 201.958 159.862 201.487C159.431 201.232 159.038 200.918 158.685 200.545C157.645 199.466 156.87 197.965 156.36 196.042C155.83 194.099 155.526 191.931 155.448 189.537C155.389 187.732 155.359 185.77 155.359 183.651C155.359 181.532 155.389 179.482 155.448 177.5C155.526 175.008 155.83 172.496 156.36 169.965C156.87 167.434 157.645 165.04 158.685 162.784C159.725 160.508 161.03 158.418 162.6 156.515C164.189 154.592 166.082 153.003 168.28 151.747C170.477 150.472 172.371 149.873 173.96 149.952C174.981 150.011 175.893 150.266 176.697 150.717C177.109 150.982 180.671 153.013 181.465 153.483C181.897 153.739 182.299 154.052 182.672 154.425C183.712 155.504 184.487 157.015 184.997 158.958C185.507 160.881 185.811 163.039 185.91 165.433C185.968 167.336 185.998 169.347 185.998 171.466ZM170.487 187.771C171.076 187.026 171.547 186.202 171.9 185.299C172.273 184.377 172.538 183.396 172.695 182.356C172.852 181.316 172.95 180.227 172.989 179.089C173.107 175.184 173.107 171.388 172.989 167.699C172.95 166.914 172.881 166.188 172.783 165.521C172.018 165.992 171.4 166.551 170.87 167.199C170.281 167.944 169.81 168.768 169.457 169.671C169.104 170.574 168.839 171.555 168.663 172.614C168.486 173.654 168.388 174.753 168.368 175.91C168.211 179.737 168.211 183.523 168.368 187.271C168.388 188.076 168.447 188.811 168.545 189.479C169.31 189.008 169.958 188.439 170.487 187.771Z" fill="#47B9FF"/>
<path opacity="0.1" d="M164.601 204.224C163.806 203.753 160.628 201.928 159.862 201.486C159.431 201.231 159.038 200.917 158.685 200.545C157.645 199.465 156.87 197.964 156.36 196.042C155.83 194.099 155.526 191.931 155.448 189.537C155.389 187.732 155.359 185.77 155.359 183.651C155.359 181.512 155.389 179.462 155.448 177.5C155.526 175.008 155.83 172.496 156.36 169.965C156.713 168.179 157.204 166.463 157.832 164.814L162.6 167.581C161.972 169.229 161.481 170.946 161.128 172.732C160.618 175.263 160.314 177.774 160.216 180.266C160.157 182.228 160.127 184.279 160.127 186.417C160.127 188.517 160.157 190.479 160.216 192.304C160.314 194.698 160.618 196.866 161.128 198.808C161.628 200.721 162.423 202.252 163.453 203.311C163.806 203.664 164.189 203.969 164.601 204.224Z" fill="black"/>
<path opacity="0.4" d="M181.289 153.395C180.544 153.003 179.69 152.777 178.729 152.718C177.159 152.64 175.275 153.238 173.078 154.514C170.88 155.769 168.987 157.359 167.397 159.282C165.808 161.185 164.493 163.265 163.454 165.521C163.297 165.874 163.149 166.228 163.012 166.581C162.875 166.914 162.737 167.248 162.6 167.581L157.832 164.815C157.95 164.52 158.067 164.226 158.185 163.932C158.332 163.549 158.509 163.167 158.686 162.784C159.716 160.488 161.04 158.428 162.6 156.515C164.189 154.612 166.083 153.022 168.28 151.747C170.488 150.482 172.371 149.893 173.961 149.952C174.981 150.011 175.893 150.266 176.698 150.717C177.11 150.982 180.23 152.777 181.289 153.395Z" fill="white"/>
<path opacity="0.3" d="M177.787 181.856C177.748 182.994 177.65 184.083 177.493 185.123C177.336 186.162 177.071 187.134 176.698 188.036C176.541 188.429 176.355 188.811 176.139 189.184L171.371 186.418C171.567 186.064 171.744 185.692 171.901 185.299C172.274 184.377 172.539 183.396 172.696 182.356C172.852 181.316 172.951 180.227 172.99 179.089C173.108 175.184 173.108 171.388 172.99 167.699C172.951 166.914 172.882 166.188 172.784 165.521C172.784 165.521 172.902 165.433 173.078 165.344C173.932 164.815 174.667 164.609 175.256 164.667C175.845 164.746 176.316 165.03 176.669 165.521C177.022 166.011 177.277 166.688 177.434 167.552C177.591 168.395 177.709 169.367 177.787 170.466C177.885 174.154 177.885 177.951 177.787 181.856Z" fill="black"/>
<path opacity="0.4" d="M176.136 189.185C175.881 189.655 175.587 190.107 175.253 190.538C174.665 191.284 173.939 191.912 173.075 192.422C172.193 192.932 171.457 193.148 170.868 193.07C170.279 193.011 169.799 192.736 169.426 192.245C169.073 191.755 168.818 191.078 168.661 190.215C168.602 189.979 168.563 189.734 168.543 189.479C169.308 189.008 169.956 188.449 170.485 187.772C170.819 187.36 171.113 186.908 171.368 186.418L176.136 189.185Z" fill="black"/>
<path fill-rule="evenodd" clip-rule="evenodd" d="M173.075 154.514C175.273 153.238 177.156 152.64 178.726 152.718C180.315 152.797 181.63 153.366 182.67 154.425C183.71 155.504 184.485 157.015 184.995 158.958C185.505 160.881 185.809 163.039 185.907 165.433C185.966 167.336 185.996 169.347 185.996 171.466C185.996 173.585 185.966 175.587 185.907 177.47C185.809 179.962 185.505 182.474 184.995 185.005C184.485 187.536 183.71 189.94 182.67 192.216C181.63 194.492 180.315 196.581 178.726 198.485C177.156 200.388 175.273 201.977 173.075 203.253C170.877 204.508 168.984 205.097 167.395 205.019C165.805 204.94 164.491 204.371 163.451 203.311C162.411 202.232 161.636 200.721 161.126 198.779C160.616 196.856 160.311 194.698 160.213 192.304C160.154 190.499 160.125 188.527 160.125 186.388C160.125 184.269 160.154 182.229 160.213 180.266C160.311 177.775 160.616 175.263 161.126 172.732C161.636 170.201 162.411 167.797 163.451 165.521C164.491 163.265 165.805 161.175 167.395 159.252C168.984 157.349 170.877 155.769 173.075 154.514ZM177.755 181.856C177.872 177.951 177.872 174.154 177.755 170.466C177.696 169.367 177.588 168.396 177.431 167.552C177.274 166.689 177.019 166.012 176.666 165.521C176.312 165.031 175.842 164.746 175.253 164.668C174.664 164.609 173.938 164.834 173.075 165.344C172.192 165.835 171.456 166.453 170.868 167.199C170.279 167.944 169.808 168.768 169.455 169.671C169.102 170.574 168.837 171.555 168.66 172.614C168.484 173.654 168.386 174.753 168.366 175.91C168.209 179.737 168.209 183.524 168.366 187.271C168.386 188.39 168.474 189.371 168.631 190.214C168.807 191.078 169.072 191.755 169.425 192.245C169.798 192.736 170.279 193.01 170.868 193.069C171.456 193.128 172.192 192.912 173.075 192.422C173.938 191.912 174.664 191.284 175.253 190.538C175.842 189.792 176.322 188.959 176.695 188.036C177.068 187.134 177.333 186.163 177.49 185.123C177.647 184.083 177.735 182.994 177.755 181.856Z" fill="#47B9FF"/>
<path d="M219.989 157.722V164.903C219.989 165.413 219.871 165.914 219.636 166.404C219.4 166.895 219.126 167.238 218.812 167.434L215.015 169.612V176.499C215.015 177.009 214.897 177.51 214.662 178C214.426 178.491 214.152 178.834 213.838 179.03L208.069 182.356C207.814 182.494 207.588 182.503 207.392 182.386C207.333 182.356 202.801 179.766 202.595 179.649C202.556 179.609 202.507 179.57 202.448 179.531C202.212 179.295 202.095 178.932 202.095 178.442V177.058L193.03 182.297C192.774 182.454 192.549 182.474 192.353 182.356C192.294 182.327 187.761 179.707 187.585 179.59C187.526 179.57 187.467 179.531 187.408 179.472C187.173 179.256 187.065 178.893 187.084 178.383V171.231C187.084 170.054 187.271 168.975 187.643 167.994L200.799 134.883C201.055 134.216 201.29 133.745 201.506 133.47C201.722 133.176 202.026 132.921 202.418 132.705L209.04 128.879C209.315 128.722 209.551 128.702 209.747 128.82C209.806 128.849 214.338 131.469 214.544 131.586C214.583 131.626 214.623 131.665 214.662 131.704C214.897 131.92 215.015 132.283 215.015 132.793V153.955C215.015 153.955 219.283 156.427 219.489 156.545C219.548 156.564 219.597 156.603 219.636 156.662C219.871 156.878 219.989 157.231 219.989 157.722Z" fill="#47B9FF"/>
<path opacity="0.1" d="M206.277 136.236L206.247 136.295C206.031 136.589 205.806 137.031 205.57 137.62L192.414 170.73C192.257 171.182 192.13 171.643 192.032 172.114L187.234 169.318C187.313 168.847 187.44 168.405 187.617 167.993L200.744 134.882C201.018 134.215 201.264 133.744 201.479 133.47L206.277 136.236Z" fill="black"/>
<path opacity="0.3" d="M192.297 182.327C191.738 182.003 187.765 179.707 187.559 179.589C187.52 179.57 187.471 179.531 187.412 179.472C187.176 179.256 187.059 178.893 187.059 178.383V171.231C187.059 170.554 187.147 169.936 187.265 169.347L192.033 172.114C191.915 172.702 191.856 173.33 191.856 173.997V181.149C191.856 181.659 191.974 182.022 192.209 182.238C192.229 182.258 192.258 182.287 192.297 182.327Z" fill="black"/>
<path opacity="0.3" d="M207.1 150.894V163.343L203.098 161.018L207.1 150.894Z" fill="black"/>
<path opacity="0.4" d="M207.1 163.343L200.684 167.052L203.097 161.018L207.1 163.343Z" fill="black"/>
<path opacity="0.3" d="M207.248 182.297C207.268 182.317 207.297 182.337 207.337 182.356C206.777 182.062 202.804 179.737 202.598 179.649C202.559 179.609 202.51 179.57 202.451 179.531C202.215 179.295 202.098 178.932 202.098 178.442V177.059L206.895 174.292V181.208C206.895 181.699 207.013 182.062 207.248 182.297Z" fill="black"/>
<path opacity="0.1" d="M219.434 156.515C219.258 156.437 219.052 156.466 218.816 156.603L215.02 158.781V153.955C215.02 153.955 218.905 156.221 219.434 156.515Z" fill="black"/>
<path opacity="0.4" d="M214.491 131.586C214.295 131.468 214.079 131.488 213.844 131.645L207.192 135.471C206.809 135.707 206.515 135.942 206.309 136.236L201.512 133.47C201.747 133.176 202.051 132.92 202.424 132.705L209.046 128.879C209.321 128.722 209.556 128.712 209.753 128.849C209.811 128.849 214.05 131.321 214.491 131.586Z" fill="white"/>
<path fill-rule="evenodd" clip-rule="evenodd" d="M208.072 182.356C207.758 182.533 207.484 182.513 207.248 182.297C207.013 182.062 206.895 181.699 206.895 181.208V174.292L193.033 182.297C192.719 182.493 192.444 182.474 192.209 182.238C191.973 182.022 191.855 181.659 191.855 181.149V173.968C191.855 172.81 192.042 171.731 192.415 170.73L205.571 137.62C205.845 136.972 206.091 136.511 206.306 136.236C206.522 135.942 206.817 135.687 207.189 135.471L213.841 131.645C214.155 131.449 214.43 131.468 214.665 131.704C214.901 131.92 215.018 132.283 215.018 132.793V158.781L218.815 156.603C219.129 156.407 219.404 156.427 219.639 156.662C219.875 156.878 219.992 157.231 219.992 157.722V164.903C219.992 165.413 219.875 165.913 219.639 166.404C219.404 166.894 219.129 167.238 218.815 167.434L215.018 169.612V176.499C215.018 177.009 214.901 177.51 214.665 178C214.43 178.491 214.155 178.834 213.841 179.03L208.072 182.356ZM207.101 163.343V150.893L200.685 167.051L207.101 163.343Z" fill="#47B9FF"/>
<path d="M161.396 224.031C161.474 223.972 161.543 223.972 161.602 224.031C161.661 224.09 161.69 224.168 161.69 224.267V225.915C161.69 226.013 161.661 226.121 161.602 226.238C161.543 226.356 161.474 226.435 161.396 226.474L156.687 229.211C156.608 229.25 156.549 229.24 156.51 229.182C156.451 229.142 156.422 229.064 156.422 228.946V219.028C156.422 218.93 156.451 218.822 156.51 218.704C156.549 218.586 156.608 218.508 156.687 218.468L161.337 215.79C161.396 215.751 161.455 215.751 161.514 215.79C161.572 215.849 161.602 215.937 161.602 216.055V217.674C161.602 217.792 161.572 217.899 161.514 217.998C161.455 218.115 161.396 218.194 161.337 218.233L158.276 219.999V221.677L161.102 220.028C161.18 219.989 161.249 219.989 161.308 220.028C161.347 220.087 161.366 220.176 161.366 220.293V221.912C161.366 222.03 161.347 222.138 161.308 222.236C161.249 222.353 161.18 222.432 161.102 222.471L158.276 224.119V225.826L161.396 224.031Z" fill="#455A64"/>
<path fill-rule="evenodd" clip-rule="evenodd" d="M166.043 213.083C166.475 212.828 166.867 212.671 167.22 212.612C167.554 212.553 167.848 212.592 168.103 212.73C168.339 212.887 168.525 213.152 168.662 213.524C168.78 213.878 168.839 214.358 168.839 214.966C168.839 215.732 168.741 216.428 168.545 217.056C168.329 217.664 168.034 218.214 167.662 218.704L168.898 221.647C168.917 221.687 168.927 221.736 168.927 221.795C168.927 221.893 168.908 221.981 168.868 222.06C168.81 222.158 168.751 222.226 168.692 222.266L167.338 223.031C167.22 223.109 167.132 223.119 167.073 223.06C167.014 223.001 166.965 222.942 166.926 222.884L165.837 220.235L164.925 220.765V224.031C164.925 224.149 164.895 224.267 164.836 224.385C164.777 224.483 164.709 224.551 164.63 224.591L163.335 225.356C163.257 225.395 163.198 225.395 163.159 225.356C163.1 225.297 163.07 225.209 163.07 225.091V215.202C163.07 215.084 163.1 214.966 163.159 214.849C163.198 214.751 163.257 214.672 163.335 214.613L166.043 213.083ZM164.925 218.381L166.043 217.733C166.318 217.576 166.553 217.36 166.749 217.086C166.926 216.83 167.014 216.487 167.014 216.055C167.014 215.624 166.926 215.379 166.749 215.32C166.553 215.261 166.318 215.31 166.043 215.467L164.925 216.114V218.381Z" fill="#455A64"/>
<path fill-rule="evenodd" clip-rule="evenodd" d="M173.197 208.933C173.648 208.678 174.041 208.521 174.374 208.462C174.728 208.403 175.022 208.452 175.257 208.609C175.512 208.747 175.699 209.002 175.817 209.374C175.954 209.747 176.023 210.228 176.023 210.817C176.023 211.582 175.915 212.278 175.699 212.906C175.503 213.534 175.218 214.084 174.845 214.554L176.052 217.498C176.072 217.556 176.091 217.606 176.111 217.645C176.111 217.743 176.081 217.841 176.023 217.939C175.983 218.018 175.934 218.076 175.875 218.116L174.522 218.91C174.384 218.989 174.286 218.999 174.227 218.94C174.188 218.881 174.149 218.812 174.109 218.734L172.991 216.085L172.079 216.615V219.882C172.079 219.999 172.049 220.117 171.99 220.235C171.951 220.353 171.892 220.431 171.814 220.47L170.519 221.206C170.44 221.265 170.372 221.265 170.313 221.206C170.274 221.147 170.254 221.069 170.254 220.971V211.052C170.254 210.934 170.274 210.826 170.313 210.728C170.372 210.611 170.44 210.532 170.519 210.493L173.197 208.933ZM172.049 214.231L173.197 213.583C173.472 213.407 173.697 213.191 173.874 212.936C174.07 212.661 174.168 212.308 174.168 211.876C174.168 211.444 174.07 211.199 173.874 211.14C173.697 211.081 173.472 211.14 173.197 211.317L172.049 211.964V214.231Z" fill="#455A64"/>
<path fill-rule="evenodd" clip-rule="evenodd" d="M177.168 210.64C177.188 210.052 177.276 209.463 177.433 208.874C177.57 208.286 177.766 207.727 178.021 207.197C178.296 206.687 178.62 206.206 178.993 205.755C179.366 205.323 179.797 204.97 180.288 204.695C180.778 204.401 181.21 204.263 181.583 204.283C181.956 204.283 182.279 204.391 182.554 204.607C182.809 204.823 183.005 205.146 183.143 205.578C183.28 205.99 183.358 206.481 183.378 207.05C183.398 207.481 183.408 207.933 183.408 208.404C183.408 208.894 183.398 209.355 183.378 209.787C183.358 210.356 183.28 210.935 183.143 211.523C183.005 212.112 182.809 212.671 182.554 213.201C182.279 213.731 181.956 214.211 181.583 214.643C181.21 215.094 180.778 215.457 180.288 215.732C179.797 216.007 179.366 216.144 178.993 216.144C178.62 216.144 178.296 216.036 178.021 215.82C177.766 215.585 177.57 215.261 177.433 214.849C177.276 214.417 177.188 213.927 177.168 213.378C177.168 212.965 177.168 212.514 177.168 212.024C177.168 211.553 177.168 211.092 177.168 210.64ZM181.553 210.758C181.553 210.581 181.563 210.375 181.583 210.14C181.583 209.905 181.583 209.669 181.583 209.434C181.583 209.198 181.583 208.973 181.583 208.757C181.563 208.541 181.553 208.354 181.553 208.198C181.534 207.942 181.494 207.727 181.436 207.55C181.377 207.373 181.298 207.226 181.2 207.109C181.102 207.01 180.974 206.961 180.818 206.961C180.661 206.961 180.484 207.02 180.288 207.138C180.072 207.256 179.895 207.403 179.758 207.579C179.601 207.776 179.473 207.982 179.375 208.198C179.258 208.413 179.179 208.639 179.14 208.874C179.081 209.13 179.042 209.385 179.022 209.64C179.003 209.836 178.993 210.042 178.993 210.258C178.993 210.474 178.993 210.699 178.993 210.935C178.993 211.17 178.993 211.396 178.993 211.612C178.993 211.847 179.003 212.053 179.022 212.23C179.042 212.72 179.16 213.073 179.375 213.289C179.572 213.525 179.876 213.515 180.288 213.26C180.7 213.024 181.004 212.681 181.2 212.23C181.396 211.778 181.514 211.288 181.553 210.758Z" fill="#455A64"/>
<path fill-rule="evenodd" clip-rule="evenodd" d="M187.763 200.515C188.215 200.26 188.607 200.103 188.941 200.045C189.294 199.986 189.588 200.035 189.824 200.192C190.079 200.329 190.265 200.584 190.383 200.957C190.52 201.33 190.589 201.81 190.589 202.399C190.589 203.164 190.481 203.861 190.265 204.489C190.069 205.117 189.784 205.676 189.412 206.166L190.618 209.08C190.638 209.139 190.658 209.198 190.677 209.257C190.677 209.335 190.648 209.424 190.589 209.522C190.55 209.62 190.501 209.679 190.442 209.698L189.088 210.493C188.951 210.571 188.852 210.581 188.794 210.522C188.754 210.463 188.715 210.395 188.676 210.316L187.557 207.667L186.645 208.197V211.494C186.645 211.592 186.616 211.7 186.557 211.817C186.518 211.935 186.459 212.014 186.38 212.053L185.085 212.818C185.007 212.857 184.938 212.847 184.879 212.789C184.84 212.749 184.82 212.671 184.82 212.553V202.635C184.82 202.536 184.84 202.429 184.879 202.311C184.938 202.193 185.007 202.115 185.085 202.075L187.763 200.515ZM186.616 205.813L187.763 205.166C188.038 205.009 188.264 204.793 188.44 204.518C188.637 204.244 188.735 203.89 188.735 203.459C188.735 203.027 188.637 202.782 188.44 202.723C188.264 202.684 188.038 202.742 187.763 202.899L186.616 203.547V205.813Z" fill="#455A64"/>
<path fill-rule="evenodd" clip-rule="evenodd" d="M143.44 240.984C144.068 240.631 144.549 240.572 144.882 240.807C145.216 241.062 145.382 241.622 145.382 242.485C145.382 243.348 145.216 244.104 144.882 244.751C144.549 245.399 144.068 245.899 143.44 246.252L142.233 246.959V249.578C142.233 249.676 142.214 249.764 142.174 249.843C142.135 249.921 142.086 249.98 142.027 250.019L141.409 250.373C141.35 250.412 141.301 250.412 141.262 250.373C141.223 250.333 141.203 250.275 141.203 250.196V242.603C141.203 242.505 141.223 242.416 141.262 242.338C141.301 242.24 141.35 242.181 141.409 242.161L143.44 240.984ZM142.204 245.487L143.381 244.81C143.675 244.653 143.911 244.437 144.087 244.163C144.264 243.888 144.352 243.525 144.352 243.074C144.352 242.642 144.264 242.387 144.087 242.308C143.911 242.249 143.675 242.298 143.381 242.455L142.204 243.162V245.487Z" fill="#E0E0E0"/>
<path fill-rule="evenodd" clip-rule="evenodd" d="M148.621 237.982C148.7 237.943 148.759 237.943 148.798 237.982C148.837 238.021 148.867 238.1 148.886 238.218L150.77 244.575C150.77 244.594 150.77 244.624 150.77 244.663C150.77 244.742 150.75 244.82 150.711 244.899C150.672 244.997 150.623 245.056 150.564 245.075L150.034 245.399C149.916 245.458 149.838 245.468 149.799 245.428C149.759 245.389 149.73 245.34 149.71 245.281L149.387 244.163L146.973 245.575L146.649 247.047C146.63 247.126 146.6 247.204 146.561 247.283C146.522 247.381 146.453 247.459 146.355 247.518L145.796 247.842C145.757 247.881 145.708 247.881 145.649 247.842C145.609 247.802 145.59 247.734 145.59 247.636C145.59 247.616 145.6 247.587 145.619 247.547L147.473 239.042C147.513 238.904 147.552 238.787 147.591 238.688C147.63 238.59 147.689 238.522 147.768 238.482L148.621 237.982ZM149.033 242.897L148.209 240.042L147.356 243.868L149.033 242.897Z" fill="#E0E0E0"/>
<path d="M151.355 239.454C151.375 238.983 151.434 238.522 151.532 238.071C151.63 237.619 151.777 237.198 151.974 236.805C152.17 236.413 152.405 236.06 152.68 235.746C152.974 235.432 153.308 235.167 153.681 234.951C154.112 234.696 154.475 234.578 154.77 234.598C155.064 234.598 155.29 234.676 155.446 234.833C155.623 234.971 155.741 235.157 155.8 235.392C155.878 235.608 155.917 235.805 155.917 235.981C155.937 236.06 155.927 236.148 155.888 236.246C155.829 236.324 155.77 236.383 155.711 236.423L155.093 236.776C155.054 236.795 155.015 236.795 154.976 236.776C154.936 236.756 154.907 236.727 154.887 236.687C154.887 236.668 154.868 236.619 154.828 236.54C154.789 236.442 154.721 236.364 154.622 236.305C154.524 236.246 154.397 236.217 154.24 236.217C154.083 236.217 153.896 236.285 153.681 236.423C153.288 236.638 152.984 236.972 152.768 237.423C152.533 237.875 152.405 238.375 152.386 238.924C152.386 239.219 152.386 239.533 152.386 239.866C152.386 240.219 152.386 240.543 152.386 240.837C152.405 241.465 152.533 241.867 152.768 242.044C152.984 242.201 153.288 242.172 153.681 241.956C153.857 241.838 154.024 241.701 154.181 241.544C154.338 241.387 154.475 241.21 154.593 241.014C154.711 240.798 154.799 240.563 154.858 240.308C154.936 240.033 154.976 239.729 154.976 239.395V239.307L154.034 239.837C153.975 239.876 153.926 239.876 153.887 239.837C153.847 239.797 153.828 239.729 153.828 239.631V238.807C153.828 238.708 153.847 238.62 153.887 238.542C153.926 238.463 153.975 238.404 154.034 238.365L155.8 237.364C155.839 237.325 155.878 237.325 155.917 237.364C155.976 237.404 156.006 237.462 156.006 237.541V238.836C156.006 239.307 155.957 239.768 155.859 240.219C155.76 240.671 155.613 241.092 155.417 241.485C155.221 241.897 154.976 242.26 154.681 242.574C154.387 242.907 154.053 243.192 153.681 243.427C153.288 243.643 152.945 243.751 152.65 243.751C152.376 243.771 152.14 243.692 151.944 243.516C151.768 243.339 151.63 243.084 151.532 242.75C151.434 242.417 151.375 242.015 151.355 241.544C151.355 241.387 151.355 241.22 151.355 241.043C151.355 240.867 151.355 240.69 151.355 240.514C151.355 240.317 151.355 240.131 151.355 239.954C151.355 239.778 151.355 239.611 151.355 239.454Z" fill="#E0E0E0"/>
<path d="M160.717 237.776C160.757 237.737 160.796 237.737 160.835 237.776C160.894 237.815 160.924 237.884 160.924 237.982V238.806C160.924 238.885 160.894 238.973 160.835 239.071C160.796 239.15 160.757 239.208 160.717 239.248L157.362 241.161C157.303 241.2 157.254 241.2 157.215 241.161C157.176 241.121 157.156 241.063 157.156 240.984V233.391C157.156 233.293 157.176 233.204 157.215 233.126C157.254 233.047 157.303 232.988 157.362 232.949L160.629 231.036C160.688 231.017 160.737 231.026 160.776 231.066C160.816 231.105 160.835 231.164 160.835 231.242V232.096C160.835 232.174 160.816 232.253 160.776 232.331C160.737 232.429 160.688 232.488 160.629 232.508L158.186 233.95V235.804L160.482 234.48C160.541 234.44 160.59 234.44 160.629 234.48C160.668 234.519 160.688 234.588 160.688 234.686V235.51C160.688 235.608 160.668 235.696 160.629 235.775C160.59 235.853 160.541 235.912 160.482 235.951L158.186 237.276V239.218L160.717 237.776Z" fill="#E0E0E0"/>
<path d="M167.428 235.334C167.349 235.392 167.291 235.402 167.251 235.363C167.192 235.324 167.153 235.284 167.134 235.245L165.014 231.596V236.423C165.014 236.521 164.995 236.609 164.956 236.687C164.916 236.786 164.867 236.844 164.808 236.864L164.19 237.217C164.132 237.256 164.082 237.256 164.043 237.217C164.004 237.178 163.984 237.119 163.984 237.041V229.447C163.984 229.349 164.004 229.261 164.043 229.182C164.082 229.104 164.132 229.045 164.19 229.006L164.72 228.682C164.799 228.643 164.867 228.643 164.926 228.682C164.965 228.721 164.995 228.76 165.014 228.8L167.163 232.449V227.622C167.163 227.524 167.183 227.436 167.222 227.358C167.261 227.259 167.31 227.201 167.369 227.181L167.987 226.828C168.026 226.789 168.075 226.789 168.134 226.828C168.173 226.867 168.193 226.926 168.193 227.004V234.598C168.193 234.696 168.173 234.784 168.134 234.863C168.075 234.941 168.026 235 167.987 235.039L167.428 235.334Z" fill="#E0E0E0"/>
<path fill-rule="evenodd" clip-rule="evenodd" d="M169.371 229.064C169.391 228.613 169.45 228.172 169.548 227.74C169.646 227.289 169.783 226.867 169.96 226.474C170.136 226.082 170.362 225.729 170.637 225.415C170.911 225.081 171.245 224.807 171.637 224.591C171.991 224.375 172.304 224.267 172.579 224.267C172.854 224.287 173.089 224.385 173.286 224.561C173.462 224.738 173.599 224.993 173.698 225.327C173.796 225.66 173.855 226.043 173.874 226.474C173.874 226.631 173.874 226.798 173.874 226.975C173.874 227.151 173.874 227.338 173.874 227.534C173.874 227.711 173.874 227.897 173.874 228.093C173.874 228.27 173.874 228.437 173.874 228.594C173.855 229.025 173.796 229.467 173.698 229.918C173.599 230.369 173.462 230.781 173.286 231.154C173.109 231.547 172.883 231.91 172.609 232.243C172.314 232.577 171.991 232.842 171.637 233.038C171.245 233.273 170.911 233.381 170.637 233.361C170.362 233.361 170.136 233.273 169.96 233.097C169.783 232.92 169.646 232.665 169.548 232.331C169.45 231.998 169.391 231.615 169.371 231.184C169.371 231.027 169.371 230.86 169.371 230.683C169.371 230.507 169.371 230.32 169.371 230.124C169.371 229.928 169.371 229.741 169.371 229.565C169.371 229.388 169.371 229.221 169.371 229.064ZM172.844 227.122C172.824 226.573 172.707 226.21 172.491 226.033C172.275 225.837 171.991 225.847 171.637 226.062C171.265 226.259 170.97 226.582 170.754 227.034C170.539 227.465 170.421 227.966 170.401 228.535C170.401 228.829 170.401 229.163 170.401 229.535C170.401 229.908 170.401 230.232 170.401 230.507C170.421 231.076 170.539 231.448 170.754 231.625C170.97 231.802 171.265 231.792 171.637 231.596C171.991 231.38 172.275 231.056 172.491 230.624C172.707 230.193 172.824 229.692 172.844 229.123C172.844 228.809 172.844 228.476 172.844 228.123C172.844 227.75 172.844 227.416 172.844 227.122Z" fill="#E0E0E0"/>
<path d="M178.522 220.735C178.561 220.696 178.611 220.696 178.669 220.735C178.709 220.774 178.728 220.843 178.728 220.941V221.765C178.728 221.844 178.709 221.932 178.669 222.03C178.611 222.108 178.561 222.167 178.522 222.207L177.139 223.001V229.417C177.139 229.515 177.119 229.604 177.08 229.682C177.041 229.78 176.992 229.839 176.933 229.859L176.315 230.212C176.256 230.251 176.207 230.251 176.168 230.212C176.128 230.173 176.109 230.114 176.109 230.035V223.59L174.726 224.385C174.667 224.404 174.618 224.394 174.578 224.355C174.539 224.316 174.52 224.257 174.52 224.179V223.354C174.52 223.256 174.539 223.168 174.578 223.09C174.618 223.011 174.667 222.952 174.726 222.913L178.522 220.735Z" fill="#E0E0E0"/>
<path d="M184.879 217.056C184.938 217.017 184.987 217.017 185.026 217.056C185.066 217.096 185.085 217.164 185.085 217.262V218.086C185.085 218.165 185.066 218.253 185.026 218.351C184.987 218.43 184.938 218.489 184.879 218.528L182.436 219.941V222.207L184.732 220.882C184.791 220.863 184.84 220.873 184.879 220.912C184.918 220.951 184.938 221.01 184.938 221.088V221.913C184.938 222.011 184.918 222.099 184.879 222.177C184.84 222.276 184.791 222.334 184.732 222.354L182.436 223.678V226.357C182.436 226.455 182.417 226.543 182.378 226.622C182.338 226.72 182.289 226.779 182.23 226.798L181.612 227.151C181.553 227.191 181.504 227.191 181.465 227.151C181.426 227.112 181.406 227.053 181.406 226.975V219.381C181.406 219.283 181.426 219.195 181.465 219.117C181.504 219.038 181.553 218.979 181.612 218.94L184.879 217.056Z" fill="#E0E0E0"/>
<path fill-rule="evenodd" clip-rule="evenodd" d="M185.91 219.528C185.93 219.077 185.989 218.626 186.087 218.174C186.185 217.743 186.322 217.331 186.499 216.938C186.675 216.546 186.901 216.183 187.176 215.849C187.45 215.535 187.774 215.271 188.147 215.055C188.52 214.839 188.844 214.731 189.118 214.731C189.393 214.731 189.628 214.829 189.825 215.025C190.001 215.202 190.139 215.457 190.237 215.791C190.335 216.124 190.394 216.507 190.413 216.938C190.413 217.076 190.413 217.233 190.413 217.409C190.413 217.586 190.413 217.772 190.413 217.968C190.413 218.165 190.413 218.351 190.413 218.528C190.413 218.724 190.413 218.891 190.413 219.028C190.394 219.479 190.335 219.931 190.237 220.382C190.139 220.814 190.001 221.226 189.825 221.618C189.648 222.01 189.413 222.373 189.118 222.707C188.844 223.021 188.52 223.286 188.147 223.502C187.774 223.717 187.45 223.825 187.176 223.825C186.901 223.806 186.675 223.708 186.499 223.531C186.322 223.354 186.185 223.099 186.087 222.766C185.989 222.432 185.93 222.05 185.91 221.618C185.91 221.481 185.91 221.324 185.91 221.147C185.91 220.97 185.91 220.784 185.91 220.588C185.91 220.392 185.91 220.205 185.91 220.029C185.91 219.852 185.91 219.685 185.91 219.528ZM189.383 217.586C189.363 217.036 189.246 216.664 189.03 216.467C188.814 216.291 188.52 216.31 188.147 216.526C187.794 216.723 187.509 217.036 187.293 217.468C187.078 217.9 186.96 218.41 186.94 218.999C186.94 219.293 186.94 219.626 186.94 219.999C186.94 220.352 186.94 220.676 186.94 220.97C186.96 221.52 187.078 221.883 187.293 222.059C187.509 222.256 187.794 222.246 188.147 222.03C188.52 221.834 188.814 221.52 189.03 221.088C189.246 220.657 189.363 220.146 189.383 219.558C189.383 219.263 189.383 218.93 189.383 218.557C189.383 218.204 189.383 217.88 189.383 217.586Z" fill="#E0E0E0"/>
<path d="M195.738 210.787C195.777 210.748 195.826 210.748 195.885 210.787C195.924 210.826 195.944 210.895 195.944 210.993V215.82C195.944 216.291 195.895 216.752 195.797 217.203C195.699 217.655 195.561 218.067 195.385 218.44C195.208 218.832 194.982 219.185 194.708 219.499C194.433 219.813 194.109 220.068 193.737 220.264C193.383 220.48 193.069 220.588 192.795 220.588C192.52 220.608 192.285 220.529 192.088 220.353C191.912 220.176 191.784 219.911 191.706 219.558C191.608 219.224 191.559 218.812 191.559 218.322V213.524C191.559 213.426 191.578 213.338 191.617 213.26C191.657 213.161 191.706 213.103 191.765 213.083L192.383 212.73C192.442 212.69 192.491 212.69 192.53 212.73C192.569 212.769 192.589 212.828 192.589 212.906V217.674C192.589 217.988 192.618 218.243 192.677 218.44C192.736 218.636 192.814 218.783 192.912 218.881C193.011 218.959 193.128 218.989 193.266 218.969C193.423 218.969 193.58 218.92 193.737 218.822C193.913 218.724 194.07 218.596 194.207 218.44C194.364 218.283 194.492 218.106 194.59 217.91C194.688 217.714 194.767 217.478 194.826 217.203C194.884 216.948 194.914 216.664 194.914 216.35V211.582C194.914 211.503 194.933 211.415 194.973 211.317C195.012 211.239 195.061 211.18 195.12 211.14L195.738 210.787Z" fill="#E0E0E0"/>
<path d="M200.746 216.114C200.668 216.173 200.599 216.173 200.54 216.114C200.501 216.075 200.472 216.046 200.452 216.026L198.304 212.377V217.203C198.304 217.301 198.284 217.39 198.245 217.468C198.205 217.547 198.156 217.606 198.098 217.645L197.479 217.998C197.421 218.037 197.372 218.037 197.332 217.998C197.293 217.959 197.273 217.89 197.273 217.792V210.199C197.273 210.12 197.293 210.042 197.332 209.963C197.372 209.865 197.421 209.806 197.479 209.787L198.009 209.463C198.107 209.424 198.176 209.424 198.215 209.463C198.255 209.502 198.294 209.541 198.333 209.581L200.452 213.23V208.374C200.452 208.295 200.472 208.207 200.511 208.109C200.55 208.03 200.599 207.972 200.658 207.932L201.276 207.579C201.335 207.56 201.384 207.569 201.423 207.609C201.463 207.648 201.482 207.707 201.482 207.785V215.379C201.482 215.457 201.463 215.545 201.423 215.643C201.384 215.722 201.335 215.781 201.276 215.82L200.746 216.114Z" fill="#E0E0E0"/>
<path fill-rule="evenodd" clip-rule="evenodd" d="M204.953 205.46C205.326 205.244 205.649 205.136 205.924 205.136C206.219 205.117 206.454 205.195 206.631 205.372C206.807 205.548 206.954 205.813 207.072 206.166C207.17 206.5 207.229 206.912 207.249 207.402C207.268 207.972 207.268 208.55 207.249 209.139C207.229 209.629 207.17 210.11 207.072 210.581C206.954 211.032 206.807 211.454 206.631 211.847C206.454 212.219 206.228 212.563 205.954 212.877C205.679 213.191 205.355 213.456 204.982 213.671L203.069 214.79C203.01 214.809 202.961 214.8 202.922 214.76C202.883 214.721 202.863 214.662 202.863 214.584V206.99C202.863 206.912 202.883 206.824 202.922 206.726C202.961 206.647 203.01 206.588 203.069 206.549L204.953 205.46ZM206.219 207.991C206.199 207.736 206.16 207.52 206.101 207.344C206.062 207.147 205.983 207 205.865 206.902C205.767 206.804 205.64 206.755 205.483 206.755C205.326 206.755 205.139 206.824 204.924 206.961L203.893 207.55V212.818L204.953 212.229C205.169 212.112 205.345 211.955 205.483 211.758C205.64 211.582 205.767 211.386 205.865 211.17C205.983 210.954 206.062 210.728 206.101 210.493C206.16 210.238 206.199 209.983 206.219 209.728C206.238 209.139 206.238 208.56 206.219 207.991Z" fill="#E0E0E0"/>
<path d="M292.511 80.5521L295.219 82.0825C295.661 82.318 295.984 82.9066 295.984 83.3775V121.197C295.984 121.668 295.661 122.257 295.219 122.492L265.67 139.563C265.258 139.828 264.551 139.828 264.139 139.592L261.402 138.062C260.99 137.797 260.637 137.238 260.637 136.737V98.9469C260.637 98.476 260.99 97.858 261.402 97.6225L290.981 80.5521C291.393 80.3166 292.07 80.3166 292.511 80.5521Z" fill="#FFC514"/>
<path d="M264.902 139.121V101.331C264.902 100.86 265.256 100.271 265.668 100.006L295.217 82.9654C295.659 82.7006 295.982 82.9066 295.982 83.3775V121.197C295.982 121.668 295.659 122.257 295.217 122.492L265.668 139.563C265.256 139.828 264.902 139.622 264.902 139.121Z" fill="#FFC514"/>
<path opacity="0.2" d="M265.67 139.563C265.258 139.798 264.522 139.828 264.139 139.592L261.402 138.062C260.99 137.826 260.637 137.238 260.637 136.737V98.9469C260.637 98.682 260.754 98.4171 260.902 98.1816L265.14 100.595C264.993 100.83 264.904 101.095 264.904 101.331V139.121C264.904 139.563 265.228 139.828 265.67 139.563Z" fill="black"/>
<path opacity="0.4" d="M295.981 83.2598C295.922 82.8772 295.598 82.73 295.216 82.9655L265.666 100.006C265.46 100.154 265.254 100.36 265.137 100.595L260.898 98.1817C261.016 97.9463 261.193 97.7402 261.399 97.6225L290.978 80.5521C291.39 80.3166 292.067 80.3166 292.508 80.5521L295.216 82.0825C295.598 82.2886 295.922 82.7889 295.981 83.2598Z" fill="white"/>
<path d="M264.902 112.78L258.868 120.05C258.868 120.05 254.777 117.695 254.63 117.607C254.306 117.401 254.188 116.901 254.512 116.577L260.634 110.337L264.902 112.78Z" fill="#FFC514"/>
<path opacity="0.1" d="M264.902 112.78L258.868 120.05C258.868 120.05 254.777 117.695 254.63 117.607C254.306 117.401 254.188 116.901 254.512 116.577L260.634 110.337L264.902 112.78Z" fill="black"/>
<path d="M264.902 119.373L259.368 120.167C258.721 120.255 258.338 119.49 258.78 119.019L264.902 112.78C265.49 112.78 265.49 119.373 264.902 119.373Z" fill="#FFC514"/>
<path d="M271.086 106.54L275.471 110.778" stroke="#455A64" stroke-width="1.6" stroke-linecap="round"/>
<path d="M271.086 113.309L275.471 104.009" stroke="#455A64" stroke-width="1.6" stroke-linecap="round"/>
<path d="M285.418 98.2695L289.833 102.478" stroke="#455A64" stroke-width="1.6" stroke-linecap="round"/>
<path d="M285.418 105.009L289.833 95.709" stroke="#455A64" stroke-width="1.6" stroke-linecap="round"/>
<path d="M270.879 123.846L290.01 112.809" stroke="#455A64" stroke-width="1.6" stroke-linecap="round"/>
<path d="M287.626 114.192V119.519C287.626 121.138 286.566 123.08 285.242 123.846C283.917 124.611 282.828 123.904 282.828 122.286V116.929" stroke="#455A64" stroke-width="1.6" stroke-linecap="round"/>
<path d="M285.242 115.546V120.726" stroke="#455A64" stroke-width="1.2" stroke-linecap="round"/>
<path d="M350.378 179.201L349.926 179.178L350.084 176.511L350.536 176.533L350.378 179.201Z" fill="url(#paint0_linear_1141_10152)"/>
<path d="M350.671 174.476L350.219 174.454L350.784 165.705L351.236 165.728L350.671 174.476Z" fill="url(#paint1_linear_1141_10152)"/>
<path d="M350.154 158.064L343.305 264.086C343.124 266.867 340.682 269.15 337.902 269.15H284.755C281.974 269.15 279.849 266.867 280.03 264.086L286.88 158.064C287.061 155.261 289.502 153 292.283 153H345.43C348.21 153 350.335 155.261 350.154 158.064Z" fill="url(#paint2_linear_1141_10152)"/>
<path opacity="0.7" d="M348.481 158.064L341.609 264.086C341.428 266.867 339.01 269.15 336.229 269.15H284.755C281.974 269.15 279.849 266.867 280.03 264.086L286.88 158.064C287.061 155.261 289.502 153 292.283 153H343.734C346.515 153 348.662 155.261 348.481 158.064Z" fill="white"/>
<path d="M339.389 261.305H282.784C281.902 261.305 281.179 260.559 281.247 259.655L287.463 163.715C287.508 162.901 288.187 162.268 289 162.268H345.606C346.51 162.268 347.211 163.037 347.143 163.918L340.949 259.859C340.881 260.672 340.203 261.305 339.389 261.305Z" fill="white"/>
<path d="M326.824 159.126H306.253C305.801 159.126 305.439 158.764 305.484 158.312C305.507 157.86 305.891 157.499 306.343 157.499H326.915C327.367 157.499 327.729 157.86 327.683 158.312C327.661 158.764 327.277 159.126 326.824 159.126Z" fill="white"/>
<path d="M310.752 265.33C310.707 266.46 309.758 267.342 308.65 267.342C307.52 267.342 306.683 266.46 306.728 265.33C306.796 264.222 307.746 263.318 308.853 263.318C309.961 263.318 310.82 264.222 310.752 265.33Z" fill="white"/>
<path opacity="0.2" d="M338.282 193.917V231.217C338.282 233.997 336.022 236.281 333.219 236.281H281.812L284.887 188.853H333.219C336.022 188.853 338.282 191.114 338.282 193.917Z" fill="url(#paint3_linear_1141_10152)"/>
<path d="M328.721 232.054H269.493C266.713 232.054 264.43 229.793 264.43 226.99V189.69C264.43 186.909 266.713 184.626 269.493 184.626H328.721C331.502 184.626 333.785 186.909 333.785 189.69V226.99C333.785 229.793 331.502 232.054 328.721 232.054Z" fill="url(#paint4_linear_1141_10152)"/>
<path d="M262.801 184.083C262.688 184.083 262.575 184.038 262.485 183.948L261.671 183.134C261.49 182.976 261.49 182.682 261.671 182.501C261.852 182.32 262.146 182.32 262.326 182.501L263.118 183.315C263.298 183.496 263.298 183.767 263.118 183.948C263.027 184.038 262.914 184.083 262.801 184.083Z" fill="url(#paint5_linear_1141_10152)"/>
<path d="M261.582 186.932H260.452C260.181 186.932 260 186.728 260 186.479C260 186.231 260.181 186.027 260.452 186.027H261.582C261.831 186.027 262.035 186.231 262.035 186.479C262.035 186.728 261.831 186.932 261.582 186.932Z" fill="url(#paint6_linear_1141_10152)"/>
<path d="M265.697 182.863C265.448 182.863 265.244 182.682 265.244 182.433L265.154 181.303C265.131 181.054 265.335 180.828 265.584 180.806C265.832 180.806 266.036 180.987 266.058 181.235L266.149 182.388C266.149 182.637 265.968 182.84 265.719 182.863C265.704 182.863 265.697 182.863 265.697 182.863Z" fill="url(#paint7_linear_1141_10152)"/>
<path d="M322.347 227.193V245.369L304.172 227.193H322.347Z" fill="url(#paint8_linear_1141_10152)"/>
<path d="M306.434 221.949L284.959 217.156C283.308 216.772 282.63 214.828 283.647 213.494L286.089 210.397C286.722 209.606 287.174 208.656 287.4 207.639L288.621 202.168C289.728 197.285 294.046 193.94 298.839 193.827C298.839 193.736 298.839 193.623 298.884 193.51C299.178 192.109 300.579 191.249 301.958 191.543C303.36 191.86 304.242 193.239 303.925 194.64C303.902 194.753 303.857 194.844 303.812 194.957C308.107 197.104 310.594 201.965 309.486 206.848L308.265 212.318C308.039 213.313 308.039 214.375 308.265 215.37L309.147 219.213C309.531 220.863 308.062 222.333 306.434 221.949Z" fill="white"/>
<path d="M297.82 221.497C298.521 221.655 298.837 222.491 298.43 223.079C297.594 224.277 296.079 224.91 294.565 224.571C293.05 224.232 291.965 223.011 291.716 221.564C291.603 220.864 292.236 220.253 292.937 220.411L297.82 221.497Z" fill="white"/>
<path d="M276.433 212.793C276.23 212.793 276.004 212.68 275.868 212.477C273.72 209.267 272.952 205.401 273.72 201.603C274.466 197.805 276.659 194.527 279.892 192.357C280.186 192.154 280.615 192.244 280.819 192.561C281.045 192.877 280.954 193.284 280.638 193.487C277.722 195.454 275.732 198.416 275.054 201.852C274.353 205.31 275.054 208.814 276.998 211.731C277.202 212.047 277.134 212.454 276.817 212.68C276.704 212.748 276.569 212.793 276.433 212.793Z" fill="white"/>
<path d="M279.306 210.872C279.102 210.872 278.876 210.759 278.763 210.555C277.113 208.114 276.525 205.175 277.113 202.282C277.678 199.388 279.351 196.879 281.815 195.251C282.109 195.025 282.538 195.115 282.742 195.432C282.945 195.748 282.877 196.155 282.561 196.381C280.413 197.806 278.944 199.998 278.447 202.53C277.927 205.085 278.447 207.662 279.871 209.809C280.097 210.126 280.006 210.533 279.69 210.759C279.577 210.827 279.441 210.872 279.306 210.872Z" fill="white"/>
<path d="M282.201 208.95C281.975 208.95 281.749 208.837 281.636 208.656C280.506 206.961 280.099 204.926 280.506 202.937C280.89 200.947 282.043 199.252 283.716 198.122C284.032 197.918 284.462 197.986 284.665 198.302C284.869 198.619 284.801 199.026 284.484 199.252C283.105 200.179 282.156 201.58 281.817 203.208C281.5 204.836 281.839 206.508 282.766 207.887C282.97 208.204 282.879 208.633 282.563 208.837C282.45 208.905 282.314 208.95 282.201 208.95Z" fill="white"/>
<path d="M315.544 222.333C315.295 222.333 315.069 222.197 314.934 221.971C314.775 221.632 314.888 221.225 315.228 221.044C318.347 219.439 320.653 216.704 321.716 213.358C322.801 210.013 322.484 206.464 320.879 203.344C320.721 203.005 320.834 202.598 321.173 202.417C321.512 202.259 321.919 202.372 322.077 202.711C323.863 206.147 324.202 210.081 323.027 213.765C321.851 217.473 319.297 220.479 315.861 222.265C315.755 222.31 315.65 222.333 315.544 222.333Z" fill="white"/>
<path d="M313.962 219.259C313.713 219.259 313.465 219.123 313.352 218.897C313.193 218.558 313.306 218.151 313.646 217.97C315.951 216.794 317.647 214.783 318.438 212.318C319.229 209.854 319.003 207.232 317.805 204.926C317.647 204.587 317.76 204.18 318.099 203.999C318.438 203.841 318.845 203.977 319.026 204.293C320.36 206.916 320.631 209.922 319.727 212.725C318.822 215.529 316.901 217.834 314.278 219.191C314.173 219.236 314.068 219.259 313.962 219.259Z" fill="white"/>
<path d="M312.378 216.184C312.13 216.184 311.881 216.048 311.768 215.822C311.587 215.483 311.723 215.076 312.062 214.896C313.531 214.15 314.639 212.838 315.136 211.256C315.656 209.674 315.498 207.978 314.729 206.509C314.571 206.17 314.707 205.763 315.023 205.604C315.362 205.424 315.769 205.559 315.95 205.876C317.872 209.606 316.402 214.195 312.672 216.116C312.582 216.161 312.484 216.184 312.378 216.184Z" fill="white"/>
<defs>
<linearGradient id="paint0_linear_1141_10152" x1="349.926" y1="177.856" x2="350.536" y2="177.856" gradientUnits="userSpaceOnUse">
<stop offset="0.333333" stop-color="#FF8534"/>
<stop offset="1" stop-color="#FF630C"/>
</linearGradient>
<linearGradient id="paint1_linear_1141_10152" x1="350.219" y1="170.091" x2="351.236" y2="170.091" gradientUnits="userSpaceOnUse">
<stop offset="0.333333" stop-color="#FF8534"/>
<stop offset="1" stop-color="#FF630C"/>
</linearGradient>
<linearGradient id="paint2_linear_1141_10152" x1="280.02" y1="211.075" x2="350.165" y2="211.075" gradientUnits="userSpaceOnUse">
<stop offset="0.333333" stop-color="#FF8534"/>
<stop offset="1" stop-color="#FF630C"/>
</linearGradient>
<linearGradient id="paint3_linear_1141_10152" x1="281.812" y1="212.567" x2="338.282" y2="212.567" gradientUnits="userSpaceOnUse">
<stop offset="0.333333" stop-color="#FF8534"/>
<stop offset="1" stop-color="#FF630C"/>
</linearGradient>
<linearGradient id="paint4_linear_1141_10152" x1="264.43" y1="208.34" x2="333.785" y2="208.34" gradientUnits="userSpaceOnUse">
<stop offset="0.333333" stop-color="#FF8534"/>
<stop offset="1" stop-color="#FF630C"/>
</linearGradient>
<linearGradient id="paint5_linear_1141_10152" x1="261.535" y1="183.224" x2="263.253" y2="183.224" gradientUnits="userSpaceOnUse">
<stop offset="0.333333" stop-color="#FF8534"/>
<stop offset="1" stop-color="#FF630C"/>
</linearGradient>
<linearGradient id="paint6_linear_1141_10152" x1="260" y1="186.479" x2="262.035" y2="186.479" gradientUnits="userSpaceOnUse">
<stop offset="0.333333" stop-color="#FF8534"/>
<stop offset="1" stop-color="#FF630C"/>
</linearGradient>
<linearGradient id="paint7_linear_1141_10152" x1="265.152" y1="181.834" x2="266.149" y2="181.834" gradientUnits="userSpaceOnUse">
<stop offset="0.333333" stop-color="#FF8534"/>
<stop offset="1" stop-color="#FF630C"/>
</linearGradient>
<linearGradient id="paint8_linear_1141_10152" x1="304.172" y1="236.281" x2="322.347" y2="236.281" gradientUnits="userSpaceOnUse">
<stop offset="0.333333" stop-color="#FF8534"/>
<stop offset="1" stop-color="#FF630C"/>
</linearGradient>
</defs>
</svg>
