<svg width="14" height="16" viewBox="0 0 14 16" fill="none" xmlns="http://www.w3.org/2000/svg">
<path d="M2 0.666626V1.99996H1.33333C0.593333 1.99996 0 2.59329 0 3.33329V12.6666C0 13.0203 0.140476 13.3594 0.390524 13.6094C0.640573 13.8595 0.979711 14 1.33333 14H5.4C6.24 14.8266 7.39333 15.3333 8.66667 15.3333C11.2467 15.3333 13.3333 13.2466 13.3333 10.6666C13.3333 9.39329 12.8267 8.23996 12 7.39996V3.33329C12 2.97967 11.8595 2.64053 11.6095 2.39048C11.3594 2.14044 11.0203 1.99996 10.6667 1.99996H10V0.666626H8.66667V1.99996H3.33333V0.666626M1.33333 3.33329H10.6667V4.66663H1.33333M1.33333 5.99996H10.6667V6.44663C10.06 6.15996 9.38 5.99996 8.66667 5.99996C6.08667 5.99996 4 8.08663 4 10.6666C4 11.38 4.16 12.06 4.44667 12.6666H1.33333M8.66667 7.43329C10.4533 7.43329 11.9 8.87996 11.9 10.6666C11.9 12.4533 10.4533 13.9 8.66667 13.9C6.88 13.9 5.43333 12.4533 5.43333 10.6666C5.43333 8.87996 6.88 7.43329 8.66667 7.43329ZM8 8.66663V11.1266L10.1267 12.3533L10.6267 11.4866L9 10.5466V8.66663H8Z" fill="#1976FE"/>
</svg>
