<?xml version="1.0" encoding="utf-8"?>
<!-- Generator: Adobe Illustrator 24.2.0, SVG Export Plug-In . SVG Version: 6.00 Build 0)  -->
<svg version="1.1" id="Layer_1" xmlns="http://www.w3.org/2000/svg" xmlns:xlink="http://www.w3.org/1999/xlink" x="0px" y="0px"
	 viewBox="0 0 500 500" style="enable-background:new 0 0 500 500;" xml:space="preserve">
<style type="text/css">
	.st0{fill:#002E60;}
</style>
<g>
	<path class="st0" d="M455.2,295H44.8c-10.9,0-19.8-8.9-19.8-19.8v-50.4c0-10.9,8.9-19.8,19.8-19.8h410.4c10.9,0,19.8,8.9,19.8,19.8
		v50.4C475,286.1,466.1,295,455.2,295z"/>
	<path class="st0" d="M205,455.2V44.8c0-10.9,8.9-19.8,19.8-19.8h50.4c10.9,0,19.8,8.9,19.8,19.8v410.4c0,10.9-8.9,19.8-19.8,19.8
		h-50.4C213.9,475,205,466.1,205,455.2z"/>
</g>
</svg>
