<?xml version="1.0" encoding="utf-8"?>
<!-- Generator: Adobe Illustrator 24.2.0, SVG Export Plug-In . SVG Version: 6.00 Build 0)  -->
<svg version="1.1" id="Layer_1" xmlns="http://www.w3.org/2000/svg" xmlns:xlink="http://www.w3.org/1999/xlink" x="0px" y="0px"
	 viewBox="0 0 500 500" style="enable-background:new 0 0 500 500;" xml:space="preserve">
<style type="text/css">
	.st0{fill:#002E60;}
</style>
<g>
	<g>
		<ellipse class="st0" cx="75.9" cy="77.3" rx="28.9" ry="29"/>
	</g>
	<g>
		<ellipse class="st0" cx="200.6" cy="54" rx="28.9" ry="29"/>
	</g>
	<g>
		<ellipse class="st0" cx="424.1" cy="75.4" rx="28.9" ry="29"/>
	</g>
	<g>
		<ellipse class="st0" cx="446.1" cy="201.8" rx="28.9" ry="29"/>
	</g>
	<g>
		<ellipse class="st0" cx="424.1" cy="423.3" rx="28.9" ry="29"/>
	</g>
	<g>
		<ellipse class="st0" cx="299.1" cy="446" rx="28.9" ry="29"/>
	</g>
	<g>
		<ellipse class="st0" cx="76.6" cy="424.5" rx="28.9" ry="29"/>
	</g>
	<g>
		<ellipse class="st0" cx="53.9" cy="299.1" rx="28.9" ry="29"/>
	</g>
	<g>
		<path class="st0" d="M130.4,208.4H75.9c-3.7,0-6.6-3-6.6-6.6V77.3h13.3v117.8h47.8L130.4,208.4L130.4,208.4z"/>
	</g>
	<g>
		<path class="st0" d="M200.8,429.9H76.6v-13.3h117.6v-47.9h13.3v54.6C207.4,427,204.5,429.9,200.8,429.9z"/>
	</g>
	<g>
		<path class="st0" d="M430.8,423h-13.3V305.2h-47.8v-13.3h54.5c3.7,0,6.6,3,6.6,6.6L430.8,423L430.8,423z"/>
	</g>
	<g>
		<path class="st0" d="M306.2,130h-13.3V75.4c0-3.7,3-6.7,6.6-6.7h124.2V82H306.2V130z"/>
	</g>
	<g>
		<rect x="292.5" y="368.7" class="st0" width="13.3" height="77.3"/>
	</g>
	<g>
		<rect x="193.9" y="56.7" class="st0" width="13.3" height="77.3"/>
	</g>
	<g>
		<rect x="60.2" y="292.5" class="st0" width="77.1" height="13.3"/>
	</g>
	<g>
		<rect x="368.1" y="195.1" class="st0" width="77.1" height="13.3"/>
	</g>
	<g>
		<path class="st0" d="M373.5,234.1c0-3.6-2.1-5.7-5.6-6.1c-3.3-0.4-6.6-0.5-9.9-0.8c-5.4-0.4-10.7-0.8-16.1-1.2
			c-2.3-5.2-4.3-10.5-6.9-15.6c-1.8-3.6-1-6,1.8-8.7c4.6-4.4,9-9.1,13.2-14c3.4-3.9,3.3-6.9-0.3-10.6c-7.4-7.6-15-15.2-22.6-22.7
			c-4.8-4.6-7.2-4.7-12.1-0.3c-5,4.4-9.8,9-14.5,13.6c-1.7,1.6-3.3,2.3-5.7,1.2c-4.8-2.1-9.6-4.1-14.5-5.9c-3-1.1-3.7-3.1-3.7-6
			c-0.1-6.4-0.5-12.8-0.9-19.2c-0.4-6.6-1.7-8-8.1-8.1c-10.7-0.1-21.3-0.1-32,0c-6.4,0.1-7.9,1.6-8.2,8.1
			c-0.4,6.6-0.7,13.3-0.9,19.9c-0.1,2.7-1,4.4-3.6,5.3c-4.4,1.6-8.9,3.3-13.1,5.5c-3.4,1.7-5.6,0.8-8.1-1.7
			c-4.5-4.5-9.2-8.9-14-13.1c-4.2-3.7-7.1-3.7-11.1,0.3c-7.6,7.4-15.2,15-22.6,22.6c-4.4,4.4-4.4,7-0.4,11.7
			c4.2,4.8,8.6,9.5,13.2,14c2.3,2.3,3.1,4.4,1.6,7.5c-1.9,4.1-3.6,8.3-5.1,12.5c-1.2,3.4-3.1,4.8-6.8,4.7
			c-6.6-0.1-13.3,0.4-19.9,0.9c-5.5,0.4-7,2-7.1,7.6c-0.2,11.2-0.2,22.3,0,33.5c0.1,4.9,2,6.7,6.9,7.2c2.6,0.3,5.2,0.1,7.8,0.3
			c5.4,0.3,10.8,0.6,16.2,1c2.4,5.1,5,10.1,7.3,15.2c2.4,5.5,1.9,6.4-2.2,10.5c-4.3,4.3-8.5,8.8-12.4,13.5c-4,4.9-3.8,6.4,0.6,10.9
			c7.5,7.6,15.1,15,22.8,22.4c4.5,4.3,7.7,4.2,12.3-0.1c4.7-4.3,9.3-8.8,13.6-13.5c2.2-2.4,4.4-2.5,7-1.3c4.3,1.9,8.5,4,12.8,6
			c2.3,1,3.9,2.3,4,5.2c0.2,4.9,0.7,9.8,1.1,14.7c-0.3,0-0.5,0-0.8,0.1c0.1,0.9,0.2,1.9,0.3,2.8c0.7,8.9,2.5,10.6,11.4,10.6
			c9.7,0,19.4,0.1,29.1,0c6.1-0.1,8-1.9,8.4-8c0.4-6.2,1-12.3,0.8-18.5c-0.1-4.4,1.6-6.5,5.5-7.7c3.8-1.2,7.6-2.5,11.3-4.2
			c5-2.2,5-2.3,8.8,1.7c3.8,3.9,7.6,7.8,11.6,11.5c5.7,5.3,8.2,5.3,13.8-0.1c7-6.7,13.6-13.8,20.6-20.4c5.5-5.2,5.9-8,0.8-13.8
			c-4.1-4.6-8.3-9-12.6-13.4c-2.4-2.3-2.9-4.5-1.4-7.5c1.9-3.8,3.6-7.8,4.8-11.8c1.3-4.1,3.7-5.5,7.9-5.4c6.4,0.1,12.8-0.1,19.2-0.5
			c4.8-0.3,6.8-2.1,6.9-6.4C373.7,257.8,373.6,245.9,373.5,234.1z M250.3,298.5c-26.4,0-47.9-21.5-47.9-48s21.4-48,47.9-48
			s47.9,21.5,47.9,48S276.8,298.5,250.3,298.5z"/>
	</g>
</g>
</svg>
