<svg width="16" height="13" viewBox="0 0 16 13" fill="none" xmlns="http://www.w3.org/2000/svg">
<g clip-path="url(#clip0_199_7718)">
<path d="M3.75391 0.828857H12.2453V12.8289H3.75393L3.75391 0.828857Z" fill="white"/>
<path d="M-0.492188 0.828857H3.75234V12.8289H-0.492188V0.828857ZM12.2438 0.828857H16.4883V12.8289H12.2461L12.2438 0.828857ZM5.02501 6.62731L4.69219 6.73981L6.22734 8.08746C6.34454 8.43198 6.18751 8.53276 6.08671 8.71558L7.75079 8.50463L7.71094 10.1804L8.05781 10.171L7.98046 8.50698L9.64921 8.70621C9.54609 8.48823 9.45469 8.37338 9.54844 8.02651L11.0813 6.74916L10.8141 6.65073C10.5937 6.48198 10.9078 5.83746 10.9547 5.42963C10.9547 5.42963 10.0617 5.73666 10.0031 5.57496L9.77344 5.13668L8.96016 6.03198C8.87109 6.05308 8.83359 6.01791 8.81251 5.94291L9.18751 4.07261L8.59219 4.40776C8.54296 4.43121 8.49374 4.41246 8.46094 4.35386L7.88671 3.20541L7.29609 4.39841C7.25156 4.44058 7.20704 4.44526 7.16954 4.41716L6.60234 4.09841L6.94454 5.95228C6.91641 6.02728 6.85079 6.04603 6.77579 6.00621L5.99531 5.12261C5.89454 5.28668 5.82656 5.55151 5.69064 5.61246C5.55704 5.66871 5.10469 5.49996 4.80234 5.43433C4.90546 5.80698 5.22891 6.42573 5.02501 6.62963V6.62731Z" fill="#D52B1E"/>
</g>
<defs>
<clipPath id="clip0_199_7718">
<rect y="0.828857" width="16" height="12" rx="1" fill="white"/>
</clipPath>
</defs>
</svg>
