<svg width="14" height="14" viewBox="0 0 14 14" fill="none" xmlns="http://www.w3.org/2000/svg">
<path d="M7 10.5C7.19833 10.5 7.3647 10.4328 7.4991 10.2984C7.63303 10.1645 7.7 9.99833 7.7 9.8V7.7H9.8175C10.0158 7.7 10.1792 7.6328 10.3075 7.4984C10.4358 7.36447 10.5 7.19833 10.5 7C10.5 6.80167 10.4328 6.6353 10.2984 6.5009C10.1645 6.36697 9.99833 6.3 9.8 6.3H7.7V4.1825C7.7 3.98417 7.63303 3.82083 7.4991 3.6925C7.3647 3.56417 7.19833 3.5 7 3.5C6.80167 3.5 6.63553 3.56697 6.5016 3.7009C6.3672 3.8353 6.3 4.00167 6.3 4.2V6.3H4.1825C3.98417 6.3 3.82083 6.36697 3.6925 6.5009C3.56417 6.6353 3.5 6.80167 3.5 7C3.5 7.19833 3.56697 7.36447 3.7009 7.4984C3.8353 7.6328 4.00167 7.7 4.2 7.7H6.3V9.8175C6.3 10.0158 6.3672 10.1792 6.5016 10.3075C6.63553 10.4358 6.80167 10.5 7 10.5ZM7 14C6.03167 14 5.12167 13.8161 4.27 13.4484C3.41833 13.0811 2.6775 12.5825 2.0475 11.9525C1.4175 11.3225 0.918867 10.5817 0.5516 9.73C0.183867 8.87833 0 7.96833 0 7C0 6.03167 0.183867 5.12167 0.5516 4.27C0.918867 3.41833 1.4175 2.6775 2.0475 2.0475C2.6775 1.4175 3.41833 0.918633 4.27 0.5509C5.12167 0.183633 6.03167 0 7 0C7.96833 0 8.87833 0.183633 9.73 0.5509C10.5817 0.918633 11.3225 1.4175 11.9525 2.0475C12.5825 2.6775 13.0811 3.41833 13.4484 4.27C13.8161 5.12167 14 6.03167 14 7C14 7.96833 13.8161 8.87833 13.4484 9.73C13.0811 10.5817 12.5825 11.3225 11.9525 11.9525C11.3225 12.5825 10.5817 13.0811 9.73 13.4484C8.87833 13.8161 7.96833 14 7 14ZM7 12.6C8.55167 12.6 9.87303 12.0547 10.9641 10.9641C12.0547 9.87303 12.6 8.55167 12.6 7C12.6 5.44833 12.0547 4.12697 10.9641 3.0359C9.87303 1.9453 8.55167 1.4 7 1.4C5.44833 1.4 4.1272 1.9453 3.0366 3.0359C1.94553 4.12697 1.4 5.44833 1.4 7C1.4 8.55167 1.94553 9.87303 3.0366 10.9641C4.1272 12.0547 5.44833 12.6 7 12.6Z" fill="#666666"/>
</svg>
