<svg width="12" height="12" viewBox="0 0 12 12" fill="none" xmlns="http://www.w3.org/2000/svg">
<g clip-path="url(#clip0_187_6234)">
<path d="M1.79961 12C1.46961 12 1.18701 11.8826 0.951809 11.6478C0.717009 11.4126 0.599609 11.13 0.599609 10.8V2.4C0.599609 2.07 0.717009 1.7876 0.951809 1.5528C1.18701 1.3176 1.46961 1.2 1.79961 1.2H2.39961V0H3.59961V1.2H8.39961V0H9.59961V1.2H10.1996C10.5296 1.2 10.8122 1.3176 11.0474 1.5528C11.2822 1.7876 11.3996 2.07 11.3996 2.4V10.8C11.3996 11.13 11.2822 11.4126 11.0474 11.6478C10.8122 11.8826 10.5296 12 10.1996 12H1.79961ZM1.79961 10.8H10.1996V4.8H1.79961V10.8ZM1.79961 3.6H10.1996V2.4H1.79961V3.6ZM5.99961 7.2C5.82961 7.2 5.68721 7.1424 5.57241 7.0272C5.45721 6.9124 5.39961 6.77 5.39961 6.6C5.39961 6.43 5.45721 6.2874 5.57241 6.1722C5.68721 6.0574 5.82961 6 5.99961 6C6.16961 6 6.31221 6.0574 6.42741 6.1722C6.54221 6.2874 6.59961 6.43 6.59961 6.6C6.59961 6.77 6.54221 6.9124 6.42741 7.0272C6.31221 7.1424 6.16961 7.2 5.99961 7.2ZM3.59961 7.2C3.42961 7.2 3.28701 7.1424 3.17181 7.0272C3.05701 6.9124 2.99961 6.77 2.99961 6.6C2.99961 6.43 3.05701 6.2874 3.17181 6.1722C3.28701 6.0574 3.42961 6 3.59961 6C3.76961 6 3.91221 6.0574 4.02741 6.1722C4.14221 6.2874 4.19961 6.43 4.19961 6.6C4.19961 6.77 4.14221 6.9124 4.02741 7.0272C3.91221 7.1424 3.76961 7.2 3.59961 7.2ZM8.39961 7.2C8.22961 7.2 8.08721 7.1424 7.97241 7.0272C7.85721 6.9124 7.79961 6.77 7.79961 6.6C7.79961 6.43 7.85721 6.2874 7.97241 6.1722C8.08721 6.0574 8.22961 6 8.39961 6C8.56961 6 8.71201 6.0574 8.82681 6.1722C8.94201 6.2874 8.99961 6.43 8.99961 6.6C8.99961 6.77 8.94201 6.9124 8.82681 7.0272C8.71201 7.1424 8.56961 7.2 8.39961 7.2ZM3.59961 9.6C3.42961 9.6 3.28701 9.5424 3.17181 9.4272C3.05701 9.3124 2.99961 9.17 2.99961 9C2.99961 8.83 3.05701 8.6876 3.17181 8.5728C3.28701 8.4576 3.42961 8.4 3.59961 8.4C3.76961 8.4 3.91221 8.4576 4.02741 8.5728C4.14221 8.6876 4.19961 8.83 4.19961 9C4.19961 9.17 4.14221 9.3124 4.02741 9.4272C3.91221 9.5424 3.76961 9.6 3.59961 9.6Z" fill="#666666"/>
</g>
<defs>
<clipPath id="clip0_187_6234">
<rect width="12" height="12" fill="white"/>
</clipPath>
</defs>
</svg>
