<svg width="24" height="24" viewBox="0 0 24 24" fill="none" xmlns="http://www.w3.org/2000/svg">
<path d="M7.3125 19.875C6.79688 19.875 6.35562 19.6916 5.98875 19.3247C5.62125 18.9572 5.4375 18.5156 5.4375 18V5.8125H4.5V3.9375H9.1875V3H14.8125V3.9375H19.5V5.8125H18.5625V18C18.5625 18.5156 18.3791 18.9572 18.0122 19.3247C17.6447 19.6916 17.2031 19.875 16.6875 19.875H7.3125ZM16.6875 5.8125H7.3125V18H16.6875V5.8125ZM9.1875 16.125H11.0625V7.6875H9.1875V16.125ZM12.9375 16.125H14.8125V7.6875H12.9375V16.125ZM7.3125 5.8125V18V5.8125Z" fill="#F44C3D"/>
</svg>
