<svg width="16" height="16" viewBox="0 0 16 16" fill="none" xmlns="http://www.w3.org/2000/svg">
<path d="M5.46699 13.7V12.4333H6.73366V11.1667H2.93366C2.58533 11.1667 2.28724 11.0427 2.03939 10.7949C1.79113 10.5466 1.66699 10.2483 1.66699 9.9V3.56667C1.66699 3.21834 1.79113 2.92004 2.03939 2.67177C2.28724 2.42393 2.58533 2.3 2.93366 2.3H13.067C13.4153 2.3 13.7136 2.42393 13.9619 2.67177C14.2097 2.92004 14.3337 3.21834 14.3337 3.56667V9.9C14.3337 10.2483 14.2097 10.5466 13.9619 10.7949C13.7136 11.0427 13.4153 11.1667 13.067 11.1667H9.26699V12.4333H10.5337V13.7H5.46699ZM2.93366 9.9H13.067V3.56667H2.93366V9.9ZM2.93366 9.9V3.56667V9.9Z" fill="#666666"/>
</svg>
