<svg width="20" height="21" viewBox="0 0 20 21" fill="none" xmlns="http://www.w3.org/2000/svg">
<circle cx="10" cy="10.5" r="8.69951" transform="rotate(99.3716 10 10.5)" fill="#A6E9FF"/>
<path d="M10.2479 1.80407C12.3152 1.863 14.2938 2.65647 15.829 4.04216C17.3642 5.42786 18.3555 7.31514 18.6252 9.36557C18.8949 11.416 18.4253 13.4954 17.3007 15.231C16.176 16.9665 14.4698 18.2447 12.4881 18.8362C10.5064 19.4276 8.37884 19.2938 6.48688 18.4587C4.59493 17.6235 3.06237 16.1417 2.16405 14.2789C1.26574 12.4161 1.06042 10.2942 1.58493 8.2937C2.10943 6.29323 3.32944 4.54504 5.02618 3.36264L10 10.5L10.2479 1.80407Z" fill="#6CC7FF"/>
<path d="M1.67684 13.0304C2.1462 14.5745 3.03583 15.9576 4.24623 17.025C5.45664 18.0925 6.9401 18.8022 8.53076 19.0748C10.1214 19.3474 11.7565 19.1722 13.2533 18.5687C14.7501 17.9652 16.0495 16.9573 17.0062 15.6576C17.963 14.358 18.5393 12.8178 18.6709 11.2093C18.8024 9.60083 18.4839 7.98747 17.751 6.54963C17.0181 5.11179 15.8997 3.90616 14.5209 3.06755C13.142 2.22893 11.5571 1.79039 9.94328 1.80097L10.0003 10.5003L1.67684 13.0304Z" fill="#1EA8FD"/>
</svg>
