<svg width="24" height="24" viewBox="0 0 24 24" fill="none" xmlns="http://www.w3.org/2000/svg">
<path d="M4.7561 21.022C4.27317 21.022 3.85961 20.8499 3.51541 20.5057C3.1718 20.1621 3 19.7488 3 19.2659V6.97317C3 6.49024 3.1718 6.07668 3.51541 5.73249C3.85961 5.38888 4.27317 5.21707 4.7561 5.21707H12.5927L10.8366 6.97317H4.7561V19.2659H17.0488V13.1634L18.8049 11.4073V19.2659C18.8049 19.7488 18.6331 20.1621 18.2895 20.5057C17.9453 20.8499 17.5317 21.022 17.0488 21.022H4.7561ZM14.5683 5.72195L15.8195 6.95122L10.0244 12.7463V13.9976H11.2537L17.0707 8.18049L18.322 9.40976L12 15.7537H8.26829V12.022L14.5683 5.72195ZM18.322 9.40976L14.5683 5.72195L16.7634 3.52683C17.1146 3.17561 17.5355 3 18.026 3C18.516 3 18.9293 3.17561 19.2659 3.52683L20.4951 4.77805C20.8317 5.11463 21 5.52439 21 6.00732C21 6.49024 20.8317 6.9 20.4951 7.23659L18.322 9.40976Z" fill="#666666"/>
</svg>
