<svg width="167" height="56" viewBox="0 0 167 56" fill="none" xmlns="http://www.w3.org/2000/svg">
<rect width="166.883" height="56" rx="12" fill="#004F9D"/>
<path d="M31.8011 20.312C30.9262 20.1346 30.2593 20 29.3415 20C26.7044 20 25.652 21.2543 25.652 23.4876V25.1151H24V27.7522H25.652V35.7797H28.8704V27.7522H31.2199L31.4402 25.1151H28.8704V23.8424C28.8704 23.1266 28.9377 22.6799 29.9656 22.6799C30.3449 22.6799 30.9507 22.7472 31.3973 22.839L31.8011 20.312ZM41.499 35.7797V28.8291C41.499 25.8126 40.673 24.6685 36.8979 24.6685C35.6436 24.6685 34.0099 24.8948 32.982 25.2069L33.4103 27.6237C34.4382 27.4218 35.3989 27.3055 36.3595 27.3055C38.0788 27.3055 38.2807 27.691 38.2807 28.8046V29.6306H35.9312C33.6979 29.6306 32.6945 30.5055 32.6945 32.696C32.6945 34.5499 33.5205 36 35.5335 36C36.2677 36 37.3874 35.7797 38.6356 35.0822L38.862 35.7797H41.499ZM38.2807 33.1182C37.7912 33.3446 37.3201 33.4975 36.647 33.4975C36.0229 33.4975 35.7782 33.2528 35.7782 32.647C35.7782 32.0474 36.0474 31.87 36.7388 31.87H38.2807V33.1182ZM46.7304 29.0493C46.7304 27.9358 47.1954 27.4218 48.4925 27.4218C49.1228 27.4218 50.0589 27.5319 50.7319 27.691L51.1296 25.005C50.0344 24.7602 49.2512 24.6685 48.4925 24.6685C44.9621 24.6685 43.512 25.9901 43.512 29.0983V31.5763C43.512 34.6845 44.9621 36 48.4925 36C49.2512 36 50.0344 35.9143 51.1296 35.6635L50.7319 32.9836C49.9488 33.161 49.3185 33.2528 48.4925 33.2528C47.1954 33.2528 46.7304 32.7388 46.7304 31.6191V29.0493ZM61.6597 31.4662V29.1839C61.6597 26.8161 60.8765 24.6685 57.2543 24.6685C53.6321 24.6685 52.5859 26.6815 52.5859 29.031V31.5763C52.5859 34.2562 53.9258 36 57.4562 36C58.9736 36 60.5644 35.6635 61.5434 35.3086L61.0784 32.8979C60.1178 33.1855 58.7717 33.3629 57.7683 33.3629C56.2937 33.3629 55.8042 33.0264 55.8042 31.7782V31.4662H61.6597ZM58.6187 29.0493H55.8042V28.5843C55.8042 27.8195 56.1591 27.1954 57.2788 27.1954C58.3923 27.1954 58.6187 27.8195 58.6187 28.5843V29.0493ZM73.6581 31.4172V28.6027C73.6581 26.1675 72.722 24.6685 70.3052 24.6685C69.1243 24.6685 68.0964 24.9377 67.2214 25.2742V20L64.0031 20.4467V35.6451C65.5021 35.8899 67.2642 36 68.4268 36C72.9239 36 73.6581 34.0115 73.6581 31.4172ZM67.2214 28.0704C67.8271 27.7522 68.5858 27.4646 69.2772 27.4646C70.1277 27.4646 70.4398 27.9113 70.4398 28.6272V31.4417C70.4398 32.4696 70.1522 33.2099 68.543 33.2099C68.0964 33.2099 67.6925 33.2099 67.2214 33.161V28.0704ZM80.3641 36C84.231 36 85.2772 33.834 85.2772 31.6008V29.0738C85.2772 26.8405 84.231 24.6685 80.3641 24.6685C76.4971 24.6685 75.4447 26.8405 75.4447 29.0738V31.6008C75.4447 33.834 76.4971 36 80.3641 36ZM80.3641 33.2956C79.2015 33.2956 78.6631 32.7143 78.6631 31.6864V28.982C78.6631 27.9541 79.2015 27.3728 80.3641 27.3728C81.5266 27.3728 82.0589 27.9541 82.0589 28.982V31.6864C82.0589 32.7143 81.5266 33.2956 80.3641 33.2956ZM91.9832 36C95.8501 36 96.9025 33.834 96.9025 31.6008V29.0738C96.9025 26.8405 95.8501 24.6685 91.9832 24.6685C88.1162 24.6685 87.07 26.8405 87.07 29.0738V31.6008C87.07 33.834 88.1162 36 91.9832 36ZM91.9832 33.2956C90.8206 33.2956 90.2883 32.7143 90.2883 31.6864V28.982C90.2883 27.9541 90.8206 27.3728 91.9832 27.3728C93.1457 27.3728 93.6841 27.9541 93.6841 28.982V31.6864C93.6841 32.7143 93.1457 33.2956 91.9832 33.2956ZM102.464 35.7797V20L99.2459 20.4467V35.7797H102.464ZM102.893 30.3036L105.793 35.7797H109.237L106.246 30.3036L109.103 24.8948H105.664L102.893 30.3036Z" fill="white"/>
<path d="M123.212 35.7978H124.374L119.712 22.4043H117.962L113.294 35.7978H114.462L115.71 32.2796H121.945L123.212 35.7978ZM118.825 23.0896L121.584 31.2517H116.071L118.825 23.0896ZM126.43 33.2831C126.43 35.0574 127.293 35.9997 129.202 35.9997C130.291 35.9997 131.515 35.6203 132.506 34.8739L132.561 35.7978H133.632V21.8414L132.463 22.0005V26.1244C131.337 25.9041 130.474 25.8062 129.447 25.8062C127.232 25.8062 126.43 27.0299 126.43 28.8226V33.2831ZM132.463 33.7052C131.539 34.4517 130.493 34.9534 129.287 34.9534C127.96 34.9534 127.593 34.415 127.593 33.2831V28.8226C127.593 27.4949 128.119 26.8525 129.404 26.8525C130.352 26.8525 131.398 26.9687 132.463 27.189V33.7052ZM142.883 33.3259C142.883 31.4964 142.724 31.0314 139.842 30.3095C138.037 29.8444 137.951 29.7037 137.951 28.3576C137.951 27.293 138.196 26.8525 139.903 26.8525C140.711 26.8525 141.855 26.9687 142.638 27.1339L142.76 26.1427C141.996 25.9225 140.888 25.8062 139.983 25.8062C137.572 25.8062 136.789 26.6873 136.789 28.3148C136.789 30.1075 136.991 30.7133 139.444 31.2945C141.677 31.8146 141.714 31.9615 141.714 33.3687C141.714 34.6108 141.353 34.9534 139.542 34.9534C138.82 34.9534 137.792 34.8127 136.948 34.5557L136.746 35.498C137.474 35.7978 138.637 35.9997 139.622 35.9997C142.24 35.9997 142.883 35.0942 142.883 33.3259Z" fill="#F2F2F2"/>
</svg>
