<svg width="328" height="285" viewBox="0 0 328 285" fill="none" xmlns="http://www.w3.org/2000/svg">
<g opacity="0.5" filter="url(#filter0_f_187_5888)">
<rect x="4" y="216" width="320" height="1" fill="#E0E0E0"/>
<path d="M89.932 276H91.542V265.794H88.63V267.25H89.932V276ZM92.9645 277.946H94.0005L95.6945 274.082H93.9585L92.9645 277.946ZM97.9711 276H99.5811V265.794H96.6691V267.25H97.9711V276ZM101.746 268.314H103.3C103.398 267.6 103.916 266.928 105.036 266.928C106.128 266.928 106.702 267.516 106.702 268.398C106.702 269.49 105.82 269.91 104.378 269.924H104V271.24H104.364C106.03 271.24 106.898 271.702 106.898 273.046C106.898 273.998 106.31 274.726 105.12 274.726C103.916 274.726 103.216 273.998 103.146 273.046H101.606C101.704 275.048 103.202 276.056 105.134 276.056C107.262 276.056 108.41 274.824 108.41 273.2C108.41 271.786 107.724 270.904 106.66 270.582V270.526C107.458 270.26 108.228 269.434 108.228 268.216C108.228 266.732 107.122 265.556 105.092 265.556C103.23 265.556 101.858 266.55 101.746 268.314ZM110.506 265.766V271.66H112.018C112.284 270.904 112.914 270.386 113.852 270.386C115.182 270.386 115.84 271.142 115.84 272.472C115.84 273.732 115.224 274.67 113.852 274.67C112.774 274.67 112.046 274.11 111.836 273.242H110.282C110.52 274.838 111.738 276 113.838 276C116.204 276 117.366 274.46 117.366 272.43C117.366 270.89 116.596 269.028 114.09 269.028C113.18 269.028 112.354 269.448 111.976 269.952V267.166H116.666V265.766H110.506Z" fill="#222B45"/>
<rect x="68" y="239" width="8" height="8" rx="4" fill="#0095FF"/>
<path d="M89.36 249L86 238.504H87.424L89.104 244.168C89.296 244.787 89.4613 245.368 89.6 245.912C89.7493 246.445 89.9253 247.021 90.128 247.64H90.192C90.384 247.021 90.5547 246.445 90.704 245.912C90.8533 245.368 91.0187 244.787 91.2 244.168L92.88 238.504H94.24L90.912 249H89.36ZM98.336 249.192C97.7067 249.192 97.1147 249.032 96.56 248.712C96.016 248.392 95.5733 247.928 95.232 247.32C94.9013 246.712 94.736 245.981 94.736 245.128C94.736 244.253 94.9013 243.512 95.232 242.904C95.5733 242.296 96.016 241.832 96.56 241.512C97.1147 241.192 97.7067 241.032 98.336 241.032C98.976 241.032 99.568 241.192 100.112 241.512C100.656 241.832 101.093 242.296 101.424 242.904C101.765 243.512 101.936 244.253 101.936 245.128C101.936 245.981 101.765 246.712 101.424 247.32C101.093 247.928 100.656 248.392 100.112 248.712C99.568 249.032 98.976 249.192 98.336 249.192ZM98.336 248.104C99.008 248.104 99.5467 247.832 99.952 247.288C100.368 246.733 100.576 246.013 100.576 245.128C100.576 244.232 100.368 243.507 99.952 242.952C99.5467 242.397 99.008 242.12 98.336 242.12C97.6747 242.12 97.136 242.397 96.72 242.952C96.304 243.507 96.096 244.232 96.096 245.128C96.096 246.013 96.304 246.733 96.72 247.288C97.136 247.832 97.6747 248.104 98.336 248.104ZM105.376 249.192C104.885 249.192 104.528 249.043 104.304 248.744C104.091 248.435 103.984 247.997 103.984 247.432V237.608H105.296V247.528C105.296 247.731 105.333 247.88 105.408 247.976C105.483 248.061 105.568 248.104 105.664 248.104C105.707 248.104 105.744 248.104 105.776 248.104C105.819 248.093 105.877 248.083 105.952 248.072L106.128 249.064C106.043 249.107 105.941 249.139 105.824 249.16C105.707 249.181 105.557 249.192 105.376 249.192ZM110.334 249.192C109.513 249.192 108.91 248.936 108.526 248.424C108.142 247.901 107.95 247.144 107.95 246.152V241.224H109.278V245.976C109.278 246.701 109.39 247.229 109.614 247.56C109.849 247.891 110.222 248.056 110.734 248.056C111.139 248.056 111.497 247.955 111.806 247.752C112.126 247.539 112.467 247.203 112.83 246.744V241.224H114.142V249H113.054L112.942 247.784H112.894C112.531 248.211 112.147 248.552 111.742 248.808C111.337 249.064 110.867 249.192 110.334 249.192ZM116.765 249V241.224H117.853L117.965 242.344H118.013C118.354 241.971 118.728 241.661 119.133 241.416C119.538 241.16 119.97 241.032 120.429 241.032C121.026 241.032 121.49 241.165 121.821 241.432C122.162 241.688 122.413 242.051 122.573 242.52C122.978 242.083 123.389 241.725 123.805 241.448C124.221 241.171 124.664 241.032 125.133 241.032C125.933 241.032 126.525 241.293 126.909 241.816C127.304 242.328 127.501 243.08 127.501 244.072V249H126.189V244.248C126.189 243.523 126.072 242.995 125.837 242.664C125.602 242.333 125.24 242.168 124.749 242.168C124.173 242.168 123.522 242.568 122.797 243.368V249H121.485V244.248C121.485 243.523 121.368 242.995 121.133 242.664C120.898 242.333 120.53 242.168 120.029 242.168C119.453 242.168 118.802 242.568 118.077 243.368V249H116.765ZM133.183 249.192C132.489 249.192 131.86 249.032 131.295 248.712C130.729 248.381 130.281 247.912 129.951 247.304C129.62 246.696 129.455 245.971 129.455 245.128C129.455 244.275 129.62 243.544 129.951 242.936C130.292 242.328 130.729 241.859 131.263 241.528C131.796 241.197 132.356 241.032 132.943 241.032C133.935 241.032 134.697 241.363 135.231 242.024C135.775 242.685 136.047 243.571 136.047 244.68C136.047 244.819 136.041 244.957 136.031 245.096C136.031 245.224 136.02 245.336 135.999 245.432H130.751C130.804 246.253 131.06 246.909 131.519 247.4C131.988 247.891 132.596 248.136 133.343 248.136C133.716 248.136 134.057 248.083 134.367 247.976C134.687 247.859 134.991 247.709 135.279 247.528L135.743 248.392C135.412 248.605 135.033 248.792 134.607 248.952C134.191 249.112 133.716 249.192 133.183 249.192ZM130.735 244.488H134.895C134.895 243.699 134.724 243.101 134.383 242.696C134.052 242.28 133.583 242.072 132.975 242.072C132.431 242.072 131.94 242.285 131.503 242.712C131.076 243.128 130.82 243.72 130.735 244.488Z" fill="#828282"/>
<rect x="165" y="236" width="1" height="42" fill="#E0E0E0"/>
<path d="M221.798 268.16C221.63 266.802 220.636 265.542 218.648 265.542C216.1 265.542 215.036 267.474 215.036 270.666C215.036 273.914 215.806 276 218.774 276C220.958 276 222.12 274.53 222.12 272.598C222.12 270.47 220.818 269.238 218.984 269.238C217.92 269.238 216.912 269.686 216.408 270.526C216.45 267.852 217.192 266.872 218.634 266.872C219.642 266.872 220.132 267.334 220.328 268.16H221.798ZM218.634 270.582C219.978 270.582 220.594 271.45 220.594 272.668C220.594 273.872 219.866 274.67 218.69 274.67C217.332 274.67 216.59 273.83 216.59 272.57C216.59 271.212 217.584 270.582 218.634 270.582ZM223.794 268.314H225.348C225.446 267.6 225.964 266.928 227.084 266.928C228.176 266.928 228.75 267.516 228.75 268.398C228.75 269.49 227.868 269.91 226.426 269.924H226.048V271.24H226.412C228.078 271.24 228.946 271.702 228.946 273.046C228.946 273.998 228.358 274.726 227.168 274.726C225.964 274.726 225.264 273.998 225.194 273.046H223.654C223.752 275.048 225.25 276.056 227.182 276.056C229.31 276.056 230.458 274.824 230.458 273.2C230.458 271.786 229.772 270.904 228.708 270.582V270.526C229.506 270.26 230.276 269.434 230.276 268.216C230.276 266.732 229.17 265.556 227.14 265.556C225.278 265.556 223.906 266.55 223.794 268.314ZM232.555 265.766V271.66H234.067C234.333 270.904 234.963 270.386 235.901 270.386C237.231 270.386 237.889 271.142 237.889 272.472C237.889 273.732 237.273 274.67 235.901 274.67C234.823 274.67 234.095 274.11 233.885 273.242H232.331C232.569 274.838 233.787 276 235.887 276C238.253 276 239.415 274.46 239.415 272.43C239.415 270.89 238.645 269.028 236.139 269.028C235.229 269.028 234.403 269.448 234.025 269.952V267.166H238.715V265.766H232.555Z" fill="#222B45"/>
<rect x="194" y="239" width="8" height="8" rx="4" fill="#00E096"/>
<path d="M216.352 249.192C215.616 249.192 214.933 249.053 214.304 248.776C213.675 248.488 213.131 248.109 212.672 247.64L213.472 246.712C213.845 247.107 214.283 247.427 214.784 247.672C215.296 247.907 215.824 248.024 216.368 248.024C217.061 248.024 217.6 247.869 217.984 247.56C218.368 247.24 218.56 246.824 218.56 246.312C218.56 245.949 218.48 245.661 218.32 245.448C218.171 245.235 217.963 245.053 217.696 244.904C217.44 244.755 217.147 244.605 216.816 244.456L215.312 243.8C214.981 243.661 214.651 243.48 214.32 243.256C214 243.032 213.728 242.744 213.504 242.392C213.291 242.04 213.184 241.608 213.184 241.096C213.184 240.563 213.323 240.088 213.6 239.672C213.888 239.245 214.283 238.915 214.784 238.68C215.285 238.435 215.851 238.312 216.48 238.312C217.109 238.312 217.691 238.435 218.224 238.68C218.757 238.915 219.211 239.224 219.584 239.608L218.864 240.472C218.544 240.163 218.187 239.923 217.792 239.752C217.408 239.571 216.971 239.48 216.48 239.48C215.893 239.48 215.419 239.619 215.056 239.896C214.704 240.173 214.528 240.547 214.528 241.016C214.528 241.347 214.613 241.624 214.784 241.848C214.965 242.061 215.189 242.237 215.456 242.376C215.723 242.515 215.995 242.643 216.272 242.76L217.76 243.4C218.165 243.571 218.528 243.779 218.848 244.024C219.179 244.259 219.44 244.552 219.632 244.904C219.824 245.245 219.92 245.677 219.92 246.2C219.92 246.755 219.776 247.261 219.488 247.72C219.2 248.168 218.789 248.525 218.256 248.792C217.723 249.059 217.088 249.192 216.352 249.192ZM225.011 249.192C224.318 249.192 223.688 249.032 223.123 248.712C222.558 248.381 222.11 247.912 221.779 247.304C221.448 246.696 221.283 245.971 221.283 245.128C221.283 244.275 221.448 243.544 221.779 242.936C222.12 242.328 222.558 241.859 223.091 241.528C223.624 241.197 224.184 241.032 224.771 241.032C225.763 241.032 226.526 241.363 227.059 242.024C227.603 242.685 227.875 243.571 227.875 244.68C227.875 244.819 227.87 244.957 227.859 245.096C227.859 245.224 227.848 245.336 227.827 245.432H222.579C222.632 246.253 222.888 246.909 223.347 247.4C223.816 247.891 224.424 248.136 225.171 248.136C225.544 248.136 225.886 248.083 226.195 247.976C226.515 247.859 226.819 247.709 227.107 247.528L227.571 248.392C227.24 248.605 226.862 248.792 226.435 248.952C226.019 249.112 225.544 249.192 225.011 249.192ZM222.563 244.488H226.723C226.723 243.699 226.552 243.101 226.211 242.696C225.88 242.28 225.411 242.072 224.803 242.072C224.259 242.072 223.768 242.285 223.331 242.712C222.904 243.128 222.648 243.72 222.563 244.488ZM229.796 249V241.224H230.884L230.996 242.632H231.044C231.311 242.141 231.636 241.752 232.02 241.464C232.404 241.176 232.815 241.032 233.252 241.032C233.562 241.032 233.839 241.085 234.084 241.192L233.828 242.344C233.7 242.301 233.583 242.269 233.476 242.248C233.37 242.227 233.236 242.216 233.076 242.216C232.746 242.216 232.399 242.349 232.036 242.616C231.684 242.883 231.375 243.347 231.108 244.008V249H229.796ZM237.43 249L234.63 241.224H235.99L237.462 245.64C237.579 246.024 237.696 246.408 237.814 246.792C237.942 247.176 238.064 247.555 238.182 247.928H238.246C238.363 247.555 238.48 247.176 238.598 246.792C238.726 246.408 238.843 246.024 238.95 245.64L240.422 241.224H241.718L238.966 249H237.43ZM243.218 249V241.224H244.53V249H243.218ZM243.89 239.624C243.634 239.624 243.421 239.549 243.25 239.4C243.09 239.24 243.01 239.027 243.01 238.76C243.01 238.504 243.09 238.296 243.25 238.136C243.421 237.976 243.634 237.896 243.89 237.896C244.146 237.896 244.354 237.976 244.514 238.136C244.685 238.296 244.77 238.504 244.77 238.76C244.77 239.027 244.685 239.24 244.514 239.4C244.354 239.549 244.146 239.624 243.89 239.624ZM250.228 249.192C249.545 249.192 248.926 249.032 248.372 248.712C247.817 248.392 247.38 247.928 247.06 247.32C246.74 246.712 246.58 245.981 246.58 245.128C246.58 244.253 246.75 243.512 247.092 242.904C247.444 242.296 247.902 241.832 248.468 241.512C249.044 241.192 249.662 241.032 250.324 241.032C250.836 241.032 251.273 241.123 251.636 241.304C252.009 241.485 252.329 241.699 252.596 241.944L251.924 242.808C251.7 242.605 251.46 242.44 251.204 242.312C250.958 242.184 250.681 242.12 250.372 242.12C249.902 242.12 249.481 242.248 249.108 242.504C248.745 242.749 248.457 243.101 248.244 243.56C248.041 244.008 247.94 244.531 247.94 245.128C247.94 246.013 248.158 246.733 248.596 247.288C249.044 247.832 249.625 248.104 250.34 248.104C250.702 248.104 251.038 248.029 251.348 247.88C251.657 247.72 251.929 247.533 252.164 247.32L252.74 248.2C252.388 248.509 251.998 248.755 251.572 248.936C251.145 249.107 250.697 249.192 250.228 249.192ZM257.261 249.192C256.568 249.192 255.938 249.032 255.373 248.712C254.808 248.381 254.36 247.912 254.029 247.304C253.698 246.696 253.533 245.971 253.533 245.128C253.533 244.275 253.698 243.544 254.029 242.936C254.37 242.328 254.808 241.859 255.341 241.528C255.874 241.197 256.434 241.032 257.021 241.032C258.013 241.032 258.776 241.363 259.309 242.024C259.853 242.685 260.125 243.571 260.125 244.68C260.125 244.819 260.12 244.957 260.109 245.096C260.109 245.224 260.098 245.336 260.077 245.432H254.829C254.882 246.253 255.138 246.909 255.597 247.4C256.066 247.891 256.674 248.136 257.421 248.136C257.794 248.136 258.136 248.083 258.445 247.976C258.765 247.859 259.069 247.709 259.357 247.528L259.821 248.392C259.49 248.605 259.112 248.792 258.685 248.952C258.269 249.112 257.794 249.192 257.261 249.192ZM254.813 244.488H258.973C258.973 243.699 258.802 243.101 258.461 242.696C258.13 242.28 257.661 242.072 257.053 242.072C256.509 242.072 256.018 242.285 255.581 242.712C255.154 243.128 254.898 243.72 254.813 244.488ZM264.078 249.192C263.524 249.192 262.996 249.091 262.494 248.888C261.993 248.675 261.556 248.419 261.182 248.12L261.838 247.24C262.18 247.507 262.532 247.731 262.894 247.912C263.257 248.083 263.668 248.168 264.126 248.168C264.638 248.168 265.022 248.051 265.278 247.816C265.534 247.571 265.662 247.283 265.662 246.952C265.662 246.685 265.572 246.461 265.39 246.28C265.22 246.099 264.996 245.949 264.718 245.832C264.452 245.704 264.174 245.587 263.886 245.48C263.524 245.341 263.166 245.187 262.814 245.016C262.462 244.835 262.174 244.605 261.95 244.328C261.726 244.04 261.614 243.677 261.614 243.24C261.614 242.611 261.849 242.088 262.318 241.672C262.798 241.245 263.46 241.032 264.302 241.032C264.782 241.032 265.23 241.117 265.646 241.288C266.062 241.459 266.42 241.667 266.718 241.912L266.078 242.744C265.812 242.541 265.534 242.376 265.246 242.248C264.958 242.12 264.644 242.056 264.302 242.056C263.812 242.056 263.449 242.168 263.214 242.392C262.99 242.616 262.878 242.877 262.878 243.176C262.878 243.421 262.958 243.624 263.118 243.784C263.278 243.933 263.486 244.067 263.742 244.184C263.998 244.291 264.27 244.403 264.558 244.52C264.932 244.659 265.3 244.819 265.662 245C266.025 245.171 266.324 245.405 266.558 245.704C266.804 245.992 266.926 246.381 266.926 246.872C266.926 247.288 266.814 247.672 266.59 248.024C266.377 248.376 266.057 248.659 265.63 248.872C265.214 249.085 264.697 249.192 264.078 249.192Z" fill="#828282"/>
<rect x="15" y="33" width="12" height="138.857" rx="2" fill="#0095FF"/>
<rect x="15" y="93" width="12" height="78.8571" rx="2" fill="#00E096"/>
<rect x="109" y="33" width="12" height="138.857" rx="2" fill="#0095FF"/>
<rect x="109" y="135.857" width="12" height="36" rx="2" fill="#00E096"/>
<rect x="203" y="76" width="12" height="96" rx="2" fill="#0095FF"/>
<rect x="203" y="136" width="12" height="36" rx="2" fill="#00E096"/>
<rect x="250" y="67" width="12" height="104.571" rx="2" fill="#0095FF"/>
<rect x="250" y="109.857" width="12" height="61.7143" rx="2" fill="#00E096"/>
<rect x="297" y="67" width="12" height="104.571" rx="2" fill="#0095FF"/>
<rect x="297" y="109.857" width="12" height="61.7143" rx="2" fill="#00E096"/>
<rect x="156" y="47" width="12" height="125.143" rx="2" fill="#0095FF"/>
<rect x="156" y="131" width="12" height="41.1429" rx="2" fill="#00E096"/>
<rect x="62" y="4" width="12" height="168" rx="2" fill="#0095FF"/>
<rect x="62" y="82.8572" width="12" height="89.1429" rx="2" fill="#00E096"/>
<path d="M5.948 197V196.184H7.7V190.544H6.308V189.908C6.66 189.844 6.964 189.768 7.22 189.68C7.484 189.584 7.72 189.472 7.928 189.344H8.684V196.184H10.268V197H5.948ZM11.4448 197V196.412C12.2128 195.644 12.8648 194.972 13.4008 194.396C13.9368 193.812 14.3448 193.288 14.6248 192.824C14.9048 192.352 15.0448 191.912 15.0448 191.504C15.0448 191.064 14.9248 190.704 14.6848 190.424C14.4448 190.144 14.0808 190.004 13.5928 190.004C13.2728 190.004 12.9768 190.096 12.7048 190.28C12.4328 190.456 12.1848 190.672 11.9608 190.928L11.3968 190.364C11.7168 190.012 12.0568 189.732 12.4168 189.524C12.7848 189.308 13.2168 189.2 13.7128 189.2C14.4248 189.2 14.9848 189.408 15.3928 189.824C15.8008 190.232 16.0048 190.776 16.0048 191.456C16.0048 191.936 15.8688 192.424 15.5968 192.92C15.3328 193.408 14.9648 193.924 14.4928 194.468C14.0288 195.004 13.4928 195.588 12.8848 196.22C13.0928 196.204 13.3088 196.188 13.5328 196.172C13.7568 196.156 13.9688 196.148 14.1688 196.148H16.3888V197H11.4448ZM17.0497 198.92L20.2537 188.48H20.9737L17.7697 198.92H17.0497ZM21.605 197V196.412C22.373 195.644 23.025 194.972 23.561 194.396C24.097 193.812 24.505 193.288 24.785 192.824C25.065 192.352 25.205 191.912 25.205 191.504C25.205 191.064 25.085 190.704 24.845 190.424C24.605 190.144 24.241 190.004 23.753 190.004C23.433 190.004 23.137 190.096 22.865 190.28C22.593 190.456 22.345 190.672 22.121 190.928L21.557 190.364C21.877 190.012 22.217 189.732 22.577 189.524C22.945 189.308 23.377 189.2 23.873 189.2C24.585 189.2 25.145 189.408 25.553 189.824C25.961 190.232 26.165 190.776 26.165 191.456C26.165 191.936 26.029 192.424 25.757 192.92C25.493 193.408 25.125 193.924 24.653 194.468C24.189 195.004 23.653 195.588 23.045 196.22C23.253 196.204 23.469 196.188 23.693 196.172C23.917 196.156 24.129 196.148 24.329 196.148H26.549V197H21.605ZM28.0378 197V196.184H29.7898V190.544H28.3978V189.908C28.7498 189.844 29.0538 189.768 29.3098 189.68C29.5738 189.584 29.8098 189.472 30.0178 189.344H30.7738V196.184H32.3578V197H28.0378Z" fill="#666666"/>
<path d="M52.948 197V196.184H54.7V190.544H53.308V189.908C53.66 189.844 53.964 189.768 54.22 189.68C54.484 189.584 54.72 189.472 54.928 189.344H55.684V196.184H57.268V197H52.948ZM58.4448 197V196.412C59.2128 195.644 59.8648 194.972 60.4008 194.396C60.9368 193.812 61.3448 193.288 61.6248 192.824C61.9048 192.352 62.0448 191.912 62.0448 191.504C62.0448 191.064 61.9248 190.704 61.6848 190.424C61.4448 190.144 61.0808 190.004 60.5928 190.004C60.2728 190.004 59.9768 190.096 59.7048 190.28C59.4328 190.456 59.1848 190.672 58.9608 190.928L58.3968 190.364C58.7168 190.012 59.0568 189.732 59.4168 189.524C59.7848 189.308 60.2168 189.2 60.7128 189.2C61.4248 189.2 61.9848 189.408 62.3928 189.824C62.8008 190.232 63.0048 190.776 63.0048 191.456C63.0048 191.936 62.8688 192.424 62.5968 192.92C62.3328 193.408 61.9648 193.924 61.4928 194.468C61.0288 195.004 60.4928 195.588 59.8848 196.22C60.0928 196.204 60.3088 196.188 60.5328 196.172C60.7568 196.156 60.9688 196.148 61.1688 196.148H63.3888V197H58.4448ZM64.0497 198.92L67.2537 188.48H67.9737L64.7697 198.92H64.0497ZM68.605 197V196.412C69.373 195.644 70.025 194.972 70.561 194.396C71.097 193.812 71.505 193.288 71.785 192.824C72.065 192.352 72.205 191.912 72.205 191.504C72.205 191.064 72.085 190.704 71.845 190.424C71.605 190.144 71.241 190.004 70.753 190.004C70.433 190.004 70.137 190.096 69.865 190.28C69.593 190.456 69.345 190.672 69.121 190.928L68.557 190.364C68.877 190.012 69.217 189.732 69.577 189.524C69.945 189.308 70.377 189.2 70.873 189.2C71.585 189.2 72.145 189.408 72.553 189.824C72.961 190.232 73.165 190.776 73.165 191.456C73.165 191.936 73.029 192.424 72.757 192.92C72.493 193.408 72.125 193.924 71.653 194.468C71.189 195.004 70.653 195.588 70.045 196.22C70.253 196.204 70.469 196.188 70.693 196.172C70.917 196.156 71.129 196.148 71.329 196.148H73.549V197H68.605ZM74.5698 197V196.412C75.3378 195.644 75.9898 194.972 76.5258 194.396C77.0618 193.812 77.4698 193.288 77.7498 192.824C78.0298 192.352 78.1698 191.912 78.1698 191.504C78.1698 191.064 78.0498 190.704 77.8098 190.424C77.5698 190.144 77.2058 190.004 76.7178 190.004C76.3978 190.004 76.1018 190.096 75.8298 190.28C75.5578 190.456 75.3098 190.672 75.0858 190.928L74.5218 190.364C74.8418 190.012 75.1818 189.732 75.5418 189.524C75.9098 189.308 76.3418 189.2 76.8378 189.2C77.5498 189.2 78.1098 189.408 78.5178 189.824C78.9258 190.232 79.1298 190.776 79.1298 191.456C79.1298 191.936 78.9938 192.424 78.7218 192.92C78.4578 193.408 78.0898 193.924 77.6178 194.468C77.1538 195.004 76.6178 195.588 76.0098 196.22C76.2178 196.204 76.4338 196.188 76.6578 196.172C76.8818 196.156 77.0938 196.148 77.2938 196.148H79.5138V197H74.5698Z" fill="#666666"/>
<path d="M99.948 197V196.184H101.7V190.544H100.308V189.908C100.66 189.844 100.964 189.768 101.22 189.68C101.484 189.584 101.72 189.472 101.928 189.344H102.684V196.184H104.268V197H99.948ZM105.445 197V196.412C106.213 195.644 106.865 194.972 107.401 194.396C107.937 193.812 108.345 193.288 108.625 192.824C108.905 192.352 109.045 191.912 109.045 191.504C109.045 191.064 108.925 190.704 108.685 190.424C108.445 190.144 108.081 190.004 107.593 190.004C107.273 190.004 106.977 190.096 106.705 190.28C106.433 190.456 106.185 190.672 105.961 190.928L105.397 190.364C105.717 190.012 106.057 189.732 106.417 189.524C106.785 189.308 107.217 189.2 107.713 189.2C108.425 189.2 108.985 189.408 109.393 189.824C109.801 190.232 110.005 190.776 110.005 191.456C110.005 191.936 109.869 192.424 109.597 192.92C109.333 193.408 108.965 193.924 108.493 194.468C108.029 195.004 107.493 195.588 106.885 196.22C107.093 196.204 107.309 196.188 107.533 196.172C107.757 196.156 107.969 196.148 108.169 196.148H110.389V197H105.445ZM111.05 198.92L114.254 188.48H114.974L111.77 198.92H111.05ZM115.605 197V196.412C116.373 195.644 117.025 194.972 117.561 194.396C118.097 193.812 118.505 193.288 118.785 192.824C119.065 192.352 119.205 191.912 119.205 191.504C119.205 191.064 119.085 190.704 118.845 190.424C118.605 190.144 118.241 190.004 117.753 190.004C117.433 190.004 117.137 190.096 116.865 190.28C116.593 190.456 116.345 190.672 116.121 190.928L115.557 190.364C115.877 190.012 116.217 189.732 116.577 189.524C116.945 189.308 117.377 189.2 117.873 189.2C118.585 189.2 119.145 189.408 119.553 189.824C119.961 190.232 120.165 190.776 120.165 191.456C120.165 191.936 120.029 192.424 119.757 192.92C119.493 193.408 119.125 193.924 118.653 194.468C118.189 195.004 117.653 195.588 117.045 196.22C117.253 196.204 117.469 196.188 117.693 196.172C117.917 196.156 118.129 196.148 118.329 196.148H120.549V197H115.605ZM123.922 197.144C123.314 197.144 122.806 197.036 122.398 196.82C121.99 196.596 121.658 196.344 121.402 196.064L121.906 195.416C122.138 195.656 122.41 195.868 122.722 196.052C123.034 196.236 123.414 196.328 123.862 196.328C124.326 196.328 124.706 196.2 125.002 195.944C125.298 195.688 125.446 195.348 125.446 194.924C125.446 194.62 125.366 194.356 125.206 194.132C125.054 193.9 124.798 193.72 124.438 193.592C124.086 193.464 123.606 193.4 122.998 193.4V192.644C123.542 192.644 123.97 192.58 124.282 192.452C124.602 192.324 124.83 192.152 124.966 191.936C125.102 191.72 125.17 191.48 125.17 191.216C125.17 190.84 125.05 190.544 124.81 190.328C124.578 190.112 124.258 190.004 123.85 190.004C123.53 190.004 123.234 190.076 122.962 190.22C122.698 190.364 122.45 190.552 122.218 190.784L121.69 190.16C121.986 189.88 122.314 189.652 122.674 189.476C123.034 189.292 123.438 189.2 123.886 189.2C124.55 189.2 125.098 189.372 125.53 189.716C125.962 190.052 126.178 190.528 126.178 191.144C126.178 191.608 126.05 191.988 125.794 192.284C125.538 192.58 125.202 192.808 124.786 192.968V193.016C125.25 193.12 125.642 193.34 125.962 193.676C126.282 194.004 126.442 194.432 126.442 194.96C126.442 195.408 126.33 195.796 126.106 196.124C125.882 196.452 125.578 196.704 125.194 196.88C124.818 197.056 124.394 197.144 123.922 197.144Z" fill="#666666"/>
<path d="M146.948 197V196.184H148.7V190.544H147.308V189.908C147.66 189.844 147.964 189.768 148.22 189.68C148.484 189.584 148.72 189.472 148.928 189.344H149.684V196.184H151.268V197H146.948ZM152.445 197V196.412C153.213 195.644 153.865 194.972 154.401 194.396C154.937 193.812 155.345 193.288 155.625 192.824C155.905 192.352 156.045 191.912 156.045 191.504C156.045 191.064 155.925 190.704 155.685 190.424C155.445 190.144 155.081 190.004 154.593 190.004C154.273 190.004 153.977 190.096 153.705 190.28C153.433 190.456 153.185 190.672 152.961 190.928L152.397 190.364C152.717 190.012 153.057 189.732 153.417 189.524C153.785 189.308 154.217 189.2 154.713 189.2C155.425 189.2 155.985 189.408 156.393 189.824C156.801 190.232 157.005 190.776 157.005 191.456C157.005 191.936 156.869 192.424 156.597 192.92C156.333 193.408 155.965 193.924 155.493 194.468C155.029 195.004 154.493 195.588 153.885 196.22C154.093 196.204 154.309 196.188 154.533 196.172C154.757 196.156 154.969 196.148 155.169 196.148H157.389V197H152.445ZM158.05 198.92L161.254 188.48H161.974L158.77 198.92H158.05ZM162.605 197V196.412C163.373 195.644 164.025 194.972 164.561 194.396C165.097 193.812 165.505 193.288 165.785 192.824C166.065 192.352 166.205 191.912 166.205 191.504C166.205 191.064 166.085 190.704 165.845 190.424C165.605 190.144 165.241 190.004 164.753 190.004C164.433 190.004 164.137 190.096 163.865 190.28C163.593 190.456 163.345 190.672 163.121 190.928L162.557 190.364C162.877 190.012 163.217 189.732 163.577 189.524C163.945 189.308 164.377 189.2 164.873 189.2C165.585 189.2 166.145 189.408 166.553 189.824C166.961 190.232 167.165 190.776 167.165 191.456C167.165 191.936 167.029 192.424 166.757 192.92C166.493 193.408 166.125 193.924 165.653 194.468C165.189 195.004 164.653 195.588 164.045 196.22C164.253 196.204 164.469 196.188 164.693 196.172C164.917 196.156 165.129 196.148 165.329 196.148H167.549V197H162.605ZM169.338 194.096H171.738V191.876C171.738 191.668 171.746 191.42 171.762 191.132C171.778 190.844 171.79 190.6 171.798 190.4H171.75C171.654 190.584 171.554 190.764 171.45 190.94C171.346 191.116 171.238 191.296 171.126 191.48L169.338 194.096ZM171.738 197V194.888H168.294V194.24L171.57 189.344H172.674V194.096H173.718V194.888H172.674V197H171.738Z" fill="#666666"/>
<path d="M193.948 197V196.184H195.7V190.544H194.308V189.908C194.66 189.844 194.964 189.768 195.22 189.68C195.484 189.584 195.72 189.472 195.928 189.344H196.684V196.184H198.268V197H193.948ZM199.445 197V196.412C200.213 195.644 200.865 194.972 201.401 194.396C201.937 193.812 202.345 193.288 202.625 192.824C202.905 192.352 203.045 191.912 203.045 191.504C203.045 191.064 202.925 190.704 202.685 190.424C202.445 190.144 202.081 190.004 201.593 190.004C201.273 190.004 200.977 190.096 200.705 190.28C200.433 190.456 200.185 190.672 199.961 190.928L199.397 190.364C199.717 190.012 200.057 189.732 200.417 189.524C200.785 189.308 201.217 189.2 201.713 189.2C202.425 189.2 202.985 189.408 203.393 189.824C203.801 190.232 204.005 190.776 204.005 191.456C204.005 191.936 203.869 192.424 203.597 192.92C203.333 193.408 202.965 193.924 202.493 194.468C202.029 195.004 201.493 195.588 200.885 196.22C201.093 196.204 201.309 196.188 201.533 196.172C201.757 196.156 201.969 196.148 202.169 196.148H204.389V197H199.445ZM205.05 198.92L208.254 188.48H208.974L205.77 198.92H205.05ZM209.605 197V196.412C210.373 195.644 211.025 194.972 211.561 194.396C212.097 193.812 212.505 193.288 212.785 192.824C213.065 192.352 213.205 191.912 213.205 191.504C213.205 191.064 213.085 190.704 212.845 190.424C212.605 190.144 212.241 190.004 211.753 190.004C211.433 190.004 211.137 190.096 210.865 190.28C210.593 190.456 210.345 190.672 210.121 190.928L209.557 190.364C209.877 190.012 210.217 189.732 210.577 189.524C210.945 189.308 211.377 189.2 211.873 189.2C212.585 189.2 213.145 189.408 213.553 189.824C213.961 190.232 214.165 190.776 214.165 191.456C214.165 191.936 214.029 192.424 213.757 192.92C213.493 193.408 213.125 193.924 212.653 194.468C212.189 195.004 211.653 195.588 211.045 196.22C211.253 196.204 211.469 196.188 211.693 196.172C211.917 196.156 212.129 196.148 212.329 196.148H214.549V197H209.605ZM217.898 197.144C217.29 197.144 216.786 197.036 216.386 196.82C215.986 196.604 215.654 196.364 215.39 196.1L215.87 195.452C216.102 195.676 216.37 195.88 216.674 196.064C216.978 196.24 217.354 196.328 217.802 196.328C218.274 196.328 218.67 196.172 218.99 195.86C219.318 195.54 219.482 195.112 219.482 194.576C219.482 194.048 219.334 193.636 219.038 193.34C218.742 193.044 218.346 192.896 217.85 192.896C217.586 192.896 217.358 192.936 217.166 193.016C216.982 193.096 216.774 193.212 216.542 193.364L216.014 193.028L216.266 189.344H220.094V190.196H217.13L216.926 192.464C217.11 192.368 217.294 192.292 217.478 192.236C217.662 192.18 217.87 192.152 218.102 192.152C218.542 192.152 218.938 192.24 219.29 192.416C219.65 192.584 219.938 192.844 220.154 193.196C220.37 193.548 220.478 194 220.478 194.552C220.478 195.104 220.354 195.576 220.106 195.968C219.866 196.352 219.55 196.644 219.158 196.844C218.766 197.044 218.346 197.144 217.898 197.144Z" fill="#666666"/>
<path d="M240.948 197V196.184H242.7V190.544H241.308V189.908C241.66 189.844 241.964 189.768 242.22 189.68C242.484 189.584 242.72 189.472 242.928 189.344H243.684V196.184H245.268V197H240.948ZM246.445 197V196.412C247.213 195.644 247.865 194.972 248.401 194.396C248.937 193.812 249.345 193.288 249.625 192.824C249.905 192.352 250.045 191.912 250.045 191.504C250.045 191.064 249.925 190.704 249.685 190.424C249.445 190.144 249.081 190.004 248.593 190.004C248.273 190.004 247.977 190.096 247.705 190.28C247.433 190.456 247.185 190.672 246.961 190.928L246.397 190.364C246.717 190.012 247.057 189.732 247.417 189.524C247.785 189.308 248.217 189.2 248.713 189.2C249.425 189.2 249.985 189.408 250.393 189.824C250.801 190.232 251.005 190.776 251.005 191.456C251.005 191.936 250.869 192.424 250.597 192.92C250.333 193.408 249.965 193.924 249.493 194.468C249.029 195.004 248.493 195.588 247.885 196.22C248.093 196.204 248.309 196.188 248.533 196.172C248.757 196.156 248.969 196.148 249.169 196.148H251.389V197H246.445ZM252.05 198.92L255.254 188.48H255.974L252.77 198.92H252.05ZM256.605 197V196.412C257.373 195.644 258.025 194.972 258.561 194.396C259.097 193.812 259.505 193.288 259.785 192.824C260.065 192.352 260.205 191.912 260.205 191.504C260.205 191.064 260.085 190.704 259.845 190.424C259.605 190.144 259.241 190.004 258.753 190.004C258.433 190.004 258.137 190.096 257.865 190.28C257.593 190.456 257.345 190.672 257.121 190.928L256.557 190.364C256.877 190.012 257.217 189.732 257.577 189.524C257.945 189.308 258.377 189.2 258.873 189.2C259.585 189.2 260.145 189.408 260.553 189.824C260.961 190.232 261.165 190.776 261.165 191.456C261.165 191.936 261.029 192.424 260.757 192.92C260.493 193.408 260.125 193.924 259.653 194.468C259.189 195.004 258.653 195.588 258.045 196.22C258.253 196.204 258.469 196.188 258.693 196.172C258.917 196.156 259.129 196.148 259.329 196.148H261.549V197H256.605ZM265.222 193.064C264.974 193.064 264.706 193.144 264.418 193.304C264.13 193.464 263.866 193.72 263.626 194.072C263.69 194.816 263.862 195.384 264.142 195.776C264.43 196.168 264.818 196.364 265.306 196.364C265.682 196.364 265.998 196.212 266.254 195.908C266.51 195.596 266.638 195.188 266.638 194.684C266.638 194.188 266.518 193.796 266.278 193.508C266.046 193.212 265.694 193.064 265.222 193.064ZM265.306 197.144C264.81 197.144 264.362 197.008 263.962 196.736C263.562 196.464 263.246 196.056 263.014 195.512C262.782 194.96 262.666 194.276 262.666 193.46C262.666 192.436 262.802 191.612 263.074 190.988C263.354 190.364 263.714 189.912 264.154 189.632C264.602 189.344 265.078 189.2 265.582 189.2C265.998 189.2 266.354 189.28 266.65 189.44C266.954 189.592 267.214 189.784 267.43 190.016L266.878 190.628C266.726 190.444 266.538 190.3 266.314 190.196C266.09 190.084 265.858 190.028 265.618 190.028C265.258 190.028 264.93 190.132 264.634 190.34C264.338 190.54 264.094 190.88 263.902 191.36C263.718 191.832 263.618 192.472 263.602 193.28C263.842 192.984 264.122 192.752 264.442 192.584C264.762 192.408 265.078 192.32 265.39 192.32C266.054 192.32 266.582 192.52 266.974 192.92C267.374 193.312 267.574 193.9 267.574 194.684C267.574 195.172 267.47 195.6 267.262 195.968C267.054 196.336 266.778 196.624 266.434 196.832C266.098 197.04 265.722 197.144 265.306 197.144Z" fill="#666666"/>
<path d="M289.712 197V189.968H287.336V189.128H293.096V189.968H290.72V197H289.712ZM295.889 197.144C295.417 197.144 294.973 197.024 294.557 196.784C294.149 196.544 293.817 196.196 293.561 195.74C293.313 195.284 293.189 194.736 293.189 194.096C293.189 193.44 293.313 192.884 293.561 192.428C293.817 191.972 294.149 191.624 294.557 191.384C294.973 191.144 295.417 191.024 295.889 191.024C296.369 191.024 296.813 191.144 297.221 191.384C297.629 191.624 297.957 191.972 298.205 192.428C298.461 192.884 298.589 193.44 298.589 194.096C298.589 194.736 298.461 195.284 298.205 195.74C297.957 196.196 297.629 196.544 297.221 196.784C296.813 197.024 296.369 197.144 295.889 197.144ZM295.889 196.328C296.393 196.328 296.797 196.124 297.101 195.716C297.413 195.3 297.569 194.76 297.569 194.096C297.569 193.424 297.413 192.88 297.101 192.464C296.797 192.048 296.393 191.84 295.889 191.84C295.393 191.84 294.989 192.048 294.677 192.464C294.365 192.88 294.209 193.424 294.209 194.096C294.209 194.76 294.365 195.3 294.677 195.716C294.989 196.124 295.393 196.328 295.889 196.328ZM302.117 197.144C301.389 197.144 300.805 196.88 300.365 196.352C299.925 195.816 299.705 195.064 299.705 194.096C299.705 193.464 299.821 192.92 300.053 192.464C300.293 192 300.605 191.644 300.989 191.396C301.381 191.148 301.797 191.024 302.237 191.024C302.573 191.024 302.865 191.084 303.113 191.204C303.361 191.324 303.613 191.488 303.869 191.696L303.821 190.7V188.456H304.817V197H304.001L303.917 196.316H303.881C303.657 196.54 303.393 196.736 303.089 196.904C302.785 197.064 302.461 197.144 302.117 197.144ZM302.333 196.316C302.845 196.316 303.341 196.048 303.821 195.512V192.464C303.573 192.24 303.333 192.084 303.101 191.996C302.877 191.9 302.645 191.852 302.405 191.852C302.093 191.852 301.809 191.948 301.553 192.14C301.305 192.324 301.105 192.584 300.953 192.92C300.801 193.248 300.725 193.636 300.725 194.084C300.725 194.78 300.865 195.328 301.145 195.728C301.425 196.12 301.821 196.316 302.333 196.316ZM308.125 197.144C307.637 197.144 307.229 197 306.901 196.712C306.581 196.416 306.421 196.008 306.421 195.488C306.421 194.848 306.705 194.36 307.273 194.024C307.849 193.68 308.757 193.44 309.997 193.304C309.997 193.056 309.961 192.82 309.889 192.596C309.825 192.372 309.705 192.192 309.529 192.056C309.361 191.912 309.117 191.84 308.797 191.84C308.461 191.84 308.145 191.904 307.849 192.032C307.553 192.16 307.289 192.304 307.057 192.464L306.673 191.78C306.945 191.604 307.277 191.436 307.669 191.276C308.069 191.108 308.501 191.024 308.965 191.024C309.677 191.024 310.193 191.244 310.513 191.684C310.833 192.116 310.993 192.696 310.993 193.424V197H310.177L310.093 196.304H310.057C309.785 196.528 309.485 196.724 309.157 196.892C308.837 197.06 308.493 197.144 308.125 197.144ZM308.413 196.352C308.693 196.352 308.957 196.284 309.205 196.148C309.453 196.012 309.717 195.82 309.997 195.572V193.952C309.029 194.072 308.349 194.252 307.957 194.492C307.573 194.732 307.381 195.04 307.381 195.416C307.381 195.744 307.481 195.984 307.681 196.136C307.881 196.28 308.125 196.352 308.413 196.352ZM312.924 199.508C312.796 199.508 312.672 199.496 312.552 199.472C312.44 199.448 312.336 199.42 312.24 199.388L312.432 198.608C312.496 198.624 312.568 198.64 312.648 198.656C312.728 198.68 312.804 198.692 312.876 198.692C313.204 198.692 313.476 198.572 313.692 198.332C313.908 198.1 314.076 197.804 314.196 197.444L314.328 197.012L311.988 191.168H313.008L314.196 194.396C314.284 194.644 314.376 194.912 314.472 195.2C314.576 195.488 314.672 195.768 314.76 196.04H314.808C314.896 195.776 314.98 195.5 315.06 195.212C315.14 194.924 315.22 194.652 315.3 194.396L316.344 191.168H317.304L315.108 197.48C314.972 197.864 314.808 198.208 314.616 198.512C314.432 198.816 314.2 199.056 313.92 199.232C313.648 199.416 313.316 199.508 312.924 199.508Z" fill="#666666"/>
</g>
<defs>
<filter id="filter0_f_187_5888" x="0" y="0" width="328" height="285" filterUnits="userSpaceOnUse" color-interpolation-filters="sRGB">
<feFlood flood-opacity="0" result="BackgroundImageFix"/>
<feBlend mode="normal" in="SourceGraphic" in2="BackgroundImageFix" result="shape"/>
<feGaussianBlur stdDeviation="2" result="effect1_foregroundBlur_187_5888"/>
</filter>
</defs>
</svg>
