<svg width="56" height="56" viewBox="0 0 56 56" fill="none" xmlns="http://www.w3.org/2000/svg">
                                    <g filter="url(#filter0_d_199_7158)">
                                    <path d="M44 24C44 32.8366 36.8366 40 28 40C19.1634 40 12 32.8366 12 24C12 15.1634 19.1634 8 28 8C36.8366 8 44 15.1634 44 24Z" fill="white"/>
                                    <path d="M25.76 26.88L22.28 23.4C21.9867 23.1067 21.6267 22.96 21.2 22.96C20.7733 22.96 20.4 23.12 20.08 23.44C19.7867 23.7333 19.64 24.1067 19.64 24.56C19.64 25.0133 19.7867 25.3867 20.08 25.68L24.64 30.24C24.9333 30.5333 25.3067 30.68 25.76 30.68C26.2133 30.68 26.5867 30.5333 26.88 30.24L35.96 21.16C36.2533 20.8667 36.4 20.5067 36.4 20.08C36.4 19.6533 36.24 19.28 35.92 18.96C35.6267 18.6667 35.2533 18.52 34.8 18.52C34.3467 18.52 33.9733 18.6667 33.68 18.96L25.76 26.88ZM28 40C25.7867 40 23.7067 39.5797 21.76 38.7392C19.8133 37.8997 18.12 36.76 16.68 35.32C15.24 33.88 14.1003 32.1867 13.2608 30.24C12.4203 28.2933 12 26.2133 12 24C12 21.7867 12.4203 19.7067 13.2608 17.76C14.1003 15.8133 15.24 14.12 16.68 12.68C18.12 11.24 19.8133 10.0997 21.76 9.2592C23.7067 8.41973 25.7867 8 28 8C30.2133 8 32.2933 8.41973 34.24 9.2592C36.1867 10.0997 37.88 11.24 39.32 12.68C40.76 14.12 41.8997 15.8133 42.7392 17.76C43.5797 19.7067 44 21.7867 44 24C44 26.2133 43.5797 28.2933 42.7392 30.24C41.8997 32.1867 40.76 33.88 39.32 35.32C37.88 36.76 36.1867 37.8997 34.24 38.7392C32.2933 39.5797 30.2133 40 28 40Z" fill="#0BD25F"/>
                                    </g>
                                    <defs>
                                    <filter id="filter0_d_199_7158" x="0" y="0" width="56" height="56" filterUnits="userSpaceOnUse" color-interpolation-filters="sRGB">
                                    <feFlood flood-opacity="0" result="BackgroundImageFix"/>
                                    <feColorMatrix in="SourceAlpha" type="matrix" values="0 0 0 0 0 0 0 0 0 0 0 0 0 0 0 0 0 0 127 0" result="hardAlpha"/>
                                    <feOffset dy="4"/>
                                    <feGaussianBlur stdDeviation="6"/>
                                    <feComposite in2="hardAlpha" operator="out"/>
                                    <feColorMatrix type="matrix" values="0 0 0 0 0.0431373 0 0 0 0 0.823529 0 0 0 0 0.372549 0 0 0 0.12 0"/>
                                    <feBlend mode="normal" in2="BackgroundImageFix" result="effect1_dropShadow_199_7158"/>
                                    <feBlend mode="normal" in="SourceGraphic" in2="effect1_dropShadow_199_7158" result="shape"/>
                                    </filter>
                                    </defs>
                                </svg>