<svg width="20" height="20" viewBox="0 0 20 20" fill="none" xmlns="http://www.w3.org/2000/svg">
<path d="M16.2195 0.296854L5.47863 1.42577C4.49136 1.52954 3.77286 2.41681 3.87663 3.40407L5.00554 14.145C5.10931 15.1323 5.99658 15.8508 6.98385 15.747L17.7248 14.6181C18.712 14.5143 19.4305 13.627 19.3268 12.6398L18.1979 1.89885C18.0941 0.911585 17.2068 0.193088 16.2195 0.296854ZM6.7957 13.9568L5.66678 3.21592L16.4077 2.08701L17.5384 12.8277L6.7957 13.9568Z" fill="#666666"/>
<path d="M2.463 7.17229L0.672852 7.36044L1.80177 18.1014C1.90553 19.0886 2.7928 19.8071 3.78007 19.7034L14.521 18.5744L14.3328 16.7843L3.59192 17.9132L2.463 7.17229Z" fill="#666666"/>
<path d="M10 10.0001L9.01086 9.1991L7.50293 12.0725L16.4537 11.1317L12.3089 6.13757L10 10.0001Z" fill="#666666"/>
</svg>
