<?xml version="1.0" encoding="utf-8"?>
<!-- Generator: Adobe Illustrator 24.2.0, SVG Export Plug-In . SVG Version: 6.00 Build 0)  -->
<svg version="1.1" id="Layer_1" xmlns="http://www.w3.org/2000/svg" xmlns:xlink="http://www.w3.org/1999/xlink" x="0px" y="0px"
	 viewBox="0 0 500 500" style="enable-background:new 0 0 500 500;" xml:space="preserve">
<style type="text/css">
	.st0{fill:#002E60;}
</style>
<g>
	<path class="st0" d="M412.6,447.9L188.5,223.7c-4-4-4-10.4,0-14.3l14.2-14.2c4-4,10.4-4,14.3,0l224.2,224.1c4,4,4,10.4,0,14.3
		L427,447.8C423,451.8,416.6,451.8,412.6,447.9z"/>
	<path class="st0" d="M431.1,374.3l-66.9-66.9c-1.9-1.9-1.9-4.8,0-6.7l15.1-15.1c1.9-1.9,4.8-1.9,6.7,0l66.9,66.9
		c1.9,1.9,1.9,4.8,0,6.7l-15.2,15.1C435.9,376.2,432.9,376.2,431.1,374.3z"/>
	<path class="st0" d="M421.9,339.5l-49.7,49.7c-2.9-0.1-5.1-0.1-6.4-1.5l-12.9-12.9c-1.4-1.4-1.4-3.6-2-6.9l49.7-49.7
		c3.4,0.6,5.6,0.6,6.9,2l12.9,12.9C421.8,334.4,421.8,336.7,421.9,339.5z"/>
	<path class="st0" d="M253.4,70.9C210.1,27,139.5,59.8,106.3,80.5c-4.3-3.3-13.7,0.2-21.6,8.1c-8,8-11.4,17.5-8.1,21.7
		c-20.8,33.4-52.7,103.2-9.2,146.3c53.3,52.6,128.3,0,128.3,0l1.7-1c22.9-14,42.1-33.3,56-56.4l0,0
		C253.4,199,305.9,124.1,253.4,70.9z M187.9,185.8c-2.7,0-5.4-0.3-8-0.7c0.3,2,0.4,4.2,0.4,6.2c0,25.8-20.9,46.8-46.8,46.8
		c-25.8,0-46.8-20.9-46.8-46.8c0-25.8,20.9-46.8,46.8-46.8c2.7,0,5.4,0.3,8,0.7c-0.3-2-0.4-4.2-0.4-6.2c0-25.8,20.9-46.8,46.8-46.8
		c25.8,0,46.8,20.9,46.8,46.8C234.6,164.9,213.6,185.8,187.9,185.8z"/>
</g>
</svg>
