<?xml version="1.0" encoding="utf-8"?>
<!-- Generator: Adobe Illustrator 24.2.0, SVG Export Plug-In . SVG Version: 6.00 Build 0)  -->
<svg version="1.1" id="Layer_1" xmlns="http://www.w3.org/2000/svg" xmlns:xlink="http://www.w3.org/1999/xlink" x="0px" y="0px"
	 viewBox="0 0 500 500" style="enable-background:new 0 0 500 500;" xml:space="preserve">
<style type="text/css">
	.st0{fill:#002E60;}
</style>
<g>
	<path class="st0" d="M422.3,456.7L184.6,218.9c-4-4-4-10.4,0-14.3l14.2-14.2c4-4,10.4-4,14.3,0l237.8,237.7c4,4,4,10.4,0,14.3
		l-14.2,14.2C432.7,460.6,426.3,460.6,422.3,456.7z"/>
	<path class="st0" d="M440.8,383.1l-66.9-66.9c-1.9-1.9-1.9-4.8,0-6.7l12.9-12.9c1.9-1.9,4.8-1.9,6.7,0l66.9,66.9
		c1.9,1.9,1.9,4.8,0,6.7l-13,12.9C445.6,385,442.6,385,440.8,383.1z"/>
	<path class="st0" d="M430.1,346.8l-49.7,49.7c-1.4,1.4-3.6,1.4-4.9,0l-12.9-12.9c-1.4-1.4-1.4-3.6,0-4.9l49.7-49.7
		c1.4-1.4,3.6-1.4,4.9,0l12.9,12.9C431.5,343.2,431.5,345.5,430.1,346.8z"/>
	<path class="st0" d="M249.5,66.1c-43.3-43.9-113.9-11.1-147.1,9.6c-4.3-3.3-13.7,0.2-21.6,8.1c-8,8-11.4,17.5-8.1,21.7
		C51.9,138.9,20,208.7,63.5,251.8c53.3,52.6,128.3,0,128.3,0l25.5-30.9l32.2-26.5C249.5,194.2,302,119.3,249.5,66.1z M188.8,184.6
		c-3.2,0-6.4-0.3-9.4-0.8c0.3,2.4,0.5,4.9,0.5,7.3c0,30.3-24.6,55-55,55c-30.3,0-55-24.6-55-55c0-30.3,24.6-55,55-55
		c3.2,0,6.4,0.3,9.4,0.8c-0.3-2.4-0.5-4.9-0.5-7.3c0-30.3,24.6-55,55-55c30.3,0,55,24.6,55,55C243.7,160,219.1,184.6,188.8,184.6z"
		/>
</g>
</svg>
