<?xml version="1.0" encoding="utf-8"?>
<!-- Generator: Adobe Illustrator 24.2.0, SVG Export Plug-In . SVG Version: 6.00 Build 0)  -->
<svg version="1.1" id="Layer_1" xmlns="http://www.w3.org/2000/svg" xmlns:xlink="http://www.w3.org/1999/xlink" x="0px" y="0px"
	 viewBox="0 0 500 500" style="enable-background:new 0 0 500 500;" xml:space="preserve">
<style type="text/css">
	.st0{fill:#002E60;}
</style>
<g>
	<path class="st0" d="M220.7,48.2C171.2-2,84,54.1,67.5,67.3c-0.5,0.4-0.8,0.9-1.1,1.5c-0.7,0.2-1.3,0.6-1.7,1.2
		C51.4,86.4-4.7,173.6,45.5,223.2s120.9,0,120.9,0l24-29.1l30.3-25C220.7,169,270.2,98.4,220.7,48.2z M215.3,108.1
		c0,28.6-23.2,51.8-51.8,51.8h0c-3,0-6-0.3-8.9-0.8c0.3,2.3,0.5,4.6,0.5,6.9v0c0,28.6-23.2,51.8-51.8,51.8h0
		c-28.6,0-51.8-23.2-51.8-51.8v0c0-28.6,23.2-51.8,51.8-51.8h0c3,0,6,0.3,8.9,0.8c-0.3-2.3-0.5-4.6-0.5-6.9v0
		c0-28.6,23.2-51.8,51.8-51.8h0C192.1,56.3,215.3,79.5,215.3,108.1L215.3,108.1z"/>
	<path class="st0" d="M441.4,469.1L169.3,197c-4.3-4.3-4.3-11.2,0-15.4l9.1-9.1c4.3-4.3,11.2-4.3,15.4,0L466,444.6
		c4.3,4.3,4.3,11.2,0,15.4l-9.1,9.1C452.6,473.4,445.7,473.4,441.4,469.1z"/>
	<path class="st0" d="M455.9,393.6l-72.2-72.2c-2-2-2-5.2,0-7.2l10.5-10.5c2-2,5.2-2,7.2,0l72.2,72.2c2,2,2,5.2,0,7.2L463,393.6
		C461.1,395.6,457.9,395.6,455.9,393.6z"/>
	<path class="st0" d="M440.4,351.3L386.7,405c-1.5,1.5-3.9,1.5-5.3,0l-7.8-7.8c-1.5-1.5-1.5-3.9,0-5.3l53.7-53.7
		c1.5-1.5,3.9-1.5,5.3,0l7.8,7.8C441.9,347.4,441.9,349.8,440.4,351.3z"/>
	<ellipse transform="matrix(0.7071 -0.7071 0.7071 0.7071 -30.6174 69.4086)" class="st0" cx="68.5" cy="71.7" rx="19.9" ry="9.6"/>
</g>
</svg>
