
<svg width="24" height="24" viewBox="0 0 24 24" fill="none" xmlns="http://www.w3.org/2000/svg">
<rect width="24" height="24" rx="4" fill="#006192"/>
<path d="M17.1167 6H6.8834C6.3834 6 5.9834 6.4 5.9834 6.86667V17.1333C5.9834 17.6 6.3834 18 6.8834 18H17.1167C17.6167 18 18.0167 17.6 18.0167 17.1333V6.86667C18.0167 6.4 17.6167 6 17.1167 6Z" fill="white"/>
<path d="M7.79076 10.5476H9.55742V16.281H7.79076V10.5476ZM8.69075 7.71431C9.25742 7.71431 9.72409 8.18097 9.72409 8.74764C9.72409 9.31431 9.25742 9.78097 8.69075 9.78097C8.12409 9.78097 7.65742 9.31431 7.65742 8.74764C7.65742 8.14764 8.12409 7.71431 8.69075 7.71431ZM10.6908 10.5476H12.3908V11.3143H12.4241C12.6574 10.8476 13.2574 10.381 14.1241 10.381C15.9241 10.381 16.2574 11.581 16.2574 13.1143V16.2476H14.4908V13.4476C14.4908 12.781 14.4908 11.9143 13.5574 11.9143C12.6241 11.9143 12.4908 12.6476 12.4908 13.381V16.2143H10.7241V10.5476H10.6908Z" fill="#006192"/>
</svg>
