<svg width="16" height="16" viewBox="0 0 16 16" fill="none" xmlns="http://www.w3.org/2000/svg">
<path d="M10.8892 1.5H5.11144C4.72883 1.50153 4.36235 1.64877 4.09181 1.90965C3.82127 2.17053 3.66858 2.52392 3.66699 2.89286V13.1071C3.66858 13.4761 3.82127 13.8295 4.09181 14.0904C4.36235 14.3512 4.72883 14.4985 5.11144 14.5H10.8892C11.2718 14.4985 11.6383 14.3512 11.9088 14.0904C12.1794 13.8295 12.3321 13.4761 12.3337 13.1071V2.89286C12.3321 2.52392 12.1794 2.17053 11.9088 1.90965C11.6383 1.64877 11.2718 1.50153 10.8892 1.5ZM11.3707 13.1071C11.3707 13.2303 11.32 13.3484 11.2297 13.4354C11.1394 13.5225 11.0169 13.5714 10.8892 13.5714H5.11144C4.98374 13.5714 4.86127 13.5225 4.77098 13.4354C4.68068 13.3484 4.62996 13.2303 4.62996 13.1071V2.89286C4.62996 2.76972 4.68068 2.65163 4.77098 2.56456C4.86127 2.47749 4.98374 2.42857 5.11144 2.42857H10.8892C11.0169 2.42857 11.1394 2.47749 11.2297 2.56456C11.32 2.65163 11.3707 2.76972 11.3707 2.89286V13.1071ZM8.72255 4.05357C8.72255 4.19131 8.68019 4.32596 8.60083 4.44049C8.52147 4.55501 8.40868 4.64428 8.27671 4.69699C8.14474 4.7497 7.99952 4.76349 7.85943 4.73662C7.71933 4.70975 7.59064 4.64342 7.48964 4.54602C7.38863 4.44862 7.31985 4.32453 7.29198 4.18944C7.26411 4.05434 7.27842 3.91432 7.33308 3.78706C7.38774 3.6598 7.48031 3.55104 7.59908 3.47451C7.71785 3.39799 7.85748 3.35714 8.00033 3.35714C8.19187 3.35714 8.37557 3.43052 8.51101 3.56112C8.64646 3.69173 8.72255 3.86887 8.72255 4.05357Z" fill="#666666"/>
</svg>
