<?xml version="1.0" encoding="UTF-8"?>
<!-- Generator: Adobe Illustrator 24.2.0, SVG Export Plug-In . SVG Version: 6.00 Build 0)  -->
<svg version="1.1" id="Layer_1" xmlns="http://www.w3.org/2000/svg" xmlns:xlink="http://www.w3.org/1999/xlink" x="0px" y="0px" viewBox="0 0 500 500" style="enable-background:new 0 0 500 500;" xml:space="preserve">
<style type="text/css">
	.st0{fill:#002E60;}
</style>
<g>
	<path class="st0" d="M412.3,388.6c-1.9,0-3.4,0-4.9,0c-35.9-0.1-71.7-0.2-107.6-0.2c-25.7,0-51.3,0.2-77,0.2   c-35.6,0-71.2-0.1-106.8-0.2c-8.2,0-16.3-0.2-24.5,0.1c-3.3,0.1-3.9-1.1-3.8-3.9c0.2-4.5-0.1-9,0.4-13.4c0.2-2.1,1.1-4.5,2.5-6   c11.9-12.2,24.1-24.3,36-36.5c1.1-1.1,1.7-3.1,1.7-4.7c0.1-26.2-0.3-52.3,0-78.5c0.2-15.9,0.3-32,2.2-47.7   c2.9-23.7,12-45.3,27-64.1c15.5-19.3,35.4-32,59.4-38.3c2.6-0.7,2.8-2,2.7-4c-0.3-7.9-0.4-15.8,2.7-23.4c6-15,26.1-22.6,40.5-15.2   c11.8,6.1,17.7,15.7,17.6,29c0,3.3,0.2,6.6,0.1,10c-0.1,2.2,0.9,3,3,3.6c16.9,4.9,32.3,12.4,45.5,24.2c18.5,16.6,30.1,37.3,36.9,61   c5.5,19.3,6,39,5.9,58.8c-0.1,19.5-0.1,39.1-0.1,58.6c0,8.4-0.1,16.9,0.2,25.3c0.1,2.1,1.1,4.7,2.6,6.3   c11.5,11.9,23.2,23.7,34.9,35.4c2,2,3,4.1,2.9,7.1C412.2,377.4,412.3,382.8,412.3,388.6z"/>
	<path class="st0" d="M130.4,60.5c7.9,0,15.5,5.2,18.5,12.6c3.3,8.2,1.7,16.5-4.6,22.5c-15,14.2-27.7,30.2-37,48.8   c-8.2,16.3-14.1,33.4-16.7,51.4c-1.2,8.4-5.8,14.2-13.4,17.2c-7.6,3-14.7,0.9-20.6-4.5c-5.4-4.9-7.5-11.3-6.3-18.4   c2.7-16.5,7.1-32.6,13.4-48.2c11.8-28.9,29.3-53.8,51.9-75.3C120.1,62.5,125.1,60.5,130.4,60.5z"/>
	<path class="st0" d="M367.6,60.7c8.2,0,13.1,2.2,17.4,6.3c14.8,14.2,27.5,30.1,37.9,47.8c13.8,23.6,23,48.9,26.9,75.9   c1.7,11.3-5.6,21.2-16.8,23.1c-11.2,1.9-21.2-5-23.1-16.6c-3.1-18.8-8.7-36.7-17.5-53.6c-9.4-18-21.5-34-36.3-48   c-6-5.6-8.1-14.7-5.3-22.1C354,65.6,361.2,60.7,367.6,60.7z"/>
	<path class="st0" d="M209.9,408.9c3.8,0,7.5,0,11.2,0c22.2,0,44.4,0,66.6,0c2.2,0,2.9,0.6,2.8,2.8c-2.1,28.7-31,46.2-57.4,34.6   C219.4,440.4,208.3,422.9,209.9,408.9z"/>
</g>
</svg>