<svg width="24" height="24" viewBox="0 0 24 24" fill="none" xmlns="http://www.w3.org/2000/svg">
<path d="M12 1.875C9.99747 1.875 8.0399 2.46882 6.37486 3.58137C4.70981 4.69392 3.41206 6.27523 2.64572 8.12533C1.87939 9.97543 1.67888 12.0112 2.06955 13.9753C2.46023 15.9393 3.42454 17.7435 4.84055 19.1595C6.25656 20.5755 8.06066 21.5398 10.0247 21.9305C11.9888 22.3211 14.0246 22.1206 15.8747 21.3543C17.7248 20.5879 19.3061 19.2902 20.4186 17.6251C21.5312 15.9601 22.125 14.0025 22.125 12C22.1225 9.31544 21.055 6.74155 19.1567 4.84329C17.2585 2.94502 14.6846 1.87748 12 1.875ZM12 19.875C10.4425 19.875 8.91993 19.4131 7.62489 18.5478C6.32985 17.6825 5.32049 16.4526 4.72445 15.0136C4.12841 13.5747 3.97246 11.9913 4.27632 10.4637C4.58018 8.93606 5.3302 7.53287 6.43154 6.43153C7.53288 5.3302 8.93607 4.58017 10.4637 4.27632C11.9913 3.97246 13.5747 4.12841 15.0136 4.72445C16.4526 5.32049 17.6825 6.32985 18.5478 7.62488C19.4131 8.91992 19.875 10.4425 19.875 12C19.8725 14.0878 19.042 16.0894 17.5657 17.5657C16.0894 19.042 14.0878 19.8725 12 19.875ZM15 10.125V13.875C15 14.1734 14.8815 14.4595 14.6705 14.6705C14.4595 14.8815 14.1734 15 13.875 15H10.125C9.82664 15 9.54049 14.8815 9.32951 14.6705C9.11853 14.4595 9 14.1734 9 13.875V10.125C9 9.82663 9.11853 9.54048 9.32951 9.3295C9.54049 9.11853 9.82664 9 10.125 9H13.875C14.1734 9 14.4595 9.11853 14.6705 9.3295C14.8815 9.54048 15 9.82663 15 10.125Z" fill="#1976FE"/>
</svg>
