<svg width="24" height="24" viewBox="0 0 24 24" fill="none" xmlns="http://www.w3.org/2000/svg">
<path d="M12 1.875C9.99747 1.875 8.0399 2.46882 6.37486 3.58137C4.70981 4.69392 3.41206 6.27523 2.64572 8.12533C1.87939 9.97543 1.67888 12.0112 2.06955 13.9753C2.46023 15.9393 3.42454 17.7434 4.84055 19.1595C6.25656 20.5755 8.06066 21.5398 10.0247 21.9304C11.9888 22.3211 14.0246 22.1206 15.8747 21.3543C17.7248 20.5879 19.3061 19.2902 20.4186 17.6251C21.5312 15.9601 22.125 14.0025 22.125 12C22.1225 9.31544 21.055 6.74155 19.1567 4.84329C17.2584 2.94502 14.6846 1.87748 12 1.875ZM12 19.875C10.4425 19.875 8.91993 19.4131 7.62489 18.5478C6.32985 17.6825 5.32049 16.4526 4.72445 15.0136C4.12841 13.5747 3.97246 11.9913 4.27632 10.4637C4.58018 8.93606 5.3302 7.53287 6.43154 6.43153C7.53288 5.33019 8.93607 4.58017 10.4637 4.27632C11.9913 3.97246 13.5747 4.12841 15.0136 4.72445C16.4526 5.32049 17.6825 6.32985 18.5478 7.62488C19.4131 8.91992 19.875 10.4425 19.875 12C19.8725 14.0878 19.042 16.0894 17.5657 17.5657C16.0894 19.042 14.0878 19.8725 12 19.875Z" fill="#0BD25F"/>
<path d="M9.58688 8.46657C9.69157 8.41603 9.80909 8.39355 9.92652 8.4016C10.044 8.40964 10.1567 8.4479 10.2525 8.51216L13.72 10.834V9.00052C13.72 8.84141 13.7874 8.68881 13.9075 8.57629C14.0275 8.46378 14.1903 8.40057 14.36 8.40057C14.5297 8.40057 14.6925 8.46378 14.8125 8.57629C14.9326 8.68881 15 8.84141 15 9.00052V15.0001C15 15.1592 14.9326 15.3118 14.8125 15.4243C14.6925 15.5368 14.5297 15.6 14.36 15.6C14.1903 15.6 14.0275 15.5368 13.9075 15.4243C13.7874 15.3118 13.72 15.1592 13.72 15.0001V13.1666L10.2512 15.4884C10.1555 15.5523 10.0429 15.5902 9.92572 15.5981C9.80855 15.606 9.69132 15.5834 9.58689 15.533C9.48246 15.4826 9.39485 15.4062 9.33367 15.3122C9.27248 15.2182 9.24007 15.1102 9.24 15.0001V9.00052C9.23988 8.89023 9.27219 8.78204 9.33339 8.68784C9.39458 8.59364 9.48229 8.51708 9.58688 8.46657Z" fill="#0BD25F"/>
</svg>
