<svg width="91" height="24" viewBox="0 0 91 24" fill="none" xmlns="http://www.w3.org/2000/svg">
<rect x="0.441406" width="90" height="24" rx="12" fill="url(#paint0_linear_187_5935)"/>
<path d="M22.2537 6.91675C22.3161 6.91679 22.3777 6.93085 22.4339 6.95789C22.4902 6.98494 22.5397 7.02427 22.5787 7.073L22.6099 7.11717L24.3808 10.0338C24.4215 10.1008 24.4425 10.1779 24.4414 10.2562C24.4403 10.3346 24.4171 10.411 24.3745 10.4768L24.3424 10.5193L19.7591 15.936C19.7227 15.9789 19.6781 16.014 19.6278 16.0392C19.5775 16.0644 19.5226 16.0792 19.4665 16.0826C19.4103 16.086 19.3541 16.078 19.3011 16.0591C19.2481 16.0402 19.1995 16.0108 19.1582 15.9726L19.1232 15.936L14.5399 10.5193C14.4893 10.4595 14.4566 10.3866 14.4456 10.3091C14.4345 10.2316 14.4455 10.1525 14.4774 10.0809L14.5015 10.0338L16.2724 7.11717C16.3048 7.06378 16.3487 7.01836 16.401 6.98424C16.4533 6.95013 16.5126 6.9282 16.5745 6.92008L16.6286 6.91675H22.2537ZM20.9057 10.6668H17.9761L19.4407 14.2801L20.9057 10.6668ZM23.1262 10.6668H21.8049L20.5895 13.6647L23.1262 10.6668ZM17.077 10.6668H15.7557L18.292 13.6639L17.077 10.6668ZM17.6386 7.75009H16.8624L15.5974 9.83343H17.0432L17.6386 7.75009ZM20.377 7.75009H18.5049L17.9095 9.83343H20.9724L20.377 7.75009ZM22.0195 7.75009H21.2432L21.8387 9.83343H23.2845L22.0195 7.75009Z" fill="white"/>
<path d="M29.9765 16V8.152H32.4485C33.0325 8.152 33.5525 8.228 34.0085 8.38C34.4645 8.532 34.8245 8.784 35.0885 9.136C35.3525 9.488 35.4845 9.968 35.4845 10.576C35.4845 11.152 35.3525 11.628 35.0885 12.004C34.8245 12.38 34.4685 12.66 34.0205 12.844C33.5725 13.028 33.0645 13.12 32.4965 13.12H31.3685V16H29.9765ZM31.3685 12.004H32.3885C33.5405 12.004 34.1165 11.528 34.1165 10.576C34.1165 10.08 33.9645 9.74 33.6605 9.556C33.3645 9.364 32.9245 9.268 32.3405 9.268H31.3685V12.004ZM36.8408 16V10.108H37.9808L38.0768 11.152H38.1248C38.3328 10.768 38.5848 10.476 38.8808 10.276C39.1768 10.068 39.4808 9.964 39.7928 9.964C40.0728 9.964 40.2968 10.004 40.4648 10.084L40.2248 11.284C40.1208 11.252 40.0248 11.228 39.9368 11.212C39.8488 11.196 39.7408 11.188 39.6128 11.188C39.3808 11.188 39.1368 11.28 38.8808 11.464C38.6248 11.64 38.4048 11.952 38.2208 12.4V16H36.8408ZM43.7202 16.144C43.1762 16.144 42.6842 16.024 42.2442 15.784C41.8042 15.536 41.4562 15.184 41.2002 14.728C40.9442 14.264 40.8162 13.708 40.8162 13.06C40.8162 12.42 40.9442 11.868 41.2002 11.404C41.4642 10.94 41.8042 10.584 42.2202 10.336C42.6362 10.088 43.0722 9.964 43.5282 9.964C44.0642 9.964 44.5122 10.084 44.8722 10.324C45.2322 10.556 45.5042 10.884 45.6882 11.308C45.8722 11.724 45.9642 12.208 45.9642 12.76C45.9642 13.048 45.9442 13.272 45.9042 13.432H42.1602C42.2242 13.952 42.4122 14.356 42.7242 14.644C43.0362 14.932 43.4282 15.076 43.9002 15.076C44.1562 15.076 44.3922 15.04 44.6082 14.968C44.8322 14.888 45.0522 14.78 45.2682 14.644L45.7362 15.508C45.4562 15.692 45.1442 15.844 44.8002 15.964C44.4562 16.084 44.0962 16.144 43.7202 16.144ZM42.1482 12.496H44.7642C44.7642 12.04 44.6642 11.684 44.4642 11.428C44.2642 11.164 43.9642 11.032 43.5642 11.032C43.2202 11.032 42.9122 11.16 42.6402 11.416C42.3762 11.664 42.2122 12.024 42.1482 12.496ZM47.2823 16V10.108H48.4223L48.5183 10.912H48.5663C48.8143 10.648 49.0823 10.424 49.3703 10.24C49.6663 10.056 49.9983 9.964 50.3663 9.964C50.7983 9.964 51.1423 10.06 51.3983 10.252C51.6623 10.436 51.8623 10.692 51.9983 11.02C52.2783 10.716 52.5703 10.464 52.8743 10.264C53.1863 10.064 53.5263 9.964 53.8943 9.964C54.5183 9.964 54.9783 10.168 55.2743 10.576C55.5703 10.984 55.7183 11.56 55.7183 12.304V16H54.3263V12.484C54.3263 11.996 54.2503 11.652 54.0983 11.452C53.9543 11.252 53.7303 11.152 53.4263 11.152C53.0583 11.152 52.6463 11.396 52.1903 11.884V16H50.8103V12.484C50.8103 11.996 50.7343 11.652 50.5823 11.452C50.4383 11.252 50.2103 11.152 49.8983 11.152C49.5303 11.152 49.1183 11.396 48.6623 11.884V16H47.2823ZM57.3955 16V10.108H58.7755V16H57.3955ZM58.0915 9.076C57.8435 9.076 57.6435 9.004 57.4915 8.86C57.3395 8.716 57.2635 8.524 57.2635 8.284C57.2635 8.052 57.3395 7.864 57.4915 7.72C57.6435 7.576 57.8435 7.504 58.0915 7.504C58.3395 7.504 58.5395 7.576 58.6915 7.72C58.8435 7.864 58.9195 8.052 58.9195 8.284C58.9195 8.524 58.8435 8.716 58.6915 8.86C58.5395 9.004 58.3395 9.076 58.0915 9.076ZM62.2882 16.144C61.6562 16.144 61.1962 15.94 60.9082 15.532C60.6202 15.124 60.4762 14.548 60.4762 13.804V10.108H61.8562V13.624C61.8562 14.112 61.9282 14.456 62.0722 14.656C62.2162 14.856 62.4482 14.956 62.7682 14.956C63.0242 14.956 63.2482 14.892 63.4402 14.764C63.6402 14.636 63.8522 14.428 64.0762 14.14V10.108H65.4562V16H64.3282L64.2202 15.136H64.1842C63.9282 15.44 63.6482 15.684 63.3442 15.868C63.0402 16.052 62.6882 16.144 62.2882 16.144ZM67.2041 16V10.108H68.3441L68.4401 10.912H68.4881C68.7361 10.648 69.0041 10.424 69.2921 10.24C69.5881 10.056 69.9201 9.964 70.2881 9.964C70.7201 9.964 71.0641 10.06 71.3201 10.252C71.5841 10.436 71.7841 10.692 71.9201 11.02C72.2001 10.716 72.4921 10.464 72.7961 10.264C73.1081 10.064 73.4481 9.964 73.8161 9.964C74.4401 9.964 74.9001 10.168 75.1961 10.576C75.4921 10.984 75.6401 11.56 75.6401 12.304V16H74.2481V12.484C74.2481 11.996 74.1721 11.652 74.0201 11.452C73.8761 11.252 73.6521 11.152 73.3481 11.152C72.9801 11.152 72.5681 11.396 72.1121 11.884V16H70.7321V12.484C70.7321 11.996 70.6561 11.652 70.5041 11.452C70.3601 11.252 70.1321 11.152 69.8201 11.152C69.4521 11.152 69.0401 11.396 68.5841 11.884V16H67.2041Z" fill="white"/>
<defs>
<linearGradient id="paint0_linear_187_5935" x1="0.441406" y1="12" x2="90.4414" y2="12" gradientUnits="userSpaceOnUse">
<stop offset="0.333333" stop-color="#FF8534"/>
<stop offset="1" stop-color="#FF630C"/>
</linearGradient>
</defs>
</svg>
