<?xml version="1.0" encoding="utf-8"?>
<!-- Generator: Adobe Illustrator 24.2.0, SVG Export Plug-In . SVG Version: 6.00 Build 0)  -->
<svg version="1.1" id="Layer_1" xmlns="http://www.w3.org/2000/svg" xmlns:xlink="http://www.w3.org/1999/xlink" x="0px" y="0px"
	 viewBox="0 0 500 500" style="enable-background:new 0 0 500 500;" xml:space="preserve">
<style type="text/css">
	.st0{fill:#FFFFFF;stroke:#002E60;stroke-width:30;stroke-miterlimit:10;}
	.st1{fill:none;stroke:#002E60;stroke-width:30;stroke-miterlimit:10;}
</style>
<g>
	<g>
		<rect x="117.4" y="161.9" class="st0" width="355.7" height="275.9"/>
		<line class="st1" x1="117.4" y1="233.9" x2="473" y2="233.9"/>
		<g>
			<line class="st1" x1="159.8" y1="291.8" x2="311.6" y2="291.8"/>
			<line class="st1" x1="346" y1="291.8" x2="430.6" y2="291.8"/>
			<line class="st1" x1="159.8" y1="334.1" x2="218.5" y2="334.1"/>
			<line class="st1" x1="255.2" y1="334.1" x2="430.6" y2="334.1"/>
			<line class="st1" x1="159.8" y1="378.8" x2="311.6" y2="378.8"/>
			<line class="st1" x1="346" y1="378.8" x2="405.4" y2="378.8"/>
		</g>
		<line class="st1" x1="313.1" y1="197.8" x2="347.5" y2="197.8"/>
		<line class="st1" x1="360.9" y1="197.8" x2="395.1" y2="197.8"/>
		<line class="st1" x1="406.6" y1="197.8" x2="440.9" y2="197.8"/>
	</g>
	<g>
		<rect x="27" y="58.2" class="st0" width="355.7" height="275.9"/>
		<line class="st1" x1="27" y1="130.2" x2="382.6" y2="130.2"/>
		<g>
			<line class="st1" x1="69.4" y1="188" x2="221.2" y2="188"/>
			<line class="st1" x1="255.6" y1="188" x2="340.2" y2="188"/>
			<line class="st1" x1="69.4" y1="230.4" x2="128.1" y2="230.4"/>
			<line class="st1" x1="164.8" y1="230.4" x2="340.2" y2="230.4"/>
			<line class="st1" x1="69.4" y1="280" x2="221.2" y2="280"/>
			<line class="st1" x1="255.6" y1="280" x2="315" y2="280"/>
		</g>
		<line class="st1" x1="222.7" y1="94.2" x2="257.1" y2="94.2"/>
		<line class="st1" x1="270.4" y1="94.2" x2="304.7" y2="94.2"/>
		<line class="st1" x1="316.2" y1="94.2" x2="350.5" y2="94.2"/>
	</g>
</g>
</svg>
