<?xml version="1.0" encoding="utf-8"?>
<!-- Generator: Adobe Illustrator 24.2.0, SVG Export Plug-In . SVG Version: 6.00 Build 0)  -->
<svg version="1.1" id="Layer_1" xmlns="http://www.w3.org/2000/svg" xmlns:xlink="http://www.w3.org/1999/xlink" x="0px" y="0px"
	 viewBox="0 0 500 500" style="enable-background:new 0 0 500 500;" xml:space="preserve">
<style type="text/css">
	.st0{fill:#FFFFFF;stroke:#002E60;stroke-width:18;stroke-miterlimit:10;}
	.st1{fill:none;stroke:#002E60;stroke-width:18;stroke-miterlimit:10;}
</style>
<g>
	<g>
		<rect x="170.1" y="205.6" class="st0" width="303.4" height="231.9"/>
		<line class="st1" x1="170.1" y1="263.6" x2="473.5" y2="263.6"/>
		<g>
			<line class="st1" x1="206.3" y1="317.2" x2="335.8" y2="317.2"/>
			<line class="st1" x1="365" y1="317.2" x2="437.3" y2="317.2"/>
			<line class="st1" x1="206.3" y1="349" x2="256.4" y2="349"/>
			<line class="st1" x1="287.6" y1="349" x2="437.3" y2="349"/>
			<line class="st1" x1="206.3" y1="382.9" x2="335.8" y2="382.9"/>
			<line class="st1" x1="365" y1="382.9" x2="415.8" y2="382.9"/>
		</g>
		<line class="st1" x1="337.1" y1="234.5" x2="366.3" y2="234.5"/>
		<line class="st1" x1="377.7" y1="234.5" x2="407" y2="234.5"/>
		<line class="st1" x1="416.8" y1="234.5" x2="446" y2="234.5"/>
	</g>
	<g>
		<rect x="96.8" y="150.9" class="st0" width="303.4" height="231.9"/>
		<line class="st1" x1="96.8" y1="208.9" x2="400.2" y2="208.9"/>
		<g>
			<line class="st1" x1="133" y1="262.5" x2="262.5" y2="262.5"/>
			<line class="st1" x1="291.8" y1="262.5" x2="364" y2="262.5"/>
			<line class="st1" x1="133" y1="294.3" x2="183.1" y2="294.3"/>
			<line class="st1" x1="214.4" y1="294.3" x2="364" y2="294.3"/>
			<line class="st1" x1="133" y1="328.2" x2="262.5" y2="328.2"/>
			<line class="st1" x1="291.8" y1="328.2" x2="342.5" y2="328.2"/>
		</g>
		<line class="st1" x1="263.8" y1="179.8" x2="293.1" y2="179.8"/>
		<line class="st1" x1="304.5" y1="179.8" x2="333.7" y2="179.8"/>
		<line class="st1" x1="343.5" y1="179.8" x2="372.8" y2="179.8"/>
	</g>
	<g>
		<rect x="26.5" y="62.4" class="st0" width="303.4" height="231.9"/>
		<line class="st1" x1="26.5" y1="120.4" x2="329.9" y2="120.4"/>
		<g>
			<line class="st1" x1="62.7" y1="174" x2="192.2" y2="174"/>
			<line class="st1" x1="221.5" y1="174" x2="293.7" y2="174"/>
			<line class="st1" x1="62.7" y1="205.9" x2="112.8" y2="205.9"/>
			<line class="st1" x1="144.1" y1="205.9" x2="293.7" y2="205.9"/>
			<line class="st1" x1="62.7" y1="239.7" x2="192.2" y2="239.7"/>
			<line class="st1" x1="221.5" y1="239.7" x2="272.2" y2="239.7"/>
		</g>
		<line class="st1" x1="193.5" y1="91.4" x2="222.8" y2="91.4"/>
		<line class="st1" x1="234.2" y1="91.4" x2="263.4" y2="91.4"/>
		<line class="st1" x1="273.2" y1="91.4" x2="302.5" y2="91.4"/>
	</g>
</g>
</svg>
