<svg width="16" height="17" viewBox="0 0 16 17" fill="none" xmlns="http://www.w3.org/2000/svg">
<path d="M2.5 0.25V1.75H1.75C0.9175 1.75 0.25 2.4175 0.25 3.25V13.75C0.25 14.1478 0.408035 14.5294 0.68934 14.8107C0.970644 15.092 1.35218 15.25 1.75 15.25H6.325C7.27 16.18 8.5675 16.75 10 16.75C12.9025 16.75 15.25 14.4025 15.25 11.5C15.25 10.0675 14.68 8.77 13.75 7.825V3.25C13.75 2.85218 13.592 2.47064 13.3107 2.18934C13.0294 1.90804 12.6478 1.75 12.25 1.75H11.5V0.25H10V1.75H4V0.25M1.75 3.25H12.25V4.75H1.75M1.75 6.25H12.25V6.7525C11.5675 6.43 10.8025 6.25 10 6.25C7.0975 6.25 4.75 8.5975 4.75 11.5C4.75 12.3025 4.93 13.0675 5.2525 13.75H1.75M10 7.8625C12.01 7.8625 13.6375 9.49 13.6375 11.5C13.6375 13.51 12.01 15.1375 10 15.1375C7.99 15.1375 6.3625 13.51 6.3625 11.5C6.3625 9.49 7.99 7.8625 10 7.8625ZM9.25 9.25V12.0175L11.6425 13.3975L12.205 12.4225L10.375 11.365V9.25H9.25Z" fill="#666666"/>
</svg>
