<?xml version="1.0" encoding="utf-8"?>
<!-- Generator: Adobe Illustrator 24.2.0, SVG Export Plug-In . SVG Version: 6.00 Build 0)  -->
<svg version="1.1" id="Layer_1" xmlns="http://www.w3.org/2000/svg" xmlns:xlink="http://www.w3.org/1999/xlink" x="0px" y="0px"
	 viewBox="0 0 500 500" style="enable-background:new 0 0 500 500;" xml:space="preserve">
<style type="text/css">
	.st0{fill:#002E60;}
</style>
<g>
	<path class="st0" d="M425,224.3c0-5.3-3-8.1-8.1-8.7c-4.7-0.5-9.5-0.7-14.2-1.1c-7.7-0.6-15.4-1.1-23.1-1.8
		c-3.2-7.4-6.2-15.1-9.9-22.2c-2.6-5.2-1.5-8.6,2.5-12.4c6.6-6.4,12.9-13,18.9-20c4.9-5.6,4.7-9.9-0.5-15.2
		c-10.7-10.9-21.4-21.8-32.4-32.5c-6.8-6.7-10.3-6.7-17.4-0.4s-14,12.9-20.8,19.5c-2.5,2.4-4.7,3.3-8.1,1.8
		c-6.8-3.1-13.7-6-20.7-8.5c-4.3-1.6-5.3-4.5-5.3-8.7c-0.2-9.2-0.6-18.3-1.2-27.5C284,77.1,282.2,75.1,273,75
		c-15.2-0.2-30.5-0.2-45.8,0c-9.1,0.1-11.3,2.4-11.7,11.6c-0.5,9.5-1.1,19-1.2,28.5c-0.1,3.9-1.5,6.2-5.3,7.6
		c-6.4,2.4-12.8,4.7-18.7,7.8c-4.9,2.5-8.1,1.1-11.6-2.4c-6.5-6.5-13.2-12.7-20.1-18.7c-6-5.3-10.2-5.3-15.9,0.4
		c-10.9,10.7-21.7,21.4-32.4,32.4c-6.2,6.4-6.4,10.1-0.5,16.7c6,6.8,12.3,13.6,18.9,20c3.3,3.3,4.4,6.3,2.3,10.8
		c-2.8,5.8-5.2,11.8-7.4,17.9c-1.8,4.8-4.4,6.8-9.7,6.7c-9.5-0.1-19,0.5-28.4,1.2c-7.9,0.6-10.1,2.8-10.2,10.9
		c-0.3,15.9-0.3,31.9,0,47.9c0.1,7,2.9,9.6,9.9,10.3c3.7,0.4,7.4,0.2,11.2,0.4c7.8,0.4,15.5,0.9,23.3,1.4
		c3.5,7.3,7.2,14.4,10.4,21.8c3.4,7.9,2.7,9.1-3.2,15c-6.2,6.1-12.3,12.6-17.8,19.3c-5.7,7-5.4,9.2,0.9,15.6
		c10.8,10.9,21.6,21.4,32.6,32c6.4,6.1,11,6,17.6-0.1c6.7-6.2,13.2-12.6,19.4-19.3c3.2-3.4,6.3-3.5,10-1.9
		c6.1,2.7,12.2,5.8,18.4,8.6c3.3,1.5,5.5,3.3,5.7,7.4c0.3,7,0.7,23.8,0.8,25.2c1.1,12.8,3.6,15.1,16.4,15.2
		c13.9,0,27.8,0.2,41.7-0.1c8.8-0.1,11.5-2.7,12-11.5c0.6-8.8,1.4-17.7,1.1-26.4c-0.2-6.2,2.3-9.3,7.9-11c5.4-1.8,10.9-3.6,16.2-6
		c7.2-3.2,7.2-3.2,12.5,2.4c5.3,5.6,10.9,11.2,16.5,16.5c8.1,7.6,11.8,7.6,19.8-0.1c10-9.6,19.5-19.7,29.6-29.2
		c7.9-7.4,8.4-11.5,1.1-19.7c-5.8-6.6-11.9-13-18.1-19.1c-3.3-3.3-4.1-6.4-1.9-10.8c2.7-5.4,5.2-11.1,6.9-17
		c1.8-5.9,5.3-7.9,11.3-7.8c9.2,0.2,18.3-0.2,27.5-0.8c6.8-0.4,9.7-3,9.8-9.2C425.1,258.2,425,241.2,425,224.3z M248.5,316.5
		c-37.9,0-68.5-30.7-68.5-68.7s30.7-68.7,68.5-68.7s68.5,30.7,68.5,68.7S286.4,316.5,248.5,316.5z"/>
</g>
</svg>
