<svg width="290" height="147" viewBox="0 0 290 147" fill="none" xmlns="http://www.w3.org/2000/svg">
<rect width="290" height="146.453" fill="white"/>
<path d="M100.605 13C104.195 13 107.105 10.0899 107.105 6.5C107.105 2.91015 104.195 0 100.605 0C97.0156 0 94.1055 2.91015 94.1055 6.5C94.1055 10.0899 97.0156 13 100.605 13Z" fill="#E6E6E6"/>
<path d="M46.957 136C52.4799 136 56.957 131.523 56.957 126C56.957 120.477 52.4799 116 46.957 116C41.4342 116 36.957 120.477 36.957 126C36.957 131.523 41.4342 136 46.957 136Z" fill="#E6E6E6"/>
<path d="M206.568 74.6285C206.522 74.6286 206.477 74.6144 206.439 74.5881L143.682 31.082C143.491 30.9502 143.264 30.8798 143.032 30.8802C142.8 30.8806 142.573 30.9518 142.382 31.0842L80.078 74.5876C80.0287 74.622 79.9677 74.6355 79.9084 74.6252C79.8491 74.6148 79.7964 74.5814 79.7619 74.5324C79.7273 74.4833 79.7137 74.4226 79.7241 74.3636C79.7345 74.3046 79.7681 74.2521 79.8173 74.2177L142.122 30.7143C142.389 30.5289 142.706 30.4292 143.031 30.4287C143.357 30.4282 143.674 30.5268 143.942 30.7113L206.698 74.2172C206.738 74.2447 206.768 74.2841 206.783 74.3296C206.799 74.3752 206.799 74.4244 206.785 74.4703C206.77 74.5162 206.742 74.5563 206.703 74.5848C206.664 74.6132 206.617 74.6285 206.568 74.6285L206.568 74.6285Z" fill="#3F3D56"/>
<path d="M84.1406 76.3248L143.31 32.0863L202.928 79.4725L146.358 113.304L115.646 106.241L84.1406 76.3248Z" fill="#E6E6E6"/>
<path d="M118.129 133.746H88.8259C88.6459 133.746 88.4677 133.71 88.3014 133.641C88.1351 133.572 87.984 133.47 87.8567 133.342C87.7294 133.214 87.6284 133.061 87.5595 132.894C87.4906 132.726 87.4551 132.546 87.4551 132.365C87.4551 132.183 87.4906 132.003 87.5595 131.836C87.6284 131.668 87.7294 131.515 87.8567 131.387C87.984 131.259 88.1351 131.157 88.3014 131.088C88.4677 131.019 88.6459 130.983 88.8259 130.983H118.129C118.309 130.983 118.487 131.019 118.654 131.088C118.82 131.157 118.971 131.259 119.098 131.387C119.226 131.515 119.327 131.668 119.396 131.836C119.465 132.003 119.5 132.183 119.5 132.365C119.5 132.546 119.465 132.726 119.396 132.894C119.327 133.061 119.226 133.214 119.098 133.342C118.971 133.47 118.82 133.572 118.654 133.641C118.487 133.71 118.309 133.746 118.129 133.746Z" fill="url(#paint0_linear_199_13159)"/>
<path d="M99.3437 128.221H88.8264C88.6464 128.221 88.4681 128.186 88.3017 128.116C88.1354 128.047 87.9842 127.945 87.8568 127.817C87.7295 127.689 87.6284 127.537 87.5595 127.369C87.4906 127.201 87.4551 127.021 87.4551 126.84C87.4551 126.658 87.4906 126.479 87.5595 126.311C87.6284 126.143 87.7295 125.991 87.8568 125.863C87.9842 125.734 88.1354 125.633 88.3017 125.563C88.4681 125.494 88.6464 125.458 88.8264 125.459H99.3437C99.5237 125.458 99.702 125.494 99.8684 125.563C100.035 125.633 100.186 125.734 100.313 125.863C100.441 125.991 100.542 126.143 100.611 126.311C100.68 126.479 100.715 126.658 100.715 126.84C100.715 127.021 100.68 127.201 100.611 127.369C100.542 127.537 100.441 127.689 100.313 127.817C100.186 127.945 100.035 128.047 99.8684 128.116C99.702 128.186 99.5237 128.221 99.3437 128.221Z" fill="url(#paint1_linear_199_13159)"/>
<path d="M144.092 100.596C143.869 100.596 143.648 100.553 143.441 100.469L106.793 85.3643V38.0831C106.793 37.665 106.961 37.2642 107.258 36.9685C107.556 36.6729 107.96 36.5066 108.381 36.5061H178.688C179.109 36.5066 179.512 36.6729 179.81 36.9685C180.107 37.2642 180.275 37.665 180.275 38.0831V85.3973L180.206 85.4265L144.762 100.462C144.55 100.55 144.322 100.596 144.092 100.596Z" fill="white"/>
<path d="M144.09 101.149C143.853 101.149 143.618 101.102 143.399 101.012L106.793 85.6707V37.6665C106.793 37.2124 106.972 36.777 107.29 36.456C107.608 36.1349 108.039 35.9542 108.489 35.9537H178.579C179.029 35.9542 179.46 36.1349 179.778 36.456C180.096 36.777 180.275 37.2124 180.275 37.6665V85.7033L144.803 101.004C144.577 101.099 144.335 101.149 144.09 101.149ZM107.245 85.3657L143.571 100.59C143.91 100.728 144.289 100.726 144.626 100.583L179.823 85.4018V37.6665C179.823 37.3335 179.692 37.0142 179.458 36.7788C179.225 36.5433 178.909 36.4109 178.58 36.4105H108.489C108.159 36.4109 107.843 36.5433 107.61 36.7788C107.377 37.0142 107.246 37.3335 107.245 37.6665L107.245 85.3657Z" fill="#3F3D56"/>
<path d="M206.312 74.076H206.267L180.228 85.2331L144.603 100.498C144.463 100.557 144.314 100.588 144.163 100.588C144.012 100.589 143.862 100.56 143.722 100.503L106.967 85.2012L80.2891 74.0943L80.2483 74.076H80.2029C79.782 74.0765 79.3784 74.2445 79.0808 74.5432C78.7831 74.8419 78.6157 75.2469 78.6152 75.6693V144.86C78.6157 145.283 78.7831 145.687 79.0808 145.986C79.3784 146.285 79.782 146.453 80.2029 146.453H206.312C206.733 146.453 207.137 146.285 207.434 145.986C207.732 145.687 207.899 145.283 207.9 144.86V75.6693C207.899 75.2469 207.732 74.8419 207.434 74.5432C207.137 74.2445 206.733 74.0765 206.312 74.076ZM207.446 144.86C207.446 145.162 207.327 145.451 207.114 145.665C206.901 145.878 206.613 145.998 206.312 145.998H80.2029C79.9022 145.998 79.6138 145.878 79.4012 145.665C79.1885 145.451 79.069 145.162 79.0689 144.86V75.6693C79.0693 75.375 79.183 75.0922 79.3864 74.8801C79.5897 74.6681 79.8668 74.5431 80.1599 74.5313L106.967 85.6928L143.548 100.924C143.944 101.086 144.388 101.083 144.782 100.917L180.228 85.727L206.358 74.5313C206.65 74.5439 206.926 74.6693 207.129 74.8812C207.332 75.0932 207.446 75.3754 207.446 75.6693V144.86Z" fill="#3F3D56"/>
<path d="M143.697 87.336C142.349 87.3385 141.038 86.8998 139.959 86.0861L139.893 86.0356L125.817 75.1865C125.165 74.6837 124.618 74.0566 124.207 73.3409C123.796 72.6252 123.529 71.8351 123.421 71.0155C123.313 70.1959 123.367 69.363 123.579 68.5643C123.791 67.7656 124.157 67.0167 124.657 66.3605C125.156 65.7042 125.779 65.1535 126.49 64.7396C127.201 64.3257 127.986 64.0569 128.8 63.9484C129.614 63.8399 130.441 63.8939 131.235 64.1073C132.028 64.3207 132.772 64.6893 133.424 65.1922L142.541 72.2299L164.086 43.9434C164.585 43.2874 165.208 42.7368 165.919 42.3232C166.63 41.9095 167.415 41.641 168.23 41.5328C169.044 41.4246 169.871 41.4789 170.664 41.6926C171.458 41.9063 172.201 42.2752 172.853 42.7783L172.719 42.9614L172.857 42.781C174.171 43.7981 175.031 45.2986 175.248 46.9533C175.465 48.608 175.021 50.2818 174.014 51.6074L148.672 84.8791C148.086 85.6458 147.332 86.2663 146.469 86.6924C145.607 87.1184 144.658 87.3387 143.697 87.336Z" fill="url(#paint2_linear_199_13159)"/>
<path opacity="0.2" d="M264.879 62.1391C260.214 61.7722 255.548 62.8243 251.497 65.1563C247.447 67.4883 244.202 70.9906 242.191 75.2004C240.181 79.4103 239.499 84.1297 240.237 88.7352C240.974 93.3406 243.096 97.6155 246.322 100.995C247.99 98.2712 250.382 96.0612 253.234 94.61C256.086 93.1589 259.285 92.5232 262.478 92.7736C260.578 92.6247 258.765 91.9177 257.268 90.742C255.77 89.5663 254.656 87.9747 254.067 86.1684C253.477 84.3621 253.437 82.4224 253.953 80.5944C254.47 78.7664 255.518 77.1323 256.966 75.8987C258.415 74.6652 260.198 73.8875 262.09 73.6641C263.982 73.4408 265.899 73.7817 267.597 74.6438C269.295 75.506 270.699 76.8506 271.632 78.5076C272.564 80.1646 272.982 82.0596 272.834 83.9531C272.635 86.492 271.432 88.8477 269.49 90.5019C267.548 92.1561 265.025 92.9732 262.478 92.7736C265.671 93.0236 268.732 94.1499 271.323 96.0276C273.914 97.9052 275.933 100.461 277.156 103.411C280.869 100.576 283.631 96.6834 285.077 92.249C286.522 87.8147 286.584 83.0467 285.254 78.5751C283.924 74.1034 281.264 70.1384 277.626 67.2039C273.988 64.2693 269.543 62.5033 264.879 62.1391Z" fill="#1976FE"/>
<path d="M288.046 86.6913C288.372 82.5461 287.659 78.385 285.971 74.5849C284.283 70.7848 281.674 67.4657 278.379 64.9282C275.085 62.3907 271.209 60.715 267.104 60.0529C262.998 59.3907 258.792 59.7631 254.867 61.1361C250.942 62.5092 247.421 64.8396 244.624 67.9164C241.827 70.9931 239.841 74.719 238.847 78.7565C237.854 82.794 237.883 87.0156 238.933 91.039C239.982 95.0624 242.019 98.7604 244.859 101.798L245.148 102.11C249.388 106.496 255.087 109.181 261.17 109.657C267.252 110.134 273.299 108.37 278.172 104.698L278.506 104.435C281.243 102.304 283.506 99.6252 285.149 96.5699C286.792 93.5145 287.778 90.1499 288.046 86.6913ZM242.033 83.0855C242.3 79.6703 243.392 76.3708 245.215 73.471C247.039 70.5711 249.54 68.1575 252.503 66.4379C255.466 64.7182 258.803 63.7438 262.226 63.5986C265.649 63.4534 269.056 64.1417 272.154 65.6042C275.252 67.0668 277.949 69.2599 280.012 71.9949C282.075 74.7299 283.443 77.9249 283.998 81.3053C284.552 84.6857 284.278 88.1503 283.197 91.401C282.117 94.6518 280.263 97.5915 277.795 99.9674C275.9 96.7002 273.076 94.0704 269.682 92.4125C271.677 91.0804 273.206 89.1601 274.058 86.9185C274.911 84.6769 275.043 82.2255 274.437 79.9052C273.831 77.5849 272.517 75.511 270.678 73.9719C268.839 72.4329 266.565 71.5051 264.174 71.3178C261.783 71.1304 259.393 71.6927 257.336 72.9264C255.28 74.1602 253.659 76.004 252.699 78.2017C251.739 80.3993 251.488 82.8413 251.98 85.1883C252.473 87.5353 253.685 89.6705 255.447 91.2969C251.837 92.406 248.637 94.5638 246.257 97.4959C243.125 93.3747 241.622 88.2447 242.033 83.0855ZM255.604 82.2203C255.723 80.7038 256.289 79.2565 257.23 78.0616C258.172 76.8667 259.446 75.9778 260.893 75.5073C262.34 75.0367 263.894 75.0057 265.358 75.4181C266.823 75.8306 268.132 76.6679 269.12 77.8243C270.109 78.9807 270.732 80.4042 270.911 81.9148C271.091 83.4253 270.818 84.9552 270.128 86.3107C269.438 87.6663 268.361 88.7868 267.034 89.5306C265.706 90.2743 264.189 90.6078 262.672 90.4889C260.64 90.3234 258.757 89.3609 257.433 87.8117C256.108 86.2625 255.451 84.2524 255.604 82.2203ZM248.9 100.379C250.457 98.3211 252.507 96.6879 254.862 95.6299C257.216 94.5718 259.798 94.123 262.371 94.3246C264.944 94.5263 267.425 95.3719 269.586 96.7837C271.746 98.1956 273.517 100.128 274.735 102.404C270.816 104.986 266.149 106.189 261.47 105.822C256.792 105.456 252.369 103.54 248.9 100.379Z" fill="#1976FE"/>
<path opacity="0.2" d="M35.2745 24.7708C32.1257 25.2273 29.189 26.6251 26.8523 28.7796C24.5157 30.9341 22.889 33.7438 22.1872 36.8376C21.4854 39.9314 21.7415 43.1637 22.9217 46.1076C24.1018 49.0515 26.1505 51.5684 28.7971 53.3259C29.4947 51.269 30.7498 49.4443 32.4234 48.0539C34.097 46.6636 36.1237 45.762 38.2788 45.4489C36.9964 45.6352 35.6878 45.4384 34.5184 44.8833C33.349 44.3281 32.3713 43.4396 31.709 42.3302C31.0468 41.2207 30.7296 39.9401 30.7976 38.6502C30.8657 37.3604 31.3159 36.1193 32.0914 35.0838C32.8669 34.0484 33.9328 33.2651 35.1543 32.833C36.3758 32.4009 37.698 32.3395 38.9538 32.6565C40.2096 32.9734 41.3426 33.6545 42.2094 34.6137C43.0763 35.5728 43.638 36.767 43.8237 38.045C44.0727 39.7588 43.6284 41.5017 42.5885 42.8902C41.5487 44.2787 39.9984 45.1991 38.2788 45.4489C40.4339 45.1357 42.6334 45.4234 44.6334 46.28C46.6335 47.1366 48.3559 48.5287 49.61 50.302C51.6471 47.8641 52.8948 44.8683 53.1885 41.7103C53.4821 38.5523 52.8078 35.3807 51.2546 32.6145C49.7014 29.8483 47.3425 27.6176 44.4893 26.2172C41.6362 24.8167 38.4231 24.3124 35.2745 24.7708Z" fill="#1976FE"/>
<path d="M54.3062 37.5797C53.9006 34.7815 52.8032 32.1287 51.1135 29.8616C49.4238 27.5944 47.1952 25.7846 44.6294 24.5959C42.0636 23.4073 39.2418 22.8774 36.4195 23.0543C33.5972 23.2311 30.8635 24.1091 28.4661 25.6087C26.0688 27.1084 24.0834 29.1823 22.6898 31.6426C21.2962 34.1029 20.5384 36.872 20.4851 39.6989C20.4319 42.5258 21.0847 45.3214 22.3846 47.8324C23.6844 50.3433 25.5903 52.4904 27.9294 54.0791L28.1679 54.2427C31.6386 56.5155 35.8208 57.4409 39.9266 56.8444C44.0325 56.2478 47.7785 54.1706 50.4589 51.0041L50.641 50.7794C52.137 48.9554 53.2357 46.8392 53.8668 44.5662C54.4979 42.2933 54.6476 39.9137 54.3062 37.5797ZM23.2477 42.0921C22.9119 39.787 23.1411 37.4348 23.9156 35.2378C24.6901 33.0409 25.9867 31.0649 27.6939 29.4797C29.4012 27.8946 31.4679 26.7477 33.7164 26.1378C35.9649 25.5279 38.3278 25.4732 40.6021 25.9783C42.8764 26.4835 44.9939 27.5334 46.7726 29.0379C48.5512 30.5423 49.9378 32.4561 50.813 34.6149C51.6882 36.7737 52.0259 39.1127 51.7971 41.4308C51.5682 43.749 50.7797 45.9769 49.4992 47.923C47.7523 46.0404 45.4848 44.7199 42.9851 44.1295C44.108 42.9468 44.8343 41.4436 45.0632 39.8291C45.292 38.2145 45.012 36.5688 44.262 35.1208C43.512 33.6727 42.3293 32.4944 40.8785 31.7496C39.4276 31.0049 37.7807 30.7306 36.1667 30.9651C34.5527 31.1996 33.0519 31.9312 31.873 33.058C30.6941 34.1849 29.8956 35.651 29.5887 37.2526C29.2818 38.8542 29.4817 40.5115 30.1605 41.9942C30.8393 43.4769 31.9634 44.7113 33.3764 45.5255C31.1481 46.8028 29.3501 48.714 28.2112 51.0159C25.5159 48.7524 23.7489 45.5756 23.2477 42.0921ZM32.1184 39.482C31.9697 38.4584 32.1279 37.4136 32.5731 36.4798C33.0182 35.5461 33.7303 34.7652 34.6192 34.2361C35.5082 33.7069 36.5341 33.4532 37.5672 33.507C38.6004 33.5608 39.5943 33.9198 40.4234 34.5384C41.2525 35.1571 41.8795 36.0077 42.2251 36.9826C42.5707 37.9576 42.6194 39.0131 42.365 40.0158C42.1106 41.0184 41.5646 41.9231 40.7959 42.6155C40.0273 43.3079 39.0706 43.7569 38.0468 43.9056C36.6746 44.1006 35.281 43.7449 34.1703 42.9161C33.0596 42.0873 32.3219 40.8528 32.1184 39.482ZM30.397 52.5315C31.121 50.9329 32.2356 49.5421 33.6381 48.4872C35.0407 47.4322 36.6861 46.7471 38.423 46.4947C40.1598 46.2424 41.9322 46.431 43.577 47.0432C45.2218 47.6554 46.6861 48.6715 47.835 49.998C45.6237 52.2986 42.7086 53.7968 39.5505 54.2556C36.3925 54.7144 33.1715 54.1078 30.397 52.5315Z" fill="#1976FE"/>
<defs>
<linearGradient id="paint0_linear_199_13159" x1="103.478" y1="130.983" x2="103.478" y2="133.746" gradientUnits="userSpaceOnUse">
<stop offset="0.275742" stop-color="#0380DC"/>
<stop offset="1" stop-color="#0061D3"/>
</linearGradient>
<linearGradient id="paint1_linear_199_13159" x1="94.0851" y1="125.459" x2="94.0851" y2="128.221" gradientUnits="userSpaceOnUse">
<stop offset="0.275742" stop-color="#0380DC"/>
<stop offset="1" stop-color="#0061D3"/>
</linearGradient>
<linearGradient id="paint2_linear_199_13159" x1="149.335" y1="41.4786" x2="149.335" y2="87.336" gradientUnits="userSpaceOnUse">
<stop stop-color="#0BD25F"/>
<stop offset="1" stop-color="#0AC85A"/>
</linearGradient>
</defs>
</svg>
