<svg width="13" height="14" viewBox="0 0 13 14" fill="none" xmlns="http://www.w3.org/2000/svg">
<path d="M10.5 14C9.91667 14 9.42083 13.7958 9.0125 13.3875C8.60417 12.9792 8.4 12.4833 8.4 11.9C8.4 11.8183 8.40583 11.7336 8.4175 11.6459C8.42917 11.5586 8.44667 11.48 8.47 11.41L3.535 8.54C3.33667 8.715 3.115 8.85197 2.87 8.9509C2.625 9.0503 2.36833 9.1 2.1 9.1C1.51667 9.1 1.02083 8.89583 0.6125 8.4875C0.204167 8.07917 0 7.58333 0 7C0 6.41667 0.204167 5.92083 0.6125 5.5125C1.02083 5.10417 1.51667 4.9 2.1 4.9C2.36833 4.9 2.625 4.94947 2.87 5.0484C3.115 5.1478 3.33667 5.285 3.535 5.46L8.47 2.59C8.44667 2.52 8.42917 2.44137 8.4175 2.3541C8.40583 2.26637 8.4 2.18167 8.4 2.1C8.4 1.51667 8.60417 1.02083 9.0125 0.6125C9.42083 0.204167 9.91667 0 10.5 0C11.0833 0 11.5792 0.204167 11.9875 0.6125C12.3958 1.02083 12.6 1.51667 12.6 2.1C12.6 2.68333 12.3958 3.17917 11.9875 3.5875C11.5792 3.99583 11.0833 4.2 10.5 4.2C10.2317 4.2 9.975 4.1503 9.73 4.0509C9.485 3.95197 9.26333 3.815 9.065 3.64L4.13 6.51C4.15333 6.58 4.17083 6.65863 4.1825 6.7459C4.19417 6.83363 4.2 6.91833 4.2 7C4.2 7.08167 4.19417 7.16613 4.1825 7.2534C4.17083 7.34113 4.15333 7.42 4.13 7.49L9.065 10.36C9.26333 10.185 9.485 10.0478 9.73 9.9484C9.975 9.84947 10.2317 9.8 10.5 9.8C11.0833 9.8 11.5792 10.0042 11.9875 10.4125C12.3958 10.8208 12.6 11.3167 12.6 11.9C12.6 12.4833 12.3958 12.9792 11.9875 13.3875C11.5792 13.7958 11.0833 14 10.5 14ZM10.5 2.8C10.6983 2.8 10.8645 2.73303 10.9984 2.5991C11.1328 2.4647 11.2 2.29833 11.2 2.1C11.2 1.90167 11.1328 1.7353 10.9984 1.6009C10.8645 1.46697 10.6983 1.4 10.5 1.4C10.3017 1.4 10.1355 1.46697 10.0016 1.6009C9.8672 1.7353 9.8 1.90167 9.8 2.1C9.8 2.29833 9.8672 2.4647 10.0016 2.5991C10.1355 2.73303 10.3017 2.8 10.5 2.8ZM2.1 7.7C2.29833 7.7 2.4647 7.6328 2.5991 7.4984C2.73303 7.36447 2.8 7.19833 2.8 7C2.8 6.80167 2.73303 6.6353 2.5991 6.5009C2.4647 6.36697 2.29833 6.3 2.1 6.3C1.90167 6.3 1.7353 6.36697 1.6009 6.5009C1.46697 6.6353 1.4 6.80167 1.4 7C1.4 7.19833 1.46697 7.36447 1.6009 7.4984C1.7353 7.6328 1.90167 7.7 2.1 7.7ZM10.5 12.6C10.6983 12.6 10.8645 12.5328 10.9984 12.3984C11.1328 12.2645 11.2 12.0983 11.2 11.9C11.2 11.7017 11.1328 11.5355 10.9984 11.4016C10.8645 11.2672 10.6983 11.2 10.5 11.2C10.3017 11.2 10.1355 11.2672 10.0016 11.4016C9.8672 11.5355 9.8 11.7017 9.8 11.9C9.8 12.0983 9.8672 12.2645 10.0016 12.3984C10.1355 12.5328 10.3017 12.6 10.5 12.6Z" fill="#1976FE"/>
</svg>
