<svg width="20" height="24" viewBox="0 0 20 24" fill="none" xmlns="http://www.w3.org/2000/svg">
<path d="M9.22431 1.38861C9.38757 1.38861 9.4692 1.47024 9.63247 1.55187C8.65289 1.96002 7.67332 3.02123 7.18353 5.3069L5.38765 5.79668C5.95907 4.16406 7.1019 1.38861 9.22431 1.38861ZM10.1223 2.20492C10.2855 2.6947 10.4488 3.26612 10.4488 4.16406C10.4488 4.24569 10.4488 4.24569 10.4488 4.32733L8.08148 4.98037C8.57126 3.26612 9.38757 2.53144 10.1223 2.20492ZM12.2447 3.67428L11.1835 4.0008C11.1835 3.91917 11.1835 3.83754 11.1835 3.75591C11.1835 3.02123 11.1018 2.44981 10.9386 1.96002C11.51 2.12329 11.9998 2.85797 12.2447 3.67428ZM17.5507 4.98037C17.5507 4.89874 17.469 4.81711 17.3874 4.81711C17.2242 4.81711 15.5099 4.65385 15.5099 4.65385C15.5099 4.65385 14.2854 3.42938 14.1222 3.34775C13.9589 3.18449 13.714 3.26612 13.6324 3.26612C13.6324 3.26612 13.3875 3.34775 12.9793 3.51101C12.5712 2.36818 11.8365 1.30697 10.612 1.30697H10.5304C10.2039 0.817188 9.7141 0.653926 9.30594 0.653926C6.36722 0.572295 4.9795 4.24569 4.48971 6.12321C3.83666 6.28647 3.18361 6.53136 2.44893 6.77626C1.79588 6.93952 1.79588 7.02115 1.71425 7.59257C1.63262 8.00072 0 20.8984 0 20.8984L12.9793 23.3474L19.9996 21.7964C19.9996 21.7964 17.5507 5.14364 17.5507 4.98037Z" fill="#8DB849"/>
<path d="M17.3069 4.81723C17.2253 4.81723 15.511 4.65396 15.511 4.65396C15.511 4.65396 14.2866 3.4295 14.1233 3.34787C14.0417 3.26624 14.0417 3.26624 13.96 3.26624L12.9805 23.3475L20.0007 21.7965C20.0007 21.7965 17.5518 5.14375 17.5518 4.98049C17.5518 4.89886 17.3885 4.81723 17.3069 4.81723Z" fill="#5A863E"/>
<path d="M10.6112 8.73539L9.71328 11.3476C9.71328 11.3476 8.9786 10.9394 7.99903 10.9394C6.6113 10.9394 6.52967 11.7557 6.52967 12.0006C6.52967 13.1435 9.63165 13.6333 9.63165 16.4087C9.63165 18.6127 8.24392 20.0005 6.36641 20.0005C4.16237 20.0005 3.01953 18.6127 3.01953 18.6127L3.59095 16.6536C3.59095 16.6536 4.73378 17.6332 5.71336 17.6332C6.36641 17.6332 6.6113 17.1434 6.6113 16.7352C6.6113 15.1842 4.08074 15.1026 4.08074 12.572C4.08074 10.4496 5.63173 8.40887 8.65208 8.40887C10.0398 8.32723 10.6112 8.73539 10.6112 8.73539Z" fill="#FFFFFE"/>
</svg>
