<svg width="16" height="16" viewBox="0 0 16 16" fill="none" xmlns="http://www.w3.org/2000/svg">
<path d="M11.792 1.5H4.20866C3.84951 1.5 3.50507 1.64267 3.25112 1.89663C2.99716 2.15058 2.85449 2.49502 2.85449 2.85417V13.1458C2.85449 13.3237 2.88952 13.4998 2.95757 13.6641C3.02563 13.8283 3.12537 13.9776 3.25112 14.1034C3.37686 14.2291 3.52615 14.3289 3.69044 14.3969C3.85474 14.465 4.03083 14.5 4.20866 14.5H11.792C11.9698 14.5 12.1459 14.465 12.3102 14.3969C12.4745 14.3289 12.6238 14.2291 12.7495 14.1034C12.8753 13.9776 12.975 13.8283 13.0431 13.6641C13.1111 13.4998 13.1462 13.3237 13.1462 13.1458V2.85417C13.1462 2.49502 13.0035 2.15058 12.7495 1.89663C12.4956 1.64267 12.1511 1.5 11.792 1.5V1.5ZM8.00033 13.9583C7.55074 13.9583 7.18783 13.5954 7.18783 13.1458C7.18783 12.6962 7.55074 12.3333 8.00033 12.3333C8.44991 12.3333 8.81283 12.6962 8.81283 13.1458C8.81283 13.5954 8.44991 13.9583 8.00033 13.9583ZM12.0628 11.7917H3.93783V3.125H12.0628V11.7917Z" fill="#666666"/>
</svg>
