<?xml version="1.0" encoding="utf-8"?>
<!-- Generator: Adobe Illustrator 24.2.0, SVG Export Plug-In . SVG Version: 6.00 Build 0)  -->
<svg version="1.1" id="Layer_1" xmlns="http://www.w3.org/2000/svg" xmlns:xlink="http://www.w3.org/1999/xlink" x="0px" y="0px"
	 viewBox="0 0 500 500" style="enable-background:new 0 0 500 500;" xml:space="preserve">
<style type="text/css">
	.st0{fill:none;stroke:#002E60;stroke-width:23;stroke-linejoin:bevel;stroke-miterlimit:10;}
	.st1{fill:none;stroke:#002E60;stroke-width:23;stroke-miterlimit:10;}
	.st2{fill:none;stroke:#002E60;stroke-width:23;stroke-linejoin:round;stroke-miterlimit:10;}
	.st3{fill:#FFFFFF;}
</style>
<image style="display:none;overflow:visible;" width="100" height="100" xlink:href="C:\Users\DS-1\Downloads\icons8-teamwork-100.png"  transform="matrix(5 0 0 5 0 0)">
</image>
<g>
	<g>
		<polyline class="st0" points="102.8,48.9 150.9,78.9 67.8,212.3 19.7,182.4 		"/>
		<path class="st1" d="M213.2,172.8l102.8,64c9.5,5.9,12.7,17.8,7.3,26.5v0c-5.4,8.7-17.5,11-27,5.1l-94.6-58.9"/>
		<path class="st1" d="M188.4,245.9l54.5,33.2c9.5,5.9,12.7,17.8,7.3,26.5l0,0c-5.4,8.7-17.5,11-27,5.1l-112.9-70.3
			c0,0-23.6-21.7-29.3-49.4"/>
		<path class="st2" d="M250,107.9l-30.1-18.7c0,0-40.3-4.8-57.4,12c-11.7-7.3-18.4-11.4-18.4-11.4"/>
	</g>
	<g>
		<polyline class="st0" points="397.2,50 349.1,79.9 432.2,213.4 480.3,183.5 		"/>
		<path class="st1" d="M297.8,210.9l-84.5,52.6c-9.5,5.9-12.7,17.8-7.3,26.5l0,0c5.4,8.7,17.5,11,27,5.1l96.4-60"/>
		<path class="st1" d="M327.8,236.1l-70.7,44.1c-9.5,5.9-12.7,17.8-7.3,26.5l0,0c5.4,8.7,17.5,11,27,5.1l112.9-70.3
			c0,0,23.6-21.7,29.3-49.4"/>
		<path class="st2" d="M300.7,121.3l-52.4,32.6c-9.5,5.9-21.6,3.6-27-5.1l0,0c-5.4-8.7-2.2-20.6,7.3-26.5l51.5-32.1
			c0,0,40.3-4.8,57.4,12c11.7-7.3,18.4-11.4,18.4-11.4"/>
	</g>
	<polygon class="st3" points="200.2,394.4 195.1,373 156.5,328.2 159.9,254.4 195.1,248.2 200.2,173 232.3,173 251,150.6 
		274.3,164.5 293.2,161.9 313.2,188.5 345.3,199.7 345.3,345.7 328.7,394.4 	"/>
	<g>
		<polyline class="st0" points="185.5,451.1 185.5,394.4 342.8,394.4 342.8,451.1 		"/>
		<path class="st1" d="M232.3,291.9V170.8c0-11.2,8.3-20.2,18.6-20.2h0c10.3,0,18.6,9,18.6,20.2v111.4"/>
		<path class="st1" d="M195.1,312.3V191.2c0-11.2,8.3-20.2,18.6-20.2h0c10.3,0,18.6,9,18.6,20.2v99.5"/>
		<path class="st1" d="M269.6,281.7v-99.5c0-11.2,8.3-20.2,18.6-20.2h0c10.3,0,18.6,9,18.6,20.2v113.6"/>
		<path class="st1" d="M306.9,293.8v-83.3c0-11.2,8.3-20.2,18.6-20.2h0c10.3,0,18.6,9,18.6,20.2v133c0,0-5.9,31.5-26.5,51"/>
		<path class="st2" d="M195.1,331.5v-61.7c0-11.2-8.3-20.2-18.6-20.2h0c-10.3,0-18.6,9-18.6,20.2v60.6c0,0,17.2,36.8,40.5,42.4
			c0,13.8,0,21.7,0,21.7"/>
	</g>
</g>
</svg>
