<svg width="32" height="32" viewBox="0 0 32 32" fill="none" xmlns="http://www.w3.org/2000/svg">
<circle cx="16" cy="16" r="16" fill="url(#paint0_linear_3516_8477)"/>
<path fill-rule="evenodd" clip-rule="evenodd" d="M10.3988 8.8001C9.51517 8.8001 8.79883 9.51645 8.79883 10.4001V21.6001C8.79883 22.4837 9.51517 23.2001 10.3988 23.2001H21.5988C22.4825 23.2001 23.1988 22.4837 23.1988 21.6001V10.4001C23.1988 9.51645 22.4825 8.8001 21.5988 8.8001H10.3988ZM12.7988 16.8001C12.7988 16.3583 12.4407 16.0001 11.9988 16.0001C11.557 16.0001 11.1988 16.3583 11.1988 16.8001V20.0001C11.1988 20.4419 11.557 20.8001 11.9988 20.8001C12.4407 20.8001 12.7988 20.4419 12.7988 20.0001V16.8001ZM15.9988 13.6001C16.4407 13.6001 16.7988 13.9583 16.7988 14.4001V20.0001C16.7988 20.4419 16.4407 20.8001 15.9988 20.8001C15.557 20.8001 15.1988 20.4419 15.1988 20.0001V14.4001C15.1988 13.9583 15.557 13.6001 15.9988 13.6001ZM20.7988 12.0001C20.7988 11.5583 20.4407 11.2001 19.9988 11.2001C19.557 11.2001 19.1988 11.5583 19.1988 12.0001V20.0001C19.1988 20.4419 19.557 20.8001 19.9988 20.8001C20.4407 20.8001 20.7988 20.4419 20.7988 20.0001V12.0001Z" fill="white"/>
<defs>
<linearGradient id="paint0_linear_3516_8477" x1="0" y1="16" x2="32" y2="16" gradientUnits="userSpaceOnUse">
<stop offset="0.390625" stop-color="#3D8BFD"/>
<stop offset="1" stop-color="#1273FF"/>
</linearGradient>
</defs>
</svg>
