<svg width="32" height="32" viewBox="0 0 32 32" fill="none" xmlns="http://www.w3.org/2000/svg">
<circle cx="16" cy="16" r="16" fill="#FF947A"/>
<path fill-rule="evenodd" clip-rule="evenodd" d="M9.59961 11.2001C9.59961 9.43279 11.0323 8.0001 12.7996 8.0001H17.5996V11.2001C17.5996 12.9674 19.0323 14.4001 20.7996 14.4001H22.3996V20.8001C22.3996 22.5674 20.9669 24.0001 19.1996 24.0001H12.7996C11.0323 24.0001 9.59961 22.5674 9.59961 20.8001V11.2001ZM12.7996 15.2001C12.3578 15.2001 11.9996 15.5583 11.9996 16.0001C11.9996 16.4419 12.3578 16.8001 12.7996 16.8001H14.3996C14.8414 16.8001 15.1996 16.4419 15.1996 16.0001C15.1996 15.5583 14.8414 15.2001 14.3996 15.2001H12.7996ZM12.7996 18.4001C12.3578 18.4001 11.9996 18.7583 11.9996 19.2001C11.9996 19.6419 12.3578 20.0001 12.7996 20.0001H15.9996C16.4414 20.0001 16.7996 19.6419 16.7996 19.2001C16.7996 18.7583 16.4414 18.4001 15.9996 18.4001H12.7996ZM19.745 9.75913L19.6403 11.3304C19.6081 11.8133 20.0088 12.214 20.4917 12.1818L22.063 12.0771C22.7488 12.0314 23.0615 11.1992 22.5755 10.7132L21.109 9.24666C20.6229 8.76064 19.7908 9.07332 19.745 9.75913Z" fill="white"/>
</svg>
