<svg width="32" height="32" viewBox="0 0 32 32" fill="none" xmlns="http://www.w3.org/2000/svg">
<circle cx="16" cy="16" r="16" fill="#BF83FF"/>
<path fill-rule="evenodd" clip-rule="evenodd" d="M17.5988 12.8001C17.5988 14.5674 16.1661 16.0001 14.3988 16.0001C12.6315 16.0001 11.1988 14.5674 11.1988 12.8001C11.1988 11.0328 12.6315 9.60011 14.3988 9.60011C16.1661 9.60011 17.5988 11.0328 17.5988 12.8001ZM14.3988 16.8001C11.306 16.8001 8.79883 18.591 8.79883 20.8001C8.79883 21.6838 9.51517 22.4001 10.3988 22.4001H18.3988C19.2825 22.4001 19.9988 21.6838 19.9988 20.8001C19.9988 18.591 17.4916 16.8001 14.3988 16.8001ZM20.799 11.2C21.2409 11.2 21.599 11.5582 21.599 12V12.8H22.399C22.8409 12.8 23.199 13.1582 23.199 13.6C23.199 14.0418 22.8409 14.4 22.399 14.4H21.599V15.2C21.599 15.6418 21.2409 16 20.799 16C20.3572 16 19.999 15.6418 19.999 15.2V14.4H19.199C18.7572 14.4 18.399 14.0418 18.399 13.6C18.399 13.1582 18.7572 12.8 19.199 12.8H19.999V12C19.999 11.5582 20.3572 11.2 20.799 11.2Z" fill="white"/>
</svg>
