<svg width="32" height="32" viewBox="0 0 32 32" fill="none" xmlns="http://www.w3.org/2000/svg">
<circle cx="16" cy="16" r="16" fill="#3CD856"/>
<path fill-rule="evenodd" clip-rule="evenodd" d="M19.7001 10.6124L17.0603 10.9895C16.657 11.0471 16.3274 11.2393 16.0922 11.505L9.93261 17.6646C9.30777 18.2894 9.30775 19.3024 9.93261 19.9273L12.1954 22.19C12.8202 22.8149 13.8333 22.8149 14.4581 22.19L20.6176 16.0305C20.8833 15.7952 21.0756 15.4657 21.1332 15.0624L21.5103 12.4225C21.6612 11.3666 20.756 10.4615 19.7001 10.6124ZM17.8522 14.2705C18.1646 14.5829 18.6712 14.5829 18.9836 14.2705C19.296 13.958 19.296 13.4515 18.9836 13.1391C18.6712 12.8267 18.1646 12.8267 17.8522 13.1391C17.5398 13.4515 17.5398 13.9581 17.8522 14.2705Z" fill="white"/>
</svg>
