<?xml version="1.0" encoding="utf-8"?>
<!-- Generator: Adobe Illustrator 24.2.0, SVG Export Plug-In . SVG Version: 6.00 Build 0)  -->
<svg version="1.1" id="Layer_1" xmlns="http://www.w3.org/2000/svg" xmlns:xlink="http://www.w3.org/1999/xlink" x="0px" y="0px"
	 viewBox="0 0 500 500" style="enable-background:new 0 0 500 500;" xml:space="preserve">
<style type="text/css">
	.st0{fill:#002E60;}
</style>
<g>
	<path class="st0" d="M216,309.9c-7.6,0-13.8-6.2-13.8-13.8V183.3c0-7.6,6.2-13.8,13.8-13.8h52.6c7.6,0,13.8,6.2,13.8,13.8V296
		c0,7.6-6.2,13.8-13.8,13.8H216z"/>
	<polygon class="st0" points="242.9,94.8 242.9,94.8 167.6,183.7 317,183.7 	"/>
	<path class="st0" d="M434.4,297.8H288.7c-0.9,8.4-6.2,18.4-20,18.4H216c-13.8,0-19.2-10-20-18.4H61.6c-7.5,0-13.6,6.1-13.6,13.6
		v80.2c0,7.5,6.1,13.6,13.6,13.6h372.8c7.5,0,13.6-6.1,13.6-13.6v-80.2C448,303.8,441.9,297.8,434.4,297.8z M337.5,351.5
		c-9.1,0-16.4-7.3-16.4-16.4c0-9.1,7.3-16.4,16.4-16.4c9.1,0,16.4,7.3,16.4,16.4C353.9,344.1,346.6,351.5,337.5,351.5z M397.2,351.5
		c-9.1,0-16.4-7.3-16.4-16.4c0-9.1,7.3-16.4,16.4-16.4c9.1,0,16.4,7.3,16.4,16.4C413.6,344.1,406.2,351.5,397.2,351.5z"/>
</g>
</svg>
