<svg width="16" height="12" viewBox="0 0 16 12" fill="none" xmlns="http://www.w3.org/2000/svg">
<path fill-rule="evenodd" clip-rule="evenodd" d="M0 0.181824H16V1.05095H0V0.181824ZM0 1.92006H16V2.78919H0V1.92006ZM0 3.65608H16V4.5274H0V3.65608ZM0 5.39432H16V6.26345H0V5.39432ZM0 7.13255H16V8.00168H0V7.13255ZM0 8.86858H16V9.73771H0V8.86858ZM0 10.6068H16V11.4759H0V10.6068Z" fill="#BD3D44"/>
<path fill-rule="evenodd" clip-rule="evenodd" d="M0 1.05095H16V1.92006H0V1.05095ZM0 2.78919H16V3.65608H0V2.78919ZM0 4.5252H16V5.39432H0V4.5252ZM0 6.26345H16V7.13255H0V6.26345ZM0 8.00168H16V8.87078H0V8.00168ZM0 9.73771H16V10.6068H0V9.73771Z" fill="white"/>
<path fill-rule="evenodd" clip-rule="evenodd" d="M0 0.181824H8.95953V6.26345H0V0.181824Z" fill="#192F5D"/>
<path fill-rule="evenodd" clip-rule="evenodd" d="M0.74604 0.442118L0.828935 0.682518H1.09145L0.879581 0.83033L0.960191 1.07296L0.74604 0.922965L0.534198 1.07075L0.614784 0.83033L0.400658 0.682518H0.667763L0.74604 0.442118ZM2.24045 0.442118L2.32104 0.682518H2.58584L2.37169 0.83033L2.4523 1.07296L2.24045 0.922965L2.0263 1.07075L2.10689 0.83033L1.89505 0.682518H2.15756L2.24045 0.442118ZM3.73256 0.442118L3.81545 0.682541H4.07566L3.86382 0.830353L3.94438 1.07299L3.73025 0.922988L3.51841 1.07078L3.59899 0.830353L3.38484 0.682541H3.64966L3.73256 0.442118ZM5.22697 0.442118L5.30754 0.682541H5.57236L5.35821 0.830353L5.4411 1.07299L5.22695 0.922988L5.01282 1.07078L5.09572 0.830353L4.88157 0.682541H5.14408L5.22697 0.442118ZM6.71908 0.442118L6.80197 0.682541H7.06446L6.85262 0.830353L6.93321 1.07299L6.71906 0.922988L6.50721 1.07078L6.58782 0.830353L6.37598 0.682541H6.63847L6.71908 0.442118ZM8.21347 0.442118L8.29405 0.682541H8.55888L8.34472 0.830353L8.42762 1.07299L8.21347 0.922988L7.99932 1.07078L8.08221 0.830353L7.86809 0.682541H8.13288L8.21347 0.442118ZM1.4944 1.05089L1.57499 1.29136H1.83978L1.62563 1.43913L1.70394 1.6796L1.49669 1.53179L1.28256 1.67958L1.35853 1.43915L1.1513 1.29134H1.41382L1.4944 1.05089ZM2.98651 1.05089L3.0694 1.29136H3.33189L3.11774 1.43913L3.20066 1.6796L2.98648 1.53179L2.77236 1.67958L2.85525 1.43915L2.6411 1.29134H2.9059L2.98651 1.05089ZM4.48092 1.05089L4.56148 1.29136H4.8263L4.61215 1.43913L4.69274 1.6796L4.4809 1.53179L4.26677 1.67958L4.34736 1.43918L4.13551 1.29136H4.39803L4.48092 1.05089ZM5.97303 1.05089L6.05592 1.29136H6.31841L6.10426 1.43913L6.18715 1.6796L5.973 1.53179L5.76116 1.67958L5.84177 1.43915L5.62762 1.29134H5.89472L5.97303 1.05089ZM7.46742 1.05089L7.548 1.29136H7.81282L7.59867 1.43913L7.67926 1.6796L7.46742 1.53179L7.25327 1.67958L7.33388 1.43915L7.12203 1.29134H7.38452L7.46742 1.05089ZM0.74604 1.65758L0.828935 1.90242H1.09145L0.879581 2.05021L0.960191 2.29066L0.74604 2.14066L0.534198 2.29066L0.614784 2.048L0.400658 1.90024H0.667763L0.74604 1.65758ZM2.24045 1.65758L2.32104 1.90016H2.58584L2.37169 2.04795L2.4523 2.28842L2.24045 2.1384L2.0263 2.2884L2.10689 2.04576L1.89505 1.89798H2.15756L2.24045 1.65758ZM3.73256 1.65758L3.81545 1.90021H4.07566L3.86382 2.048L3.94438 2.28847L3.73025 2.13845L3.51841 2.28845L3.59899 2.04581L3.38484 1.89802H3.64966L3.73256 1.65758ZM5.22697 1.65758L5.30754 1.90021H5.57236L5.35821 2.048L5.4411 2.28847L5.22695 2.13845L5.01282 2.28845L5.09572 2.04581L4.88157 1.89802H5.14408L5.22697 1.65758ZM6.71908 1.65758L6.80197 1.90021H7.06446L6.85262 2.04798L6.93321 2.28845L6.71906 2.13842L6.50721 2.28842L6.58782 2.04579L6.37598 1.898H6.63847L6.71908 1.65758ZM8.21347 1.65758L8.29405 1.90021H8.55888L8.34472 2.048L8.42762 2.28847L8.21347 2.13845L7.99932 2.28845L8.08221 2.04581L7.86809 1.89802H8.13288L8.21347 1.65758ZM1.4944 2.26638L1.57499 2.50682H1.83978L1.62563 2.65459L1.70624 2.89725L1.4944 2.74725L1.28025 2.89504L1.36084 2.65461L1.14899 2.50682H1.41153L1.4944 2.26638ZM2.98651 2.26638L3.0694 2.50682H3.33189L3.11774 2.65459L3.20066 2.89725L2.98648 2.74725L2.77236 2.89504L2.85525 2.65461L2.6411 2.50682H2.9059L2.98651 2.26638ZM4.48092 2.26638L4.56148 2.50682H4.8263L4.61215 2.65459L4.69274 2.89725L4.4809 2.74725L4.26677 2.89504L4.34736 2.65461L4.13551 2.50682H4.39803L4.48092 2.26638ZM5.97303 2.26638L6.05592 2.50682H6.31841L6.10657 2.65459L6.18715 2.89725L5.973 2.74725L5.76116 2.89504L5.84177 2.65461L5.62762 2.50682H5.89472L5.97303 2.26638ZM7.46742 2.26638L7.548 2.50682H7.81282L7.59867 2.65459L7.67926 2.89725L7.46742 2.74725L7.25327 2.89504L7.33388 2.65461L7.12203 2.50682H7.38452L7.46742 2.26638ZM0.74604 2.8752L0.828935 3.11565H1.09145L0.879581 3.26341L0.960191 3.50607L0.74604 3.35607L0.534198 3.50386L0.614784 3.26344L0.400658 3.11565H0.667763L0.74604 2.8752ZM2.24045 2.8752L2.32104 3.11565H2.58584L2.37169 3.26341L2.4523 3.50388L2.24045 3.35607L2.0263 3.50386L2.10689 3.26344L1.89505 3.11565H2.15756L2.24045 2.8752ZM3.73256 2.8752L3.81545 3.11565H4.07566L3.86382 3.26341L3.94438 3.50607L3.73025 3.35607L3.51841 3.50386L3.59899 3.26344L3.38484 3.11565H3.64966L3.73256 2.8752ZM5.22697 2.8752L5.30754 3.11565H5.57236L5.35821 3.26341L5.4411 3.50607L5.22695 3.35607L5.01282 3.50386L5.09572 3.26344L4.88157 3.11565H5.14408L5.22697 2.8752ZM6.71908 2.8752L6.80197 3.11565H7.06446L6.85262 3.26341L6.93321 3.50607L6.71906 3.35607L6.50721 3.50386L6.58782 3.26344L6.37598 3.11565H6.63847L6.71908 2.8752ZM8.21347 2.8752L8.29405 3.11565H8.55888L8.34472 3.26341L8.42762 3.50607L8.21347 3.35607L7.99932 3.50386L8.08221 3.26344L7.86809 3.11565H8.13288L8.21347 2.8752ZM1.4944 3.48402L1.57499 3.72447H1.83978L1.62563 3.87224L1.70624 4.11271L1.4944 3.96271L1.28025 4.11271L1.36084 3.87005L1.14899 3.72226H1.41153L1.4944 3.48402ZM2.98651 3.48402L3.0694 3.72447H3.33189L3.11774 3.87224L3.20066 4.11271L2.98648 3.96271L2.77236 4.11271L2.85525 3.87005L2.6411 3.72226H2.9059L2.98651 3.48402ZM4.48092 3.48402L4.56148 3.72447H4.8263L4.61215 3.87224L4.69274 4.11271L4.4809 3.96271L4.26677 4.11271L4.34736 3.87005L4.13551 3.72226H4.39803L4.48092 3.48402ZM5.97303 3.48402L6.05592 3.72447H6.31841L6.10657 3.87224L6.18715 4.11271L5.973 3.96271L5.76116 4.11271L5.84177 3.87005L5.62762 3.72226H5.89472L5.97303 3.48402ZM7.46742 3.48402L7.548 3.72447H7.81282L7.59867 3.87224L7.67926 4.11271L7.46742 3.96271L7.25327 4.11271L7.33388 3.87005L7.12203 3.72226H7.38452L7.46742 3.48402ZM0.74604 4.09064L0.828935 4.33329H1.09145L0.879581 4.48106L0.960191 4.71932L0.74604 4.57153L0.534198 4.71929L0.614784 4.47887L0.400658 4.33108H0.667763L0.74604 4.09064ZM2.24045 4.09064L2.32104 4.33329H2.58584L2.37169 4.48106L2.45461 4.71932L2.24043 4.57153L2.0263 4.71929L2.1092 4.47887L1.89505 4.33108H2.15756L2.24045 4.09064ZM3.73256 4.09064L3.81545 4.33329H4.07566L3.86382 4.48106L3.94438 4.71932L3.73025 4.57153L3.51841 4.71929L3.59899 4.47887L3.38484 4.33108H3.64966L3.73256 4.09064ZM5.22697 4.09064L5.30754 4.33329H5.57236L5.35821 4.48106L5.4411 4.71932L5.22695 4.57153L5.01282 4.71929L5.09572 4.47887L4.88157 4.33108H5.14408L5.22697 4.09064ZM6.71908 4.09064L6.80197 4.33329H7.06446L6.85262 4.48106L6.93321 4.71932L6.71906 4.57153L6.50721 4.71929L6.58782 4.47887L6.37598 4.33108H6.63847L6.71908 4.09064ZM8.21347 4.09064L8.29405 4.33329H8.55888L8.34472 4.48106L8.42762 4.71932L8.21347 4.57153L7.99932 4.71929L8.08221 4.47887L7.86809 4.33108H8.13288L8.21347 4.09064ZM1.4944 4.69946L1.57499 4.93991H1.83978L1.62563 5.08769L1.70624 5.33035L1.4944 5.18035L1.28025 5.32812L1.36084 5.08769L1.14899 4.93991H1.41153L1.4944 4.69946ZM2.98651 4.69946L3.0694 4.93991H3.33189L3.11774 5.08769L3.20066 5.33035L2.98648 5.18035L2.77236 5.32812L2.85525 5.08769L2.6411 4.93991H2.9059L2.98651 4.69946ZM4.48092 4.69946L4.56148 4.93991H4.8263L4.61215 5.08769L4.69274 5.33035L4.4809 5.18035L4.26677 5.32812L4.34736 5.08769L4.13551 4.93991H4.39803L4.48092 4.69946ZM5.97303 4.69946L6.05592 4.93991H6.31841L6.10657 5.08769L6.18715 5.33035L5.973 5.18035L5.76116 5.32812L5.84177 5.08769L5.62762 4.93991H5.89472L5.97303 4.69946ZM7.46742 4.69946L7.548 4.93991H7.81282L7.59867 5.08769L7.67926 5.33035L7.46742 5.18035L7.25327 5.32812L7.33388 5.08769L7.12203 4.93991H7.38452L7.46742 4.69946ZM0.74604 5.30828L0.828935 5.54873H1.09145L0.879581 5.69652L0.960191 5.93696L0.74604 5.78918L0.534198 5.93694L0.614784 5.69431L0.400658 5.54652H0.667763L0.74604 5.30828ZM2.24045 5.30828L2.32104 5.54873H2.58584L2.37169 5.69652L2.45461 5.93696L2.24043 5.78918L2.0263 5.93694L2.1092 5.69431L1.89505 5.54652H2.15756L2.24045 5.30828ZM3.73256 5.30828L3.81545 5.54873H4.07566L3.86841 5.69652L3.94899 5.93696L3.73484 5.78918L3.523 5.93694L3.60361 5.69431L3.38946 5.54652H3.65426L3.73256 5.30828ZM5.22697 5.30828L5.30754 5.54873H5.57236L5.35821 5.69652L5.4411 5.93696L5.22695 5.78918L5.01282 5.93694L5.09572 5.69431L4.88157 5.54652H5.14408L5.22697 5.30828ZM6.71908 5.30828L6.80197 5.54873H7.06446L6.85262 5.69652L6.93321 5.93696L6.71906 5.78918L6.50721 5.93694L6.58782 5.69431L6.37598 5.54652H6.63847L6.71908 5.30828ZM8.21347 5.30828L8.29405 5.54873H8.55888L8.34472 5.69652L8.42762 5.93696L8.21347 5.78918L7.99932 5.93694L8.08221 5.69431L7.86809 5.54652H8.13288L8.21347 5.30828Z" fill="white"/>
</svg>
