<svg width="20" height="18" viewBox="0 0 20 18" fill="none" xmlns="http://www.w3.org/2000/svg">
<path d="M7.00434 2.26641C7.19476 1.76657 7.45657 1.30641 7.84533 0.93352C9.40037 -0.581844 11.9709 -0.20102 13.0261 1.7031C13.8195 3.14706 14.6605 4.55929 15.4777 5.98738L19.5716 13.112C20.7061 15.1034 19.4763 17.6184 17.2231 17.9596C15.8426 18.1658 14.5494 17.5311 13.8354 16.2934L10.2334 10.0416C10.2096 9.99397 10.1779 9.9543 10.1461 9.91463C10.0192 9.81149 9.96367 9.66075 9.88433 9.52588L7.23443 4.93218C6.92501 4.39268 6.7822 3.80557 6.79806 3.18673C6.82187 2.86938 6.86153 2.55202 7.00434 2.26641Z" fill="#3C8BD9"/>
<path d="M7.00349 2.26648C6.93208 2.5521 6.86861 2.83772 6.85274 3.1392C6.82894 3.80565 6.99555 4.42449 7.32878 5.00366L9.93901 9.51801C10.0183 9.65289 10.0818 9.78777 10.1612 9.91471L8.72513 12.3821L6.71787 15.8413C6.68613 15.8413 6.6782 15.8254 6.67027 15.8016C6.66233 15.7381 6.68613 15.6826 6.702 15.6191C7.02729 14.4291 6.75754 13.3739 5.94035 12.4694C5.44052 11.922 4.80581 11.6125 4.0759 11.5094C3.12384 11.3745 2.28285 11.6205 1.52913 12.2155C1.39426 12.3187 1.30699 12.4694 1.14831 12.5487C1.11658 12.5487 1.10071 12.5329 1.09277 12.5091L2.22731 10.5335L6.94795 2.35375C6.96382 2.32202 6.98762 2.29821 7.00349 2.26648Z" fill="#FABC04"/>
<path d="M1.12475 12.533L1.57698 12.1283C3.5049 10.605 6.40076 11.7078 6.82125 14.1197C6.92439 14.6989 6.86885 15.2543 6.69431 15.8096C6.68637 15.8572 6.67844 15.8969 6.66257 15.9445C6.59117 16.0715 6.5277 16.2063 6.44836 16.3333C5.74225 17.4996 4.70291 18.0787 3.33829 17.9915C1.77532 17.8804 0.545578 16.7062 0.331364 15.1511C0.228224 14.3974 0.378967 13.6913 0.767726 13.0407C0.847064 12.8979 0.94227 12.771 1.02954 12.6282C1.06921 12.5964 1.05334 12.533 1.12475 12.533Z" fill="#34A852"/>
<path d="M1.12561 12.5326C1.09388 12.5643 1.09388 12.6199 1.03834 12.6278C1.03041 12.5723 1.06214 12.5405 1.09388 12.5009L1.12561 12.5326Z" fill="#FABC04"/>
<path d="M6.66158 15.9443C6.62985 15.8888 6.66158 15.8491 6.69332 15.8094L6.72505 15.8412L6.66158 15.9443Z" fill="#E1C025"/>
</svg>
