<svg width="26" height="18" viewBox="0 0 26 18" fill="none" xmlns="http://www.w3.org/2000/svg">
<path fill-rule="evenodd" clip-rule="evenodd" d="M25.4637 2.81048C25.1691 1.70588 24.2977 0.834601 23.1891 0.535963C21.1846 0 13.1419 0 13.1419 0C13.1419 0 5.1033 0 3.09466 0.535963C1.99017 0.830478 1.11878 1.70187 0.820143 2.81048C0.28418 4.815 0.28418 8.99995 0.28418 8.99995C0.28418 8.99995 0.28418 13.185 0.820143 15.1895C1.11466 16.2941 1.98605 17.1654 3.09466 17.464C5.1033 18 13.1419 18 13.1419 18C13.1419 18 21.1846 18 23.1891 17.464C24.2937 17.1695 25.165 16.2981 25.4637 15.1895C25.9996 13.185 25.9996 9.00005 25.9996 9.00005C25.9996 9.00005 25.9996 4.815 25.4637 2.81048Z" fill="#FF0000"/>
<path fill-rule="evenodd" clip-rule="evenodd" d="M10.5732 12.8578L17.2536 9L10.5732 5.14233V12.8578Z" fill="white"/>
</svg>
