<svg width="26" height="26" viewBox="0 0 26 26" fill="none" xmlns="http://www.w3.org/2000/svg">
  <path d="M13 18C13.2833 18 13.521 17.904 13.713 17.712C13.9043 17.5207 14 17.2833 14 17V14H17.025C17.3083 14 17.5417 13.904 17.725 13.712C17.9083 13.5207 18 13.2833 18 13C18 12.7167 17.904 12.479 17.712 12.287C17.5207 12.0957 17.2833 12 17 12H14V8.975C14 8.69167 13.9043 8.45833 13.713 8.275C13.521 8.09167 13.2833 8 13 8C12.7167 8 12.4793 8.09567 12.288 8.287C12.096 8.479 12 8.71667 12 9V12H8.975C8.69167 12 8.45833 12.0957 8.275 12.287C8.09167 12.479 8 12.7167 8 13C8 13.2833 8.09567 13.5207 8.287 13.712C8.479 13.904 8.71667 14 9 14H12V17.025C12 17.3083 12.096 17.5417 12.288 17.725C12.4793 17.9083 12.7167 18 13 18ZM13 23C11.6167 23 10.3167 22.7373 9.1 22.212C7.88333 21.6873 6.825 20.975 5.925 20.075C5.025 19.175 4.31267 18.1167 3.788 16.9C3.26267 15.6833 3 14.3833 3 13C3 11.6167 3.26267 10.3167 3.788 9.1C4.31267 7.88333 5.025 6.825 5.925 5.925C6.825 5.025 7.88333 4.31233 9.1 3.787C10.3167 3.26233 11.6167 3 13 3C14.3833 3 15.6833 3.26233 16.9 3.787C18.1167 4.31233 19.175 5.025 20.075 5.925C20.975 6.825 21.6873 7.88333 22.212 9.1C22.7373 10.3167 23 11.6167 23 13C23 14.3833 22.7373 15.6833 22.212 16.9C21.6873 18.1167 20.975 19.175 20.075 20.075C19.175 20.975 18.1167 21.6873 16.9 22.212C15.6833 22.7373 14.3833 23 13 23ZM13 21C15.2167 21 17.1043 20.221 18.663 18.663C20.221 17.1043 21 15.2167 21 13C21 10.7833 20.221 8.89567 18.663 7.337C17.1043 5.779 15.2167 5 13 5C10.7833 5 8.896 5.779 7.338 7.337C5.77933 8.89567 5 10.7833 5 13C5 15.2167 5.77933 17.1043 7.338 18.663C8.896 20.221 10.7833 21 13 21Z" fill="currentColor"/>
</svg>