<svg width="26" height="26" viewBox="0 0 26 26" fill="none" xmlns="http://www.w3.org/2000/svg">
    <path d="M7.29149 18.4362C5.96505 17.2748 5.02437 15.7365 4.59497 14.0265C4.16557 12.3166 4.26789 10.5163 4.88826 8.86607C5.50863 7.21579 6.61756 5.79397 8.06704 4.79034C9.51652 3.78672 11.2376 3.24902 13.0007 3.24902C14.7637 3.24902 16.4848 3.78672 17.9343 4.79034C19.3837 5.79397 20.4927 7.21579 21.113 8.86607C21.7334 10.5163 21.8357 12.3166 21.4063 14.0265C20.9769 15.7365 20.0363 17.2748 18.7098 18.4362" stroke="#666666" stroke-width="2" stroke-linecap="round" stroke-linejoin="round"/>
    <path d="M11.916 7.58331C11.0541 7.58331 10.2274 7.92572 9.61792 8.53522C9.00842 9.14471 8.66602 9.97136 8.66602 10.8333M5.41602 20.5833C5.41602 21.1579 5.64429 21.709 6.05062 22.1154C6.45695 22.5217 7.00805 22.75 7.58268 22.75H18.416C18.9907 22.75 19.5418 22.5217 19.9481 22.1154C20.3544 21.709 20.5827 21.1579 20.5827 20.5833C20.5827 20.0087 20.3544 19.4576 19.9481 19.0512C19.5418 18.6449 18.9907 18.4166 18.416 18.4166H7.58268C7.00805 18.4166 6.45695 18.6449 6.05062 19.0512C5.64429 19.4576 5.41602 20.0087 5.41602 20.5833Z" stroke="#666666" stroke-width="2" stroke-linecap="round" stroke-linejoin="round"/>
    <rect x="11.0508" y="1.04993" width="12.6" height="5.25" fill="white"/>
    <path d="M21.8008 4.60049H22.6508L22.2508 3.50049L21.8008 4.60049Z" fill="#FF3321"/>
    <path d="M14.1004 4.3501H13.1504V5.1001H13.9504C14.1504 5.1501 14.3504 5.0001 14.4004 4.8001C14.4504 4.6001 14.3004 4.4001 14.1004 4.3501Z" fill="#FF3321"/>
    <path d="M14.2504 3.50009C14.2504 3.30009 14.1004 3.15009 13.8504 3.15009H13.1504V3.80009H13.8504C14.1004 3.85009 14.2504 3.70009 14.2504 3.50009Z" fill="#FF3321"/>
    <path d="M25.5 0H10.5C10.2 0 10 0.2 10 0.5V7.5C10 7.8 10.2 8 10.5 8H12.5C12.5 8 14.4503 8 15.7 8C19.5271 8 25.5 8 25.5 8C25.8 8 26 7.8 26 7.5V0.5C26 0.2 25.75 0 25.5 0ZM14.15 5.55H12.55V2.55H14.05C14.5 2.5 14.9 2.8 14.95 3.25V3.3C14.95 3.6 14.8 3.85 14.55 3.95C14.85 4.05 15.1 4.35 15.1 4.7C15.05 5.2 14.65 5.55 14.15 5.55ZM17.9 3.1H16.25V3.7H17.75V4.3H16.25V4.95H17.9V5.55H15.6V2.55H17.9V3.1ZM19.8 5.55H19.15V3.15H18.2V2.55H20.7V3.15H19.8V5.55ZM23.15 5.55L22.95 5.05H21.6L21.4 5.55H20.7L21.9 2.55H22.6L23.85 5.55H23.15Z" fill="#FF3321"/>
</svg>
