<svg width="26" height="26" viewBox="0 0 26 26" fill="none" xmlns="http://www.w3.org/2000/svg">
  <path d="M8 14H15C15.2833 14 15.521 13.904 15.713 13.712C15.9043 13.5207 16 13.2833 16 13C16 12.7167 15.9043 12.479 15.713 12.287C15.521 12.0957 15.2833 12 15 12H8C7.71667 12 7.479 12.0957 7.287 12.287C7.09567 12.479 7 12.7167 7 13C7 13.2833 7.09567 13.5207 7.287 13.712C7.479 13.904 7.71667 14 8 14ZM8 11H15C15.2833 11 15.521 10.904 15.713 10.712C15.9043 10.5207 16 10.2833 16 10C16 9.71667 15.9043 9.479 15.713 9.287C15.521 9.09567 15.2833 9 15 9H8C7.71667 9 7.479 9.09567 7.287 9.287C7.09567 9.479 7 9.71667 7 10C7 10.2833 7.09567 10.5207 7.287 10.712C7.479 10.904 7.71667 11 8 11ZM5 21C4.45 21 3.97933 20.8043 3.588 20.413C3.196 20.021 3 19.55 3 19V7C3 6.45 3.196 5.97933 3.588 5.588C3.97933 5.196 4.45 5 5 5H21C21.55 5 22.021 5.196 22.413 5.588C22.8043 5.97933 23 6.45 23 7V19C23 19.55 22.8043 20.021 22.413 20.413C22.021 20.8043 21.55 21 21 21H5ZM5 19V7V19ZM5 19H21V7H5V19Z" fill="currentColor"/>
</svg>