<svg width="190" height="191" viewBox="0 0 190 191" fill="none" xmlns="http://www.w3.org/2000/svg">
<g filter="url(#filter0_d_680_10053)">
<path d="M94.6079 144.216C123.662 144.216 147.216 120.662 147.216 91.6079C147.216 62.5534 123.662 39 94.6079 39C65.5534 39 42 62.5534 42 91.6079C42 120.662 65.5534 144.216 94.6079 144.216Z" fill="white"/>
</g>
<path d="M86.9843 119.017C86.0054 119.017 85.0401 118.805 84.1646 118.397C83.2892 117.989 82.5277 117.396 81.9406 116.666L66.4767 97.4446C65.9799 96.8271 65.6185 96.1244 65.413 95.3767C65.2076 94.629 65.1621 93.8509 65.2792 93.0868C65.3963 92.3227 65.6738 91.5876 66.0956 90.9234C66.5175 90.2593 67.0756 89.6791 67.738 89.216C68.4004 88.7529 69.1542 88.4159 69.9563 88.2244C70.7584 88.0329 71.5931 87.9905 72.4127 88.0996C73.2324 88.2088 74.021 88.4674 74.7334 88.8607C75.4459 89.254 76.0682 89.7743 76.565 90.3918L86.682 102.966L112.666 66.6319C113.594 65.3358 115.037 64.4364 116.676 64.1313C118.315 63.8261 120.017 64.1403 121.408 65.0047C122.799 65.8691 123.765 67.2129 124.093 68.7408C124.421 70.2688 124.085 71.8557 123.159 73.1528L92.2311 116.4C91.6716 117.182 90.9191 117.828 90.0368 118.283C89.1544 118.738 88.1678 118.989 87.1598 119.016C87.1013 119.017 87.0428 119.017 86.9843 119.017Z" fill="#0BD25F"/>
<path d="M151.492 41.3778C151.667 40.1703 150.403 38.9867 148.667 38.7342C146.931 38.4816 145.381 39.2557 145.206 40.4633C145.03 41.6708 146.295 42.8544 148.031 43.1069C149.766 43.3595 151.316 42.5853 151.492 41.3778Z" fill="#E6E6E6"/>
<path d="M172.158 39.3614C172.333 38.1539 171.069 36.9703 169.333 36.7177C167.597 36.4652 166.048 37.2393 165.872 38.4468C165.696 39.6543 166.961 40.8379 168.697 41.0905C170.432 41.343 171.982 40.5689 172.158 39.3614Z" fill="url(#paint0_linear_680_10053)"/>
<path d="M145.832 24.6467C146.008 23.4392 144.743 22.2556 143.008 22.0031C141.272 21.7505 139.722 22.5247 139.547 23.7322C139.371 24.9397 140.636 26.1233 142.371 26.3759C144.107 26.6284 145.657 25.8543 145.832 24.6467Z" fill="#FFC514"/>
<path d="M136.853 17.7933C136.861 16.6848 136.243 15.7814 135.472 15.7756C134.7 15.7698 134.068 16.6637 134.06 17.7722C134.052 18.8808 134.67 19.7841 135.441 19.79C136.212 19.7958 136.844 18.9019 136.853 17.7933Z" fill="#E6E6E6"/>
<path d="M133.808 5.02833C133.816 3.91978 133.198 3.0164 132.427 3.01057C131.656 3.00474 131.024 3.89867 131.015 5.00721C131.007 6.11575 131.625 7.01913 132.396 7.02496C133.167 7.03079 133.799 6.13687 133.808 5.02833Z" fill="url(#paint1_linear_680_10053)"/>
<path d="M157.489 27.4939C157.498 26.3854 156.879 25.482 156.108 25.4761C155.337 25.4703 154.705 26.3642 154.697 27.4728C154.688 28.5813 155.307 29.4847 156.078 29.4905C156.849 29.4964 157.481 28.6024 157.489 27.4939Z" fill="#E6E6E6"/>
<path d="M147.502 32.4803C147.511 31.3717 146.892 30.4683 146.121 30.4625C145.35 30.4567 144.718 31.3506 144.71 32.4591C144.701 33.5677 145.319 34.471 146.091 34.4769C146.862 34.4827 147.494 33.5888 147.502 32.4803Z" fill="#1EA8FD"/>
<path d="M161.404 41.6963C161.413 40.5878 160.794 39.6844 160.023 39.6786C159.252 39.6727 158.62 40.5667 158.612 41.6752C158.603 42.7837 159.222 43.6871 159.993 43.6929C160.764 43.6988 161.396 42.8049 161.404 41.6963Z" fill="#0BD25F"/>
<path d="M38.4917 174.378C38.6674 173.17 37.4026 171.987 35.6668 171.734C33.9311 171.482 32.3815 172.256 32.2058 173.463C32.0301 174.671 33.2948 175.855 35.0306 176.107C36.7664 176.36 38.316 175.585 38.4917 174.378Z" fill="#E6E6E6"/>
<path d="M59.1587 172.361C59.3343 171.154 58.0696 169.97 56.3338 169.718C54.598 169.465 53.0485 170.239 52.8728 171.447C52.6971 172.654 53.9618 173.838 55.6976 174.09C57.4334 174.343 58.983 173.569 59.1587 172.361Z" fill="url(#paint2_linear_680_10053)"/>
<path d="M32.8335 157.647C33.0092 156.439 31.7445 155.256 30.0087 155.003C28.2729 154.751 26.7233 155.525 26.5476 156.732C26.3719 157.94 27.6366 159.123 29.3724 159.376C31.1082 159.628 32.6578 158.854 32.8335 157.647Z" fill="#1EA8FD"/>
<path d="M23.8527 150.793C23.8611 149.685 23.2428 148.782 22.4716 148.776C21.7004 148.77 21.0685 149.664 21.0601 150.772C21.0517 151.881 21.6701 152.784 22.4412 152.79C23.2124 152.796 23.8443 151.902 23.8527 150.793Z" fill="#E6E6E6"/>
<path d="M20.8078 138.028C20.8162 136.92 20.1978 136.016 19.4267 136.011C18.6555 136.005 18.0236 136.899 18.0152 138.007C18.0068 139.116 18.6251 140.019 19.3963 140.025C20.1675 140.031 20.7994 139.137 20.8078 138.028Z" fill="url(#paint3_linear_680_10053)"/>
<path d="M44.4894 160.494C44.4978 159.385 43.8794 158.482 43.1083 158.476C42.3371 158.47 41.7052 159.364 41.6968 160.473C41.6884 161.581 42.3068 162.485 43.0779 162.491C43.8491 162.496 44.481 161.602 44.4894 160.494Z" fill="#E6E6E6"/>
<path d="M34.5021 165.48C34.5105 164.372 33.8922 163.468 33.121 163.463C32.3499 163.457 31.7179 164.351 31.7095 165.459C31.7011 166.568 32.3195 167.471 33.0907 167.477C33.8618 167.483 34.4938 166.589 34.5021 165.48Z" fill="#1EA8FD"/>
<path d="M48.4045 174.697C48.4128 173.588 47.7945 172.685 47.0233 172.679C46.2522 172.673 45.6202 173.567 45.6119 174.675C45.6035 175.784 46.2218 176.687 46.993 176.693C47.7641 176.699 48.3961 175.805 48.4045 174.697Z" fill="#0BD25F"/>
<defs>
<filter id="filter0_d_680_10053" x="0" y="1" width="189.216" height="189.216" filterUnits="userSpaceOnUse" color-interpolation-filters="sRGB">
<feFlood flood-opacity="0" result="BackgroundImageFix"/>
<feColorMatrix in="SourceAlpha" type="matrix" values="0 0 0 0 0 0 0 0 0 0 0 0 0 0 0 0 0 0 127 0" result="hardAlpha"/>
<feOffset dy="4"/>
<feGaussianBlur stdDeviation="21"/>
<feComposite in2="hardAlpha" operator="out"/>
<feColorMatrix type="matrix" values="0 0 0 0 0.04125 0 0 0 0 0.825 0 0 0 0 0.372167 0 0 0 0.2 0"/>
<feBlend mode="normal" in2="BackgroundImageFix" result="effect1_dropShadow_680_10053"/>
<feBlend mode="normal" in="SourceGraphic" in2="effect1_dropShadow_680_10053" result="shape"/>
</filter>
<linearGradient id="paint0_linear_680_10053" x1="168.697" y1="41.0905" x2="169.333" y2="36.7177" gradientUnits="userSpaceOnUse">
<stop offset="0.390625" stop-color="#3D8BFD"/>
<stop offset="1" stop-color="#1273FF"/>
</linearGradient>
<linearGradient id="paint1_linear_680_10053" x1="132.396" y1="7.02496" x2="132.427" y2="3.01057" gradientUnits="userSpaceOnUse">
<stop offset="0.390625" stop-color="#3D8BFD"/>
<stop offset="1" stop-color="#1273FF"/>
</linearGradient>
<linearGradient id="paint2_linear_680_10053" x1="55.6976" y1="174.09" x2="56.3338" y2="169.718" gradientUnits="userSpaceOnUse">
<stop offset="0.390625" stop-color="#3D8BFD"/>
<stop offset="1" stop-color="#1273FF"/>
</linearGradient>
<linearGradient id="paint3_linear_680_10053" x1="19.3963" y1="140.025" x2="19.4267" y2="136.011" gradientUnits="userSpaceOnUse">
<stop offset="0.390625" stop-color="#3D8BFD"/>
<stop offset="1" stop-color="#1273FF"/>
</linearGradient>
</defs>
</svg>
