<svg width="114" height="30" viewBox="0 0 114 30" fill="none" xmlns="http://www.w3.org/2000/svg">
<path d="M25.9789 24.6959C13.5966 30.5888 5.91204 25.6583 0.992898 22.6637C0.688504 22.475 0.171139 22.7078 0.620024 23.2234C2.25884 25.2105 7.62957 30 14.6399 30C21.6551 30 25.8285 26.1722 26.3506 25.5044C26.8692 24.8423 26.5029 24.4771 25.9788 24.6959H25.9789ZM29.4565 22.7754C29.1239 22.3424 27.4345 22.2616 26.3713 22.3922C25.3065 22.5191 23.7081 23.1699 23.8471 23.5606C23.9184 23.707 24.0639 23.6414 24.7955 23.5756C25.529 23.5024 27.5838 23.2431 28.012 23.8028C28.4422 24.3664 27.3566 27.0512 27.1584 27.4842C26.9668 27.9172 27.2316 28.0289 27.5914 27.7405C27.9462 27.4522 28.5887 26.7057 29.0198 25.6492C29.448 24.5869 29.7091 23.105 29.4563 22.7754H29.4565Z" fill="white"/>
<path fill-rule="evenodd" clip-rule="evenodd" d="M17.653 12.6714C17.653 14.2176 17.6921 15.5071 16.9106 16.8802C16.2798 17.9967 15.2806 18.6833 14.1642 18.6833C12.6402 18.6833 11.7527 17.5222 11.7527 15.8085C11.7527 12.4257 14.7837 11.8117 17.653 11.8117V12.6714ZM21.6554 22.3452C21.393 22.5796 21.0134 22.5964 20.7176 22.44C19.4002 21.346 19.1657 20.838 18.4401 19.7941C16.2631 22.0158 14.7224 22.6801 11.8979 22.6801C8.55979 22.6801 5.9585 20.6202 5.9585 16.4951C5.9585 13.2743 7.7058 11.0805 10.1897 10.0088C12.3444 9.05971 15.3532 8.89228 17.653 8.63001V8.11641C17.653 7.17298 17.7255 6.0566 17.173 5.24166C16.6873 4.51038 15.7607 4.20893 14.9456 4.20893C13.4329 4.20893 12.082 4.9848 11.7527 6.59243C11.6856 6.94978 11.4234 7.30147 11.0661 7.31818L7.21443 6.90518C6.89074 6.83247 6.53352 6.5702 6.62282 6.0733C7.51036 1.40678 11.7247 0 15.4982 0C17.4296 0 19.9527 0.5136 21.4766 1.97615C23.4081 3.77911 23.2238 6.18497 23.2238 8.80297V14.9879C23.2238 16.8468 23.9941 17.6617 24.7198 18.6666C24.9765 19.0238 25.0324 19.4537 24.7086 19.7215C23.8992 20.3969 22.459 21.653 21.6664 22.3564L21.6552 22.3452" fill="white"/>
<path d="M25.9789 24.6959C13.5966 30.5888 5.91204 25.6583 0.992898 22.6637C0.688504 22.475 0.171139 22.7078 0.620024 23.2234C2.25884 25.2105 7.62957 30 14.6399 30C21.6551 30 25.8285 26.1722 26.3506 25.5044C26.8692 24.8423 26.5029 24.4771 25.9788 24.6959H25.9789ZM29.4565 22.7754C29.1239 22.3424 27.4345 22.2616 26.3713 22.3922C25.3065 22.5191 23.7081 23.1699 23.8471 23.5606C23.9184 23.707 24.0639 23.6414 24.7955 23.5756C25.529 23.5024 27.5838 23.2431 28.012 23.8028C28.4422 24.3664 27.3566 27.0512 27.1584 27.4842C26.9668 27.9172 27.2316 28.0289 27.5914 27.7405C27.9462 27.4522 28.5887 26.7057 29.0198 25.6492C29.448 24.5869 29.7091 23.105 29.4563 22.7754H29.4565Z" fill="white"/>
<path fill-rule="evenodd" clip-rule="evenodd" d="M17.653 12.6714C17.653 14.2176 17.6921 15.5071 16.9106 16.8802C16.2798 17.9967 15.2806 18.6833 14.1642 18.6833C12.6402 18.6833 11.7527 17.5222 11.7527 15.8085C11.7527 12.4257 14.7837 11.8117 17.653 11.8117V12.6714ZM21.6554 22.3452C21.393 22.5796 21.0134 22.5964 20.7176 22.44C19.4002 21.346 19.1657 20.838 18.4401 19.7941C16.2631 22.0158 14.7224 22.6801 11.8979 22.6801C8.55979 22.6801 5.9585 20.6202 5.9585 16.4951C5.9585 13.2743 7.7058 11.0805 10.1897 10.0088C12.3444 9.05971 15.3532 8.89228 17.653 8.63001V8.11641C17.653 7.17298 17.7255 6.0566 17.173 5.24166C16.6873 4.51038 15.7607 4.20893 14.9456 4.20893C13.4329 4.20893 12.082 4.9848 11.7527 6.59243C11.6856 6.94978 11.4234 7.30147 11.0661 7.31818L7.21443 6.90518C6.89074 6.83247 6.53352 6.5702 6.62282 6.0733C7.51036 1.40678 11.7247 0 15.4982 0C17.4296 0 19.9527 0.5136 21.4766 1.97615C23.4081 3.77911 23.2238 6.18497 23.2238 8.80297V14.9879C23.2238 16.8468 23.9941 17.6617 24.7198 18.6666C24.9765 19.0238 25.0324 19.4537 24.7086 19.7215C23.8992 20.3969 22.459 21.653 21.6664 22.3564L21.6552 22.3452" fill="white"/>
<path d="M39.3817 23V8.612H43.9137C44.9843 8.612 45.9377 8.75133 46.7737 9.03C47.6097 9.30867 48.2697 9.77067 48.7537 10.416C49.2377 11.0613 49.4797 11.9413 49.4797 13.056C49.4797 14.112 49.2377 14.9847 48.7537 15.674C48.2697 16.3633 47.617 16.8767 46.7957 17.214C45.9743 17.5513 45.043 17.72 44.0017 17.72H41.9337V23H39.3817ZM41.9337 15.674H43.8037C45.9157 15.674 46.9717 14.8013 46.9717 13.056C46.9717 12.1467 46.693 11.5233 46.1357 11.186C45.593 10.834 44.7863 10.658 43.7157 10.658H41.9337V15.674ZM55.8942 23.264C54.9995 23.264 54.1635 23.044 53.3862 22.604C52.6089 22.1493 51.9782 21.504 51.4942 20.668C51.0102 19.8173 50.7682 18.798 50.7682 17.61C50.7682 16.4073 51.0102 15.388 51.4942 14.552C51.9782 13.7013 52.6089 13.056 53.3862 12.616C54.1635 12.1613 54.9995 11.934 55.8942 11.934C56.8035 11.934 57.6469 12.1613 58.4242 12.616C59.2015 13.056 59.8322 13.7013 60.3162 14.552C60.8002 15.388 61.0422 16.4073 61.0422 17.61C61.0422 18.798 60.8002 19.8173 60.3162 20.668C59.8322 21.504 59.2015 22.1493 58.4242 22.604C57.6469 23.044 56.8035 23.264 55.8942 23.264ZM55.8942 21.196C56.6862 21.196 57.3095 20.866 57.7642 20.206C58.2189 19.546 58.4462 18.6807 58.4462 17.61C58.4462 16.5247 58.2189 15.652 57.7642 14.992C57.3095 14.332 56.6862 14.002 55.8942 14.002C55.1022 14.002 54.4789 14.332 54.0242 14.992C53.5842 15.652 53.3642 16.5247 53.3642 17.61C53.3642 18.6807 53.5842 19.546 54.0242 20.206C54.4789 20.866 55.1022 21.196 55.8942 21.196ZM67.3304 23.264C65.9811 23.264 64.9031 22.7653 64.0964 21.768C63.2898 20.7707 62.8864 19.3847 62.8864 17.61C62.8864 16.4367 63.0991 15.4247 63.5244 14.574C63.9644 13.7233 64.5364 13.0707 65.2404 12.616C65.9444 12.1613 66.6851 11.934 67.4624 11.934C68.0784 11.934 68.5991 12.044 69.0244 12.264C69.4644 12.4693 69.8898 12.7553 70.3004 13.122L70.2124 11.384V7.468H72.7424V23H70.6524L70.4764 21.834H70.3884C69.9924 22.23 69.5304 22.5673 69.0024 22.846C68.4744 23.1247 67.9171 23.264 67.3304 23.264ZM67.9464 21.174C68.7531 21.174 69.5084 20.7707 70.2124 19.964V14.926C69.8458 14.5887 69.4791 14.354 69.1124 14.222C68.7458 14.09 68.3791 14.024 68.0124 14.024C67.3231 14.024 66.7291 14.3393 66.2304 14.97C65.7464 15.586 65.5044 16.4587 65.5044 17.588C65.5044 18.7467 65.7171 19.634 66.1424 20.25C66.5678 20.866 67.1691 21.174 67.9464 21.174ZM80.4744 23.264C79.4917 23.264 78.6044 23.044 77.8124 22.604C77.0351 22.1493 76.4117 21.504 75.9424 20.668C75.4877 19.8173 75.2604 18.798 75.2604 17.61C75.2604 16.4073 75.5097 15.388 76.0084 14.552C76.5071 13.7013 77.1671 13.056 77.9884 12.616C78.8244 12.1613 79.7191 11.934 80.6724 11.934C81.3617 11.934 81.9631 12.0513 82.4764 12.286C82.9897 12.5207 83.4444 12.8067 83.8404 13.144L82.6084 14.794C82.3297 14.5447 82.0437 14.354 81.7504 14.222C81.4571 14.0753 81.1417 14.002 80.8044 14.002C79.9391 14.002 79.2277 14.332 78.6704 14.992C78.1277 15.652 77.8564 16.5247 77.8564 17.61C77.8564 18.6807 78.1204 19.546 78.6484 20.206C79.1911 20.866 79.8877 21.196 80.7384 21.196C81.1637 21.196 81.5597 21.108 81.9264 20.932C82.3077 20.7413 82.6524 20.5213 82.9604 20.272L83.9944 21.944C83.4957 22.384 82.9384 22.714 82.3224 22.934C81.7064 23.154 81.0904 23.264 80.4744 23.264ZM88.5297 23.264C87.591 23.264 86.821 22.9707 86.2197 22.384C85.633 21.7973 85.3397 21.0347 85.3397 20.096C85.3397 18.9373 85.8457 18.0427 86.8577 17.412C87.8697 16.7667 89.483 16.3267 91.6977 16.092C91.683 15.52 91.529 15.0287 91.2357 14.618C90.957 14.1927 90.451 13.98 89.7177 13.98C89.1897 13.98 88.669 14.0827 88.1557 14.288C87.657 14.4933 87.1657 14.7427 86.6817 15.036L85.7577 13.342C86.359 12.9607 87.0337 12.6307 87.7817 12.352C88.5443 12.0733 89.351 11.934 90.2017 11.934C91.551 11.934 92.5557 12.3373 93.2157 13.144C93.8903 13.936 94.2277 15.0873 94.2277 16.598V23H92.1377L91.9617 21.812H91.8737C91.3897 22.2227 90.869 22.5673 90.3117 22.846C89.769 23.1247 89.175 23.264 88.5297 23.264ZM89.3437 21.284C89.7837 21.284 90.1797 21.1813 90.5317 20.976C90.8983 20.756 91.287 20.4627 91.6977 20.096V17.676C90.231 17.8667 89.2117 18.1527 88.6397 18.534C88.0677 18.9007 87.7817 19.3553 87.7817 19.898C87.7817 20.382 87.9283 20.734 88.2217 20.954C88.515 21.174 88.889 21.284 89.3437 21.284ZM100.269 23.264C99.5361 23.264 98.8027 23.1247 98.0694 22.846C97.3361 22.5527 96.7054 22.1933 96.1774 21.768L97.3654 20.14C97.8494 20.5067 98.3334 20.8 98.8174 21.02C99.3014 21.24 99.8147 21.35 100.357 21.35C100.944 21.35 101.377 21.2253 101.655 20.976C101.934 20.7267 102.073 20.4187 102.073 20.052C102.073 19.744 101.956 19.4947 101.721 19.304C101.501 19.0987 101.215 18.9227 100.863 18.776C100.511 18.6147 100.145 18.4607 99.7634 18.314C99.2941 18.138 98.8247 17.9253 98.3554 17.676C97.9007 17.412 97.5267 17.082 97.2334 16.686C96.9401 16.2753 96.7934 15.7693 96.7934 15.168C96.7934 14.2147 97.1454 13.4373 97.8494 12.836C98.5534 12.2347 99.5067 11.934 100.709 11.934C101.472 11.934 102.154 12.066 102.755 12.33C103.357 12.594 103.877 12.8947 104.317 13.232L103.151 14.772C102.77 14.4933 102.381 14.2733 101.985 14.112C101.604 13.936 101.201 13.848 100.775 13.848C100.233 13.848 99.8294 13.9653 99.5654 14.2C99.3014 14.42 99.1694 14.6987 99.1694 15.036C99.1694 15.4613 99.3894 15.784 99.8294 16.004C100.269 16.224 100.783 16.4367 101.369 16.642C101.868 16.818 102.352 17.038 102.821 17.302C103.291 17.5513 103.679 17.8813 103.987 18.292C104.31 18.7027 104.471 19.2453 104.471 19.92C104.471 20.844 104.112 21.636 103.393 22.296C102.675 22.9413 101.633 23.264 100.269 23.264ZM110.106 23.264C108.86 23.264 107.972 22.9047 107.444 22.186C106.931 21.4527 106.674 20.5067 106.674 19.348V14.2H105.134V12.308L106.806 12.198L107.114 9.25H109.226V12.198H111.976V14.2H109.226V19.348C109.226 20.6093 109.732 21.24 110.744 21.24C110.935 21.24 111.133 21.218 111.338 21.174C111.544 21.1153 111.72 21.0567 111.866 20.998L112.306 22.868C112.013 22.9707 111.676 23.0587 111.294 23.132C110.928 23.22 110.532 23.264 110.106 23.264Z" fill="white"/>
</svg>
