<svg width="30" height="30" viewBox="0 0 30 30" fill="none" xmlns="http://www.w3.org/2000/svg">
<path d="M10.4281 11H8.14236C7.83926 11 7.54857 11.1204 7.33425 11.3347C7.11992 11.5491 6.99951 11.8397 6.99951 12.1429V19H8.14236V16.1428H10.4281V19H11.5709V12.1429C11.5709 11.8397 11.4505 11.5491 11.2362 11.3347C11.0219 11.1204 10.7312 11 10.4281 11ZM8.14236 15V12.1429H10.4281V15H8.14236ZM18.428 12.1429H20.1423V17.8571H18.428V19H22.9994V17.8571H21.2852V12.1429H22.9994V11H18.428V12.1429ZM13.8566 19H12.7138V11H16.1423C16.4454 11 16.7361 11.1204 16.9504 11.3347C17.1648 11.5491 17.2852 11.8397 17.2852 12.1429V15C17.2852 15.3031 17.1648 15.5938 16.9504 15.8081C16.7361 16.0224 16.4454 16.1428 16.1423 16.1428H13.8566V19ZM13.8566 15H16.1423V12.1429H13.8566V15Z" fill="url(#paint0_linear_2806_11495)"/>
<path d="M29.4144 16.4145C29.7894 16.0394 30 15.5308 30 15.0005C30 14.4702 29.7894 13.9616 29.4144 13.5865L23.6275 7.79954L26.5274 4.93755C26.9552 5.04403 27.4061 5.00636 27.8103 4.83039C28.2144 4.65441 28.5492 4.34997 28.7627 3.9643C28.9761 3.57862 29.0563 3.13328 28.9908 2.69737C28.9253 2.26146 28.7178 1.85935 28.4004 1.55344C28.083 1.24753 27.6736 1.05492 27.2356 1.00549C26.7975 0.956056 26.3554 1.05257 25.9779 1.28006C25.6003 1.50755 25.3084 1.8533 25.1474 2.26365C24.9864 2.674 24.9653 3.12601 25.0875 3.54956L22.2135 6.38554L16.4145 0.58557C16.0394 0.21063 15.5308 0 15.0005 0C14.4702 0 13.9616 0.21063 13.5865 0.58557L7.79954 6.37454L4.93755 3.47256C5.04348 3.04471 5.00526 2.59386 4.8288 2.18995C4.65235 1.78605 4.34754 1.45166 3.96165 1.23867C3.57576 1.02568 3.13037 0.945996 2.69457 1.01197C2.25877 1.07795 1.85692 1.2859 1.55137 1.60357C1.24582 1.92124 1.05364 2.33086 1.00465 2.7689C0.955662 3.20694 1.0526 3.6489 1.28043 4.02622C1.50826 4.40353 1.85424 4.69512 2.2647 4.85574C2.67516 5.01636 3.12715 5.03703 3.55056 4.91455L6.38554 7.78754L0.58557 13.5865C0.21063 13.9616 0 14.4702 0 15.0005C0 15.5308 0.21063 16.0394 0.58557 16.4145L6.38554 22.2135L3.55056 25.0865C3.12804 24.9648 2.67719 24.9858 2.26787 25.1464C1.85855 25.307 1.51364 25.5981 1.28659 25.9746C1.05953 26.3512 0.963025 26.7921 1.01202 27.229C1.06101 27.666 1.25277 28.0746 1.55758 28.3915C1.86238 28.7083 2.26321 28.9158 2.69792 28.9818C3.13264 29.0477 3.57697 28.9684 3.96204 28.7562C4.3471 28.5439 4.65141 28.2106 4.82777 27.8078C5.00414 27.4051 5.04273 26.9554 4.93755 26.5284L7.79954 23.6285L13.5865 29.4144C13.9616 29.7894 14.4702 30 15.0005 30C15.5308 30 16.0394 29.7894 16.4145 29.4144L22.2145 23.6155L25.0865 26.4514C24.9648 26.874 24.9858 27.3248 25.1464 27.7341C25.307 28.1434 25.5981 28.4884 25.9746 28.7154C26.3512 28.9425 26.7921 29.039 27.229 28.99C27.666 28.941 28.0746 28.7492 28.3915 28.4444C28.7083 28.1396 28.9158 27.7388 28.9818 27.3041C29.0477 26.8694 28.9684 26.425 28.7562 26.04C28.5439 25.6549 28.2106 25.3506 27.8078 25.1742C27.4051 24.9979 26.9554 24.9593 26.5284 25.0645L23.6285 22.2015L29.4144 16.4145ZM15.0005 28.0004L2.00056 15.0005L15.0005 2.00056L28.0004 15.0005L15.0005 28.0004Z" fill="url(#paint1_linear_2806_11495)"/>
<defs>
<linearGradient id="paint0_linear_2806_11495" x1="14.9995" y1="11" x2="14.9995" y2="19" gradientUnits="userSpaceOnUse">
<stop offset="0.275742" stop-color="#0380DC"/>
<stop offset="1" stop-color="#0061D3"/>
</linearGradient>
<linearGradient id="paint1_linear_2806_11495" x1="15" y1="0" x2="15" y2="30" gradientUnits="userSpaceOnUse">
<stop offset="0.275742" stop-color="#0380DC"/>
<stop offset="1" stop-color="#0061D3"/>
</linearGradient>
</defs>
</svg>
