<svg width="26" height="26" viewBox="0 0 26 26" fill="none" xmlns="http://www.w3.org/2000/svg">
  <path d="M12.9774 22.5145C14.0783 22.5145 14.9789 21.6139 14.9789 20.5131H10.9759C10.9759 21.6139 11.8766 22.5145 12.9774 22.5145ZM18.9819 16.5101V11.5063C18.9819 8.43405 17.3507 5.86213 14.4786 5.18163V4.50112C14.4786 3.6705 13.8081 3 12.9774 3C12.1468 3 11.4763 3.6705 11.4763 4.50112V5.18163C8.61418 5.86213 6.97296 8.42404 6.97296 11.5063V16.5101L4.97147 18.5116V19.5123H20.9834V18.5116L18.9819 16.5101ZM16.9804 17.5108H8.97445V11.5063C8.97445 9.02449 10.4856 7.00298 12.9774 7.00298C15.4693 7.00298 16.9804 9.02449 16.9804 11.5063V17.5108ZM8.55414 4.58118L7.12307 3.15011C4.72128 4.98148 3.1401 7.80358 3 11.006H5.00149C5.07238 9.73683 5.42864 8.50003 6.04374 7.38766C6.65884 6.27528 7.51693 5.31598 8.55414 4.58118ZM20.9534 11.006H22.9549C22.8048 7.80358 21.2236 4.98148 18.8318 3.15011L17.4107 4.58118C18.4435 5.3196 19.2978 6.27996 19.9108 7.39174C20.5239 8.50352 20.8801 9.73849 20.9534 11.006Z" fill="currentColor"/>
</svg>