<svg width="16" height="16" viewBox="0 0 16 16" fill="none" xmlns="http://www.w3.org/2000/svg">
  <path d="M5.70376 9.65231C5.87454 9.65231 6.03833 9.72015 6.15909 9.84091C6.27985 9.96167 6.34769 10.1255 6.34769 10.2962V13.6561C6.34769 13.8268 6.27985 13.9906 6.15909 14.1114C6.03833 14.2322 5.87454 14.3 5.70376 14.3H2.34393C2.17315 14.3 2.00936 14.2322 1.8886 14.1114C1.76784 13.9906 1.7 13.8268 1.7 13.6561V10.2962C1.7 10.1255 1.76784 9.96167 1.8886 9.84091C2.00936 9.72015 2.17315 9.65231 2.34393 9.65231H5.70376ZM14.092 4.14448L14.5659 3.62927L14.092 4.14448C14.2177 4.26009 14.2923 4.4209 14.2995 4.59154C14.3066 4.76217 14.2457 4.92864 14.1301 5.05434L11.8556 7.52723C11.74 7.65292 11.5791 7.72755 11.4085 7.73468C11.2379 7.74181 11.0714 7.68086 10.9457 7.56525L8.47282 5.29076C8.34712 5.17515 8.2725 5.01434 8.26537 4.8437C8.25824 4.67307 8.31918 4.50659 8.43479 4.3809L10.7093 1.90801C10.8249 1.78232 10.9857 1.70769 11.1563 1.70056C11.327 1.69343 11.4934 1.75438 11.6191 1.86999L14.092 4.14448ZM12.9623 9.65231C13.1331 9.65231 13.2969 9.72015 13.4177 9.84091C13.5384 9.96167 13.6063 10.1255 13.6063 10.2962V13.6561C13.6063 13.8268 13.5384 13.9906 13.4177 14.1114C13.2969 14.2322 13.1331 14.3 12.9623 14.3H9.60249C9.43171 14.3 9.26793 14.2322 9.14717 14.1114C9.0264 13.9906 8.95856 13.8268 8.95856 13.6561V10.2962C8.95856 10.1255 9.0264 9.96167 9.14717 9.84091C9.26793 9.72015 9.43171 9.65231 9.60249 9.65231H12.9623ZM5.70376 2.39374C5.87454 2.39374 6.03833 2.46159 6.15909 2.58235C6.27985 2.70311 6.34769 2.8669 6.34769 3.03768V6.39751C6.34769 6.56829 6.27985 6.73207 6.15909 6.85284C6.03833 6.9736 5.87454 7.04144 5.70376 7.04144H2.34393C2.17315 7.04144 2.00936 6.9736 1.8886 6.85284C1.76784 6.73207 1.7 6.56829 1.7 6.39751V3.03768C1.7 2.8669 1.76784 2.70311 1.8886 2.58235C2.00936 2.46159 2.17315 2.39374 2.34393 2.39374H5.70376Z" stroke="#666666" stroke-width="1.4"/>
</svg>
