<svg width="26" height="26" viewBox="0 0 26 26" fill="none" xmlns="http://www.w3.org/2000/svg">
  <path d="M9.57 14.9527C9.84052 14.9527 10.1 15.0602 10.2912 15.2515C10.4825 15.4428 10.59 15.7022 10.59 15.9727V21.0227C10.59 21.2933 10.4825 21.5527 10.2912 21.744C10.1 21.9353 9.84052 22.0427 9.57 22.0427H4.52C4.24948 22.0427 3.99004 21.9353 3.79875 21.744C3.60746 21.5527 3.5 21.2933 3.5 21.0227V15.9727C3.5 15.7022 3.60746 15.4428 3.79875 15.2515C3.99004 15.0602 4.24948 14.9527 4.52 14.9527H9.57ZM20.48 14.9527C20.7505 14.9527 21.01 15.0602 21.2013 15.2515C21.3925 15.4428 21.5 15.7022 21.5 15.9727V21.0227C21.5 21.2933 21.3925 21.5527 21.2012 21.744C21.01 21.9353 20.7505 22.0427 20.48 22.0427H15.43C15.1595 22.0427 14.9 21.9353 14.7088 21.744C14.5175 21.5527 14.41 21.2933 14.41 21.0227V15.9727C14.41 15.7022 14.5175 15.4428 14.7088 15.2515C14.9 15.0602 15.1595 14.9527 15.43 14.9527H20.48ZM22.2735 8.12918L23.0095 8.80615L22.2735 8.12918L18.8549 11.8461C18.6717 12.0452 18.417 12.1634 18.1467 12.1747C17.8764 12.186 17.6127 12.0894 17.4136 11.9063L13.6967 8.48761C13.4976 8.30448 13.3794 8.04975 13.3681 7.77946C13.3568 7.50918 13.4534 7.24548 13.6365 7.04637L17.0552 3.3295C17.2383 3.13039 17.4931 3.01219 17.7633 3.00089C18.0336 2.9896 18.2973 3.08613 18.4964 3.26927L22.2133 6.68794C22.4124 6.87108 22.5306 7.12581 22.5419 7.39609C22.5532 7.66637 22.4567 7.93008 22.2735 8.12918ZM9.57 4.04273C9.84052 4.04273 10.1 4.1502 10.2912 4.34149C10.4825 4.53277 10.59 4.79221 10.59 5.06273V10.1127C10.59 10.3833 10.4825 10.6427 10.2912 10.834C10.1 11.0253 9.84052 11.1327 9.57 11.1327H4.52C4.24948 11.1327 3.99004 11.0253 3.79875 10.834C3.60746 10.6427 3.5 10.3833 3.5 10.1127V5.06273C3.5 4.79221 3.60746 4.53277 3.79875 4.34149C3.99004 4.1502 4.24948 4.04273 4.52 4.04273H9.57Z" stroke="url(#paint0_linear_153_1266)" strokeWidth="2"/>
  <defs>
    <linearGradient id="paint0_linear_153_1266" x1="13.0214" y1="2" x2="13.0214" y2="23.0427" gradientUnits="userSpaceOnUse">
      <stop offset="0.275742" stopColor="currentColor"/>
      <stop offset="1" stopColor="currentColor"/>
    </linearGradient>
  </defs>
</svg>