<svg width="19" height="21" viewBox="0 0 19 21" fill="none" xmlns="http://www.w3.org/2000/svg">
<path d="M3.40917 11.0397C5.58297 10.5727 5.28621 7.97196 5.22254 7.40397C5.11539 6.52744 4.08515 4.99681 2.68719 5.1191C0.927123 5.27589 0.670194 7.81825 0.670194 7.81825C0.431778 8.99546 1.23903 11.5081 3.40917 11.0397ZM7.44598 6.68002C8.64591 6.68002 9.61584 5.29721 9.61584 3.58875C9.61584 1.88057 8.64591 0.5 7.44598 0.5C6.24548 0.5 5.27303 1.88057 5.27303 3.58903C5.27303 5.29721 6.24548 6.68002 7.44598 6.68002ZM12.6193 6.88338C14.2254 7.09375 15.2548 5.38024 15.4607 4.08185C15.671 2.78515 14.6335 1.27696 13.4987 1.01806C12.359 0.756087 10.9364 2.58039 10.8082 3.77051C10.6517 5.22653 11.0149 6.67778 12.6193 6.88338ZM18.9805 9.06474C18.9805 8.44374 18.4664 6.57175 16.5515 6.57175C14.6332 6.57175 14.3794 8.33828 14.3794 9.58645C14.3794 10.778 14.4787 12.4393 16.8612 12.3877C19.2414 12.335 18.9805 9.69024 18.9805 9.06474ZM16.5515 14.5161C16.5515 14.5161 14.0686 12.5958 12.6193 10.5188C10.6517 7.45642 7.85942 8.70375 6.92595 10.2588C5.99529 11.8177 4.54852 12.8023 4.34152 13.0637C4.13256 13.3195 1.34253 14.8271 1.96157 17.5798C2.58201 20.3309 4.75777 20.2787 4.75777 20.2787C4.75777 20.2787 6.36133 20.4355 8.22097 20.0195C10.0845 19.6047 11.6878 20.1214 11.6878 20.1214C11.6878 20.1214 16.0348 21.5791 17.2224 18.7742C18.4123 15.9718 16.5515 14.5161 16.5515 14.5161Z" fill="#226CB4"/>
<path d="M7.83171 11.8388V13.6867H6.32604C6.32604 13.6867 4.82122 13.8115 4.29446 15.5169C4.11074 16.6557 4.45658 17.3263 4.51689 17.4699C4.57775 17.613 5.06412 18.4457 6.28537 18.69H9.11074V11.8587L7.83171 11.8388ZM7.80899 17.5689H6.67076C6.67076 17.5689 5.87782 17.5277 5.63632 16.615C5.51178 16.2102 5.65483 15.7429 5.71766 15.5592C5.77516 15.3752 6.04135 14.95 6.59026 14.7865H7.80871L7.80899 17.5689ZM9.80327 13.8524V17.4492C9.80327 17.4492 9.86217 18.3448 11.1244 18.6707H14.3758V13.8524H12.9725V17.4699H11.6332C11.6332 17.4699 11.2052 17.4079 11.1249 17.0635V13.8311L9.80327 13.8524Z" fill="white"/>
</svg>
