<svg width="14" height="21" viewBox="0 0 14 21" fill="none" xmlns="http://www.w3.org/2000/svg">
<path d="M6.25788 7.43617C6.25488 7.46018 6.25488 7.48744 6.25488 7.51419C6.25488 7.61822 6.27564 7.71824 6.31315 7.81026L6.34665 7.87928L6.47919 8.21836L7.1676 9.97453L7.76799 11.5081C7.93928 11.8177 8.2136 12.0608 8.54443 12.1903L8.6472 12.2281C8.6512 12.2293 8.65795 12.2293 8.66346 12.2308L10.3091 12.7967V12.7979L10.9382 13.014L10.9813 13.0285C10.9828 13.0285 10.9853 13.03 10.9868 13.03C11.1108 13.0613 11.2323 13.1033 11.3483 13.1545C11.6167 13.2703 11.86 13.4353 12.0678 13.6366C12.1515 13.7167 12.2286 13.8029 12.2998 13.895C12.3605 13.9722 12.416 14.0534 12.4659 14.138C12.6854 14.5026 12.8114 14.9312 12.8114 15.3876C12.8114 15.4691 12.8074 15.5479 12.7992 15.6279C12.7964 15.6631 12.7922 15.6971 12.7869 15.7309V15.7336C12.7814 15.7694 12.7747 15.8064 12.7679 15.8427C12.7609 15.8779 12.7544 15.9129 12.7464 15.9479C12.7452 15.9519 12.7437 15.9562 12.7422 15.9602C12.7347 15.9957 12.7252 16.0307 12.7154 16.066C12.7067 16.0992 12.6957 16.1335 12.6834 16.1657C12.6726 16.201 12.66 16.2358 12.6457 16.2698C12.6334 16.3048 12.6189 16.3403 12.6026 16.3738C12.5581 16.4766 12.5051 16.5753 12.4456 16.6696C12.3689 16.7935 12.2813 16.9102 12.1838 17.0184C12.956 16.1883 13.4693 15.1162 13.5971 13.93C13.6186 13.7354 13.6296 13.5381 13.6296 13.3396C13.6296 13.2128 13.6241 13.0873 13.6159 12.9612C13.5186 11.5386 12.871 10.2663 11.8825 9.35838C11.6099 9.10607 11.3121 8.88152 10.9918 8.69097L10.3866 8.38165L7.32014 6.80802C7.22588 6.76761 7.12437 6.74685 7.02181 6.74701C6.62472 6.74701 6.29689 7.04983 6.25788 7.43617Z" fill="#7F7F7F"/>
<path d="M6.25788 7.43617C6.25488 7.46018 6.25488 7.48744 6.25488 7.51419C6.25488 7.61822 6.27564 7.71824 6.31315 7.81026L6.34665 7.87928L6.47919 8.21836L7.1676 9.97453L7.76799 11.5081C7.93928 11.8177 8.2136 12.0608 8.54443 12.1903L8.6472 12.2281C8.6512 12.2293 8.65795 12.2293 8.66346 12.2308L10.3091 12.7967V12.7979L10.9382 13.014L10.9813 13.0285C10.9828 13.0285 10.9853 13.03 10.9868 13.03C11.1108 13.0613 11.2323 13.1033 11.3483 13.1545C11.6167 13.2703 11.86 13.4353 12.0678 13.6366C12.1515 13.7167 12.2286 13.8029 12.2998 13.895C12.3605 13.9722 12.416 14.0534 12.4659 14.138C12.6854 14.5026 12.8114 14.9312 12.8114 15.3876C12.8114 15.4691 12.8074 15.5479 12.7992 15.6279C12.7964 15.6631 12.7922 15.6971 12.7869 15.7309V15.7336C12.7814 15.7694 12.7747 15.8064 12.7679 15.8427C12.7609 15.8779 12.7544 15.9129 12.7464 15.9479C12.7452 15.9519 12.7437 15.9562 12.7422 15.9602C12.7347 15.9957 12.7252 16.0307 12.7154 16.066C12.7067 16.0992 12.6957 16.1335 12.6834 16.1657C12.6726 16.201 12.66 16.2358 12.6457 16.2698C12.6334 16.3048 12.6189 16.3403 12.6026 16.3738C12.5581 16.4766 12.5051 16.5753 12.4456 16.6696C12.3689 16.7935 12.2813 16.9102 12.1838 17.0184C12.956 16.1883 13.4693 15.1162 13.5971 13.93C13.6186 13.7354 13.6296 13.5381 13.6296 13.3396C13.6296 13.2128 13.6241 13.0873 13.6159 12.9612C13.5186 11.5386 12.871 10.2663 11.8825 9.35838C11.6099 9.10607 11.3121 8.88152 10.9918 8.69097L10.3866 8.38165L7.32014 6.80802C7.22588 6.76761 7.12437 6.74685 7.02181 6.74701C6.62472 6.74701 6.29689 7.04983 6.25788 7.43617Z" fill="url(#paint0_linear_684_10564)"/>
<path d="M0.797917 0.5C0.361564 0.507752 0.0112305 0.864837 0.0112305 1.30144V15.2813C0.0129809 15.3788 0.0184822 15.4751 0.0254839 15.5728C0.0317353 15.6243 0.0384869 15.6779 0.0479892 15.7299C0.247287 16.8519 1.22352 17.7033 2.4023 17.7033C2.81565 17.7033 3.20324 17.5981 3.54232 17.415C3.54432 17.4135 3.54782 17.4115 3.54957 17.4115L3.6716 17.3378L4.16622 17.0467L4.79537 16.6733L4.79687 4.25214C4.79687 3.4267 4.38377 2.69902 3.75137 2.26667C3.73636 2.25767 3.72186 2.24817 3.70861 2.23741L1.26053 0.636532C1.1365 0.554513 0.986962 0.503001 0.826674 0.5H0.797917Z" fill="#7F7F7F"/>
<path d="M0.797917 0.5C0.361564 0.507752 0.0112305 0.864837 0.0112305 1.30144V15.2813C0.0129809 15.3788 0.0184822 15.4751 0.0254839 15.5728C0.0317353 15.6243 0.0384869 15.6779 0.0479892 15.7299C0.247287 16.8519 1.22352 17.7033 2.4023 17.7033C2.81565 17.7033 3.20324 17.5981 3.54232 17.415C3.54432 17.4135 3.54782 17.4115 3.54957 17.4115L3.6716 17.3378L4.16622 17.0467L4.79537 16.6733L4.79687 4.25214C4.79687 3.4267 4.38377 2.69902 3.75137 2.26667C3.73636 2.25767 3.72186 2.24817 3.70861 2.23741L1.26053 0.636532C1.1365 0.554513 0.986962 0.503001 0.826674 0.5H0.797917Z" fill="url(#paint1_linear_684_10564)"/>
<path d="M10.5048 13.2715L4.87624 16.6078L4.79522 16.6566V16.6743L4.16607 17.0469L3.6717 17.3387L3.55042 17.412L3.54217 17.416C3.20384 17.5998 2.816 17.7038 2.4029 17.7038C1.22437 17.7038 0.246887 16.8529 0.0483398 15.7304C0.142612 16.5516 0.422429 17.316 0.844529 17.9819C1.71374 19.354 3.18358 20.3084 4.88399 20.4742H5.92374C6.84345 20.3782 7.61139 20.0099 8.41858 19.5125L9.65987 18.7533C10.219 18.395 11.7366 17.5135 12.1837 17.0189C12.281 16.9106 12.3688 16.7946 12.4455 16.6703C12.505 16.5758 12.5581 16.477 12.6026 16.3743C12.6176 16.3393 12.6318 16.3052 12.6456 16.2705C12.6586 16.236 12.6708 16.2012 12.6833 16.166C12.7066 16.0984 12.7251 16.0307 12.7429 15.9609C12.7519 15.9212 12.7601 15.8819 12.7684 15.8429C12.7954 15.6956 12.8101 15.5443 12.8101 15.3875C12.8101 14.9312 12.6841 14.5026 12.4658 14.1385C12.4158 14.0535 12.3608 13.9722 12.2998 13.8954C12.2285 13.8029 12.1515 13.7171 12.0677 13.6371C11.8599 13.4358 11.6173 13.2708 11.3483 13.1547C11.2322 13.1035 11.1112 13.0612 10.9867 13.0305C10.9852 13.0305 10.9827 13.029 10.9812 13.029L10.9382 13.0145L10.5048 13.2715Z" fill="#7F7F7F"/>
<path d="M10.5048 13.2715L4.87624 16.6078L4.79522 16.6566V16.6743L4.16607 17.0469L3.6717 17.3387L3.55042 17.412L3.54217 17.416C3.20384 17.5998 2.816 17.7038 2.4029 17.7038C1.22437 17.7038 0.246887 16.8529 0.0483398 15.7304C0.142612 16.5516 0.422429 17.316 0.844529 17.9819C1.71374 19.354 3.18358 20.3084 4.88399 20.4742H5.92374C6.84345 20.3782 7.61139 20.0099 8.41858 19.5125L9.65987 18.7533C10.219 18.395 11.7366 17.5135 12.1837 17.0189C12.281 16.9106 12.3688 16.7946 12.4455 16.6703C12.505 16.5758 12.5581 16.477 12.6026 16.3743C12.6176 16.3393 12.6318 16.3052 12.6456 16.2705C12.6586 16.236 12.6708 16.2012 12.6833 16.166C12.7066 16.0984 12.7251 16.0307 12.7429 15.9609C12.7519 15.9212 12.7601 15.8819 12.7684 15.8429C12.7954 15.6956 12.8101 15.5443 12.8101 15.3875C12.8101 14.9312 12.6841 14.5026 12.4658 14.1385C12.4158 14.0535 12.3608 13.9722 12.2998 13.8954C12.2285 13.8029 12.1515 13.7171 12.0677 13.6371C11.8599 13.4358 11.6173 13.2708 11.3483 13.1547C11.2322 13.1035 11.1112 13.0612 10.9867 13.0305C10.9852 13.0305 10.9827 13.029 10.9812 13.029L10.9382 13.0145L10.5048 13.2715Z" fill="url(#paint2_linear_684_10564)"/>
<path opacity="0.15" d="M12.8101 15.3875C12.8101 15.5443 12.7954 15.6959 12.7681 15.8431C12.7601 15.8821 12.7519 15.9212 12.7426 15.9607C12.7251 16.0307 12.7066 16.0984 12.6833 16.1662C12.6711 16.2012 12.6586 16.2362 12.6456 16.2702C12.6321 16.3052 12.6176 16.3393 12.6023 16.3743C12.5577 16.4767 12.5054 16.5756 12.4458 16.6701C12.3691 16.7939 12.2814 16.9106 12.1837 17.0187C11.7366 17.5135 10.219 18.395 9.65987 18.7533L8.41858 19.5125C7.50861 20.0731 6.64891 20.47 5.56465 20.4972C5.51339 20.4987 5.46313 20.5 5.41336 20.5C5.34335 20.5 5.27433 20.4987 5.20506 20.496C3.36913 20.426 1.768 19.4395 0.844529 17.9819C0.412419 17.3012 0.140204 16.5314 0.0483398 15.7304C0.246887 16.8529 1.22437 17.7038 2.4029 17.7038C2.816 17.7038 3.20384 17.5996 3.54217 17.416L3.55042 17.4118L3.6717 17.3387L4.16607 17.0469L4.79522 16.6743V16.6566L4.87624 16.6078L10.5048 13.2713L10.9382 13.0145L10.9812 13.029C10.9824 13.029 10.9852 13.0305 10.9867 13.0305C11.1112 13.0612 11.2325 13.1035 11.3483 13.1547C11.6173 13.2708 11.8596 13.4358 12.0677 13.6371C12.1514 13.7173 12.229 13.8036 12.2998 13.8954C12.3608 13.9722 12.4158 14.0535 12.4658 14.1385C12.6841 14.5026 12.8101 14.9312 12.8101 15.3875Z" fill="#7F7F7F"/>
<path opacity="0.15" d="M12.8101 15.3875C12.8101 15.5443 12.7954 15.6959 12.7681 15.8431C12.7601 15.8821 12.7519 15.9212 12.7426 15.9607C12.7251 16.0307 12.7066 16.0984 12.6833 16.1662C12.6711 16.2012 12.6586 16.2362 12.6456 16.2702C12.6321 16.3052 12.6176 16.3393 12.6023 16.3743C12.5577 16.4767 12.5054 16.5756 12.4458 16.6701C12.3691 16.7939 12.2814 16.9106 12.1837 17.0187C11.7366 17.5135 10.219 18.395 9.65987 18.7533L8.41858 19.5125C7.50861 20.0731 6.64891 20.47 5.56465 20.4972C5.51339 20.4987 5.46313 20.5 5.41336 20.5C5.34335 20.5 5.27433 20.4987 5.20506 20.496C3.36913 20.426 1.768 19.4395 0.844529 17.9819C0.412419 17.3012 0.140204 16.5314 0.0483398 15.7304C0.246887 16.8529 1.22437 17.7038 2.4029 17.7038C2.816 17.7038 3.20384 17.5996 3.54217 17.416L3.55042 17.4118L3.6717 17.3387L4.16607 17.0469L4.79522 16.6743V16.6566L4.87624 16.6078L10.5048 13.2713L10.9382 13.0145L10.9812 13.029C10.9824 13.029 10.9852 13.0305 10.9867 13.0305C11.1112 13.0612 11.2325 13.1035 11.3483 13.1547C11.6173 13.2708 11.8596 13.4358 12.0677 13.6371C12.1514 13.7173 12.229 13.8036 12.2998 13.8954C12.3608 13.9722 12.4158 14.0535 12.4658 14.1385C12.6841 14.5026 12.8101 14.9312 12.8101 15.3875Z" fill="url(#paint3_linear_684_10564)"/>
<defs>
<linearGradient id="paint0_linear_684_10564" x1="7.16842" y1="7.60344" x2="13.5618" y2="14.7287" gradientUnits="userSpaceOnUse">
<stop stop-color="#37BDFF"/>
<stop offset="0.25" stop-color="#26C6F4"/>
<stop offset="0.5" stop-color="#15D0E9"/>
<stop offset="0.75" stop-color="#3BD6DF"/>
<stop offset="1" stop-color="#62DCD4"/>
</linearGradient>
<linearGradient id="paint1_linear_684_10564" x1="2.73235" y1="17.401" x2="2.52673" y2="1.58948" gradientUnits="userSpaceOnUse">
<stop stop-color="#1B48EF"/>
<stop offset="0.5" stop-color="#2080F1"/>
<stop offset="1" stop-color="#26B8F4"/>
</linearGradient>
<linearGradient id="paint2_linear_684_10564" x1="6.42918" y1="16.7443" x2="21.9031" y2="16.7443" gradientUnits="userSpaceOnUse">
<stop stop-color="#39D2FF"/>
<stop offset="0.5" stop-color="#248FFA"/>
<stop offset="1" stop-color="#104CF5"/>
</linearGradient>
<linearGradient id="paint3_linear_684_10564" x1="6.42918" y1="16.7443" x2="21.9031" y2="16.7443" gradientUnits="userSpaceOnUse">
<stop stop-color="white"/>
<stop offset="1"/>
</linearGradient>
</defs>
</svg>
