<svg width="142" height="20" viewBox="0 0 142 20" fill="none" xmlns="http://www.w3.org/2000/svg">
<path d="M37.8754 1.45422C41.5934 1.45422 43.4074 3.28325 43.4074 6.23667C43.4074 8.45549 42.403 9.78978 40.3491 10.2995C43.0476 10.7493 44.3819 12.2185 44.3819 14.7971C44.3819 17.7206 42.403 19.7145 38.3252 19.7145H30.7842V1.45422H37.8754ZM33.2878 3.83795V9.28005H37.5456C39.9143 9.28005 40.8888 8.20063 40.8888 6.43157C40.8888 4.66251 39.8393 3.82296 37.5456 3.82296L33.2878 3.83795ZM33.2878 11.5139V17.1958H38.4001C40.7988 17.1958 41.8783 16.3263 41.8783 14.4973C41.8783 12.5483 40.8438 11.4989 38.3551 11.4989L33.2878 11.5139ZM48.4598 0.479744C49.3143 0.419776 50.0639 1.06443 50.1239 1.91898V2.14386C50.1239 3.05837 49.3743 3.80797 48.4598 3.80797C47.5452 3.80797 46.7956 3.05837 46.7956 2.14386C46.7357 1.28931 47.3803 0.539712 48.2349 0.479744C48.3098 0.464752 48.3848 0.464752 48.4598 0.479744ZM47.2454 5.8169H49.6441V19.7145H47.2454V5.8169ZM58.7593 17.3757C59.269 17.3607 59.7637 17.3008 60.2585 17.1808V19.4896C59.7337 19.6395 59.194 19.7145 58.6543 19.7145C55.6709 19.7145 54.2317 17.9604 54.2317 15.3818V8.03572H51.9829V5.8169H54.2317V2.86347H56.5554V5.8169H60.2585V8.03572H56.5554V15.3368C56.5554 16.5512 57.2751 17.3757 58.7593 17.3757ZM70.1232 19.9843C68.0993 19.9843 66.5401 19.0698 65.7006 17.2558V19.6995H63.3018V0H65.7156V8.30557C66.6001 6.47655 68.2792 5.53205 70.4081 5.53205C74.1111 5.53205 75.9701 8.66538 75.9701 12.7582C75.9551 16.6861 74.0211 19.9843 70.1232 19.9843ZM69.7634 7.75087C67.6195 7.75087 65.7156 9.11514 65.7156 12.2035V13.3129C65.7156 16.4013 67.4696 17.7655 69.5085 17.7655C72.2071 17.7655 73.6013 15.9815 73.6013 12.7582C73.5714 9.42997 72.2371 7.75087 69.7634 7.75087ZM78.4588 5.8169H80.8575V14.2274C80.8575 16.7311 81.8619 17.8405 84.1407 17.8405C86.3595 17.8405 87.8887 16.3713 87.8887 13.5528V5.8169H90.2875V19.7145H87.8887V17.4357C87.0192 19.0399 85.3251 20.0293 83.4961 19.9993C80.3028 19.9993 78.4588 17.7805 78.4588 13.9576V5.8169ZM103.705 19.3547C102.866 19.8044 101.591 19.9843 100.317 19.9843C95.3697 19.9843 93.046 16.9859 93.046 12.7132C93.046 8.51546 95.3548 5.51706 100.317 5.51706C101.456 5.48707 102.596 5.71196 103.63 6.20669V8.42551C102.641 7.96076 101.561 7.73588 100.467 7.76586C96.854 7.76586 95.3847 10.0446 95.3847 12.7432C95.3847 15.4418 96.8839 17.7206 100.527 17.7206C101.606 17.7505 102.671 17.5856 103.69 17.2258L103.705 19.3547ZM106.434 19.7145V0H108.833V12.3234L114.814 5.8169H117.933L111.396 12.6383L118.203 19.7145H114.949L108.833 13.208V19.7145H106.434ZM126.118 19.9843C120.916 19.9843 118.637 16.9859 118.637 12.7132C118.637 8.51546 120.976 5.51706 125.204 5.51706C129.492 5.51706 131.201 8.50047 131.201 12.7132V13.7926H121.051C121.381 16.1614 122.91 17.6906 126.193 17.6906C127.633 17.6906 129.072 17.4357 130.421 16.941V19.1598C129.297 19.7745 127.543 19.9843 126.118 19.9843ZM121.036 11.7687H128.787C128.652 9.1901 127.483 7.70589 125.084 7.70589C122.55 7.6909 121.276 9.34002 121.021 11.7537V11.7687H121.036ZM139.551 17.3757C140.061 17.3607 140.556 17.3008 141.05 17.1808V19.4896C140.526 19.6395 139.986 19.7145 139.446 19.7145C136.463 19.7145 135.024 17.9604 135.024 15.3818V8.03572H132.775V5.8169H135.024V2.86347H137.362V5.8169H141.065V8.03572H137.362V15.3368C137.347 16.5512 138.067 17.3757 139.551 17.3757Z" fill="white"/>
<path d="M1.57971 1.97895C1.21991 1.97895 0.935059 2.24881 0.935059 2.60861C0.935059 2.6386 0.935059 2.68357 0.950051 2.71356L3.63362 18.9949C3.70858 19.3997 4.0534 19.7145 4.47317 19.7145H17.3363C17.6511 19.7145 17.921 19.4896 17.966 19.1898L20.6495 2.72855C20.7095 2.38373 20.4696 2.05391 20.1248 2.00893C20.0948 2.00893 20.0499 1.99394 20.0199 1.99394L1.57971 1.97895ZM12.8687 13.7477H8.76089L7.65148 7.93078H13.8732L12.8687 13.7477Z" fill="#2684FF"/>
<path d="M19.7948 7.93077H13.873L12.8835 13.7477H8.76073L3.90332 19.5046C4.05324 19.6395 4.24814 19.7145 4.45802 19.7145H17.3362C17.651 19.7145 17.9208 19.4896 17.9658 19.1898L19.7948 7.93077Z" fill="url(#paint0_linear_187_2229)"/>
<defs>
<linearGradient id="paint0_linear_187_2229" x1="21.1701" y1="9.5673" x2="11.369" y2="17.2167" gradientUnits="userSpaceOnUse">
<stop offset="0.18" stop-color="#0052CC"/>
<stop offset="1" stop-color="#2684FF"/>
</linearGradient>
</defs>
</svg>
