<svg width="30" height="30" viewBox="0 0 30 30" fill="none" xmlns="http://www.w3.org/2000/svg">
<path d="M0.980531 2C0.433258 2 0 2.41045 0 2.95773C0 3.00333 0 3.07174 0.022803 3.11735L4.10455 27.8815C4.21856 28.4971 4.74303 28.976 5.38152 28.976H24.9465C25.4254 28.976 25.8359 28.634 25.9043 28.1779L29.986 3.14015C30.0772 2.61568 29.7124 2.11402 29.1879 2.04561C29.1423 2.04561 29.0739 2.0228 29.0283 2.0228L0.980531 2ZM18.1511 19.9004L11.9032 19.9004L10.2156 11.0528H19.6789L18.1511 19.9004Z" fill="#2684FF"/>
<path d="M28.686 11.0528H19.6789L18.1738 19.9004L11.9032 19.9004L4.51477 28.6568C4.7428 28.862 5.03924 28.976 5.35848 28.976L24.9465 28.976C25.4254 28.976 25.8359 28.634 25.9043 28.1779L28.686 11.0528Z" fill="url(#paint0_linear_930_9535)"/>
<defs>
<linearGradient id="paint0_linear_930_9535" x1="30.7777" y1="13.542" x2="15.8702" y2="25.1768" gradientUnits="userSpaceOnUse">
<stop offset="0.18" stop-color="#0052CC"/>
<stop offset="1" stop-color="#2684FF"/>
</linearGradient>
</defs>
</svg>
