<svg width="174" height="159" viewBox="0 0 174 159" fill="none" xmlns="http://www.w3.org/2000/svg">
<path d="M149.953 14.6193L4.15625 57.1778L8.01799 70.4568L153.815 27.8983L149.953 14.6193Z" fill="#49466F"/>
<path d="M21.575 118.173L0.0857271 44.2798C-0.0735885 43.7319 -0.00914996 43.1431 0.264857 42.6428C0.538865 42.1426 0.999996 41.7719 1.54682 41.6123L143.809 0.0854318C144.356 -0.0736453 144.943 -0.00886758 145.443 0.265553C145.942 0.539974 146.312 1.00161 146.472 1.54914L165.51 67.0132L164.92 67.1852L145.883 1.72113C145.768 1.3302 145.504 1.00065 145.147 0.804661C144.791 0.608676 144.371 0.56224 143.981 0.675533L1.71845 42.2024C1.32786 42.3164 0.998482 42.5812 0.802763 42.9385C0.607043 43.2959 0.561016 43.7164 0.674807 44.1078L22.1641 118.001L21.575 118.173Z" fill="#49466F"/>
<path d="M134.025 67.3176C133.593 67.3172 133.173 67.1767 132.828 66.9172C132.482 66.6577 132.23 66.2932 132.109 65.8782L128.505 53.4845C128.358 52.9758 128.418 52.4294 128.672 51.965C128.926 51.5007 129.354 51.1564 129.861 51.0076L142.232 47.3966C142.74 47.249 143.285 47.3092 143.749 47.5641C144.212 47.819 144.556 48.2476 144.704 48.756L148.309 61.1497C148.456 61.6584 148.396 62.2049 148.142 62.6692C147.887 63.1335 147.459 63.4779 146.952 63.6266L134.581 67.2376C134.4 67.2906 134.213 67.3175 134.025 67.3176Z" fill="url(#paint0_linear_880_9528)"/>
<path d="M21.2444 44.5084C21.2074 44.3811 21.1633 44.2559 21.1125 44.1334C20.7666 43.2924 20.1227 42.609 19.3044 42.2147C18.4862 41.8204 17.5514 41.743 16.6796 41.9973C15.8079 42.2515 15.0606 42.8196 14.5816 43.5923C14.1025 44.365 13.9253 45.2879 14.0841 46.1835C14.1064 46.3142 14.1361 46.4435 14.1731 46.5708C14.3971 47.3369 14.8628 48.0097 15.5005 48.4884C16.1381 48.9672 16.9134 49.2261 17.7102 49.2264C18.0581 49.2272 18.4043 49.1775 18.738 49.0789C19.6746 48.8047 20.4644 48.1695 20.9343 47.3128C21.4042 46.456 21.5157 45.4475 21.2444 44.5084ZM18.5662 48.4887C17.7851 48.7158 16.946 48.6234 16.2329 48.2316C15.5198 47.8398 14.9908 47.1806 14.7621 46.3987C14.7262 46.2713 14.6975 46.142 14.6761 46.0114C14.561 45.2735 14.7182 44.5188 15.1182 43.8885C15.5182 43.2583 16.1336 42.7955 16.8494 42.5869C17.5652 42.3782 18.3324 42.4379 19.0074 42.7548C19.6825 43.0717 20.2192 43.624 20.5173 44.3086C20.5729 44.4288 20.619 44.5532 20.6554 44.6805C20.8818 45.4631 20.789 46.3037 20.3972 47.0177C20.0055 47.7317 19.347 48.2608 18.5662 48.4887V48.4887Z" fill="#1976FE"/>
<path d="M12.2127 47.1425C12.0164 46.467 12.0352 45.7469 12.2666 45.0827C12.4981 44.4184 12.9305 43.843 13.5038 43.4366C12.9667 43.4104 12.4311 43.5131 11.9417 43.7363C11.4523 43.9594 11.0232 44.2965 10.6902 44.7194C10.3571 45.1423 10.1297 45.6388 10.027 46.1676C9.92427 46.6964 9.94916 47.2421 10.0996 47.7593C10.25 48.2765 10.5216 48.7502 10.8917 49.141C11.2619 49.5317 11.7198 49.8282 12.2275 50.0057C12.7352 50.1832 13.2778 50.2366 13.8103 50.1615C14.3427 50.0863 14.8495 49.8848 15.2885 49.5737C14.5871 49.5393 13.9138 49.2867 13.3625 48.8509C12.8112 48.4151 12.4092 47.8179 12.2127 47.1425Z" fill="#1976FE"/>
<path d="M107.581 62.3753C107.516 62.1401 107.405 61.9201 107.254 61.7279C107.104 61.5356 106.918 61.375 106.705 61.2551C106.493 61.1352 106.259 61.0584 106.017 61.0291C105.775 60.9998 105.53 61.0186 105.295 61.0844L84.9279 66.792L82.7344 67.4067H96.509L98.7025 66.792L106.295 64.6651C106.769 64.5319 107.17 64.2159 107.411 63.7866C107.652 63.3573 107.713 62.8497 107.581 62.3753Z" fill="#CCCCCC"/>
<path d="M93.1745 58.1122C93.0418 57.6378 92.7264 57.2357 92.2978 56.9942C91.8692 56.7527 91.3624 56.6916 90.8888 56.8244L60.3269 65.3874C59.8999 65.5086 59.5301 65.7787 59.2843 66.149C59.0384 66.5192 58.9327 66.9653 58.9862 67.4068H66.8982L69.0947 66.792L91.889 60.4051C92.3627 60.2715 92.7641 59.9549 93.0051 59.5251C93.2462 59.0952 93.307 58.587 93.1745 58.1122Z" fill="#CCCCCC"/>
<path d="M171.853 66.7913H23.6748C23.1055 66.792 22.5596 67.0188 22.157 67.4222C21.7544 67.8255 21.528 68.3724 21.5273 68.9428V156.848C21.528 157.418 21.7544 157.965 22.157 158.368C22.5596 158.772 23.1055 158.999 23.6748 158.999H171.853C172.422 158.999 172.968 158.772 173.37 158.368C173.773 157.965 174 157.418 174 156.848V68.9428C174 68.3724 173.773 67.8256 173.37 67.4222C172.968 67.0189 172.422 66.792 171.853 66.7913ZM173.387 156.848C173.386 157.255 173.225 157.646 172.937 157.934C172.65 158.222 172.259 158.384 171.853 158.384H23.6748C23.2681 158.384 22.878 158.222 22.5904 157.934C22.3027 157.646 22.1411 157.255 22.1409 156.848V68.9428C22.1411 68.5353 22.3028 68.1445 22.5904 67.8563C22.878 67.5682 23.2681 67.4062 23.6748 67.406H171.853C172.259 67.4062 172.65 67.5682 172.937 67.8563C173.225 68.1445 173.386 68.5353 173.387 68.9428V156.848Z" fill="#49466F"/>
<path d="M38.0916 78.779C37.3635 78.779 36.6517 78.5627 36.0463 78.1574C35.4409 77.7522 34.969 77.1761 34.6904 76.5022C34.4117 75.8282 34.3388 75.0866 34.4809 74.3712C34.6229 73.6557 34.9736 72.9985 35.4884 72.4827C36.0033 71.9669 36.6593 71.6156 37.3734 71.4733C38.0875 71.331 38.8277 71.404 39.5004 71.6832C40.1731 71.9623 40.7481 72.4351 41.1526 73.0416C41.5571 73.6481 41.773 74.3612 41.773 75.0907C41.7719 76.0686 41.3837 77.0061 40.6935 77.6975C40.0034 78.389 39.0676 78.7779 38.0916 78.779ZM38.0916 72.0171C37.4848 72.0171 36.8917 72.1974 36.3872 72.5351C35.8827 72.8728 35.4895 73.3529 35.2573 73.9145C35.0251 74.4761 34.9643 75.0941 35.0827 75.6904C35.2011 76.2866 35.4932 76.8342 35.9223 77.2641C36.3513 77.6939 36.898 77.9867 37.4931 78.1053C38.0882 78.2238 38.705 78.163 39.2656 77.9303C39.8262 77.6977 40.3053 77.3038 40.6424 76.7983C40.9795 76.2929 41.1594 75.6986 41.1594 75.0907C41.1585 74.2758 40.835 73.4946 40.2599 72.9184C39.6847 72.3422 38.905 72.018 38.0916 72.0171Z" fill="#1976FE"/>
<path d="M32.369 75.0907C32.3691 74.3872 32.5882 73.7012 32.9959 73.1283C33.4035 72.5554 33.9794 72.1241 34.6432 71.8946C34.1349 71.7189 33.592 71.6675 33.0599 71.7446C32.5277 71.8216 32.0216 72.025 31.5838 72.3377C31.1459 72.6504 30.789 73.0633 30.5427 73.5422C30.2965 74.0211 30.168 74.552 30.168 75.0907C30.168 75.6294 30.2965 76.1603 30.5427 76.6392C30.789 77.1181 31.1459 77.5311 31.5838 77.8438C32.0216 78.1565 32.5277 78.3598 33.0599 78.4369C33.592 78.514 34.1349 78.4625 34.6432 78.2868C33.9794 78.0573 33.4035 77.6261 32.9959 77.0532C32.5882 76.4803 32.3691 75.7943 32.369 75.0907Z" fill="#1976FE"/>
<path d="M53.015 118.668C52.283 118.667 51.5811 118.375 51.0635 117.856C50.5459 117.338 50.2547 116.635 50.2539 115.901V107.603C50.2539 106.869 50.5448 106.165 51.0626 105.647C51.5804 105.128 52.2827 104.836 53.015 104.836C53.7473 104.836 54.4496 105.128 54.9674 105.647C55.4852 106.165 55.7761 106.869 55.7761 107.603V115.901C55.7752 116.635 55.484 117.338 54.9664 117.856C54.4488 118.375 53.747 118.667 53.015 118.668Z" fill="#1976FE"/>
<path d="M60.3783 118.668C59.6462 118.667 58.9444 118.375 58.4268 117.856C57.9092 117.338 57.618 116.635 57.6172 115.901V107.603C57.6172 106.869 57.9081 106.165 58.4259 105.647C58.9437 105.128 59.646 104.836 60.3783 104.836C61.1105 104.836 61.8128 105.128 62.3306 105.647C62.8484 106.165 63.1393 106.869 63.1393 107.603V115.901C63.1385 116.635 62.8473 117.338 62.3297 117.856C61.8121 118.375 61.1103 118.667 60.3783 118.668Z" fill="#1976FE"/>
<path d="M67.7415 118.668C67.0095 118.667 66.3077 118.375 65.7901 117.856C65.2725 117.338 64.9813 116.635 64.9805 115.901V107.603C64.9805 106.869 65.2714 106.165 65.7892 105.647C66.307 105.128 67.0093 104.836 67.7415 104.836C68.4738 104.836 69.1761 105.128 69.6939 105.647C70.2117 106.165 70.5026 106.869 70.5026 107.603V115.901C70.5018 116.635 70.2106 117.338 69.693 117.856C69.1754 118.375 68.4736 118.667 67.7415 118.668Z" fill="#1976FE"/>
<path d="M79.0931 118.668C78.3611 118.667 77.6593 118.375 77.1417 117.856C76.624 117.338 76.3329 116.635 76.332 115.901V107.603C76.332 106.869 76.6229 106.165 77.1407 105.647C77.6585 105.128 78.3608 104.836 79.0931 104.836C79.8254 104.836 80.5277 105.128 81.0455 105.647C81.5633 106.165 81.8542 106.869 81.8542 107.603V115.901C81.8533 116.635 81.5622 117.338 81.0446 117.856C80.5269 118.375 79.8251 118.667 79.0931 118.668Z" fill="#1976FE"/>
<path d="M86.4564 118.668C85.7244 118.667 85.0226 118.375 84.505 117.856C83.9873 117.338 83.6961 116.635 83.6953 115.901V107.603C83.6953 106.869 83.9862 106.165 84.504 105.647C85.0218 105.128 85.7241 104.836 86.4564 104.836C87.1887 104.836 87.891 105.128 88.4088 105.647C88.9266 106.165 89.2175 106.869 89.2175 107.603V115.901C89.2166 116.635 88.9255 117.338 88.4078 117.856C87.8902 118.375 87.1884 118.667 86.4564 118.668Z" fill="#1976FE"/>
<path d="M93.8197 118.668C93.0876 118.667 92.3859 118.375 91.8682 117.856C91.3506 117.338 91.0594 116.635 91.0586 115.901V107.603C91.0586 106.869 91.3495 106.165 91.8673 105.647C92.3851 105.128 93.0874 104.836 93.8197 104.836C94.552 104.836 95.2542 105.128 95.772 105.647C96.2898 106.165 96.5807 106.869 96.5807 107.603V115.901C96.5799 116.635 96.2887 117.338 95.7711 117.856C95.2535 118.375 94.5517 118.667 93.8197 118.668Z" fill="#1976FE"/>
<path d="M105.171 118.668C104.439 118.667 103.737 118.375 103.22 117.856C102.702 117.338 102.411 116.635 102.41 115.901V107.603C102.41 106.869 102.701 106.165 103.219 105.647C103.737 105.128 104.439 104.836 105.171 104.836C105.904 104.836 106.606 105.128 107.124 105.647C107.641 106.165 107.932 106.869 107.932 107.603V115.901C107.931 116.635 107.64 117.338 107.123 117.856C106.605 118.375 105.903 118.667 105.171 118.668Z" fill="#1976FE"/>
<path d="M112.531 118.668C111.799 118.667 111.097 118.375 110.579 117.856C110.062 117.338 109.77 116.635 109.77 115.901V107.603C109.77 106.869 110.06 106.165 110.578 105.647C111.096 105.128 111.798 104.836 112.531 104.836C113.263 104.836 113.965 105.128 114.483 105.647C115.001 106.165 115.292 106.869 115.292 107.603V115.901C115.291 116.635 115 117.338 114.482 117.856C113.964 118.375 113.263 118.667 112.531 118.668Z" fill="#1976FE"/>
<path d="M119.894 118.668C119.162 118.667 118.46 118.375 117.942 117.856C117.425 117.338 117.134 116.635 117.133 115.901V107.603C117.133 106.869 117.424 106.165 117.942 105.647C118.459 105.128 119.162 104.836 119.894 104.836C120.626 104.836 121.328 105.128 121.846 105.647C122.364 106.165 122.655 106.869 122.655 107.603V115.901C122.654 116.635 122.363 117.338 121.845 117.856C121.328 118.375 120.626 118.667 119.894 118.668Z" fill="#1976FE"/>
<path d="M131.245 118.668C130.513 118.667 129.812 118.375 129.294 117.856C128.776 117.338 128.485 116.635 128.484 115.901V107.603C128.484 106.869 128.775 106.165 129.293 105.647C129.811 105.128 130.513 104.836 131.245 104.836C131.978 104.836 132.68 105.128 133.198 105.647C133.716 106.165 134.007 106.869 134.007 107.603V115.901C134.006 116.635 133.715 117.338 133.197 117.856C132.679 118.375 131.977 118.667 131.245 118.668Z" fill="#1976FE"/>
<path d="M138.609 118.668C137.877 118.667 137.175 118.375 136.657 117.856C136.14 117.338 135.848 116.635 135.848 115.901V107.603C135.848 106.869 136.139 106.165 136.656 105.647C137.174 105.128 137.876 104.836 138.609 104.836C139.341 104.836 140.043 105.128 140.561 105.647C141.079 106.165 141.37 106.869 141.37 107.603V115.901C141.369 116.635 141.078 117.338 140.56 117.856C140.043 118.375 139.341 118.667 138.609 118.668Z" fill="#1976FE"/>
<path d="M145.972 118.668C145.24 118.667 144.538 118.375 144.021 117.856C143.503 117.338 143.212 116.635 143.211 115.901V107.603C143.211 106.869 143.502 106.165 144.02 105.647C144.537 105.128 145.24 104.836 145.972 104.836C146.704 104.836 147.407 105.128 147.924 105.647C148.442 106.165 148.733 106.869 148.733 107.603V115.901C148.732 116.635 148.441 117.338 147.923 117.856C147.406 118.375 146.704 118.667 145.972 118.668Z" fill="#1976FE"/>
<path d="M71.7337 149.455H32.0232C31.5312 149.455 31.0593 149.259 30.7114 148.91C30.3634 148.562 30.168 148.089 30.168 147.596C30.168 147.103 30.3634 146.63 30.7114 146.282C31.0593 145.933 31.5312 145.737 32.0232 145.737H71.7337C72.2258 145.737 72.6976 145.933 73.0456 146.282C73.3935 146.63 73.5889 147.103 73.5889 147.596C73.5889 148.089 73.3935 148.562 73.0456 148.91C72.6976 149.259 72.2258 149.455 71.7337 149.455Z" fill="#E6E6E6"/>
<path d="M59.0048 141.463H44.7576C44.2655 141.463 43.7937 141.268 43.4457 140.919C43.0978 140.57 42.9023 140.098 42.9023 139.605C42.9023 139.112 43.0978 138.639 43.4457 138.29C43.7937 137.942 44.2655 137.746 44.7576 137.746H59.0048C59.4969 137.746 59.9688 137.942 60.3167 138.29C60.6646 138.639 60.8601 139.112 60.8601 139.605C60.8601 140.098 60.6646 140.57 60.3167 140.919C59.9688 141.268 59.4969 141.463 59.0048 141.463Z" fill="#E6E6E6"/>
<path d="M173.277 85.1653H22.0312V85.7801H173.277V85.1653Z" fill="#49466F"/>
<defs>
<linearGradient id="paint0_linear_880_9528" x1="128.426" y1="57.3175" x2="148.388" y2="57.3175" gradientUnits="userSpaceOnUse">
<stop offset="0.390625" stop-color="#3D8BFD"/>
<stop offset="1" stop-color="#1273FF"/>
</linearGradient>
</defs>
</svg>
