<svg width="30" height="30" viewBox="0 0 30 30" fill="none" xmlns="http://www.w3.org/2000/svg">
<g clip-path="url(#clip0_2806_11498)">
<path d="M25.4777 10.7463H18.3136C17.9969 10.7463 17.6932 10.6205 17.4693 10.3966C17.2453 10.1726 17.1195 9.86893 17.1195 9.55225V2.38808H3.98523V15.5224C3.98523 15.8391 3.85943 16.1428 3.6355 16.3667C3.41158 16.5906 3.10787 16.7164 2.7912 16.7164C2.47452 16.7164 2.17082 16.5906 1.94689 16.3667C1.72297 16.1428 1.59717 15.8391 1.59717 15.5224V2.38808C1.59717 1.75472 1.84877 1.14731 2.29661 0.699465C2.74446 0.251617 3.35187 1.9239e-05 3.98523 1.9239e-05H18.3136C18.6312 -0.00177174 18.9369 0.121544 19.1643 0.343302L27.5076 8.70151C27.6222 8.8114 27.713 8.94356 27.7746 9.08986C27.8362 9.23616 27.8673 9.39352 27.8658 9.55225V15.5224C27.8658 15.8391 27.74 16.1428 27.5161 16.3667C27.2922 16.5906 26.9885 16.7164 26.6718 16.7164C26.3551 16.7164 26.0514 16.5906 25.8275 16.3667C25.6035 16.1428 25.4777 15.8391 25.4777 15.5224V10.7463ZM19.5076 8.35822H23.7912L19.5076 4.07464V8.35822Z" fill="#00BB4F"/>
<path d="M25.388 29.1194L28.3731 21.9553C28.4339 21.8102 28.4655 21.6546 28.4661 21.4974C28.4667 21.3401 28.4364 21.1843 28.3768 21.0388C28.3172 20.8932 28.2295 20.7609 28.1188 20.6492C28.008 20.5376 27.8764 20.4489 27.7313 20.3881C27.5863 20.3273 27.4307 20.2957 27.2734 20.2951C27.1162 20.2945 26.9604 20.3248 26.8148 20.3844C26.6693 20.444 26.5369 20.5317 26.4253 20.6424C26.3137 20.7532 26.2249 20.8848 26.1642 21.0299L24.2836 25.5523L22.403 21.0299C22.3422 20.8848 22.2535 20.7532 22.1418 20.6424C22.0302 20.5317 21.8978 20.444 21.7523 20.3844C21.6068 20.3248 21.4509 20.2945 21.2937 20.2951C21.1364 20.2957 20.9809 20.3273 20.8358 20.3881C20.6908 20.4489 20.5591 20.5376 20.4484 20.6492C20.3376 20.7609 20.2499 20.8932 20.1903 21.0388C20.1307 21.1843 20.1004 21.3401 20.101 21.4974C20.1017 21.6546 20.1333 21.8102 20.194 21.9553L23.1791 29.1194C23.269 29.3384 23.4221 29.5257 23.6187 29.6576C23.8154 29.7894 24.0468 29.8598 24.2836 29.8598C24.5203 29.8598 24.7517 29.7894 24.9484 29.6576C25.1451 29.5257 25.2981 29.3384 25.388 29.1194Z" fill="#00BB4F"/>
<path d="M6.76119 23.1941C6.41075 22.8721 5.95348 22.6913 5.47761 22.6866C4.32836 22.6866 3.38806 23.7612 3.38806 25.0747C3.38806 26.3881 4.32836 27.4627 5.47761 27.4627C5.95348 27.458 6.41075 27.2772 6.76119 26.9553C6.87687 26.8485 7.01275 26.766 7.16083 26.7126C7.3089 26.6592 7.46617 26.636 7.62336 26.6443C7.78055 26.6527 7.93448 26.6924 8.07606 26.7612C8.21765 26.83 8.34403 26.9264 8.44776 27.0448C8.66144 27.2784 8.77362 27.5873 8.75963 27.9035C8.74563 28.2198 8.60661 28.5176 8.37313 28.7314C7.57733 29.4461 6.5472 29.8443 5.47761 29.8508C3.01492 29.8508 1 27.7015 1 25.0747C1 22.4478 3.01492 20.2985 5.47761 20.2985C6.5472 20.305 7.57733 20.7033 8.37313 21.4179C8.60661 21.6317 8.74563 21.9295 8.75963 22.2458C8.77362 22.562 8.66144 22.8709 8.44776 23.1045C8.34403 23.2229 8.21765 23.3194 8.07606 23.3881C7.93448 23.4569 7.78055 23.4967 7.62336 23.505C7.46617 23.5133 7.3089 23.4901 7.16083 23.4367C7.01275 23.3833 6.87687 23.3008 6.76119 23.1941Z" fill="#00BB4F"/>
<path d="M13.5373 23.3135C13.7015 23.5075 14.5224 23.7314 14.9851 23.8508C16.2239 24.1791 18.3134 24.9105 18.3134 26.8657C18.3134 28.8209 16.9104 30 14.5821 30C13.4966 29.9925 12.4433 29.6309 11.5821 28.9702C11.4446 28.8621 11.3341 28.7236 11.259 28.5657C11.1839 28.4077 11.1463 28.2346 11.1492 28.0597C11.1492 27.7431 11.275 27.4394 11.499 27.2154C11.7229 26.9915 12.0266 26.8657 12.3433 26.8657C12.6199 26.8678 12.8878 26.9623 13.1045 27.1344H13.0895C13.5301 27.4351 14.0487 27.6011 14.5821 27.612C15.9254 27.612 15.9254 26.9553 15.9254 26.8657C15.9254 26.7762 16.0746 26.8209 15.7463 26.6269C15.4179 26.4329 14.8806 26.2985 14.3731 26.1642C13.0895 25.8209 11.1492 25.1344 11.1492 23.2836C11.1492 21.4329 12.5672 20.1493 14.5821 20.1493C15.6675 20.1568 16.7209 20.5184 17.5821 21.1791C17.7195 21.2873 17.8301 21.4257 17.9052 21.5836C17.9803 21.7416 18.0178 21.9147 18.0149 22.0896C18.0149 22.4063 17.8891 22.71 17.6652 22.9339C17.4413 23.1578 17.1376 23.2836 16.8209 23.2836C16.5443 23.2816 16.2763 23.187 16.0597 23.015H16.0746C15.6341 22.7142 15.1154 22.5482 14.5821 22.5373C13.8955 22.5373 13.5373 22.7911 13.5373 23.2836V23.3135Z" fill="#00BB4F"/>
</g>
<defs>
<clipPath id="clip0_2806_11498">
<rect width="30" height="30" fill="white"/>
</clipPath>
</defs>
</svg>
