<svg width="142" height="32" viewBox="0 0 142 32" fill="none" xmlns="http://www.w3.org/2000/svg">
<path d="M42.4516 9.2023H46.8814C49.0963 9.2023 50.8805 9.87908 52.2341 11.2326C53.5877 12.5862 54.2644 14.3089 54.2644 16.4623C54.2644 18.6157 53.5877 20.3999 52.2341 21.7535C50.8805 23.107 49.0963 23.7838 46.8814 23.7838H42.4516V9.2023ZM44.2973 21.938H46.8814C48.6041 21.938 49.8961 21.4458 50.8805 20.4614C51.8649 19.477 52.3571 18.1235 52.3571 16.4008C52.3571 14.6781 51.8649 13.386 50.8805 12.4016C49.8961 11.4172 48.5426 10.925 46.8814 10.925H44.2973V21.938Z" fill="#666666"/>
<path d="M59.9222 13.4475C61.2757 13.4475 62.3832 13.8167 63.183 14.555C63.9828 15.2933 64.352 16.2777 64.352 17.5697V23.7223H62.5677V22.3687H62.5062C61.7064 23.4762 60.722 24.0914 59.43 24.0914C58.3225 24.0914 57.3996 23.7838 56.6613 23.107C55.923 22.4302 55.5539 21.6304 55.5539 20.646C55.5539 19.6001 55.923 18.8002 56.7228 18.185C57.5227 17.5697 58.5686 17.2621 59.8606 17.2621C60.9681 17.2621 61.891 17.4467 62.6293 17.8774V17.4467C62.6293 16.7699 62.3832 16.2162 61.8294 15.7855C61.3372 15.3548 60.722 15.1087 60.0452 15.1087C58.9993 15.1087 58.1994 15.5394 57.5842 16.4008L55.923 15.3548C56.8459 14.1243 58.1379 13.4475 59.9222 13.4475ZM57.5227 20.7075C57.5227 21.1997 57.7072 21.6304 58.1379 21.938C58.5686 22.2457 59.0608 22.4302 59.6145 22.4302C60.4144 22.4302 61.0911 22.1226 61.7064 21.5689C62.3216 21.0152 62.6293 20.2769 62.6293 19.5386C62.0755 19.1079 61.2142 18.8618 60.1683 18.8618C59.43 18.8618 58.7532 19.0464 58.261 19.4155C57.7688 19.6616 57.5227 20.1538 57.5227 20.7075Z" fill="#666666"/>
<path d="M70.2648 23.9069C69.465 23.9069 68.7882 23.6608 68.2344 23.1686C67.6807 22.6764 67.4346 21.9996 67.4346 21.0768V15.5395H65.7119V13.8168H67.4346V10.7405H69.2804V13.8168H71.7414V15.5395H69.2804V20.523C69.2804 21.1998 69.4034 21.6305 69.6495 21.8766C69.8956 22.1227 70.2032 22.2457 70.5109 22.2457C70.6339 22.2457 70.8185 22.2457 70.9416 22.1842C71.0646 22.1227 71.1877 22.1227 71.3107 22.0612L71.926 23.7224C71.4953 23.7839 70.88 23.9069 70.2648 23.9069Z" fill="#666666"/>
<path d="M77.0877 13.4475C78.4412 13.4475 79.5487 13.8167 80.3485 14.555C81.1483 15.2933 81.5175 16.2777 81.5175 17.5697V23.7223H79.7332V22.3687H79.6717C78.8719 23.4762 77.8875 24.0914 76.5955 24.0914C75.488 24.0914 74.5651 23.7838 73.8268 23.107C73.0885 22.4302 72.7194 21.6304 72.7194 20.646C72.7194 19.6001 73.0885 18.8002 73.8883 18.185C74.6882 17.5697 75.7341 17.2621 77.0261 17.2621C78.1336 17.2621 79.0565 17.4467 79.7948 17.8774V17.4467C79.7948 16.7699 79.5487 16.2162 78.9949 15.7855C78.5027 15.3548 77.8875 15.1087 77.2107 15.1087C76.1648 15.1087 75.3649 15.5394 74.7497 16.4008L73.0885 15.3548C73.9499 14.1243 75.3034 13.4475 77.0877 13.4475ZM74.6266 20.7075C74.6266 21.1997 74.8112 21.6304 75.2419 21.938C75.6726 22.2457 76.1648 22.4302 76.7185 22.4302C77.5183 22.4302 78.1951 22.1226 78.8104 21.5689C79.4256 21.0152 79.7332 20.2769 79.7332 19.5386C79.1795 19.1079 78.3182 18.8618 77.2722 18.8618C76.5339 18.8618 75.8571 19.0464 75.3649 19.4155C74.9343 19.6616 74.6266 20.1538 74.6266 20.7075Z" fill="#666666"/>
<path d="M96.8442 19.8462C96.8442 21.1382 96.352 22.1226 95.4292 22.9224C94.5063 23.6607 93.3373 24.0914 91.9837 24.0914C90.7532 24.0914 89.7073 23.7223 88.7844 23.0455C87.8615 22.3687 87.2463 21.3843 86.8771 20.1538L88.6614 19.4155C88.7844 19.8462 88.969 20.2153 89.1536 20.5845C89.3997 20.9536 89.6458 21.2612 89.8919 21.5073C90.1995 21.7535 90.5071 21.938 90.8763 22.1226C91.2454 22.2457 91.6146 22.3072 91.9837 22.3072C92.8451 22.3072 93.5219 22.0611 94.0756 21.6304C94.6293 21.1997 94.8754 20.5845 94.8754 19.8462C94.8754 19.2309 94.6293 18.7387 94.1986 18.308C93.768 17.8774 92.9681 17.5082 91.8607 17.0775C90.6917 16.6468 89.9534 16.4007 89.7073 16.2162C88.1692 15.4163 87.3693 14.2474 87.3693 12.7707C87.3693 11.7248 87.8 10.8019 88.6614 10.0021C89.5227 9.26381 90.5686 8.89466 91.8607 8.89466C92.9681 8.89466 93.9525 9.20228 94.7524 9.75601C95.5522 10.3097 96.1059 10.9865 96.352 11.8479L94.6293 12.5862C94.4447 12.0324 94.1371 11.6018 93.6449 11.2326C93.1527 10.8635 92.599 10.6789 91.8607 10.6789C91.1224 10.6789 90.5071 10.8635 90.0149 11.2941C89.5227 11.6633 89.2766 12.1555 89.2766 12.7707C89.2766 13.263 89.4612 13.6936 89.8919 14.0628C90.3225 14.4319 91.2454 14.8626 92.722 15.3548C94.1986 15.847 95.2446 16.4623 95.8598 17.2006C96.4751 17.8774 96.8442 18.8002 96.8442 19.8462Z" fill="#666666"/>
<path d="M102.189 23.9069C101.389 23.9069 100.713 23.6608 100.159 23.1686C99.6052 22.6764 99.3591 21.9996 99.3591 21.0768V15.5395H97.5748V13.8168H99.2975V10.7405H101.143V13.8168H103.604V15.5395H101.143V20.523C101.143 21.1998 101.266 21.6305 101.512 21.8766C101.759 22.1227 102.066 22.2457 102.374 22.2457C102.497 22.2457 102.681 22.2457 102.804 22.1842C102.928 22.1227 103.051 22.1227 103.174 22.0612L103.789 23.7224C103.358 23.7839 102.804 23.9069 102.189 23.9069Z" fill="#666666"/>
<path d="M114.126 23.7222H112.342V22.3686H112.281C111.973 22.8608 111.542 23.2915 110.989 23.5991C110.373 23.9067 109.758 24.0913 109.143 24.0913C107.912 24.0913 106.989 23.7222 106.313 23.0454C105.636 22.3686 105.328 21.3842 105.328 20.0922V13.7551H107.174V19.9076C107.236 21.5073 108.035 22.3686 109.635 22.3686C110.373 22.3686 110.989 22.061 111.481 21.4457C111.973 20.8305 112.219 20.1537 112.219 19.2923V13.8166H114.065V23.7222H114.126Z" fill="#666666"/>
<path d="M120.464 24.0299C119.172 24.0299 118.064 23.5377 117.141 22.4918C116.219 21.4458 115.788 20.2153 115.788 18.7387C115.788 17.2621 116.219 16.0316 117.141 14.9857C118.064 13.9398 119.172 13.4475 120.464 13.4475C121.202 13.4475 121.879 13.6321 122.494 13.9397C123.109 14.2474 123.54 14.6781 123.909 15.1703H123.971L123.909 13.8167V9.2023H125.755V23.7223H123.971V22.3687H123.909C123.602 22.8609 123.109 23.2916 122.494 23.5992C121.879 23.9069 121.202 24.0299 120.464 24.0299ZM120.771 22.3687C121.694 22.3687 122.433 22.0611 123.048 21.3843C123.663 20.7075 123.971 19.8462 123.971 18.8002C123.971 17.7543 123.663 16.893 123.048 16.2162C122.433 15.5394 121.694 15.2318 120.771 15.2318C119.849 15.2318 119.11 15.5394 118.495 16.2162C117.88 16.893 117.572 17.7543 117.572 18.8002C117.572 19.8462 117.88 20.7075 118.495 21.3843C119.172 21.9996 119.91 22.3687 120.771 22.3687Z" fill="#666666"/>
<path d="M130.435 10.3712C130.435 10.7404 130.312 11.048 130.065 11.2941C129.819 11.5402 129.512 11.6632 129.143 11.6632C128.773 11.6632 128.466 11.5402 128.22 11.2941C127.974 11.048 127.851 10.7404 127.851 10.3712C127.851 10.0021 127.974 9.69443 128.22 9.44832C128.466 9.20222 128.773 9.07917 129.143 9.07917C129.512 9.07917 129.819 9.20222 130.065 9.44832C130.312 9.69443 130.435 10.0021 130.435 10.3712ZM130.065 13.7551V23.7222H128.22V13.7551H130.065Z" fill="#666666"/>
<path d="M131.787 18.7387C131.787 17.2006 132.279 15.9701 133.202 14.9242C134.186 13.9397 135.417 13.4475 136.893 13.4475C138.37 13.4475 139.601 13.9397 140.523 14.9242C141.508 15.9086 142 17.2006 142 18.7387C142 20.2769 141.508 21.5689 140.523 22.5533C139.539 23.5377 138.37 24.0299 136.893 24.0299C135.417 24.0299 134.186 23.5377 133.202 22.5533C132.279 21.5689 131.787 20.2769 131.787 18.7387ZM133.694 18.7387C133.694 19.7847 134.002 20.646 134.617 21.3228C135.232 21.9996 136.032 22.3072 136.955 22.3072C137.878 22.3072 138.616 21.9996 139.293 21.3228C139.908 20.646 140.216 19.7847 140.216 18.7387C140.216 17.6928 139.908 16.8314 139.293 16.1547C138.678 15.4779 137.878 15.1703 136.955 15.1703C136.032 15.1703 135.294 15.4779 134.617 16.1547C134.002 16.8314 133.694 17.6928 133.694 18.7387Z" fill="#666666"/>
<path d="M28.0672 8.69233H15.4243C13.2497 8.69233 11.4797 6.92232 11.4797 4.74775C11.4797 2.57317 13.2497 0.803162 15.4243 0.803162H28.0672C30.2417 0.803162 32.0117 2.57317 32.0117 4.74775C32.0117 6.9729 30.2417 8.69233 28.0672 8.69233Z" fill="#669CF4"/>
<path d="M28.0671 8.74296C30.2456 8.74296 32.0117 6.97691 32.0117 4.79837C32.0117 2.61984 30.2456 0.85379 28.0671 0.85379C25.8885 0.85379 24.1225 2.61984 24.1225 4.79837C24.1225 6.97691 25.8885 8.74296 28.0671 8.74296Z" fill="#1C72EA"/>
<path d="M16.5875 19.9699H3.94459C1.77001 19.9699 0 18.1999 0 16.0253C0 13.8507 1.77001 12.0807 3.94459 12.0807H16.5875C18.7621 12.0807 20.5321 13.8507 20.5321 16.0253C20.5321 18.1999 18.7621 19.9699 16.5875 19.9699Z" fill="#669CF4"/>
<path d="M16.5875 19.9699C18.766 19.9699 20.5321 18.2038 20.5321 16.0253C20.5321 13.8467 18.766 12.0807 16.5875 12.0807C14.4089 12.0807 12.6428 13.8467 12.6428 16.0252C12.6428 18.2038 14.4089 19.9699 16.5875 19.9699Z" fill="#1C72EA"/>
<path d="M28.0672 31.1968H15.4243C13.2497 31.1968 11.4797 29.4268 11.4797 27.2522C11.4797 25.0776 13.2497 23.3076 15.4243 23.3076H28.0672C30.2417 23.3076 32.0117 25.0776 32.0117 27.2522C32.0117 29.4268 30.2417 31.1968 28.0672 31.1968Z" fill="#669CF4"/>
<path d="M28.0672 31.1968C30.2457 31.1968 32.0117 29.4308 32.0117 27.2522C32.0117 25.0737 30.2457 23.3076 28.0672 23.3076C25.8886 23.3076 24.1225 25.0737 24.1225 27.2522C24.1225 29.4308 25.8886 31.1968 28.0672 31.1968Z" fill="#1C72EA"/>
</svg>
