<svg width="80" height="20" viewBox="0 0 100 20" fill="none" xmlns="http://www.w3.org/2000/svg">
<path d="M9.18682 0.946452C8.15646 0.737497 7.37108 0.578979 6.29027 0.578979C3.18477 0.578979 1.94545 2.05608 1.94545 4.68603V6.60265H0V9.70816H1.94545V19.1616H5.73546V9.70816H8.50232L8.76171 6.60265H5.73546V5.10394C5.73546 4.26092 5.81472 3.73492 7.02522 3.73492C7.47195 3.73492 8.18528 3.81418 8.71127 3.92226L9.18682 0.946452ZM20.6073 19.1616V10.9763C20.6073 7.42407 19.6346 6.07666 15.1889 6.07666C13.7118 6.07666 11.788 6.34326 10.5775 6.71074L11.0818 9.55685C12.2923 9.31907 13.4236 9.18217 14.5548 9.18217C16.5795 9.18217 16.8173 9.63611 16.8173 10.9475V11.9202H14.0504C11.4205 11.9202 10.2388 12.9506 10.2388 15.5301C10.2388 17.7133 11.2115 19.421 13.5821 19.421C14.4467 19.421 15.7653 19.1616 17.2352 18.3402L17.5018 19.1616H20.6073ZM16.8173 16.0273C16.2409 16.2939 15.6861 16.474 14.8935 16.474C14.1585 16.474 13.8703 16.1858 13.8703 15.4724C13.8703 14.7663 14.1873 14.5574 15.0015 14.5574H16.8173V16.0273ZM26.7679 11.2357C26.7679 9.92432 27.3155 9.31907 28.843 9.31907C29.5852 9.31907 30.6876 9.44877 31.4802 9.63611L31.9485 6.47296C30.6588 6.18474 29.7365 6.07666 28.843 6.07666C24.6855 6.07666 22.9779 7.63302 22.9779 11.2933V14.2115C22.9779 17.8718 24.6855 19.421 28.843 19.421C29.7365 19.421 30.6588 19.3201 31.9485 19.0247L31.4802 15.8687C30.5579 16.0777 29.8157 16.1858 28.843 16.1858C27.3155 16.1858 26.7679 15.5805 26.7679 14.2619V11.2357ZM44.3489 14.0818V11.3942C44.3489 8.60574 43.4267 6.07666 39.1611 6.07666C34.8955 6.07666 33.6634 8.44723 33.6634 11.2141V14.2115C33.6634 17.3675 35.2414 19.421 39.3989 19.421C41.1858 19.421 43.0592 19.0247 44.212 18.6068L43.6644 15.7679C42.5332 16.1065 40.948 16.3155 39.7663 16.3155C38.0299 16.3155 37.4534 15.9192 37.4534 14.4493V14.0818H44.3489ZM40.7679 11.2357H37.4534V10.6881C37.4534 9.78742 37.8713 9.05247 39.1899 9.05247C40.5013 9.05247 40.7679 9.78742 40.7679 10.6881V11.2357ZM58.4786 14.0242V10.7097C58.4786 7.84198 57.3762 6.07666 54.5301 6.07666C53.1395 6.07666 51.929 6.3937 50.8986 6.78999V0.578979L47.1086 1.10497V19.0031C48.8739 19.2913 50.9491 19.421 52.3181 19.421C57.614 19.421 58.4786 17.0792 58.4786 14.0242ZM50.8986 10.0828C51.6119 9.70816 52.5054 9.36951 53.3196 9.36951C54.3212 9.36951 54.6886 9.8955 54.6886 10.7385V14.053C54.6886 15.2635 54.35 16.1353 52.455 16.1353C51.929 16.1353 51.4534 16.1353 50.8986 16.0777V10.0828ZM66.3757 19.421C70.9295 19.421 72.1616 16.8703 72.1616 14.2403V11.2645C72.1616 8.63456 70.9295 6.07666 66.3757 6.07666C61.8219 6.07666 60.5826 8.63456 60.5826 11.2645V14.2403C60.5826 16.8703 61.8219 19.421 66.3757 19.421ZM66.3757 16.2362C65.0067 16.2362 64.3726 15.5517 64.3726 14.3412V11.1564C64.3726 9.94594 65.0067 9.26143 66.3757 9.26143C67.7447 9.26143 68.3716 9.94594 68.3716 11.1564V14.3412C68.3716 15.5517 67.7447 16.2362 66.3757 16.2362ZM80.0587 19.421C84.6125 19.421 85.8518 16.8703 85.8518 14.2403V11.2645C85.8518 8.63456 84.6125 6.07666 80.0587 6.07666C75.5049 6.07666 74.2728 8.63456 74.2728 11.2645V14.2403C74.2728 16.8703 75.5049 19.421 80.0587 19.421ZM80.0587 16.2362C78.6897 16.2362 78.0628 15.5517 78.0628 14.3412V11.1564C78.0628 9.94594 78.6897 9.26143 80.0587 9.26143C81.4277 9.26143 82.0618 9.94594 82.0618 11.1564V14.3412C82.0618 15.5517 81.4277 16.2362 80.0587 16.2362ZM92.4015 19.1616V0.578979L88.6114 1.10497V19.1616H92.4015ZM92.9058 12.7128L96.3212 19.1616H100.378L96.8543 12.7128L100.219 6.34326H96.1698L92.9058 12.7128Z" fill="white"/>
</svg>
