<svg width="30" height="30" viewBox="0 0 30 30" fill="none" xmlns="http://www.w3.org/2000/svg">
<path fill-rule="evenodd" clip-rule="evenodd" d="M15.0124 1C6.71094 1 0 7.30969 0 15.1156C0 21.3553 4.29993 26.6371 10.2651 28.5065C11.0109 28.6471 11.284 28.2028 11.284 27.8291C11.284 27.5018 11.2595 26.3802 11.2595 25.2114C7.08337 26.0529 6.21374 23.5287 6.21374 23.5287C5.54261 21.8928 4.54822 21.4724 4.54822 21.4724C3.18139 20.6076 4.64778 20.6076 4.64778 20.6076C6.16396 20.7011 6.95954 22.0566 6.95954 22.0566C8.30148 24.2065 10.4639 23.599 11.3338 23.225C11.458 22.3136 11.8559 21.6826 12.2784 21.3321C8.94771 21.0049 5.44336 19.7897 5.44336 14.3677C5.44336 12.8252 6.0395 11.5633 6.98412 10.5818C6.83508 10.2314 6.31299 8.78214 7.13346 6.84249C7.13346 6.84249 8.40104 6.46849 11.2592 8.29142C12.4828 7.98244 13.7448 7.82525 15.0124 7.82393C16.28 7.82393 17.5721 7.98769 18.7654 8.29142C21.6238 6.46849 22.8914 6.84249 22.8914 6.84249C23.7118 8.78214 23.1894 10.2314 23.0404 10.5818C24.0099 11.5633 24.5815 12.8252 24.5815 14.3677C24.5815 19.7897 21.0771 20.9814 17.7215 21.3321C18.2685 21.7761 18.7405 22.6173 18.7405 23.9495C18.7405 25.8424 18.7159 27.3616 18.7159 27.8288C18.7159 28.2028 18.9894 28.6471 19.7349 28.5068C25.7 26.6368 29.9999 21.3553 29.9999 15.1156C30.0245 7.30969 23.289 1 15.0124 1Z" fill="#24292F"/>
</svg>
