<svg width="178" height="28" viewBox="0 0 178 28" fill="none" xmlns="http://www.w3.org/2000/svg">
<path d="M107.075 9.8425L109.547 16.3316H104.757L107.075 9.8425ZM106.148 7.67946L100.74 21.8935H102.749L104.14 18.031H110.165L111.556 21.8935H113.565L108.157 7.67946H106.148ZM135.347 21.8935H137.201V7.67946H135.347V21.8935ZM116.338 13.55C116.956 12.6228 118.192 11.8506 119.428 11.8506C121.9 11.8506 123.136 13.55 123.136 16.0223V22.0478H121.283V16.331C121.283 14.3223 120.202 13.5506 118.811 13.5506C117.266 13.5506 116.184 15.0957 116.184 16.4859V21.8935H114.33V12.0055H116.184L116.338 13.55ZM124.682 18.9582C124.682 16.7952 126.691 15.5593 129.008 15.5593C130.399 15.5593 131.326 15.8686 131.635 16.1779V15.8686C131.635 14.3235 130.399 13.5506 129.163 13.5506C128.082 13.5506 127.154 14.0142 126.845 14.9414L125.15 14.168C125.46 13.2408 126.696 11.85 129.174 11.85C131.492 11.85 133.5 13.2408 133.5 16.0217V21.8929H131.8V20.4955H131.646C131.183 21.2678 130.101 22.195 128.402 22.195C126.393 22.195 124.693 20.9591 124.693 18.9504M131.646 17.7146C131.646 17.7146 130.874 17.096 129.328 17.096C127.474 17.096 126.702 18.177 126.702 18.9498C126.702 20.0307 127.782 20.4949 128.71 20.4949C130.101 20.4949 131.646 19.2591 131.646 17.7146Z" fill="#757575"/>
<path fill-rule="evenodd" clip-rule="evenodd" d="M139.822 26.2184L141.985 21.114L138.123 12.1533H139.976L142.912 18.951L145.847 12.1533H147.701L141.676 26.2184H139.822ZM167.013 15.4044C166.549 14.1674 165.468 13.3957 164.387 13.3957C162.842 13.3957 161.452 14.7865 161.452 16.7946C161.452 18.8027 162.843 20.1935 164.387 20.1935C165.468 20.1935 166.55 19.4212 167.014 18.3397L168.559 19.2669C167.787 20.9663 166.241 22.0472 164.387 22.0472C161.76 22.0472 159.597 19.7293 159.597 16.7946C159.597 13.7044 161.76 11.5413 164.387 11.5413C166.241 11.5413 167.786 12.6222 168.559 14.3217L167.014 15.4026L167.013 15.4044Z" fill="#757575"/>
<path d="M173.657 22.2022C176.129 22.2022 177.365 20.8114 177.365 19.1119C177.365 15.4038 171.958 16.794 171.958 14.6322C171.958 13.8599 172.576 13.3963 173.657 13.3963C174.738 13.3963 175.82 13.8599 176.284 14.6322L177.365 13.5512C176.746 12.779 175.047 11.6975 173.502 11.6975C171.184 11.6975 169.949 13.0882 169.949 14.7877C169.949 18.3409 175.511 17.1056 175.511 18.9594C175.511 19.8866 174.892 20.5045 173.657 20.5045C172.422 20.5045 171.803 19.7323 171.185 18.9594L169.795 20.0403C170.722 20.9675 172.113 22.2034 173.657 22.2034V22.2022ZM156.044 21.8929H157.898V12.0055H156.044V21.8929Z" fill="#757575"/>
<path fill-rule="evenodd" clip-rule="evenodd" d="M156.817 7.21587C157.589 7.21587 158.053 7.83439 158.053 8.45172C158.053 9.22397 157.434 9.68756 156.817 9.68756C156.2 9.68756 155.581 9.06904 155.581 8.45172C155.581 7.83439 156.2 7.21587 156.817 7.21587ZM154.191 20.349L154.5 21.7398H152.647C150.947 21.7398 150.175 20.5039 150.175 18.6496V13.8599H148.321V12.0061H150.175V9.07084H152.029V12.0061H154.192V13.8599H152.029V18.9642C152.029 20.355 153.11 20.355 154.192 20.355L154.191 20.349Z" fill="#757575"/>
<path d="M40.325 13.3957V15.7137H45.7326C45.5783 16.9495 45.1141 17.8767 44.4967 18.494C43.7245 19.2663 42.488 20.1935 40.325 20.1935C37.0805 20.1935 34.4538 17.5668 34.4538 14.168C34.4538 10.9234 37.0805 8.14246 40.325 8.14246C42.1788 8.14246 43.4152 8.91471 44.3484 9.68756L45.8935 8.14246C44.5027 6.90661 42.8033 5.82449 40.3316 5.82449C35.8518 5.82449 31.9887 9.53263 31.9887 14.013C31.9887 18.4934 35.8452 22.201 40.3256 22.201C42.7973 22.201 44.6517 21.4287 46.0424 19.883C47.5876 18.3379 48.0512 16.3298 48.0512 14.6297C48.0512 14.1662 48.0512 13.5488 47.8968 13.239H40.3304L40.325 13.3957ZM54.0755 11.5479C51.1402 11.5479 48.8222 13.711 48.8222 16.8012C48.8222 19.8914 51.1402 22.0538 54.0755 22.0538C57.0107 22.0538 59.3287 19.7359 59.3287 16.8012C59.3287 13.711 57.0107 11.5479 54.0755 11.5479ZM54.0755 20.0451C52.5303 20.0451 51.1402 18.6544 51.1402 16.8006C51.1402 14.9468 52.5309 13.556 54.0755 13.556C55.62 13.556 57.0107 14.7919 57.0107 16.8006C57.0107 18.8093 55.62 20.0451 54.0755 20.0451ZM79.4133 12.6289C78.7948 12.0103 77.8682 11.393 76.478 11.393C73.8514 11.393 71.534 13.711 71.534 16.6463C71.534 19.5815 73.852 21.8989 76.478 21.8989C77.7139 21.8989 78.796 21.2804 79.2584 20.6631H79.4127V21.4353C79.4127 23.444 78.3318 24.5255 76.6324 24.5255C75.2416 24.5255 74.3144 23.4446 74.0057 22.6718L71.997 23.444C72.6155 24.8348 74.1601 26.5342 76.6318 26.5342C79.4121 26.5342 81.7361 24.9891 81.7361 20.9723V11.3942H79.5731V12.6301L79.4133 12.6289ZM76.7867 20.0451C75.2416 20.0451 74.0063 18.6544 74.0063 16.8006C74.0063 14.9468 75.2422 13.556 76.7867 13.556C78.3312 13.556 79.567 14.9468 79.567 16.8006C79.567 18.6544 78.3312 20.0451 76.7867 20.0451ZM65.5079 11.5479C62.5727 11.5479 60.2547 13.711 60.2547 16.8012C60.2547 19.8914 62.5727 22.0538 65.5079 22.0538C68.4432 22.0538 70.7612 19.7359 70.7612 16.8012C70.9155 13.711 68.4432 11.5479 65.5079 11.5479ZM65.5079 20.0451C63.9628 20.0451 62.5727 18.6544 62.5727 16.8006C62.5727 14.9468 63.9634 13.556 65.5079 13.556C67.0524 13.556 68.4432 14.7919 68.4432 16.8006C68.4432 18.8093 67.0524 20.0451 65.5079 20.0451ZM83.4301 5.98002H85.7481V22.0478H83.4301V5.98002ZM92.0822 20.0391C90.8464 20.0391 90.0735 19.4206 89.4556 18.494L96.5626 15.5587L96.2534 14.9402C95.7898 13.7044 94.3996 11.5413 91.7736 11.5413C88.9932 11.5413 86.8296 13.7044 86.8296 16.7946C86.8296 19.7299 89.1476 22.0472 92.0828 22.0472C94.5545 22.0472 95.9453 20.5021 96.5626 19.7293L94.7089 18.4934C94.0903 19.4206 93.3181 20.0391 92.0822 20.0391ZM91.9279 13.55C92.8551 13.55 93.6273 14.0136 93.9366 14.7859L89.1469 16.7946C89.1469 14.4766 90.6927 13.55 91.9279 13.55Z" fill="#757575"/>
<path d="M18.1348 3.34091V24.3409C18.1348 26.6907 19.7576 28 21.4758 28C23.0667 28 24.8167 26.8864 24.8167 24.3409V3.5C24.8167 1.34591 23.2258 0 21.4758 0C19.7257 0 18.1348 1.48432 18.1348 3.34091Z" fill="#F9AB00"/>
<path d="M9.3848 14V24.3409C9.3848 26.6907 11.0075 28 12.7257 28C14.3166 28 16.0666 26.8864 16.0666 24.3409V14.1591C16.0666 12.005 14.4757 10.6591 12.7257 10.6591C10.9757 10.6591 9.3848 12.1434 9.3848 14Z" fill="#E37400"/>
<path d="M3.97569 28C5.82083 28 7.31661 26.5042 7.31661 24.6591C7.31661 22.814 5.82083 21.3182 3.97569 21.3182C2.13055 21.3182 0.634766 22.814 0.634766 24.6591C0.634766 26.5042 2.13055 28 3.97569 28Z" fill="#E37400"/>
</svg>
