<svg width="158" height="26" viewBox="0 0 158 26" fill="none" xmlns="http://www.w3.org/2000/svg">
<path d="M9.98375 6.10352e-05H10.6921C13.1511 0.053519 15.5701 1.04249 17.3075 2.79324C16.666 3.4481 16.0111 4.07623 15.383 4.73109C14.4074 3.84903 13.2313 3.16744 11.9483 2.92688C10.0506 2.52595 8.0058 2.88679 6.41543 3.96931C4.67805 5.10529 3.50197 7.02978 3.24805 9.08791C2.96739 11.1193 3.54207 13.2576 4.86515 14.8346C6.13478 16.3715 8.07263 17.3338 10.0773 17.4006C11.9483 17.5075 13.8995 16.9329 15.2627 15.6231C16.3319 14.701 16.8264 13.2977 16.9867 11.9345C14.7682 11.9345 12.5497 11.9479 10.3312 11.9345V9.18146H19.673C20.1541 12.135 19.4592 15.4628 17.2139 17.5744C15.7171 19.0712 13.6456 19.9532 11.534 20.127C9.48926 20.3274 7.37767 19.9399 5.5601 18.9509C3.38169 17.7882 1.64431 15.8236 0.788983 13.5116C-0.0128857 11.3866 -0.0262502 8.98099 0.722161 6.84268C1.40375 4.89146 2.71347 3.16744 4.39739 1.96464C6.0145 0.775201 7.97907 0.120341 9.98375 6.10352e-05Z" fill="#3780FF"/>
<path d="M63.5752 0.695007H66.4352V19.7795C65.4863 19.7795 64.5241 19.7929 63.5752 19.7661C63.5886 13.418 63.5752 7.0565 63.5752 0.695007Z" fill="#38B137"/>
<path d="M26.0346 7.31051C27.7987 6.9764 29.7098 7.3506 31.1665 8.4064C32.4896 9.34191 33.4118 10.812 33.6924 12.4157C34.0532 14.2734 33.5989 16.3048 32.3961 17.7749C31.0997 19.4187 28.9747 20.3008 26.9032 20.1671C25.0055 20.0602 23.1612 19.1113 22.0386 17.5611C20.769 15.8504 20.4616 13.4983 21.1565 11.4936C21.8515 9.34191 23.8161 7.69808 26.0346 7.31051ZM26.4355 9.84976C25.7138 10.0369 25.0456 10.4512 24.5645 11.0392C23.2681 12.5895 23.3483 15.1154 24.7783 16.5587C25.5935 17.3873 26.8231 17.7749 27.959 17.5477C29.0148 17.3606 29.937 16.6523 30.4448 15.7168C31.3269 14.1264 31.073 11.9346 29.7232 10.6917C28.8545 9.88985 27.5848 9.55574 26.4355 9.84976Z" fill="#FA3913"/>
<path d="M40.2008 7.31033C42.2188 6.92276 44.4239 7.48407 45.9341 8.90071C48.3932 11.1058 48.6605 15.2355 46.5623 17.7747C45.2926 19.3785 43.2345 20.2605 41.2031 20.167C39.2653 20.1135 37.3541 19.1513 36.2048 17.5609C34.9084 15.8101 34.6278 13.4045 35.3628 11.3598C36.0979 9.27491 38.0224 7.68454 40.2008 7.31033ZM40.6017 9.84958C39.88 10.0367 39.2118 10.451 38.7307 11.0257C37.4477 12.5492 37.5011 15.035 38.8777 16.4917C39.6929 17.3604 40.9625 17.7881 42.1386 17.5475C43.181 17.3471 44.1166 16.6521 44.6244 15.7166C45.4931 14.1129 45.2392 11.9211 43.876 10.6782C43.0073 9.87631 41.7377 9.55557 40.6017 9.84958Z" fill="#FCBD06"/>
<path d="M52.2155 8.0854C53.7524 7.12316 55.7972 6.85587 57.4544 7.68447C57.9756 7.91166 58.4032 8.29923 58.8175 8.6868C58.8309 8.32596 58.8175 7.95176 58.8309 7.57755C59.7263 7.59091 60.6217 7.57755 61.5305 7.59091V19.3784C61.5172 21.1559 61.0628 23.0403 59.7798 24.3366C58.3765 25.7666 56.2248 26.2076 54.287 25.9136C52.2155 25.6062 50.4113 24.0961 49.6094 22.1849C50.4113 21.7974 51.2532 21.49 52.0818 21.1291C52.5496 22.225 53.4985 23.1605 54.6879 23.3744C55.8773 23.5882 57.2539 23.2942 58.029 22.3052C58.8576 21.2895 58.8576 19.8996 58.8175 18.6567C58.2028 19.2581 57.4945 19.7927 56.6391 19.9932C54.7815 20.5144 52.7367 19.8729 51.3067 18.6166C49.8633 17.3604 49.008 15.4225 49.0882 13.498C49.1283 11.3196 50.3578 9.22138 52.2155 8.0854ZM54.9819 9.79605C54.1667 9.9297 53.4049 10.3841 52.8837 11.0122C51.6274 12.509 51.6274 14.9013 52.8971 16.3714C53.6188 17.2401 54.7815 17.7212 55.9041 17.6009C56.9599 17.494 57.9355 16.8258 58.4567 15.9036C59.3387 14.34 59.1917 12.215 58.0023 10.8518C57.2673 10.0099 56.0912 9.59559 54.9819 9.79605Z" fill="#3780FF"/>
<path d="M69.8696 8.76733C71.4733 7.27051 73.9458 6.76266 76.0039 7.55117C77.9551 8.28621 79.198 10.1439 79.8261 12.055C76.926 13.2578 74.0393 14.4472 71.1392 15.65C71.5402 16.4118 72.1549 17.1068 72.9835 17.3874C74.1462 17.8017 75.5361 17.6547 76.5117 16.8796C76.8993 16.5856 77.2067 16.198 77.5007 15.8238C78.2358 16.3183 78.9708 16.7994 79.7058 17.2939C78.6634 18.8575 76.9127 19.9534 75.0283 20.1271C72.9434 20.3811 70.7249 19.5792 69.3751 17.9487C67.1566 15.3828 67.3704 11.0794 69.8696 8.76733ZM71.2996 11.2398C70.8452 11.8946 70.6581 12.6965 70.6715 13.485C72.6093 12.6831 74.5472 11.8813 76.485 11.066C76.1643 10.3176 75.3891 9.86322 74.6006 9.74294C73.331 9.51575 72.0079 10.1973 71.2996 11.2398Z" fill="#FA3913"/>
<path d="M94.2862 20.2399C93.3928 20.2399 92.5862 20.0599 91.8662 19.6999C91.1595 19.3399 90.5995 18.7466 90.1862 17.9199C89.7728 17.0933 89.5662 15.9799 89.5662 14.5799V6.87994H91.2262V14.6199C91.2262 15.6733 91.3595 16.5066 91.6262 17.1199C91.9062 17.7199 92.2728 18.1466 92.7262 18.3999C93.1928 18.6533 93.7128 18.7799 94.2862 18.7799C94.8728 18.7799 95.3995 18.6533 95.8662 18.3999C96.3328 18.1466 96.6995 17.7199 96.9662 17.1199C97.2462 16.5066 97.3862 15.6733 97.3862 14.6199V6.87994H98.9862V14.5799C98.9862 15.9799 98.7795 17.0933 98.3662 17.9199C97.9528 18.7466 97.3928 19.3399 96.6862 19.6999C95.9795 20.0599 95.1795 20.2399 94.2862 20.2399ZM102.357 24.0999V10.2799H103.717L103.857 11.3999H103.917C104.357 11.0266 104.837 10.7066 105.357 10.4399C105.89 10.1733 106.443 10.0399 107.017 10.0399C108.27 10.0399 109.223 10.4933 109.877 11.3999C110.53 12.2933 110.857 13.4933 110.857 14.9999C110.857 16.0933 110.657 17.0333 110.257 17.8199C109.87 18.6066 109.357 19.2066 108.717 19.6199C108.09 20.0333 107.403 20.2399 106.657 20.2399C106.203 20.2399 105.75 20.1399 105.297 19.9399C104.857 19.7399 104.41 19.4666 103.957 19.1199L103.997 20.8199V24.0999H102.357ZM106.377 18.8599C107.177 18.8599 107.837 18.5199 108.357 17.8399C108.89 17.1466 109.157 16.1999 109.157 14.9999C109.157 13.9333 108.957 13.0733 108.557 12.4199C108.17 11.7533 107.517 11.4199 106.597 11.4199C106.183 11.4199 105.763 11.5333 105.337 11.7599C104.923 11.9866 104.477 12.3133 103.997 12.7399V17.8399C104.437 18.2133 104.863 18.4799 105.277 18.6399C105.69 18.7866 106.057 18.8599 106.377 18.8599ZM116.771 20.2399C115.557 20.2399 114.584 19.7999 113.851 18.9199C113.117 18.0266 112.751 16.7733 112.751 15.1599C112.751 14.1066 112.944 13.1999 113.331 12.4399C113.731 11.6666 114.251 11.0733 114.891 10.6599C115.544 10.2466 116.237 10.0399 116.971 10.0399C117.531 10.0399 118.017 10.1399 118.431 10.3399C118.844 10.5399 119.264 10.8133 119.691 11.1599L119.611 9.49994V5.75994H121.271V19.9999H119.911L119.771 18.8599H119.711C119.337 19.2333 118.897 19.5599 118.391 19.8399C117.884 20.1066 117.344 20.2399 116.771 20.2399ZM117.131 18.8599C117.984 18.8599 118.811 18.4133 119.611 17.5199V12.4399C119.197 12.0666 118.797 11.8066 118.411 11.6599C118.037 11.4999 117.651 11.4199 117.251 11.4199C116.731 11.4199 116.257 11.5799 115.831 11.8999C115.417 12.2066 115.084 12.6399 114.831 13.1999C114.577 13.7466 114.451 14.3933 114.451 15.1399C114.451 16.2999 114.684 17.2133 115.151 17.8799C115.617 18.5333 116.277 18.8599 117.131 18.8599ZM126.784 20.2399C125.971 20.2399 125.291 19.9999 124.744 19.5199C124.211 19.0266 123.944 18.3466 123.944 17.4799C123.944 16.4133 124.418 15.5999 125.364 15.0399C126.324 14.4666 127.838 14.0666 129.904 13.8399C129.904 13.4266 129.844 13.0333 129.724 12.6599C129.618 12.2866 129.418 11.9866 129.124 11.7599C128.844 11.5199 128.438 11.3999 127.904 11.3999C127.344 11.3999 126.818 11.5066 126.324 11.7199C125.831 11.9333 125.391 12.1733 125.004 12.4399L124.364 11.2999C124.818 11.0066 125.371 10.7266 126.024 10.4599C126.691 10.1799 127.411 10.0399 128.184 10.0399C129.371 10.0399 130.231 10.4066 130.764 11.1399C131.298 11.8599 131.564 12.8266 131.564 14.0399V19.9999H130.204L130.064 18.8399H130.004C129.551 19.2133 129.051 19.5399 128.504 19.8199C127.971 20.0999 127.398 20.2399 126.784 20.2399ZM127.264 18.9199C127.731 18.9199 128.171 18.8066 128.584 18.5799C128.998 18.3533 129.438 18.0333 129.904 17.6199V14.9199C128.291 15.1199 127.158 15.4199 126.504 15.8199C125.864 16.2199 125.544 16.7333 125.544 17.3599C125.544 17.9066 125.711 18.3066 126.044 18.5599C126.378 18.7999 126.784 18.9199 127.264 18.9199ZM137.409 20.2399C136.369 20.2399 135.642 19.9399 135.229 19.3399C134.829 18.7399 134.629 17.9599 134.629 16.9999V11.6199H133.189V10.3799L134.709 10.2799L134.909 7.55994H136.289V10.2799H138.909V11.6199H136.289V17.0199C136.289 17.6199 136.396 18.0866 136.609 18.4199C136.836 18.7399 137.229 18.8999 137.789 18.8999C137.962 18.8999 138.149 18.8733 138.349 18.8199C138.549 18.7533 138.729 18.6933 138.889 18.6399L139.209 19.8799C138.942 19.9733 138.649 20.0533 138.329 20.1199C138.022 20.1999 137.716 20.2399 137.409 20.2399ZM144.773 20.2399C143.907 20.2399 143.12 20.0399 142.413 19.6399C141.707 19.2266 141.147 18.6399 140.733 17.8799C140.32 17.1199 140.113 16.2133 140.113 15.1599C140.113 14.0933 140.32 13.1799 140.733 12.4199C141.16 11.6599 141.707 11.0733 142.373 10.6599C143.04 10.2466 143.74 10.0399 144.473 10.0399C145.713 10.0399 146.667 10.4533 147.333 11.2799C148.013 12.1066 148.353 13.2133 148.353 14.5999C148.353 14.7733 148.347 14.9466 148.333 15.1199C148.333 15.2799 148.32 15.4199 148.293 15.5399H141.733C141.8 16.5666 142.12 17.3866 142.693 17.9999C143.28 18.6133 144.04 18.9199 144.973 18.9199C145.44 18.9199 145.867 18.8533 146.253 18.7199C146.653 18.5733 147.033 18.3866 147.393 18.1599L147.973 19.2399C147.56 19.5066 147.087 19.7399 146.553 19.9399C146.033 20.1399 145.44 20.2399 144.773 20.2399ZM141.713 14.3599H146.913C146.913 13.3733 146.7 12.6266 146.273 12.1199C145.86 11.5999 145.273 11.3399 144.513 11.3399C143.833 11.3399 143.22 11.6066 142.673 12.1399C142.14 12.6599 141.82 13.3999 141.713 14.3599ZM153.295 20.2399C152.602 20.2399 151.942 20.1133 151.315 19.8599C150.689 19.5933 150.142 19.2733 149.675 18.8999L150.495 17.7999C150.922 18.1333 151.362 18.4133 151.815 18.6399C152.269 18.8533 152.782 18.9599 153.355 18.9599C153.995 18.9599 154.475 18.8133 154.795 18.5199C155.115 18.2133 155.275 17.8533 155.275 17.4399C155.275 17.1066 155.162 16.8266 154.935 16.5999C154.722 16.3733 154.442 16.1866 154.095 16.0399C153.762 15.8799 153.415 15.7333 153.055 15.5999C152.602 15.4266 152.155 15.2333 151.715 15.0199C151.275 14.7933 150.915 14.5066 150.635 14.1599C150.355 13.7999 150.215 13.3466 150.215 12.7999C150.215 12.0133 150.509 11.3599 151.095 10.8399C151.695 10.3066 152.522 10.0399 153.575 10.0399C154.175 10.0399 154.735 10.1466 155.255 10.3599C155.775 10.5733 156.222 10.8333 156.595 11.1399L155.795 12.1799C155.462 11.9266 155.115 11.7199 154.755 11.5599C154.395 11.3999 154.002 11.3199 153.575 11.3199C152.962 11.3199 152.509 11.4599 152.215 11.7399C151.935 12.0199 151.795 12.3466 151.795 12.7199C151.795 13.0266 151.895 13.2799 152.095 13.4799C152.295 13.6666 152.555 13.8333 152.875 13.9799C153.195 14.1133 153.535 14.2533 153.895 14.3999C154.362 14.5733 154.822 14.7733 155.275 14.9999C155.729 15.2133 156.102 15.5066 156.395 15.8799C156.702 16.2399 156.855 16.7266 156.855 17.3399C156.855 17.8599 156.715 18.3399 156.435 18.7799C156.169 19.2199 155.769 19.5733 155.235 19.8399C154.715 20.1066 154.069 20.2399 153.295 20.2399Z" fill="#333333"/>
</svg>
