<svg width="108" height="40" viewBox="0 0 108 40" fill="none" xmlns="http://www.w3.org/2000/svg">
<path d="M15.5187 5.03666C15.9418 3.92592 16.5236 2.90334 17.3875 2.07469C20.8432 -1.29279 26.5555 -0.446515 28.9004 3.78488C30.6635 6.99368 32.5324 10.132 34.3484 13.3055L43.4458 29.138C45.9671 33.5633 43.2343 39.1523 38.2271 39.9104C35.1594 40.3688 32.2856 38.9583 30.6988 36.2079L22.6944 22.3148C22.6415 22.2091 22.571 22.1209 22.5005 22.0328C22.2184 21.8036 22.0949 21.4686 21.9186 21.1688L16.03 10.9606C15.3424 9.76172 15.025 8.45704 15.0603 7.08184C15.1132 6.37661 15.2013 5.67137 15.5187 5.03666Z" fill="#3C8BD9"/>
<path d="M15.5187 5.03668C15.3601 5.67139 15.219 6.3061 15.1838 6.97607C15.1309 8.45706 15.5011 9.83226 16.2416 11.1193L22.0421 21.1512C22.2184 21.451 22.3595 21.7507 22.5358 22.0328L19.3446 27.516L14.884 35.203C14.8135 35.203 14.7959 35.1677 14.7782 35.1148C14.7606 34.9738 14.8135 34.8504 14.8488 34.7093C15.5716 32.0647 14.9722 29.7198 13.1562 27.7099C12.0455 26.4934 10.635 25.8058 9.01297 25.5766C6.89727 25.2768 5.02841 25.8234 3.35348 27.1457C3.05376 27.3749 2.85982 27.7099 2.5072 27.8862C2.43668 27.8862 2.40142 27.8509 2.38379 27.798L4.90499 23.408L15.3953 5.23062C15.4306 5.1601 15.4835 5.10721 15.5187 5.03668Z" fill="#FABC04"/>
<path d="M2.45431 27.8509L3.45926 26.9517C7.74355 23.5666 14.1788 26.0173 15.1132 31.3771C15.3424 32.6641 15.219 33.8983 14.8311 35.1324C14.8135 35.2382 14.7959 35.3264 14.7606 35.4322C14.6019 35.7142 14.4609 36.014 14.2846 36.2961C12.7154 38.8878 10.4058 40.1748 7.3733 39.9809C3.90003 39.7341 1.16726 37.1247 0.691227 33.6691C0.462026 31.9941 0.797011 30.425 1.66092 28.9793C1.83723 28.6619 2.0488 28.3798 2.24274 28.0625C2.33089 27.992 2.29563 27.8509 2.45431 27.8509Z" fill="#34A852"/>
<path d="M2.45449 27.8509C2.38397 27.9214 2.38397 28.0449 2.26055 28.0625C2.24292 27.9391 2.31344 27.8685 2.38397 27.7804L2.45449 27.8509Z" fill="#FABC04"/>
<path d="M14.7607 35.4322C14.6901 35.3088 14.7607 35.2206 14.8312 35.1324L14.9017 35.203L14.7607 35.4322Z" fill="#E1C025"/>
<path d="M51.4171 3.57819C46.8905 3.57819 43.125 7.2235 43.125 11.71C43.125 16.1966 46.8905 19.8018 51.4171 19.8018C53.8606 19.8018 55.6632 19.0006 57.1053 17.5185C58.5875 16.0363 59.0281 13.9933 59.0281 12.351C59.0281 11.8302 58.9881 11.3495 58.908 10.9489H51.4171V13.1521H56.7448C56.5846 14.3939 56.184 15.3153 55.5431 15.9562C54.782 16.7173 53.5402 17.5986 51.4171 17.5986C48.1323 17.5986 45.5686 14.9548 45.5686 11.71C45.5686 8.46531 48.1323 5.82145 51.4171 5.82145C53.1796 5.82145 54.5016 6.50244 55.4229 7.42379L56.9852 5.86151C55.6632 4.57965 53.9007 3.57819 51.4171 3.57819ZM64.9968 9.38664C62.1527 9.38664 59.7893 11.5899 59.7893 14.6743C59.7893 17.7188 62.1126 19.962 64.9968 19.962C67.881 19.962 70.2044 17.7188 70.2044 14.6743C70.2044 11.6299 67.841 9.38664 64.9968 9.38664ZM64.9968 17.879C63.4346 17.879 62.0726 16.5571 62.0726 14.6743C62.0726 12.7916 63.4346 11.4697 64.9968 11.4697C66.5591 11.4697 67.9211 12.7515 67.9211 14.6743C67.9211 16.5571 66.5591 17.879 64.9968 17.879ZM76.2933 9.38664C73.4091 9.38664 71.0857 11.5899 71.0857 14.6743C71.0857 17.7188 73.4091 19.962 76.2933 19.962C79.1374 19.962 81.5009 17.7188 81.5009 14.6743C81.5009 11.6299 79.1775 9.38664 76.2933 9.38664ZM76.2933 17.879C74.731 17.879 73.369 16.5571 73.369 14.6743C73.369 12.7916 74.731 11.4697 76.2933 11.4697C77.8555 11.4697 79.2175 12.7515 79.2175 14.6743C79.2175 16.5571 77.8956 17.879 76.2933 17.879ZM87.5497 9.38664C84.9459 9.38664 82.5824 11.67 82.5824 14.6343C82.5824 17.5585 84.9459 19.8419 87.5497 19.8419C88.7915 19.8419 89.7529 19.281 90.2736 18.6401H90.3537V19.4012C90.3537 21.4041 89.3122 22.4857 87.5897 22.4857C86.1877 22.4857 85.3464 21.4842 84.9859 20.643L82.983 21.4843C83.5438 22.8863 85.066 24.5687 87.5897 24.5687C90.2736 24.5687 92.5169 22.9664 92.5169 19.1208V9.74716H90.3537V10.5884H90.2736C89.7529 9.94746 88.7915 9.38664 87.5497 9.38664ZM87.7499 17.7989C86.1877 17.7989 84.8657 16.477 84.8657 14.6343C84.8657 12.7916 86.1877 11.4296 87.7499 11.4296C89.3122 11.4296 90.514 12.7916 90.514 14.6343C90.514 16.477 89.3122 17.7989 87.7499 17.7989ZM94.1993 4.21912H96.4827V19.6816H94.1993V4.21912ZM102.612 9.38664C99.8876 9.38664 97.6043 11.5097 97.6043 14.6743C97.6043 17.6387 99.8476 19.962 102.852 19.962C105.295 19.962 106.698 18.4799 107.258 17.6387L105.456 16.4369C104.855 17.3182 104.014 17.879 102.852 17.879C101.65 17.879 100.809 17.3582 100.288 16.2767L107.379 13.3524L107.138 12.7515C106.698 11.5898 105.336 9.38664 102.612 9.38664ZM99.8876 14.5141C99.8075 12.4711 101.49 11.4296 102.652 11.4296C103.573 11.4296 104.374 11.8703 104.614 12.5512L99.8876 14.5141Z" fill="#757575"/>
<path d="M58.1919 38.2578L63.4796 24.1973H65.5226L70.8103 38.2578H68.8073L67.4454 34.4523H61.5568L60.1948 38.2578H58.1919ZM62.1577 32.7698H66.8445L64.5612 26.4406H64.4811L62.1577 32.7698ZM72.6529 37.0961C71.7717 36.0946 71.331 34.8929 71.331 33.4508C71.331 32.0488 71.7717 30.847 72.6529 29.8055C73.5743 28.804 74.6158 28.3233 75.8977 28.3233C76.6187 28.3233 77.2596 28.4836 77.8205 28.764C78.4213 29.0844 78.862 29.445 79.1824 29.9657H79.2626L79.1824 28.6438V24.1973H80.9851V38.2578H79.2626V36.9359H79.1824C78.862 37.4166 78.4213 37.8172 77.8205 38.1376C77.2196 38.4581 76.5787 38.5783 75.8977 38.5783C74.6158 38.5783 73.5342 38.0976 72.6529 37.0961ZM78.3412 35.9745C78.9421 35.3335 79.2225 34.4923 79.2225 33.4508C79.2225 32.4493 78.9421 31.6081 78.3412 30.9672C77.7804 30.3262 77.0594 30.0058 76.1781 30.0058C75.2968 30.0058 74.5757 30.3262 74.0149 30.9672C73.414 31.6081 73.1336 32.4493 73.1336 33.4508C73.1336 34.4523 73.414 35.2935 74.0149 35.9344C74.6158 36.5753 75.3369 36.8958 76.1781 36.8958C77.0594 36.9359 77.7804 36.6154 78.3412 35.9745ZM89.3172 37.697C88.5961 38.2578 87.6748 38.5783 86.5532 38.5783C85.5918 38.5783 84.7506 38.3379 83.9894 37.8171C83.2684 37.2964 82.7476 36.6555 82.4272 35.8142L84.0295 35.1333C84.2698 35.6941 84.5903 36.1748 85.071 36.4952C85.5117 36.8157 86.0324 36.9759 86.5532 36.9759C87.114 36.9759 87.5947 36.8557 87.9953 36.6154C88.3959 36.375 88.5561 36.0546 88.5561 35.7341C88.5561 35.1333 88.0754 34.6525 87.154 34.3721L85.5117 33.9715C83.6289 33.4908 82.7076 32.6096 82.7076 31.2476C82.7076 30.3663 83.0681 29.6853 83.7892 29.1245C84.5102 28.6037 85.4315 28.3233 86.5131 28.3233C87.3267 28.3179 88.1276 28.525 88.8365 28.9242C89.5175 29.3248 89.9982 29.8856 90.2786 30.5666L88.6763 31.2476C88.476 30.847 88.1956 30.5265 87.795 30.2862C87.3944 30.0458 86.9137 29.9257 86.3929 29.9257C85.9122 29.9257 85.5117 30.0458 85.1111 30.2862C84.7506 30.5265 84.5503 30.8069 84.5503 31.1675C84.5503 31.7283 85.071 32.1289 86.1125 32.3292L87.5546 32.6897C89.4774 33.1704 90.3988 34.1318 90.3988 35.5739C90.4388 36.4151 90.0382 37.1362 89.3172 37.697Z" fill="#757575"/>
</svg>
