<svg width="30" height="30" viewBox="0 0 30 30" fill="none" xmlns="http://www.w3.org/2000/svg">
<path d="M10.2089 4.45145C10.4989 3.69029 10.8976 2.98954 11.4896 2.42169C13.8576 0.114042 17.7722 0.693974 19.3791 3.59363C20.5873 5.79254 21.8679 7.94312 23.1124 10.1179L29.3466 20.9674C31.0744 24 29.2017 27.83 25.7704 28.3495C23.6681 28.6636 21.6988 27.6971 20.6114 25.8123L15.1262 16.2917C15.09 16.2192 15.0417 16.1588 14.9933 16.0984C14.8 15.9413 14.7155 15.7118 14.5946 15.5064L10.5593 8.51097C10.0881 7.6894 9.87061 6.79534 9.89477 5.85295C9.93102 5.36967 9.99143 4.8864 10.2089 4.45145Z" fill="#3C8BD9"/>
<path d="M10.2089 4.45145C10.1002 4.8864 10.0036 5.32136 9.9794 5.78047C9.94315 6.79535 10.1969 7.73774 10.7043 8.61972L14.6793 15.4943C14.8001 15.6997 14.8967 15.9051 15.0176 16.0984L12.8307 19.8559L9.774 25.1236C9.72568 25.1236 9.71359 25.0994 9.70151 25.0632C9.68943 24.9665 9.72567 24.882 9.74984 24.7853C10.2452 22.973 9.83441 21.3661 8.58998 19.9888C7.82881 19.1551 6.86226 18.684 5.75073 18.5269C4.3009 18.3215 3.02021 18.696 1.87243 19.6022C1.66704 19.7592 1.53414 19.9888 1.2925 20.1096C1.24417 20.1096 1.22001 20.0855 1.20793 20.0492L2.93564 17.0408L10.1244 4.58436C10.1485 4.53603 10.1847 4.49978 10.2089 4.45145Z" fill="#FABC04"/>
<path d="M1.25625 20.0854L1.94492 19.4693C4.88082 17.1495 9.29072 18.8289 9.93106 22.5018C10.0881 23.3838 10.0036 24.2295 9.73775 25.0753C9.72567 25.1478 9.71359 25.2082 9.68943 25.2807C9.58069 25.474 9.48403 25.6794 9.36321 25.8727C8.28792 27.6487 6.70519 28.5307 4.6271 28.3978C2.24697 28.2286 0.374272 26.4405 0.0480602 24.0725C-0.109005 22.9247 0.120552 21.8494 0.712565 20.8587C0.833384 20.6412 0.978367 20.4479 1.11127 20.2304C1.17168 20.1821 1.14751 20.0854 1.25625 20.0854Z" fill="#34A852"/>
<path d="M1.25625 20.0854C1.20792 20.1338 1.20805 20.2183 1.12348 20.2304C1.1114 20.1458 1.15972 20.0975 1.20805 20.0371L1.25625 20.0854Z" fill="#FABC04"/>
<path d="M9.68943 25.2807C9.6411 25.1961 9.68943 25.1357 9.73775 25.0753L9.78612 25.1236L9.68943 25.2807Z" fill="#E1C025"/>
</svg>
