<svg width="30" height="30" viewBox="0 0 30 30" fill="none" xmlns="http://www.w3.org/2000/svg">
<path d="M25.5 3H24V0H21V3H9V0H6V3H4.5C2.835 3 1.515 4.35 1.515 6L1.5 27C1.5 27.7957 1.81607 28.5587 2.37868 29.1213C2.94129 29.6839 3.70435 30 4.5 30H25.5C27.15 30 28.5 28.65 28.5 27V6C28.5 4.35 27.15 3 25.5 3ZM25.5 27H4.5V12H25.5V27ZM25.5 9H4.5V6H25.5V9ZM10.5 18H7.5V15H10.5V18ZM16.5 24H13.5V21H16.5V24ZM22.5 24H19.5V21H22.5V24Z" fill="url(#paint0_linear_930_9500)"/>
<path d="M13.5 18H16.5V15H13.5V18Z" fill="#FF8431"/>
<path d="M19.5 18H22.5V15H19.5V18Z" fill="#FF8431"/>
<path d="M7.5 24H10.5V21H7.5V24Z" fill="#FF8431"/>
<defs>
<linearGradient id="paint0_linear_930_9500" x1="15" y1="0" x2="15" y2="30" gradientUnits="userSpaceOnUse">
<stop offset="0.275742" stop-color="#0380DC"/>
<stop offset="1" stop-color="#0061D3"/>
</linearGradient>
</defs>
</svg>
