<svg width="105" height="25" viewBox="0 0 105 25" fill="none" xmlns="http://www.w3.org/2000/svg">
<rect width="105" height="25" fill="white"/>
<path d="M20.4002 2.9H19.2002V0.5H16.8002V2.9H7.20019V0.5H4.8002V2.9H3.6002C2.2682 2.9 1.2122 3.98 1.2122 5.3L1.2002 22.1C1.2002 22.7365 1.45305 23.347 1.90314 23.7971C2.35323 24.2471 2.96368 24.5 3.6002 24.5H20.4002C21.7202 24.5 22.8002 23.42 22.8002 22.1V5.3C22.8002 3.98 21.7202 2.9 20.4002 2.9ZM20.4002 22.1H3.6002V10.1H20.4002V22.1ZM20.4002 7.7H3.6002V5.3H20.4002V7.7ZM8.4002 14.9H6.0002V12.5H8.4002V14.9ZM13.2002 19.7H10.8002V17.3H13.2002V19.7ZM18.0002 19.7H15.6002V17.3H18.0002V19.7Z" fill="url(#paint0_linear_2874_11503)"/>
<path d="M10.8002 14.9H13.2002V12.5H10.8002V14.9Z" fill="#FF8431"/>
<path d="M15.6002 14.9H18.0002V12.5H15.6002V14.9Z" fill="#FF8431"/>
<path d="M6.0002 19.7H8.4002V17.3H6.0002V19.7Z" fill="#FF8431"/>
<path d="M33.8 20V6.88H35.46V12.38H41.56V6.88H43.24V20H41.56V13.82H35.46V20H33.8ZM50.4669 20.24C49.6802 20.24 48.9402 20.04 48.2469 19.64C47.5669 19.24 47.0135 18.66 46.5869 17.9C46.1735 17.14 45.9669 16.2267 45.9669 15.16C45.9669 14.0667 46.1735 13.14 46.5869 12.38C47.0135 11.62 47.5669 11.04 48.2469 10.64C48.9402 10.24 49.6802 10.04 50.4669 10.04C51.2669 10.04 52.0069 10.24 52.6869 10.64C53.3669 11.04 53.9135 11.62 54.3269 12.38C54.7535 13.14 54.9669 14.0667 54.9669 15.16C54.9669 16.2267 54.7535 17.14 54.3269 17.9C53.9135 18.66 53.3669 19.24 52.6869 19.64C52.0069 20.04 51.2669 20.24 50.4669 20.24ZM50.4669 18.88C51.3069 18.88 51.9802 18.54 52.4869 17.86C53.0069 17.1667 53.2669 16.2667 53.2669 15.16C53.2669 14.04 53.0069 13.1333 52.4869 12.44C51.9802 11.7467 51.3069 11.4 50.4669 11.4C49.6402 11.4 48.9669 11.7467 48.4469 12.44C47.9269 13.1333 47.6669 14.04 47.6669 15.16C47.6669 16.2667 47.9269 17.1667 48.4469 17.86C48.9669 18.54 49.6402 18.88 50.4669 18.88ZM59.2667 20.24C58.6534 20.24 58.2067 20.0533 57.9267 19.68C57.6601 19.2933 57.5267 18.7467 57.5267 18.04V5.76H59.1667V18.16C59.1667 18.4133 59.2134 18.6 59.3067 18.72C59.4001 18.8267 59.5067 18.88 59.6267 18.88C59.6801 18.88 59.7267 18.88 59.7667 18.88C59.8201 18.8667 59.8934 18.8533 59.9867 18.84L60.2067 20.08C60.1001 20.1333 59.9734 20.1733 59.8267 20.2C59.6801 20.2267 59.4934 20.24 59.2667 20.24ZM62.6244 20V10.28H64.2644V20H62.6244ZM63.4644 8.28C63.1444 8.28 62.8777 8.18667 62.6644 8C62.4644 7.8 62.3644 7.53333 62.3644 7.2C62.3644 6.88 62.4644 6.62 62.6644 6.42C62.8777 6.22 63.1444 6.12 63.4644 6.12C63.7844 6.12 64.0444 6.22 64.2444 6.42C64.4577 6.62 64.5644 6.88 64.5644 7.2C64.5644 7.53333 64.4577 7.8 64.2444 8C64.0444 8.18667 63.7844 8.28 63.4644 8.28ZM70.8663 20.24C69.6529 20.24 68.6796 19.8 67.9463 18.92C67.2129 18.0267 66.8463 16.7733 66.8463 15.16C66.8463 14.1067 67.0396 13.2 67.4263 12.44C67.8263 11.6667 68.3463 11.0733 68.9863 10.66C69.6396 10.2467 70.3329 10.04 71.0663 10.04C71.6263 10.04 72.1129 10.14 72.5263 10.34C72.9396 10.54 73.3596 10.8133 73.7863 11.16L73.7063 9.5V5.76H75.3663V20H74.0063L73.8663 18.86H73.8063C73.4329 19.2333 72.9929 19.56 72.4863 19.84C71.9796 20.1067 71.4396 20.24 70.8663 20.24ZM71.2263 18.86C72.0796 18.86 72.9063 18.4133 73.7063 17.52V12.44C73.2929 12.0667 72.8929 11.8067 72.5063 11.66C72.1329 11.5 71.7463 11.42 71.3463 11.42C70.8263 11.42 70.3529 11.58 69.9263 11.9C69.5129 12.2067 69.1796 12.64 68.9263 13.2C68.6729 13.7467 68.5462 14.3933 68.5462 15.14C68.5462 16.3 68.7796 17.2133 69.2463 17.88C69.7129 18.5333 70.3729 18.86 71.2263 18.86ZM80.88 20.24C80.0667 20.24 79.3867 20 78.84 19.52C78.3067 19.0267 78.04 18.3467 78.04 17.48C78.04 16.4133 78.5133 15.6 79.46 15.04C80.42 14.4667 81.9333 14.0667 84 13.84C84 13.4267 83.94 13.0333 83.82 12.66C83.7133 12.2867 83.5133 11.9867 83.22 11.76C82.94 11.52 82.5333 11.4 82 11.4C81.44 11.4 80.9133 11.5067 80.42 11.72C79.9267 11.9333 79.4867 12.1733 79.1 12.44L78.46 11.3C78.9133 11.0067 79.4667 10.7267 80.12 10.46C80.7867 10.18 81.5067 10.04 82.28 10.04C83.4667 10.04 84.3267 10.4067 84.86 11.14C85.3933 11.86 85.66 12.8267 85.66 14.04V20H84.3L84.16 18.84H84.1C83.6467 19.2133 83.1467 19.54 82.6 19.82C82.0667 20.1 81.4933 20.24 80.88 20.24ZM81.36 18.92C81.8267 18.92 82.2667 18.8067 82.68 18.58C83.0933 18.3533 83.5333 18.0333 84 17.62V14.92C82.3867 15.12 81.2533 15.42 80.6 15.82C79.96 16.22 79.64 16.7333 79.64 17.36C79.64 17.9067 79.8067 18.3067 80.14 18.56C80.4733 18.8 80.88 18.92 81.36 18.92ZM88.8781 24.18C88.6648 24.18 88.4581 24.16 88.2581 24.12C88.0715 24.08 87.8981 24.0333 87.7381 23.98L88.0581 22.68C88.1648 22.7067 88.2848 22.7333 88.4181 22.76C88.5515 22.8 88.6781 22.82 88.7981 22.82C89.3448 22.82 89.7981 22.62 90.1581 22.22C90.5181 21.8333 90.7981 21.34 90.9981 20.74L91.2181 20.02L87.3181 10.28H89.0181L90.9981 15.66C91.1448 16.0733 91.2981 16.52 91.4581 17C91.6315 17.48 91.7915 17.9467 91.9381 18.4H92.0181C92.1648 17.96 92.3048 17.5 92.4381 17.02C92.5715 16.54 92.7048 16.0867 92.8381 15.66L94.5781 10.28H96.1781L92.5181 20.8C92.2915 21.44 92.0181 22.0133 91.6981 22.52C91.3915 23.0267 91.0048 23.4267 90.5381 23.72C90.0848 24.0267 89.5315 24.18 88.8781 24.18ZM100.594 20.24C99.9007 20.24 99.2407 20.1133 98.6141 19.86C97.9874 19.5933 97.4407 19.2733 96.9741 18.9L97.7941 17.8C98.2207 18.1333 98.6607 18.4133 99.1141 18.64C99.5674 18.8533 100.081 18.96 100.654 18.96C101.294 18.96 101.774 18.8133 102.094 18.52C102.414 18.2133 102.574 17.8533 102.574 17.44C102.574 17.1067 102.461 16.8267 102.234 16.6C102.021 16.3733 101.741 16.1867 101.394 16.04C101.061 15.88 100.714 15.7333 100.354 15.6C99.9007 15.4267 99.4541 15.2333 99.0141 15.02C98.5741 14.7933 98.2141 14.5067 97.9341 14.16C97.6541 13.8 97.5141 13.3467 97.5141 12.8C97.5141 12.0133 97.8074 11.36 98.3941 10.84C98.9941 10.3067 99.8207 10.04 100.874 10.04C101.474 10.04 102.034 10.1467 102.554 10.36C103.074 10.5733 103.521 10.8333 103.894 11.14L103.094 12.18C102.761 11.9267 102.414 11.72 102.054 11.56C101.694 11.4 101.301 11.32 100.874 11.32C100.261 11.32 99.8074 11.46 99.5141 11.74C99.2341 12.02 99.0941 12.3467 99.0941 12.72C99.0941 13.0267 99.1941 13.28 99.3941 13.48C99.5941 13.6667 99.8541 13.8333 100.174 13.98C100.494 14.1133 100.834 14.2533 101.194 14.4C101.661 14.5733 102.121 14.7733 102.574 15C103.027 15.2133 103.401 15.5067 103.694 15.88C104.001 16.24 104.154 16.7267 104.154 17.34C104.154 17.86 104.014 18.34 103.734 18.78C103.467 19.22 103.067 19.5733 102.534 19.84C102.014 20.1067 101.367 20.24 100.594 20.24Z" fill="#333333"/>
<defs>
<linearGradient id="paint0_linear_2874_11503" x1="12.0002" y1="0.5" x2="12.0002" y2="24.5" gradientUnits="userSpaceOnUse">
<stop offset="0.275742" stop-color="#0380DC"/>
<stop offset="1" stop-color="#0061D3"/>
</linearGradient>
</defs>
</svg>
