<svg width="106" height="26" viewBox="0 0 106 26" fill="none" xmlns="http://www.w3.org/2000/svg">
<rect width="105" height="25" transform="translate(0.5 0.5)" fill="white"/>
<path d="M22.6217 13.2087C23.1435 13.9391 23.4565 14.7739 23.4565 15.6087V25H21.3696V21.8696H2.58696V25H0.5V9.34783H2.58696V18.7391H10.9348V12.0609C10.3087 10.913 9.8913 9.66087 9.8913 8.30435C9.8913 4.23478 13.1261 1 17.1957 1C21.2652 1 24.5 4.23478 24.5 8.30435C24.5 10.1826 23.7696 11.8522 22.6217 13.2087ZM11.9783 8.30435C11.9783 11.2261 14.2739 13.5217 17.1957 13.5217C20.1174 13.5217 22.413 11.2261 22.413 8.30435C22.413 5.38261 20.1174 3.08696 17.1957 3.08696C14.2739 3.08696 11.9783 5.38261 11.9783 8.30435Z" fill="url(#paint0_linear_187_2238)"/>
<path d="M16.1522 9.03478L19.4913 10.913L20.2217 9.55652L17.7174 8.09565V5.17391H16.1522V9.03478Z" fill="#FFC514"/>
<path d="M9.8913 14.5652C9.8913 16.3391 8.53478 17.6957 6.76087 17.6957C4.98696 17.6957 3.63043 16.3391 3.63043 14.5652C3.63043 12.7913 4.98696 11.4348 6.76087 11.4348C8.53478 11.4348 9.8913 12.7913 9.8913 14.5652Z" fill="#1EA8FD"/>
<path d="M34.3 20.5V7.38H35.96V12.88H42.06V7.38H43.74V20.5H42.06V14.32H35.96V20.5H34.3ZM50.9669 20.74C50.1802 20.74 49.4402 20.54 48.7469 20.14C48.0669 19.74 47.5135 19.16 47.0869 18.4C46.6735 17.64 46.4669 16.7267 46.4669 15.66C46.4669 14.5667 46.6735 13.64 47.0869 12.88C47.5135 12.12 48.0669 11.54 48.7469 11.14C49.4402 10.74 50.1802 10.54 50.9669 10.54C51.7669 10.54 52.5069 10.74 53.1869 11.14C53.8669 11.54 54.4135 12.12 54.8269 12.88C55.2535 13.64 55.4669 14.5667 55.4669 15.66C55.4669 16.7267 55.2535 17.64 54.8269 18.4C54.4135 19.16 53.8669 19.74 53.1869 20.14C52.5069 20.54 51.7669 20.74 50.9669 20.74ZM50.9669 19.38C51.8069 19.38 52.4802 19.04 52.9869 18.36C53.5069 17.6667 53.7669 16.7667 53.7669 15.66C53.7669 14.54 53.5069 13.6333 52.9869 12.94C52.4802 12.2467 51.8069 11.9 50.9669 11.9C50.1402 11.9 49.4669 12.2467 48.9469 12.94C48.4269 13.6333 48.1669 14.54 48.1669 15.66C48.1669 16.7667 48.4269 17.6667 48.9469 18.36C49.4669 19.04 50.1402 19.38 50.9669 19.38ZM59.7667 20.74C59.1534 20.74 58.7067 20.5533 58.4267 20.18C58.1601 19.7933 58.0267 19.2467 58.0267 18.54V6.26H59.6667V18.66C59.6667 18.9133 59.7134 19.1 59.8067 19.22C59.9001 19.3267 60.0067 19.38 60.1267 19.38C60.1801 19.38 60.2267 19.38 60.2667 19.38C60.3201 19.3667 60.3934 19.3533 60.4867 19.34L60.7067 20.58C60.6001 20.6333 60.4734 20.6733 60.3267 20.7C60.1801 20.7267 59.9934 20.74 59.7667 20.74ZM63.1244 20.5V10.78H64.7644V20.5H63.1244ZM63.9644 8.78C63.6444 8.78 63.3777 8.68667 63.1644 8.5C62.9644 8.3 62.8644 8.03333 62.8644 7.7C62.8644 7.38 62.9644 7.12 63.1644 6.92C63.3777 6.72 63.6444 6.62 63.9644 6.62C64.2844 6.62 64.5444 6.72 64.7444 6.92C64.9577 7.12 65.0644 7.38 65.0644 7.7C65.0644 8.03333 64.9577 8.3 64.7444 8.5C64.5444 8.68667 64.2844 8.78 63.9644 8.78ZM71.3663 20.74C70.1529 20.74 69.1796 20.3 68.4463 19.42C67.7129 18.5267 67.3463 17.2733 67.3463 15.66C67.3463 14.6067 67.5396 13.7 67.9263 12.94C68.3263 12.1667 68.8463 11.5733 69.4863 11.16C70.1396 10.7467 70.8329 10.54 71.5663 10.54C72.1263 10.54 72.6129 10.64 73.0263 10.84C73.4396 11.04 73.8596 11.3133 74.2863 11.66L74.2063 10V6.26H75.8663V20.5H74.5063L74.3663 19.36H74.3063C73.9329 19.7333 73.4929 20.06 72.9863 20.34C72.4796 20.6067 71.9396 20.74 71.3663 20.74ZM71.7263 19.36C72.5796 19.36 73.4063 18.9133 74.2063 18.02V12.94C73.7929 12.5667 73.3929 12.3067 73.0063 12.16C72.6329 12 72.2463 11.92 71.8463 11.92C71.3263 11.92 70.8529 12.08 70.4263 12.4C70.0129 12.7067 69.6796 13.14 69.4263 13.7C69.1729 14.2467 69.0462 14.8933 69.0462 15.64C69.0462 16.8 69.2796 17.7133 69.7463 18.38C70.2129 19.0333 70.8729 19.36 71.7263 19.36ZM81.38 20.74C80.5667 20.74 79.8867 20.5 79.34 20.02C78.8067 19.5267 78.54 18.8467 78.54 17.98C78.54 16.9133 79.0133 16.1 79.96 15.54C80.92 14.9667 82.4333 14.5667 84.5 14.34C84.5 13.9267 84.44 13.5333 84.32 13.16C84.2133 12.7867 84.0133 12.4867 83.72 12.26C83.44 12.02 83.0333 11.9 82.5 11.9C81.94 11.9 81.4133 12.0067 80.92 12.22C80.4267 12.4333 79.9867 12.6733 79.6 12.94L78.96 11.8C79.4133 11.5067 79.9667 11.2267 80.62 10.96C81.2867 10.68 82.0067 10.54 82.78 10.54C83.9667 10.54 84.8267 10.9067 85.36 11.64C85.8933 12.36 86.16 13.3267 86.16 14.54V20.5H84.8L84.66 19.34H84.6C84.1467 19.7133 83.6467 20.04 83.1 20.32C82.5667 20.6 81.9933 20.74 81.38 20.74ZM81.86 19.42C82.3267 19.42 82.7667 19.3067 83.18 19.08C83.5933 18.8533 84.0333 18.5333 84.5 18.12V15.42C82.8867 15.62 81.7533 15.92 81.1 16.32C80.46 16.72 80.14 17.2333 80.14 17.86C80.14 18.4067 80.3067 18.8067 80.64 19.06C80.9733 19.3 81.38 19.42 81.86 19.42ZM89.3781 24.68C89.1648 24.68 88.9581 24.66 88.7581 24.62C88.5715 24.58 88.3981 24.5333 88.2381 24.48L88.5581 23.18C88.6648 23.2067 88.7848 23.2333 88.9181 23.26C89.0515 23.3 89.1781 23.32 89.2981 23.32C89.8448 23.32 90.2981 23.12 90.6581 22.72C91.0181 22.3333 91.2981 21.84 91.4981 21.24L91.7181 20.52L87.8181 10.78H89.5181L91.4981 16.16C91.6448 16.5733 91.7981 17.02 91.9581 17.5C92.1315 17.98 92.2915 18.4467 92.4381 18.9H92.5181C92.6648 18.46 92.8048 18 92.9381 17.52C93.0715 17.04 93.2048 16.5867 93.3381 16.16L95.0781 10.78H96.6781L93.0181 21.3C92.7915 21.94 92.5181 22.5133 92.1981 23.02C91.8915 23.5267 91.5048 23.9267 91.0381 24.22C90.5848 24.5267 90.0315 24.68 89.3781 24.68ZM101.094 20.74C100.401 20.74 99.7407 20.6133 99.1141 20.36C98.4874 20.0933 97.9407 19.7733 97.4741 19.4L98.2941 18.3C98.7207 18.6333 99.1607 18.9133 99.6141 19.14C100.067 19.3533 100.581 19.46 101.154 19.46C101.794 19.46 102.274 19.3133 102.594 19.02C102.914 18.7133 103.074 18.3533 103.074 17.94C103.074 17.6067 102.961 17.3267 102.734 17.1C102.521 16.8733 102.241 16.6867 101.894 16.54C101.561 16.38 101.214 16.2333 100.854 16.1C100.401 15.9267 99.9541 15.7333 99.5141 15.52C99.0741 15.2933 98.7141 15.0067 98.4341 14.66C98.1541 14.3 98.0141 13.8467 98.0141 13.3C98.0141 12.5133 98.3074 11.86 98.8941 11.34C99.4941 10.8067 100.321 10.54 101.374 10.54C101.974 10.54 102.534 10.6467 103.054 10.86C103.574 11.0733 104.021 11.3333 104.394 11.64L103.594 12.68C103.261 12.4267 102.914 12.22 102.554 12.06C102.194 11.9 101.801 11.82 101.374 11.82C100.761 11.82 100.307 11.96 100.014 12.24C99.7341 12.52 99.5941 12.8467 99.5941 13.22C99.5941 13.5267 99.6941 13.78 99.8941 13.98C100.094 14.1667 100.354 14.3333 100.674 14.48C100.994 14.6133 101.334 14.7533 101.694 14.9C102.161 15.0733 102.621 15.2733 103.074 15.5C103.527 15.7133 103.901 16.0067 104.194 16.38C104.501 16.74 104.654 17.2267 104.654 17.84C104.654 18.36 104.514 18.84 104.234 19.28C103.967 19.72 103.567 20.0733 103.034 20.34C102.514 20.6067 101.867 20.74 101.094 20.74Z" fill="#333333"/>
<defs>
<linearGradient id="paint0_linear_187_2238" x1="12.5" y1="1" x2="12.5" y2="25" gradientUnits="userSpaceOnUse">
<stop offset="0.275742" stop-color="#0380DC"/>
<stop offset="1" stop-color="#0061D3"/>
</linearGradient>
</defs>
</svg>
