<svg width="30" height="30" viewBox="0 0 30 30" fill="none" xmlns="http://www.w3.org/2000/svg">
<path d="M27.6517 15.2609C28.3039 16.1739 28.6952 17.2174 28.6952 18.2609V30H26.0865V26.087H2.60821V30H-0.000488281V10.4348H2.60821V22.1739H13.043V13.8261C12.2604 12.3913 11.7386 10.8261 11.7386 9.13043C11.7386 4.04348 15.7821 0 20.8691 0C25.956 0 29.9995 4.04348 29.9995 9.13043C29.9995 11.4783 29.0865 13.5652 27.6517 15.2609ZM14.3473 9.13043C14.3473 12.7826 17.2169 15.6522 20.8691 15.6522C24.5212 15.6522 27.3908 12.7826 27.3908 9.13043C27.3908 5.47826 24.5212 2.6087 20.8691 2.6087C17.2169 2.6087 14.3473 5.47826 14.3473 9.13043Z" fill="url(#paint0_linear_930_9502)"/>
<path d="M19.5647 10.0435L23.7386 12.3913L24.6517 10.6957L21.5213 8.86957V5.21739H19.5647V10.0435Z" fill="#FFC514"/>
<path d="M11.7386 16.9565C11.7386 19.1739 10.043 20.8696 7.8256 20.8696C5.60821 20.8696 3.91256 19.1739 3.91256 16.9565C3.91256 14.7391 5.60821 13.0435 7.8256 13.0435C10.043 13.0435 11.7386 14.7391 11.7386 16.9565Z" fill="#1EA8FD"/>
<defs>
<linearGradient id="paint0_linear_930_9502" x1="14.9995" y1="0" x2="14.9995" y2="30" gradientUnits="userSpaceOnUse">
<stop offset="0.275742" stop-color="#0380DC"/>
<stop offset="1" stop-color="#0061D3"/>
</linearGradient>
</defs>
</svg>
