<svg width="104" height="30" viewBox="0 0 104 30" fill="none" xmlns="http://www.w3.org/2000/svg">
<path d="M0.269043 5.59308H3.87665V13.6081H11.4853V5.59308H15.0976V25.2676H11.4853V17.0842H3.87665V25.2676H0.269043V5.59308ZM26.5264 18.8593C26.5264 20.5063 25.1846 21.8465 23.538 21.8465C21.8908 21.8465 20.5498 20.5063 20.5498 18.8593V10.3887H17.1285V18.8593C17.1285 22.3931 20.004 25.2676 23.538 25.2676C27.0713 25.2676 29.9465 22.3931 29.9465 18.8593V10.3887H26.5264V18.8593ZM39.4974 10.488C37.8003 10.488 36.6157 10.9804 35.4717 12.1034V5.59308H32.0393V17.6585C32.0393 22.1747 35.3046 25.2676 38.973 25.2676C43.0513 25.2676 46.6245 22.1195 46.6245 17.878C46.6245 13.6902 43.3295 10.488 39.4974 10.488ZM39.5827 22.0922C37.2569 22.0922 35.4784 20.1498 35.4784 17.878C35.4784 15.6057 37.2569 13.6627 39.5827 13.6627C41.5534 13.6627 43.333 15.6057 43.333 17.878C43.333 20.1498 41.5534 22.0922 39.5827 22.0922ZM52.3894 11.3527C52.3894 9.62728 53.539 9.08024 54.7976 9.08024C55.8109 9.08024 57.1517 9.84655 58.0267 10.7773L60.2705 8.15005C59.1491 6.64493 56.8779 5.6046 55.0167 5.6046C51.2941 5.6046 48.6118 7.7669 48.6118 11.3527C48.6118 18.0033 56.7956 15.8951 56.7956 19.6183C56.7956 20.7666 55.6738 21.7802 54.3882 21.7802C52.3621 21.7802 51.7049 20.7949 50.7747 19.7545L48.2836 22.3269C49.872 24.2703 51.8419 25.2561 54.196 25.2561C57.7264 25.2561 60.573 23.0665 60.573 19.6448C60.573 12.2554 52.3894 14.5547 52.3894 11.3527ZM69.609 10.2952C65.9409 10.2952 62.6753 13.3863 62.6753 17.9034V30H66.1075V23.4587C67.2517 24.5809 68.4357 25.0742 70.1334 25.0742C73.9653 25.0742 77.2607 21.8724 77.2607 17.6846C77.2607 13.4424 73.6864 10.2952 69.609 10.2952ZM70.2189 21.8999C67.8933 21.8999 66.1145 19.9548 66.1145 17.6846C66.1145 15.4123 67.8933 13.4693 70.2189 13.4693C72.1892 13.4693 73.9689 15.4123 73.9689 17.6846C73.9689 19.9548 72.1892 21.8999 70.2189 21.8999ZM102.525 22.0922C100.501 22.0922 99.9262 21.2168 99.9262 19.8752V13.9363H103.073V10.9261H99.9262V6.95715L96.4514 8.51683V20.6142C96.4514 23.7073 98.5854 25.2676 101.513 25.2676C101.951 25.2676 102.553 25.2393 102.882 25.1583L103.731 22.0385C103.348 22.065 102.91 22.0922 102.525 22.0922Z" fill="white"/>
<path d="M93.4738 14.1113C92.8158 12.9793 91.8903 12.0717 90.7332 11.3885C89.8684 10.8851 88.9718 10.5656 87.9614 10.4284V6.83125C88.9718 6.40223 89.5989 5.45263 89.5989 4.34481C89.5989 2.83484 88.388 1.61122 86.8792 1.61122C85.3692 1.61122 84.1371 2.83484 84.1371 4.34481C84.1371 5.45263 84.728 6.40223 85.7384 6.83125V10.43C84.9301 10.5468 84.0919 10.7988 83.3264 11.186C81.7628 9.99852 76.636 6.10294 73.6368 3.82768C73.708 3.57123 73.7627 3.30691 73.7627 3.02803C73.7627 1.35558 72.4084 0 70.7353 0C69.0623 0 67.7085 1.35558 67.7085 3.02803C67.7085 4.70028 69.0637 6.05626 70.7367 6.05626C71.3074 6.05626 71.8353 5.88934 72.2908 5.61491L72.9237 6.09506L81.6206 12.3613C81.1608 12.7834 80.7326 13.2636 80.3901 13.8023C79.6959 14.9007 79.2718 16.1091 79.2718 17.4273V17.7024C79.2718 18.6277 79.4476 19.5013 79.7471 20.322C80.0108 21.0386 80.3964 21.6901 80.8739 22.2792L77.9875 25.1726C77.5692 25.0169 77.1149 24.985 76.6789 25.0806C76.2429 25.1762 75.8437 25.3953 75.529 25.7118C75.311 25.9286 75.1383 26.1866 75.0208 26.4707C74.9032 26.7548 74.8432 27.0594 74.8443 27.3668C74.8445 27.9919 75.088 28.5793 75.5302 29.0213C75.7469 29.2394 76.0047 29.4123 76.2888 29.5301C76.5728 29.6478 76.8774 29.708 77.1848 29.7072C77.4924 29.708 77.797 29.6478 78.0812 29.53C78.3653 29.4123 78.6232 29.2394 78.8401 29.0213C79.0579 28.8044 79.2306 28.5466 79.3482 28.2626C79.4657 27.9786 79.5259 27.6742 79.5252 27.3668C79.5252 27.1249 79.4878 26.8889 79.4175 26.6646L82.4008 23.6808C82.8098 23.9633 83.2516 24.2012 83.7265 24.4063C84.6632 24.8113 85.697 25.058 86.8285 25.058H87.0358C88.2867 25.058 89.4667 24.7642 90.5759 24.1632C91.7448 23.5281 92.6596 22.6595 93.3508 21.5507C94.0455 20.4388 94.4281 19.2103 94.4281 17.8588V17.7913C94.4281 16.4618 94.1203 15.2351 93.4738 14.1113ZM89.8286 20.3705C89.0189 21.2704 88.0881 21.8247 87.0358 21.8247H86.8624C86.2614 21.8247 85.6736 21.6586 85.098 21.3565C84.4494 21.0238 83.9563 20.5493 83.5527 19.9485C83.1356 19.3589 82.9093 18.715 82.9093 18.0324V17.825C82.9093 17.1539 83.038 16.5176 83.3625 15.9166C83.7095 15.2596 84.1782 14.7487 84.8014 14.3425C85.4133 13.9392 86.0668 13.7413 86.7947 13.7413H86.8624C87.5224 13.7413 88.1473 13.8715 88.737 14.1732C89.3378 14.4949 89.8286 14.9344 90.2092 15.5126C90.5788 16.091 90.7986 16.7148 90.8694 17.3944C90.8805 17.5357 90.8861 17.6803 90.8861 17.8186C90.8861 18.7409 90.5337 19.5951 89.8286 20.3705Z" fill="white"/>
</svg>
