<svg width="31" height="31" viewBox="0 0 31 31" fill="none" xmlns="http://www.w3.org/2000/svg">
  <path d="M24.543 10.3334V7.75004H21.9596V5.16671H24.543V2.58337H27.1263V5.16671H29.7096V7.75004H27.1263V10.3334H24.543ZM3.8763 28.4167C3.16589 28.4167 2.55794 28.164 2.05247 27.6585C1.54614 27.1522 1.29297 26.5438 1.29297 25.8334V10.3334C1.29297 9.62296 1.54614 9.01501 2.05247 8.50954C2.55794 8.00321 3.16589 7.75004 3.8763 7.75004H7.94505L10.3346 5.16671H18.0846V7.75004H11.4648L9.10755 10.3334H3.8763V25.8334H24.543V14.2084H27.1263V25.8334C27.1263 26.5438 26.8736 27.1522 26.3681 27.6585C25.8618 28.164 25.2534 28.4167 24.543 28.4167H3.8763ZM14.2096 23.8959C15.8242 23.8959 17.1968 23.331 18.3275 22.2012C19.4572 21.0706 20.0221 19.698 20.0221 18.0834C20.0221 16.4688 19.4572 15.0962 18.3275 13.9655C17.1968 12.8358 15.8242 12.2709 14.2096 12.2709C12.5951 12.2709 11.2224 12.8358 10.0918 13.9655C8.96202 15.0962 8.39713 16.4688 8.39713 18.0834C8.39713 19.698 8.96202 21.0706 10.0918 22.2012C11.2224 23.331 12.5951 23.8959 14.2096 23.8959ZM14.2096 21.3125C13.3055 21.3125 12.5412 21.0004 11.9169 20.3761C11.2926 19.7518 10.9805 18.9875 10.9805 18.0834C10.9805 17.1792 11.2926 16.415 11.9169 15.7907C12.5412 15.1664 13.3055 14.8542 14.2096 14.8542C15.1138 14.8542 15.878 15.1664 16.5023 15.7907C17.1266 16.415 17.4388 17.1792 17.4388 18.0834C17.4388 18.9875 17.1266 19.7518 16.5023 20.3761C15.878 21.0004 15.1138 21.3125 14.2096 21.3125Z" fill="#666666"/>
</svg>
