<svg width="124" height="126" viewBox="0 0 124 126" fill="none" xmlns="http://www.w3.org/2000/svg">
<circle opacity="0.1" cx="23.2109" cy="49" r="10" fill="#1EA8FD"/>
<circle opacity="0.1" cx="116.211" cy="14" r="6" fill="#1EA8FD"/>
<circle opacity="0.1" cx="113.582" cy="75" r="4" fill="#1EA8FD"/>
<path d="M61.9799 125.531H41.0956C34.0568 125.531 28.0437 123.095 23.0562 118.222C18.0656 113.349 15.5703 107.393 15.5703 100.354C15.5703 94.3208 17.388 88.945 21.0234 84.2267C24.6589 79.5084 29.4158 76.4917 35.2944 75.1768C37.2281 68.0607 41.0956 62.2982 46.8968 57.8892C52.698 53.4803 59.2727 51.2759 66.6208 51.2759C75.6707 51.2759 83.3469 54.4271 89.6493 60.7295C95.9548 67.035 99.1075 74.7127 99.1075 83.7626C104.445 84.3814 108.874 86.6817 112.395 90.6637C115.912 94.6487 117.671 99.3098 117.671 104.647C117.671 110.448 115.642 115.38 111.582 119.442C107.52 123.502 102.588 125.531 96.7871 125.531H71.2618V92.3484L78.6873 99.5418L85.1847 93.0445L66.6208 74.4807L48.057 93.0445L54.5544 99.5418L61.9799 92.3484V125.531Z" fill="url(#paint0_linear_317_10132)"/>
<path d="M65.1389 36.1031L10.6381 50.7726C10.4427 50.8249 10.2345 50.7976 10.0592 50.6967C9.88384 50.5957 9.75573 50.4294 9.70293 50.2341L0.617188 16.4781L56.5916 1.41207L65.6774 35.168C65.7297 35.3634 65.7024 35.5716 65.6015 35.7469C65.5005 35.9222 65.3341 36.0503 65.1389 36.1031Z" fill="#E6E6E6"/>
<path d="M62.9719 34.4238L11.6673 48.2329C11.4698 48.2859 11.2593 48.2583 11.0821 48.1562C10.9049 48.0542 10.7754 47.886 10.722 47.6886L3.23954 19.8894C3.18662 19.6918 3.21421 19.4814 3.31626 19.3042C3.41831 19.1269 3.58649 18.9974 3.7839 18.9441L55.0885 5.1349C55.286 5.08197 55.4965 5.10955 55.6737 5.2116C55.851 5.31365 55.9805 5.48184 56.0338 5.67926L63.5163 33.4785C63.5692 33.676 63.5416 33.8865 63.4396 34.0637C63.3375 34.2409 63.1693 34.3704 62.9719 34.4238Z" fill="white"/>
<path d="M56.8478 2.46096L0.873338 17.527L0.40926 15.8029C0.356897 15.6075 0.384186 15.3993 0.48514 15.2239C0.586093 15.0486 0.752467 14.9205 0.947759 14.8677L55.4485 0.198286C55.6439 0.145924 55.8521 0.173212 56.0275 0.274165C56.2028 0.37512 56.3309 0.541493 56.3837 0.736785L56.8478 2.46096Z" fill="#1976FE"/>
<path d="M2.47383 16.2766C2.71687 16.2112 2.86086 15.9611 2.79544 15.7181C2.73003 15.475 2.47998 15.331 2.23694 15.3964C1.9939 15.4619 1.84991 15.7119 1.91532 15.955C1.98074 16.198 2.23079 16.342 2.47383 16.2766Z" fill="white"/>
<path d="M4.1457 15.827C4.38874 15.7616 4.53274 15.5115 4.46732 15.2685C4.4019 15.0254 4.15185 14.8814 3.90881 14.9469C3.66577 15.0123 3.52178 15.2623 3.5872 15.5054C3.65261 15.7484 3.90267 15.8924 4.1457 15.827Z" fill="white"/>
<path d="M5.81758 15.3774C6.06062 15.312 6.20461 15.0619 6.13919 14.8189C6.07378 14.5759 5.82372 14.4319 5.58069 14.4973C5.33765 14.5627 5.19366 14.8127 5.25907 15.0558C5.32449 15.2988 5.57454 15.4428 5.81758 15.3774Z" fill="white"/>
<path d="M14.944 21.2868L9.65625 22.7101L10.2862 25.0506L15.574 23.6273L14.944 21.2868Z" fill="#E6E6E6"/>
<path d="M26.8229 23.2948L21.5352 24.718L22.1651 27.0585L27.4529 25.6352L26.8229 23.2948Z" fill="#E6E6E6"/>
<path d="M18.2057 33.4226L12.918 34.8458L13.5479 37.1863L18.8357 35.7631L18.2057 33.4226Z" fill="#096DB7"/>
<path d="M30.0925 35.4307L24.8047 36.854L25.4347 39.1945L30.7224 37.7712L30.0925 35.4307Z" fill="#096DB7"/>
<path d="M57.0964 30.7647L51.8086 32.188L52.4386 34.5285L57.7263 33.1052L57.0964 30.7647Z" fill="#096DB7"/>
<path d="M49.194 22.4793L43.9062 23.9026L44.5362 26.2431L49.824 24.8198L49.194 22.4793Z" fill="#E6E6E6"/>
<path d="M38.7083 25.3027L28.1328 28.1492L28.7628 30.4897L39.3383 27.6431L38.7083 25.3027Z" fill="#096DB7"/>
<path d="M35.4154 13.08L24.8398 15.9265L25.4698 18.267L36.0453 15.4205L35.4154 13.08Z" fill="#096DB7"/>
<path d="M2.88672 19.2482L10.7963 48.6343L63.6739 34.4017L55.7644 5.01562L2.88672 19.2482ZM56.2462 7.4967L51.1492 8.86862L50.5406 6.60758L55.6376 5.23566L56.2462 7.4967ZM29.3837 33.0023L28.7752 30.7413L39.1426 27.9508L39.7512 30.2118L29.3837 33.0023ZM39.7979 30.3852L40.4064 32.6462L30.039 35.4367L29.4304 33.1757L39.7979 30.3852ZM37.1769 20.6476L37.7855 22.9086L27.418 25.6991L26.8094 23.4381L37.1769 20.6476ZM26.7628 23.2647L26.1542 21.0037L36.5216 18.2132L37.1302 20.4742L26.7628 23.2647ZM28.0733 28.1335L27.4647 25.8725L37.8321 23.082L38.4407 25.343L28.0733 28.1335ZM38.4874 25.5164L39.096 27.7774L28.7285 30.5679L28.1199 28.3069L38.4874 25.5164ZM27.2446 25.7458L22.1476 27.1177L21.539 24.8567L26.6361 23.4848L27.2446 25.7458ZM27.2913 25.9191L27.8999 28.1802L22.8029 29.5521L22.1943 27.2911L27.2913 25.9191ZM27.9466 28.3535L28.5551 30.6146L23.4581 31.9865L22.8495 29.7255L27.9466 28.3535ZM28.6018 30.788L29.2104 33.0489L24.1133 34.4209L23.5048 32.1599L28.6018 30.788ZM39.316 27.9041L44.413 26.5322L45.0216 28.7932L39.9246 30.1651L39.316 27.9041ZM39.2693 27.7308L38.6607 25.4697L43.7578 24.0978L44.3664 26.3588L39.2693 27.7308ZM38.6141 25.2963L38.0055 23.0353L43.1025 21.6634L43.7111 23.9244L38.6141 25.2963ZM37.9588 22.8619L37.3503 20.6009L42.4473 19.229L43.0559 21.49L37.9588 22.8619ZM37.3036 20.4276L36.695 18.1665L41.7921 16.7946L42.4006 19.0557L37.3036 20.4276ZM36.6484 17.9932L36.0398 15.7321L41.1368 14.3602L41.7454 16.6212L36.6484 17.9932ZM36.475 18.0398L26.1075 20.8303L25.499 18.5693L35.8664 15.7788L36.475 18.0398ZM25.9342 20.877L20.8371 22.2489L20.2285 19.9879L25.3256 18.616L25.9342 20.877ZM25.9808 21.0504L26.5894 23.3114L21.4924 24.6833L20.8838 22.4223L25.9808 21.0504ZM21.319 24.73L16.2219 26.1019L15.6133 23.8409L20.7104 22.4689L21.319 24.73ZM21.3657 24.9034L21.9742 27.1644L16.8771 28.5363L16.2685 26.2753L21.3657 24.9034ZM22.0209 27.3377L22.6295 29.5988L17.5324 30.9707L16.9238 28.7097L22.0209 27.3377ZM22.6761 29.7721L23.2847 32.0332L18.1876 33.4051L17.579 31.1441L22.6761 29.7721ZM23.3314 32.2065L23.94 34.4675L18.8428 35.8395L18.2343 33.5785L23.3314 32.2065ZM23.9866 34.6409L24.5952 36.9019L19.4981 38.2739L18.8895 36.0128L23.9866 34.6409ZM24.16 34.5942L29.257 33.2223L29.8656 35.4834L24.7686 36.8553L24.16 34.5942ZM29.9123 35.6567L30.5209 37.9177L25.4238 39.2896L24.8152 37.0286L29.9123 35.6567ZM30.0856 35.6101L40.4531 32.8196L41.0617 35.0806L30.6942 37.8711L30.0856 35.6101ZM40.6265 32.7729L45.7235 31.401L46.3321 33.662L41.235 35.0339L40.6265 32.7729ZM40.5798 32.5995L39.9712 30.3385L45.0683 28.9666L45.6768 31.2276L40.5798 32.5995ZM45.2416 28.9199L50.3388 27.548L50.9473 29.809L45.8502 31.1809L45.2416 28.9199ZM45.195 28.7465L44.5864 26.4855L49.6835 25.1136L50.2921 27.3746L45.195 28.7465ZM44.5397 26.3122L43.9312 24.0511L49.0283 22.6792L49.6369 24.9402L44.5397 26.3122ZM43.8845 23.8778L43.2759 21.6167L48.373 20.2448L48.9816 22.5058L43.8845 23.8778ZM43.2292 21.4434L42.6207 19.1824L47.7178 17.8104L48.3264 20.0714L43.2292 21.4434ZM42.574 19.009L41.9654 16.7479L47.0626 15.376L47.6711 17.637L42.574 19.009ZM41.9188 16.5746L41.3102 14.3135L46.4073 12.9416L47.0159 15.2026L41.9188 16.5746ZM41.2635 14.1402L40.6549 11.8792L45.7521 10.5072L46.3606 12.7682L41.2635 14.1402ZM41.0902 14.1868L35.9931 15.5588L35.3845 13.2978L40.4816 11.9258L41.0902 14.1868ZM35.8197 15.6054L25.4523 18.3959L24.8437 16.1349L35.2112 13.3444L35.8197 15.6054ZM25.2789 18.4426L20.1819 19.8145L19.5733 17.5535L24.6704 16.1816L25.2789 18.4426ZM20.0085 19.8612L14.9114 21.2331L14.3028 18.9721L19.3999 17.6002L20.0085 19.8612ZM20.0552 20.0345L20.6638 22.2956L15.5666 23.6675L14.958 21.4065L20.0552 20.0345ZM15.3933 23.7142L10.2962 25.0861L9.68764 22.8251L14.7847 21.4531L15.3933 23.7142ZM15.4399 23.8876L16.0485 26.1486L10.9515 27.5205L10.3429 25.2595L15.4399 23.8876ZM16.0952 26.322L16.7037 28.583L11.6067 29.9549L10.9981 27.6939L16.0952 26.322ZM16.7504 28.7563L17.359 31.0174L12.262 32.3893L11.6534 30.1282L16.7504 28.7563ZM17.4057 31.1907L18.0142 33.4518L12.9172 34.8237L12.3086 32.5627L17.4057 31.1907ZM18.0609 33.6251L18.6695 35.8861L13.5724 37.2581L12.9639 34.9971L18.0609 33.6251ZM18.7161 36.0595L19.3247 38.3205L14.2277 39.6925L13.6191 37.4314L18.7161 36.0595ZM19.3714 38.4939L19.98 40.7549L14.8829 42.1268L14.2743 39.8658L19.3714 38.4939ZM19.5447 38.4473L24.6419 37.0753L25.2504 39.3363L20.1533 40.7083L19.5447 38.4473ZM25.2971 39.5097L25.9057 41.7708L20.8086 43.1427L20.2 40.8816L25.2971 39.5097ZM25.4705 39.463L30.5675 38.0911L31.1761 40.3522L26.0791 41.7241L25.4705 39.463ZM30.7409 38.0444L41.1083 35.2539L41.7169 37.515L31.3495 40.3055L30.7409 38.0444ZM41.2817 35.2073L46.3787 33.8353L46.9873 36.0964L41.8903 37.4683L41.2817 35.2073ZM46.5521 33.7887L51.6492 32.4167L52.2578 34.6778L47.1607 36.0498L46.5521 33.7887ZM46.5054 33.6153L45.8969 31.3543L50.994 29.9824L51.6026 32.2434L46.5054 33.6153ZM51.1674 29.9357L56.2644 28.5638L56.873 30.8248L51.7759 32.1967L51.1674 29.9357ZM51.1207 29.7623L50.5121 27.5013L55.6092 26.1294L56.2178 28.3904L51.1207 29.7623ZM50.4655 27.3279L49.8569 25.0669L54.9539 23.695L55.5625 25.956L50.4655 27.3279ZM49.8102 24.8936L49.2017 22.6325L54.2987 21.2606L54.9073 23.5216L49.8102 24.8936ZM49.155 22.4592L48.5464 20.1981L53.6434 18.8262L54.252 21.0872L49.155 22.4592ZM48.4997 20.0247L47.8912 17.7637L52.9882 16.3918L53.5968 18.6528L48.4997 20.0247ZM47.8445 17.5904L47.2359 15.3293L52.333 13.9574L52.9416 16.2185L47.8445 17.5904ZM47.1893 15.156L46.5807 12.8949L51.6777 11.523L52.2863 13.7841L47.1893 15.156ZM46.534 12.7216L45.9254 10.4606L51.0225 9.08865L51.6311 11.3496L46.534 12.7216ZM45.8788 10.2872L45.2702 8.02616L50.3672 6.65424L50.9758 8.91528L45.8788 10.2872ZM45.7054 10.3339L40.6083 11.7058L39.9997 9.44477L45.0968 8.07283L45.7054 10.3339ZM40.4349 11.7525L35.3379 13.1244L34.7293 10.8634L39.8263 9.49144L40.4349 11.7525ZM35.1645 13.1711L24.7971 15.9616L24.1885 13.7005L34.5559 10.91L35.1645 13.1711ZM24.6237 16.0082L19.5266 17.3801L18.9181 15.1191L24.0151 13.7472L24.6237 16.0082ZM19.3533 17.4268L14.2562 18.7987L13.6476 16.5377L18.7447 15.1658L19.3533 17.4268ZM14.0828 18.8454L8.98575 20.2173L8.37717 17.9563L13.4742 16.5844L14.0828 18.8454ZM14.1295 19.0188L14.738 21.2798L9.64098 22.6517L9.03241 20.3907L14.1295 19.0188ZM9.46761 22.6984L4.37057 24.0703L3.762 21.8093L8.85904 20.4374L9.46761 22.6984ZM9.51428 22.8717L10.1229 25.1328L5.02582 26.5047L4.41724 24.2436L9.51428 22.8717ZM10.1695 25.3061L10.7781 27.5672L5.68106 28.9391L5.07248 26.6781L10.1695 25.3061ZM10.8248 27.7405L11.4333 30.0015L6.3363 31.3735L5.72773 29.1125L10.8248 27.7405ZM11.48 30.1749L12.0886 32.436L6.99154 33.8079L6.38296 31.5468L11.48 30.1749ZM12.1352 32.6093L12.7438 34.8704L7.64679 36.2423L7.03821 33.9812L12.1352 32.6093ZM12.7905 35.0437L13.3991 37.3047L8.30202 38.6766L7.69345 36.4156L12.7905 35.0437ZM13.4457 37.4781L14.0543 39.7391L8.95727 41.1111L8.34868 38.85L13.4457 37.4781ZM14.101 39.9125L14.7095 42.1735L9.6125 43.5454L9.00393 41.2844L14.101 39.9125ZM14.7562 42.3469L15.3648 44.6079L10.2678 45.9799L9.65916 43.7188L14.7562 42.3469ZM14.9296 42.3002L20.0266 40.9283L20.6352 43.1894L15.5382 44.5613L14.9296 42.3002ZM20.6819 43.3627L21.2904 45.6237L16.1934 46.9956L15.5848 44.7347L20.6819 43.3627ZM20.8552 43.3161L25.9524 41.9441L26.5609 44.2051L21.4638 45.5771L20.8552 43.3161ZM26.1257 41.8975L31.2228 40.5255L31.8313 42.7865L26.7343 44.1585L26.1257 41.8975ZM31.3961 40.4789L41.7636 37.6884L42.3722 39.9494L32.0047 42.7399L31.3961 40.4789ZM41.937 37.6417L47.034 36.2698L47.6426 38.5308L42.5455 39.9027L41.937 37.6417ZM47.2074 36.2231L52.3045 34.8512L52.9131 37.1122L47.8159 38.4841L47.2074 36.2231ZM52.4779 34.8045L57.5749 33.4326L58.1835 35.6936L53.0864 37.0655L52.4779 34.8045ZM52.4312 34.6312L51.8226 32.3701L56.9197 30.9982L57.5282 33.2592L52.4312 34.6312ZM57.093 30.9515L62.1901 29.5796L62.7987 31.8407L57.7016 33.2126L57.093 30.9515ZM57.0464 30.7781L56.4378 28.5171L61.5348 27.1452L62.1434 29.4062L57.0464 30.7781ZM56.3911 28.3438L55.7825 26.0827L60.8796 24.7108L61.4882 26.9718L56.3911 28.3438ZM55.7359 25.9093L55.1273 23.6483L60.2244 22.2764L60.8329 24.5374L55.7359 25.9093ZM55.0806 23.475L54.4721 21.2139L59.5691 19.842L60.1777 22.1031L55.0806 23.475ZM54.4254 21.0406L53.8168 18.7795L58.9139 17.4076L59.5224 19.6687L54.4254 21.0406ZM53.7702 18.6062L53.1616 16.3452L58.2586 14.9732L58.8672 17.2342L53.7702 18.6062ZM53.1149 16.1718L52.5063 13.9108L57.6034 12.5388L58.212 14.7999L53.1149 16.1718ZM52.4597 13.7374L51.8511 11.4763L56.9481 10.1044L57.5567 12.3655L52.4597 13.7374ZM51.8044 11.303L51.1959 9.04198L56.2929 7.67006L56.9015 9.93106L51.8044 11.303ZM8.2038 18.003L8.81238 20.264L3.71534 21.6359L3.10676 19.3749L8.2038 18.003ZM10.3144 46.1532L15.4115 44.7813L16.02 47.0423L10.923 48.4142L10.3144 46.1532ZM58.3568 35.6469L57.7483 33.3859L62.8453 32.014L63.4539 34.275L58.3568 35.6469Z" fill="#E6E6E6"/>
<path d="M117.396 27.8408L107.824 26.2364C107.4 26.1655 107.023 25.9294 106.774 25.58C106.525 25.2307 106.425 24.7967 106.496 24.3736L108.1 14.8011L90.5505 11.8597L87.6091 29.4092C87.5382 29.8323 87.3021 30.2099 86.9527 30.459C86.6034 30.708 86.1694 30.8081 85.7463 30.7372C85.3232 30.6662 84.9455 30.4301 84.6965 30.0808C84.4474 29.7315 84.3474 29.2975 84.4183 28.8744L87.3597 11.3249C87.5016 10.4786 87.9738 9.72337 88.6725 9.22527C89.3711 8.72717 90.2391 8.52703 91.0853 8.66887L110.23 11.8777C110.655 11.9465 111.036 12.1797 111.29 12.5269L120.566 25.5633C120.695 25.7357 120.786 25.9327 120.836 26.142C120.886 26.3512 120.892 26.5684 120.854 26.7802L119.517 34.7572C119.446 35.1804 119.21 35.558 118.861 35.807C118.512 36.0561 118.078 36.1562 117.654 36.0852C117.231 36.0143 116.854 35.7782 116.605 35.4289C116.356 35.0795 116.256 34.6456 116.326 34.2224L117.396 27.8408ZM109.954 23.313L115.677 24.2723L110.913 17.5894L109.954 23.313Z" fill="#096DB7"/>
<path d="M113.159 52.3701L118.752 43.4661C118.866 43.2859 118.943 43.0851 118.979 42.8752C119.015 42.6652 119.009 42.4502 118.962 42.2424C118.915 42.0346 118.828 41.8381 118.705 41.6641C118.582 41.4901 118.426 41.3421 118.246 41.2284C118.066 41.1148 117.865 41.0377 117.655 41.0016C117.445 40.9656 117.23 40.9712 117.022 41.0183C116.814 41.0653 116.618 41.1528 116.444 41.2758C116.27 41.3988 116.122 41.5548 116.008 41.735L112.482 47.3564L110.982 40.8927C110.934 40.6853 110.845 40.4895 110.72 40.3165C110.596 40.1435 110.439 39.9967 110.258 39.8845C110.077 39.7723 109.875 39.6968 109.665 39.6625C109.455 39.6281 109.24 39.6355 109.032 39.6842C108.825 39.7329 108.629 39.822 108.456 39.9463C108.283 40.0707 108.136 40.2279 108.024 40.409C107.912 40.5901 107.836 40.7915 107.802 41.0018C107.768 41.212 107.775 41.427 107.824 41.6344L110.208 51.8754C110.279 52.1881 110.442 52.4727 110.675 52.6929C110.908 52.913 111.201 53.0589 111.518 53.1119C111.834 53.1649 112.159 53.1227 112.451 52.9906C112.744 52.8585 112.99 52.6425 113.159 52.3701Z" fill="#1976FE"/>
<path d="M89.598 40.2814C89.2019 39.7727 88.6314 39.4287 87.9966 39.3159C86.461 39.0585 84.9639 40.2838 84.6698 42.0387C84.3757 43.7937 85.3914 45.4401 86.927 45.6975C87.5639 45.7978 88.2153 45.6586 88.7557 45.3069C88.9341 45.1902 89.1342 45.1103 89.344 45.0722C89.5538 45.034 89.7691 45.0382 89.9773 45.0845C90.1855 45.1309 90.3822 45.2184 90.556 45.3421C90.7298 45.4657 90.8771 45.6228 90.9891 45.8043C91.2223 46.1642 91.303 46.6021 91.2135 47.0215C91.124 47.441 90.8716 47.8077 90.5117 48.0411C89.2883 48.8178 87.8227 49.1192 86.3922 48.8883C83.1016 48.3368 80.8907 45.0138 81.479 41.5039C82.0673 37.994 85.2409 35.5735 88.5314 36.125C89.9591 36.3732 91.2463 37.136 92.1496 38.2692C92.4136 38.6071 92.5327 39.0361 92.4806 39.4619C92.4285 39.8876 92.2094 40.2752 91.8716 40.5394C91.7065 40.6744 91.516 40.7749 91.3114 40.8351C91.1068 40.8953 90.8922 40.914 90.6804 40.8899C90.4685 40.8659 90.2635 40.7996 90.0776 40.6951C89.8917 40.5906 89.7287 40.4499 89.598 40.2814Z" fill="#1976FE"/>
<path d="M98.6252 41.9584C98.8011 42.2544 99.8478 42.7374 100.439 43.0006C102.021 43.7167 104.649 45.1619 104.211 47.7744C103.773 50.3869 101.635 51.6481 98.5237 51.1267C97.0751 50.8736 95.7486 50.1545 94.7459 49.0788C94.5865 48.9035 94.4697 48.6938 94.4047 48.466C94.3398 48.2381 94.3284 47.9983 94.3714 47.7654C94.4424 47.3422 94.6785 46.9646 95.0278 46.7156C95.3772 46.4665 95.8111 46.3664 96.2343 46.4374C96.6034 46.502 96.9402 46.6884 97.1912 46.9668L97.1712 46.9634C97.6925 47.464 98.3483 47.8019 99.0585 47.9359C100.853 48.2367 101 47.3592 101.02 47.2396C101.041 47.1199 101.23 47.2132 100.835 46.8804C100.439 46.5476 99.7515 46.2478 99.1035 45.9546C97.4654 45.2085 95.0266 43.8566 95.4411 41.3837C95.8555 38.9108 98.0375 37.5133 100.73 37.9646C102.178 38.2177 103.505 38.9367 104.508 40.0125C104.667 40.1877 104.784 40.3974 104.849 40.6253C104.914 40.8531 104.925 41.0929 104.882 41.3259C104.811 41.749 104.575 42.1266 104.226 42.3757C103.876 42.6247 103.442 42.7248 103.019 42.6539C102.65 42.5892 102.313 42.4028 102.062 42.1245L102.082 42.1278C101.561 41.6272 100.905 41.2893 100.195 41.1554C99.2776 41.0016 98.7422 41.2604 98.6319 41.9185L98.6252 41.9584Z" fill="#1976FE"/>
<defs>
<linearGradient id="paint0_linear_317_10132" x1="66.6208" y1="51.2759" x2="66.6208" y2="125.531" gradientUnits="userSpaceOnUse">
<stop offset="0.421875" stop-color="#0086E9"/>
<stop offset="1" stop-color="#0061D3"/>
</linearGradient>
</defs>
</svg>
