<svg width="20" height="20" viewBox="0 0 20 20" fill="none" xmlns="http://www.w3.org/2000/svg">
  <path d="M7.74433 17.5C7.05585 17.4967 6.3749 17.3565 5.74112 17.0876C5.10734 16.8186 4.53338 16.4263 4.05266 15.9334C3.57555 15.4812 3.19229 14.9393 2.92481 14.3389C2.65734 13.7384 2.51089 13.091 2.49387 12.4339C2.47684 11.7768 2.58956 11.1227 2.82558 10.5092C3.06159 9.89565 3.41628 9.33469 3.86933 8.85838L10.0027 2.66671C10.3302 2.33978 10.7206 2.08261 11.1503 1.91074C11.58 1.73887 12.04 1.65585 12.5027 1.66671C12.9983 1.6684 13.4886 1.76875 13.945 1.9619C14.4014 2.15505 14.8147 2.43714 15.161 2.79171C15.8502 3.45525 16.2498 4.36381 16.2732 5.3202C16.2966 6.27658 15.9419 7.2036 15.286 7.90005L9.11933 14.0917C8.92181 14.2906 8.68677 14.4482 8.42785 14.5555C8.16892 14.6628 7.89127 14.7176 7.611 14.7167C7.30823 14.7171 7.00844 14.6569 6.72934 14.5395C6.45025 14.4221 6.19749 14.25 5.986 14.0334C5.56327 13.6241 5.31914 13.0645 5.30666 12.4763C5.29417 11.888 5.51435 11.3186 5.91933 10.8917L11.611 5.17505C11.773 5.06747 11.9675 5.01992 12.1608 5.04064C12.3542 5.06137 12.5342 5.14905 12.6697 5.28852C12.8052 5.42798 12.8877 5.61044 12.9028 5.8043C12.918 5.99817 12.8649 6.19123 12.7527 6.35005L7.061 12.0667C6.96609 12.1811 6.91989 12.3281 6.93236 12.4762C6.94483 12.6243 7.01497 12.7615 7.12766 12.8584C7.24492 12.9765 7.403 13.045 7.56933 13.05C7.63094 13.0509 7.69212 13.0396 7.74933 13.0167C7.80654 12.9938 7.85865 12.9598 7.90266 12.9167L14.061 6.72505C14.4067 6.34103 14.5873 5.83641 14.564 5.32026C14.5406 4.80411 14.315 4.31789 13.936 3.96672C13.584 3.60125 13.1053 3.3846 12.5984 3.36135C12.0915 3.3381 11.595 3.51001 11.211 3.84172L5.05266 10C4.7532 10.3217 4.5203 10.6994 4.36735 11.1114C4.21441 11.5234 4.14444 11.9615 4.16148 12.4007C4.17852 12.8398 4.28223 13.2713 4.46663 13.6702C4.65104 14.0691 4.91251 14.4276 5.236 14.725C5.56039 15.0613 5.94855 15.3296 6.3778 15.5142C6.80704 15.6987 7.26877 15.7959 7.736 15.8C8.13884 15.8033 8.53837 15.727 8.91162 15.5754C9.28488 15.4238 9.62451 15.1999 9.911 14.9167L16.0693 8.72505C16.1465 8.64735 16.2382 8.58561 16.3392 8.54335C16.4402 8.50109 16.5486 8.47914 16.658 8.47875C16.7675 8.47836 16.876 8.49955 16.9774 8.54109C17.0787 8.58264 17.1708 8.64373 17.2485 8.72088C17.3262 8.79803 17.3879 8.88973 17.4302 8.99075C17.4725 9.09176 17.4944 9.20011 17.4948 9.3096C17.4952 9.4191 17.474 9.5276 17.4325 9.62891C17.3909 9.73022 17.3298 9.82235 17.2527 9.90005L11.0943 16.0917C10.6571 16.5367 10.1358 16.8903 9.56068 17.1321C8.98558 17.3739 8.36818 17.4989 7.74433 17.5Z" fill="#666666"/>
</svg>