<svg width="16" height="16" viewBox="0 0 16 16" fill="none" xmlns="http://www.w3.org/2000/svg">
  <path d="M8.42857 3.85714C9.21755 3.85714 9.85714 3.21755 9.85714 2.42857C9.85714 1.63959 9.21755 1 8.42857 1C7.63959 1 7 1.63959 7 2.42857C7 3.21755 7.63959 3.85714 8.42857 3.85714Z" fill="#666666"/>
  <path d="M8.42857 9.57211C9.21755 9.57211 9.85714 8.93252 9.85714 8.14354C9.85714 7.35456 9.21755 6.71497 8.42857 6.71497C7.63959 6.71497 7 7.35456 7 8.14354C7 8.93252 7.63959 9.57211 8.42857 9.57211Z" fill="#666666"/>
  <path d="M8.42857 15.286C9.21755 15.286 9.85714 14.6464 9.85714 13.8575C9.85714 13.0685 9.21755 12.4289 8.42857 12.4289C7.63959 12.4289 7 13.0685 7 13.8575C7 14.6464 7.63959 15.286 8.42857 15.286Z" fill="#666666"/>
</svg>
