<svg width="20" height="20" viewBox="0 0 20 20" fill="none" xmlns="http://www.w3.org/2000/svg">
  <path d="M10.8346 13.3333H5.83464C5.61363 13.3333 5.40167 13.4211 5.24539 13.5774C5.08911 13.7337 5.00131 13.9456 5.00131 14.1666C5.00131 14.3877 5.08911 14.5996 5.24539 14.7559C5.40167 14.9122 5.61363 15 5.83464 15H10.8346C11.0557 15 11.2676 14.9122 11.4239 14.7559C11.5802 14.5996 11.668 14.3877 11.668 14.1666C11.668 13.9456 11.5802 13.7337 11.4239 13.5774C11.2676 13.4211 11.0557 13.3333 10.8346 13.3333ZM7.50131 8.33331H9.16797C9.38899 8.33331 9.60095 8.24551 9.75723 8.08923C9.91351 7.93295 10.0013 7.72099 10.0013 7.49998C10.0013 7.27896 9.91351 7.067 9.75723 6.91072C9.60095 6.75444 9.38899 6.66664 9.16797 6.66664H7.50131C7.28029 6.66664 7.06833 6.75444 6.91205 6.91072C6.75577 7.067 6.66798 7.27896 6.66798 7.49998C6.66798 7.72099 6.75577 7.93295 6.91205 8.08923C7.06833 8.24551 7.28029 8.33331 7.50131 8.33331V8.33331ZM17.5013 9.99998H15.0013V2.49998C15.0019 2.35313 14.9637 2.20875 14.8905 2.08143C14.8173 1.95412 14.7118 1.8484 14.5846 1.77498C14.458 1.70184 14.3143 1.66333 14.168 1.66333C14.0217 1.66333 13.878 1.70184 13.7513 1.77498L11.2513 3.20831L8.75131 1.77498C8.62463 1.70184 8.48092 1.66333 8.33464 1.66333C8.18836 1.66333 8.04466 1.70184 7.91797 1.77498L5.41798 3.20831L2.91798 1.77498C2.79129 1.70184 2.64759 1.66333 2.50131 1.66333C2.35503 1.66333 2.21132 1.70184 2.08464 1.77498C1.95747 1.8484 1.85196 1.95412 1.77879 2.08143C1.70562 2.20875 1.66739 2.35313 1.66798 2.49998V15.8333C1.66798 16.4964 1.93137 17.1322 2.40021 17.6011C2.86905 18.0699 3.50493 18.3333 4.16798 18.3333H15.8346C16.4977 18.3333 17.1336 18.0699 17.6024 17.6011C18.0712 17.1322 18.3346 16.4964 18.3346 15.8333V10.8333C18.3346 10.6123 18.2468 10.4003 18.0906 10.2441C17.9343 10.0878 17.7223 9.99998 17.5013 9.99998ZM4.16798 16.6666C3.94696 16.6666 3.735 16.5788 3.57872 16.4226C3.42244 16.2663 3.33464 16.0543 3.33464 15.8333V3.94164L5.00131 4.89164C5.12992 4.95882 5.27287 4.9939 5.41798 4.9939C5.56308 4.9939 5.70603 4.95882 5.83464 4.89164L8.33464 3.45831L10.8346 4.89164C10.9633 4.95882 11.1062 4.9939 11.2513 4.9939C11.3964 4.9939 11.5394 4.95882 11.668 4.89164L13.3346 3.94164V15.8333C13.3369 16.1176 13.3876 16.3994 13.4846 16.6666H4.16798ZM16.668 15.8333C16.668 16.0543 16.5802 16.2663 16.4239 16.4226C16.2676 16.5788 16.0557 16.6666 15.8346 16.6666C15.6136 16.6666 15.4017 16.5788 15.2454 16.4226C15.0891 16.2663 15.0013 16.0543 15.0013 15.8333V11.6666H16.668V15.8333ZM10.8346 9.99998H5.83464C5.61363 9.99998 5.40167 10.0878 5.24539 10.2441C5.08911 10.4003 5.00131 10.6123 5.00131 10.8333C5.00131 11.0543 5.08911 11.2663 5.24539 11.4226C5.40167 11.5788 5.61363 11.6666 5.83464 11.6666H10.8346C11.0557 11.6666 11.2676 11.5788 11.4239 11.4226C11.5802 11.2663 11.668 11.0543 11.668 10.8333C11.668 10.6123 11.5802 10.4003 11.4239 10.2441C11.2676 10.0878 11.0557 9.99998 10.8346 9.99998Z" fill="#1976FE"/>
</svg>