<svg width="16" height="16" viewBox="0 0 16 16" fill="none" xmlns="http://www.w3.org/2000/svg">
  <path d="M11 1.90909V13.9091C11 15.2518 11.9273 16 12.9091 16C13.8182 16 14.8182 15.3636 14.8182 13.9091V2C14.8182 0.769091 13.9091 0 12.9091 0C11.9091 0 11 0.848182 11 1.90909Z" fill="#F9AB00"/>
  <path d="M6.00002 8V13.9091C6.00002 15.2518 6.9273 16 7.90912 16C8.81821 16 9.81822 15.3636 9.81822 13.9091V8.09091C9.81822 6.86 8.90912 6.09091 7.90912 6.09091C6.90911 6.09091 6.00002 6.93909 6.00002 8Z" fill="#E37400"/>
  <path d="M2.9091 16C3.96346 16 4.8182 15.1453 4.8182 14.0909C4.8182 13.0365 3.96346 12.1818 2.9091 12.1818C1.85473 12.1818 1 13.0365 1 14.0909C1 15.1453 1.85473 16 2.9091 16Z" fill="#E37400"/>
</svg>
