<svg width="19" height="18" viewBox="0 0 19 18" fill="none" xmlns="http://www.w3.org/2000/svg">
<g clip-path="url(#clip0_810_8060)">
<path fill-rule="evenodd" clip-rule="evenodd" d="M5.74386 1.83373C6.69111 2.52448 7.40811 3.49498 8.01861 4.38673L8.49711 5.09023C8.6457 5.3074 8.71369 5.56969 8.68931 5.8317C8.66493 6.09371 8.54972 6.33895 8.36361 6.52498L7.34661 7.54198L7.45386 7.76998C7.71636 8.30173 8.16936 9.06748 8.85111 9.74998C9.32186 10.2136 9.85258 10.6122 10.4291 10.935L10.7044 11.0827L10.9496 11.2042L11.0591 11.2545L12.0754 10.2375C12.2621 10.051 12.5084 9.93595 12.7714 9.91251C13.0343 9.88907 13.297 9.95869 13.5139 10.1092L14.2744 10.6365C15.1384 11.244 16.0406 11.9362 16.7419 12.8347C16.8631 12.9907 16.9402 13.1763 16.9651 13.3722C16.9901 13.5681 16.9619 13.7672 16.8836 13.9485C16.2559 15.4132 14.6674 16.6605 13.0151 16.599L12.7901 16.587L12.6154 16.572L12.4219 16.5495L12.2111 16.521L11.9824 16.4827L11.7379 16.4347L11.4784 16.377L11.2039 16.3065L10.9151 16.224L10.6136 16.1265C9.22911 15.657 7.47186 14.7345 5.66886 12.9315C3.86661 11.1292 2.94411 9.37198 2.47461 7.98748L2.37711 7.68598L2.29461 7.39723L2.22411 7.12273L2.16561 6.86323C2.14871 6.78196 2.13296 6.70045 2.11836 6.61873L2.08086 6.38998L2.05086 6.17923L2.02911 5.98573L2.01411 5.81098L2.00211 5.58598C1.94136 3.93898 3.20211 2.33923 4.66011 1.71448C4.83559 1.6387 5.02776 1.60985 5.21776 1.63076C5.40775 1.65167 5.58905 1.72161 5.74386 1.83373ZM5.04861 3.18973C4.24461 3.60973 3.46611 4.56973 3.50136 5.53048L3.51636 5.77648L3.53286 5.93023L3.55461 6.10273L3.58461 6.29248L3.62286 6.50023L3.67161 6.72373L3.73161 6.96373L3.80361 7.21798L3.88911 7.48648C3.92061 7.57798 3.95361 7.67173 3.98961 7.76773L4.10511 8.06173L4.23711 8.36698C4.70811 9.40348 5.47611 10.617 6.73086 11.871C7.98486 13.125 9.19836 13.8937 10.2349 14.3647L10.5401 14.4967L10.8341 14.6122C10.9301 14.6482 11.0239 14.6812 11.1154 14.7127L11.3839 14.7982L11.6389 14.8702L11.8781 14.9302L12.1016 14.979L12.3094 15.0172L12.4999 15.0472L12.6724 15.0697L12.8254 15.0847L13.0714 15.0997C14.0194 15.135 14.9869 14.361 15.4054 13.5675C14.8714 12.9412 14.2084 12.4275 13.4771 11.91L12.9161 11.5192L12.7736 11.6685L12.4691 12.0007L12.3079 12.1702C11.8684 12.618 11.3554 12.9982 10.7404 12.75L10.5709 12.6787L10.3639 12.5857L10.2484 12.531L9.99486 12.4042L9.71661 12.2542C9.01245 11.8624 8.36478 11.3767 7.79136 10.8105C7.22517 10.237 6.73948 9.58938 6.34761 8.88523L6.19761 8.60773L6.07011 8.35348L5.92311 8.03098L5.85111 7.85998C5.61786 7.28323 5.93886 6.79648 6.34911 6.37498L6.51711 6.20998L6.93486 5.82523L7.08486 5.68273L6.73011 5.16298C6.20286 4.39798 5.68761 3.70798 5.04786 3.18898L5.04861 3.18973ZM13.3511 2.24998C13.5348 2.25 13.7121 2.31745 13.8494 2.43952C13.9867 2.56158 14.0744 2.72979 14.0959 2.91223L14.1011 2.99998V4.49998H15.6011C15.7923 4.50019 15.9761 4.57339 16.1151 4.70462C16.2541 4.83584 16.3378 5.01519 16.349 5.20603C16.3602 5.39686 16.2981 5.58476 16.1754 5.73135C16.0527 5.87794 15.8787 5.97215 15.6889 5.99473L15.6011 5.99998H14.1011V7.49998C14.1009 7.69114 14.0277 7.875 13.8965 8.01401C13.7652 8.15301 13.5859 8.23666 13.3951 8.24786C13.2042 8.25906 13.0163 8.19697 12.8697 8.07428C12.7231 7.95159 12.6289 7.77755 12.6064 7.58773L12.6011 7.49998V5.99998H11.1011C10.9099 5.99977 10.7261 5.92657 10.5871 5.79534C10.4481 5.66412 10.3644 5.48476 10.3532 5.29393C10.342 5.1031 10.4041 4.91519 10.5268 4.7686C10.6495 4.62201 10.8235 4.52781 11.0134 4.50523L11.1011 4.49998H12.6011V2.99998C12.6011 2.80107 12.6801 2.6103 12.8208 2.46965C12.9614 2.329 13.1522 2.24998 13.3511 2.24998Z" fill="url(#paint0_linear_810_8060)"/>
</g>
<defs>
<linearGradient id="paint0_linear_810_8060" x1="2" y1="9.11265" x2="16.9739" y2="9.11265" gradientUnits="userSpaceOnUse">
<stop offset="0.390625" stop-color="#3D8BFD"/>
<stop offset="1" stop-color="#1273FF"/>
</linearGradient>
<clipPath id="clip0_810_8060">
<rect width="18" height="18" fill="white" transform="translate(0.601562)"/>
</clipPath>
</defs>
</svg>
