<svg width="16" height="16" viewBox="0 0 16 16" fill="none" xmlns="http://www.w3.org/2000/svg">
  <path d="M1.99935 9.33333L2.33268 9.38L5.37935 6.33333C5.31822 6.10947 5.31813 5.87332 5.3791 5.64941C5.44006 5.4255 5.55984 5.22198 5.72602 5.06C6.24602 4.53333 7.08602 4.53333 7.60602 5.06C7.95935 5.40667 8.07268 5.9 7.95268 6.33333L9.66602 8.04667L9.99935 8C10.1193 8 10.2327 8 10.3327 8.04667L12.7127 5.66667C12.666 5.56667 12.666 5.45333 12.666 5.33333C12.666 4.97971 12.8065 4.64057 13.0565 4.39052C13.3066 4.14048 13.6457 4 13.9993 4C14.353 4 14.6921 4.14048 14.9422 4.39052C15.1922 4.64057 15.3327 4.97971 15.3327 5.33333C15.3327 5.68696 15.1922 6.02609 14.9422 6.27614C14.6921 6.52619 14.353 6.66667 13.9993 6.66667C13.8793 6.66667 13.766 6.66667 13.666 6.62L11.286 9C11.3327 9.1 11.3327 9.21333 11.3327 9.33333C11.3327 9.68696 11.1922 10.0261 10.9422 10.2761C10.6921 10.5262 10.353 10.6667 9.99935 10.6667C9.64573 10.6667 9.30659 10.5262 9.05654 10.2761C8.80649 10.0261 8.66602 9.68696 8.66602 9.33333L8.71268 9L6.99935 7.28667C6.78602 7.33333 6.54602 7.33333 6.33268 7.28667L3.28602 10.3333L3.33268 10.6667C3.33268 11.0203 3.19221 11.3594 2.94216 11.6095C2.69211 11.8595 2.35297 12 1.99935 12C1.64573 12 1.30659 11.8595 1.05654 11.6095C0.806491 11.3594 0.666016 11.0203 0.666016 10.6667C0.666016 10.313 0.806491 9.97391 1.05654 9.72386C1.30659 9.47381 1.64573 9.33333 1.99935 9.33333Z" fill="#1976FE"/>
</svg>
