<svg width="21" height="21" viewBox="0 0 21 21" fill="none" xmlns="http://www.w3.org/2000/svg">
  <path d="M12.5353 15.8605C12.3213 15.6465 12.2186 15.3879 12.2272 15.0847C12.2364 14.7815 12.3481 14.5229 12.5621 14.3089L15.5851 11.2858H3.65359C3.35039 11.2858 3.09607 11.1831 2.89061 10.9777C2.68587 10.7729 2.5835 10.5189 2.5835 10.2158C2.5835 9.91256 2.68587 9.65824 2.89061 9.45278C3.09607 9.24804 3.35039 9.14567 3.65359 9.14567H15.5851L12.5353 6.09591C12.3213 5.88189 12.2143 5.62756 12.2143 5.33293C12.2143 5.03901 12.3213 4.78505 12.5353 4.57103C12.7494 4.35701 13.0037 4.25 13.2983 4.25C13.5922 4.25 13.8462 4.35701 14.0602 4.57103L18.9559 9.46669C19.0629 9.5737 19.1389 9.68963 19.1838 9.81447C19.228 9.93932 19.2502 10.0731 19.2502 10.2158C19.2502 10.3584 19.228 10.4922 19.1838 10.617C19.1389 10.7419 19.0629 10.8578 18.9559 10.9648L14.0335 15.8872C13.8373 16.0834 13.5922 16.1815 13.2983 16.1815C13.0037 16.1815 12.7494 16.0745 12.5353 15.8605Z" fill="#00BB4F"/>
</svg>
