<svg width="20" height="20" viewBox="0 0 20 20" fill="none" xmlns="http://www.w3.org/2000/svg">
  <path d="M10.0013 14.1667C10.2374 14.1667 10.4355 14.0867 10.5955 13.9267C10.7549 13.7672 10.8346 13.5695 10.8346 13.3334V9.97919C10.8346 9.74308 10.7549 9.54863 10.5955 9.39585C10.4355 9.24308 10.2374 9.16669 10.0013 9.16669C9.76519 9.16669 9.56741 9.24641 9.40797 9.40585C9.24797 9.56585 9.16797 9.76391 9.16797 10V13.3542C9.16797 13.5903 9.24797 13.7847 9.40797 13.9375C9.56741 14.0903 9.76519 14.1667 10.0013 14.1667ZM10.0013 7.50002C10.2374 7.50002 10.4355 7.42002 10.5955 7.26002C10.7549 7.10058 10.8346 6.9028 10.8346 6.66669C10.8346 6.43058 10.7549 6.23252 10.5955 6.07252C10.4355 5.91308 10.2374 5.83335 10.0013 5.83335C9.76519 5.83335 9.56741 5.91308 9.40797 6.07252C9.24797 6.23252 9.16797 6.43058 9.16797 6.66669C9.16797 6.9028 9.24797 7.10058 9.40797 7.26002C9.56741 7.42002 9.76519 7.50002 10.0013 7.50002ZM10.0013 18.3334C8.84852 18.3334 7.76519 18.1145 6.7513 17.6767C5.73741 17.2395 4.85547 16.6459 4.10547 15.8959C3.35547 15.1459 2.76186 14.2639 2.32464 13.25C1.88686 12.2361 1.66797 11.1528 1.66797 10C1.66797 8.84724 1.88686 7.76391 2.32464 6.75002C2.76186 5.73613 3.35547 4.85419 4.10547 4.10419C4.85547 3.35419 5.73741 2.7603 6.7513 2.32252C7.76519 1.8853 8.84852 1.66669 10.0013 1.66669C11.1541 1.66669 12.2374 1.8853 13.2513 2.32252C14.2652 2.7603 15.1471 3.35419 15.8971 4.10419C16.6471 4.85419 17.2407 5.73613 17.678 6.75002C18.1157 7.76391 18.3346 8.84724 18.3346 10C18.3346 11.1528 18.1157 12.2361 17.678 13.25C17.2407 14.2639 16.6471 15.1459 15.8971 15.8959C15.1471 16.6459 14.2652 17.2395 13.2513 17.6767C12.2374 18.1145 11.1541 18.3334 10.0013 18.3334ZM10.0013 16.6667C11.8485 16.6667 13.4216 16.0175 14.7205 14.7192C16.0188 13.4203 16.668 11.8472 16.668 10C16.668 8.1528 16.0188 6.57974 14.7205 5.28085C13.4216 3.98252 11.8485 3.33335 10.0013 3.33335C8.15408 3.33335 6.5813 3.98252 5.28297 5.28085C3.98408 6.57974 3.33464 8.1528 3.33464 10C3.33464 11.8472 3.98408 13.4203 5.28297 14.7192C6.5813 16.0175 8.15408 16.6667 10.0013 16.6667Z" fill="#096DB7"/>
</svg>
