<svg width="20" height="20" viewBox="0 0 20 20" fill="none" xmlns="http://www.w3.org/2000/svg">
  <path d="M10.0013 14.1666C10.2374 14.1666 10.4355 14.0866 10.5955 13.9266C10.7549 13.7672 10.8346 13.5694 10.8346 13.3333V9.97913C10.8346 9.74302 10.7549 9.54857 10.5955 9.39579C10.4355 9.24301 10.2374 9.16663 10.0013 9.16663C9.76519 9.16663 9.56741 9.24635 9.40797 9.40579C9.24797 9.56579 9.16797 9.76385 9.16797 9.99996V13.3541C9.16797 13.5902 9.24797 13.7847 9.40797 13.9375C9.56741 14.0902 9.76519 14.1666 10.0013 14.1666ZM10.0013 7.49996C10.2374 7.49996 10.4355 7.41996 10.5955 7.25996C10.7549 7.10051 10.8346 6.90274 10.8346 6.66663C10.8346 6.43051 10.7549 6.23246 10.5955 6.07246C10.4355 5.91301 10.2374 5.83329 10.0013 5.83329C9.76519 5.83329 9.56741 5.91301 9.40797 6.07246C9.24797 6.23246 9.16797 6.43051 9.16797 6.66663C9.16797 6.90274 9.24797 7.10051 9.40797 7.25996C9.56741 7.41996 9.76519 7.49996 10.0013 7.49996ZM10.0013 18.3333C8.84852 18.3333 7.76519 18.1144 6.7513 17.6766C5.73741 17.2394 4.85547 16.6458 4.10547 15.8958C3.35547 15.1458 2.76186 14.2638 2.32464 13.25C1.88686 12.2361 1.66797 11.1527 1.66797 9.99996C1.66797 8.84718 1.88686 7.76385 2.32464 6.74996C2.76186 5.73607 3.35547 4.85413 4.10547 4.10413C4.85547 3.35413 5.73741 2.76024 6.7513 2.32246C7.76519 1.88524 8.84852 1.66663 10.0013 1.66663C11.1541 1.66663 12.2374 1.88524 13.2513 2.32246C14.2652 2.76024 15.1471 3.35413 15.8971 4.10413C16.6471 4.85413 17.2407 5.73607 17.678 6.74996C18.1157 7.76385 18.3346 8.84718 18.3346 9.99996C18.3346 11.1527 18.1157 12.2361 17.678 13.25C17.2407 14.2638 16.6471 15.1458 15.8971 15.8958C15.1471 16.6458 14.2652 17.2394 13.2513 17.6766C12.2374 18.1144 11.1541 18.3333 10.0013 18.3333ZM10.0013 16.6666C11.8485 16.6666 13.4216 16.0175 14.7205 14.7191C16.0188 13.4202 16.668 11.8472 16.668 9.99996C16.668 8.15274 16.0188 6.57968 14.7205 5.28079C13.4216 3.98246 11.8485 3.33329 10.0013 3.33329C8.15408 3.33329 6.5813 3.98246 5.28297 5.28079C3.98408 6.57968 3.33464 8.15274 3.33464 9.99996C3.33464 11.8472 3.98408 13.4202 5.28297 14.7191C6.5813 16.0175 8.15408 16.6666 10.0013 16.6666Z" fill="#F44C3D"/>
</svg>
