<svg width="17" height="16" viewBox="0 0 17 16" fill="none" xmlns="http://www.w3.org/2000/svg">
  <path d="M11.2669 0H5.93359C5.20026 0 4.60026 0.6 4.60026 1.33333V12C4.60026 12.7333 5.20026 13.3333 5.93359 13.3333H13.9336C14.6669 13.3333 15.2669 12.7333 15.2669 12V4L11.2669 0ZM13.9336 12H5.93359V1.33333H10.6003V4.66667H13.9336V12ZM3.26693 2.66667V14.6667H13.9336V16H3.26693C2.53359 16 1.93359 15.4 1.93359 14.6667V2.66667H3.26693ZM7.26693 6.66667V8H12.6003V6.66667H7.26693ZM7.26693 9.33333V10.6667H10.6003V9.33333H7.26693Z" fill="#1976FE"/>
</svg>
