<svg width="24" height="24" viewBox="0 0 24 24" fill="none" xmlns="http://www.w3.org/2000/svg">
  <path d="M24 12C24 18.6274 18.6274 24 12 24C5.37258 24 0 18.6274 0 12C0 5.37258 5.37258 0 12 0C18.6274 0 24 5.37258 24 12Z" fill="white"/>
  <path d="M10.32 14.16L7.71 11.55C7.49 11.33 7.22 11.22 6.9 11.22C6.58 11.22 6.3 11.34 6.06 11.58C5.84 11.8 5.73 12.08 5.73 12.42C5.73 12.76 5.84 13.04 6.06 13.26L9.48 16.68C9.7 16.9 9.98 17.01 10.32 17.01C10.66 17.01 10.94 16.9 11.16 16.68L17.97 9.87C18.19 9.65 18.3 9.38 18.3 9.06C18.3 8.74 18.18 8.46 17.94 8.22C17.72 8 17.44 7.89 17.1 7.89C16.76 7.89 16.48 8 16.26 8.22L10.32 14.16ZM12 24C10.34 24 8.78 23.6848 7.32 23.0544C5.86 22.4248 4.59 21.57 3.51 20.49C2.43 19.41 1.5752 18.14 0.9456 16.68C0.3152 15.22 0 13.66 0 12C0 10.34 0.3152 8.78 0.9456 7.32C1.5752 5.86 2.43 4.59 3.51 3.51C4.59 2.43 5.86 1.5748 7.32 0.9444C8.78 0.3148 10.34 0 12 0C13.66 0 15.22 0.3148 16.68 0.9444C18.14 1.5748 19.41 2.43 20.49 3.51C21.57 4.59 22.4248 5.86 23.0544 7.32C23.6848 8.78 24 10.34 24 12C24 13.66 23.6848 15.22 23.0544 16.68C22.4248 18.14 21.57 19.41 20.49 20.49C19.41 21.57 18.14 22.4248 16.68 23.0544C15.22 23.6848 13.66 24 12 24Z" fill="#1976fe"/>
</svg>
