<svg width="12" height="12" viewBox="0 0 12 12" fill="none" xmlns="http://www.w3.org/2000/svg">
  <path d="M6 8.68125C5.9 8.68125 5.80625 8.6655 5.71875 8.634C5.63125 8.603 5.55 8.55 5.475 8.475L2.775 5.775C2.6375 5.6375 2.56875 5.4625 2.56875 5.25C2.56875 5.0375 2.6375 4.8625 2.775 4.725C2.9125 4.5875 3.0905 4.5155 3.309 4.509C3.528 4.503 3.70625 4.56875 3.84375 4.70625L5.25 6.1125V0.75C5.25 0.5375 5.322 0.35925 5.466 0.21525C5.6095 0.0717501 5.7875 0 6 0C6.2125 0 6.39075 0.0717501 6.53475 0.21525C6.67825 0.35925 6.75 0.5375 6.75 0.75V6.1125L8.15625 4.70625C8.29375 4.56875 8.472 4.503 8.691 4.509C8.9095 4.5155 9.0875 4.5875 9.225 4.725C9.3625 4.8625 9.43125 5.0375 9.43125 5.25C9.43125 5.4625 9.3625 5.6375 9.225 5.775L6.525 8.475C6.45 8.55 6.36875 8.603 6.28125 8.634C6.19375 8.6655 6.1 8.68125 6 8.68125ZM1.5 12C1.0875 12 0.7345 11.8533 0.441 11.5597C0.147 11.2657 0 10.9125 0 10.5V9C0 8.7875 0.0717501 8.60925 0.21525 8.46525C0.35925 8.32175 0.5375 8.25 0.75 8.25C0.9625 8.25 1.14075 8.32175 1.28475 8.46525C1.42825 8.60925 1.5 8.7875 1.5 9V10.5H10.5V9C10.5 8.7875 10.572 8.60925 10.716 8.46525C10.8595 8.32175 11.0375 8.25 11.25 8.25C11.4625 8.25 11.6405 8.32175 11.784 8.46525C11.928 8.60925 12 8.7875 12 9V10.5C12 10.9125 11.8533 11.2657 11.5597 11.5597C11.2657 11.8533 10.9125 12 10.5 12H1.5Z" fill="#666666"/>
</svg>
