<svg width="20" height="20" viewBox="0 0 20 20" fill="none" xmlns="http://www.w3.org/2000/svg">
  <rect width="20" height="20" rx="10" fill="white"/>
  <path d="M5.88525 18.0043C5.63275 18.4955 5.82487 19.1035 6.33881 19.3057C7.92498 19.9298 9.65003 20.1401 11.3499 19.9085C13.3812 19.6317 15.2784 18.7374 16.7844 17.3465C18.2905 15.9557 19.3327 14.1355 19.7699 12.1326C20.2071 10.1297 20.0182 8.04086 19.2287 6.14892C18.4392 4.25698 17.0873 2.65339 15.3561 1.55536C13.6249 0.457319 11.5981 -0.0821105 9.55008 0.0101267C7.50209 0.102364 5.53194 0.821811 3.90645 2.07103C2.54618 3.11641 1.48229 4.49052 0.8102 6.05694C0.592434 6.56448 0.88947 7.12869 1.41621 7.2947C1.94296 7.46072 2.49892 7.16469 2.72931 6.66275C3.26968 5.48549 4.09018 4.45222 5.12516 3.65682C6.42555 2.65745 8.00167 2.08189 9.64006 2.0081C11.2784 1.93431 12.8999 2.36586 14.2849 3.24429C15.6699 4.12271 16.7514 5.40558 17.383 6.91914C18.0146 8.43269 18.1657 10.1038 17.816 11.7061C17.4662 13.3084 16.6324 14.7645 15.4275 15.8772C14.2227 16.9899 12.7049 17.7054 11.0799 17.9268C9.78655 18.103 8.47496 17.9594 7.25807 17.5154C6.73923 17.3262 6.13776 17.5131 5.88525 18.0043Z" fill="url(#paint0_radial_1979_878)"/>
  <defs>
    <radialGradient id="paint0_radial_1979_878" cx="0" cy="0" r="1" gradientUnits="userSpaceOnUse" gradientTransform="translate(11.5 18) rotate(-155.854) scale(15.8902 28.0954)">
      <stop offset="0.289361" stop-color="#1976FE"/>
      <stop offset="1" stop-color="#1976FE" stop-opacity="0"/>
    </radialGradient>
  </defs>
</svg>
