<svg width="20" height="20" viewBox="0 0 20 20" fill="none" xmlns="http://www.w3.org/2000/svg">
  <path d="M18.1687 12.6438L18.1688 12.6439C18.2709 12.8214 18.2987 13.032 18.2461 13.2298C18.1936 13.4273 18.0652 13.596 17.8889 13.6993C17.7716 13.7701 17.6369 13.8071 17.4998 13.8063M18.1687 12.6438L12.6013 15.4297V15.5797H12.6018H12.7107H12.7246L12.7383 15.5772C12.9398 15.5395 13.1185 15.4242 13.236 15.2561C13.3535 15.0881 13.4003 14.8806 13.3664 14.6784L13.3662 14.6771L12.9365 12.2394C13.8309 11.9734 14.6826 11.5803 15.4653 11.0723L16.823 13.4188C16.8916 13.5376 16.9905 13.6361 17.1096 13.7042C17.2284 13.7721 17.363 13.8073 17.4998 13.8063M18.1687 12.6438L16.715 10.126L18.1687 12.6438ZM17.4998 13.8063C17.5002 13.8063 17.5007 13.8063 17.5011 13.8063L17.4998 13.6563L17.4985 13.8063C17.499 13.8063 17.4994 13.8063 17.4998 13.8063ZM4.52645 11.0724L3.16086 13.4345L3.15986 13.4362L3.15985 13.4362C3.09094 13.5518 2.99367 13.6479 2.87725 13.7154C2.76083 13.7829 2.62911 13.8195 2.49456 13.8219L2.49141 13.8219C2.3556 13.8214 2.2223 13.7853 2.10487 13.717C1.98743 13.6488 1.88999 13.5509 1.82229 13.4332C1.75459 13.3155 1.71902 13.182 1.71914 13.0462C1.71926 12.9104 1.75506 12.777 1.82295 12.6594C1.82295 12.6594 1.82296 12.6594 1.82297 12.6594C1.82297 12.6594 1.82297 12.6594 1.82297 12.6594L3.28454 10.126C2.78171 9.68528 2.31809 9.20163 1.89892 8.6805C1.83459 8.60191 1.78651 8.51133 1.75746 8.41401C1.72833 8.31645 1.71892 8.21407 1.72977 8.11283C1.74062 8.0116 1.7715 7.91354 1.82063 7.82436C1.86947 7.73572 1.93536 7.65762 2.0145 7.59456C2.09229 7.53004 2.18208 7.48151 2.27869 7.45179C2.37589 7.42189 2.47806 7.4116 2.57927 7.42154C2.68048 7.43148 2.7787 7.46145 2.86823 7.50969C2.95775 7.55793 3.03679 7.62349 3.10075 7.70256L3.10114 7.70304L3.10114 7.70304C3.57216 8.29028 4.10857 8.82187 4.69994 9.28752H4.70759L4.74826 9.31925C6.24715 10.4885 8.09757 11.1161 9.99848 11.1L9.99975 11.1C12.2509 11.1 13.9771 10.3094 15.2437 9.32681L15.2843 9.29533H15.2996C15.8908 8.82976 16.4272 8.29828 16.8981 7.71116C16.9613 7.63154 17.0397 7.56527 17.1288 7.51621C17.218 7.46708 17.316 7.4362 17.4173 7.42535C17.5185 7.4145 17.6209 7.42392 17.7184 7.45304C17.8156 7.48205 17.9061 7.53004 17.9846 7.59424C18.0639 7.65736 18.13 7.73557 18.1789 7.82436C18.228 7.91354 18.2589 8.0116 18.2697 8.11284C18.2806 8.21407 18.2712 8.31645 18.242 8.41401L18.0983 8.3711L18.242 8.41401C18.213 8.51134 18.1649 8.60193 18.1006 8.68052C18.1004 8.68071 18.1003 8.68089 18.1001 8.68108L4.52645 11.0724ZM4.52645 11.0724C5.31103 11.5818 6.1653 11.975 7.06265 12.2396L6.62553 14.6846L6.62552 14.6846L6.62525 14.6862C6.59138 14.8884 6.63821 15.0959 6.75568 15.2639C6.87315 15.432 7.05187 15.5473 7.25343 15.585L7.2671 15.5875H7.281L7.38994 15.5875C7.39005 15.5875 7.39017 15.5875 7.39029 15.5875H7.39038L4.52645 11.0724ZM10.0003 12.65L9.99982 12.65C9.52357 12.6502 9.04784 12.6197 8.57561 12.5587L10.0003 12.65ZM10.0003 12.65C10.474 12.6481 10.947 12.6153 11.4162 12.5518L10.0003 12.65Z" fill="#666666" stroke="#666666" stroke-width="0.3"/>
</svg>
