<svg width="20" height="20" viewBox="0 0 20 20" fill="none" xmlns="http://www.w3.org/2000/svg">
  <path d="M8.83073 11.5L7.01823 9.68749C6.86545 9.53471 6.67462 9.46193 6.44573 9.46916C6.21628 9.47582 6.02517 9.55554 5.8724 9.70832C5.71962 9.8611 5.64323 10.0555 5.64323 10.2917C5.64323 10.5278 5.71962 10.7222 5.8724 10.875L8.24739 13.25C8.40017 13.4028 8.59462 13.4792 8.83073 13.4792C9.06684 13.4792 9.26128 13.4028 9.41406 13.25L14.1432 8.52082C14.296 8.36804 14.3691 8.17693 14.3624 7.94749C14.3552 7.7186 14.2752 7.52777 14.1224 7.37499C13.9696 7.22221 13.7752 7.14582 13.5391 7.14582C13.3029 7.14582 13.1085 7.22221 12.9557 7.37499L8.83073 11.5ZM9.99739 18.3333C8.84462 18.3333 7.76128 18.1144 6.7474 17.6767C5.73351 17.2394 4.85156 16.6458 4.10156 15.8958C3.35156 15.1458 2.75795 14.2639 2.32073 13.25C1.88295 12.2361 1.66406 11.1528 1.66406 9.99999C1.66406 8.84721 1.88295 7.76388 2.32073 6.74999C2.75795 5.7361 3.35156 4.85416 4.10156 4.10416C4.85156 3.35416 5.73351 2.76027 6.7474 2.32249C7.76128 1.88527 8.84462 1.66666 9.99739 1.66666C11.1502 1.66666 12.2335 1.88527 13.2474 2.32249C14.2613 2.76027 15.1432 3.35416 15.8932 4.10416C16.6432 4.85416 17.2368 5.7361 17.6741 6.74999C18.1118 7.76388 18.3307 8.84721 18.3307 9.99999C18.3307 11.1528 18.1118 12.2361 17.6741 13.25C17.2368 14.2639 16.6432 15.1458 15.8932 15.8958C15.1432 16.6458 14.2613 17.2394 13.2474 17.6767C12.2335 18.1144 11.1502 18.3333 9.99739 18.3333ZM9.99739 16.6667C11.8446 16.6667 13.4177 16.0175 14.7166 14.7192C16.0149 13.4203 16.6641 11.8472 16.6641 9.99999C16.6641 8.15277 16.0149 6.57971 14.7166 5.28082C13.4177 3.98249 11.8446 3.33332 9.99739 3.33332C8.15017 3.33332 6.57739 3.98249 5.27906 5.28082C3.98017 6.57971 3.33073 8.15277 3.33073 9.99999C3.33073 11.8472 3.98017 13.4203 5.27906 14.7192C6.57739 16.0175 8.15017 16.6667 9.99739 16.6667Z" fill="#00BB4F"/>
</svg>
