<svg width="16" height="16" viewBox="0 0 16 16" fill="none" xmlns="http://www.w3.org/2000/svg">
  <path d="M6.94288 9.05751C7.25038 9.35001 7.25038 9.83001 6.94288 10.1225C6.65038 10.415 6.17038 10.415 5.87788 10.1225C5.17541 9.41899 4.78086 8.46545 4.78086 7.47126C4.78086 6.47708 5.17541 5.52353 5.87788 4.82001L8.53288 2.16501C9.2364 1.46255 10.1899 1.06799 11.1841 1.06799C12.1783 1.06799 13.1319 1.46255 13.8354 2.16501C14.5378 2.86853 14.9324 3.82208 14.9324 4.81626C14.9324 5.81045 14.5378 6.76399 13.8354 7.46751L12.7179 8.58501C12.7254 7.97001 12.6279 7.35501 12.4179 6.77001L12.7704 6.41001C12.9806 6.20203 13.1475 5.95441 13.2615 5.68149C13.3754 5.40856 13.434 5.11576 13.434 4.82001C13.434 4.52427 13.3754 4.23146 13.2615 3.95854C13.1475 3.68562 12.9806 3.438 12.7704 3.23001C12.5624 3.01976 12.3148 2.85284 12.0419 2.73893C11.7689 2.62501 11.4761 2.56635 11.1804 2.56635C10.8846 2.56635 10.5918 2.62501 10.3189 2.73893C10.046 2.85284 9.79836 3.01976 9.59038 3.23001L6.94288 5.87751C6.73263 6.0855 6.56571 6.33312 6.45179 6.60604C6.33788 6.87896 6.27922 7.17177 6.27922 7.46751C6.27922 7.76326 6.33788 8.05606 6.45179 8.32899C6.56571 8.60191 6.73263 8.84953 6.94288 9.05751ZM9.05788 5.87751C9.35038 5.58501 9.83038 5.58501 10.1229 5.87751C10.8253 6.58103 11.2199 7.53458 11.2199 8.52876C11.2199 9.52295 10.8253 10.4765 10.1229 11.18L7.46788 13.835C6.76436 14.5375 5.81081 14.932 4.81663 14.932C3.82245 14.932 2.8689 14.5375 2.16538 13.835C1.46291 13.1315 1.06836 12.1779 1.06836 11.1838C1.06836 10.1896 1.46291 9.23603 2.16538 8.53251L3.28288 7.41501C3.27538 8.03001 3.37288 8.64501 3.58288 9.23751L3.23038 9.59001C3.02012 9.798 2.85321 10.0456 2.73929 10.3185C2.62538 10.5915 2.56672 10.8843 2.56672 11.18C2.56672 11.4758 2.62538 11.7686 2.73929 12.0415C2.85321 12.3144 3.02012 12.562 3.23038 12.77C3.43836 12.9803 3.68598 13.1472 3.95891 13.2611C4.23183 13.375 4.52464 13.4337 4.82038 13.4337C5.11612 13.4337 5.40893 13.375 5.68185 13.2611C5.95477 13.1472 6.20239 12.9803 6.41038 12.77L9.05788 10.1225C9.26813 9.91453 9.43505 9.66691 9.54896 9.39399C9.66288 9.12106 9.72154 8.82826 9.72154 8.53251C9.72154 8.23677 9.66288 7.94396 9.54896 7.67104C9.43505 7.39812 9.26813 7.1505 9.05788 6.94251C8.98504 6.87426 8.92697 6.79178 8.88728 6.70019C8.84759 6.6086 8.82711 6.50984 8.82711 6.41001C8.82711 6.31019 8.84759 6.21143 8.88728 6.11983C8.92697 6.02824 8.98504 5.94577 9.05788 5.87751Z" fill="#1976FE"/>
</svg>
