<svg width="14" height="14" viewBox="0 0 14 14" fill="none" xmlns="http://www.w3.org/2000/svg">
  <path d="M6.08468 7.91532C6.35084 8.16849 6.35084 8.58395 6.08468 8.83713C5.83151 9.0903 5.41605 9.0903 5.16287 8.83713C4.55485 8.2282 4.21335 7.40285 4.21335 6.54234C4.21335 5.68183 4.55485 4.85649 5.16287 4.24756L7.46091 1.94952C8.06984 1.3415 8.89518 1 9.75569 1C10.6162 1 11.4415 1.3415 12.0505 1.94952C12.6585 2.55845 13 3.3838 13 4.24431C13 5.10482 12.6585 5.93016 12.0505 6.5391L11.0832 7.50635C11.0897 6.97403 11.0053 6.44172 10.8236 5.93538L11.1287 5.62378C11.3107 5.44376 11.4551 5.22943 11.5537 4.9932C11.6523 4.75697 11.7031 4.50354 11.7031 4.24756C11.7031 3.99158 11.6523 3.73814 11.5537 3.50191C11.4551 3.26568 11.3107 3.05135 11.1287 2.87133C10.9486 2.68935 10.7343 2.54487 10.4981 2.44627C10.2619 2.34767 10.0084 2.2969 9.75245 2.2969C9.49646 2.2969 9.24303 2.34767 9.0068 2.44627C8.77057 2.54487 8.55624 2.68935 8.37622 2.87133L6.08468 5.16287C5.9027 5.34289 5.75822 5.55722 5.65962 5.79345C5.56102 6.02968 5.51025 6.28312 5.51025 6.5391C5.51025 6.79508 5.56102 7.04851 5.65962 7.28474C5.75822 7.52097 5.9027 7.7353 6.08468 7.91532ZM7.91532 5.16287C8.16849 4.9097 8.58395 4.9097 8.83713 5.16287C9.44515 5.7718 9.78665 6.59715 9.78665 7.45766C9.78665 8.31817 9.44515 9.14351 8.83713 9.75245L6.5391 12.0505C5.93016 12.6585 5.10482 13 4.24431 13C3.3838 13 2.55845 12.6585 1.94952 12.0505C1.3415 11.4415 1 10.6162 1 9.75569C1 8.89518 1.3415 8.06984 1.94952 7.46091L2.91677 6.49365C2.91028 7.02597 2.99467 7.55828 3.17644 8.07112L2.87133 8.37622C2.68935 8.55624 2.54487 8.77057 2.44627 9.0068C2.34767 9.24303 2.2969 9.49646 2.2969 9.75245C2.2969 10.0084 2.34767 10.2619 2.44627 10.4981C2.54487 10.7343 2.68935 10.9486 2.87133 11.1287C3.05135 11.3107 3.26568 11.4551 3.50191 11.5537C3.73814 11.6523 3.99158 11.7031 4.24756 11.7031C4.50354 11.7031 4.75697 11.6523 4.9932 11.5537C5.22943 11.4551 5.44376 11.3107 5.62378 11.1287L7.91532 8.83713C8.0973 8.65711 8.24178 8.44278 8.34038 8.20655C8.43898 7.97032 8.48975 7.71689 8.48975 7.46091C8.48975 7.20493 8.43898 6.95149 8.34038 6.71526C8.24178 6.47903 8.0973 6.2647 7.91532 6.08468C7.85227 6.0256 7.80201 5.95422 7.76766 5.87494C7.7333 5.79566 7.71557 5.71018 7.71557 5.62378C7.71557 5.53738 7.7333 5.45189 7.76766 5.37261C7.80201 5.29334 7.85227 5.22195 7.91532 5.16287Z" fill="#666666"/>
</svg>
