<svg width="16" height="16" viewBox="0 0 16 16" fill="none" xmlns="http://www.w3.org/2000/svg">
  <path d="M2.66634 13.3334C2.29967 13.3334 1.9859 13.2029 1.72501 12.942C1.46367 12.6807 1.33301 12.3667 1.33301 12V4.00002C1.33301 3.63335 1.46367 3.31958 1.72501 3.05869C1.9859 2.79735 2.29967 2.66669 2.66634 2.66669H13.333C13.6997 2.66669 14.0137 2.79735 14.275 3.05869C14.5359 3.31958 14.6663 3.63335 14.6663 4.00002V12C14.6663 12.3667 14.5359 12.6807 14.275 12.942C14.0137 13.2029 13.6997 13.3334 13.333 13.3334H2.66634ZM7.99967 8.66669L2.66634 5.33335V12H13.333V5.33335L7.99967 8.66669ZM7.99967 7.33335L13.333 4.00002H2.66634L7.99967 7.33335ZM2.66634 5.33335V4.00002V12V5.33335Z" fill="#096DB7"/>
</svg>
