<svg width="16" height="16" viewBox="0 0 16 16" fill="none" xmlns="http://www.w3.org/2000/svg">
  <path d="M3.33333 14.6667C2.96667 14.6667 2.65267 14.5363 2.39133 14.2754C2.13044 14.014 2 13.7 2 13.3334V4.00004H3.33333V13.3334H10.6667V14.6667H3.33333ZM6 12C5.63333 12 5.31956 11.8696 5.05867 11.6087C4.79733 11.3474 4.66667 11.0334 4.66667 10.6667V2.66671C4.66667 2.30004 4.79733 1.98604 5.05867 1.72471C5.31956 1.46382 5.63333 1.33337 6 1.33337H12C12.3667 1.33337 12.6807 1.46382 12.942 1.72471C13.2029 1.98604 13.3333 2.30004 13.3333 2.66671V10.6667C13.3333 11.0334 13.2029 11.3474 12.942 11.6087C12.6807 11.8696 12.3667 12 12 12H6ZM6 10.6667H12V2.66671H6V10.6667ZM6 10.6667V2.66671V10.6667Z" fill="#1976fe"/>
</svg>
