<svg width="142" height="32" viewBox="0 0 142 32" fill="none" xmlns="http://www.w3.org/2000/svg">
<path d="M9.27506 14.1273C9.27506 11.5664 11.3505 9.48976 13.9115 9.48976C16.4724 9.48976 18.549 11.5664 18.549 14.1273C18.549 16.6882 16.4724 18.7648 13.9115 18.7648C11.3505 18.7648 9.27506 16.6882 9.27506 14.1273ZM6.7681 14.1273C6.7681 18.0726 9.96618 21.2707 13.9115 21.2707C17.8568 21.2707 21.0548 18.0726 21.0548 14.1273C21.0548 10.182 17.8568 6.98392 13.9115 6.98392C9.96618 6.98392 6.7681 10.1818 6.7681 14.1273ZM19.6684 6.70068C19.6682 7.03085 19.766 7.35365 19.9493 7.62825C20.1327 7.90285 20.3933 8.11692 20.6983 8.2434C21.0033 8.36987 21.3389 8.40306 21.6628 8.33878C21.9866 8.2745 22.2841 8.11562 22.5177 7.88225C22.7513 7.64888 22.9104 7.35148 22.9749 7.02768C23.0395 6.70388 23.0065 6.36821 22.8803 6.06312C22.7541 5.75803 22.5402 5.49723 22.2658 5.31368C21.9913 5.13014 21.6686 5.0321 21.3384 5.03197C20.8959 5.03218 20.4708 5.20803 20.1578 5.52091C19.8448 5.83379 19.6688 6.25811 19.6684 6.70068ZM8.29124 25.451C6.93492 25.3892 6.19773 25.1633 5.70782 24.9725C5.05832 24.7196 4.5949 24.4184 4.10767 23.9319C3.62043 23.4453 3.31883 22.9823 3.06709 22.3328C2.87611 21.8432 2.65019 21.1057 2.58854 19.7494C2.52109 18.283 2.50763 17.8425 2.50763 14.1275C2.50763 10.4125 2.52221 9.97322 2.58854 8.50561C2.6503 7.1493 2.87789 6.41333 3.06709 5.92219C3.31995 5.2727 3.6211 4.80928 4.10767 4.32204C4.59424 3.83481 5.05721 3.53321 5.70782 3.28146C6.19751 3.09049 6.93492 2.86456 8.29124 2.80291C9.75762 2.73547 10.1981 2.722 13.9115 2.722C17.6248 2.722 18.0658 2.73636 19.5334 2.80313C20.8897 2.8649 21.6257 3.09249 22.1168 3.28169C22.7663 3.53343 23.2297 3.8357 23.7169 4.32226C24.2042 4.80883 24.5047 5.27292 24.7575 5.92242C24.9485 6.4121 25.1744 7.14952 25.2361 8.50583C25.3035 9.97344 25.317 10.4127 25.317 14.1277C25.317 17.8428 25.3035 18.282 25.2361 19.7496C25.1743 21.106 24.9473 21.8432 24.7575 22.3331C24.5047 22.9826 24.2035 23.446 23.7169 23.9321C23.2304 24.4182 22.7663 24.7198 22.1168 24.9727C21.6271 25.1637 20.8897 25.3896 19.5334 25.4512C18.067 25.5187 17.6265 25.5321 13.9115 25.5321C10.1964 25.5321 9.75717 25.5184 8.29124 25.451ZM8.17605 0.300068C6.69509 0.367511 5.68312 0.602337 4.79935 0.946228C3.88464 1.30136 3.10927 1.7778 2.33501 2.55083C1.56076 3.32387 1.08554 4.09935 0.730408 5.01517C0.386516 5.89949 0.151691 6.91091 0.084248 8.39187C0.0156922 9.87517 0 10.3494 0 14.1273C0 17.9052 0.0156922 18.3794 0.084248 19.8627C0.151691 21.3438 0.386516 22.3551 0.730408 23.2394C1.08554 24.1541 1.56087 24.9311 2.33501 25.7038C3.10916 26.4765 3.88353 26.9522 4.79935 27.3084C5.68478 27.6523 6.69509 27.8871 8.17605 27.9545C9.66013 28.022 10.1336 28.0388 13.9115 28.0388C17.6894 28.0388 18.1636 28.0231 19.6469 27.9545C21.128 27.8871 22.1393 27.6523 23.0236 27.3084C23.9383 26.9522 24.7137 26.4768 25.4879 25.7038C26.2622 24.9307 26.7364 24.1541 27.0925 23.2394C27.4364 22.3551 27.6724 21.3437 27.7387 19.8627C27.8061 18.3783 27.8218 17.9052 27.8218 14.1273C27.8218 10.3494 27.8061 9.87517 27.7387 8.39187C27.6713 6.9108 27.4364 5.89894 27.0925 5.01517C26.7364 4.10046 26.261 3.32509 25.4879 2.55083C24.7149 1.77658 23.9383 1.30136 23.0247 0.946228C22.1393 0.602337 21.1279 0.366398 19.648 0.300068C18.1645 0.232292 17.6905 0.21582 13.9131 0.21582C10.1358 0.21582 9.66013 0.231513 8.17605 0.300068Z" fill="white"/>
<path d="M41.8188 1.92513C39.657 2.83074 37.2804 5.38596 36.5298 8.59577C35.5792 12.6614 39.535 14.3807 39.8594 13.8179C40.2413 13.1553 39.1506 12.9313 38.9261 10.8217C38.636 8.0971 39.9026 5.05262 41.497 3.71679C41.7933 3.46861 41.7791 3.81403 41.7791 4.45297C41.7791 5.59574 41.716 15.8525 41.716 17.9934C41.716 20.8899 41.5964 21.8046 41.3814 22.7082C41.1636 23.6242 40.8138 24.243 41.0788 24.4816C41.3752 24.7483 42.6403 24.114 43.3727 23.0917C44.251 21.8658 44.5583 20.3934 44.6136 18.7944C44.6803 16.867 44.6774 13.8084 44.6803 12.0639C44.683 10.4639 44.7071 5.77867 44.6522 2.96211C44.6389 2.27126 42.7229 1.54646 41.8188 1.92513ZM141.526 17.142C141.212 17.142 141.069 17.4652 140.951 18.0094C140.54 19.9015 140.109 20.3285 139.552 20.3285C138.93 20.3285 138.371 19.3916 138.228 17.5164C138.115 16.0419 138.133 13.327 138.277 10.6267C138.307 10.0719 138.154 9.52289 136.665 8.98226C136.025 8.74955 135.094 8.40732 134.631 9.52608C133.321 12.6868 132.809 15.1964 132.688 16.2154C132.682 16.2682 132.618 16.2789 132.606 16.1557C132.529 15.3393 132.358 13.8555 132.336 10.7385C132.332 10.1304 132.203 9.61266 131.532 9.18884C131.096 8.91364 129.774 8.42741 129.297 9.00608C128.885 9.47933 128.407 10.7529 127.91 12.2626C127.507 13.4895 127.226 14.3196 127.226 14.3196C127.226 14.3196 127.231 11.0088 127.236 9.75293C127.238 9.27915 126.913 9.1211 126.815 9.09266C126.374 8.96466 125.505 8.75079 125.136 8.75079C124.681 8.75079 124.57 9.00519 124.57 9.37586C124.57 9.4244 124.498 13.7348 124.498 16.7489C124.498 16.8798 124.498 17.0227 124.498 17.1745C124.247 18.5598 123.43 20.4403 122.543 20.4403C121.654 20.4403 121.234 19.6542 121.234 16.0609C121.234 13.9649 121.297 13.0532 121.328 11.5373C121.346 10.6641 121.381 9.99329 121.379 9.84129C121.372 9.37462 120.565 9.13942 120.19 9.0523C119.813 8.96484 119.485 8.9307 119.229 8.94528C118.866 8.96573 118.61 9.20342 118.61 9.53035C118.61 9.70564 118.612 10.0388 118.612 10.0388C118.146 9.30546 117.395 8.79506 116.896 8.64714C115.55 8.24785 114.147 8.60181 113.088 10.0831C112.247 11.2601 111.74 12.5935 111.54 14.5089C111.394 15.9091 111.442 17.3292 111.701 18.5301C111.388 19.8851 110.806 20.4403 110.169 20.4403C109.244 20.4403 108.573 18.9306 108.651 16.3194C108.702 14.6019 109.046 13.3967 109.422 11.653C109.582 10.9096 109.452 10.5206 109.125 10.1476C108.826 9.80538 108.188 9.6308 107.271 9.84573C106.618 9.9988 105.684 10.1638 104.829 10.2904C104.829 10.2904 104.881 10.0847 104.923 9.722C105.146 7.82011 103.079 7.97443 102.419 8.5819C102.026 8.94457 101.758 9.37231 101.656 10.1414C101.495 11.3617 102.49 11.9375 102.49 11.9375C102.164 13.4326 101.363 15.3853 100.537 16.7973C100.094 17.5537 99.7553 18.1143 99.3183 18.7102C99.3167 18.4887 99.3155 18.2671 99.3148 18.0456C99.3046 14.9027 99.3466 12.429 99.3649 11.5375C99.383 10.6642 99.418 10.0114 99.4159 9.85942C99.4111 9.51809 99.2118 9.38902 98.7972 9.22599C98.4307 9.08164 97.9972 8.98172 97.5476 8.94688C96.9803 8.90279 96.6383 9.20359 96.6473 9.55951C96.6491 9.62671 96.6491 10.0393 96.6491 10.0393C96.1824 9.30599 95.4317 8.79559 94.9325 8.64768C93.5874 8.24839 92.1838 8.60234 91.1252 10.0836C90.2839 11.2607 89.733 12.9124 89.5769 14.4947C89.4315 15.9693 89.4583 17.2225 89.6565 18.2782C89.4427 19.3352 88.8277 20.4407 88.1324 20.4407C87.2435 20.4407 86.7377 19.6545 86.7377 16.0613C86.7377 13.9652 86.8007 13.0538 86.8314 11.5377C86.8496 10.6644 86.8842 9.99365 86.8821 9.84164C86.8755 9.37497 86.0686 9.13977 85.6931 9.05266C85.3002 8.96164 84.961 8.92839 84.7006 8.94759C84.3567 8.97319 84.1153 9.28075 84.1153 9.51026V10.0393C83.6487 9.30599 82.8979 8.79559 82.3987 8.64768C81.0536 8.24839 79.6579 8.60803 78.5914 10.0836C77.8959 11.0457 77.3329 12.1124 77.0431 14.4737C76.9594 15.156 76.9224 15.7951 76.9272 16.3923C76.6498 18.0883 75.4251 20.043 74.423 20.043C73.8366 20.043 73.2782 18.9059 73.2782 16.4822C73.2782 13.2538 73.4782 8.65728 73.5118 8.21425C73.5118 8.21425 74.7778 8.19274 75.023 8.1899C75.6546 8.18296 76.2265 8.1979 77.0674 8.15487C77.4893 8.13336 77.8957 6.61939 77.4603 6.43201C77.2632 6.34721 75.8683 6.2729 75.3156 6.26117C74.8507 6.25068 73.5563 6.15485 73.5563 6.15485C73.5563 6.15485 73.6724 3.1038 73.6996 2.78149C73.7225 2.51269 73.375 2.37455 73.1757 2.29046C72.6909 2.08566 72.2574 1.98735 71.7435 1.88139C71.0334 1.7349 70.7111 1.87819 70.6484 2.47767C70.5536 3.38701 70.5045 6.05121 70.5045 6.05121C69.9833 6.05121 68.2035 5.94934 67.6823 5.94934C67.1978 5.94934 66.6753 8.03203 67.3449 8.05763C68.1152 8.08749 69.4576 8.11327 70.3475 8.14012C70.3475 8.14012 70.3079 12.8125 70.3079 14.255C70.3079 14.4084 70.3084 14.5562 70.3095 14.6996C69.8197 17.2526 68.0944 18.6316 68.0944 18.6316C68.4649 16.9427 67.7081 15.6744 66.345 14.6008C65.8426 14.2051 64.8513 13.4563 63.742 12.6354C63.742 12.6354 64.3845 12.0022 64.9543 10.7281C65.358 9.82564 65.3754 8.79292 64.3843 8.56519C62.7471 8.18883 61.3969 9.39115 60.9942 10.6749C60.6822 11.6696 60.8486 12.4074 61.4598 13.1741C61.5044 13.2301 61.5528 13.2872 61.6028 13.3448C61.2332 14.0571 60.7254 15.0163 60.2954 15.7601C59.1016 17.8252 58.2001 19.4586 57.5185 19.4586C56.9737 19.4586 56.9812 17.8003 56.9812 16.2476C56.9812 14.9091 57.08 12.8966 57.159 10.813C57.1851 10.124 56.8404 9.73142 56.2628 9.37586C55.9119 9.15986 55.1629 8.73514 54.7293 8.73514C54.08 8.73514 52.2068 8.8235 50.4368 13.9434C50.2137 14.5887 49.7755 15.7645 49.7755 15.7645L49.8131 9.60769C49.8131 9.46333 49.7362 9.3236 49.5602 9.22813C49.2618 9.06635 48.4652 8.73514 47.7569 8.73514C47.4195 8.73514 47.251 8.89212 47.251 9.20502L47.1891 18.8376C47.1891 19.5696 47.2081 20.4234 47.2807 20.7968C47.3527 21.1708 47.4695 21.4748 47.6142 21.6558C47.7585 21.8364 47.9257 21.9742 48.2012 22.0311C48.4576 22.0839 49.8615 22.2642 49.9346 21.7276C50.022 21.0846 50.0252 20.3891 50.7625 17.7953C51.9102 13.7571 53.4066 11.7867 54.1102 11.087C54.2331 10.9647 54.3735 10.9574 54.3668 11.1576C54.3369 12.0427 54.2313 14.2552 54.16 16.1347C53.9694 21.1644 54.8845 22.0967 56.192 22.0967C57.1924 22.0967 58.6026 21.1025 60.1142 18.5866C61.0564 17.0186 61.9715 15.4812 62.6291 14.3731C63.0872 14.7972 63.6012 15.2536 64.1151 15.7413C65.3091 16.8744 65.7011 17.9512 65.441 18.9727C65.2421 19.7537 64.4929 20.5585 63.1596 19.7763C62.7709 19.5482 62.6049 19.3719 62.2143 19.1144C62.0044 18.9763 61.684 18.9349 61.4918 19.0798C60.9924 19.4561 60.7069 19.9351 60.5439 20.5278C60.3853 21.1045 60.9629 21.4094 61.5617 21.6761C62.0773 21.9056 63.1854 22.1136 63.892 22.1372C66.6453 22.2293 68.8512 20.8078 70.3865 17.1409C70.6615 20.3077 71.8311 22.0997 73.8637 22.0997C75.2224 22.0997 76.5848 20.3434 77.1805 18.6156C77.3515 19.32 77.6047 19.9322 77.9316 20.4503C79.4977 22.9315 82.5357 22.3975 84.0618 20.2906C84.5335 19.6396 84.6055 19.4055 84.6055 19.4055C84.828 21.395 86.4302 22.0903 87.3475 22.0903C88.3749 22.0903 89.4357 21.6046 90.1792 19.9308C90.2644 20.1094 90.3599 20.2829 90.4652 20.4505C92.0313 22.9317 95.0694 22.3977 96.5954 20.2908C96.6673 20.1918 96.7298 20.1022 96.7842 20.0216L96.829 21.3287L95.4242 22.6172C93.0692 24.7756 91.28 26.4128 91.1484 28.3193C90.9812 30.7503 92.9515 31.6538 94.4443 31.7722C96.0269 31.8978 97.3846 31.0228 98.218 29.7981C98.9514 28.7204 99.4312 26.4006 99.3962 24.1092C99.3821 23.1916 99.359 22.025 99.3407 20.7745C100.167 19.8145 101.099 18.601 101.956 17.1809C102.891 15.633 103.893 13.5546 104.405 11.937C104.405 11.937 105.276 11.9444 106.204 11.8836C106.501 11.8642 106.587 11.9247 106.532 12.1426C106.466 12.4056 105.359 16.6757 106.369 19.5201C107.06 21.4673 108.619 22.0938 109.544 22.0938C110.626 22.0938 111.66 21.2768 112.215 20.0634C112.282 20.1987 112.352 20.3296 112.428 20.4505C113.994 22.9317 117.022 22.3946 118.558 20.2908C118.905 19.8161 119.102 19.4056 119.102 19.4056C119.432 21.4647 121.033 22.1008 121.95 22.1008C122.906 22.1008 123.812 21.7091 124.548 19.9685C124.578 20.7351 124.627 21.3616 124.703 21.5591C124.75 21.68 125.021 21.8316 125.219 21.9049C126.093 22.2288 126.984 22.0757 127.314 22.009C127.542 21.9628 127.721 21.7795 127.745 21.3063C127.809 20.0636 127.77 17.9758 128.146 16.4239C128.779 13.8198 129.369 12.8095 129.648 12.3096C129.805 12.0294 129.982 11.9832 129.988 12.2797C130.001 12.8797 130.031 14.6417 130.276 17.009C130.456 18.75 130.696 19.7792 130.881 20.1048C131.408 21.0361 132.059 21.0801 132.589 21.0801C132.926 21.0801 133.632 20.9872 133.569 20.3945C133.538 20.1056 133.592 18.3201 134.215 15.7546C134.622 14.0792 135.301 12.5656 135.546 12.012C135.636 11.8079 135.678 11.9688 135.677 12.0001C135.625 13.1539 135.509 16.9278 135.979 18.9918C136.617 21.7881 138.46 22.1008 139.102 22.1008C140.473 22.1008 141.595 21.0577 141.972 18.3132C142.064 17.652 141.93 17.142 141.526 17.142ZM84.0872 15.4453C84.0087 16.8977 83.7253 18.1119 83.2705 18.9939C82.4477 20.5902 80.8198 21.0963 80.1021 18.7898C79.5846 17.1267 79.7608 14.8588 79.9761 13.6339C80.2956 11.8157 81.0956 10.5268 82.3445 10.6489C83.6273 10.7745 84.251 12.423 84.0872 15.4453ZM96.6209 15.4662C96.5476 16.8378 96.1921 18.2156 95.8041 18.9941C95.0034 20.6014 93.3295 21.1038 92.6358 18.79C92.1614 17.209 92.275 15.1629 92.5097 13.8739C92.8142 12.201 93.5524 10.6491 94.8781 10.6491C96.167 10.6489 96.8026 12.063 96.6209 15.4662ZM96.948 24.8237C96.9305 27.3257 96.5369 29.5195 95.6925 30.1567C94.4948 31.0601 92.885 30.3825 93.2183 28.5567C93.5133 26.941 94.9081 25.291 96.9515 23.275C96.9515 23.275 96.9556 23.7348 96.948 24.8237ZM118.584 15.4808C118.514 16.9866 118.181 18.1637 117.767 18.9939C116.966 20.6012 115.304 21.1002 114.599 18.7898C114.214 17.5304 114.196 15.4269 114.473 13.6694C114.754 11.8792 115.54 10.5268 116.841 10.6489C118.125 10.7693 118.725 12.423 118.584 15.4808Z" fill="white"/>
</svg>
