<svg width="116" height="28" viewBox="0 0 116 28" fill="none" xmlns="http://www.w3.org/2000/svg">
<path d="M114.078 22.6332C114.389 22.5554 114.545 22.3998 114.545 22.0887C114.545 21.6998 114.311 21.5443 113.845 21.5443H113.067V23.4887H113.378V22.6332H113.689L114.234 23.4887H114.545L114.078 22.6332ZM113.767 22.3998H113.456V21.7776H113.845C114.078 21.7776 114.311 21.7776 114.311 22.0887C114.311 22.3998 114.078 22.3998 113.767 22.3998Z" fill="white"/>
<path d="M113.845 20.6889C112.834 20.6889 111.978 21.4667 111.978 22.5556C111.978 23.5667 112.756 24.4223 113.845 24.4223C114.856 24.4223 115.711 23.6445 115.711 22.5556C115.634 21.4667 114.856 20.6889 113.845 20.6889ZM113.845 24.1112C112.989 24.1112 112.289 23.4112 112.289 22.4778C112.289 21.5445 112.989 20.8445 113.845 20.8445C114.7 20.8445 115.4 21.5445 115.4 22.4778C115.4 23.4112 114.7 24.1112 113.845 24.1112ZM0.289062 4.12227H4.64462V19.9112H12.578V23.8778H0.289062V4.12227ZM14.5224 10.5H18.6446V23.8778H14.5224V10.5ZM16.6224 3.81116C17.9446 3.81116 19.0335 4.90005 19.0335 6.22227C19.0335 7.54449 17.9446 8.63338 16.6224 8.63338C15.3002 8.63338 14.2113 7.54449 14.2113 6.22227C14.2113 4.90005 15.2224 3.81116 16.6224 3.81116ZM35.9891 4.12227H40.1891V15.9445L44.8557 10.5H49.9891L44.5446 16.6445L49.8335 23.8778H44.6224L40.1891 17.2667V23.8778H35.9891V4.12227ZM20.978 10.5H24.9446V12.2889H25.0224C25.5668 11.2 26.9668 10.1112 28.9891 10.1112C33.1891 10.1112 33.9668 12.9112 33.9668 16.4889V23.8H29.8446V17.2667C29.8446 15.7112 29.8446 13.6889 27.6668 13.6889C25.4891 13.6889 25.178 15.4 25.178 17.1112V23.7223H21.0557V10.5H20.978Z" fill="white"/>
<path d="M58.7001 15.6334C58.7001 14.2334 57.6112 13.0668 56.1334 13.0668C54.3446 13.0668 53.3334 14.3112 53.1779 15.6334H58.7001ZM62.2001 21.5445C60.8779 23.2556 58.7001 24.189 56.5223 24.189C52.4001 24.189 49.0557 21.389 49.0557 17.1112C49.0557 12.8334 52.4001 10.0334 56.5223 10.0334C60.4112 10.0334 62.8223 12.8334 62.8223 17.1112V18.4334H53.1779C53.489 19.989 54.7334 21.0001 56.289 21.0001C57.6112 21.0001 58.5446 20.3001 59.2446 19.3668L62.2001 21.5445ZM71.4557 13.689C69.3557 13.689 68.1112 15.089 68.1112 17.1112C68.1112 19.1334 69.3557 20.5334 71.4557 20.5334C73.5557 20.5334 74.8001 19.1334 74.8001 17.1112C74.8001 15.089 73.5557 13.689 71.4557 13.689ZM78.6112 23.8779H74.8001V22.089H74.7223C74.1001 23.0223 72.4668 24.189 70.6001 24.189C66.6334 24.189 63.989 21.3112 63.989 17.2668C63.989 13.5334 66.3223 10.1112 70.1334 10.1112C71.8446 10.1112 73.4779 10.5779 74.4112 11.9001H74.489V4.12231H78.6112V23.8779Z" fill="white"/>
<path d="M108.711 0H84.8334C83.6667 0 82.7334 0.933333 82.7334 2.02222V25.9778C82.7334 27.0667 83.6667 28 84.8334 28H108.711C109.878 28 110.811 27.0667 110.811 25.9778V2.02222C110.811 0.933333 109.878 0 108.711 0Z" fill="white"/>
<path d="M86.9337 10.5H91.0559V23.8778H86.9337V10.5ZM89.0337 3.88892C90.3559 3.88892 91.4448 4.97781 91.4448 6.30003C91.4448 7.62225 90.3559 8.71114 89.0337 8.71114C87.7114 8.71114 86.6226 7.62225 86.6226 6.30003C86.6226 4.90003 87.7114 3.88892 89.0337 3.88892ZM93.7003 10.5H97.667V12.2889H97.7448C98.2892 11.2 99.6892 10.1111 101.711 10.1111C105.911 10.1111 106.689 12.9111 106.689 16.4889V23.8H102.567V17.2667C102.567 15.7111 102.567 13.6889 100.389 13.6889C98.2114 13.6889 97.9003 15.4 97.9003 17.1111V23.7223H93.7781V10.5H93.7003Z" fill="#006192"/>
</svg>
