<svg width="26" height="26" viewBox="0 0 26 26" fill="none" xmlns="http://www.w3.org/2000/svg">
    <path d="M16.5549 12.6716L16.5549 12.6714C16.5595 12.4986 16.6083 12.3298 16.6968 12.1812C16.7852 12.0326 16.9103 11.9092 17.0601 11.8228C17.459 11.5924 17.7905 11.2614 18.0213 10.8628C18.2521 10.4643 18.3743 10.0122 18.3756 9.55163L16.5549 12.6716ZM16.5549 12.6716C16.5507 12.8431 16.5902 13.0129 16.6698 13.1649C16.7493 13.3168 16.8661 13.446 17.0092 13.5402C17.0094 13.5403 17.0095 13.5404 17.0096 13.5405L17.3641 13.7768L17.3639 13.7772M16.5549 12.6716L17.3639 13.7772M17.3639 13.7772L17.3722 13.7817M17.3639 13.7772L17.3722 13.7817M17.3722 13.7817L17.4905 13.8454L17.4904 13.8455M17.3722 13.7817L17.4904 13.8455M17.4904 13.8455L17.4951 13.8477M17.4904 13.8455L17.4951 13.8477M17.4951 13.8477C18.5752 14.36 19.4864 15.1702 20.1213 16.1831C20.7563 17.1959 21.0887 18.3691 21.0792 19.5644V19.5652M17.4951 13.8477L21.0792 19.5652M21.0792 19.5652C21.0792 19.8332 21.1857 20.0902 21.3751 20.2796C21.5646 20.4691 21.8216 20.5756 22.0896 20.5756C22.3575 20.5756 22.6145 20.4691 22.804 20.2796C22.9934 20.0902 23.0998 19.8333 23.0999 19.5654M21.0792 19.5652L19.3007 12.5517M19.3007 12.5517C19.8528 11.8975 20.2142 11.1029 20.3439 10.2553C20.4795 9.36894 20.3561 8.46229 19.9885 7.64446C19.6209 6.82664 19.0247 6.13249 18.2718 5.64559C17.5188 5.15868 16.6412 4.89977 15.7446 4.9L19.3007 12.5517ZM19.3007 12.5517C20.4554 13.2961 21.4077 14.3162 22.0711 15.5207C22.7532 16.7592 23.1074 18.1515 23.0999 19.5654M23.0999 19.5654C23.0999 19.5655 23.0999 19.5656 23.0999 19.5658L22.9999 19.5652H23.0999C23.0999 19.5653 23.0999 19.5653 23.0999 19.5654ZM13.4664 12.9114C13.91 12.5006 14.2683 12.0057 14.52 11.4548C14.793 10.8575 14.9343 10.2084 14.9343 9.55163C14.9343 8.31794 14.4442 7.13478 13.5718 6.26243C12.6995 5.39008 11.5163 4.9 10.2826 4.9C9.04893 4.9 7.86576 5.39008 6.99341 6.26243C6.12106 7.13478 5.63098 8.31794 5.63098 9.55163C5.63097 10.2084 5.77226 10.8575 6.04524 11.4548C6.29696 12.0057 6.65522 12.5006 7.09885 12.9114C5.86715 13.5001 4.82181 14.4194 4.08028 15.568C3.31112 16.7593 2.90136 18.147 2.9 19.5651V19.5652C2.9 19.8332 3.00644 20.0902 3.19592 20.2796C3.38539 20.4691 3.64237 20.5756 3.91033 20.5756C4.17828 20.5756 4.43526 20.4691 4.62474 20.2796C4.81421 20.0902 4.92065 19.8332 4.92065 19.5652C4.92065 18.1431 5.48557 16.7793 6.49114 15.7738C7.4967 14.7682 8.86054 14.2033 10.2826 14.2033C11.7047 14.2033 13.0685 14.7682 14.0741 15.7738C15.0797 16.7793 15.6446 18.1431 15.6446 19.5652C15.6446 19.8332 15.751 20.0902 15.9405 20.2796C16.13 20.4691 16.3869 20.5756 16.6549 20.5756C16.9229 20.5756 17.1798 20.4691 17.3693 20.2796C17.5588 20.0902 17.6652 19.8332 17.6652 19.5652V19.5651C17.6639 18.147 17.2541 16.7593 16.485 15.568C15.7434 14.4194 14.6981 13.5001 13.4664 12.9114ZM10.2826 12.1826C9.76226 12.1826 9.25358 12.0283 8.82092 11.7392C8.38826 11.4501 8.05104 11.0392 7.85191 10.5585C7.65277 10.0777 7.60067 9.54872 7.70219 9.03836C7.80371 8.528 8.05428 8.0592 8.42223 7.69125C8.79018 7.3233 9.25898 7.07272 9.76934 6.97121C10.2797 6.86969 10.8087 6.92179 11.2894 7.12093C11.7702 7.32006 12.1811 7.65728 12.4702 8.08994C12.7593 8.5226 12.9136 9.03128 12.9136 9.55163C12.9136 10.2494 12.6364 10.9186 12.143 11.412C11.6496 11.9054 10.9804 12.1826 10.2826 12.1826ZM15.7446 4.9C15.4766 4.90001 15.2196 5.00645 15.0302 5.19592C14.8407 5.38539 14.7343 5.64237 14.7343 5.91033C14.7343 6.17828 14.8407 6.43526 15.0302 6.62474C15.2196 6.81421 15.4766 6.92065 15.7446 6.92065C16.4424 6.92065 17.1116 7.19785 17.605 7.69125C18.0983 8.18459 18.3755 8.85368 18.3756 9.55136L15.7446 4.9Z" fill="currentColor" stroke="currentColor" strokeWidth="0.2"/>
</svg>