<svg width="30" height="30" viewBox="0 0 30 30" fill="none" xmlns="http://www.w3.org/2000/svg">
<path d="M0 21.6399V26.1722H12.0861V23.3169H2.87045V21.6399C2.87045 20.673 7.59914 18.4673 12.0861 18.4673C13.5364 18.4824 14.9717 18.6788 16.3616 19.0414L18.6579 16.7451C16.5429 16.035 14.3523 15.6422 12.0861 15.5969C8.05237 15.5969 0 17.6062 0 21.6399ZM12.0861 2C8.74732 2 6.04306 4.70427 6.04306 8.04306C6.04306 11.3818 8.74732 14.0861 12.0861 14.0861C15.4249 14.0861 18.1292 11.3818 18.1292 8.04306C18.1292 4.70427 15.4249 2 12.0861 2ZM12.0861 11.0646C10.4243 11.0646 9.06458 9.72001 9.06458 8.04306C9.06458 6.36611 10.4243 5.02153 12.0861 5.02153C13.748 5.02153 15.1076 6.38122 15.1076 8.04306C15.1076 9.7049 13.7631 11.0646 12.0861 11.0646ZM29.7621 16.1256L28.2513 17.6364L25.1542 14.6149L26.665 13.1041C26.8203 12.9519 27.0291 12.8666 27.2466 12.8666C27.4641 12.8666 27.673 12.9519 27.8283 13.1041L29.7621 15.0379C30.0793 15.3552 30.0793 15.8839 29.7621 16.2012M15.1076 24.5708L24.2629 15.4156L27.3599 18.4371L18.2954 27.6075H15.1076V24.5708Z" fill="#F44C3D"/>
</svg>
