<svg width="30" height="30" viewBox="0 0 30 30" fill="none" xmlns="http://www.w3.org/2000/svg">
<path d="M22.125 3C22.9802 2.99989 23.8035 3.32444 24.4286 3.90805C25.0537 4.49166 25.434 5.29082 25.4925 6.144L25.5 6.375V23.25C25.4997 23.4374 25.5695 23.6182 25.6958 23.7567C25.822 23.8952 25.9956 23.9814 26.1822 23.9983C26.3689 24.0152 26.5551 23.9617 26.7042 23.8482C26.8534 23.7347 26.9546 23.5694 26.988 23.385L27 23.25V7.521C27.7829 7.60854 28.5105 7.96719 29.0568 8.53483C29.6031 9.10246 29.9336 9.84331 29.991 10.629L30 10.875V22.125C30.0001 23.3702 29.5237 24.5682 28.6685 25.4733C27.8133 26.3785 26.6442 26.922 25.401 26.9925L25.125 27H4.875C3.62979 27.0001 2.43176 26.5237 1.52665 25.6685C0.62155 24.8133 0.077998 23.6442 0.0075002 22.401L2.54977e-08 22.125V6.375C-0.000105033 5.51981 0.324443 4.69647 0.908054 4.07137C1.49166 3.44627 2.29082 3.06603 3.144 3.0075L3.375 3H22.125ZM10.872 13.5H5.622C5.32363 13.5 5.03748 13.6185 4.8265 13.8295C4.61553 14.0405 4.497 14.3266 4.497 14.625V19.875C4.497 20.496 5.001 21 5.622 21H10.872C11.1704 21 11.4565 20.8815 11.6675 20.6705C11.8785 20.4595 11.997 20.1734 11.997 19.875V14.625C11.997 14.3266 11.8785 14.0405 11.6675 13.8295C11.4565 13.6185 11.1704 13.5 10.872 13.5ZM19.878 18.75H16.131L15.978 18.7605C15.6956 18.7994 15.4385 18.9439 15.2586 19.1651C15.0788 19.3862 14.9895 19.6673 15.009 19.9517C15.0284 20.2361 15.155 20.5024 15.3633 20.697C15.5716 20.8916 15.846 20.9999 16.131 21H19.878L20.031 20.9895C20.3134 20.9506 20.5705 20.8061 20.7504 20.5849C20.9302 20.3638 21.0195 20.0827 21 19.7983C20.9806 19.5139 20.854 19.2476 20.6457 19.053C20.4374 18.8584 20.163 18.7501 19.878 18.75ZM9.747 15.75V18.75H6.747V15.75H9.747ZM19.875 13.5L16.128 13.5075L15.975 13.5165C15.6899 13.5526 15.4294 13.6964 15.247 13.9185C15.0645 14.1406 14.974 14.424 14.994 14.7107C15.0139 14.9974 15.1429 15.2656 15.3543 15.4603C15.5657 15.6549 15.8436 15.7613 16.131 15.7575L19.8795 15.75L20.031 15.7395C20.3135 15.7006 20.5707 15.5559 20.7506 15.3347C20.9305 15.1134 21.0196 14.8321 21 14.5476C20.9804 14.2631 20.8534 13.9967 20.6449 13.8022C20.4363 13.6077 20.1617 13.4997 19.8765 13.5H19.875ZM5.622 8.256L5.469 8.2665C5.18663 8.30535 4.92952 8.44994 4.74965 8.67105C4.56977 8.89216 4.48053 9.17331 4.49996 9.45768C4.51939 9.74205 4.64604 10.0084 4.85431 10.203C5.06259 10.3976 5.33697 10.5059 5.622 10.506H19.878L20.031 10.497C20.3158 10.4609 20.576 10.3172 20.7584 10.0955C20.9407 9.87378 21.0314 9.59073 21.0118 9.30431C20.9923 9.0179 20.864 8.7498 20.6532 8.55491C20.4424 8.36001 20.1651 8.25308 19.878 8.256H5.622Z" fill="url(#paint0_linear_930_9587)"/>
<defs>
<linearGradient id="paint0_linear_930_9587" x1="15" y1="3" x2="15" y2="27" gradientUnits="userSpaceOnUse">
<stop offset="0.275742" stop-color="#0380DC"/>
<stop offset="1" stop-color="#0061D3"/>
</linearGradient>
</defs>
</svg>
