<svg width="136" height="26" viewBox="0 0 136 26" fill="none" xmlns="http://www.w3.org/2000/svg">
<rect width="136" height="25" transform="translate(0 0.5)" fill="white"/>
<path d="M22.125 1C22.9802 0.999895 23.8035 1.32444 24.4286 1.90805C25.0537 2.49166 25.434 3.29082 25.4925 4.144L25.5 4.375V21.25C25.4997 21.4374 25.5695 21.6182 25.6958 21.7567C25.822 21.8952 25.9956 21.9814 26.1822 21.9983C26.3689 22.0152 26.5551 21.9617 26.7042 21.8482C26.8534 21.7347 26.9546 21.5694 26.988 21.385L27 21.25V5.521C27.7829 5.60854 28.5105 5.96719 29.0568 6.53483C29.6031 7.10246 29.9336 7.84331 29.991 8.629L30 8.875V20.125C30.0001 21.3702 29.5237 22.5682 28.6685 23.4733C27.8133 24.3785 26.6442 24.922 25.401 24.9925L25.125 25H4.875C3.62979 25.0001 2.43176 24.5237 1.52665 23.6685C0.62155 22.8133 0.077998 21.6442 0.0075002 20.401L2.5498e-08 20.125V4.375C-0.000105033 3.51981 0.324443 2.69647 0.908054 2.07137C1.49166 1.44627 2.29082 1.06603 3.144 1.0075L3.375 1H22.125ZM10.872 11.5H5.622C5.32363 11.5 5.03748 11.6185 4.8265 11.8295C4.61553 12.0405 4.497 12.3266 4.497 12.625V17.875C4.497 18.496 5.001 19 5.622 19H10.872C11.1704 19 11.4565 18.8815 11.6675 18.6705C11.8785 18.4595 11.997 18.1734 11.997 17.875V12.625C11.997 12.3266 11.8785 12.0405 11.6675 11.8295C11.4565 11.6185 11.1704 11.5 10.872 11.5ZM19.878 16.75H16.131L15.978 16.7605C15.6956 16.7994 15.4385 16.9439 15.2586 17.1651C15.0788 17.3862 14.9895 17.6673 15.009 17.9517C15.0284 18.2361 15.155 18.5024 15.3633 18.697C15.5716 18.8916 15.846 18.9999 16.131 19H19.878L20.031 18.9895C20.3134 18.9506 20.5705 18.8061 20.7504 18.5849C20.9302 18.3638 21.0195 18.0827 21 17.7983C20.9806 17.5139 20.854 17.2476 20.6457 17.053C20.4374 16.8584 20.163 16.7501 19.878 16.75ZM9.747 13.75V16.75H6.747V13.75H9.747ZM19.875 11.5L16.128 11.5075L15.975 11.5165C15.6899 11.5526 15.4294 11.6964 15.247 11.9185C15.0645 12.1406 14.974 12.424 14.994 12.7107C15.0139 12.9974 15.1429 13.2656 15.3543 13.4603C15.5657 13.6549 15.8436 13.7613 16.131 13.7575L19.8795 13.75L20.031 13.7395C20.3135 13.7006 20.5707 13.5559 20.7506 13.3347C20.9305 13.1134 21.0196 12.8321 21 12.5476C20.9804 12.2631 20.8534 11.9967 20.6449 11.8022C20.4363 11.6077 20.1617 11.4997 19.8765 11.5H19.875ZM19.8765 6.256H5.622L5.469 6.2665C5.18663 6.30535 4.92952 6.44994 4.74965 6.67105C4.56977 6.89216 4.48053 7.17331 4.49996 7.45768C4.51939 7.74205 4.64604 8.00845 4.85431 8.20304C5.06259 8.39763 5.33697 8.50591 5.622 8.506H19.878L20.031 8.497C20.3158 8.46088 20.576 8.31724 20.7584 8.09551C20.9407 7.87378 21.0314 7.59073 21.0118 7.30431C20.9923 7.0179 20.864 6.7498 20.6532 6.55491C20.4424 6.36001 20.1651 6.25308 19.878 6.256H19.8765Z" fill="url(#paint0_linear_187_2048)"/>
<path d="M39.8 20.5V7.38H41.52L46.26 15.62L47.68 18.34H47.76C47.72 17.6733 47.6733 16.9867 47.62 16.28C47.58 15.56 47.56 14.8533 47.56 14.16V7.38H49.14V20.5H47.42L42.66 12.24L41.24 9.54H41.16C41.2133 10.1933 41.26 10.8667 41.3 11.56C41.3533 12.2533 41.38 12.9467 41.38 13.64V20.5H39.8ZM56.5292 20.74C55.6626 20.74 54.8759 20.54 54.1692 20.14C53.4626 19.7267 52.9026 19.14 52.4892 18.38C52.0759 17.62 51.8692 16.7133 51.8692 15.66C51.8692 14.5933 52.0759 13.68 52.4892 12.92C52.9159 12.16 53.4626 11.5733 54.1292 11.16C54.7959 10.7467 55.4959 10.54 56.2292 10.54C57.4692 10.54 58.4226 10.9533 59.0892 11.78C59.7692 12.6067 60.1092 13.7133 60.1092 15.1C60.1092 15.2733 60.1026 15.4467 60.0892 15.62C60.0892 15.78 60.0759 15.92 60.0492 16.04H53.4892C53.5559 17.0667 53.8759 17.8867 54.4492 18.5C55.0359 19.1133 55.7959 19.42 56.7292 19.42C57.1959 19.42 57.6226 19.3533 58.0092 19.22C58.4092 19.0733 58.7892 18.8867 59.1492 18.66L59.7292 19.74C59.3159 20.0067 58.8426 20.24 58.3092 20.44C57.7892 20.64 57.1959 20.74 56.5292 20.74ZM53.4692 14.86H58.6692C58.6692 13.8733 58.4559 13.1267 58.0292 12.62C57.6159 12.1 57.0292 11.84 56.2692 11.84C55.5892 11.84 54.9759 12.1067 54.4292 12.64C53.8959 13.16 53.5759 13.9 53.4692 14.86ZM64.1488 20.5L61.4488 10.78H63.1288L64.5688 16.4C64.6754 16.8533 64.7754 17.3067 64.8688 17.76C64.9621 18.2 65.0554 18.6467 65.1488 19.1H65.2288C65.3354 18.6467 65.4421 18.2 65.5488 17.76C65.6554 17.3067 65.7688 16.8533 65.8888 16.4L67.3888 10.78H68.9888L70.5088 16.4C70.6288 16.8533 70.7421 17.3067 70.8488 17.76C70.9688 18.2 71.0821 18.6467 71.1888 19.1H71.2688C71.3754 18.6467 71.4754 18.2 71.5688 17.76C71.6754 17.3067 71.7754 16.8533 71.8688 16.4L73.2888 10.78H74.8488L72.2488 20.5H70.2488L68.8488 15.28C68.7288 14.8133 68.6154 14.3533 68.5088 13.9C68.4154 13.4467 68.3088 12.9733 68.1888 12.48H68.1088C68.0021 12.9733 67.8954 13.4533 67.7888 13.92C67.6821 14.3733 67.5621 14.8333 67.4288 15.3L66.0688 20.5H64.1488ZM79.5042 20.74C78.8109 20.74 78.1509 20.6133 77.5242 20.36C76.8976 20.0933 76.3509 19.7733 75.8842 19.4L76.7042 18.3C77.1309 18.6333 77.5709 18.9133 78.0242 19.14C78.4776 19.3533 78.9909 19.46 79.5642 19.46C80.2042 19.46 80.6842 19.3133 81.0042 19.02C81.3242 18.7133 81.4842 18.3533 81.4842 17.94C81.4842 17.6067 81.3709 17.3267 81.1442 17.1C80.9309 16.8733 80.6509 16.6867 80.3042 16.54C79.9709 16.38 79.6242 16.2333 79.2642 16.1C78.8109 15.9267 78.3642 15.7333 77.9242 15.52C77.4842 15.2933 77.1242 15.0067 76.8442 14.66C76.5642 14.3 76.4242 13.8467 76.4242 13.3C76.4242 12.5133 76.7176 11.86 77.3042 11.34C77.9042 10.8067 78.7309 10.54 79.7842 10.54C80.3842 10.54 80.9442 10.6467 81.4642 10.86C81.9842 11.0733 82.4309 11.3333 82.8042 11.64L82.0042 12.68C81.6709 12.4267 81.3242 12.22 80.9642 12.06C80.6042 11.9 80.2109 11.82 79.7842 11.82C79.1709 11.82 78.7176 11.96 78.4242 12.24C78.1442 12.52 78.0042 12.8467 78.0042 13.22C78.0042 13.5267 78.1042 13.78 78.3042 13.98C78.5042 14.1667 78.7642 14.3333 79.0842 14.48C79.4042 14.6133 79.7442 14.7533 80.1042 14.9C80.5709 15.0733 81.0309 15.2733 81.4842 15.5C81.9376 15.7133 82.3109 16.0067 82.6042 16.38C82.9109 16.74 83.0642 17.2267 83.0642 17.84C83.0642 18.36 82.9242 18.84 82.6442 19.28C82.3776 19.72 81.9776 20.0733 81.4442 20.34C80.9242 20.6067 80.2776 20.74 79.5042 20.74ZM91.767 13.16L91.147 15.16H95.087L94.467 13.16C94.227 12.4267 94.0004 11.7 93.787 10.98C93.5737 10.2467 93.3604 9.5 93.147 8.74H93.067C92.867 9.5 92.6604 10.2467 92.447 10.98C92.2337 11.7 92.007 12.4267 91.767 13.16ZM87.767 20.5L92.207 7.38H94.087L98.527 20.5H96.747L95.507 16.5H90.727L89.467 20.5H87.767ZM101.966 20.74C101.353 20.74 100.906 20.5533 100.626 20.18C100.359 19.7933 100.226 19.2467 100.226 18.54V6.26H101.866V18.66C101.866 18.9133 101.913 19.1 102.006 19.22C102.099 19.3267 102.206 19.38 102.326 19.38C102.379 19.38 102.426 19.38 102.466 19.38C102.519 19.3667 102.593 19.3533 102.686 19.34L102.906 20.58C102.799 20.6333 102.673 20.6733 102.526 20.7C102.379 20.7267 102.193 20.74 101.966 20.74ZM109.264 20.74C108.397 20.74 107.61 20.54 106.904 20.14C106.197 19.7267 105.637 19.14 105.224 18.38C104.81 17.62 104.604 16.7133 104.604 15.66C104.604 14.5933 104.81 13.68 105.224 12.92C105.65 12.16 106.197 11.5733 106.864 11.16C107.53 10.7467 108.23 10.54 108.964 10.54C110.204 10.54 111.157 10.9533 111.824 11.78C112.504 12.6067 112.844 13.7133 112.844 15.1C112.844 15.2733 112.837 15.4467 112.824 15.62C112.824 15.78 112.81 15.92 112.784 16.04H106.224C106.29 17.0667 106.61 17.8867 107.184 18.5C107.77 19.1133 108.53 19.42 109.464 19.42C109.93 19.42 110.357 19.3533 110.744 19.22C111.144 19.0733 111.524 18.8867 111.884 18.66L112.464 19.74C112.05 20.0067 111.577 20.24 111.044 20.44C110.524 20.64 109.93 20.74 109.264 20.74ZM106.204 14.86H111.404C111.404 13.8733 111.19 13.1267 110.764 12.62C110.35 12.1 109.764 11.84 109.004 11.84C108.324 11.84 107.71 12.1067 107.164 12.64C106.63 13.16 106.31 13.9 106.204 14.86ZM115.245 20.5V10.78H116.605L116.745 12.54H116.805C117.139 11.9267 117.545 11.44 118.025 11.08C118.505 10.72 119.019 10.54 119.565 10.54C119.952 10.54 120.299 10.6067 120.605 10.74L120.285 12.18C120.125 12.1267 119.979 12.0867 119.845 12.06C119.712 12.0333 119.545 12.02 119.345 12.02C118.932 12.02 118.499 12.1867 118.045 12.52C117.605 12.8533 117.219 13.4333 116.885 14.26V20.5H115.245ZM125.239 20.74C124.199 20.74 123.472 20.44 123.059 19.84C122.659 19.24 122.459 18.46 122.459 17.5V12.12H121.019V10.88L122.539 10.78L122.739 8.06H124.119V10.78H126.739V12.12H124.119V17.52C124.119 18.12 124.226 18.5867 124.439 18.92C124.666 19.24 125.059 19.4 125.619 19.4C125.792 19.4 125.979 19.3733 126.179 19.32C126.379 19.2533 126.559 19.1933 126.719 19.14L127.039 20.38C126.772 20.4733 126.479 20.5533 126.159 20.62C125.852 20.7 125.546 20.74 125.239 20.74ZM131.282 20.74C130.588 20.74 129.928 20.6133 129.302 20.36C128.675 20.0933 128.128 19.7733 127.662 19.4L128.482 18.3C128.908 18.6333 129.348 18.9133 129.802 19.14C130.255 19.3533 130.768 19.46 131.342 19.46C131.982 19.46 132.462 19.3133 132.782 19.02C133.102 18.7133 133.262 18.3533 133.262 17.94C133.262 17.6067 133.148 17.3267 132.922 17.1C132.708 16.8733 132.428 16.6867 132.082 16.54C131.748 16.38 131.402 16.2333 131.042 16.1C130.588 15.9267 130.142 15.7333 129.702 15.52C129.262 15.2933 128.902 15.0067 128.622 14.66C128.342 14.3 128.202 13.8467 128.202 13.3C128.202 12.5133 128.495 11.86 129.082 11.34C129.682 10.8067 130.508 10.54 131.562 10.54C132.162 10.54 132.722 10.6467 133.242 10.86C133.762 11.0733 134.208 11.3333 134.582 11.64L133.782 12.68C133.448 12.4267 133.102 12.22 132.742 12.06C132.382 11.9 131.988 11.82 131.562 11.82C130.948 11.82 130.495 11.96 130.202 12.24C129.922 12.52 129.782 12.8467 129.782 13.22C129.782 13.5267 129.882 13.78 130.082 13.98C130.282 14.1667 130.542 14.3333 130.862 14.48C131.182 14.6133 131.522 14.7533 131.882 14.9C132.348 15.0733 132.808 15.2733 133.262 15.5C133.715 15.7133 134.088 16.0067 134.382 16.38C134.688 16.74 134.842 17.2267 134.842 17.84C134.842 18.36 134.702 18.84 134.422 19.28C134.155 19.72 133.755 20.0733 133.222 20.34C132.702 20.6067 132.055 20.74 131.282 20.74Z" fill="#333333"/>
<defs>
<linearGradient id="paint0_linear_187_2048" x1="15" y1="1" x2="15" y2="25" gradientUnits="userSpaceOnUse">
<stop offset="0.275742" stop-color="#0380DC"/>
<stop offset="1" stop-color="#0061D3"/>
</linearGradient>
</defs>
</svg>
