<svg width="30" height="30" viewBox="0 0 30 30" fill="none" xmlns="http://www.w3.org/2000/svg">
<path d="M4.1579 28.4211C3.28948 28.4211 2.54579 28.1116 1.92684 27.4926C1.3079 26.8737 0.99895 26.1305 1 25.2632V6.31579C1 5.44737 1.30948 4.70368 1.92842 4.08474C2.54737 3.46579 3.29053 3.15684 4.1579 3.15789H5.73685V0H8.89474V3.15789H18.3684V0H21.5263V3.15789H23.1053C23.9737 3.15789 24.7174 3.46737 25.3363 4.08632C25.9553 4.70526 26.2642 5.44842 26.2632 6.31579V15.9474C25.7368 15.8684 25.2105 15.8289 24.6842 15.8289C24.1579 15.8289 23.6316 15.8684 23.1053 15.9474V12.6316H4.1579V25.2632H15.2105C15.2105 25.7895 15.25 26.3158 15.329 26.8421C15.4079 27.3684 15.5526 27.8947 15.7632 28.4211H4.1579Z" fill="url(#paint0_linear_2806_11509)"/>
<path d="M23.1053 27.947L26.1684 29.8854C26.7294 30.2407 27.4158 29.7155 27.2682 29.0514L26.4563 25.4061L29.165 22.9502C29.6596 22.5023 29.3939 21.6527 28.7443 21.5987L25.1794 21.282L23.7844 17.8376C23.5334 17.212 22.6772 17.212 22.4263 17.8376L21.0313 21.2743L17.4663 21.591C16.8168 21.645 16.5511 22.4945 17.0456 22.9425L19.7544 25.3984L18.9425 29.0436C18.7949 29.7078 19.4813 30.233 20.0423 29.8777L23.1053 27.947Z" fill="#FFC514"/>
<defs>
<linearGradient id="paint0_linear_2806_11509" x1="13.6316" y1="0" x2="13.6316" y2="28.4211" gradientUnits="userSpaceOnUse">
<stop offset="0.275742" stop-color="#0380DC"/>
<stop offset="1" stop-color="#0061D3"/>
</linearGradient>
</defs>
</svg>
