<svg width="218" height="26" viewBox="0 0 218 26" fill="none" xmlns="http://www.w3.org/2000/svg">
<rect width="218" height="25" transform="translate(0 0.5)" fill="white"/>
<path d="M20.4002 3.4H19.2002V1H16.8002V3.4H7.20019V1H4.8002V3.4H3.6002C2.2682 3.4 1.2122 4.48 1.2122 5.8L1.2002 22.6C1.2002 23.2365 1.45305 23.847 1.90314 24.2971C2.35323 24.7471 2.96368 25 3.6002 25H20.4002C21.7202 25 22.8002 23.92 22.8002 22.6V5.8C22.8002 4.48 21.7202 3.4 20.4002 3.4ZM20.4002 22.6H3.6002V10.6H20.4002V22.6ZM20.4002 8.2H3.6002V5.8H20.4002V8.2ZM8.4002 15.4H6.0002V13H8.4002V15.4ZM13.2002 20.2H10.8002V17.8H13.2002V20.2ZM18.0002 20.2H15.6002V17.8H18.0002V20.2Z" fill="url(#paint0_linear_187_2223)"/>
<path d="M10.8002 15.4H13.2002V13H10.8002V15.4Z" fill="#FF8431"/>
<path d="M15.6002 15.4H18.0002V13H15.6002V15.4Z" fill="#FF8431"/>
<path d="M6.0002 20.2H8.4002V17.8H6.0002V20.2Z" fill="#FF8431"/>
<path d="M33.8 20.5V7.38H37.9C38.7933 7.38 39.5867 7.5 40.28 7.74C40.9733 7.96667 41.5133 8.35333 41.9 8.9C42.3 9.43333 42.5 10.1533 42.5 11.06C42.5 12.0733 42.2333 12.8933 41.7 13.52C41.1667 14.1333 40.4467 14.5533 39.54 14.78L42.88 20.5H41L37.84 14.96H35.46V20.5H33.8ZM35.46 13.6H37.66C38.6867 13.6 39.4733 13.3933 40.02 12.98C40.5667 12.5533 40.84 11.9133 40.84 11.06C40.84 10.1933 40.5667 9.58667 40.02 9.24C39.4733 8.89333 38.6867 8.72 37.66 8.72H35.46V13.6ZM48.7714 20.74C47.9047 20.74 47.1181 20.54 46.4114 20.14C45.7047 19.7267 45.1447 19.14 44.7314 18.38C44.3181 17.62 44.1114 16.7133 44.1114 15.66C44.1114 14.5933 44.3181 13.68 44.7314 12.92C45.1581 12.16 45.7047 11.5733 46.3714 11.16C47.0381 10.7467 47.7381 10.54 48.4714 10.54C49.7114 10.54 50.6647 10.9533 51.3314 11.78C52.0114 12.6067 52.3514 13.7133 52.3514 15.1C52.3514 15.2733 52.3447 15.4467 52.3314 15.62C52.3314 15.78 52.3181 15.92 52.2914 16.04H45.7314C45.7981 17.0667 46.1181 17.8867 46.6914 18.5C47.2781 19.1133 48.0381 19.42 48.9714 19.42C49.4381 19.42 49.8647 19.3533 50.2514 19.22C50.6514 19.0733 51.0314 18.8867 51.3914 18.66L51.9714 19.74C51.5581 20.0067 51.0847 20.24 50.5514 20.44C50.0314 20.64 49.4381 20.74 48.7714 20.74ZM45.7114 14.86H50.9114C50.9114 13.8733 50.6981 13.1267 50.2714 12.62C49.8581 12.1 49.2714 11.84 48.5114 11.84C47.8314 11.84 47.2181 12.1067 46.6714 12.64C46.1381 13.16 45.8181 13.9 45.7114 14.86ZM57.618 20.74C56.578 20.74 55.8513 20.44 55.438 19.84C55.038 19.24 54.838 18.46 54.838 17.5V12.12H53.398V10.88L54.918 10.78L55.118 8.06H56.498V10.78H59.118V12.12H56.498V17.52C56.498 18.12 56.6046 18.5867 56.818 18.92C57.0446 19.24 57.438 19.4 57.998 19.4C58.1713 19.4 58.358 19.3733 58.558 19.32C58.758 19.2533 58.938 19.1933 59.098 19.14L59.418 20.38C59.1513 20.4733 58.858 20.5533 58.538 20.62C58.2313 20.7 57.9246 20.74 57.618 20.74ZM63.1261 20.74C62.3128 20.74 61.6328 20.5 61.0861 20.02C60.5528 19.5267 60.2861 18.8467 60.2861 17.98C60.2861 16.9133 60.7594 16.1 61.7061 15.54C62.6661 14.9667 64.1794 14.5667 66.2461 14.34C66.2461 13.9267 66.1861 13.5333 66.0661 13.16C65.9594 12.7867 65.7594 12.4867 65.4661 12.26C65.1861 12.02 64.7794 11.9 64.2461 11.9C63.6861 11.9 63.1594 12.0067 62.6661 12.22C62.1728 12.4333 61.7328 12.6733 61.3461 12.94L60.7061 11.8C61.1594 11.5067 61.7128 11.2267 62.3661 10.96C63.0328 10.68 63.7528 10.54 64.5261 10.54C65.7128 10.54 66.5728 10.9067 67.1061 11.64C67.6394 12.36 67.9061 13.3267 67.9061 14.54V20.5H66.5461L66.4061 19.34H66.3461C65.8928 19.7133 65.3928 20.04 64.8461 20.32C64.3128 20.6 63.7394 20.74 63.1261 20.74ZM63.6061 19.42C64.0728 19.42 64.5128 19.3067 64.9261 19.08C65.3394 18.8533 65.7794 18.5333 66.2461 18.12V15.42C64.6328 15.62 63.4994 15.92 62.8461 16.32C62.2061 16.72 61.8861 17.2333 61.8861 17.86C61.8861 18.4067 62.0528 18.8067 62.3861 19.06C62.7194 19.3 63.1261 19.42 63.6061 19.42ZM70.9642 20.5V10.78H72.6042V20.5H70.9642ZM71.8042 8.78C71.4842 8.78 71.2176 8.68667 71.0042 8.5C70.8042 8.3 70.7042 8.03333 70.7042 7.7C70.7042 7.38 70.8042 7.12 71.0042 6.92C71.2176 6.72 71.4842 6.62 71.8042 6.62C72.1242 6.62 72.3842 6.72 72.5842 6.92C72.7976 7.12 72.9042 7.38 72.9042 7.7C72.9042 8.03333 72.7976 8.3 72.5842 8.5C72.3842 8.68667 72.1242 8.78 71.8042 8.78ZM77.6261 20.74C77.0128 20.74 76.5661 20.5533 76.2861 20.18C76.0194 19.7933 75.8861 19.2467 75.8861 18.54V6.26H77.5261V18.66C77.5261 18.9133 77.5728 19.1 77.6661 19.22C77.7594 19.3267 77.8661 19.38 77.9861 19.38C78.0394 19.38 78.0861 19.38 78.1261 19.38C78.1794 19.3667 78.2528 19.3533 78.3461 19.34L78.5661 20.58C78.4594 20.6333 78.3328 20.6733 78.1861 20.7C78.0394 20.7267 77.8528 20.74 77.6261 20.74ZM85.1477 20.5V7.38H87.1477L89.6677 14.38C89.8277 14.8333 89.981 15.2933 90.1277 15.76C90.2877 16.2133 90.4477 16.6667 90.6077 17.12H90.6877C90.8477 16.6667 90.9943 16.2133 91.1277 15.76C91.2743 15.2933 91.4277 14.8333 91.5877 14.38L94.0677 7.38H96.0877V20.5H94.5277V13.28C94.5277 12.6933 94.5543 12.0467 94.6077 11.34C94.661 10.62 94.7077 9.97333 94.7477 9.4H94.6677L93.6277 12.38L91.1477 19.18H90.0477L87.5677 12.38L86.5277 9.4H86.4477C86.4877 9.97333 86.5277 10.62 86.5677 11.34C86.621 12.0467 86.6477 12.6933 86.6477 13.28V20.5H85.1477ZM101.759 20.74C100.946 20.74 100.266 20.5 99.7189 20.02C99.1856 19.5267 98.9189 18.8467 98.9189 17.98C98.9189 16.9133 99.3922 16.1 100.339 15.54C101.299 14.9667 102.812 14.5667 104.879 14.34C104.879 13.9267 104.819 13.5333 104.699 13.16C104.592 12.7867 104.392 12.4867 104.099 12.26C103.819 12.02 103.412 11.9 102.879 11.9C102.319 11.9 101.792 12.0067 101.299 12.22C100.806 12.4333 100.366 12.6733 99.9789 12.94L99.3389 11.8C99.7922 11.5067 100.346 11.2267 100.999 10.96C101.666 10.68 102.386 10.54 103.159 10.54C104.346 10.54 105.206 10.9067 105.739 11.64C106.272 12.36 106.539 13.3267 106.539 14.54V20.5H105.179L105.039 19.34H104.979C104.526 19.7133 104.026 20.04 103.479 20.32C102.946 20.6 102.372 20.74 101.759 20.74ZM102.239 19.42C102.706 19.42 103.146 19.3067 103.559 19.08C103.972 18.8533 104.412 18.5333 104.879 18.12V15.42C103.266 15.62 102.132 15.92 101.479 16.32C100.839 16.72 100.519 17.2333 100.519 17.86C100.519 18.4067 100.686 18.8067 101.019 19.06C101.352 19.3 101.759 19.42 102.239 19.42ZM109.597 20.5V10.78H110.957L111.097 12.54H111.157C111.49 11.9267 111.897 11.44 112.377 11.08C112.857 10.72 113.37 10.54 113.917 10.54C114.304 10.54 114.65 10.6067 114.957 10.74L114.637 12.18C114.477 12.1267 114.33 12.0867 114.197 12.06C114.064 12.0333 113.897 12.02 113.697 12.02C113.284 12.02 112.85 12.1867 112.397 12.52C111.957 12.8533 111.57 13.4333 111.237 14.26V20.5H109.597ZM116.531 20.5V6.26H118.151V15.9H118.211L122.351 10.78H124.171L120.911 14.68L124.611 20.5H122.811L119.971 15.82L118.151 17.94V20.5H116.531ZM130.021 20.74C129.155 20.74 128.368 20.54 127.661 20.14C126.955 19.7267 126.395 19.14 125.981 18.38C125.568 17.62 125.361 16.7133 125.361 15.66C125.361 14.5933 125.568 13.68 125.981 12.92C126.408 12.16 126.955 11.5733 127.621 11.16C128.288 10.7467 128.988 10.54 129.721 10.54C130.961 10.54 131.915 10.9533 132.581 11.78C133.261 12.6067 133.601 13.7133 133.601 15.1C133.601 15.2733 133.595 15.4467 133.581 15.62C133.581 15.78 133.568 15.92 133.541 16.04H126.981C127.048 17.0667 127.368 17.8867 127.941 18.5C128.528 19.1133 129.288 19.42 130.221 19.42C130.688 19.42 131.115 19.3533 131.501 19.22C131.901 19.0733 132.281 18.8867 132.641 18.66L133.221 19.74C132.808 20.0067 132.335 20.24 131.801 20.44C131.281 20.64 130.688 20.74 130.021 20.74ZM126.961 14.86H132.161C132.161 13.8733 131.948 13.1267 131.521 12.62C131.108 12.1 130.521 11.84 129.761 11.84C129.081 11.84 128.468 12.1067 127.921 12.64C127.388 13.16 127.068 13.9 126.961 14.86ZM138.868 20.74C137.828 20.74 137.101 20.44 136.688 19.84C136.288 19.24 136.088 18.46 136.088 17.5V12.12H134.648V10.88L136.168 10.78L136.368 8.06H137.748V10.78H140.368V12.12H137.748V17.52C137.748 18.12 137.855 18.5867 138.068 18.92C138.295 19.24 138.688 19.4 139.248 19.4C139.421 19.4 139.608 19.3733 139.808 19.32C140.008 19.2533 140.188 19.1933 140.348 19.14L140.668 20.38C140.401 20.4733 140.108 20.5533 139.788 20.62C139.481 20.7 139.175 20.74 138.868 20.74ZM142.566 20.5V10.78H144.206V20.5H142.566ZM143.406 8.78C143.086 8.78 142.819 8.68667 142.606 8.5C142.406 8.3 142.306 8.03333 142.306 7.7C142.306 7.38 142.406 7.12 142.606 6.92C142.819 6.72 143.086 6.62 143.406 6.62C143.726 6.62 143.986 6.72 144.186 6.92C144.399 7.12 144.506 7.38 144.506 7.7C144.506 8.03333 144.399 8.3 144.186 8.5C143.986 8.68667 143.726 8.78 143.406 8.78ZM147.488 20.5V10.78H148.848L148.988 12.18H149.048C149.514 11.7133 150.008 11.3267 150.528 11.02C151.048 10.7 151.641 10.54 152.308 10.54C153.334 10.54 154.081 10.8667 154.548 11.52C155.028 12.16 155.268 13.1 155.268 14.34V20.5H153.628V14.56C153.628 13.6533 153.481 12.9933 153.188 12.58C152.894 12.1667 152.428 11.96 151.788 11.96C151.294 11.96 150.848 12.0867 150.448 12.34C150.061 12.5933 149.621 12.9667 149.128 13.46V20.5H147.488ZM161.705 24.98C160.518 24.98 159.552 24.7533 158.805 24.3C158.058 23.8467 157.685 23.2 157.685 22.36C157.685 21.9467 157.812 21.5467 158.065 21.16C158.318 20.7867 158.665 20.4533 159.105 20.16V20.08C158.865 19.9333 158.658 19.7267 158.485 19.46C158.325 19.1933 158.245 18.8733 158.245 18.5C158.245 18.0867 158.358 17.7267 158.585 17.42C158.812 17.1133 159.052 16.8733 159.305 16.7V16.62C158.985 16.3533 158.692 15.9933 158.425 15.54C158.172 15.0867 158.045 14.5733 158.045 14C158.045 13.2933 158.212 12.68 158.545 12.16C158.878 11.64 159.325 11.24 159.885 10.96C160.445 10.68 161.052 10.54 161.705 10.54C161.972 10.54 162.225 10.5667 162.465 10.62C162.705 10.66 162.912 10.7133 163.085 10.78H166.465V12.04H164.465C164.692 12.2533 164.878 12.54 165.025 12.9C165.185 13.2467 165.265 13.6267 165.265 14.04C165.265 14.7333 165.105 15.3333 164.785 15.84C164.465 16.3467 164.038 16.74 163.505 17.02C162.972 17.2867 162.372 17.42 161.705 17.42C161.185 17.42 160.698 17.3067 160.245 17.08C160.072 17.2267 159.925 17.3933 159.805 17.58C159.685 17.7533 159.625 17.9733 159.625 18.24C159.625 18.5467 159.745 18.8 159.985 19C160.238 19.2 160.692 19.3 161.345 19.3H163.225C164.358 19.3 165.205 19.4867 165.765 19.86C166.338 20.22 166.625 20.8067 166.625 21.62C166.625 22.22 166.425 22.7733 166.025 23.28C165.625 23.7867 165.058 24.1933 164.325 24.5C163.592 24.82 162.718 24.98 161.705 24.98ZM161.705 16.32C162.265 16.32 162.745 16.1133 163.145 15.7C163.558 15.2733 163.765 14.7067 163.765 14C163.765 13.2933 163.565 12.74 163.165 12.34C162.765 11.94 162.278 11.74 161.705 11.74C161.132 11.74 160.645 11.94 160.245 12.34C159.845 12.74 159.645 13.2933 159.645 14C159.645 14.7067 159.845 15.2733 160.245 15.7C160.658 16.1133 161.145 16.32 161.705 16.32ZM161.945 23.84C162.878 23.84 163.625 23.6333 164.185 23.22C164.745 22.82 165.025 22.3667 165.025 21.86C165.025 21.4067 164.852 21.0933 164.505 20.92C164.172 20.7467 163.692 20.66 163.065 20.66H161.385C161.198 20.66 160.992 20.6467 160.765 20.62C160.552 20.5933 160.338 20.5533 160.125 20.5C159.778 20.7533 159.525 21.02 159.365 21.3C159.205 21.58 159.125 21.86 159.125 22.14C159.125 22.66 159.372 23.0733 159.865 23.38C160.372 23.6867 161.065 23.84 161.945 23.84ZM172.667 20.5V7.38H175.947C177.974 7.38 179.514 7.94667 180.567 9.08C181.621 10.2 182.147 11.8 182.147 13.88C182.147 15.9733 181.621 17.6 180.567 18.76C179.527 19.92 178.014 20.5 176.027 20.5H172.667ZM174.327 19.14H175.827C177.361 19.14 178.507 18.68 179.267 17.76C180.041 16.8267 180.427 15.5333 180.427 13.88C180.427 12.2267 180.041 10.96 179.267 10.08C178.507 9.18667 177.361 8.74 175.827 8.74H174.327V19.14ZM187.052 20.74C186.239 20.74 185.559 20.5 185.012 20.02C184.479 19.5267 184.212 18.8467 184.212 17.98C184.212 16.9133 184.685 16.1 185.632 15.54C186.592 14.9667 188.105 14.5667 190.172 14.34C190.172 13.9267 190.112 13.5333 189.992 13.16C189.885 12.7867 189.685 12.4867 189.392 12.26C189.112 12.02 188.705 11.9 188.172 11.9C187.612 11.9 187.085 12.0067 186.592 12.22C186.099 12.4333 185.659 12.6733 185.272 12.94L184.632 11.8C185.085 11.5067 185.639 11.2267 186.292 10.96C186.959 10.68 187.679 10.54 188.452 10.54C189.639 10.54 190.499 10.9067 191.032 11.64C191.565 12.36 191.832 13.3267 191.832 14.54V20.5H190.472L190.332 19.34H190.272C189.819 19.7133 189.319 20.04 188.772 20.32C188.239 20.6 187.665 20.74 187.052 20.74ZM187.532 19.42C187.999 19.42 188.439 19.3067 188.852 19.08C189.265 18.8533 189.705 18.5333 190.172 18.12V15.42C188.559 15.62 187.425 15.92 186.772 16.32C186.132 16.72 185.812 17.2333 185.812 17.86C185.812 18.4067 185.979 18.8067 186.312 19.06C186.645 19.3 187.052 19.42 187.532 19.42ZM197.677 20.74C196.637 20.74 195.91 20.44 195.497 19.84C195.097 19.24 194.897 18.46 194.897 17.5V12.12H193.457V10.88L194.977 10.78L195.177 8.06H196.557V10.78H199.177V12.12H196.557V17.52C196.557 18.12 196.663 18.5867 196.877 18.92C197.103 19.24 197.497 19.4 198.057 19.4C198.23 19.4 198.417 19.3733 198.617 19.32C198.817 19.2533 198.997 19.1933 199.157 19.14L199.477 20.38C199.21 20.4733 198.917 20.5533 198.597 20.62C198.29 20.7 197.983 20.74 197.677 20.74ZM205.041 20.74C204.174 20.74 203.388 20.54 202.681 20.14C201.974 19.7267 201.414 19.14 201.001 18.38C200.588 17.62 200.381 16.7133 200.381 15.66C200.381 14.5933 200.588 13.68 201.001 12.92C201.428 12.16 201.974 11.5733 202.641 11.16C203.308 10.7467 204.008 10.54 204.741 10.54C205.981 10.54 206.934 10.9533 207.601 11.78C208.281 12.6067 208.621 13.7133 208.621 15.1C208.621 15.2733 208.614 15.4467 208.601 15.62C208.601 15.78 208.588 15.92 208.561 16.04H202.001C202.068 17.0667 202.388 17.8867 202.961 18.5C203.548 19.1133 204.308 19.42 205.241 19.42C205.708 19.42 206.134 19.3533 206.521 19.22C206.921 19.0733 207.301 18.8867 207.661 18.66L208.241 19.74C207.828 20.0067 207.354 20.24 206.821 20.44C206.301 20.64 205.708 20.74 205.041 20.74ZM201.981 14.86H207.181C207.181 13.8733 206.968 13.1267 206.541 12.62C206.128 12.1 205.541 11.84 204.781 11.84C204.101 11.84 203.488 12.1067 202.941 12.64C202.408 13.16 202.088 13.9 201.981 14.86ZM213.563 20.74C212.869 20.74 212.209 20.6133 211.583 20.36C210.956 20.0933 210.409 19.7733 209.943 19.4L210.763 18.3C211.189 18.6333 211.629 18.9133 212.083 19.14C212.536 19.3533 213.049 19.46 213.623 19.46C214.263 19.46 214.743 19.3133 215.063 19.02C215.383 18.7133 215.543 18.3533 215.543 17.94C215.543 17.6067 215.429 17.3267 215.203 17.1C214.989 16.8733 214.709 16.6867 214.363 16.54C214.029 16.38 213.683 16.2333 213.323 16.1C212.869 15.9267 212.423 15.7333 211.983 15.52C211.543 15.2933 211.183 15.0067 210.903 14.66C210.623 14.3 210.483 13.8467 210.483 13.3C210.483 12.5133 210.776 11.86 211.363 11.34C211.963 10.8067 212.789 10.54 213.843 10.54C214.443 10.54 215.003 10.6467 215.523 10.86C216.043 11.0733 216.489 11.3333 216.863 11.64L216.063 12.68C215.729 12.4267 215.383 12.22 215.023 12.06C214.663 11.9 214.269 11.82 213.843 11.82C213.229 11.82 212.776 11.96 212.483 12.24C212.203 12.52 212.063 12.8467 212.063 13.22C212.063 13.5267 212.163 13.78 212.363 13.98C212.563 14.1667 212.823 14.3333 213.143 14.48C213.463 14.6133 213.803 14.7533 214.163 14.9C214.629 15.0733 215.089 15.2733 215.543 15.5C215.996 15.7133 216.369 16.0067 216.663 16.38C216.969 16.74 217.123 17.2267 217.123 17.84C217.123 18.36 216.983 18.84 216.703 19.28C216.436 19.72 216.036 20.0733 215.503 20.34C214.983 20.6067 214.336 20.74 213.563 20.74Z" fill="#333333"/>
<defs>
<linearGradient id="paint0_linear_187_2223" x1="12.0002" y1="1" x2="12.0002" y2="25" gradientUnits="userSpaceOnUse">
<stop offset="0.275742" stop-color="#0380DC"/>
<stop offset="1" stop-color="#0061D3"/>
</linearGradient>
</defs>
</svg>
