<svg width="221" height="31" viewBox="0 0 221 31" fill="none" xmlns="http://www.w3.org/2000/svg">
<rect width="218" height="25" transform="translate(3 3)" fill="white"/>
<g clip-path="url(#clip0_2874_11499)">
<path d="M4.1579 28.9211C3.28948 28.9211 2.54579 28.6116 1.92684 27.9926C1.3079 27.3737 0.99895 26.6305 1 25.7632V6.81579C1 5.94737 1.30948 5.20368 1.92842 4.58474C2.54737 3.96579 3.29053 3.65684 4.1579 3.65789H5.73684V0.5H8.89474V3.65789H18.3684V0.5H21.5263V3.65789H23.1053C23.9737 3.65789 24.7174 3.96737 25.3363 4.58632C25.9553 5.20526 26.2642 5.94842 26.2632 6.81579V16.4474C25.7368 16.3684 25.2105 16.3289 24.6842 16.3289C24.1579 16.3289 23.6316 16.3684 23.1053 16.4474V13.1316H4.1579V25.7632H15.2105C15.2105 26.2895 15.25 26.8158 15.329 27.3421C15.4079 27.8684 15.5526 28.3947 15.7632 28.9211H4.1579Z" fill="url(#paint0_linear_2874_11499)"/>
<path d="M23.1053 28.447L26.1684 30.3855C26.7294 30.7408 27.4158 30.2156 27.2682 29.5514L26.4563 25.9062L29.165 23.4503C29.6596 23.0023 29.3939 22.1528 28.7443 22.0987L25.1794 21.7821L23.7844 18.3376C23.5334 17.7121 22.6772 17.7121 22.4263 18.3376L21.0313 21.7744L17.4663 22.091C16.8168 22.1451 16.5511 22.9946 17.0456 23.4425L19.7544 25.8984L18.9425 29.5437C18.7949 30.2079 19.4813 30.733 20.0423 30.3778L23.1053 28.447Z" fill="#FFC514"/>
</g>
<path d="M36.8 23V9.88H40.9C41.7933 9.88 42.5867 10 43.28 10.24C43.9733 10.4667 44.5133 10.8533 44.9 11.4C45.3 11.9333 45.5 12.6533 45.5 13.56C45.5 14.5733 45.2333 15.3933 44.7 16.02C44.1667 16.6333 43.4467 17.0533 42.54 17.28L45.88 23H44L40.84 17.46H38.46V23H36.8ZM38.46 16.1H40.66C41.6867 16.1 42.4733 15.8933 43.02 15.48C43.5667 15.0533 43.84 14.4133 43.84 13.56C43.84 12.6933 43.5667 12.0867 43.02 11.74C42.4733 11.3933 41.6867 11.22 40.66 11.22H38.46V16.1ZM51.7714 23.24C50.9047 23.24 50.1181 23.04 49.4114 22.64C48.7047 22.2267 48.1447 21.64 47.7314 20.88C47.3181 20.12 47.1114 19.2133 47.1114 18.16C47.1114 17.0933 47.3181 16.18 47.7314 15.42C48.1581 14.66 48.7047 14.0733 49.3714 13.66C50.0381 13.2467 50.7381 13.04 51.4714 13.04C52.7114 13.04 53.6647 13.4533 54.3314 14.28C55.0114 15.1067 55.3514 16.2133 55.3514 17.6C55.3514 17.7733 55.3447 17.9467 55.3314 18.12C55.3314 18.28 55.3181 18.42 55.2914 18.54H48.7314C48.7981 19.5667 49.1181 20.3867 49.6914 21C50.2781 21.6133 51.0381 21.92 51.9714 21.92C52.4381 21.92 52.8647 21.8533 53.2514 21.72C53.6514 21.5733 54.0314 21.3867 54.3914 21.16L54.9714 22.24C54.5581 22.5067 54.0847 22.74 53.5514 22.94C53.0314 23.14 52.4381 23.24 51.7714 23.24ZM48.7114 17.36H53.9114C53.9114 16.3733 53.6981 15.6267 53.2714 15.12C52.8581 14.6 52.2714 14.34 51.5114 14.34C50.8314 14.34 50.2181 14.6067 49.6714 15.14C49.1381 15.66 48.8181 16.4 48.7114 17.36ZM60.618 23.24C59.578 23.24 58.8513 22.94 58.438 22.34C58.038 21.74 57.838 20.96 57.838 20V14.62H56.398V13.38L57.918 13.28L58.118 10.56H59.498V13.28H62.118V14.62H59.498V20.02C59.498 20.62 59.6046 21.0867 59.818 21.42C60.0446 21.74 60.438 21.9 60.998 21.9C61.1713 21.9 61.358 21.8733 61.558 21.82C61.758 21.7533 61.938 21.6933 62.098 21.64L62.418 22.88C62.1513 22.9733 61.858 23.0533 61.538 23.12C61.2313 23.2 60.9246 23.24 60.618 23.24ZM66.1261 23.24C65.3128 23.24 64.6328 23 64.0861 22.52C63.5528 22.0267 63.2861 21.3467 63.2861 20.48C63.2861 19.4133 63.7594 18.6 64.7061 18.04C65.6661 17.4667 67.1794 17.0667 69.2461 16.84C69.2461 16.4267 69.1861 16.0333 69.0661 15.66C68.9594 15.2867 68.7594 14.9867 68.4661 14.76C68.1861 14.52 67.7794 14.4 67.2461 14.4C66.6861 14.4 66.1594 14.5067 65.6661 14.72C65.1728 14.9333 64.7328 15.1733 64.3461 15.44L63.7061 14.3C64.1594 14.0067 64.7128 13.7267 65.3661 13.46C66.0328 13.18 66.7528 13.04 67.5261 13.04C68.7128 13.04 69.5728 13.4067 70.1061 14.14C70.6394 14.86 70.9061 15.8267 70.9061 17.04V23H69.5461L69.4061 21.84H69.3461C68.8928 22.2133 68.3928 22.54 67.8461 22.82C67.3128 23.1 66.7394 23.24 66.1261 23.24ZM66.6061 21.92C67.0728 21.92 67.5128 21.8067 67.9261 21.58C68.3394 21.3533 68.7794 21.0333 69.2461 20.62V17.92C67.6328 18.12 66.4994 18.42 65.8461 18.82C65.2061 19.22 64.8861 19.7333 64.8861 20.36C64.8861 20.9067 65.0528 21.3067 65.3861 21.56C65.7194 21.8 66.1261 21.92 66.6061 21.92ZM73.9642 23V13.28H75.6042V23H73.9642ZM74.8042 11.28C74.4842 11.28 74.2176 11.1867 74.0042 11C73.8042 10.8 73.7042 10.5333 73.7042 10.2C73.7042 9.88 73.8042 9.62 74.0042 9.42C74.2176 9.22 74.4842 9.12 74.8042 9.12C75.1242 9.12 75.3842 9.22 75.5842 9.42C75.7976 9.62 75.9042 9.88 75.9042 10.2C75.9042 10.5333 75.7976 10.8 75.5842 11C75.3842 11.1867 75.1242 11.28 74.8042 11.28ZM80.6261 23.24C80.0128 23.24 79.5661 23.0533 79.2861 22.68C79.0194 22.2933 78.8861 21.7467 78.8861 21.04V8.76H80.5261V21.16C80.5261 21.4133 80.5728 21.6 80.6661 21.72C80.7594 21.8267 80.8661 21.88 80.9861 21.88C81.0394 21.88 81.0861 21.88 81.1261 21.88C81.1794 21.8667 81.2528 21.8533 81.3461 21.84L81.5661 23.08C81.4594 23.1333 81.3328 23.1733 81.1861 23.2C81.0394 23.2267 80.8528 23.24 80.6261 23.24ZM88.1477 23V9.88H90.1477L92.6677 16.88C92.8277 17.3333 92.981 17.7933 93.1277 18.26C93.2877 18.7133 93.4477 19.1667 93.6077 19.62H93.6877C93.8477 19.1667 93.9943 18.7133 94.1277 18.26C94.2743 17.7933 94.4277 17.3333 94.5877 16.88L97.0677 9.88H99.0877V23H97.5277V15.78C97.5277 15.1933 97.5543 14.5467 97.6077 13.84C97.661 13.12 97.7077 12.4733 97.7477 11.9H97.6677L96.6277 14.88L94.1477 21.68H93.0477L90.5677 14.88L89.5277 11.9H89.4477C89.4877 12.4733 89.5277 13.12 89.5677 13.84C89.621 14.5467 89.6477 15.1933 89.6477 15.78V23H88.1477ZM104.759 23.24C103.946 23.24 103.266 23 102.719 22.52C102.186 22.0267 101.919 21.3467 101.919 20.48C101.919 19.4133 102.392 18.6 103.339 18.04C104.299 17.4667 105.812 17.0667 107.879 16.84C107.879 16.4267 107.819 16.0333 107.699 15.66C107.592 15.2867 107.392 14.9867 107.099 14.76C106.819 14.52 106.412 14.4 105.879 14.4C105.319 14.4 104.792 14.5067 104.299 14.72C103.806 14.9333 103.366 15.1733 102.979 15.44L102.339 14.3C102.792 14.0067 103.346 13.7267 103.999 13.46C104.666 13.18 105.386 13.04 106.159 13.04C107.346 13.04 108.206 13.4067 108.739 14.14C109.272 14.86 109.539 15.8267 109.539 17.04V23H108.179L108.039 21.84H107.979C107.526 22.2133 107.026 22.54 106.479 22.82C105.946 23.1 105.372 23.24 104.759 23.24ZM105.239 21.92C105.706 21.92 106.146 21.8067 106.559 21.58C106.972 21.3533 107.412 21.0333 107.879 20.62V17.92C106.266 18.12 105.132 18.42 104.479 18.82C103.839 19.22 103.519 19.7333 103.519 20.36C103.519 20.9067 103.686 21.3067 104.019 21.56C104.352 21.8 104.759 21.92 105.239 21.92ZM112.597 23V13.28H113.957L114.097 15.04H114.157C114.49 14.4267 114.897 13.94 115.377 13.58C115.857 13.22 116.37 13.04 116.917 13.04C117.304 13.04 117.65 13.1067 117.957 13.24L117.637 14.68C117.477 14.6267 117.33 14.5867 117.197 14.56C117.064 14.5333 116.897 14.52 116.697 14.52C116.284 14.52 115.85 14.6867 115.397 15.02C114.957 15.3533 114.57 15.9333 114.237 16.76V23H112.597ZM119.531 23V8.76H121.151V18.4H121.211L125.351 13.28H127.171L123.911 17.18L127.611 23H125.811L122.971 18.32L121.151 20.44V23H119.531ZM133.021 23.24C132.155 23.24 131.368 23.04 130.661 22.64C129.955 22.2267 129.395 21.64 128.981 20.88C128.568 20.12 128.361 19.2133 128.361 18.16C128.361 17.0933 128.568 16.18 128.981 15.42C129.408 14.66 129.955 14.0733 130.621 13.66C131.288 13.2467 131.988 13.04 132.721 13.04C133.961 13.04 134.915 13.4533 135.581 14.28C136.261 15.1067 136.601 16.2133 136.601 17.6C136.601 17.7733 136.595 17.9467 136.581 18.12C136.581 18.28 136.568 18.42 136.541 18.54H129.981C130.048 19.5667 130.368 20.3867 130.941 21C131.528 21.6133 132.288 21.92 133.221 21.92C133.688 21.92 134.115 21.8533 134.501 21.72C134.901 21.5733 135.281 21.3867 135.641 21.16L136.221 22.24C135.808 22.5067 135.335 22.74 134.801 22.94C134.281 23.14 133.688 23.24 133.021 23.24ZM129.961 17.36H135.161C135.161 16.3733 134.948 15.6267 134.521 15.12C134.108 14.6 133.521 14.34 132.761 14.34C132.081 14.34 131.468 14.6067 130.921 15.14C130.388 15.66 130.068 16.4 129.961 17.36ZM141.868 23.24C140.828 23.24 140.101 22.94 139.688 22.34C139.288 21.74 139.088 20.96 139.088 20V14.62H137.648V13.38L139.168 13.28L139.368 10.56H140.748V13.28H143.368V14.62H140.748V20.02C140.748 20.62 140.855 21.0867 141.068 21.42C141.295 21.74 141.688 21.9 142.248 21.9C142.421 21.9 142.608 21.8733 142.808 21.82C143.008 21.7533 143.188 21.6933 143.348 21.64L143.668 22.88C143.401 22.9733 143.108 23.0533 142.788 23.12C142.481 23.2 142.175 23.24 141.868 23.24ZM145.566 23V13.28H147.206V23H145.566ZM146.406 11.28C146.086 11.28 145.819 11.1867 145.606 11C145.406 10.8 145.306 10.5333 145.306 10.2C145.306 9.88 145.406 9.62 145.606 9.42C145.819 9.22 146.086 9.12 146.406 9.12C146.726 9.12 146.986 9.22 147.186 9.42C147.399 9.62 147.506 9.88 147.506 10.2C147.506 10.5333 147.399 10.8 147.186 11C146.986 11.1867 146.726 11.28 146.406 11.28ZM150.488 23V13.28H151.848L151.988 14.68H152.048C152.514 14.2133 153.008 13.8267 153.528 13.52C154.048 13.2 154.641 13.04 155.308 13.04C156.334 13.04 157.081 13.3667 157.548 14.02C158.028 14.66 158.268 15.6 158.268 16.84V23H156.628V17.06C156.628 16.1533 156.481 15.4933 156.188 15.08C155.894 14.6667 155.428 14.46 154.788 14.46C154.294 14.46 153.848 14.5867 153.448 14.84C153.061 15.0933 152.621 15.4667 152.128 15.96V23H150.488ZM164.705 27.48C163.518 27.48 162.552 27.2533 161.805 26.8C161.058 26.3467 160.685 25.7 160.685 24.86C160.685 24.4467 160.812 24.0467 161.065 23.66C161.318 23.2867 161.665 22.9533 162.105 22.66V22.58C161.865 22.4333 161.658 22.2267 161.485 21.96C161.325 21.6933 161.245 21.3733 161.245 21C161.245 20.5867 161.358 20.2267 161.585 19.92C161.812 19.6133 162.052 19.3733 162.305 19.2V19.12C161.985 18.8533 161.692 18.4933 161.425 18.04C161.172 17.5867 161.045 17.0733 161.045 16.5C161.045 15.7933 161.212 15.18 161.545 14.66C161.878 14.14 162.325 13.74 162.885 13.46C163.445 13.18 164.052 13.04 164.705 13.04C164.972 13.04 165.225 13.0667 165.465 13.12C165.705 13.16 165.912 13.2133 166.085 13.28H169.465V14.54H167.465C167.692 14.7533 167.878 15.04 168.025 15.4C168.185 15.7467 168.265 16.1267 168.265 16.54C168.265 17.2333 168.105 17.8333 167.785 18.34C167.465 18.8467 167.038 19.24 166.505 19.52C165.972 19.7867 165.372 19.92 164.705 19.92C164.185 19.92 163.698 19.8067 163.245 19.58C163.072 19.7267 162.925 19.8933 162.805 20.08C162.685 20.2533 162.625 20.4733 162.625 20.74C162.625 21.0467 162.745 21.3 162.985 21.5C163.238 21.7 163.692 21.8 164.345 21.8H166.225C167.358 21.8 168.205 21.9867 168.765 22.36C169.338 22.72 169.625 23.3067 169.625 24.12C169.625 24.72 169.425 25.2733 169.025 25.78C168.625 26.2867 168.058 26.6933 167.325 27C166.592 27.32 165.718 27.48 164.705 27.48ZM164.705 18.82C165.265 18.82 165.745 18.6133 166.145 18.2C166.558 17.7733 166.765 17.2067 166.765 16.5C166.765 15.7933 166.565 15.24 166.165 14.84C165.765 14.44 165.278 14.24 164.705 14.24C164.132 14.24 163.645 14.44 163.245 14.84C162.845 15.24 162.645 15.7933 162.645 16.5C162.645 17.2067 162.845 17.7733 163.245 18.2C163.658 18.6133 164.145 18.82 164.705 18.82ZM164.945 26.34C165.878 26.34 166.625 26.1333 167.185 25.72C167.745 25.32 168.025 24.8667 168.025 24.36C168.025 23.9067 167.852 23.5933 167.505 23.42C167.172 23.2467 166.692 23.16 166.065 23.16H164.385C164.198 23.16 163.992 23.1467 163.765 23.12C163.552 23.0933 163.338 23.0533 163.125 23C162.778 23.2533 162.525 23.52 162.365 23.8C162.205 24.08 162.125 24.36 162.125 24.64C162.125 25.16 162.372 25.5733 162.865 25.88C163.372 26.1867 164.065 26.34 164.945 26.34ZM175.667 23V9.88H178.947C180.974 9.88 182.514 10.4467 183.567 11.58C184.621 12.7 185.147 14.3 185.147 16.38C185.147 18.4733 184.621 20.1 183.567 21.26C182.527 22.42 181.014 23 179.027 23H175.667ZM177.327 21.64H178.827C180.361 21.64 181.507 21.18 182.267 20.26C183.041 19.3267 183.427 18.0333 183.427 16.38C183.427 14.7267 183.041 13.46 182.267 12.58C181.507 11.6867 180.361 11.24 178.827 11.24H177.327V21.64ZM190.052 23.24C189.239 23.24 188.559 23 188.012 22.52C187.479 22.0267 187.212 21.3467 187.212 20.48C187.212 19.4133 187.685 18.6 188.632 18.04C189.592 17.4667 191.105 17.0667 193.172 16.84C193.172 16.4267 193.112 16.0333 192.992 15.66C192.885 15.2867 192.685 14.9867 192.392 14.76C192.112 14.52 191.705 14.4 191.172 14.4C190.612 14.4 190.085 14.5067 189.592 14.72C189.099 14.9333 188.659 15.1733 188.272 15.44L187.632 14.3C188.085 14.0067 188.639 13.7267 189.292 13.46C189.959 13.18 190.679 13.04 191.452 13.04C192.639 13.04 193.499 13.4067 194.032 14.14C194.565 14.86 194.832 15.8267 194.832 17.04V23H193.472L193.332 21.84H193.272C192.819 22.2133 192.319 22.54 191.772 22.82C191.239 23.1 190.665 23.24 190.052 23.24ZM190.532 21.92C190.999 21.92 191.439 21.8067 191.852 21.58C192.265 21.3533 192.705 21.0333 193.172 20.62V17.92C191.559 18.12 190.425 18.42 189.772 18.82C189.132 19.22 188.812 19.7333 188.812 20.36C188.812 20.9067 188.979 21.3067 189.312 21.56C189.645 21.8 190.052 21.92 190.532 21.92ZM200.677 23.24C199.637 23.24 198.91 22.94 198.497 22.34C198.097 21.74 197.897 20.96 197.897 20V14.62H196.457V13.38L197.977 13.28L198.177 10.56H199.557V13.28H202.177V14.62H199.557V20.02C199.557 20.62 199.663 21.0867 199.877 21.42C200.103 21.74 200.497 21.9 201.057 21.9C201.23 21.9 201.417 21.8733 201.617 21.82C201.817 21.7533 201.997 21.6933 202.157 21.64L202.477 22.88C202.21 22.9733 201.917 23.0533 201.597 23.12C201.29 23.2 200.983 23.24 200.677 23.24ZM208.041 23.24C207.174 23.24 206.388 23.04 205.681 22.64C204.974 22.2267 204.414 21.64 204.001 20.88C203.588 20.12 203.381 19.2133 203.381 18.16C203.381 17.0933 203.588 16.18 204.001 15.42C204.428 14.66 204.974 14.0733 205.641 13.66C206.308 13.2467 207.008 13.04 207.741 13.04C208.981 13.04 209.934 13.4533 210.601 14.28C211.281 15.1067 211.621 16.2133 211.621 17.6C211.621 17.7733 211.614 17.9467 211.601 18.12C211.601 18.28 211.588 18.42 211.561 18.54H205.001C205.068 19.5667 205.388 20.3867 205.961 21C206.548 21.6133 207.308 21.92 208.241 21.92C208.708 21.92 209.134 21.8533 209.521 21.72C209.921 21.5733 210.301 21.3867 210.661 21.16L211.241 22.24C210.828 22.5067 210.354 22.74 209.821 22.94C209.301 23.14 208.708 23.24 208.041 23.24ZM204.981 17.36H210.181C210.181 16.3733 209.968 15.6267 209.541 15.12C209.128 14.6 208.541 14.34 207.781 14.34C207.101 14.34 206.488 14.6067 205.941 15.14C205.408 15.66 205.088 16.4 204.981 17.36ZM216.563 23.24C215.869 23.24 215.209 23.1133 214.583 22.86C213.956 22.5933 213.409 22.2733 212.943 21.9L213.763 20.8C214.189 21.1333 214.629 21.4133 215.083 21.64C215.536 21.8533 216.049 21.96 216.623 21.96C217.263 21.96 217.743 21.8133 218.063 21.52C218.383 21.2133 218.543 20.8533 218.543 20.44C218.543 20.1067 218.429 19.8267 218.203 19.6C217.989 19.3733 217.709 19.1867 217.363 19.04C217.029 18.88 216.683 18.7333 216.323 18.6C215.869 18.4267 215.423 18.2333 214.983 18.02C214.543 17.7933 214.183 17.5067 213.903 17.16C213.623 16.8 213.483 16.3467 213.483 15.8C213.483 15.0133 213.776 14.36 214.363 13.84C214.963 13.3067 215.789 13.04 216.843 13.04C217.443 13.04 218.003 13.1467 218.523 13.36C219.043 13.5733 219.489 13.8333 219.863 14.14L219.063 15.18C218.729 14.9267 218.383 14.72 218.023 14.56C217.663 14.4 217.269 14.32 216.843 14.32C216.229 14.32 215.776 14.46 215.483 14.74C215.203 15.02 215.063 15.3467 215.063 15.72C215.063 16.0267 215.163 16.28 215.363 16.48C215.563 16.6667 215.823 16.8333 216.143 16.98C216.463 17.1133 216.803 17.2533 217.163 17.4C217.629 17.5733 218.089 17.7733 218.543 18C218.996 18.2133 219.369 18.5067 219.663 18.88C219.969 19.24 220.123 19.7267 220.123 20.34C220.123 20.86 219.983 21.34 219.703 21.78C219.436 22.22 219.036 22.5733 218.503 22.84C217.983 23.1067 217.336 23.24 216.563 23.24Z" fill="#333333"/>
<defs>
<linearGradient id="paint0_linear_2874_11499" x1="13.6316" y1="0.5" x2="13.6316" y2="28.9211" gradientUnits="userSpaceOnUse">
<stop offset="0.275742" stop-color="#0380DC"/>
<stop offset="1" stop-color="#0061D3"/>
</linearGradient>
<clipPath id="clip0_2874_11499">
<rect width="30" height="30" fill="white" transform="translate(0 0.5)"/>
</clipPath>
</defs>
</svg>
