<svg width="30" height="30" viewBox="0 0 30 30" fill="none" xmlns="http://www.w3.org/2000/svg">
<path d="M25.4995 3H23.9995V0H20.9995V3H8.99951V0H5.99951V3H4.49951C2.83451 3 1.51451 4.35 1.51451 6L1.49951 27C1.49951 27.7957 1.81558 28.5587 2.37819 29.1213C2.9408 29.6839 3.70386 30 4.49951 30H25.4995C27.1495 30 28.4995 28.65 28.4995 27V6C28.4995 4.35 27.1495 3 25.4995 3ZM25.4995 27H4.49951V12H25.4995V27ZM25.4995 9H4.49951V6H25.4995V9ZM10.4995 18H7.49951V15H10.4995V18ZM16.4995 24H13.4995V21H16.4995V24ZM22.4995 24H19.4995V21H22.4995V24Z" fill="url(#paint0_linear_930_9500)"/>
<path d="M13.4995 18H16.4995V15H13.4995V18Z" fill="#FF8431"/>
<path d="M19.4995 18H22.4995V15H19.4995V18Z" fill="#FF8431"/>
<path d="M7.49952 24H10.4995V21H7.49952V24Z" fill="#FF8431"/>
<defs>
<linearGradient id="paint0_linear_930_9500" x1="14.9995" y1="0" x2="14.9995" y2="30" gradientUnits="userSpaceOnUse">
<stop offset="0.275742" stop-color="#0380DC"/>
<stop offset="1" stop-color="#0061D3"/>
</linearGradient>
</defs>
</svg>
