<svg width="124" height="28" viewBox="0 0 124 28" fill="none" xmlns="http://www.w3.org/2000/svg">
<path d="M0.240682 19.457C0.137851 19.7259 0.278135 19.7821 0.310824 19.8287C0.619315 20.0531 0.932735 20.2146 1.24829 20.3945C2.922 21.2827 4.5024 21.542 6.15508 21.542C9.52122 21.542 11.611 19.7515 11.611 16.8692V16.8132C11.611 14.1481 9.25248 13.1804 7.03867 12.4815L6.7512 12.388C5.0821 11.8456 3.64214 11.3782 3.64214 10.2795V10.2212C3.64214 9.28138 4.48367 8.58933 5.78811 8.58933C7.23743 8.58933 8.95796 9.07096 10.0659 9.68334C10.0659 9.68334 10.3908 9.89377 10.5101 9.57821C10.5755 9.40984 11.1366 7.89974 11.1951 7.73613C11.2582 7.55839 11.146 7.42747 11.0315 7.35733C9.7668 6.58824 8.01819 6.06226 6.20896 6.06226L5.87238 6.06456C2.7914 6.06456 0.640835 7.92536 0.640835 10.5926V10.6487C0.640835 13.4608 3.01349 14.3725 5.23667 15.0084L5.59428 15.1183C7.21427 15.6161 8.60987 16.0439 8.60987 17.1847V17.2409C8.60987 18.2835 7.70296 19.0595 6.23951 19.0595C5.67148 19.0595 3.85979 19.0478 1.90322 17.8111C1.667 17.6731 1.52918 17.5727 1.34685 17.4628C1.25108 17.402 1.01027 17.2967 0.905138 17.6148L0.240682 19.457ZM49.5202 19.457C49.4173 19.7259 49.5576 19.7821 49.5903 19.8287C49.8988 20.0531 50.2122 20.2146 50.5276 20.3945C52.2013 21.2827 53.7819 21.542 55.4344 21.542C58.8006 21.542 60.8905 19.7515 60.8905 16.8692V16.8132C60.8905 14.1481 58.5318 13.1804 56.318 12.4815L56.0305 12.388C54.3614 11.8456 52.9213 11.3782 52.9213 10.2795V10.2212C52.9213 9.28138 53.7628 8.58933 55.0673 8.58933C56.5166 8.58933 58.2371 9.07096 59.3453 9.68334C59.3453 9.68334 59.6702 9.89377 59.7893 9.57821C59.8547 9.40984 60.4158 7.89974 60.4743 7.73613C60.5375 7.55839 60.4251 7.42747 60.3107 7.35733C59.046 6.58824 57.2974 6.06226 55.4881 6.06226L55.1514 6.06456C52.0704 6.06456 49.9198 7.92536 49.9198 10.5926V10.6487C49.9198 13.4608 52.2925 14.3725 54.5157 15.0084L54.8733 15.1183C56.4933 15.6161 57.8913 16.0439 57.8913 17.1847V17.2409C57.8913 18.2835 56.982 19.0595 55.5185 19.0595C54.9506 19.0595 53.139 19.0478 51.1824 17.8111C50.9462 17.6731 50.8061 17.5773 50.6285 17.4628C50.5675 17.4231 50.2824 17.3132 50.1841 17.6148L49.5202 19.457ZM83.162 13.8112C83.162 15.4405 82.8581 16.7238 82.2597 17.6309C81.6682 18.5286 80.7729 18.9657 79.5249 18.9657C78.2743 18.9657 77.3837 18.5309 76.8015 17.6309C76.2123 16.7263 75.9133 15.4405 75.9133 13.8112C75.9133 12.1843 76.2123 10.9032 76.8015 10.0055C77.3837 9.11728 78.2743 8.68477 79.5249 8.68477C80.7731 8.68477 81.6684 9.11728 82.2622 10.0055C82.8583 10.903 83.162 12.1841 83.162 13.8112ZM85.972 10.791C85.696 9.85812 85.266 9.03531 84.6933 8.35049C84.1205 7.6632 83.396 7.11159 82.5355 6.70947C81.6776 6.30981 80.6632 6.10645 79.5249 6.10645C78.384 6.10645 77.3695 6.30981 76.5116 6.70947C75.6513 7.11159 74.9267 7.66336 74.3516 8.35049C73.7813 9.03778 73.3511 9.86059 73.073 10.791C72.7995 11.7189 72.6615 12.7334 72.6615 13.8112C72.6615 14.8889 72.7995 15.9057 73.073 16.8314C73.3511 17.7618 73.779 18.5848 74.3541 19.2719C74.9267 19.9592 75.6538 20.5085 76.5117 20.8988C77.3718 21.2892 78.384 21.4878 79.525 21.4878C80.6634 21.4878 81.6756 21.2892 82.5357 20.8988C83.3937 20.5085 84.1205 19.959 84.6935 19.2719C85.2661 18.5869 85.6962 17.7641 85.9721 16.8314C86.2481 15.9034 86.3859 14.8865 86.3859 13.8112C86.3859 12.7359 86.2478 11.7189 85.972 10.791ZM109.046 18.5306C108.952 18.257 108.688 18.3599 108.688 18.3599C108.279 18.5166 107.844 18.6615 107.382 18.7339C106.912 18.8062 106.395 18.8438 105.841 18.8438C104.481 18.8438 103.401 18.4394 102.627 17.6399C101.851 16.8404 101.416 15.5478 101.421 13.7992C101.425 12.2073 101.809 11.0103 102.498 10.0988C103.183 9.19186 104.226 8.72649 105.617 8.72649C106.776 8.72649 107.66 8.85971 108.585 9.15194C108.585 9.15194 108.807 9.24771 108.913 8.95794C109.158 8.27525 109.34 7.78673 109.602 7.03636C109.677 6.82363 109.495 6.73246 109.429 6.70667C109.064 6.56409 108.204 6.3328 107.554 6.23457C106.947 6.14111 106.236 6.09199 105.446 6.09199C104.265 6.09199 103.213 6.29305 102.313 6.69518C101.416 7.09484 100.654 7.64644 100.051 8.33389C99.4475 9.02118 98.9894 9.84383 98.6832 10.7742C98.3793 11.7022 98.2251 12.7214 98.2251 13.7992C98.2251 16.1298 98.8539 18.0138 100.095 19.3931C101.339 20.7771 103.207 21.4806 105.643 21.4806C107.082 21.4806 108.56 21.1885 109.621 20.77C109.621 20.77 109.825 20.6718 109.736 20.4359L109.046 18.5306ZM113.962 12.2503C114.095 11.3457 114.346 10.5929 114.731 10.0063C115.314 9.11564 116.202 8.62711 117.45 8.62711C118.699 8.62711 119.524 9.11794 120.115 10.0063C120.508 10.5929 120.678 11.3786 120.746 12.2503H113.962ZM123.423 10.2609C123.184 9.36089 122.593 8.45151 122.205 8.03543C121.592 7.37622 120.994 6.91578 120.4 6.65854C119.624 6.32656 118.694 6.10694 117.675 6.10694C116.487 6.10694 115.409 6.3057 114.535 6.71702C113.659 7.12851 112.922 7.68964 112.345 8.3886C111.767 9.08508 111.333 9.91496 111.057 10.857C110.778 11.7945 110.638 12.8161 110.638 13.8935C110.638 14.99 110.783 16.0115 111.071 16.9301C111.361 17.8559 111.823 18.6717 112.45 19.3471C113.074 20.0275 113.878 20.5606 114.841 20.932C115.797 21.3014 116.959 21.4931 118.294 21.4906C121.041 21.4813 122.488 20.8689 123.084 20.5392C123.189 20.4809 123.29 20.3781 123.163 20.0835L122.541 18.3418C122.448 18.0824 122.184 18.1782 122.184 18.1782C121.503 18.4307 120.536 18.8842 118.28 18.8796C116.805 18.8773 115.711 18.4425 115.026 17.7621C114.322 17.0656 113.979 16.0416 113.918 14.597L123.43 14.6064C123.43 14.6064 123.68 14.6018 123.706 14.3585C123.715 14.256 124.033 12.4046 123.423 10.2609ZM37.7863 12.2503C37.9218 11.3457 38.1697 10.5929 38.5554 10.0063C39.1374 9.11564 40.0258 8.62711 41.274 8.62711C42.5223 8.62711 43.3475 9.11794 43.9412 10.0063C44.3315 10.5929 44.5022 11.3786 44.57 12.2503H37.7863ZM47.2443 10.2609C47.0059 9.36089 46.4169 8.45151 46.0289 8.03543C45.4163 7.37622 44.8179 6.91578 44.2242 6.65854C43.4481 6.32656 42.5178 6.10694 41.4986 6.10694C40.3134 6.10694 39.2333 6.3057 38.3591 6.71702C37.4826 7.12851 36.7462 7.68964 36.1688 8.3886C35.5914 9.08508 35.1566 9.91496 34.8808 10.857C34.605 11.7945 34.4624 12.8161 34.4624 13.8935C34.4624 14.99 34.6073 16.0115 34.8949 16.9301C35.1848 17.8559 35.6477 18.6717 36.2741 19.3471C36.8983 20.0275 37.7024 20.5606 38.6655 20.932C39.6217 21.3014 40.7834 21.4931 42.1182 21.4906C44.8649 21.4813 46.3119 20.8689 46.908 20.5392C47.0133 20.4809 47.1137 20.3781 46.9875 20.0835L46.3681 18.3418C46.2721 18.0824 46.0082 18.1782 46.0082 18.1782C45.3279 18.4307 44.3624 18.8842 42.1019 18.8796C40.6293 18.8773 39.5353 18.4425 38.8503 17.7621C38.1466 17.0656 37.8031 16.0416 37.7421 14.597L47.254 14.6064C47.254 14.6064 47.504 14.6018 47.5298 14.3585C47.5388 14.256 47.8567 12.4046 47.2443 10.2609ZM17.2266 18.4785C16.8549 18.1815 16.8035 18.1067 16.6773 17.915C16.4902 17.6228 16.3944 17.2067 16.3944 16.6785C16.3944 15.8415 16.6702 15.2408 17.243 14.8364C17.2361 14.8388 18.0613 14.1235 20.0014 14.1491C21.3642 14.1678 22.582 14.3689 22.582 14.3689V18.6935H22.5843C22.5843 18.6935 21.3758 18.9529 20.0154 19.0347C18.0798 19.1516 17.2196 18.4762 17.2266 18.4785ZM21.0111 11.7951C20.6254 11.7671 20.1251 11.7506 19.5267 11.7506C18.7109 11.7506 17.9231 11.8535 17.1844 12.0522C16.4411 12.2508 15.7725 12.5619 15.1974 12.9731C14.6232 13.383 14.1513 13.9197 13.8183 14.5417C13.4817 15.1682 13.311 15.9069 13.311 16.7345C13.311 17.576 13.4559 18.3076 13.7458 18.9062C14.0357 19.507 14.4541 20.0071 14.987 20.393C15.5153 20.7787 16.1676 21.0614 16.9249 21.2321C17.6706 21.4027 18.5168 21.4891 19.4426 21.4891C20.4173 21.4891 21.3898 21.4098 22.3318 21.2483C23.2645 21.0893 24.41 20.8579 24.7278 20.7856C24.9507 20.7319 25.1728 20.675 25.3941 20.6149C25.6303 20.5566 25.6116 20.304 25.6116 20.304L25.6068 11.6057C25.6068 9.69812 25.0973 8.28379 24.0944 7.40727C23.0962 6.53305 21.6258 6.09101 19.7254 6.09101C19.0124 6.09101 17.8646 6.1894 17.1773 6.32722C17.1773 6.32722 15.0992 6.72934 14.2435 7.39791C14.2435 7.39791 14.0566 7.51486 14.1594 7.7767L14.8328 9.5861C14.9169 9.81985 15.1437 9.74034 15.1437 9.74034C15.1437 9.74034 15.2162 9.71225 15.3004 9.66314C17.1308 8.66736 19.445 8.69774 19.445 8.69774C20.4737 8.69774 21.2638 8.90341 21.7967 9.31243C22.3156 9.70979 22.5797 10.3105 22.5797 11.5775V11.9796C21.7615 11.8628 21.0111 11.7951 21.0111 11.7951ZM97.7282 6.8941C97.8004 6.67892 97.6487 6.57608 97.5854 6.55276C97.4243 6.48968 96.6154 6.31901 95.9912 6.27925C94.7968 6.20681 94.133 6.40787 93.5391 6.67431C92.95 6.94075 92.2955 7.3708 91.9307 7.85949V6.7024C91.9307 6.54109 91.8162 6.41247 91.6572 6.41247H89.219C89.0602 6.41247 88.9457 6.54093 88.9457 6.7024V20.8894C88.9457 21.0484 89.0766 21.1793 89.2354 21.1793H91.7344C91.811 21.1789 91.8842 21.1481 91.9381 21.0938C91.992 21.0394 92.0221 20.9659 92.0219 20.8894V13.8018C92.0219 12.8504 92.1272 11.9014 92.3376 11.3053C92.5433 10.7161 92.8238 10.244 93.1698 9.90493C93.518 9.56835 93.9131 9.3323 94.3456 9.19908C94.7873 9.0634 95.2758 9.01905 95.6219 9.01905C96.1198 9.01905 96.6668 9.14751 96.6668 9.14751C96.849 9.16853 96.952 9.05634 97.0126 8.89043C97.1764 8.45562 97.6393 7.15348 97.7282 6.8941Z" fill="white"/>
<path d="M74.2718 0.322617C73.9679 0.22915 73.6921 0.165908 73.332 0.0982299C72.9672 0.0328519 72.5325 0 72.0394 0C70.3187 0 68.9628 0.486227 68.0116 1.44456C67.0647 2.39845 66.4218 3.85007 66.0992 5.76L65.9822 6.40277H63.8225C63.8225 6.40277 63.5606 6.3934 63.5044 6.67873L63.1516 8.65864C63.1258 8.84574 63.2078 8.96483 63.4601 8.96483H65.5617L63.4297 20.8681C63.2636 21.8265 63.0719 22.6144 62.8592 23.2126C62.6511 23.8018 62.4479 24.2436 62.1954 24.5662C61.9523 24.8748 61.7231 25.1038 61.3256 25.237C60.9984 25.3469 60.6198 25.3984 60.206 25.3984C59.9768 25.3984 59.6708 25.3607 59.4439 25.3141C59.2195 25.2696 59.1003 25.2206 58.9296 25.148C58.9296 25.148 58.6842 25.0547 58.586 25.3001C58.5088 25.5035 57.9478 27.0438 57.88 27.2334C57.8146 27.4226 57.908 27.57 58.0271 27.6143C58.3077 27.7125 58.5157 27.7779 58.8968 27.8691C59.4252 27.9931 59.8715 28 60.2899 28C61.1641 28 61.9636 27.8761 62.6253 27.6378C63.2892 27.397 63.8688 26.9784 64.3831 26.4129C64.9372 25.8003 65.2854 25.1598 65.6176 24.2833C65.9471 23.4183 66.2301 22.343 66.4543 21.0901L68.598 8.96483H71.7304C71.7304 8.96483 71.9944 8.97419 72.0484 8.68672L72.4036 6.70912C72.427 6.51989 72.3475 6.40293 72.0926 6.40293H69.0514C69.0678 6.33526 69.2056 5.2644 69.554 4.25712C69.7037 3.82937 69.9841 3.48096 70.2203 3.24245C70.4542 3.0087 70.723 2.84279 71.0177 2.74686C71.3191 2.64863 71.6629 2.60198 72.0392 2.60198C72.3244 2.60198 72.6071 2.63466 72.8198 2.67902C73.1143 2.74226 73.2288 2.77495 73.3062 2.79844C73.6171 2.8919 73.659 2.80074 73.72 2.65125L74.447 0.654929C74.5218 0.439412 74.3371 0.348243 74.2718 0.322617ZM31.7794 20.8938C31.7794 21.0529 31.6649 21.1815 31.5059 21.1815H28.9835C28.8245 21.1815 28.7123 21.0529 28.7123 20.8938V0.593821C28.7123 0.434975 28.8245 0.306355 28.9835 0.306355H31.5059C31.6649 0.306355 31.7794 0.434975 31.7794 0.593821V20.8938Z" fill="white"/>
</svg>
