<svg width="16" height="16" viewBox="0 0 16 16" fill="none" xmlns="http://www.w3.org/2000/svg">
    <path d="M12.7057 11.181H11.9027L11.6181 10.9065C12.6142 9.74779 13.2139 8.24344 13.2139 6.60695C13.2139 2.95788 10.256 0 6.60695 0C2.95788 0 0 2.95788 0 6.60695C0 10.256 2.95788 13.2139  6.60695 13.2139C8.24344 13.2139 9.74779 12.6142 10.9065 11.6181L11.181 11.9027V12.7057L14.4855 16L16 14.4855L12.7057 11.181ZM6.60695 11.181C4.07598 11.181 2.03291 9.13792 2.03291 6.60695C2.03291 4.07598 4.07598 2.03291 6.60695 2.03291C9.13792 2.03291 11.181 4.07598 11.181 6.60695C11.181 9.13792 9.13792 11.181 6.60695 11.181Z" fill="#666666"/>
</svg>
