<svg width="26" height="26" viewBox="0 0 26 26" fill="none" xmlns="http://www.w3.org/2000/svg">
    <mask id="path-1-outside-1_50_2834" maskUnits="userSpaceOnUse" x="2" y="2" width="22" height="22" fill="black">
        <rect fill="white" x="2" y="2" width="22" height="22"/>
        <path d="M13 7.83419C11.9783 7.83419 10.9795 8.13716 10.13 8.70479C9.28052 9.27242 8.61841 10.0792 8.22742 11.0231C7.83643 11.9671 7.73413 13.0057 7.93345 14.0078C8.13278 15.0099 8.62477 15.9303 9.34722 16.6528C10.0697 17.3752 10.9901 17.8672 11.9922 18.0665C12.9943 18.2659 14.0329 18.1636 14.9769 17.7726C15.9208 17.3816 16.7276 16.7195 17.2952 15.87C17.8628 15.0205 18.1658 14.0217 18.1658 13C18.1658 11.6299 17.6216 10.316 16.6528 9.34722C15.684 8.37845 14.3701 7.83419 13 7.83419ZM13 16.6899C12.2702 16.6899 11.5568 16.4735 10.95 16.068C10.3432 15.6626 9.87029 15.0863 9.59101 14.412C9.31174 13.7378 9.23866 12.9959 9.38104 12.2801C9.52341 11.5644 9.87484 10.9069 10.3909 10.3909C10.9069 9.87484 11.5644 9.52341 12.2801 9.38104C12.9959 9.23866 13.7378 9.31174 14.412 9.59101C15.0863 9.87029 15.6626 10.3432 16.068 10.95C16.4735 11.5568 16.6899 12.2702 16.6899 13C16.6899 13.9786 16.3011 14.9171 15.6091 15.6091C14.9171 16.3011 13.9786 16.6899 13 16.6899ZM22.8519 15.0663L21.4775 13.2398C21.4867 13.0738 21.4775 12.8985 21.4775 12.7694L22.8519 10.9337C22.9203 10.8443 22.9667 10.7402 22.9876 10.6297C23.0084 10.5191 23.003 10.4053 22.9719 10.2972C22.7394 9.44672 22.4016 8.62862 21.9664 7.86187C21.9102 7.76447 21.833 7.68081 21.7405 7.61698C21.6479 7.55315 21.5423 7.51076 21.4313 7.49288L19.1713 7.17002L18.83 6.82871L18.5071 4.56867C18.4892 4.45767 18.4468 4.35205 18.383 4.2595C18.3192 4.16695 18.2355 4.08979 18.1381 4.03364C17.3714 3.59841 16.5533 3.26063 15.7028 3.02815C15.5947 2.99699 15.4809 2.99161 15.3703 3.01244C15.2598 3.03327 15.1557 3.07972 15.0663 3.14807L13.2398 4.51332H12.7602L10.9337 3.14807C10.8443 3.07972 10.7402 3.03327 10.6297 3.01244C10.5191 2.99161 10.4053 2.99699 10.2972 3.02815C9.44672 3.26063 8.62862 3.59841 7.86187 4.03364C7.76447 4.08979 7.68081 4.16695 7.61698 4.2595C7.55315 4.35205 7.51076 4.45767 7.49288 4.56867L7.17002 6.82871L6.82871 7.17002L4.56867 7.49288C4.45767 7.51076 4.35205 7.55315 4.2595 7.61698C4.16695 7.68081 4.08979 7.76447 4.03364 7.86187C3.59841 8.62862 3.26063 9.44672 3.02815 10.2972C2.99699 10.4053 2.99161 10.5191 3.01244 10.6297C3.03327 10.7402 3.07972 10.8443 3.14807 10.9337L4.52254 12.7602V13.2306L3.14807 15.0663C3.07972 15.1557 3.03327 15.2598 3.01244 15.3703C2.99161 15.4809 2.99699 15.5947 3.02815 15.7028C3.26063 16.5533 3.59841 17.3714 4.03364 18.1381C4.08979 18.2355 4.16695 18.3192 4.2595 18.383C4.35205 18.4468 4.45767 18.4892 4.56867 18.5071L6.82871 18.83L7.17002 19.1713L7.49288 21.4313C7.51076 21.5423 7.55315 21.6479 7.61698 21.7405C7.68081 21.833 7.76447 21.9102 7.86187 21.9664C8.62862 22.4016 9.44672 22.7394 10.2972 22.9719C10.3601 22.9901 10.4253 22.9994 10.4909 22.9995C10.6509 23.0016 10.8069 22.9496 10.9337 22.8519L12.7602 21.4867H13.2398L15.0663 22.8519C15.1557 22.9203 15.2598 22.9667 15.3703 22.9876C15.4809 23.0084 15.5947 23.003 15.7028 22.9719C16.5533 22.7394 17.3714 22.4016 18.1381 21.9664C18.2355 21.9102 18.3192 21.833 18.383 21.7405C18.4468 21.6479 18.4892 21.5423 18.5071 21.4313L18.83 19.1621C18.9407 19.0514 19.0698 18.9315 19.1621 18.83L21.4313 18.5071C21.5423 18.4892 21.6479 18.4468 21.7405 18.383C21.833 18.3192 21.9102 18.2355 21.9664 18.1381C22.4016 17.3714 22.7394 16.5533 22.9719 15.7028C23.003 15.5947 23.0084 15.4809 22.9876 15.3703C22.9667 15.2598 22.9203 15.1557 22.8519 15.0663ZM20.8502 17.0957L18.7008 17.4002C18.5349 17.4273 18.3826 17.5084 18.2673 17.6308C18.1566 17.7507 17.8153 18.1012 17.6492 18.2488C17.5145 18.3646 17.4261 18.5251 17.4002 18.7008L17.0957 20.8502C16.6363 21.0954 16.1544 21.2962 15.6567 21.4498L13.9132 20.1399C13.7729 20.0351 13.5988 19.9858 13.4243 20.0015H12.5757C12.4012 19.9858 12.2271 20.0351 12.0868 20.1399L10.3433 21.4498C9.84561 21.2962 9.36373 21.0954 8.90425 20.8502L8.59984 18.7008C8.57393 18.5251 8.48549 18.3646 8.35077 18.2488C8.13732 18.063 7.93697 17.8627 7.75117 17.6492C7.63539 17.5145 7.4749 17.4261 7.29916 17.4002L5.14982 17.0957C4.90842 16.6344 4.70779 16.1529 4.55022 15.6567L5.86012 13.9132C5.9551 13.7781 6.00659 13.6172 6.00771 13.452C5.99849 13.286 5.98926 12.8063 5.99849 12.5757C6.01423 12.4012 5.96495 12.2271 5.86012 12.0868L4.55022 10.3433C4.70779 9.84707 4.90842 9.36556 5.14982 8.90425L7.29916 8.59984C7.4749 8.57393 7.63539 8.48549 7.75117 8.35077C7.93697 8.13732 8.13732 7.93697 8.35077 7.75117C8.48549 7.63539 8.57393 7.4749 8.59984 7.29916L8.90425 5.14982C9.36556 4.90842 9.84707 4.70779 10.3433 4.55022L12.0868 5.86012C12.2271 5.96495 12.4012 6.01423 12.5757 5.99849C12.8524 5.98926 13.1476 5.98926 13.4243 5.99849C13.5988 6.01423 13.7729 5.96495 13.9132 5.86012L15.6567 4.55022C16.1544 4.70378 16.6363 4.90456 17.0957 5.14982L17.4002 7.29916C17.4261 7.4749 17.5145 7.63539 17.6492 7.75117C17.8627 7.93697 18.063 8.13732 18.2488 8.35077C18.3646 8.48549 18.5251 8.57393 18.7008 8.59984L20.8502 8.90425C21.0954 9.36373 21.2962 9.84561 21.4498 10.3433L20.1399 12.0868C20.0449 12.2219 19.9934 12.3828 19.9923 12.548C20.0015 12.714 20.0107 13.1937 20.0015 13.4243C19.9858 13.5988 20.0351 13.7729 20.1399 13.9132L21.4498 15.6567C21.2962 16.1544 21.0954 16.6363 20.8502 17.0957Z"/>
    </mask>
    <path d="M13 7.83419C11.9783 7.83419 10.9795 8.13716 10.13 8.70479C9.28052 9.27242 8.61841 10.0792 8.22742 11.0231C7.83643 11.9671 7.73413 13.0057 7.93345 14.0078C8.13278 15.0099 8.62477 15.9303 9.34722 16.6528C10.0697 17.3752 10.9901 17.8672 11.9922 18.0665C12.9943 18.2659 14.0329 18.1636 14.9769 17.7726C15.9208 17.3816 16.7276 16.7195 17.2952 15.87C17.8628 15.0205 18.1658 14.0217 18.1658 13C18.1658 11.6299 17.6216 10.316 16.6528 9.34722C15.684 8.37845 14.3701 7.83419 13 7.83419ZM13 16.6899C12.2702 16.6899 11.5568 16.4735 10.95 16.068C10.3432 15.6626 9.87029 15.0863 9.59101 14.412C9.31174 13.7378 9.23866 12.9959 9.38104 12.2801C9.52341 11.5644 9.87484 10.9069 10.3909 10.3909C10.9069 9.87484 11.5644 9.52341 12.2801 9.38104C12.9959 9.23866 13.7378 9.31174 14.412 9.59101C15.0863 9.87029 15.6626 10.3432 16.068 10.95C16.4735 11.5568 16.6899 12.2702 16.6899 13C16.6899 13.9786 16.3011 14.9171 15.6091 15.6091C14.9171 16.3011 13.9786 16.6899 13 16.6899ZM22.8519 15.0663L21.4775 13.2398C21.4867 13.0738 21.4775 12.8985 21.4775 12.7694L22.8519 10.9337C22.9203 10.8443 22.9667 10.7402 22.9876 10.6297C23.0084 10.5191 23.003 10.4053 22.9719 10.2972C22.7394 9.44672 22.4016 8.62862 21.9664 7.86187C21.9102 7.76447 21.833 7.68081 21.7405 7.61698C21.6479 7.55315 21.5423 7.51076 21.4313 7.49288L19.1713 7.17002L18.83 6.82871L18.5071 4.56867C18.4892 4.45767 18.4468 4.35205 18.383 4.2595C18.3192 4.16695 18.2355 4.08979 18.1381 4.03364C17.3714 3.59841 16.5533 3.26063 15.7028 3.02815C15.5947 2.99699 15.4809 2.99161 15.3703 3.01244C15.2598 3.03327 15.1557 3.07972 15.0663 3.14807L13.2398 4.51332H12.7602L10.9337 3.14807C10.8443 3.07972 10.7402 3.03327 10.6297 3.01244C10.5191 2.99161 10.4053 2.99699 10.2972 3.02815C9.44672 3.26063 8.62862 3.59841 7.86187 4.03364C7.76447 4.08979 7.68081 4.16695 7.61698 4.2595C7.55315 4.35205 7.51076 4.45767 7.49288 4.56867L7.17002 6.82871L6.82871 7.17002L4.56867 7.49288C4.45767 7.51076 4.35205 7.55315 4.2595 7.61698C4.16695 7.68081 4.08979 7.76447 4.03364 7.86187C3.59841 8.62862 3.26063 9.44672 3.02815 10.2972C2.99699 10.4053 2.99161 10.5191 3.01244 10.6297C3.03327 10.7402 3.07972 10.8443 3.14807 10.9337L4.52254 12.7602V13.2306L3.14807 15.0663C3.07972 15.1557 3.03327 15.2598 3.01244 15.3703C2.99161 15.4809 2.99699 15.5947 3.02815 15.7028C3.26063 16.5533 3.59841 17.3714 4.03364 18.1381C4.08979 18.2355 4.16695 18.3192 4.2595 18.383C4.35205 18.4468 4.45767 18.4892 4.56867 18.5071L6.82871 18.83L7.17002 19.1713L7.49288 21.4313C7.51076 21.5423 7.55315 21.6479 7.61698 21.7405C7.68081 21.833 7.76447 21.9102 7.86187 21.9664C8.62862 22.4016 9.44672 22.7394 10.2972 22.9719C10.3601 22.9901 10.4253 22.9994 10.4909 22.9995C10.6509 23.0016 10.8069 22.9496 10.9337 22.8519L12.7602 21.4867H13.2398L15.0663 22.8519C15.1557 22.9203 15.2598 22.9667 15.3703 22.9876C15.4809 23.0084 15.5947 23.003 15.7028 22.9719C16.5533 22.7394 17.3714 22.4016 18.1381 21.9664C18.2355 21.9102 18.3192 21.833 18.383 21.7405C18.4468 21.6479 18.4892 21.5423 18.5071 21.4313L18.83 19.1621C18.9407 19.0514 19.0698 18.9315 19.1621 18.83L21.4313 18.5071C21.5423 18.4892 21.6479 18.4468 21.7405 18.383C21.833 18.3192 21.9102 18.2355 21.9664 18.1381C22.4016 17.3714 22.7394 16.5533 22.9719 15.7028C23.003 15.5947 23.0084 15.4809 22.9876 15.3703C22.9667 15.2598 22.9203 15.1557 22.8519 15.0663ZM20.8502 17.0957L18.7008 17.4002C18.5349 17.4273 18.3826 17.5084 18.2673 17.6308C18.1566 17.7507 17.8153 18.1012 17.6492 18.2488C17.5145 18.3646 17.4261 18.5251 17.4002 18.7008L17.0957 20.8502C16.6363 21.0954 16.1544 21.2962 15.6567 21.4498L13.9132 20.1399C13.7729 20.0351 13.5988 19.9858 13.4243 20.0015H12.5757C12.4012 19.9858 12.2271 20.0351 12.0868 20.1399L10.3433 21.4498C9.84561 21.2962 9.36373 21.0954 8.90425 20.8502L8.59984 18.7008C8.57393 18.5251 8.48549 18.3646 8.35077 18.2488C8.13732 18.063 7.93697 17.8627 7.75117 17.6492C7.63539 17.5145 7.4749 17.4261 7.29916 17.4002L5.14982 17.0957C4.90842 16.6344 4.70779 16.1529 4.55022 15.6567L5.86012 13.9132C5.9551 13.7781 6.00659 13.6172 6.00771 13.452C5.99849 13.286 5.98926 12.8063 5.99849 12.5757C6.01423 12.4012 5.96495 12.2271 5.86012 12.0868L4.55022 10.3433C4.70779 9.84707 4.90842 9.36556 5.14982 8.90425L7.29916 8.59984C7.4749 8.57393 7.63539 8.48549 7.75117 8.35077C7.93697 8.13732 8.13732 7.93697 8.35077 7.75117C8.48549 7.63539 8.57393 7.4749 8.59984 7.29916L8.90425 5.14982C9.36556 4.90842 9.84707 4.70779 10.3433 4.55022L12.0868 5.86012C12.2271 5.96495 12.4012 6.01423 12.5757 5.99849C12.8524 5.98926 13.1476 5.98926 13.4243 5.99849C13.5988 6.01423 13.7729 5.96495 13.9132 5.86012L15.6567 4.55022C16.1544 4.70378 16.6363 4.90456 17.0957 5.14982L17.4002 7.29916C17.4261 7.4749 17.5145 7.63539 17.6492 7.75117C17.8627 7.93697 18.063 8.13732 18.2488 8.35077C18.3646 8.48549 18.5251 8.57393 18.7008 8.59984L20.8502 8.90425C21.0954 9.36373 21.2962 9.84561 21.4498 10.3433L20.1399 12.0868C20.0449 12.2219 19.9934 12.3828 19.9923 12.548C20.0015 12.714 20.0107 13.1937 20.0015 13.4243C19.9858 13.5988 20.0351 13.7729 20.1399 13.9132L21.4498 15.6567C21.2962 16.1544 21.0954 16.6363 20.8502 17.0957Z" fill="currentColor"/>
    <path d="M13 7.83419C11.9783 7.83419 10.9795 8.13716 10.13 8.70479C9.28052 9.27242 8.61841 10.0792 8.22742 11.0231C7.83643 11.9671 7.73413 13.0057 7.93345 14.0078C8.13278 15.0099 8.62477 15.9303 9.34722 16.6528C10.0697 17.3752 10.9901 17.8672 11.9922 18.0665C12.9943 18.2659 14.0329 18.1636 14.9769 17.7726C15.9208 17.3816 16.7276 16.7195 17.2952 15.87C17.8628 15.0205 18.1658 14.0217 18.1658 13C18.1658 11.6299 17.6216 10.316 16.6528 9.34722C15.684 8.37845 14.3701 7.83419 13 7.83419ZM13 16.6899C12.2702 16.6899 11.5568 16.4735 10.95 16.068C10.3432 15.6626 9.87029 15.0863 9.59101 14.412C9.31174 13.7378 9.23866 12.9959 9.38104 12.2801C9.52341 11.5644 9.87484 10.9069 10.3909 10.3909C10.9069 9.87484 11.5644 9.52341 12.2801 9.38104C12.9959 9.23866 13.7378 9.31174 14.412 9.59101C15.0863 9.87029 15.6626 10.3432 16.068 10.95C16.4735 11.5568 16.6899 12.2702 16.6899 13C16.6899 13.9786 16.3011 14.9171 15.6091 15.6091C14.9171 16.3011 13.9786 16.6899 13 16.6899ZM22.8519 15.0663L21.4775 13.2398C21.4867 13.0738 21.4775 12.8985 21.4775 12.7694L22.8519 10.9337C22.9203 10.8443 22.9667 10.7402 22.9876 10.6297C23.0084 10.5191 23.003 10.4053 22.9719 10.2972C22.7394 9.44672 22.4016 8.62862 21.9664 7.86187C21.9102 7.76447 21.833 7.68081 21.7405 7.61698C21.6479 7.55315 21.5423 7.51076 21.4313 7.49288L19.1713 7.17002L18.83 6.82871L18.5071 4.56867C18.4892 4.45767 18.4468 4.35205 18.383 4.2595C18.3192 4.16695 18.2355 4.08979 18.1381 4.03364C17.3714 3.59841 16.5533 3.26063 15.7028 3.02815C15.5947 2.99699 15.4809 2.99161 15.3703 3.01244C15.2598 3.03327 15.1557 3.07972 15.0663 3.14807L13.2398 4.51332H12.7602L10.9337 3.14807C10.8443 3.07972 10.7402 3.03327 10.6297 3.01244C10.5191 2.99161 10.4053 2.99699 10.2972 3.02815C9.44672 3.26063 8.62862 3.59841 7.86187 4.03364C7.76447 4.08979 7.68081 4.16695 7.61698 4.2595C7.55315 4.35205 7.51076 4.45767 7.49288 4.56867L7.17002 6.82871L6.82871 7.17002L4.56867 7.49288C4.45767 7.51076 4.35205 7.55315 4.2595 7.61698C4.16695 7.68081 4.08979 7.76447 4.03364 7.86187C3.59841 8.62862 3.26063 9.44672 3.02815 10.2972C2.99699 10.4053 2.99161 10.5191 3.01244 10.6297C3.03327 10.7402 3.07972 10.8443 3.14807 10.9337L4.52254 12.7602V13.2306L3.14807 15.0663C3.07972 15.1557 3.03327 15.2598 3.01244 15.3703C2.99161 15.4809 2.99699 15.5947 3.02815 15.7028C3.26063 16.5533 3.59841 17.3714 4.03364 18.1381C4.08979 18.2355 4.16695 18.3192 4.2595 18.383C4.35205 18.4468 4.45767 18.4892 4.56867 18.5071L6.82871 18.83L7.17002 19.1713L7.49288 21.4313C7.51076 21.5423 7.55315 21.6479 7.61698 21.7405C7.68081 21.833 7.76447 21.9102 7.86187 21.9664C8.62862 22.4016 9.44672 22.7394 10.2972 22.9719C10.3601 22.9901 10.4253 22.9994 10.4909 22.9995C10.6509 23.0016 10.8069 22.9496 10.9337 22.8519L12.7602 21.4867H13.2398L15.0663 22.8519C15.1557 22.9203 15.2598 22.9667 15.3703 22.9876C15.4809 23.0084 15.5947 23.003 15.7028 22.9719C16.5533 22.7394 17.3714 22.4016 18.1381 21.9664C18.2355 21.9102 18.3192 21.833 18.383 21.7405C18.4468 21.6479 18.4892 21.5423 18.5071 21.4313L18.83 19.1621C18.9407 19.0514 19.0698 18.9315 19.1621 18.83L21.4313 18.5071C21.5423 18.4892 21.6479 18.4468 21.7405 18.383C21.833 18.3192 21.9102 18.2355 21.9664 18.1381C22.4016 17.3714 22.7394 16.5533 22.9719 15.7028C23.003 15.5947 23.0084 15.4809 22.9876 15.3703C22.9667 15.2598 22.9203 15.1557 22.8519 15.0663ZM20.8502 17.0957L18.7008 17.4002C18.5349 17.4273 18.3826 17.5084 18.2673 17.6308C18.1566 17.7507 17.8153 18.1012 17.6492 18.2488C17.5145 18.3646 17.4261 18.5251 17.4002 18.7008L17.0957 20.8502C16.6363 21.0954 16.1544 21.2962 15.6567 21.4498L13.9132 20.1399C13.7729 20.0351 13.5988 19.9858 13.4243 20.0015H12.5757C12.4012 19.9858 12.2271 20.0351 12.0868 20.1399L10.3433 21.4498C9.84561 21.2962 9.36373 21.0954 8.90425 20.8502L8.59984 18.7008C8.57393 18.5251 8.48549 18.3646 8.35077 18.2488C8.13732 18.063 7.93697 17.8627 7.75117 17.6492C7.63539 17.5145 7.4749 17.4261 7.29916 17.4002L5.14982 17.0957C4.90842 16.6344 4.70779 16.1529 4.55022 15.6567L5.86012 13.9132C5.9551 13.7781 6.00659 13.6172 6.00771 13.452C5.99849 13.286 5.98926 12.8063 5.99849 12.5757C6.01423 12.4012 5.96495 12.2271 5.86012 12.0868L4.55022 10.3433C4.70779 9.84707 4.90842 9.36556 5.14982 8.90425L7.29916 8.59984C7.4749 8.57393 7.63539 8.48549 7.75117 8.35077C7.93697 8.13732 8.13732 7.93697 8.35077 7.75117C8.48549 7.63539 8.57393 7.4749 8.59984 7.29916L8.90425 5.14982C9.36556 4.90842 9.84707 4.70779 10.3433 4.55022L12.0868 5.86012C12.2271 5.96495 12.4012 6.01423 12.5757 5.99849C12.8524 5.98926 13.1476 5.98926 13.4243 5.99849C13.5988 6.01423 13.7729 5.96495 13.9132 5.86012L15.6567 4.55022C16.1544 4.70378 16.6363 4.90456 17.0957 5.14982L17.4002 7.29916C17.4261 7.4749 17.5145 7.63539 17.6492 7.75117C17.8627 7.93697 18.063 8.13732 18.2488 8.35077C18.3646 8.48549 18.5251 8.57393 18.7008 8.59984L20.8502 8.90425C21.0954 9.36373 21.2962 9.84561 21.4498 10.3433L20.1399 12.0868C20.0449 12.2219 19.9934 12.3828 19.9923 12.548C20.0015 12.714 20.0107 13.1937 20.0015 13.4243C19.9858 13.5988 20.0351 13.7729 20.1399 13.9132L21.4498 15.6567C21.2962 16.1544 21.0954 16.6363 20.8502 17.0957Z" stroke="currentColor" strokeWidth="0.6" mask="url(#path-1-outside-1_50_2834)"/>
</svg>