<svg width="30" height="30" viewBox="0 0 30 30" fill="none" xmlns="http://www.w3.org/2000/svg">
<path d="M14.193 0.972934C14.4088 0.972934 14.5168 1.08084 14.7326 1.18875C13.4377 1.72829 12.1428 3.13108 11.4953 6.15248L9.12139 6.79993C9.87674 4.64178 11.3874 0.972934 14.193 0.972934ZM15.38 2.05201C15.5958 2.69945 15.8116 3.4548 15.8116 4.64178C15.8116 4.74969 15.8116 4.74969 15.8116 4.8576L12.6823 5.72085C13.3298 3.4548 14.4088 2.48364 15.38 2.05201ZM18.1856 3.99434L16.7828 4.42597C16.7828 4.31806 16.7828 4.21015 16.7828 4.10224C16.7828 3.13108 16.6749 2.37573 16.4591 1.72829C17.2144 1.9441 17.8619 2.91526 18.1856 3.99434ZM25.1996 5.72085C25.1996 5.61295 25.0917 5.50504 24.9838 5.50504C24.7679 5.50504 22.5019 5.28922 22.5019 5.28922C22.5019 5.28922 20.8833 3.67062 20.6675 3.56271C20.4517 3.34689 20.1279 3.4548 20.02 3.4548C20.02 3.4548 19.6963 3.56271 19.1568 3.77852C18.6172 2.26782 17.6461 0.865027 16.0275 0.865027H15.9195C15.4879 0.217583 14.8405 0.0017689 14.3009 0.0017689C10.4163 -0.106138 8.58185 4.74969 7.93441 7.23156C7.07115 7.44737 6.20789 7.77109 5.23673 8.09481C4.37347 8.31063 4.37347 8.41854 4.26556 9.17389C4.15766 9.71342 1.99951 26.7628 1.99951 26.7628L19.1568 30L28.4368 27.9497C28.4368 27.9497 25.1996 5.93667 25.1996 5.72085Z" fill="#8DB849"/>
<path d="M24.8758 5.50503C24.7679 5.50503 22.5019 5.28922 22.5019 5.28922C22.5019 5.28922 20.8833 3.67062 20.6675 3.56271C20.5596 3.4548 20.5595 3.45479 20.4516 3.45479L19.1568 30L28.4368 27.9497C28.4368 27.9497 25.1996 5.93667 25.1996 5.72085C25.1996 5.61295 24.9837 5.50503 24.8758 5.50503Z" fill="#5A863E"/>
<path d="M16.0276 10.6846L14.8406 14.1376C14.8406 14.1376 13.8695 13.5981 12.5746 13.5981C10.7401 13.5981 10.6322 14.6772 10.6322 15.0009C10.6322 16.5116 14.7327 17.159 14.7327 20.8279C14.7327 23.7414 12.8983 25.5758 10.4164 25.5758C7.50292 25.5758 5.99222 23.7414 5.99222 23.7414L6.74757 21.1516C6.74757 21.1516 8.25828 22.4465 9.55316 22.4465C10.4164 22.4465 10.7401 21.7991 10.7401 21.2595C10.7401 19.2093 7.39502 19.1014 7.39502 15.7563C7.39502 12.9507 9.44526 10.253 13.4378 10.253C15.2722 10.1451 16.0276 10.6846 16.0276 10.6846Z" fill="#FFFFFE"/>
</svg>
