<svg width="114" height="32" viewBox="0 0 114 32" fill="none" xmlns="http://www.w3.org/2000/svg">
<path d="M13.6621 1.01231C13.8866 1.01231 13.9989 1.12458 14.2235 1.23686C12.8762 1.79823 11.5289 3.25779 10.8552 6.40147L8.3852 7.07512C9.17112 4.82963 10.743 1.01231 13.6621 1.01231ZM14.8971 2.13505C15.1217 2.8087 15.3462 3.59462 15.3462 4.82963C15.3462 4.94191 15.3462 4.94191 15.3462 5.05418L12.0902 5.95238C12.7639 3.59462 13.8866 2.58415 14.8971 2.13505ZM17.8162 4.15599L16.3567 4.60509C16.3567 4.49281 16.3567 4.38054 16.3567 4.26826C16.3567 3.25779 16.2444 2.47187 16.0198 1.79823C16.8058 2.02278 17.4794 3.03325 17.8162 4.15599ZM25.1141 5.95238C25.1141 5.8401 25.0018 5.72783 24.8895 5.72783C24.665 5.72783 22.3072 5.50328 22.3072 5.50328C22.3072 5.50328 20.6231 3.81917 20.3985 3.70689C20.174 3.48234 19.8372 3.59462 19.7249 3.59462C19.7249 3.59462 19.3881 3.70689 18.8267 3.93144C18.2653 2.3596 17.2549 0.900035 15.5708 0.900035H15.4585C15.0094 0.226389 14.3357 0.00184048 13.7744 0.00184048C9.73249 -0.110434 7.82383 4.94191 7.15018 7.52422C6.25199 7.74876 5.35379 8.08559 4.34333 8.42241C3.44513 8.64696 3.44513 8.75923 3.33286 9.54515C3.22058 10.1065 0.975098 27.8459 0.975098 27.8459L18.8267 31.2141L28.4823 29.0809C28.4823 29.0809 25.1141 6.17693 25.1141 5.95238Z" fill="#8DB849"/>
<path d="M24.7772 5.72785C24.6649 5.72785 22.3072 5.5033 22.3072 5.5033C22.3072 5.5033 20.623 3.81918 20.3985 3.70691C20.2862 3.59464 20.2862 3.59464 20.174 3.59464L18.8267 31.2141L28.4822 29.0809C28.4822 29.0809 25.114 6.17694 25.114 5.95239C25.114 5.84012 24.8895 5.72785 24.7772 5.72785Z" fill="#5A863E"/>
<path d="M15.5709 11.117L14.3359 14.7098C14.3359 14.7098 13.3254 14.1485 11.9781 14.1485C10.0695 14.1485 9.95719 15.2712 9.95719 15.608C9.95719 17.1799 14.2236 17.8535 14.2236 21.6708C14.2236 24.7022 12.3149 26.6109 9.73264 26.6109C6.70123 26.6109 5.12939 24.7022 5.12939 24.7022L5.91531 22.0077C5.91531 22.0077 7.48715 23.3549 8.83444 23.3549C9.73264 23.3549 10.0695 22.6813 10.0695 22.1199C10.0695 19.9867 6.58896 19.8744 6.58896 16.3939C6.58896 13.4748 8.72217 10.668 12.8763 10.668C14.785 10.5557 15.5709 11.117 15.5709 11.117Z" fill="#FFFFFE"/>
<path d="M39.8219 17.7411C38.8114 17.1797 38.3623 16.7306 38.3623 16.1692C38.3623 15.3833 39.036 14.9342 40.1587 14.9342C41.3937 14.9342 42.5165 15.4956 42.5165 15.4956L43.4146 12.801C43.4146 12.801 42.6287 12.1274 40.271 12.1274C36.9027 12.1274 34.6573 14.036 34.6573 16.7306C34.6573 18.3024 35.78 19.4252 37.1273 20.2111C38.25 20.8847 38.6991 21.3338 38.6991 22.0075C38.6991 22.6811 38.1378 23.3548 37.015 23.3548C35.4432 23.3548 33.8713 22.5689 33.8713 22.5689L32.9731 25.2634C32.9731 25.2634 34.3204 26.1616 36.6782 26.1616C40.0464 26.1616 42.5165 24.4775 42.5165 21.4461C42.5165 19.762 41.2814 18.527 39.8219 17.7411ZM53.4071 12.0151C51.7229 12.0151 50.3757 12.801 49.3652 14.036L50.8248 6.40137H47.0074L43.3024 25.8248H47.1197L48.3547 19.2006C48.8038 16.7306 50.1511 15.1588 51.3861 15.1588C52.2843 15.1588 52.6211 15.7201 52.6211 16.6183C52.6211 17.1797 52.6211 17.7411 52.5089 18.3024L51.0493 25.9371H54.8666L56.3262 18.0779C56.4385 17.292 56.5507 16.2815 56.5507 15.6079C56.5507 13.3624 55.428 12.0151 53.4071 12.0151ZM63.1749 23.1302C61.8276 23.1302 61.3785 22.0075 61.3785 20.6602C61.3785 18.527 62.5013 14.9342 64.5222 14.9342C65.8695 14.9342 66.3186 16.057 66.3186 17.1797C66.3186 19.6497 65.1959 23.1302 63.1749 23.1302ZM65.0836 12.0151C60.4803 12.0151 57.4489 16.1692 57.4489 20.7725C57.4489 23.6916 59.2453 26.0494 62.7258 26.0494C67.2168 26.0494 70.2482 22.0075 70.2482 17.292C70.2482 14.5974 68.6764 12.0151 65.0836 12.0151ZM76.311 23.2425C75.3005 23.2425 74.7392 22.6811 74.7392 22.6811L75.4128 19.0884C75.8619 16.7306 77.0969 15.1588 78.4442 15.1588C79.567 15.1588 80.0161 16.2815 80.0161 17.292C79.9038 19.762 78.4442 23.2425 76.311 23.2425ZM80.0161 12.0151C77.4338 12.0151 75.9742 14.2606 75.9742 14.2606L76.1987 12.2396H72.8305C72.7182 13.5869 72.3814 15.7201 72.0446 17.292L69.35 31.214H73.1673L74.1778 25.6003H74.2901C74.2901 25.6003 75.076 26.0494 76.5356 26.0494C81.0265 26.0494 83.9457 21.4461 83.9457 16.8429C83.9457 14.3728 82.8229 12.0151 80.0161 12.0151ZM89.3348 6.62592C88.0998 6.62592 87.2016 7.63638 87.2016 8.8714C87.2016 9.99414 87.8753 10.7801 88.998 10.7801C90.233 10.7801 91.2435 9.99414 91.2435 8.53458C91.2435 7.41184 90.4576 6.62592 89.3348 6.62592ZM84.0579 25.8248H87.8753L90.4576 12.3519H86.6402L84.0579 25.8248ZM100.113 12.3519H97.4186L97.5308 11.6783C97.7554 10.331 98.5413 9.20822 99.7763 9.20822C100.45 9.20822 101.011 9.43277 101.011 9.43277L101.797 6.40137C101.797 6.40137 101.124 6.06454 99.7763 6.06454C98.429 6.06454 97.0817 6.40137 96.0713 7.29956C94.724 8.4223 94.1626 9.99414 93.8258 11.566L93.7135 12.2396H91.9171L91.3558 15.1588H93.1521L91.1312 25.8248H94.9485L96.9695 15.1588H99.5518L100.113 12.3519ZM109.207 12.3519C109.207 12.3519 106.85 18.3024 105.727 21.5584C105.615 20.5479 104.829 12.3519 104.829 12.3519H100.787L103.032 24.7021C103.032 24.9266 103.032 25.1512 102.92 25.3757C102.471 26.2739 101.685 27.0598 100.899 27.6212C100.225 28.1826 99.3272 28.5194 98.7659 28.7439L99.7763 31.9999C100.562 31.8876 102.134 31.214 103.481 29.979C105.165 28.4071 106.85 25.8248 108.421 22.4566L113.025 12.4642L109.207 12.3519Z" fill="#1A1919"/>
</svg>
