<svg width="112" height="28" viewBox="0 0 112 28" fill="none" xmlns="http://www.w3.org/2000/svg">
<path fill-rule="evenodd" clip-rule="evenodd" d="M36.0732 22.0464L37.4542 18.8375C38.9458 19.9529 40.9331 20.5327 42.8939 20.5327C44.3412 20.5327 45.2575 19.975 45.2575 19.1296C45.2353 16.7661 36.5867 18.6162 36.5203 12.6896C36.4982 9.67983 39.1715 7.36054 42.9603 7.36054C45.2132 7.36054 47.4617 7.91823 49.0683 9.18853L47.7759 12.4639C46.3064 11.5255 44.4785 10.8572 42.739 10.8572C41.5572 10.8572 40.7782 11.4149 40.7782 12.1275C40.8003 14.4468 49.5154 13.1765 49.6039 18.8375C49.6039 21.9136 46.9969 24.078 43.2524 24.078C40.5082 24.0736 37.9898 23.4274 36.0732 22.0464ZM89.1026 17.6778C88.4122 18.8817 87.1197 19.705 85.6237 19.705C83.4151 19.705 81.6358 17.9213 81.6358 15.7171C81.6358 13.5129 83.4195 11.7291 85.6237 11.7291C87.1153 11.7291 88.4122 12.5524 89.1026 13.7563L92.9135 11.6406C91.4883 9.10001 88.7441 7.36054 85.6237 7.36054C81.0073 7.36054 77.2628 11.105 77.2628 15.7215C77.2628 20.3379 81.0073 24.0824 85.6237 24.0824C88.7663 24.0824 91.4883 22.3651 92.9135 19.8024L89.1026 17.6778ZM51.5204 0.424805H56.2918V23.7638H51.5204V0.424805ZM94.7858 0.424805V23.7638H99.5572V16.7616L105.218 23.7638H111.326L104.125 15.4471L110.791 7.68808H104.948L99.5527 14.1281V0.424805H94.7858Z" fill="white"/>
<path d="M70.4687 17.7224C69.7782 18.8599 68.353 19.7053 66.7463 19.7053C64.5377 19.7053 62.7584 17.9215 62.7584 15.7173C62.7584 13.5131 64.5421 11.7294 66.7463 11.7294C68.353 11.7294 69.7782 12.619 70.4687 13.7787V17.7224ZM70.4687 7.69277V9.58715C69.6897 8.27259 67.7511 7.35638 65.7195 7.35638C61.5279 7.35638 58.2305 11.0566 58.2305 15.6952C58.2305 20.3338 61.5279 24.0783 65.7195 24.0783C67.7466 24.0783 69.6853 23.1665 70.4687 21.8475V23.7419H75.2401V7.69277H70.4687Z" fill="white"/>
<path fill-rule="evenodd" clip-rule="evenodd" d="M6.58255 17.7005C6.58255 19.3293 5.26799 20.6438 3.63917 20.6438C2.01036 20.6438 0.695801 19.3248 0.695801 17.7005C0.695801 16.0761 2.01036 14.7571 3.63917 14.7571H6.58255V17.7005ZM8.05202 17.7005C8.05202 16.0716 9.36658 14.7571 10.9954 14.7571C12.6242 14.7571 13.9388 16.0716 13.9388 17.7005V25.0567C13.9388 26.6855 12.6242 28 10.9954 28C9.36658 28 8.05202 26.6855 8.05202 25.0567V17.7005Z" fill="#E01E5A"/>
<path fill-rule="evenodd" clip-rule="evenodd" d="M10.9956 5.88675C9.36674 5.88675 8.05218 4.57219 8.05218 2.94337C8.05218 1.31456 9.36674 0 10.9956 0C12.6244 0 13.9389 1.31456 13.9389 2.94337V5.88675H10.9956ZM10.9956 7.37835C12.6244 7.37835 13.9389 8.69291 13.9389 10.3217C13.9389 11.9505 12.6244 13.2651 10.9956 13.2651H3.6172C1.98839 13.2651 0.673828 11.9461 0.673828 10.3217C0.673828 8.69734 1.98839 7.37835 3.6172 7.37835H10.9956Z" fill="#36C5F0"/>
<path fill-rule="evenodd" clip-rule="evenodd" d="M22.7874 10.3217C22.7874 8.69291 24.1019 7.37835 25.7307 7.37835C27.3596 7.37835 28.6741 8.69291 28.6741 10.3217C28.6741 11.9505 27.3596 13.2651 25.7307 13.2651H22.7874V10.3217ZM21.3179 10.3217C21.3179 11.9505 20.0033 13.2651 18.3745 13.2651C16.7457 13.2651 15.4312 11.9505 15.4312 10.3217V2.94337C15.4312 1.31456 16.7457 0 18.3745 0C20.0033 0 21.3179 1.31456 21.3179 2.94337V10.3217Z" fill="#2EB67D"/>
<path fill-rule="evenodd" clip-rule="evenodd" d="M18.3745 22.1133C20.0033 22.1133 21.3179 23.4279 21.3179 25.0567C21.3179 26.6855 20.0033 28 18.3745 28C16.7457 28 15.4312 26.6855 15.4312 25.0567V22.1133H18.3745ZM18.3745 20.6438C16.7457 20.6438 15.4312 19.3293 15.4312 17.7005C15.4312 16.0716 16.7457 14.7571 18.3745 14.7571H25.7529C27.3817 14.7571 28.6962 16.0716 28.6962 17.7005C28.6962 19.3293 27.3817 20.6438 25.7529 20.6438H18.3745Z" fill="#ECB22E"/>
</svg>
