<svg width="116" height="32" viewBox="0 0 116 32" fill="none" xmlns="http://www.w3.org/2000/svg">
<path d="M15.9999 0C7.16359 0 0 7.16339 0 15.9997C0 24.837 7.16359 32 15.9999 32C24.8366 32 31.9998 24.837 31.9998 15.9997C31.9998 7.16396 24.8372 0 15.9999 0ZM23.3374 23.0762C23.05 23.5475 22.4359 23.6952 21.9661 23.408C18.2089 21.1117 13.4798 20.593 7.91043 21.8652C7.37375 21.9883 6.83878 21.6518 6.71651 21.1153C6.59365 20.5786 6.92858 20.0437 7.4666 19.9214C13.5614 18.528 18.7894 19.1277 23.0066 21.7048C23.4766 21.9933 23.6259 22.6062 23.3374 23.0762ZM25.2957 18.7202C24.9339 19.3073 24.1662 19.4915 23.5798 19.131C19.28 16.4879 12.7234 15.7223 7.63646 17.2665C6.97672 17.4657 6.27993 17.0939 6.0797 16.4353C5.881 15.7756 6.253 15.0801 6.91158 14.8795C12.7223 13.1164 19.9459 13.9705 24.8847 17.0055C25.4713 17.3666 25.6568 18.1344 25.2957 18.7202ZM25.4639 14.1837C20.3064 11.1208 11.7993 10.8392 6.87583 12.3335C6.08524 12.5732 5.24916 12.1269 5.00957 11.3363C4.76998 10.5453 5.21592 9.70983 6.00709 9.46948C11.6588 7.75377 21.0542 8.08525 26.9912 11.6097C27.7023 12.0318 27.9356 12.9502 27.5141 13.6604C27.0938 14.3715 26.1727 14.6059 25.4639 14.1837Z" fill="white"/>
<path d="M41.826 24V9.612H46.358C47.4287 9.612 48.382 9.75133 49.218 10.03C50.054 10.3087 50.714 10.7707 51.198 11.416C51.682 12.0613 51.924 12.9413 51.924 14.056C51.924 15.112 51.682 15.9847 51.198 16.674C50.714 17.3633 50.0613 17.8767 49.24 18.214C48.4187 18.5513 47.4873 18.72 46.446 18.72H44.378V24H41.826ZM44.378 16.674H46.248C48.36 16.674 49.416 15.8013 49.416 14.056C49.416 13.1467 49.1373 12.5233 48.58 12.186C48.0373 11.834 47.2307 11.658 46.16 11.658H44.378V16.674ZM58.3385 24.264C57.4439 24.264 56.6079 24.044 55.8305 23.604C55.0532 23.1493 54.4225 22.504 53.9385 21.668C53.4545 20.8173 53.2125 19.798 53.2125 18.61C53.2125 17.4073 53.4545 16.388 53.9385 15.552C54.4225 14.7013 55.0532 14.056 55.8305 13.616C56.6079 13.1613 57.4439 12.934 58.3385 12.934C59.2479 12.934 60.0912 13.1613 60.8685 13.616C61.6459 14.056 62.2765 14.7013 62.7605 15.552C63.2445 16.388 63.4865 17.4073 63.4865 18.61C63.4865 19.798 63.2445 20.8173 62.7605 21.668C62.2765 22.504 61.6459 23.1493 60.8685 23.604C60.0912 24.044 59.2479 24.264 58.3385 24.264ZM58.3385 22.196C59.1305 22.196 59.7539 21.866 60.2085 21.206C60.6632 20.546 60.8905 19.6807 60.8905 18.61C60.8905 17.5247 60.6632 16.652 60.2085 15.992C59.7539 15.332 59.1305 15.002 58.3385 15.002C57.5465 15.002 56.9232 15.332 56.4685 15.992C56.0285 16.652 55.8085 17.5247 55.8085 18.61C55.8085 19.6807 56.0285 20.546 56.4685 21.206C56.9232 21.866 57.5465 22.196 58.3385 22.196ZM69.7748 24.264C68.4254 24.264 67.3474 23.7653 66.5408 22.768C65.7341 21.7707 65.3308 20.3847 65.3308 18.61C65.3308 17.4367 65.5434 16.4247 65.9688 15.574C66.4088 14.7233 66.9808 14.0707 67.6848 13.616C68.3888 13.1613 69.1294 12.934 69.9068 12.934C70.5228 12.934 71.0434 13.044 71.4688 13.264C71.9088 13.4693 72.3341 13.7553 72.7448 14.122L72.6568 12.384V8.468H75.1868V24H73.0968L72.9208 22.834H72.8328C72.4368 23.23 71.9748 23.5673 71.4468 23.846C70.9188 24.1247 70.3614 24.264 69.7748 24.264ZM70.3908 22.174C71.1974 22.174 71.9528 21.7707 72.6568 20.964V15.926C72.2901 15.5887 71.9234 15.354 71.5568 15.222C71.1901 15.09 70.8234 15.024 70.4568 15.024C69.7674 15.024 69.1734 15.3393 68.6748 15.97C68.1908 16.586 67.9488 17.4587 67.9488 18.588C67.9488 19.7467 68.1614 20.634 68.5868 21.25C69.0121 21.866 69.6134 22.174 70.3908 22.174ZM82.9187 24.264C81.9361 24.264 81.0487 24.044 80.2567 23.604C79.4794 23.1493 78.8561 22.504 78.3867 21.668C77.9321 20.8173 77.7047 19.798 77.7047 18.61C77.7047 17.4073 77.9541 16.388 78.4527 15.552C78.9514 14.7013 79.6114 14.056 80.4327 13.616C81.2687 13.1613 82.1634 12.934 83.1167 12.934C83.8061 12.934 84.4074 13.0513 84.9207 13.286C85.4341 13.5207 85.8887 13.8067 86.2847 14.144L85.0527 15.794C84.7741 15.5447 84.4881 15.354 84.1947 15.222C83.9014 15.0753 83.5861 15.002 83.2487 15.002C82.3834 15.002 81.6721 15.332 81.1147 15.992C80.5721 16.652 80.3007 17.5247 80.3007 18.61C80.3007 19.6807 80.5647 20.546 81.0927 21.206C81.6354 21.866 82.3321 22.196 83.1827 22.196C83.6081 22.196 84.0041 22.108 84.3707 21.932C84.7521 21.7413 85.0967 21.5213 85.4047 21.272L86.4387 22.944C85.9401 23.384 85.3827 23.714 84.7667 23.934C84.1507 24.154 83.5347 24.264 82.9187 24.264ZM90.974 24.264C90.0353 24.264 89.2653 23.9707 88.664 23.384C88.0773 22.7973 87.784 22.0347 87.784 21.096C87.784 19.9373 88.29 19.0427 89.302 18.412C90.314 17.7667 91.9273 17.3267 94.142 17.092C94.1273 16.52 93.9733 16.0287 93.68 15.618C93.4013 15.1927 92.8953 14.98 92.162 14.98C91.634 14.98 91.1133 15.0827 90.6 15.288C90.1013 15.4933 89.61 15.7427 89.126 16.036L88.202 14.342C88.8033 13.9607 89.478 13.6307 90.226 13.352C90.9887 13.0733 91.7953 12.934 92.646 12.934C93.9953 12.934 95 13.3373 95.66 14.144C96.3347 14.936 96.672 16.0873 96.672 17.598V24H94.582L94.406 22.812H94.318C93.834 23.2227 93.3133 23.5673 92.756 23.846C92.2133 24.1247 91.6193 24.264 90.974 24.264ZM91.788 22.284C92.228 22.284 92.624 22.1813 92.976 21.976C93.3427 21.756 93.7313 21.4627 94.142 21.096V18.676C92.6753 18.8667 91.656 19.1527 91.084 19.534C90.512 19.9007 90.226 20.3553 90.226 20.898C90.226 21.382 90.3727 21.734 90.666 21.954C90.9593 22.174 91.3333 22.284 91.788 22.284ZM102.714 24.264C101.98 24.264 101.247 24.1247 100.514 23.846C99.7804 23.5527 99.1498 23.1933 98.6218 22.768L99.8098 21.14C100.294 21.5067 100.778 21.8 101.262 22.02C101.746 22.24 102.259 22.35 102.802 22.35C103.388 22.35 103.821 22.2253 104.1 21.976C104.378 21.7267 104.518 21.4187 104.518 21.052C104.518 20.744 104.4 20.4947 104.166 20.304C103.946 20.0987 103.66 19.9227 103.308 19.776C102.956 19.6147 102.589 19.4607 102.208 19.314C101.738 19.138 101.269 18.9253 100.8 18.676C100.345 18.412 99.9711 18.082 99.6778 17.686C99.3844 17.2753 99.2378 16.7693 99.2378 16.168C99.2378 15.2147 99.5898 14.4373 100.294 13.836C100.998 13.2347 101.951 12.934 103.154 12.934C103.916 12.934 104.598 13.066 105.2 13.33C105.801 13.594 106.322 13.8947 106.762 14.232L105.596 15.772C105.214 15.4933 104.826 15.2733 104.43 15.112C104.048 14.936 103.645 14.848 103.22 14.848C102.677 14.848 102.274 14.9653 102.01 15.2C101.746 15.42 101.614 15.6987 101.614 16.036C101.614 16.4613 101.834 16.784 102.274 17.004C102.714 17.224 103.227 17.4367 103.814 17.642C104.312 17.818 104.796 18.038 105.266 18.302C105.735 18.5513 106.124 18.8813 106.432 19.292C106.754 19.7027 106.916 20.2453 106.916 20.92C106.916 21.844 106.556 22.636 105.838 23.296C105.119 23.9413 104.078 24.264 102.714 24.264ZM112.551 24.264C111.304 24.264 110.417 23.9047 109.889 23.186C109.375 22.4527 109.119 21.5067 109.119 20.348V15.2H107.579V13.308L109.251 13.198L109.559 10.25H111.671V13.198H114.421V15.2H111.671V20.348C111.671 21.6093 112.177 22.24 113.189 22.24C113.379 22.24 113.577 22.218 113.783 22.174C113.988 22.1153 114.164 22.0567 114.311 21.998L114.751 23.868C114.457 23.9707 114.12 24.0587 113.739 24.132C113.372 24.22 112.976 24.264 112.551 24.264Z" fill="white"/>
</svg>
