<svg width="110" height="32" viewBox="0 0 110 32" fill="none" xmlns="http://www.w3.org/2000/svg">
<path d="M10.9115 22.7725L11.0165 23.0688C10.9998 23.0349 10.9614 22.9312 10.9115 22.7725ZM6.03726 20.665C6.22158 19.0733 6.8475 18.1818 8.02702 17.2679C9.7147 16.0301 11.8229 16.7303 11.8229 16.7303V12.576C12.3354 12.5629 12.8481 12.5948 13.355 12.6714V18.016C13.355 18.016 11.2475 17.3159 9.55982 18.5536C8.38094 19.4676 7.75374 20.3597 7.57006 21.9514C7.5643 22.8167 7.71982 23.9469 8.43598 24.9242C8.25891 24.8295 8.07843 24.7215 7.89454 24.6004C6.31694 23.4951 6.02958 21.8375 6.03726 20.665ZM22.0597 4.89602C20.8987 3.56866 20.4597 2.2285 20.301 1.28706H21.7614C21.7614 1.28706 21.4702 3.75554 23.5925 6.18306L23.6219 6.2157C23.0499 5.84031 22.5254 5.39721 22.0597 4.89602Z" fill="#EE1D52"/>
<path d="M29.0945 8.66002V13.8972C29.0945 13.8972 27.2309 13.8216 25.8517 13.4549C23.9259 12.9429 22.6881 12.1583 22.6881 12.1583C22.6881 12.1583 21.8331 11.5976 21.764 11.5592V22.3784C21.764 22.98 21.6059 24.484 21.124 25.7391C20.4949 27.38 19.524 28.4572 19.3454 28.6767C19.3454 28.6767 18.1646 30.1333 16.0814 31.1138C14.2037 31.9983 12.555 31.9759 12.0622 31.9983C12.0622 31.9983 9.21229 32.1161 6.6478 30.3765C6.09302 29.9938 5.57534 29.5599 5.10156 29.0805L5.11436 29.0895C7.67949 30.829 10.5288 30.7113 10.5288 30.7113C11.0222 30.6889 12.6709 30.7113 14.548 29.8268C16.6299 28.8463 17.812 27.3897 17.812 27.3897C17.9886 27.1701 18.964 26.093 19.5905 24.4514C20.0712 23.197 20.2305 21.693 20.2305 21.0908V10.2722C20.2997 10.3112 21.1547 10.8719 21.1547 10.8719C21.1547 10.8719 22.3925 11.6578 24.3182 12.1685C25.6981 12.5346 27.5611 12.6107 27.5611 12.6107V8.50706C28.1985 8.65619 28.7419 8.69714 29.0945 8.66002Z" fill="#EE1D52"/>
<path d="M27.5623 8.50707V12.6101C27.5623 12.6101 25.6993 12.534 24.3194 12.1679C22.3937 11.6559 21.1559 10.8712 21.1559 10.8712C21.1559 10.8712 20.3009 10.3106 20.2318 10.2716V21.0882C20.2318 21.6904 20.0737 23.1945 19.5918 24.4489C18.9626 26.0905 17.9918 27.1676 17.8132 27.3871C17.8132 27.3871 16.6324 28.8437 14.5492 29.8242C12.6721 30.7087 11.0234 30.6863 10.53 30.7087C10.53 30.7087 7.6807 30.8265 5.11558 29.0869L5.10278 29.078C4.83211 28.8042 4.57719 28.5153 4.33926 28.2127C3.52069 27.1708 3.01893 25.9401 2.89285 25.5887C2.89248 25.5872 2.89248 25.5857 2.89285 25.5842C2.68933 24.973 2.26309 23.5074 2.32133 22.0872C2.42437 19.581 3.26917 18.0437 3.49254 17.6578C4.08435 16.6073 4.85396 15.6675 5.7671 14.8802C6.57242 14.2001 7.48568 13.6594 8.46918 13.2802C9.08244 13.0254 9.72146 12.8376 10.3751 12.7202C10.8532 12.6347 11.3372 12.5866 11.8228 12.5762V16.7279C11.8228 16.7279 9.71462 16.0277 8.02694 17.2655C6.84742 18.1794 6.2215 19.0709 6.03718 20.6626C6.0295 21.8351 6.31686 23.4927 7.89318 24.5992C8.07665 24.7208 8.25713 24.8288 8.43462 24.9231C8.71021 25.2953 9.04514 25.6196 9.42598 25.8831C10.9658 26.9001 12.2561 26.9711 13.906 26.3106C15.0074 25.8748 15.8324 24.8796 16.2234 23.7762C16.4647 23.0876 16.4615 22.3938 16.4615 21.6776V1.28786H20.3015C20.4602 2.22931 20.8993 3.56947 22.0602 4.89683C22.526 5.39802 23.0505 5.84112 23.6225 6.21651C23.7914 6.39891 24.6554 7.30003 25.7646 7.85427C26.3367 8.14026 26.94 8.3593 27.5623 8.50707Z" fill="white"/>
<path d="M1.36475 24.3131V24.3169L1.45947 24.5863C1.44923 24.555 1.41339 24.4596 1.36475 24.3131Z" fill="#69C9D0"/>
<path d="M8.46903 13.2804C7.48553 13.6595 6.57227 14.2003 5.76694 14.8804C4.85374 15.6695 4.08454 16.6113 3.49366 17.6637C3.2703 18.0477 2.4255 19.5869 2.32246 22.0932C2.26422 23.5133 2.69046 24.9789 2.89398 25.5901C2.8936 25.5916 2.8936 25.5931 2.89398 25.5946C3.02198 25.9428 3.52182 27.1735 4.34038 28.2186C4.57832 28.5213 4.83323 28.8101 5.1039 29.0839C4.23618 28.4838 3.46232 27.7582 2.80758 26.9309C1.99606 25.8986 1.49558 24.6801 1.36502 24.3204L1.36182 24.3127V24.3076C1.1583 23.6983 0.730777 22.2314 0.790297 20.8093C0.893338 18.3031 1.73814 16.7658 1.9615 16.3799C2.55221 15.3274 3.32143 14.3855 4.23478 13.5965C5.03994 12.9162 5.95324 12.3754 6.93686 11.9965C7.55012 11.7417 8.18915 11.5539 8.84279 11.4365C9.82769 11.2643 10.8337 11.2493 11.8233 11.3924V12.5764C11.3378 12.5853 10.8538 12.6319 10.3756 12.7159C9.72156 12.8347 9.08231 13.0239 8.46903 13.2804Z" fill="#69C9D0"/>
<path d="M20.3007 1.28813H16.4607V21.6792C16.4607 22.3954 16.4639 23.0872 16.2227 23.7778C15.8348 24.8798 15.0099 25.875 13.9103 26.3166C12.2598 26.9797 10.9695 26.9061 9.43033 25.8891C9.04948 25.6256 8.71456 25.3013 8.43896 24.9291C9.75033 25.6286 10.9241 25.6165 12.3782 25.0328C13.4713 24.588 14.3033 23.5928 14.6873 22.4901C14.9292 21.8014 14.926 21.1077 14.926 20.3922V-0.000190735H20.2284C20.2284 -0.000190735 20.1683 0.507329 20.3007 1.28813ZM27.5622 7.37326V8.50734C26.9396 8.35962 26.3362 8.14057 25.7638 7.85454C24.6547 7.3003 23.7907 6.39918 23.6217 6.21678C23.8176 6.34553 24.0211 6.46243 24.231 6.56686C25.5795 7.24014 26.9043 7.44174 27.5622 7.37326Z" fill="#69C9D0"/>
<path d="M84.302 18.0067C84.3019 18.2983 84.345 18.5884 84.43 18.8675C84.4348 18.8872 84.4408 18.9067 84.4479 18.9257C84.6527 19.5857 85.0634 20.1629 85.6199 20.5728C86.1763 20.9826 86.8493 21.2036 87.5404 21.2035V24.4803C85.9462 24.4803 84.8038 24.5359 83.0662 23.5081C81.0822 22.3356 79.9673 20.1916 79.9673 17.9651C79.9673 15.67 81.214 13.3692 83.3279 12.2614C84.8601 11.4575 86.0262 11.4518 87.5404 11.4518V14.7267C86.6816 14.7268 85.858 15.0681 85.2507 15.6754C84.6434 16.2826 84.3022 17.1062 84.302 17.9651V18.0067Z" fill="#69C9D0"/>
<path d="M90.8034 18.0067C90.8038 18.2984 90.7607 18.5885 90.6754 18.8675C90.6708 18.8873 90.6649 18.9068 90.6574 18.9257C90.4528 19.5859 90.0422 20.1631 89.4857 20.573C88.9292 20.9829 88.2561 21.2038 87.5649 21.2035V24.4803C89.1598 24.4803 90.3016 24.5359 92.0392 23.5081C94.0232 22.3356 95.1387 20.1916 95.1387 17.9651C95.1387 15.67 93.8914 13.3692 91.7781 12.2614C90.2459 11.4575 89.0792 11.4518 87.5649 11.4518V14.7267C88.4239 14.7267 89.2476 15.0678 89.8551 15.6751C90.4625 16.2824 90.8038 17.1061 90.804 17.9651L90.8034 18.0067Z" fill="#EE1D52"/>
<path d="M37.4116 8.47964H49.4059L48.2974 11.7801H45.1614V24.4099H41.2977V11.7801H37.4116V8.47964ZM69.2005 8.47964V11.7801H73.0865V24.4099H76.9477V11.7801H80.0837L81.1947 8.47964H69.2005ZM52.0152 12.2409C52.3846 12.2409 52.7458 12.1314 53.0531 11.9261C53.3603 11.7208 53.5997 11.429 53.7411 11.0877C53.8825 10.7463 53.9195 10.3707 53.8474 10.0083C53.7753 9.64592 53.5974 9.31304 53.3361 9.05178C53.0749 8.79051 52.742 8.61258 52.3796 8.5405C52.0172 8.46842 51.6416 8.50541 51.3002 8.64681C50.9589 8.78821 50.6671 9.02765 50.4618 9.33487C50.2566 9.64209 50.147 10.0033 50.147 10.3728C50.147 10.8682 50.3438 11.3434 50.6942 11.6938C51.0445 12.0441 51.5197 12.2409 52.0152 12.2409ZM50.1438 24.4099H53.9307V13.5613H50.1438V24.4099ZM67.5518 12.1475H63.1243L59.308 15.9677V8.4918H55.5467L55.5339 24.4099H59.3329V20.2621L60.5163 19.1913L64.2027 24.4099H68.2635L62.9233 16.7779L67.5518 12.1475ZM103.874 16.7779L108.505 12.1475H104.077L100.261 15.9677V8.4918H96.4991L96.4869 24.4099H100.286V20.2621L101.472 19.1913L105.159 24.4099H109.216L103.874 16.7779ZM94.14 17.9645C94.14 21.5619 91.1845 24.4784 87.5384 24.4784C83.8923 24.4784 80.9374 21.5619 80.9374 17.9645C80.9374 14.367 83.893 11.4505 87.5384 11.4505C91.1838 11.4505 94.1413 14.3677 94.1413 17.9645H94.14ZM90.7768 17.9645C90.7768 17.324 90.5869 16.6978 90.231 16.1653C89.8752 15.6327 89.3694 15.2177 88.7777 14.9726C88.1859 14.7275 87.5348 14.6633 86.9066 14.7883C86.2784 14.9132 85.7014 15.2217 85.2485 15.6746C84.7956 16.1275 84.4872 16.7045 84.3622 17.3327C84.2373 17.9609 84.3014 18.612 84.5465 19.2037C84.7916 19.7955 85.2067 20.3013 85.7392 20.6571C86.2718 21.0129 86.8979 21.2029 87.5384 21.2029C87.9638 21.2031 88.3851 21.1195 88.7782 20.9569C89.1713 20.7943 89.5284 20.5557 89.8293 20.255C90.1302 19.9542 90.3688 19.5972 90.5316 19.2041C90.6944 18.8111 90.7782 18.3899 90.7781 17.9645H90.7768Z" fill="white"/>
</svg>
