<svg width="30" height="30" viewBox="0 0 30 30" fill="none" xmlns="http://www.w3.org/2000/svg">
<path d="M11.494 21.3492L11.5924 21.627C11.5768 21.5952 11.5408 21.498 11.494 21.3492ZM6.92445 19.3734C7.09725 17.8812 7.68405 17.0454 8.78983 16.1886C10.372 15.0282 12.3484 15.6846 12.3484 15.6846V11.7901C12.8289 11.7778 13.3095 11.8077 13.7848 11.8795V16.89C13.7848 16.89 11.809 16.2336 10.2268 17.394C9.12163 18.2508 8.53364 19.0872 8.36144 20.5794C8.35604 21.3906 8.50184 22.4502 9.17323 23.3663C9.00723 23.2775 8.83803 23.1763 8.66564 23.0628C7.18665 22.0266 6.91726 20.4726 6.92445 19.3734ZM21.9453 4.59015C20.8569 3.34576 20.4453 2.08938 20.2965 1.20679H21.6657C21.6657 1.20679 21.3927 3.52096 23.3823 5.79674L23.4099 5.82734C22.8737 5.47541 22.3819 5.06001 21.9453 4.59015Z" fill="#EE1D52"/>
<path d="M28.5405 8.11886V13.0286C28.5405 13.0286 26.7933 12.9578 25.5004 12.614C23.695 12.134 22.5346 11.3984 22.5346 11.3984C22.5346 11.3984 21.733 10.8728 21.6682 10.8368V20.9797C21.6682 21.5437 21.52 22.9537 21.0682 24.1303C20.4784 25.6687 19.5682 26.6785 19.4008 26.8843C19.4008 26.8843 18.2938 28.2498 16.3409 29.169C14.5805 29.9982 13.0349 29.9772 12.5729 29.9982C12.5729 29.9982 9.90112 30.1086 7.49695 28.4778C6.97685 28.119 6.49153 27.7123 6.04736 27.2629L6.05936 27.2713C8.46414 28.902 11.1353 28.7916 11.1353 28.7916C11.5979 28.7706 13.1435 28.7916 14.9033 27.9625C16.855 27.0433 17.9632 25.6777 17.9632 25.6777C18.1288 25.4719 19.0432 24.4621 19.6306 22.9231C20.0812 21.7471 20.2306 20.3371 20.2306 19.7725V9.63025C20.2954 9.66685 21.097 10.1924 21.097 10.1924C21.097 10.1924 22.2574 10.9292 24.0628 11.408C25.3564 11.7512 27.1029 11.8226 27.1029 11.8226V7.97546C27.7005 8.11526 28.2099 8.15366 28.5405 8.11886Z" fill="#EE1D52"/>
<path d="M27.1038 7.97545V11.822C27.1038 11.822 25.3572 11.7506 24.0636 11.4074C22.2582 10.9274 21.0978 10.1918 21.0978 10.1918C21.0978 10.1918 20.2962 9.66623 20.2314 9.62963V19.7701C20.2314 20.3347 20.0832 21.7447 19.6315 22.9207C19.0417 24.4597 18.1315 25.4695 17.9641 25.6753C17.9641 25.6753 16.8571 27.0408 14.9041 27.96C13.1443 28.7892 11.5987 28.7682 11.1361 28.7892C11.1361 28.7892 8.46497 28.8996 6.0602 27.2688L6.0482 27.2604C5.79445 27.0038 5.55546 26.733 5.3324 26.4492C4.56501 25.4725 4.09462 24.3187 3.97642 23.9893C3.97606 23.9879 3.97606 23.9865 3.97642 23.9851C3.78562 23.4121 3.38602 22.0381 3.44062 20.7067C3.53722 18.3571 4.32921 16.9159 4.53861 16.5542C5.09344 15.5694 5.81493 14.6883 6.67099 13.9502C7.42597 13.3126 8.28214 12.8057 9.20416 12.4502C9.77908 12.2113 10.3782 12.0353 10.9909 11.9252C11.4392 11.8451 11.8929 11.7999 12.3481 11.7902V15.6824C12.3481 15.6824 10.3717 15.026 8.78957 16.1864C7.68378 17.0431 7.09698 17.8789 6.92419 19.3711C6.91699 20.4703 7.18638 22.0243 8.66417 23.0617C8.83617 23.1757 9.00536 23.2769 9.17176 23.3653C9.43013 23.7142 9.74412 24.0182 10.1012 24.2653C11.5447 25.2187 12.7543 25.2853 14.3011 24.6661C15.3337 24.2575 16.1071 23.3245 16.4737 22.2901C16.6999 21.6445 16.6969 20.9941 16.6969 20.3227V1.20752H20.2968C20.4456 2.09011 20.8572 3.3465 21.9456 4.59088C22.3822 5.06074 22.874 5.47614 23.4102 5.82807C23.5686 5.99907 24.3786 6.84386 25.4184 7.36345C25.9548 7.63156 26.5203 7.83692 27.1038 7.97545Z" fill="black"/>
<path d="M2.54395 22.7933V22.7969L2.63274 23.0495C2.62314 23.0201 2.58954 22.9307 2.54395 22.7933Z" fill="#69C9D0"/>
<path d="M9.204 12.4504C8.28198 12.8059 7.42581 13.3129 6.67083 13.9504C5.81471 14.6903 5.0936 15.5732 4.53965 16.5598C4.33025 16.9198 3.53826 18.3628 3.44166 20.7124C3.38706 22.0437 3.78666 23.4177 3.97746 23.9907C3.9771 23.9921 3.9771 23.9935 3.97746 23.9949C4.09745 24.3213 4.56605 25.4751 5.33344 26.4549C5.5565 26.7386 5.79548 27.0094 6.04923 27.2661C5.23576 26.7035 4.51027 26.0233 3.89646 25.2477C3.13567 24.2799 2.66647 23.1375 2.54407 22.8003L2.54107 22.7931V22.7883C2.35027 22.2171 1.94948 20.842 2.00528 19.5088C2.10188 17.1592 2.89387 15.718 3.10327 15.3562C3.65705 14.3695 4.37818 13.4865 5.23444 12.7468C5.98927 12.1091 6.84548 11.6021 7.76762 11.2469C8.34254 11.0079 8.94162 10.8319 9.5544 10.7219C10.4777 10.5604 11.4208 10.5464 12.3486 10.6805V11.7905C11.8935 11.7988 11.4397 11.8425 10.9914 11.9213C10.3782 12.0326 9.77895 12.2101 9.204 12.4504Z" fill="#69C9D0"/>
<path d="M20.2961 1.20779H16.6961V20.3242C16.6961 20.9956 16.6991 21.6442 16.4729 22.2916C16.1093 23.3248 15.3359 24.2577 14.3051 24.6717C12.7577 25.2933 11.5482 25.2243 10.1052 24.2709C9.74813 24.0239 9.43415 23.7199 9.17578 23.371C10.4052 24.0267 11.5056 24.0153 12.8687 23.4682C13.8935 23.0512 14.6735 22.1182 15.0335 21.0844C15.2603 20.4388 15.2573 19.7884 15.2573 19.1176V0H20.2283C20.2283 0 20.1719 0.475794 20.2961 1.20779ZM27.1036 6.91253V7.97572C26.5199 7.83723 25.9542 7.63187 25.4176 7.36372C24.3778 6.84413 23.5678 5.99934 23.4094 5.82834C23.5931 5.94904 23.7838 6.05863 23.9806 6.15653C25.2448 6.78773 26.4868 6.97673 27.1036 6.91253Z" fill="#69C9D0"/>
</svg>
