<svg width="108" height="32" viewBox="0 0 108 32" fill="none" xmlns="http://www.w3.org/2000/svg">
<path d="M75.7599 6.27199H70.1279C69.9999 6.27199 69.8719 6.40001 69.8719 6.52801V9.79199C69.8719 9.91999 69.9999 10.048 70.1279 10.048H75.7599C75.8879 10.048 76.0159 9.91999 76.0159 9.79199V6.52801C76.0799 6.40001 75.9519 6.27199 75.7599 6.27199ZM75.6959 11.136H64.8159C64.6879 11.136 64.4959 11.264 64.4319 11.392L63.0239 16.704L62.9599 16.96L61.2959 11.264C61.2319 11.136 61.1039 11.008 60.9119 11.008H56.6879C56.5599 11.008 56.3679 11.136 56.3039 11.264L54.7039 16.576L54.6399 16.832L54.5759 16.704L53.9359 14.08L53.2319 11.456C53.1679 11.328 53.0399 11.2 52.8479 11.2H44.3359V6.59199C44.3359 6.46399 44.1439 6.272 43.9519 6.336L38.5759 8C38.3839 8.064 38.3199 8.128 38.3199 8.256V11.136H36.9119C36.7839 11.136 36.6559 11.264 36.6559 11.392V15.488C36.6559 15.616 36.7839 15.744 36.9119 15.744H38.3199V20.736C38.3199 24.256 40.2399 25.92 43.7599 25.92C45.2319 25.92 46.6399 25.6 47.5999 25.088V20.864C47.5999 20.672 47.4079 20.608 47.2799 20.608C46.7039 20.864 46.2559 20.928 45.7439 20.928C44.7839 20.928 44.2719 20.544 44.2719 19.456V15.808H47.3439C47.4719 15.808 47.5999 15.68 47.5999 15.552V12.096L51.6319 25.472C51.6959 25.6 51.8239 25.728 52.0159 25.728H56.4959C56.6239 25.728 56.8159 25.6 56.8799 25.472L58.7999 19.52L59.7599 22.592L60.6559 25.408C60.7199 25.536 60.8479 25.664 61.0399 25.664H65.5199C65.6479 25.664 65.8399 25.536 65.9039 25.408L69.9999 11.968V25.408C69.9999 25.536 70.1279 25.664 70.2559 25.664H75.6959C75.8239 25.664 75.9519 25.536 75.9519 25.408V11.456C75.9519 11.264 75.8239 11.136 75.6959 11.136ZM82.8639 6.27199H77.4239C77.2959 6.27199 77.1679 6.40001 77.1679 6.52801V25.408C77.1679 25.536 77.2959 25.664 77.4239 25.664H82.8639C82.9919 25.664 83.1199 25.536 83.1199 25.408V6.52801C83.1199 6.40001 82.9919 6.27199 82.8639 6.27199ZM90.0959 6.27199H84.4639C84.3359 6.27199 84.2079 6.40001 84.2079 6.52801V9.79199C84.2079 9.91999 84.3359 10.048 84.4639 10.048H90.0959C90.2239 10.048 90.3519 9.91999 90.3519 9.79199V6.52801C90.4159 6.40001 90.2879 6.27199 90.0959 6.27199ZM90.0319 11.136H84.5919C84.4639 11.136 84.3359 11.264 84.3359 11.392V25.408C84.3359 25.536 84.4639 25.664 84.5919 25.664H90.0319C90.1599 25.664 90.2879 25.536 90.2879 25.408V11.456C90.2879 11.264 90.1599 11.136 90.0319 11.136ZM99.0559 10.816C94.2559 10.816 90.8639 14.336 90.8639 18.432V18.496C90.8639 22.592 94.2559 26.048 98.9919 26.048C103.792 26.048 107.184 22.528 107.184 18.432V18.368C107.184 14.272 103.792 10.816 99.0559 10.816ZM101.36 18.432C101.36 19.84 100.4 20.928 99.0559 20.928C97.7119 20.928 96.6879 19.776 96.6879 18.368V18.304C96.6879 16.896 97.6479 15.808 98.9919 15.808C100.336 15.808 101.36 16.96 101.36 18.432ZM16.8159 0C7.98392 0 0.815918 7.168 0.815918 16C0.815918 24.832 7.98392 32 16.8159 32C25.6479 32 32.8159 24.832 32.8159 16C32.8159 7.168 25.6479 0 16.8159 0ZM16.8159 27.776C10.2879 27.776 5.03992 22.528 5.03992 16C5.03992 9.472 10.2879 4.224 16.8159 4.224C23.3439 4.224 28.5919 9.472 28.5919 16C28.5919 22.528 23.3439 27.776 16.8159 27.776Z" fill="white"/>
<path d="M20.7841 15.3599C22.6221 15.3599 24.1121 13.8699 24.1121 12.0319C24.1121 10.1939 22.6221 8.70389 20.7841 8.70389C18.9461 8.70389 17.4561 10.1939 17.4561 12.0319C17.4561 13.8699 18.9461 15.3599 20.7841 15.3599Z" fill="white"/>
<path d="M20.7841 23.2961C22.6221 23.2961 24.1121 21.8061 24.1121 19.9681C24.1121 18.1301 22.6221 16.6401 20.7841 16.6401C18.9461 16.6401 17.4561 18.1301 17.4561 19.9681C17.4561 21.8061 18.9461 23.2961 20.7841 23.2961Z" fill="white"/>
<path d="M12.848 23.2961C14.686 23.2961 16.176 21.8061 16.176 19.9681C16.176 18.1301 14.686 16.6401 12.848 16.6401C11.01 16.6401 9.52002 18.1301 9.52002 19.9681C9.52002 21.8061 11.01 23.2961 12.848 23.2961Z" fill="white"/>
<path d="M12.848 15.3599C14.686 15.3599 16.176 13.8699 16.176 12.0319C16.176 10.1939 14.686 8.70389 12.848 8.70389C11.01 8.70389 9.52002 10.1939 9.52002 12.0319C9.52002 13.8699 11.01 15.3599 12.848 15.3599Z" fill="white"/>
</svg>
