<svg width="30" height="30" viewBox="0 0 30 30" fill="none" xmlns="http://www.w3.org/2000/svg">
<path d="M9.4347 27.3902C20.756 27.3902 26.9472 18.0076 26.9472 9.87122C26.9472 9.60476 26.9418 9.33951 26.9298 9.07537C28.1344 8.20336 29.1741 7.12369 30 5.88695C28.8971 6.37744 27.7104 6.70756 26.4654 6.8564C27.7362 6.09415 28.7117 4.88823 29.172 3.45079C27.9638 4.1678 26.642 4.67325 25.2636 4.94537C24.1404 3.74854 22.5414 3 20.7708 3C17.3718 3 14.6154 5.75744 14.6154 9.1564C14.6154 9.63963 14.6695 10.1095 14.7751 10.5604C9.65957 10.3029 5.12348 7.85274 2.08768 4.1272C1.54091 5.06685 1.25331 6.13479 1.25427 7.22195C1.25427 9.35817 2.34085 11.244 3.99329 12.3473C3.01585 12.3174 2.05987 12.0533 1.20573 11.5771C1.20482 11.603 1.20482 11.6282 1.20482 11.6558C1.20482 14.6377 3.3264 17.1274 6.14274 17.6915C5.6138 17.8356 5.06798 17.9085 4.51976 17.9082C4.12384 17.9082 3.73799 17.8692 3.36299 17.7972C4.14659 20.2437 6.41878 22.024 9.11274 22.0737C7.0061 23.7255 4.35238 24.7093 1.46817 24.7093C0.97753 24.7097 0.487291 24.6813 0 24.624C2.72402 26.3707 5.95854 27.3898 9.435 27.3898" fill="#1DA1F2"/>
</svg>
