<svg width="100" height="26" viewBox="0 0 100 26" fill="none" xmlns="http://www.w3.org/2000/svg">
<path d="M9.52398 25C20.6641 25 26.7563 15.7674 26.7563 7.76128C26.7563 7.49908 26.7509 7.23808 26.7391 6.97816C27.9245 6.12011 28.9475 5.05771 29.7602 3.84076C28.675 4.3234 27.5072 4.64824 26.2822 4.7947C27.5326 4.04464 28.4926 2.85802 28.9455 1.44358C27.7566 2.14912 26.4559 2.64648 25.0996 2.91424C23.9944 1.73656 22.421 1 20.6787 1C17.3341 1 14.6218 3.71332 14.6218 7.0579C14.6218 7.5334 14.675 7.99576 14.779 8.4394C9.74526 8.18602 5.28173 5.7751 2.29451 2.10916C1.75649 3.03378 1.47349 4.08463 1.47443 5.1544C1.47443 7.25644 2.54363 9.11206 4.16963 10.1977C3.20784 10.1683 2.26715 9.90843 1.42667 9.4399C1.42577 9.46534 1.42577 9.49012 1.42577 9.5173C1.42577 12.4515 3.51341 14.9013 6.2847 15.4565C5.76421 15.5983 5.22713 15.67 4.68767 15.6696C4.2981 15.6696 3.91842 15.6313 3.54941 15.5604C4.32048 17.9678 6.55632 19.7196 9.20718 19.7685C7.13424 21.3939 4.52297 22.362 1.68491 22.362C1.20212 22.3624 0.719729 22.3344 0.240234 22.278C2.92067 23.9967 6.10344 24.9996 9.52428 24.9996" fill="white"/>
<path d="M42.0603 20.5V9.38H38.2803V7.42H48.1603V9.38H44.3803V20.5H42.0603ZM51.1723 20.5L48.5723 10.68H50.8923L52.0723 15.78C52.179 16.2467 52.2656 16.7133 52.3323 17.18C52.4123 17.6467 52.499 18.12 52.5923 18.6H52.6723C52.7656 18.12 52.859 17.6467 52.9523 17.18C53.059 16.7 53.1723 16.2333 53.2923 15.78L54.5723 10.68H56.6723L57.9723 15.78C58.0923 16.2467 58.2056 16.7133 58.3123 17.18C58.419 17.6467 58.5256 18.12 58.6323 18.6H58.7123C58.8056 18.12 58.8923 17.6467 58.9723 17.18C59.0523 16.7133 59.139 16.2467 59.2323 15.78L60.4123 10.68H62.5723L60.0723 20.5H57.3323L56.1923 15.92C56.0856 15.4533 55.9856 14.9933 55.8923 14.54C55.799 14.0733 55.699 13.58 55.5923 13.06H55.5123C55.419 13.58 55.3256 14.0733 55.2323 14.54C55.139 15.0067 55.039 15.4733 54.9323 15.94L53.8123 20.5H51.1723ZM64.5132 20.5V10.68H66.8132V20.5H64.5132ZM65.6732 8.96C65.2599 8.96 64.9266 8.84 64.6732 8.6C64.4199 8.36 64.2932 8.04 64.2932 7.64C64.2932 7.25333 64.4199 6.94 64.6732 6.7C64.9266 6.46 65.2599 6.34 65.6732 6.34C66.0866 6.34 66.4199 6.46 66.6732 6.7C66.9266 6.94 67.0532 7.25333 67.0532 7.64C67.0532 8.04 66.9266 8.36 66.6732 8.6C66.4199 8.84 66.0866 8.96 65.6732 8.96ZM73.2076 20.74C72.0743 20.74 71.2676 20.4133 70.7876 19.76C70.3209 19.0933 70.0876 18.2333 70.0876 17.18V12.5H68.6876V10.78L70.2076 10.68L70.4876 8H72.4076V10.68H74.9076V12.5H72.4076V17.18C72.4076 18.3267 72.8676 18.9 73.7876 18.9C73.9609 18.9 74.1409 18.88 74.3276 18.84C74.5143 18.7867 74.6743 18.7333 74.8076 18.68L75.2076 20.38C74.9409 20.4733 74.6343 20.5533 74.2876 20.62C73.9543 20.7 73.5943 20.74 73.2076 20.74ZM80.0435 20.74C78.9102 20.74 78.1035 20.4133 77.6235 19.76C77.1569 19.0933 76.9235 18.2333 76.9235 17.18V12.5H75.5235V10.78L77.0435 10.68L77.3235 8H79.2435V10.68H81.7435V12.5H79.2435V17.18C79.2435 18.3267 79.7035 18.9 80.6235 18.9C80.7969 18.9 80.9769 18.88 81.1635 18.84C81.3502 18.7867 81.5102 18.7333 81.6435 18.68L82.0435 20.38C81.7769 20.4733 81.4702 20.5533 81.1235 20.62C80.7902 20.7 80.4302 20.74 80.0435 20.74ZM87.6976 20.74C86.7909 20.74 85.9709 20.54 85.2376 20.14C84.5043 19.7267 83.9243 19.14 83.4976 18.38C83.0709 17.6067 82.8576 16.68 82.8576 15.6C82.8576 14.5333 83.0709 13.6133 83.4976 12.84C83.9376 12.0667 84.5043 11.4733 85.1976 11.06C85.8909 10.6467 86.6176 10.44 87.3776 10.44C88.2709 10.44 89.0176 10.64 89.6176 11.04C90.2176 11.4267 90.6709 11.9733 90.9776 12.68C91.2843 13.3733 91.4376 14.18 91.4376 15.1C91.4376 15.58 91.4043 15.9533 91.3376 16.22H85.0976C85.2043 17.0867 85.5176 17.76 86.0376 18.24C86.5576 18.72 87.2109 18.96 87.9976 18.96C88.4243 18.96 88.8176 18.9 89.1776 18.78C89.5509 18.6467 89.9176 18.4667 90.2776 18.24L91.0576 19.68C90.5909 19.9867 90.0709 20.24 89.4976 20.44C88.9243 20.64 88.3243 20.74 87.6976 20.74ZM85.0776 14.66H89.4376C89.4376 13.9 89.2709 13.3067 88.9376 12.88C88.6043 12.44 88.1043 12.22 87.4376 12.22C86.8643 12.22 86.3509 12.4333 85.8976 12.86C85.4576 13.2733 85.1843 13.8733 85.0776 14.66ZM93.6343 20.5V10.68H95.5343L95.6943 12.42H95.7743C96.121 11.78 96.541 11.2933 97.0343 10.96C97.5276 10.6133 98.0343 10.44 98.5543 10.44C99.021 10.44 99.3943 10.5067 99.6743 10.64L99.2743 12.64C99.101 12.5867 98.941 12.5467 98.7943 12.52C98.6477 12.4933 98.4677 12.48 98.2543 12.48C97.8676 12.48 97.461 12.6333 97.0343 12.94C96.6076 13.2333 96.241 13.7533 95.9343 14.5V20.5H93.6343Z" fill="white"/>
</svg>
