<svg width="30" height="30" viewBox="0 0 30 30" fill="none" xmlns="http://www.w3.org/2000/svg">
<path d="M3.83908 17.4124L3.83927 17.4128C3.92612 17.6097 4.01866 17.8066 4.1169 17.998L3.1482 18.9667L1.29285 18.4681L2.25533 16.8041H3.6182C3.68248 17.0126 3.75798 17.2154 3.83908 17.4124ZM6.49626 23.6715L6.29007 22.904L6.28989 22.9034L6.24891 22.7688L6.24321 22.7345L6.24329 22.7345L6.24282 22.7328L5.99762 21.8162L6.96633 20.8475C7.15729 20.9456 7.34881 21.0381 7.55182 21.1193C7.74924 21.2064 7.95214 21.2763 8.1603 21.3403V22.709L6.49626 23.6715ZM11.6268 11.0569L11.627 11.057C11.8134 11.1283 11.9898 11.215 12.1658 11.3125C11.038 11.6976 10.3904 12.9121 10.315 14.264C10.2391 15.6257 10.7428 17.1335 11.9275 18.0896L11.1237 18.6809C10.825 18.751 10.5088 18.7918 10.1752 18.7918C9.07024 18.7918 8.07111 18.3451 7.34224 17.6222C6.61925 16.8933 6.1726 15.8941 6.1726 14.7892C6.1726 13.6842 6.61927 12.6851 7.34221 11.9621C8.07106 11.2333 9.07021 10.7866 10.1752 10.7866C10.6925 10.7866 11.1803 10.8807 11.6268 11.0569ZM3.83927 12.1655L3.83927 12.1655L3.83909 12.166C3.75798 12.3629 3.68248 12.5657 3.61819 12.7743H2.25533L1.29285 11.1103L3.1482 10.6116L4.1169 11.5803C4.01866 11.7718 3.92612 11.9687 3.83927 12.1655ZM12.7986 8.45909C12.6012 8.372 12.3982 8.30204 12.19 8.23811V6.86934L13.8541 5.90687L14.3527 7.76811L13.3842 8.73658C13.1927 8.63272 12.9956 8.54023 12.7986 8.45909ZM7.55204 8.45897C7.34897 8.54021 7.15734 8.63276 6.96609 8.73658L5.99762 7.76811L6.49627 5.90687L8.1603 6.86935V8.23811C7.95176 8.30239 7.74899 8.37788 7.55204 8.45897Z" fill="#FCCF4D" stroke="#BDBDBD" stroke-width="0.0377953"/>
<path d="M15.1735 11.6298L15.1735 11.6298L15.0498 11.7829C15.0497 11.783 15.0497 11.7831 15.0496 11.7831C14.9695 11.8877 14.853 11.9487 14.7314 11.9731L14.7311 11.9731L14.5362 12.0085L14.536 12.0086C14.1897 12.0673 13.8611 12.1493 13.5618 12.2489C13.4653 12.3263 13.3512 12.3624 13.2373 12.3632C12.068 12.8223 11.3173 13.5625 10.9479 14.3892L15.1735 11.6298ZM15.1735 11.6298L15.1739 11.6293M15.1735 11.6298L15.1739 11.6293M15.1739 11.6293C15.2234 11.5632 15.273 11.5075 15.3182 11.4567C15.3209 11.4536 15.3237 11.4505 15.3264 11.4474L15.3265 11.4473C15.3469 11.424 15.3703 11.3992 15.3954 11.3725L15.3997 11.368C15.4234 11.3429 15.4485 11.3163 15.4737 11.2884M15.1739 11.6293L15.3123 11.4349C15.3341 11.4099 15.3592 11.3834 15.3859 11.3551C15.4097 11.3299 15.4348 11.3033 15.4599 11.2754M15.4599 11.2754L15.4733 11.2888L15.4737 11.2884M15.4599 11.2754L15.5131 11.2223C15.578 11.1573 15.6312 11.1101 15.6725 11.0746L15.4599 11.2754ZM15.4737 11.2884L15.5264 11.2356C15.591 11.1711 15.6437 11.1242 15.6848 11.089L15.6849 11.089L15.6859 11.088C15.7381 11.0358 15.8023 10.9832 15.8789 10.9243L15.8789 10.9243L15.8795 10.9238C16.1263 10.7181 16.4027 10.5417 16.6972 10.3826L16.6973 10.3826C16.9975 10.2178 17.3093 10.0825 17.6388 9.97654L17.6388 9.97654L17.6392 9.97641C17.9628 9.86464 18.3101 9.7822 18.6694 9.72329M15.4737 11.2884L18.6694 9.72329M18.6694 9.72329C19.0169 9.67029 19.382 9.64085 19.7649 9.64085C20.1477 9.64085 20.5128 9.67029 20.8544 9.72329C21.2196 9.7822 21.5669 9.86464 21.8905 9.97641L21.8909 9.97654C22.2204 10.0825 22.5323 10.2178 22.8324 10.3826L22.8325 10.3826C23.1269 10.5416 23.3975 10.7181 23.6504 10.9239L23.6505 10.924C23.8916 11.1181 24.1092 11.3298 24.2973 11.5532C24.4797 11.7767 24.6383 12.0118 24.7675 12.2643L24.7676 12.2645C24.8909 12.4994 24.9848 12.7459 25.0434 12.9981L25.0436 12.9986C25.1081 13.2449 25.1374 13.4972 25.1374 13.7615V13.8908C25.1286 14.0144 25.1183 14.1366 25.108 14.2582L25.1067 14.2731C25.0968 14.3898 25.0869 14.5061 25.0784 14.6223L25.0784 14.6223V14.6237V14.6946H25.0784L25.0784 14.6958C25.0968 14.9837 25.3479 15.2042 25.6359 15.1858L25.6361 15.1858L26.3499 15.1327H26.4732C27.0673 15.1327 27.5426 15.2445 27.9114 15.4318L27.9115 15.4319C28.2979 15.6251 28.5724 15.8998 28.7418 16.215C28.8121 16.3558 28.8706 16.502 28.9056 16.642L28.9056 16.6423C28.9466 16.7944 28.97 16.9524 28.9759 17.1164C28.9817 17.274 28.9642 17.4379 28.9348 17.6084C28.9055 17.7725 28.8586 17.9366 28.8 18.089C28.6477 18.464 28.4017 18.8035 28.0623 19.0551C27.7583 19.2773 27.3722 19.4296 26.9212 19.4707L15.271 19.4353H15.271H15.206C14.1764 19.4353 13.3063 19.2002 12.6187 18.8186C12.5592 18.7654 12.4933 18.7233 12.4209 18.6988C11.9281 18.3934 11.5409 18.006 11.2534 17.5776C10.9304 17.096 10.7424 16.5557 10.6896 16.0037L10.6896 16.0037C10.6368 15.4635 10.7189 14.9058 10.9479 14.3893L18.6694 9.72329Z" fill="#E6E9EE" stroke="#BDBDBD" stroke-width="0.0377953"/>
<path d="M26.3901 25.4889C26.0068 25.3843 25.6776 25.0656 25.666 24.6033C25.6545 24.0369 26.0572 23.2563 27.2039 22.3314C27.7546 23.7158 27.7268 24.593 27.4378 25.0843C27.2068 25.477 26.7735 25.5876 26.3901 25.4889ZM12.6958 25.4889C12.3127 25.3844 11.9892 25.0658 11.9776 24.6033C11.9661 24.0368 12.3631 23.2563 13.5155 22.3313C14.0661 23.7157 14.0326 24.5987 13.7495 25.0843C13.5185 25.4769 13.0793 25.5877 12.6958 25.4889ZM19.7526 25.4889C19.3635 25.3844 19.0401 25.0658 19.0285 24.6033C19.017 24.0368 19.4139 23.2563 20.5664 22.3313C21.1169 23.7157 21.0835 24.5987 20.8003 25.0843C20.5693 25.477 20.1301 25.5876 19.7526 25.4889Z" fill="#43DDE6" stroke="#BDBDBD" stroke-width="0.0377953"/>
<mask id="path-4-inside-1_930_9528" fill="white">
<path d="M15.2476 19.4543H15.159C14.0134 19.4484 13.0331 19.1885 12.2241 18.7693C11.9525 18.8874 11.669 18.9878 11.3679 19.0586C10.9781 19.1531 10.5825 19.2063 10.175 19.2063C8.78726 19.2063 7.52944 18.6394 6.62004 17.73C5.71063 16.8205 5.14963 15.5627 5.14963 14.175C5.14963 12.7873 5.71063 11.5294 6.62004 10.62C7.52944 9.71063 8.78726 9.14963 10.175 9.14963C10.8128 9.14963 11.4269 9.26774 11.9938 9.49214C12.4721 9.6752 12.915 9.93503 13.3107 10.248C13.6414 10.1417 13.9898 10.059 14.3618 9.99408H14.3677L14.3736 9.98818C14.4268 9.91731 14.4917 9.84645 14.5626 9.75787C14.6275 9.69291 14.6807 9.63386 14.7397 9.57481C14.7516 9.563 14.7634 9.54528 14.7752 9.53347C14.8283 9.48033 14.9051 9.40946 14.9996 9.32088C15.0882 9.25002 15.1649 9.17916 15.2417 9.12011C15.537 8.87799 15.8617 8.6654 16.2161 8.47643C16.5527 8.29337 16.9247 8.13393 17.3144 8.00401C17.6983 7.8741 18.0998 7.77371 18.5132 7.70875C18.9207 7.64379 19.3399 7.60836 19.7651 7.60836C20.1844 7.60836 20.6037 7.64379 21.017 7.70875C21.4304 7.77371 21.8319 7.8741 22.2099 8.00401C22.6055 8.13393 22.9717 8.29337 23.3142 8.47643C23.6626 8.6654 23.9933 8.87799 24.2885 9.12011C24.5838 9.35632 24.8495 9.61615 25.0857 9.8996C25.316 10.183 25.5168 10.4783 25.6763 10.7913C25.8357 11.0984 25.9597 11.4172 26.0365 11.7538C26.1191 12.0786 26.1605 12.4152 26.1605 12.7577V12.929L26.1546 13.0058L26.1487 13.118C26.2609 13.1121 26.3613 13.1061 26.4735 13.1061C27.2293 13.1061 27.8612 13.2538 28.369 13.5077C28.9596 13.803 29.3788 14.234 29.6446 14.7301C29.7568 14.9368 29.8395 15.1553 29.8985 15.3797C29.9576 15.61 29.9871 15.8462 29.9989 16.0765C30.0048 16.3186 29.9871 16.5548 29.9457 16.7851C29.9044 17.0154 29.8395 17.2398 29.7509 17.4642C29.5324 18.0134 29.1663 18.5094 28.6643 18.8756C28.2155 19.2063 27.6604 19.4307 27.0049 19.4897H26.9636L15.2476 19.4543ZM11.2084 18.0665C10.8895 17.7831 10.6238 17.4701 10.3994 17.1394C9.98602 16.5135 9.738 15.8167 9.67305 15.0962C9.60218 14.3817 9.71438 13.6494 10.0156 12.9703C10.4112 12.0786 11.1375 11.2755 12.2123 10.7027C12.0233 10.5964 11.8344 10.5019 11.6336 10.4252C11.1848 10.248 10.6947 10.1535 10.175 10.1535C9.06481 10.1535 8.06092 10.6023 7.32867 11.3346C6.60232 12.0609 6.15352 13.0648 6.15352 14.175C6.15352 15.2852 6.60232 16.2891 7.32867 17.0213C8.06092 17.7477 9.06481 18.1965 10.175 18.1965C10.5116 18.1965 10.8305 18.1551 11.1316 18.0843C11.1553 18.0784 11.1848 18.0725 11.2084 18.0665ZM12.4131 17.7122C12.4839 17.7359 12.5489 17.7772 12.608 17.8303C13.2989 18.2142 14.1728 18.4504 15.2063 18.4504H15.2712L26.9223 18.4858C27.377 18.4445 27.7667 18.2909 28.0738 18.0665C28.4163 17.8126 28.6643 17.4701 28.8178 17.0922C28.8769 16.9386 28.9241 16.7733 28.9537 16.608C28.9832 16.4367 29.0009 16.2714 28.995 16.1119C28.9891 15.9466 28.9655 15.7871 28.9241 15.6336C28.8887 15.4919 28.8297 15.3442 28.7588 15.2025C28.5875 14.8836 28.31 14.6061 27.9202 14.4112C27.5482 14.2222 27.0699 14.11 26.4735 14.11H26.3495L25.6349 14.1632C25.3574 14.1809 25.1153 13.9683 25.0975 13.6908V13.6199C25.1153 13.3778 25.1389 13.1357 25.1566 12.8877V12.7577C25.1566 12.492 25.1271 12.2381 25.0621 11.9901C25.0031 11.7361 24.9086 11.4881 24.7846 11.2519C24.6546 10.998 24.4952 10.7618 24.3121 10.5374C24.1232 10.313 23.9047 10.1004 23.6626 9.9055C23.4086 9.69882 23.137 9.52166 22.8417 9.36222C22.5406 9.19687 22.2276 9.06105 21.8969 8.95476C21.5721 8.84256 21.2237 8.75989 20.8576 8.70083C20.5151 8.64769 20.1489 8.61816 19.7651 8.61816C19.3813 8.61816 19.0151 8.64769 18.6667 8.70083C18.3065 8.75989 17.9581 8.84256 17.6333 8.95476C17.3026 9.06105 16.9896 9.19687 16.6885 9.36222C16.3932 9.52166 16.1157 9.69882 15.8676 9.9055C15.7909 9.96456 15.7259 10.0177 15.6728 10.0708C15.6314 10.1063 15.5783 10.1535 15.5133 10.2185L15.4602 10.2716C15.407 10.3307 15.3539 10.3838 15.3126 10.4311C15.2653 10.4842 15.2122 10.5433 15.159 10.6141L15.035 10.7677C14.9582 10.8681 14.846 10.9271 14.7279 10.9507L14.5331 10.9862C14.1847 11.0452 13.854 11.1279 13.5528 11.2283C13.4583 11.305 13.3461 11.3405 13.2339 11.3405C12.0588 11.8011 11.3029 12.5451 10.9309 13.3778C10.7006 13.8974 10.6179 14.4584 10.671 15.0017C10.7242 15.5568 10.9131 16.1001 11.2379 16.5843C11.5273 17.0154 11.917 17.4052 12.4131 17.7122ZM12.171 7.63789C12.3836 7.70285 12.5902 7.77371 12.791 7.86229C12.9918 7.94496 13.1926 8.03945 13.3874 8.14574L14.3736 7.15956L13.8658 5.26398L12.171 6.24425V7.63789ZM12.4072 8.78941C12.1355 8.67721 11.8639 8.58273 11.5863 8.51777C11.3442 8.47643 11.1612 8.26975 11.1612 8.01582V5.95489C11.1612 5.78364 11.2497 5.61239 11.4151 5.52381L13.9071 4.08293C13.9543 4.05341 14.0016 4.02979 14.0547 4.01798C14.3205 3.94711 14.598 4.10655 14.6689 4.37229L15.4129 7.15366C15.4661 7.33082 15.4248 7.52569 15.2889 7.66742L13.8303 9.12601H13.8244C13.665 9.28545 13.4111 9.32088 13.2103 9.19687C12.9564 9.04334 12.6847 8.90752 12.4072 8.78941ZM3.15366 18.3736L4.13983 17.3874C4.03944 17.1926 3.94496 16.9918 3.85638 16.791C3.77371 16.5902 3.69694 16.3836 3.63198 16.171H2.24425L1.26398 17.8658L3.15366 18.3736ZM5.12601 17.8303L3.66151 19.2889C3.5375 19.4129 3.35444 19.4661 3.17728 19.4189L0.37229 18.6689V18.663C0.330953 18.6571 0.289616 18.6394 0.254185 18.6157C0.0120698 18.4799 -0.0706036 18.1728 0.065217 17.9307L1.49429 15.4564C1.57696 15.2852 1.74821 15.1612 1.95489 15.1612H4.01582V15.1671C4.24022 15.1671 4.44691 15.3206 4.50596 15.5509C4.57682 15.8403 4.67131 16.1237 4.78351 16.4072C4.89571 16.6729 5.03153 16.9327 5.17916 17.1808C5.32088 17.3756 5.30317 17.6532 5.12601 17.8303ZM6.48422 23.086L8.17902 22.1057V20.7121C7.96643 20.6471 7.75975 20.5763 7.55897 20.4877C7.35229 20.405 7.15741 20.3105 6.96254 20.2102L5.97636 21.1963L6.22439 22.1235L6.23029 22.1589L6.27163 22.2947L6.48422 23.086ZM8.93489 22.8321L6.45469 24.2612C6.40745 24.2966 6.3543 24.3202 6.29525 24.332C6.02951 24.4088 5.75197 24.2493 5.6811 23.9777L5.30317 22.5545L5.26774 22.4246L5.25593 22.3833L4.93704 21.1963C4.87799 21.0251 4.91933 20.8243 5.06105 20.6885L6.51965 19.224C6.68499 19.0645 6.93892 19.0291 7.1397 19.1531C7.39362 19.3067 7.66526 19.4484 7.94281 19.5606C8.20855 19.6728 8.48609 19.7673 8.76364 19.8322C9.00575 19.8736 9.18882 20.0802 9.18882 20.3342V22.3951H9.18291C9.18291 22.5723 9.09433 22.7376 8.93489 22.8321ZM5.97636 7.15956L6.96254 8.14574C7.15741 8.03945 7.35229 7.94496 7.55897 7.86229C7.75975 7.77961 7.96643 7.70285 8.17902 7.63789V6.24425L6.48422 5.26398L5.97636 7.15956ZM6.51965 9.12601L5.06105 7.66742C4.93704 7.54341 4.88389 7.36034 4.93114 7.17728L5.6811 4.37229C5.69291 4.33095 5.71063 4.28962 5.73425 4.25418C5.87007 4.01207 6.17714 3.9294 6.41926 4.06522L8.89355 5.49429C9.06481 5.57696 9.18882 5.74821 9.18882 5.95489V8.02173H9.18291C9.18291 8.24613 9.02938 8.45281 8.79907 8.50596C8.50971 8.57682 8.22036 8.67131 7.94281 8.78941C7.67117 8.90161 7.41724 9.03153 7.16922 9.17916C6.97435 9.32088 6.6968 9.30317 6.51965 9.12601ZM1.26398 10.4842L2.24425 12.179H3.63198C3.69694 11.9664 3.77371 11.7597 3.85638 11.559C3.94496 11.3582 4.03944 11.1574 4.13983 10.9625L3.15366 9.97637L1.26398 10.4842ZM1.51791 12.9349L0.0888379 10.4547C0.0593117 10.4074 0.0297855 10.3543 0.017975 10.3012C-0.0528879 10.0295 0.106554 9.75787 0.37229 9.6811L3.14775 8.93704C3.32491 8.8839 3.52569 8.92523 3.66151 9.06105L5.12601 10.5256C5.28545 10.685 5.32088 10.9389 5.19687 11.1397C5.04334 11.3936 4.90161 11.6653 4.78351 11.9487C4.67721 12.2145 4.58273 12.4861 4.51186 12.7636C4.47643 13.0058 4.26975 13.1888 4.01582 13.1888H1.95489C1.78364 13.1888 1.61239 13.0943 1.51791 12.9349ZM13.5233 21.3321C12.354 22.2652 11.9466 23.0565 11.9584 23.6352C11.9702 24.1076 12.3009 24.4324 12.6906 24.5387C13.0804 24.6391 13.5292 24.5269 13.7654 24.1253C14.0547 23.6293 14.0843 22.7317 13.5233 21.3321ZM10.9545 23.6529C10.9368 22.714 11.5568 21.4798 13.4111 20.157C13.4406 20.1275 13.476 20.1039 13.5174 20.0861C13.7713 19.968 14.0725 20.0802 14.1847 20.3342C15.1649 22.4246 15.1059 23.8183 14.6275 24.6332C14.1315 25.4717 13.2221 25.7197 12.4367 25.5072C11.6454 25.2946 10.9781 24.6332 10.9545 23.6529ZM27.2116 21.3321C26.0483 22.2652 25.6349 23.0565 25.6467 23.6352C25.6585 24.1076 25.9951 24.4324 26.3849 24.5387C26.7746 24.6391 27.2175 24.5269 27.4537 24.1253C27.749 23.6234 27.7726 22.7317 27.2116 21.3321ZM24.6487 23.6529C24.6251 22.714 25.2511 21.4798 27.0994 20.157C27.1348 20.1275 27.1703 20.1039 27.2116 20.0861C27.4596 19.968 27.7608 20.0802 27.8789 20.3342C28.8533 22.4246 28.7942 23.8183 28.3218 24.6332C27.8258 25.4717 26.9164 25.7197 26.1251 25.5072C25.3397 25.2946 24.6665 24.6332 24.6487 23.6529ZM20.5741 21.3321C19.4049 22.2652 18.9974 23.0565 19.0092 23.6352C19.021 24.1076 19.3517 24.4324 19.7474 24.5387C20.1312 24.6391 20.58 24.5269 20.8162 24.1253C21.1056 23.6293 21.1351 22.7317 20.5741 21.3321ZM18.0053 23.6529C17.9876 22.714 18.6136 21.4798 20.4619 20.157C20.4915 20.1275 20.5269 20.1039 20.5682 20.0861C20.8221 19.968 21.1233 20.0802 21.2355 20.3342C22.2158 22.4246 22.1567 23.8183 21.6784 24.6332C21.1824 25.4717 20.273 25.7197 19.4876 25.5072C18.6963 25.2946 18.029 24.6332 18.0053 23.6529Z"/>
</mask>
<path d="M15.2476 19.4543H15.159C14.0134 19.4484 13.0331 19.1885 12.2241 18.7693C11.9525 18.8874 11.669 18.9878 11.3679 19.0586C10.9781 19.1531 10.5825 19.2063 10.175 19.2063C8.78726 19.2063 7.52944 18.6394 6.62004 17.73C5.71063 16.8205 5.14963 15.5627 5.14963 14.175C5.14963 12.7873 5.71063 11.5294 6.62004 10.62C7.52944 9.71063 8.78726 9.14963 10.175 9.14963C10.8128 9.14963 11.4269 9.26774 11.9938 9.49214C12.4721 9.6752 12.915 9.93503 13.3107 10.248C13.6414 10.1417 13.9898 10.059 14.3618 9.99408H14.3677L14.3736 9.98818C14.4268 9.91731 14.4917 9.84645 14.5626 9.75787C14.6275 9.69291 14.6807 9.63386 14.7397 9.57481C14.7516 9.563 14.7634 9.54528 14.7752 9.53347C14.8283 9.48033 14.9051 9.40946 14.9996 9.32088C15.0882 9.25002 15.1649 9.17916 15.2417 9.12011C15.537 8.87799 15.8617 8.6654 16.2161 8.47643C16.5527 8.29337 16.9247 8.13393 17.3144 8.00401C17.6983 7.8741 18.0998 7.77371 18.5132 7.70875C18.9207 7.64379 19.3399 7.60836 19.7651 7.60836C20.1844 7.60836 20.6037 7.64379 21.017 7.70875C21.4304 7.77371 21.8319 7.8741 22.2099 8.00401C22.6055 8.13393 22.9717 8.29337 23.3142 8.47643C23.6626 8.6654 23.9933 8.87799 24.2885 9.12011C24.5838 9.35632 24.8495 9.61615 25.0857 9.8996C25.316 10.183 25.5168 10.4783 25.6763 10.7913C25.8357 11.0984 25.9597 11.4172 26.0365 11.7538C26.1191 12.0786 26.1605 12.4152 26.1605 12.7577V12.929L26.1546 13.0058L26.1487 13.118C26.2609 13.1121 26.3613 13.1061 26.4735 13.1061C27.2293 13.1061 27.8612 13.2538 28.369 13.5077C28.9596 13.803 29.3788 14.234 29.6446 14.7301C29.7568 14.9368 29.8395 15.1553 29.8985 15.3797C29.9576 15.61 29.9871 15.8462 29.9989 16.0765C30.0048 16.3186 29.9871 16.5548 29.9457 16.7851C29.9044 17.0154 29.8395 17.2398 29.7509 17.4642C29.5324 18.0134 29.1663 18.5094 28.6643 18.8756C28.2155 19.2063 27.6604 19.4307 27.0049 19.4897H26.9636L15.2476 19.4543ZM11.2084 18.0665C10.8895 17.7831 10.6238 17.4701 10.3994 17.1394C9.98602 16.5135 9.738 15.8167 9.67305 15.0962C9.60218 14.3817 9.71438 13.6494 10.0156 12.9703C10.4112 12.0786 11.1375 11.2755 12.2123 10.7027C12.0233 10.5964 11.8344 10.5019 11.6336 10.4252C11.1848 10.248 10.6947 10.1535 10.175 10.1535C9.06481 10.1535 8.06092 10.6023 7.32867 11.3346C6.60232 12.0609 6.15352 13.0648 6.15352 14.175C6.15352 15.2852 6.60232 16.2891 7.32867 17.0213C8.06092 17.7477 9.06481 18.1965 10.175 18.1965C10.5116 18.1965 10.8305 18.1551 11.1316 18.0843C11.1553 18.0784 11.1848 18.0725 11.2084 18.0665ZM12.4131 17.7122C12.4839 17.7359 12.5489 17.7772 12.608 17.8303C13.2989 18.2142 14.1728 18.4504 15.2063 18.4504H15.2712L26.9223 18.4858C27.377 18.4445 27.7667 18.2909 28.0738 18.0665C28.4163 17.8126 28.6643 17.4701 28.8178 17.0922C28.8769 16.9386 28.9241 16.7733 28.9537 16.608C28.9832 16.4367 29.0009 16.2714 28.995 16.1119C28.9891 15.9466 28.9655 15.7871 28.9241 15.6336C28.8887 15.4919 28.8297 15.3442 28.7588 15.2025C28.5875 14.8836 28.31 14.6061 27.9202 14.4112C27.5482 14.2222 27.0699 14.11 26.4735 14.11H26.3495L25.6349 14.1632C25.3574 14.1809 25.1153 13.9683 25.0975 13.6908V13.6199C25.1153 13.3778 25.1389 13.1357 25.1566 12.8877V12.7577C25.1566 12.492 25.1271 12.2381 25.0621 11.9901C25.0031 11.7361 24.9086 11.4881 24.7846 11.2519C24.6546 10.998 24.4952 10.7618 24.3121 10.5374C24.1232 10.313 23.9047 10.1004 23.6626 9.9055C23.4086 9.69882 23.137 9.52166 22.8417 9.36222C22.5406 9.19687 22.2276 9.06105 21.8969 8.95476C21.5721 8.84256 21.2237 8.75989 20.8576 8.70083C20.5151 8.64769 20.1489 8.61816 19.7651 8.61816C19.3813 8.61816 19.0151 8.64769 18.6667 8.70083C18.3065 8.75989 17.9581 8.84256 17.6333 8.95476C17.3026 9.06105 16.9896 9.19687 16.6885 9.36222C16.3932 9.52166 16.1157 9.69882 15.8676 9.9055C15.7909 9.96456 15.7259 10.0177 15.6728 10.0708C15.6314 10.1063 15.5783 10.1535 15.5133 10.2185L15.4602 10.2716C15.407 10.3307 15.3539 10.3838 15.3126 10.4311C15.2653 10.4842 15.2122 10.5433 15.159 10.6141L15.035 10.7677C14.9582 10.8681 14.846 10.9271 14.7279 10.9507L14.5331 10.9862C14.1847 11.0452 13.854 11.1279 13.5528 11.2283C13.4583 11.305 13.3461 11.3405 13.2339 11.3405C12.0588 11.8011 11.3029 12.5451 10.9309 13.3778C10.7006 13.8974 10.6179 14.4584 10.671 15.0017C10.7242 15.5568 10.9131 16.1001 11.2379 16.5843C11.5273 17.0154 11.917 17.4052 12.4131 17.7122ZM12.171 7.63789C12.3836 7.70285 12.5902 7.77371 12.791 7.86229C12.9918 7.94496 13.1926 8.03945 13.3874 8.14574L14.3736 7.15956L13.8658 5.26398L12.171 6.24425V7.63789ZM12.4072 8.78941C12.1355 8.67721 11.8639 8.58273 11.5863 8.51777C11.3442 8.47643 11.1612 8.26975 11.1612 8.01582V5.95489C11.1612 5.78364 11.2497 5.61239 11.4151 5.52381L13.9071 4.08293C13.9543 4.05341 14.0016 4.02979 14.0547 4.01798C14.3205 3.94711 14.598 4.10655 14.6689 4.37229L15.4129 7.15366C15.4661 7.33082 15.4248 7.52569 15.2889 7.66742L13.8303 9.12601H13.8244C13.665 9.28545 13.4111 9.32088 13.2103 9.19687C12.9564 9.04334 12.6847 8.90752 12.4072 8.78941ZM3.15366 18.3736L4.13983 17.3874C4.03944 17.1926 3.94496 16.9918 3.85638 16.791C3.77371 16.5902 3.69694 16.3836 3.63198 16.171H2.24425L1.26398 17.8658L3.15366 18.3736ZM5.12601 17.8303L3.66151 19.2889C3.5375 19.4129 3.35444 19.4661 3.17728 19.4189L0.37229 18.6689V18.663C0.330953 18.6571 0.289616 18.6394 0.254185 18.6157C0.0120698 18.4799 -0.0706036 18.1728 0.065217 17.9307L1.49429 15.4564C1.57696 15.2852 1.74821 15.1612 1.95489 15.1612H4.01582V15.1671C4.24022 15.1671 4.44691 15.3206 4.50596 15.5509C4.57682 15.8403 4.67131 16.1237 4.78351 16.4072C4.89571 16.6729 5.03153 16.9327 5.17916 17.1808C5.32088 17.3756 5.30317 17.6532 5.12601 17.8303ZM6.48422 23.086L8.17902 22.1057V20.7121C7.96643 20.6471 7.75975 20.5763 7.55897 20.4877C7.35229 20.405 7.15741 20.3105 6.96254 20.2102L5.97636 21.1963L6.22439 22.1235L6.23029 22.1589L6.27163 22.2947L6.48422 23.086ZM8.93489 22.8321L6.45469 24.2612C6.40745 24.2966 6.3543 24.3202 6.29525 24.332C6.02951 24.4088 5.75197 24.2493 5.6811 23.9777L5.30317 22.5545L5.26774 22.4246L5.25593 22.3833L4.93704 21.1963C4.87799 21.0251 4.91933 20.8243 5.06105 20.6885L6.51965 19.224C6.68499 19.0645 6.93892 19.0291 7.1397 19.1531C7.39362 19.3067 7.66526 19.4484 7.94281 19.5606C8.20855 19.6728 8.48609 19.7673 8.76364 19.8322C9.00575 19.8736 9.18882 20.0802 9.18882 20.3342V22.3951H9.18291C9.18291 22.5723 9.09433 22.7376 8.93489 22.8321ZM5.97636 7.15956L6.96254 8.14574C7.15741 8.03945 7.35229 7.94496 7.55897 7.86229C7.75975 7.77961 7.96643 7.70285 8.17902 7.63789V6.24425L6.48422 5.26398L5.97636 7.15956ZM6.51965 9.12601L5.06105 7.66742C4.93704 7.54341 4.88389 7.36034 4.93114 7.17728L5.6811 4.37229C5.69291 4.33095 5.71063 4.28962 5.73425 4.25418C5.87007 4.01207 6.17714 3.9294 6.41926 4.06522L8.89355 5.49429C9.06481 5.57696 9.18882 5.74821 9.18882 5.95489V8.02173H9.18291C9.18291 8.24613 9.02938 8.45281 8.79907 8.50596C8.50971 8.57682 8.22036 8.67131 7.94281 8.78941C7.67117 8.90161 7.41724 9.03153 7.16922 9.17916C6.97435 9.32088 6.6968 9.30317 6.51965 9.12601ZM1.26398 10.4842L2.24425 12.179H3.63198C3.69694 11.9664 3.77371 11.7597 3.85638 11.559C3.94496 11.3582 4.03944 11.1574 4.13983 10.9625L3.15366 9.97637L1.26398 10.4842ZM1.51791 12.9349L0.0888379 10.4547C0.0593117 10.4074 0.0297855 10.3543 0.017975 10.3012C-0.0528879 10.0295 0.106554 9.75787 0.37229 9.6811L3.14775 8.93704C3.32491 8.8839 3.52569 8.92523 3.66151 9.06105L5.12601 10.5256C5.28545 10.685 5.32088 10.9389 5.19687 11.1397C5.04334 11.3936 4.90161 11.6653 4.78351 11.9487C4.67721 12.2145 4.58273 12.4861 4.51186 12.7636C4.47643 13.0058 4.26975 13.1888 4.01582 13.1888H1.95489C1.78364 13.1888 1.61239 13.0943 1.51791 12.9349ZM13.5233 21.3321C12.354 22.2652 11.9466 23.0565 11.9584 23.6352C11.9702 24.1076 12.3009 24.4324 12.6906 24.5387C13.0804 24.6391 13.5292 24.5269 13.7654 24.1253C14.0547 23.6293 14.0843 22.7317 13.5233 21.3321ZM10.9545 23.6529C10.9368 22.714 11.5568 21.4798 13.4111 20.157C13.4406 20.1275 13.476 20.1039 13.5174 20.0861C13.7713 19.968 14.0725 20.0802 14.1847 20.3342C15.1649 22.4246 15.1059 23.8183 14.6275 24.6332C14.1315 25.4717 13.2221 25.7197 12.4367 25.5072C11.6454 25.2946 10.9781 24.6332 10.9545 23.6529ZM27.2116 21.3321C26.0483 22.2652 25.6349 23.0565 25.6467 23.6352C25.6585 24.1076 25.9951 24.4324 26.3849 24.5387C26.7746 24.6391 27.2175 24.5269 27.4537 24.1253C27.749 23.6234 27.7726 22.7317 27.2116 21.3321ZM24.6487 23.6529C24.6251 22.714 25.2511 21.4798 27.0994 20.157C27.1348 20.1275 27.1703 20.1039 27.2116 20.0861C27.4596 19.968 27.7608 20.0802 27.8789 20.3342C28.8533 22.4246 28.7942 23.8183 28.3218 24.6332C27.8258 25.4717 26.9164 25.7197 26.1251 25.5072C25.3397 25.2946 24.6665 24.6332 24.6487 23.6529ZM20.5741 21.3321C19.4049 22.2652 18.9974 23.0565 19.0092 23.6352C19.021 24.1076 19.3517 24.4324 19.7474 24.5387C20.1312 24.6391 20.58 24.5269 20.8162 24.1253C21.1056 23.6293 21.1351 22.7317 20.5741 21.3321ZM18.0053 23.6529C17.9876 22.714 18.6136 21.4798 20.4619 20.157C20.4915 20.1275 20.5269 20.1039 20.5682 20.0861C20.8221 19.968 21.1233 20.0802 21.2355 20.3342C22.2158 22.4246 22.1567 23.8183 21.6784 24.6332C21.1824 25.4717 20.273 25.7197 19.4876 25.5072C18.6963 25.2946 18.029 24.6332 18.0053 23.6529Z" fill="#364F6B" stroke="#BDBDBD" stroke-width="0.0755906" mask="url(#path-4-inside-1_930_9528)"/>
</svg>
