<svg width="172" height="32" viewBox="0 0 172 32" fill="none" xmlns="http://www.w3.org/2000/svg">
<rect width="172" height="30.2109" transform="translate(0 0.894531)" fill="white"/>
<path d="M17.0747 11.1256C17.0666 11.1282 17.0585 11.1309 17.0504 11.1336C17.0578 11.1378 17.0653 11.1419 17.0727 11.1461M17.0747 11.1256L17.0727 11.1461M17.0747 11.1256C17.0822 11.1297 17.0897 11.1339 17.0972 11.1381C17.089 11.1408 17.0809 11.1434 17.0727 11.1461M17.0747 11.1256L17.0727 11.1461M17.9148 7.14417C17.637 7.02165 17.3514 6.92334 17.0582 6.83342M17.9148 7.14417C17.9149 7.1442 17.9149 7.14424 17.915 7.14427L17.9074 7.16156M17.9148 7.14417C17.9147 7.14414 17.9147 7.14411 17.9146 7.14408L17.9074 7.16156M17.9148 7.14417C18.1921 7.25838 18.4695 7.38866 18.739 7.53504M17.0582 6.83342L17.9074 7.16156M17.0582 6.83342V4.9072V6.83342ZM17.9074 7.16156C18.1885 7.2773 18.4696 7.40958 18.7424 7.55839M18.739 7.53504L18.729 7.54502L18.7424 7.55839M18.739 7.53504L20.102 6.17209M18.739 7.53504C18.7432 7.53729 18.7473 7.53954 18.7514 7.5418L18.7424 7.55839M18.7424 7.55839L20.102 6.17209M20.102 6.17209L20.1097 6.16438L20.123 6.17774L20.1048 6.18263L20.102 6.17209ZM5.38141 19.669L5.3816 19.6694C5.50388 19.9466 5.63422 20.2238 5.77262 20.4932L4.40944 21.8563L1.79822 21.1546L3.15281 18.8126H5.07076C5.16104 19.1062 5.26724 19.3917 5.38141 19.669ZM9.08972 28.4461L8.7985 27.362L8.79832 27.3614L8.7408 27.1725L8.73274 27.1241L8.73283 27.1241L8.73235 27.1223L8.38794 25.8349L9.75113 24.4717C10.02 24.6099 10.2895 24.7403 10.5752 24.8545C10.8529 24.9771 11.1385 25.0754 11.4317 25.1653V27.0915L9.08972 28.4461ZM16.7107 20.6201L15.5762 21.4548C15.157 21.5532 14.7132 21.6105 14.2449 21.6105C12.6959 21.6105 11.2952 20.9843 10.2734 19.9708L16.7107 20.6201ZM5.3816 12.3293L5.38142 12.3297C5.26724 12.607 5.16104 12.8925 5.07076 13.1861H3.15281L1.79822 10.8441L4.40944 10.1423L5.77261 11.5055C5.63422 11.7749 5.50388 12.0521 5.3816 12.3293ZM19.4171 3.54283L19.412 3.52393L19.3951 3.53372L19.4002 3.55263L19.4171 3.54283ZM10.5754 7.14405C10.2896 7.25836 10.0201 7.3887 9.75089 7.53503L8.38795 6.17209L9.08974 3.55263L11.4317 4.9072V6.83342C11.1381 6.92369 10.8527 7.02989 10.5754 7.14405Z" fill="#FCCF4D" stroke="#BDBDBD" stroke-width="0.0377953"/>
<path d="M21.2371 11.5715L21.2371 11.5715L21.2375 11.571C21.3071 11.4782 21.3766 11.4 21.4399 11.3289C21.4437 11.3246 21.4476 11.3202 21.4514 11.3159L21.4515 11.3158C21.4802 11.283 21.513 11.2481 21.5482 11.2109L21.5541 11.2047C21.5873 11.1695 21.6225 11.1322 21.6577 11.0931L21.7318 11.0191C21.8223 10.9286 21.8963 10.8628 21.9539 10.8134L21.954 10.8134L21.955 10.8124C22.0285 10.7389 22.1187 10.6651 22.226 10.5825L22.226 10.5825L22.2266 10.5821C22.5726 10.2937 22.96 10.0464 23.3726 9.82357L23.3727 9.82351C23.7933 9.59259 24.2304 9.40292 24.6922 9.25449L24.6926 9.25436C25.146 9.09771 25.6327 8.9822 26.1361 8.89967C26.6229 8.82541 27.1345 8.78416 27.6709 8.78416C28.2073 8.78416 28.7189 8.82542 29.1974 8.89967C29.7091 8.9822 30.1958 9.09771 30.6492 9.25436L30.6496 9.25449C31.1114 9.40292 31.5485 9.59259 31.9691 9.82351L31.9692 9.82357C32.3817 10.0463 32.761 10.2937 33.1154 10.5822L33.1155 10.5823C33.4535 10.8543 33.7585 11.1511 34.0222 11.4643C34.2778 11.7775 34.5002 12.107 34.6813 12.4611L34.6814 12.4613C34.8543 12.7907 34.986 13.1364 35.0683 13.4902L35.0684 13.4907C35.1589 13.8362 35.2001 14.1901 35.2001 14.5607V14.7419C35.1877 14.9151 35.1733 15.0863 35.1588 15.2566L35.157 15.2776C35.1432 15.4411 35.1294 15.6037 35.1175 15.7663L35.1174 15.7663V15.7677V15.8669H35.1174L35.1174 15.8681C35.1429 16.2671 35.4909 16.5726 35.8898 16.5472L35.89 16.5471L36.8897 16.4728H37.0626C37.8953 16.4728 38.5619 16.6294 39.0795 16.8924L39.0796 16.8924C39.6219 17.1635 40.0074 17.5493 40.2453 17.992C40.344 18.1895 40.426 18.3948 40.4752 18.5914L40.4753 18.5918C40.5328 18.8053 40.5656 19.0271 40.5739 19.2572C40.5821 19.4786 40.5575 19.7086 40.5163 19.9476C40.4752 20.1778 40.4094 20.4081 40.3272 20.6219C40.1134 21.1481 39.7682 21.6246 39.2918 21.9778C38.865 22.2897 38.323 22.5034 37.6901 22.5611L21.3795 22.5115H21.3795H21.2885C19.8456 22.5115 18.6258 22.1819 17.6619 21.6468C17.5788 21.5723 17.4869 21.5137 17.3861 21.4797C16.6949 21.0515 16.1518 20.5082 15.7486 19.9074C15.2956 19.2321 15.0321 18.4745 14.958 17.7005L14.958 17.7004C14.8839 16.9429 14.9992 16.1608 15.3202 15.4364C15.8385 14.2766 16.8915 13.2388 18.5308 12.5954C18.6897 12.5946 18.8486 12.5443 18.9829 12.4363C19.4027 12.2965 19.8636 12.1814 20.3492 12.0991L20.3494 12.0991L20.6222 12.0495L20.6226 12.0494C20.7914 12.0156 20.9528 11.931 21.0636 11.7863C21.0637 11.7862 21.0637 11.7861 21.0638 11.7861L21.2371 11.5715Z" fill="#E6E9EE" stroke="#BDBDBD" stroke-width="0.0377953"/>
<path d="M36.944 30.9863C36.4048 30.8392 35.9409 30.3906 35.9246 29.7393C35.9084 28.9414 36.4764 27.8443 38.0885 26.5462C38.8636 28.4904 38.8264 29.7242 38.4193 30.4163C38.0938 30.9696 37.4833 31.1252 36.944 30.9863ZM17.772 30.9863C17.233 30.8393 16.7772 30.3908 16.7609 29.7393C16.7447 28.9414 17.3046 27.8443 18.9248 26.5461C19.6997 28.4903 19.6545 29.7324 19.2556 30.4163C18.9301 30.9696 18.3114 31.1252 17.772 30.9863ZM27.6515 30.9863C27.1041 30.8392 26.6484 30.3907 26.6321 29.7393C26.6159 28.9413 27.1758 27.8443 28.796 26.5461C29.5709 28.4903 29.5257 29.7324 29.1268 30.4163C28.8013 30.9697 28.1825 31.1252 27.6515 30.9863Z" fill="#43DDE6" stroke="#BDBDBD" stroke-width="0.0377953"/>
<mask id="path-4-inside-1_187_2088" fill="white">
<path d="M21.3466 22.5305H21.2226C19.6188 22.5223 18.2464 22.1585 17.1138 21.5715C16.7335 21.7369 16.3366 21.8774 15.915 21.9766C15.3693 22.1089 14.8154 22.1833 14.245 22.1833C12.3022 22.1833 10.5412 21.3896 9.26805 20.1165C7.99488 18.8433 7.20948 17.0823 7.20948 15.1395C7.20948 13.1967 7.99488 11.4358 9.26805 10.1626C10.5412 8.88941 12.3022 8.10401 14.245 8.10401C15.1379 8.10401 15.9977 8.26936 16.7913 8.58352C17.461 8.83981 18.081 9.20357 18.6349 9.64174C19.0979 9.49293 19.5857 9.37718 20.1065 9.28624H20.1148L20.1231 9.27798C20.1975 9.17877 20.2884 9.07956 20.3876 8.95555C20.4786 8.86461 20.553 8.78194 20.6356 8.69926C20.6522 8.68273 20.6687 8.65793 20.6852 8.64139C20.7597 8.56699 20.8671 8.46778 20.9994 8.34377C21.1234 8.24456 21.2309 8.14535 21.3384 8.06268C21.7517 7.72372 22.2064 7.42609 22.7025 7.16154C23.1737 6.90525 23.6946 6.68203 24.2402 6.50015C24.7776 6.31827 25.3398 6.17772 25.9185 6.08678C26.4889 5.99584 27.0759 5.94624 27.6712 5.94624C28.2581 5.94624 28.8451 5.99584 29.4238 6.08678C30.0025 6.17772 30.5647 6.31827 31.0938 6.50015C31.6477 6.68203 32.1603 6.90525 32.6398 7.16154C33.1276 7.42609 33.5906 7.72372 34.0039 8.06268C34.4173 8.39337 34.7893 8.75713 35.12 9.15397C35.4425 9.5508 35.7235 9.96417 35.9468 10.4023C36.17 10.8322 36.3436 11.2787 36.4511 11.7499C36.5668 12.2046 36.6247 12.6759 36.6247 13.1554V13.3951L36.6164 13.5026L36.6081 13.6597C36.7652 13.6514 36.9058 13.6431 37.0629 13.6431C38.1211 13.6431 39.0057 13.8498 39.7167 14.2053C40.5434 14.6187 41.1304 15.2222 41.5024 15.9167C41.6595 16.206 41.7752 16.5119 41.8579 16.8261C41.9406 17.1485 41.9819 17.4792 41.9985 17.8016C42.0067 18.1406 41.9819 18.4713 41.924 18.7937C41.8662 19.1161 41.7752 19.4303 41.6512 19.7444C41.3453 20.5133 40.8328 21.2078 40.13 21.7203C39.5017 22.1833 38.7246 22.4975 37.8069 22.5801H37.749L21.3466 22.5305ZM15.6918 20.5877C15.2453 20.1909 14.8733 19.7527 14.5591 19.2897C13.9804 18.4134 13.6332 17.4378 13.5423 16.4292C13.4431 15.4289 13.6001 14.4037 14.0218 13.453C14.5757 12.2046 15.5926 11.0803 17.0972 10.2783C16.8327 10.1295 16.5681 9.99724 16.287 9.88976C15.6587 9.64174 14.9725 9.50946 14.245 9.50946C12.6907 9.50946 11.2853 10.1378 10.2601 11.1629C9.24325 12.1798 8.61493 13.5853 8.61493 15.1395C8.61493 16.6938 9.24325 18.0992 10.2601 19.1244C11.2853 20.1413 12.6907 20.7696 14.245 20.7696C14.7162 20.7696 15.1627 20.7117 15.5843 20.6125C15.6174 20.6042 15.6587 20.596 15.6918 20.5877ZM17.3783 20.0917C17.4775 20.1247 17.5685 20.1826 17.6511 20.257C18.6184 20.7944 19.842 21.1251 21.2888 21.1251H21.3797L37.6912 21.1747C38.3278 21.1168 38.8734 20.9019 39.3033 20.5877C39.7828 20.2322 40.13 19.7527 40.345 19.2236C40.4277 19.0086 40.4938 18.7772 40.5351 18.5457C40.5765 18.3059 40.6013 18.0744 40.593 17.8512C40.5847 17.6197 40.5517 17.3965 40.4938 17.1816C40.4442 16.9831 40.3615 16.7765 40.2623 16.578C40.0226 16.1316 39.634 15.743 39.0883 15.4702C38.5675 15.2057 37.8979 15.0486 37.0629 15.0486H36.8892L35.8889 15.123C35.5003 15.1478 35.1614 14.8502 35.1366 14.4616V14.3624C35.1614 14.0234 35.1944 13.6845 35.2192 13.3372V13.1554C35.2192 12.7833 35.1779 12.4278 35.087 12.0806C35.0043 11.7251 34.872 11.3779 34.6984 11.0472C34.5165 10.6917 34.2933 10.361 34.037 10.0468C33.7724 9.73268 33.4666 9.43506 33.1276 9.16223C32.7721 8.87288 32.3918 8.62486 31.9784 8.40164C31.5568 8.17015 31.1186 7.98 30.6557 7.83119C30.201 7.67411 29.7132 7.55837 29.2006 7.4757C28.7211 7.40129 28.2085 7.35995 27.6712 7.35995C27.1338 7.35995 26.6212 7.40129 26.1334 7.4757C25.6291 7.55837 25.1413 7.67411 24.6866 7.83119C24.2237 7.98 23.7855 8.17015 23.3639 8.40164C22.9505 8.62486 22.5619 8.87288 22.2147 9.16223C22.1072 9.24491 22.0163 9.31931 21.9419 9.39372C21.884 9.44332 21.8096 9.50946 21.7187 9.6004L21.6443 9.67481C21.5699 9.75748 21.4954 9.83189 21.4376 9.89803C21.3714 9.97243 21.297 10.0551 21.2226 10.1543L21.049 10.3693C20.9415 10.5098 20.7845 10.5925 20.6191 10.6256L20.3463 10.6752C19.8585 10.7578 19.3955 10.8736 18.9739 11.0141C18.8416 11.1216 18.6846 11.1712 18.5275 11.1712C16.8823 11.8161 15.8241 12.8577 15.3032 14.0234C14.9808 14.751 14.865 15.5364 14.9394 16.2969C15.0139 17.0741 15.2784 17.8347 15.7331 18.5126C16.1382 19.1161 16.6839 19.6618 17.3783 20.0917ZM17.0394 5.98758C17.337 6.07852 17.6263 6.17772 17.9074 6.30173C18.1885 6.41748 18.4696 6.54975 18.7424 6.69857L20.1231 5.31792L19.4121 2.6641L17.0394 4.03648V5.98758ZM17.37 7.59971C16.9897 7.44263 16.6094 7.31035 16.2209 7.21941C15.8819 7.16154 15.6256 6.87218 15.6256 6.51669V3.63138C15.6256 3.39163 15.7496 3.15188 15.9811 3.02787L19.4699 1.01064C19.5361 0.9693 19.6022 0.936231 19.6766 0.919696C20.0487 0.820488 20.4372 1.04371 20.5364 1.41574L21.5781 5.30965C21.6525 5.55767 21.5947 5.8305 21.4045 6.02891L19.3625 8.07095H19.3542C19.131 8.29416 18.7755 8.34377 18.4944 8.17015C18.1389 7.9552 17.7586 7.76505 17.37 7.59971ZM4.41512 21.0176L5.79577 19.637C5.65522 19.3641 5.52295 19.083 5.39894 18.802C5.28319 18.5209 5.17572 18.2315 5.08478 17.9339H3.14195L1.76957 20.3066L4.41512 21.0176ZM7.17641 20.257L5.12611 22.299C4.9525 22.4727 4.69621 22.5471 4.44819 22.4809L0.521205 21.431V21.4227C0.463334 21.4144 0.405463 21.3896 0.355859 21.3566C0.0168977 21.1664 -0.0988451 20.7365 0.0913037 20.3976L2.092 16.9335C2.20774 16.6938 2.4475 16.5202 2.73685 16.5202H5.62215V16.5284C5.93631 16.5284 6.22567 16.7434 6.30834 17.0658C6.40755 17.4709 6.53983 17.8677 6.69691 18.2646C6.85399 18.6366 7.04414 19.0004 7.25082 19.3476C7.44924 19.6204 7.42443 20.009 7.17641 20.257ZM9.0779 27.6149L11.4506 26.2426V24.2915C11.153 24.2005 10.8636 24.1013 10.5826 23.9773C10.2932 23.8616 10.0204 23.7293 9.74756 23.5887L8.36691 24.9694L8.71414 26.2674L8.72241 26.317L8.78028 26.5071L9.0779 27.6149ZM12.5088 27.2594L9.03657 29.2601C8.97043 29.3097 8.89602 29.3428 8.81335 29.3593C8.44132 29.4668 8.05275 29.2436 7.95354 28.8633L7.42443 26.8709L7.37483 26.689L7.3583 26.6311L6.91186 24.9694C6.82919 24.7296 6.88706 24.4485 7.08547 24.2584L9.12751 22.2081C9.35899 21.9849 9.71449 21.9353 9.99558 22.1089C10.3511 22.3238 10.7314 22.5223 11.1199 22.6793C11.492 22.8364 11.8805 22.9687 12.2691 23.0596C12.6081 23.1175 12.8643 23.4069 12.8643 23.7624V26.6477H12.8561C12.8561 26.8957 12.7321 27.1272 12.5088 27.2594ZM8.36691 5.31792L9.74756 6.69857C10.0204 6.54975 10.2932 6.41748 10.5826 6.30173C10.8636 6.18599 11.153 6.07852 11.4506 5.98758V4.03648L9.0779 2.6641L8.36691 5.31792ZM9.12751 8.07095L7.08547 6.02891C6.91186 5.8553 6.83745 5.59901 6.90359 5.34272L7.95354 1.41574C7.97008 1.35787 7.99488 1.29999 8.02795 1.25039C8.2181 0.911429 8.648 0.795686 8.98696 0.985835L12.451 2.98653C12.6907 3.10227 12.8643 3.34203 12.8643 3.63138V6.52495H12.8561C12.8561 6.83911 12.6411 7.12847 12.3187 7.20287C11.9136 7.30208 11.5085 7.43436 11.1199 7.59971C10.7396 7.75679 10.3841 7.93867 10.0369 8.14535C9.76409 8.34377 9.37553 8.31897 9.12751 8.07095ZM1.76957 9.97243L3.14195 12.3452H5.08478C5.17572 12.0475 5.28319 11.7582 5.39894 11.4771C5.52295 11.196 5.65522 10.9149 5.79577 10.6421L4.41512 9.26144L1.76957 9.97243ZM2.12507 13.4034L0.124373 9.9311C0.0830364 9.86496 0.0416997 9.79055 0.025165 9.71615C-0.0740431 9.33585 0.149175 8.95555 0.521205 8.84808L4.40686 7.80639C4.65488 7.73198 4.93597 7.78986 5.12611 7.98L7.17641 10.0303C7.39963 10.2535 7.44924 10.609 7.27562 10.8901C7.06067 11.2456 6.86226 11.6259 6.69691 12.0227C6.5481 12.3948 6.41582 12.7751 6.31661 13.1636C6.26701 13.5026 5.97765 13.7589 5.62215 13.7589H2.73685C2.4971 13.7589 2.25735 13.6266 2.12507 13.4034ZM18.9326 25.1595C17.2956 26.4658 16.7252 27.5736 16.7417 28.3838C16.7583 29.0452 17.2212 29.4999 17.7669 29.6487C18.3125 29.7892 18.9408 29.6322 19.2715 29.07C19.6766 28.3755 19.718 27.1189 18.9326 25.1595ZM15.3363 28.4086C15.3115 27.0941 16.1795 25.3662 18.7755 23.5143C18.8168 23.473 18.8664 23.4399 18.9243 23.4151C19.2798 23.2498 19.7014 23.4069 19.8585 23.7624C21.2309 26.689 21.1482 28.6401 20.4786 29.781C19.7841 30.9549 18.5109 31.3022 17.4114 31.0045C16.3036 30.7069 15.3693 29.781 15.3363 28.4086ZM38.0963 25.1595C36.4676 26.4658 35.8889 27.5736 35.9054 28.3838C35.922 29.0452 36.3932 29.4999 36.9388 29.6487C37.4845 29.7892 38.1045 29.6322 38.4352 29.07C38.8486 28.3673 38.8817 27.1189 38.0963 25.1595ZM34.5082 28.4086C34.4752 27.0941 35.3515 25.3662 37.9392 23.5143C37.9888 23.473 38.0384 23.4399 38.0963 23.4151C38.4435 23.2498 38.8651 23.4069 39.0305 23.7624C40.3946 26.689 40.3119 28.6401 39.6505 29.781C38.9561 30.9549 37.6829 31.3022 36.5751 31.0045C35.4755 30.7069 34.533 29.781 34.5082 28.4086ZM28.8038 25.1595C27.1668 26.4658 26.5964 27.5736 26.6129 28.3838C26.6295 29.0452 27.0924 29.4999 27.6463 29.6487C28.1837 29.7892 28.812 29.6322 29.1427 29.07C29.5478 28.3755 29.5892 27.1189 28.8038 25.1595ZM25.2075 28.4086C25.1827 27.0941 26.059 25.3662 28.6467 23.5143C28.688 23.473 28.7376 23.4399 28.7955 23.4151C29.151 23.2498 29.5726 23.4069 29.7297 23.7624C31.1021 26.689 31.0194 28.6401 30.3498 29.781C29.6553 30.9549 28.3821 31.3022 27.2826 31.0045C26.1748 30.7069 25.2406 29.781 25.2075 28.4086Z"/>
</mask>
<path d="M21.3466 22.5305H21.2226C19.6188 22.5223 18.2464 22.1585 17.1138 21.5715C16.7335 21.7369 16.3366 21.8774 15.915 21.9766C15.3693 22.1089 14.8154 22.1833 14.245 22.1833C12.3022 22.1833 10.5412 21.3896 9.26805 20.1165C7.99488 18.8433 7.20948 17.0823 7.20948 15.1395C7.20948 13.1967 7.99488 11.4358 9.26805 10.1626C10.5412 8.88941 12.3022 8.10401 14.245 8.10401C15.1379 8.10401 15.9977 8.26936 16.7913 8.58352C17.461 8.83981 18.081 9.20357 18.6349 9.64174C19.0979 9.49293 19.5857 9.37718 20.1065 9.28624H20.1148L20.1231 9.27798C20.1975 9.17877 20.2884 9.07956 20.3876 8.95555C20.4786 8.86461 20.553 8.78194 20.6356 8.69926C20.6522 8.68273 20.6687 8.65793 20.6852 8.64139C20.7597 8.56699 20.8671 8.46778 20.9994 8.34377C21.1234 8.24456 21.2309 8.14535 21.3384 8.06268C21.7517 7.72372 22.2064 7.42609 22.7025 7.16154C23.1737 6.90525 23.6946 6.68203 24.2402 6.50015C24.7776 6.31827 25.3398 6.17772 25.9185 6.08678C26.4889 5.99584 27.0759 5.94624 27.6712 5.94624C28.2581 5.94624 28.8451 5.99584 29.4238 6.08678C30.0025 6.17772 30.5647 6.31827 31.0938 6.50015C31.6477 6.68203 32.1603 6.90525 32.6398 7.16154C33.1276 7.42609 33.5906 7.72372 34.0039 8.06268C34.4173 8.39337 34.7893 8.75713 35.12 9.15397C35.4425 9.5508 35.7235 9.96417 35.9468 10.4023C36.17 10.8322 36.3436 11.2787 36.4511 11.7499C36.5668 12.2046 36.6247 12.6759 36.6247 13.1554V13.3951L36.6164 13.5026L36.6081 13.6597C36.7652 13.6514 36.9058 13.6431 37.0629 13.6431C38.1211 13.6431 39.0057 13.8498 39.7167 14.2053C40.5434 14.6187 41.1304 15.2222 41.5024 15.9167C41.6595 16.206 41.7752 16.5119 41.8579 16.8261C41.9406 17.1485 41.9819 17.4792 41.9985 17.8016C42.0067 18.1406 41.9819 18.4713 41.924 18.7937C41.8662 19.1161 41.7752 19.4303 41.6512 19.7444C41.3453 20.5133 40.8328 21.2078 40.13 21.7203C39.5017 22.1833 38.7246 22.4975 37.8069 22.5801H37.749L21.3466 22.5305ZM15.6918 20.5877C15.2453 20.1909 14.8733 19.7527 14.5591 19.2897C13.9804 18.4134 13.6332 17.4378 13.5423 16.4292C13.4431 15.4289 13.6001 14.4037 14.0218 13.453C14.5757 12.2046 15.5926 11.0803 17.0972 10.2783C16.8327 10.1295 16.5681 9.99724 16.287 9.88976C15.6587 9.64174 14.9725 9.50946 14.245 9.50946C12.6907 9.50946 11.2853 10.1378 10.2601 11.1629C9.24325 12.1798 8.61493 13.5853 8.61493 15.1395C8.61493 16.6938 9.24325 18.0992 10.2601 19.1244C11.2853 20.1413 12.6907 20.7696 14.245 20.7696C14.7162 20.7696 15.1627 20.7117 15.5843 20.6125C15.6174 20.6042 15.6587 20.596 15.6918 20.5877ZM17.3783 20.0917C17.4775 20.1247 17.5685 20.1826 17.6511 20.257C18.6184 20.7944 19.842 21.1251 21.2888 21.1251H21.3797L37.6912 21.1747C38.3278 21.1168 38.8734 20.9019 39.3033 20.5877C39.7828 20.2322 40.13 19.7527 40.345 19.2236C40.4277 19.0086 40.4938 18.7772 40.5351 18.5457C40.5765 18.3059 40.6013 18.0744 40.593 17.8512C40.5847 17.6197 40.5517 17.3965 40.4938 17.1816C40.4442 16.9831 40.3615 16.7765 40.2623 16.578C40.0226 16.1316 39.634 15.743 39.0883 15.4702C38.5675 15.2057 37.8979 15.0486 37.0629 15.0486H36.8892L35.8889 15.123C35.5003 15.1478 35.1614 14.8502 35.1366 14.4616V14.3624C35.1614 14.0234 35.1944 13.6845 35.2192 13.3372V13.1554C35.2192 12.7833 35.1779 12.4278 35.087 12.0806C35.0043 11.7251 34.872 11.3779 34.6984 11.0472C34.5165 10.6917 34.2933 10.361 34.037 10.0468C33.7724 9.73268 33.4666 9.43506 33.1276 9.16223C32.7721 8.87288 32.3918 8.62486 31.9784 8.40164C31.5568 8.17015 31.1186 7.98 30.6557 7.83119C30.201 7.67411 29.7132 7.55837 29.2006 7.4757C28.7211 7.40129 28.2085 7.35995 27.6712 7.35995C27.1338 7.35995 26.6212 7.40129 26.1334 7.4757C25.6291 7.55837 25.1413 7.67411 24.6866 7.83119C24.2237 7.98 23.7855 8.17015 23.3639 8.40164C22.9505 8.62486 22.5619 8.87288 22.2147 9.16223C22.1072 9.24491 22.0163 9.31931 21.9419 9.39372C21.884 9.44332 21.8096 9.50946 21.7187 9.6004L21.6443 9.67481C21.5699 9.75748 21.4954 9.83189 21.4376 9.89803C21.3714 9.97243 21.297 10.0551 21.2226 10.1543L21.049 10.3693C20.9415 10.5098 20.7845 10.5925 20.6191 10.6256L20.3463 10.6752C19.8585 10.7578 19.3955 10.8736 18.9739 11.0141C18.8416 11.1216 18.6846 11.1712 18.5275 11.1712C16.8823 11.8161 15.8241 12.8577 15.3032 14.0234C14.9808 14.751 14.865 15.5364 14.9394 16.2969C15.0139 17.0741 15.2784 17.8347 15.7331 18.5126C16.1382 19.1161 16.6839 19.6618 17.3783 20.0917ZM17.0394 5.98758C17.337 6.07852 17.6263 6.17772 17.9074 6.30173C18.1885 6.41748 18.4696 6.54975 18.7424 6.69857L20.1231 5.31792L19.4121 2.6641L17.0394 4.03648V5.98758ZM17.37 7.59971C16.9897 7.44263 16.6094 7.31035 16.2209 7.21941C15.8819 7.16154 15.6256 6.87218 15.6256 6.51669V3.63138C15.6256 3.39163 15.7496 3.15188 15.9811 3.02787L19.4699 1.01064C19.5361 0.9693 19.6022 0.936231 19.6766 0.919696C20.0487 0.820488 20.4372 1.04371 20.5364 1.41574L21.5781 5.30965C21.6525 5.55767 21.5947 5.8305 21.4045 6.02891L19.3625 8.07095H19.3542C19.131 8.29416 18.7755 8.34377 18.4944 8.17015C18.1389 7.9552 17.7586 7.76505 17.37 7.59971ZM4.41512 21.0176L5.79577 19.637C5.65522 19.3641 5.52295 19.083 5.39894 18.802C5.28319 18.5209 5.17572 18.2315 5.08478 17.9339H3.14195L1.76957 20.3066L4.41512 21.0176ZM7.17641 20.257L5.12611 22.299C4.9525 22.4727 4.69621 22.5471 4.44819 22.4809L0.521205 21.431V21.4227C0.463334 21.4144 0.405463 21.3896 0.355859 21.3566C0.0168977 21.1664 -0.0988451 20.7365 0.0913037 20.3976L2.092 16.9335C2.20774 16.6938 2.4475 16.5202 2.73685 16.5202H5.62215V16.5284C5.93631 16.5284 6.22567 16.7434 6.30834 17.0658C6.40755 17.4709 6.53983 17.8677 6.69691 18.2646C6.85399 18.6366 7.04414 19.0004 7.25082 19.3476C7.44924 19.6204 7.42443 20.009 7.17641 20.257ZM9.0779 27.6149L11.4506 26.2426V24.2915C11.153 24.2005 10.8636 24.1013 10.5826 23.9773C10.2932 23.8616 10.0204 23.7293 9.74756 23.5887L8.36691 24.9694L8.71414 26.2674L8.72241 26.317L8.78028 26.5071L9.0779 27.6149ZM12.5088 27.2594L9.03657 29.2601C8.97043 29.3097 8.89602 29.3428 8.81335 29.3593C8.44132 29.4668 8.05275 29.2436 7.95354 28.8633L7.42443 26.8709L7.37483 26.689L7.3583 26.6311L6.91186 24.9694C6.82919 24.7296 6.88706 24.4485 7.08547 24.2584L9.12751 22.2081C9.35899 21.9849 9.71449 21.9353 9.99558 22.1089C10.3511 22.3238 10.7314 22.5223 11.1199 22.6793C11.492 22.8364 11.8805 22.9687 12.2691 23.0596C12.6081 23.1175 12.8643 23.4069 12.8643 23.7624V26.6477H12.8561C12.8561 26.8957 12.7321 27.1272 12.5088 27.2594ZM8.36691 5.31792L9.74756 6.69857C10.0204 6.54975 10.2932 6.41748 10.5826 6.30173C10.8636 6.18599 11.153 6.07852 11.4506 5.98758V4.03648L9.0779 2.6641L8.36691 5.31792ZM9.12751 8.07095L7.08547 6.02891C6.91186 5.8553 6.83745 5.59901 6.90359 5.34272L7.95354 1.41574C7.97008 1.35787 7.99488 1.29999 8.02795 1.25039C8.2181 0.911429 8.648 0.795686 8.98696 0.985835L12.451 2.98653C12.6907 3.10227 12.8643 3.34203 12.8643 3.63138V6.52495H12.8561C12.8561 6.83911 12.6411 7.12847 12.3187 7.20287C11.9136 7.30208 11.5085 7.43436 11.1199 7.59971C10.7396 7.75679 10.3841 7.93867 10.0369 8.14535C9.76409 8.34377 9.37553 8.31897 9.12751 8.07095ZM1.76957 9.97243L3.14195 12.3452H5.08478C5.17572 12.0475 5.28319 11.7582 5.39894 11.4771C5.52295 11.196 5.65522 10.9149 5.79577 10.6421L4.41512 9.26144L1.76957 9.97243ZM2.12507 13.4034L0.124373 9.9311C0.0830364 9.86496 0.0416997 9.79055 0.025165 9.71615C-0.0740431 9.33585 0.149175 8.95555 0.521205 8.84808L4.40686 7.80639C4.65488 7.73198 4.93597 7.78986 5.12611 7.98L7.17641 10.0303C7.39963 10.2535 7.44924 10.609 7.27562 10.8901C7.06067 11.2456 6.86226 11.6259 6.69691 12.0227C6.5481 12.3948 6.41582 12.7751 6.31661 13.1636C6.26701 13.5026 5.97765 13.7589 5.62215 13.7589H2.73685C2.4971 13.7589 2.25735 13.6266 2.12507 13.4034ZM18.9326 25.1595C17.2956 26.4658 16.7252 27.5736 16.7417 28.3838C16.7583 29.0452 17.2212 29.4999 17.7669 29.6487C18.3125 29.7892 18.9408 29.6322 19.2715 29.07C19.6766 28.3755 19.718 27.1189 18.9326 25.1595ZM15.3363 28.4086C15.3115 27.0941 16.1795 25.3662 18.7755 23.5143C18.8168 23.473 18.8664 23.4399 18.9243 23.4151C19.2798 23.2498 19.7014 23.4069 19.8585 23.7624C21.2309 26.689 21.1482 28.6401 20.4786 29.781C19.7841 30.9549 18.5109 31.3022 17.4114 31.0045C16.3036 30.7069 15.3693 29.781 15.3363 28.4086ZM38.0963 25.1595C36.4676 26.4658 35.8889 27.5736 35.9054 28.3838C35.922 29.0452 36.3932 29.4999 36.9388 29.6487C37.4845 29.7892 38.1045 29.6322 38.4352 29.07C38.8486 28.3673 38.8817 27.1189 38.0963 25.1595ZM34.5082 28.4086C34.4752 27.0941 35.3515 25.3662 37.9392 23.5143C37.9888 23.473 38.0384 23.4399 38.0963 23.4151C38.4435 23.2498 38.8651 23.4069 39.0305 23.7624C40.3946 26.689 40.3119 28.6401 39.6505 29.781C38.9561 30.9549 37.6829 31.3022 36.5751 31.0045C35.4755 30.7069 34.533 29.781 34.5082 28.4086ZM28.8038 25.1595C27.1668 26.4658 26.5964 27.5736 26.6129 28.3838C26.6295 29.0452 27.0924 29.4999 27.6463 29.6487C28.1837 29.7892 28.812 29.6322 29.1427 29.07C29.5478 28.3755 29.5892 27.1189 28.8038 25.1595ZM25.2075 28.4086C25.1827 27.0941 26.059 25.3662 28.6467 23.5143C28.688 23.473 28.7376 23.4399 28.7955 23.4151C29.151 23.2498 29.5726 23.4069 29.7297 23.7624C31.1021 26.689 31.0194 28.6401 30.3498 29.781C29.6553 30.9549 28.3821 31.3022 27.2826 31.0045C26.1748 30.7069 25.2406 29.781 25.2075 28.4086Z" fill="#364F6B" stroke="#BDBDBD" stroke-width="0.0755906" mask="url(#path-4-inside-1_187_2088)"/>
<path d="M53.24 23.5L50.46 10.38H52.18L53.56 17.52C53.68 18.2267 53.8067 18.9333 53.94 19.64C54.0733 20.3467 54.2 21.0533 54.32 21.76H54.4C54.5467 21.0533 54.7 20.3467 54.86 19.64C55.02 18.92 55.1733 18.2133 55.32 17.52L57.14 10.38H58.66L60.48 17.52C60.64 18.2133 60.8 18.92 60.96 19.64C61.12 20.3467 61.28 21.0533 61.44 21.76H61.52C61.64 21.0533 61.76 20.3467 61.88 19.64C62 18.92 62.1267 18.2133 62.26 17.52L63.64 10.38H65.24L62.52 23.5H60.52L58.54 15.6C58.42 15.0933 58.3067 14.6 58.2 14.12C58.1067 13.6267 58.0067 13.1267 57.9 12.62H57.82C57.7267 13.1267 57.62 13.6267 57.5 14.12C57.38 14.6 57.2667 15.0933 57.16 15.6L55.22 23.5H53.24ZM71.3027 23.74C70.436 23.74 69.6493 23.54 68.9427 23.14C68.236 22.7267 67.676 22.14 67.2627 21.38C66.8493 20.62 66.6427 19.7133 66.6427 18.66C66.6427 17.5933 66.8493 16.68 67.2627 15.92C67.6893 15.16 68.236 14.5733 68.9027 14.16C69.5693 13.7467 70.2693 13.54 71.0027 13.54C72.2427 13.54 73.196 13.9533 73.8627 14.78C74.5427 15.6067 74.8827 16.7133 74.8827 18.1C74.8827 18.2733 74.876 18.4467 74.8627 18.62C74.8627 18.78 74.8493 18.92 74.8227 19.04H68.2627C68.3293 20.0667 68.6493 20.8867 69.2227 21.5C69.8093 22.1133 70.5693 22.42 71.5027 22.42C71.9693 22.42 72.396 22.3533 72.7827 22.22C73.1827 22.0733 73.5627 21.8867 73.9227 21.66L74.5027 22.74C74.0893 23.0067 73.616 23.24 73.0827 23.44C72.5627 23.64 71.9693 23.74 71.3027 23.74ZM68.2427 17.86H73.4427C73.4427 16.8733 73.2293 16.1267 72.8027 15.62C72.3893 15.1 71.8027 14.84 71.0427 14.84C70.3627 14.84 69.7493 15.1067 69.2027 15.64C68.6693 16.16 68.3493 16.9 68.2427 17.86ZM79.2511 23.74C78.4378 23.74 77.7578 23.5 77.2111 23.02C76.6778 22.5267 76.4111 21.8467 76.4111 20.98C76.4111 19.9133 76.8844 19.1 77.8311 18.54C78.7911 17.9667 80.3044 17.5667 82.3711 17.34C82.3711 16.9267 82.3111 16.5333 82.1911 16.16C82.0844 15.7867 81.8844 15.4867 81.5911 15.26C81.3111 15.02 80.9044 14.9 80.3711 14.9C79.8111 14.9 79.2844 15.0067 78.7911 15.22C78.2978 15.4333 77.8578 15.6733 77.4711 15.94L76.8311 14.8C77.2844 14.5067 77.8378 14.2267 78.4911 13.96C79.1578 13.68 79.8778 13.54 80.6511 13.54C81.8378 13.54 82.6978 13.9067 83.2311 14.64C83.7644 15.36 84.0311 16.3267 84.0311 17.54V23.5H82.6711L82.5311 22.34H82.4711C82.0178 22.7133 81.5178 23.04 80.9711 23.32C80.4378 23.6 79.8644 23.74 79.2511 23.74ZM79.7311 22.42C80.1978 22.42 80.6378 22.3067 81.0511 22.08C81.4644 21.8533 81.9044 21.5333 82.3711 21.12V18.42C80.7578 18.62 79.6244 18.92 78.9711 19.32C78.3311 19.72 78.0111 20.2333 78.0111 20.86C78.0111 21.4067 78.1778 21.8067 78.5111 22.06C78.8444 22.3 79.2511 22.42 79.7311 22.42ZM89.8758 23.74C88.8358 23.74 88.1091 23.44 87.6958 22.84C87.2958 22.24 87.0958 21.46 87.0958 20.5V15.12H85.6558V13.88L87.1758 13.78L87.3758 11.06H88.7558V13.78H91.3758V15.12H88.7558V20.52C88.7558 21.12 88.8624 21.5867 89.0758 21.92C89.3024 22.24 89.6958 22.4 90.2558 22.4C90.4291 22.4 90.6158 22.3733 90.8158 22.32C91.0158 22.2533 91.1958 22.1933 91.3558 22.14L91.6758 23.38C91.4091 23.4733 91.1158 23.5533 90.7958 23.62C90.4891 23.7 90.1824 23.74 89.8758 23.74ZM93.5736 23.5V9.26H95.2136V13.14L95.1536 15.14C95.6203 14.7 96.1069 14.3267 96.6136 14.02C97.1336 13.7 97.7269 13.54 98.3936 13.54C99.4203 13.54 100.167 13.8667 100.634 14.52C101.114 15.16 101.354 16.1 101.354 17.34V23.5H99.7136V17.56C99.7136 16.6533 99.5669 15.9933 99.2736 15.58C98.9803 15.1667 98.5136 14.96 97.8736 14.96C97.3803 14.96 96.9336 15.0867 96.5336 15.34C96.1469 15.5933 95.7069 15.9667 95.2136 16.46V23.5H93.5736ZM108.393 23.74C107.526 23.74 106.739 23.54 106.033 23.14C105.326 22.7267 104.766 22.14 104.353 21.38C103.939 20.62 103.733 19.7133 103.733 18.66C103.733 17.5933 103.939 16.68 104.353 15.92C104.779 15.16 105.326 14.5733 105.993 14.16C106.659 13.7467 107.359 13.54 108.092 13.54C109.333 13.54 110.286 13.9533 110.953 14.78C111.633 15.6067 111.973 16.7133 111.973 18.1C111.973 18.2733 111.966 18.4467 111.953 18.62C111.953 18.78 111.939 18.92 111.913 19.04H105.353C105.419 20.0667 105.739 20.8867 106.313 21.5C106.899 22.1133 107.659 22.42 108.593 22.42C109.059 22.42 109.486 22.3533 109.873 22.22C110.273 22.0733 110.653 21.8867 111.013 21.66L111.593 22.74C111.179 23.0067 110.706 23.24 110.173 23.44C109.653 23.64 109.059 23.74 108.393 23.74ZM105.333 17.86H110.533C110.533 16.8733 110.319 16.1267 109.893 15.62C109.479 15.1 108.893 14.84 108.133 14.84C107.453 14.84 106.839 15.1067 106.293 15.64C105.759 16.16 105.439 16.9 105.333 17.86ZM114.374 23.5V13.78H115.734L115.874 15.54H115.934C116.268 14.9267 116.674 14.44 117.154 14.08C117.634 13.72 118.148 13.54 118.694 13.54C119.081 13.54 119.428 13.6067 119.734 13.74L119.414 15.18C119.254 15.1267 119.108 15.0867 118.974 15.06C118.841 15.0333 118.674 15.02 118.474 15.02C118.061 15.02 117.628 15.1867 117.174 15.52C116.734 15.8533 116.348 16.4333 116.014 17.26V23.5H114.374ZM127.732 16.16L127.112 18.16H131.052L130.432 16.16C130.192 15.4267 129.965 14.7 129.752 13.98C129.539 13.2467 129.325 12.5 129.112 11.74H129.032C128.832 12.5 128.625 13.2467 128.412 13.98C128.199 14.7 127.972 15.4267 127.732 16.16ZM123.732 23.5L128.172 10.38H130.052L134.492 23.5H132.712L131.472 19.5H126.692L125.432 23.5H123.732ZM137.931 23.74C137.317 23.74 136.871 23.5533 136.591 23.18C136.324 22.7933 136.191 22.2467 136.191 21.54V9.26H137.831V21.66C137.831 21.9133 137.877 22.1 137.971 22.22C138.064 22.3267 138.171 22.38 138.291 22.38C138.344 22.38 138.391 22.38 138.431 22.38C138.484 22.3667 138.557 22.3533 138.651 22.34L138.871 23.58C138.764 23.6333 138.637 23.6733 138.491 23.7C138.344 23.7267 138.157 23.74 137.931 23.74ZM145.228 23.74C144.362 23.74 143.575 23.54 142.868 23.14C142.162 22.7267 141.602 22.14 141.188 21.38C140.775 20.62 140.568 19.7133 140.568 18.66C140.568 17.5933 140.775 16.68 141.188 15.92C141.615 15.16 142.162 14.5733 142.828 14.16C143.495 13.7467 144.195 13.54 144.928 13.54C146.168 13.54 147.122 13.9533 147.788 14.78C148.468 15.6067 148.808 16.7133 148.808 18.1C148.808 18.2733 148.802 18.4467 148.788 18.62C148.788 18.78 148.775 18.92 148.748 19.04H142.188C142.255 20.0667 142.575 20.8867 143.148 21.5C143.735 22.1133 144.495 22.42 145.428 22.42C145.895 22.42 146.322 22.3533 146.708 22.22C147.108 22.0733 147.488 21.8867 147.848 21.66L148.428 22.74C148.015 23.0067 147.542 23.24 147.008 23.44C146.488 23.64 145.895 23.74 145.228 23.74ZM142.168 17.86H147.368C147.368 16.8733 147.155 16.1267 146.728 15.62C146.315 15.1 145.728 14.84 144.968 14.84C144.288 14.84 143.675 15.1067 143.128 15.64C142.595 16.16 142.275 16.9 142.168 17.86ZM151.21 23.5V13.78H152.57L152.71 15.54H152.77C153.104 14.9267 153.51 14.44 153.99 14.08C154.47 13.72 154.984 13.54 155.53 13.54C155.917 13.54 156.264 13.6067 156.57 13.74L156.25 15.18C156.09 15.1267 155.944 15.0867 155.81 15.06C155.677 15.0333 155.51 15.02 155.31 15.02C154.897 15.02 154.464 15.1867 154.01 15.52C153.57 15.8533 153.184 16.4333 152.85 17.26V23.5H151.21ZM161.204 23.74C160.164 23.74 159.437 23.44 159.024 22.84C158.624 22.24 158.424 21.46 158.424 20.5V15.12H156.984V13.88L158.504 13.78L158.704 11.06H160.084V13.78H162.704V15.12H160.084V20.52C160.084 21.12 160.191 21.5867 160.404 21.92C160.631 22.24 161.024 22.4 161.584 22.4C161.757 22.4 161.944 22.3733 162.144 22.32C162.344 22.2533 162.524 22.1933 162.684 22.14L163.004 23.38C162.737 23.4733 162.444 23.5533 162.124 23.62C161.817 23.7 161.511 23.74 161.204 23.74ZM167.246 23.74C166.553 23.74 165.893 23.6133 165.266 23.36C164.64 23.0933 164.093 22.7733 163.626 22.4L164.446 21.3C164.873 21.6333 165.313 21.9133 165.766 22.14C166.22 22.3533 166.733 22.46 167.306 22.46C167.946 22.46 168.426 22.3133 168.746 22.02C169.066 21.7133 169.226 21.3533 169.226 20.94C169.226 20.6067 169.113 20.3267 168.886 20.1C168.673 19.8733 168.393 19.6867 168.046 19.54C167.713 19.38 167.366 19.2333 167.006 19.1C166.553 18.9267 166.106 18.7333 165.666 18.52C165.226 18.2933 164.866 18.0067 164.586 17.66C164.306 17.3 164.166 16.8467 164.166 16.3C164.166 15.5133 164.46 14.86 165.046 14.34C165.646 13.8067 166.473 13.54 167.526 13.54C168.126 13.54 168.686 13.6467 169.206 13.86C169.726 14.0733 170.173 14.3333 170.546 14.64L169.746 15.68C169.413 15.4267 169.066 15.22 168.706 15.06C168.346 14.9 167.953 14.82 167.526 14.82C166.913 14.82 166.46 14.96 166.166 15.24C165.886 15.52 165.746 15.8467 165.746 16.22C165.746 16.5267 165.846 16.78 166.046 16.98C166.246 17.1667 166.506 17.3333 166.826 17.48C167.146 17.6133 167.486 17.7533 167.846 17.9C168.313 18.0733 168.773 18.2733 169.226 18.5C169.68 18.7133 170.053 19.0067 170.346 19.38C170.653 19.74 170.806 20.2267 170.806 20.84C170.806 21.36 170.666 21.84 170.386 22.28C170.12 22.72 169.72 23.0733 169.186 23.34C168.666 23.6067 168.02 23.74 167.246 23.74Z" fill="#333333"/>
</svg>
