<svg width="194" height="26" viewBox="0 0 194 26" fill="none" xmlns="http://www.w3.org/2000/svg">
<rect width="194" height="25" transform="translate(0 0.5)" fill="white"/>
<path d="M2.18182 4.27273V17.3636H21.8182V4.27273H2.18182ZM2.18182 2.09091H21.8182C22.3968 2.09091 22.9518 2.32078 23.361 2.72995C23.7701 3.13912 24 3.69407 24 4.27273V17.3636C24 17.9418 23.7709 18.4982 23.3564 18.9018C22.9527 19.3164 22.3964 19.5455 21.8182 19.5455H14.1818V21.7273H16.3636V23.9091H7.63636V21.7273H9.81818V19.5455H2.18182C1.60364 19.5455 1.04727 19.3164 0.643636 18.9018C0.229091 18.4982 0 17.9418 0 17.3636V4.27273C0 3.06182 0.970909 2.09091 2.18182 2.09091ZM9.89454 13C10.1672 13.2832 10.4942 13.5085 10.856 13.6624C11.2178 13.8163 11.6069 13.8956 12 13.8956C12.3931 13.8956 12.7822 13.8163 13.144 13.6624C13.5058 13.5085 13.8328 13.2832 14.1055 13C14.6618 12.4545 14.9782 11.7018 14.9782 10.9164C14.9782 10.1309 14.6618 9.36727 14.1055 8.81091C13.5491 8.25455 12.7855 7.93818 12 7.93818C11.2145 7.93818 10.4509 8.25455 9.89454 8.81091C9.33818 9.36727 9.02182 10.1309 9.02182 10.9164C9.02182 11.7018 9.33818 12.4545 9.89454 13ZM5.45455 10.9164C5.9715 9.60147 6.87232 8.47266 8.03975 7.67686C9.20718 6.88107 10.5871 6.45515 12 6.45455C14.9782 6.45455 17.52 8.30909 18.5455 10.9164C18.0322 12.2338 17.1323 13.365 15.964 14.1614C14.7958 14.9577 13.4139 15.3819 12 15.3782C9.02182 15.3782 6.48 13.5455 5.45455 10.9164Z" fill="url(#paint0_linear_187_2243)"/>
<path d="M12 9.12726C11.5309 9.12726 11.0727 9.32363 10.7345 9.6509C10.4073 9.98908 10.2109 10.4473 10.2109 10.9164C10.2109 11.3964 10.4073 11.8436 10.7345 12.1818C11.0727 12.5091 11.5309 12.7054 12 12.7054C12.4691 12.7054 12.9273 12.52 13.2654 12.1818C13.5927 11.8436 13.7891 11.3964 13.7891 10.9164C13.7891 10.4473 13.5927 9.98908 13.2654 9.66181C12.9273 9.32363 12.4691 9.13817 12 9.12726Z" fill="#FFC514"/>
<path d="M35.24 20.5L32.46 7.38H34.18L35.56 14.52C35.68 15.2267 35.8067 15.9333 35.94 16.64C36.0733 17.3467 36.2 18.0533 36.32 18.76H36.4C36.5467 18.0533 36.7 17.3467 36.86 16.64C37.02 15.92 37.1733 15.2133 37.32 14.52L39.14 7.38H40.66L42.48 14.52C42.64 15.2133 42.8 15.92 42.96 16.64C43.12 17.3467 43.28 18.0533 43.44 18.76H43.52C43.64 18.0533 43.76 17.3467 43.88 16.64C44 15.92 44.1267 15.2133 44.26 14.52L45.64 7.38H47.24L44.52 20.5H42.52L40.54 12.6C40.42 12.0933 40.3067 11.6 40.2 11.12C40.1067 10.6267 40.0067 10.1267 39.9 9.62H39.82C39.7267 10.1267 39.62 10.6267 39.5 11.12C39.38 11.6 39.2667 12.0933 39.16 12.6L37.22 20.5H35.24ZM53.3027 20.74C52.436 20.74 51.6493 20.54 50.9427 20.14C50.236 19.7267 49.676 19.14 49.2627 18.38C48.8493 17.62 48.6427 16.7133 48.6427 15.66C48.6427 14.5933 48.8493 13.68 49.2627 12.92C49.6893 12.16 50.236 11.5733 50.9027 11.16C51.5693 10.7467 52.2693 10.54 53.0027 10.54C54.2427 10.54 55.196 10.9533 55.8627 11.78C56.5427 12.6067 56.8827 13.7133 56.8827 15.1C56.8827 15.2733 56.876 15.4467 56.8627 15.62C56.8627 15.78 56.8493 15.92 56.8227 16.04H50.2627C50.3293 17.0667 50.6493 17.8867 51.2227 18.5C51.8093 19.1133 52.5693 19.42 53.5027 19.42C53.9693 19.42 54.396 19.3533 54.7827 19.22C55.1827 19.0733 55.5627 18.8867 55.9227 18.66L56.5027 19.74C56.0893 20.0067 55.616 20.24 55.0827 20.44C54.5627 20.64 53.9693 20.74 53.3027 20.74ZM50.2427 14.86H55.4427C55.4427 13.8733 55.2293 13.1267 54.8027 12.62C54.3893 12.1 53.8027 11.84 53.0427 11.84C52.3627 11.84 51.7493 12.1067 51.2027 12.64C50.6693 13.16 50.3493 13.9 50.2427 14.86ZM63.5845 20.74C63.1312 20.74 62.6579 20.6333 62.1645 20.42C61.6845 20.1933 61.2312 19.8867 60.8045 19.5H60.7445L60.6045 20.5H59.2845V6.26H60.9245V10.14L60.8845 11.9C61.3245 11.5133 61.8045 11.1933 62.3245 10.94C62.8579 10.6733 63.3912 10.54 63.9245 10.54C65.1912 10.54 66.1512 10.9867 66.8045 11.88C67.4579 12.7733 67.7845 13.9733 67.7845 15.48C67.7845 16.5867 67.5845 17.5333 67.1845 18.32C66.7979 19.1067 66.2845 19.7067 65.6445 20.12C65.0179 20.5333 64.3312 20.74 63.5845 20.74ZM63.3045 19.36C64.1045 19.36 64.7645 19.02 65.2845 18.34C65.8179 17.6467 66.0845 16.7 66.0845 15.5C66.0845 14.4333 65.8845 13.5733 65.4845 12.92C65.0979 12.2533 64.4445 11.92 63.5245 11.92C63.1112 11.92 62.6912 12.0333 62.2645 12.26C61.8379 12.4867 61.3912 12.8133 60.9245 13.24V18.34C61.3512 18.7133 61.7712 18.98 62.1845 19.14C62.6112 19.2867 62.9845 19.36 63.3045 19.36ZM72.8792 20.74C72.1859 20.74 71.5259 20.6133 70.8992 20.36C70.2726 20.0933 69.7259 19.7733 69.2592 19.4L70.0792 18.3C70.5059 18.6333 70.9459 18.9133 71.3992 19.14C71.8526 19.3533 72.3659 19.46 72.9392 19.46C73.5792 19.46 74.0592 19.3133 74.3792 19.02C74.6992 18.7133 74.8592 18.3533 74.8592 17.94C74.8592 17.6067 74.7459 17.3267 74.5192 17.1C74.3059 16.8733 74.0259 16.6867 73.6792 16.54C73.3459 16.38 72.9992 16.2333 72.6392 16.1C72.1859 15.9267 71.7392 15.7333 71.2992 15.52C70.8592 15.2933 70.4992 15.0067 70.2192 14.66C69.9392 14.3 69.7992 13.8467 69.7992 13.3C69.7992 12.5133 70.0926 11.86 70.6792 11.34C71.2792 10.8067 72.1059 10.54 73.1592 10.54C73.7592 10.54 74.3192 10.6467 74.8392 10.86C75.3592 11.0733 75.8059 11.3333 76.1792 11.64L75.3792 12.68C75.0459 12.4267 74.6992 12.22 74.3392 12.06C73.9792 11.9 73.5859 11.82 73.1592 11.82C72.5459 11.82 72.0926 11.96 71.7992 12.24C71.5192 12.52 71.3792 12.8467 71.3792 13.22C71.3792 13.5267 71.4792 13.78 71.6792 13.98C71.8792 14.1667 72.1392 14.3333 72.4592 14.48C72.7792 14.6133 73.1192 14.7533 73.4792 14.9C73.9459 15.0733 74.4059 15.2733 74.8592 15.5C75.3126 15.7133 75.6859 16.0067 75.9792 16.38C76.2859 16.74 76.4392 17.2267 76.4392 17.84C76.4392 18.36 76.2992 18.84 76.0192 19.28C75.7526 19.72 75.3526 20.0733 74.8192 20.34C74.2992 20.6067 73.6526 20.74 72.8792 20.74ZM78.7181 20.5V10.78H80.3581V20.5H78.7181ZM79.5581 8.78C79.2381 8.78 78.9715 8.68667 78.7581 8.5C78.5581 8.3 78.4581 8.03333 78.4581 7.7C78.4581 7.38 78.5581 7.12 78.7581 6.92C78.9715 6.72 79.2381 6.62 79.5581 6.62C79.8781 6.62 80.1381 6.72 80.3381 6.92C80.5515 7.12 80.6581 7.38 80.6581 7.7C80.6581 8.03333 80.5515 8.3 80.3381 8.5C80.1381 8.68667 79.8781 8.78 79.5581 8.78ZM86.7 20.74C85.66 20.74 84.9333 20.44 84.52 19.84C84.12 19.24 83.92 18.46 83.92 17.5V12.12H82.48V10.88L84 10.78L84.2 8.06H85.58V10.78H88.2V12.12H85.58V17.52C85.58 18.12 85.6867 18.5867 85.9 18.92C86.1267 19.24 86.52 19.4 87.08 19.4C87.2533 19.4 87.44 19.3733 87.64 19.32C87.84 19.2533 88.02 19.1933 88.18 19.14L88.5 20.38C88.2333 20.4733 87.94 20.5533 87.62 20.62C87.3133 20.7 87.0067 20.74 86.7 20.74ZM94.0644 20.74C93.1977 20.74 92.411 20.54 91.7044 20.14C90.9977 19.7267 90.4377 19.14 90.0244 18.38C89.611 17.62 89.4044 16.7133 89.4044 15.66C89.4044 14.5933 89.611 13.68 90.0244 12.92C90.451 12.16 90.9977 11.5733 91.6644 11.16C92.331 10.7467 93.031 10.54 93.7644 10.54C95.0044 10.54 95.9577 10.9533 96.6244 11.78C97.3044 12.6067 97.6444 13.7133 97.6444 15.1C97.6444 15.2733 97.6377 15.4467 97.6244 15.62C97.6244 15.78 97.611 15.92 97.5844 16.04H91.0244C91.091 17.0667 91.411 17.8867 91.9844 18.5C92.571 19.1133 93.331 19.42 94.2644 19.42C94.731 19.42 95.1577 19.3533 95.5444 19.22C95.9444 19.0733 96.3244 18.8867 96.6844 18.66L97.2644 19.74C96.851 20.0067 96.3777 20.24 95.8444 20.44C95.3244 20.64 94.731 20.74 94.0644 20.74ZM91.0044 14.86H96.2044C96.2044 13.8733 95.991 13.1267 95.5644 12.62C95.151 12.1 94.5644 11.84 93.8044 11.84C93.1244 11.84 92.511 12.1067 91.9644 12.64C91.431 13.16 91.111 13.9 91.0044 14.86ZM104.21 20.5V7.38H106.21L108.73 14.38C108.89 14.8333 109.043 15.2933 109.19 15.76C109.35 16.2133 109.51 16.6667 109.67 17.12H109.75C109.91 16.6667 110.057 16.2133 110.19 15.76C110.337 15.2933 110.49 14.8333 110.65 14.38L113.13 7.38H115.15V20.5H113.59V13.28C113.59 12.6933 113.617 12.0467 113.67 11.34C113.723 10.62 113.77 9.97333 113.81 9.4H113.73L112.69 12.38L110.21 19.18H109.11L106.63 12.38L105.59 9.4H105.51C105.55 9.97333 105.59 10.62 105.63 11.34C105.683 12.0467 105.71 12.6933 105.71 13.28V20.5H104.21ZM122.361 20.74C121.575 20.74 120.835 20.54 120.141 20.14C119.461 19.74 118.908 19.16 118.481 18.4C118.068 17.64 117.861 16.7267 117.861 15.66C117.861 14.5667 118.068 13.64 118.481 12.88C118.908 12.12 119.461 11.54 120.141 11.14C120.835 10.74 121.575 10.54 122.361 10.54C123.161 10.54 123.901 10.74 124.581 11.14C125.261 11.54 125.808 12.12 126.221 12.88C126.648 13.64 126.861 14.5667 126.861 15.66C126.861 16.7267 126.648 17.64 126.221 18.4C125.808 19.16 125.261 19.74 124.581 20.14C123.901 20.54 123.161 20.74 122.361 20.74ZM122.361 19.38C123.201 19.38 123.875 19.04 124.381 18.36C124.901 17.6667 125.161 16.7667 125.161 15.66C125.161 14.54 124.901 13.6333 124.381 12.94C123.875 12.2467 123.201 11.9 122.361 11.9C121.535 11.9 120.861 12.2467 120.341 12.94C119.821 13.6333 119.561 14.54 119.561 15.66C119.561 16.7667 119.821 17.6667 120.341 18.36C120.861 19.04 121.535 19.38 122.361 19.38ZM129.421 20.5V10.78H130.781L130.921 12.18H130.981C131.448 11.7133 131.941 11.3267 132.461 11.02C132.981 10.7 133.575 10.54 134.241 10.54C135.268 10.54 136.015 10.8667 136.481 11.52C136.961 12.16 137.201 13.1 137.201 14.34V20.5H135.561V14.56C135.561 13.6533 135.415 12.9933 135.121 12.58C134.828 12.1667 134.361 11.96 133.721 11.96C133.228 11.96 132.781 12.0867 132.381 12.34C131.995 12.5933 131.555 12.9667 131.061 13.46V20.5H129.421ZM140.359 20.5V10.78H141.999V20.5H140.359ZM141.199 8.78C140.879 8.78 140.612 8.68667 140.399 8.5C140.199 8.3 140.099 8.03333 140.099 7.7C140.099 7.38 140.199 7.12 140.399 6.92C140.612 6.72 140.879 6.62 141.199 6.62C141.519 6.62 141.779 6.72 141.979 6.92C142.192 7.12 142.299 7.38 142.299 7.7C142.299 8.03333 142.192 8.3 141.979 8.5C141.779 8.68667 141.519 8.78 141.199 8.78ZM148.341 20.74C147.301 20.74 146.574 20.44 146.161 19.84C145.761 19.24 145.561 18.46 145.561 17.5V12.12H144.121V10.88L145.641 10.78L145.841 8.06H147.221V10.78H149.841V12.12H147.221V17.52C147.221 18.12 147.327 18.5867 147.541 18.92C147.767 19.24 148.161 19.4 148.721 19.4C148.894 19.4 149.081 19.3733 149.281 19.32C149.481 19.2533 149.661 19.1933 149.821 19.14L150.141 20.38C149.874 20.4733 149.581 20.5533 149.261 20.62C148.954 20.7 148.647 20.74 148.341 20.74ZM155.545 20.74C154.758 20.74 154.018 20.54 153.325 20.14C152.645 19.74 152.092 19.16 151.665 18.4C151.252 17.64 151.045 16.7267 151.045 15.66C151.045 14.5667 151.252 13.64 151.665 12.88C152.092 12.12 152.645 11.54 153.325 11.14C154.018 10.74 154.758 10.54 155.545 10.54C156.345 10.54 157.085 10.74 157.765 11.14C158.445 11.54 158.992 12.12 159.405 12.88C159.832 13.64 160.045 14.5667 160.045 15.66C160.045 16.7267 159.832 17.64 159.405 18.4C158.992 19.16 158.445 19.74 157.765 20.14C157.085 20.54 156.345 20.74 155.545 20.74ZM155.545 19.38C156.385 19.38 157.058 19.04 157.565 18.36C158.085 17.6667 158.345 16.7667 158.345 15.66C158.345 14.54 158.085 13.6333 157.565 12.94C157.058 12.2467 156.385 11.9 155.545 11.9C154.718 11.9 154.045 12.2467 153.525 12.94C153.005 13.6333 152.745 14.54 152.745 15.66C152.745 16.7667 153.005 17.6667 153.525 18.36C154.045 19.04 154.718 19.38 155.545 19.38ZM162.605 20.5V10.78H163.965L164.105 12.54H164.165C164.498 11.9267 164.905 11.44 165.385 11.08C165.865 10.72 166.378 10.54 166.925 10.54C167.312 10.54 167.658 10.6067 167.965 10.74L167.645 12.18C167.485 12.1267 167.338 12.0867 167.205 12.06C167.072 12.0333 166.905 12.02 166.705 12.02C166.292 12.02 165.858 12.1867 165.405 12.52C164.965 12.8533 164.578 13.4333 164.245 14.26V20.5H162.605ZM169.538 20.5V10.78H171.178V20.5H169.538ZM170.378 8.78C170.058 8.78 169.792 8.68667 169.578 8.5C169.378 8.3 169.278 8.03333 169.278 7.7C169.278 7.38 169.378 7.12 169.578 6.92C169.792 6.72 170.058 6.62 170.378 6.62C170.698 6.62 170.958 6.72 171.158 6.92C171.372 7.12 171.478 7.38 171.478 7.7C171.478 8.03333 171.372 8.3 171.158 8.5C170.958 8.68667 170.698 8.78 170.378 8.78ZM174.46 20.5V10.78H175.82L175.96 12.18H176.02C176.487 11.7133 176.98 11.3267 177.5 11.02C178.02 10.7 178.614 10.54 179.28 10.54C180.307 10.54 181.054 10.8667 181.52 11.52C182 12.16 182.24 13.1 182.24 14.34V20.5H180.6V14.56C180.6 13.6533 180.454 12.9933 180.16 12.58C179.867 12.1667 179.4 11.96 178.76 11.96C178.267 11.96 177.82 12.0867 177.42 12.34C177.034 12.5933 176.594 12.9667 176.1 13.46V20.5H174.46ZM188.678 24.98C187.491 24.98 186.524 24.7533 185.778 24.3C185.031 23.8467 184.658 23.2 184.658 22.36C184.658 21.9467 184.784 21.5467 185.038 21.16C185.291 20.7867 185.638 20.4533 186.078 20.16V20.08C185.838 19.9333 185.631 19.7267 185.458 19.46C185.298 19.1933 185.218 18.8733 185.218 18.5C185.218 18.0867 185.331 17.7267 185.558 17.42C185.784 17.1133 186.024 16.8733 186.278 16.7V16.62C185.958 16.3533 185.664 15.9933 185.398 15.54C185.144 15.0867 185.018 14.5733 185.018 14C185.018 13.2933 185.184 12.68 185.518 12.16C185.851 11.64 186.298 11.24 186.858 10.96C187.418 10.68 188.024 10.54 188.678 10.54C188.944 10.54 189.198 10.5667 189.438 10.62C189.678 10.66 189.884 10.7133 190.058 10.78H193.438V12.04H191.438C191.664 12.2533 191.851 12.54 191.998 12.9C192.158 13.2467 192.238 13.6267 192.238 14.04C192.238 14.7333 192.078 15.3333 191.758 15.84C191.438 16.3467 191.011 16.74 190.478 17.02C189.944 17.2867 189.344 17.42 188.678 17.42C188.158 17.42 187.671 17.3067 187.218 17.08C187.044 17.2267 186.898 17.3933 186.778 17.58C186.658 17.7533 186.598 17.9733 186.598 18.24C186.598 18.5467 186.718 18.8 186.958 19C187.211 19.2 187.664 19.3 188.318 19.3H190.198C191.331 19.3 192.178 19.4867 192.738 19.86C193.311 20.22 193.598 20.8067 193.598 21.62C193.598 22.22 193.398 22.7733 192.998 23.28C192.598 23.7867 192.031 24.1933 191.298 24.5C190.564 24.82 189.691 24.98 188.678 24.98ZM188.678 16.32C189.238 16.32 189.718 16.1133 190.118 15.7C190.531 15.2733 190.738 14.7067 190.738 14C190.738 13.2933 190.538 12.74 190.138 12.34C189.738 11.94 189.251 11.74 188.678 11.74C188.104 11.74 187.618 11.94 187.218 12.34C186.818 12.74 186.618 13.2933 186.618 14C186.618 14.7067 186.818 15.2733 187.218 15.7C187.631 16.1133 188.118 16.32 188.678 16.32ZM188.918 23.84C189.851 23.84 190.598 23.6333 191.158 23.22C191.718 22.82 191.998 22.3667 191.998 21.86C191.998 21.4067 191.824 21.0933 191.478 20.92C191.144 20.7467 190.664 20.66 190.038 20.66H188.358C188.171 20.66 187.964 20.6467 187.738 20.62C187.524 20.5933 187.311 20.5533 187.098 20.5C186.751 20.7533 186.498 21.02 186.338 21.3C186.178 21.58 186.098 21.86 186.098 22.14C186.098 22.66 186.344 23.0733 186.838 23.38C187.344 23.6867 188.038 23.84 188.918 23.84Z" fill="#333333"/>
<defs>
<linearGradient id="paint0_linear_187_2243" x1="12" y1="2.09091" x2="12" y2="23.9091" gradientUnits="userSpaceOnUse">
<stop offset="0.275742" stop-color="#0380DC"/>
<stop offset="1" stop-color="#0061D3"/>
</linearGradient>
</defs>
</svg>
