<svg width="30" height="30" viewBox="0 0 30 30" fill="none" xmlns="http://www.w3.org/2000/svg">
<path d="M2.72727 4.09092V20.4546H27.2727V4.09092H2.72727ZM2.72727 1.36365H27.2727C27.996 1.36365 28.6897 1.65098 29.2012 2.16245C29.7127 2.67391 30 3.3676 30 4.09092V20.4546C30 21.1773 29.7136 21.8727 29.1955 22.3773C28.6909 22.8955 27.9955 23.1818 27.2727 23.1818H17.7273V25.9091H20.4545V28.6364H9.54545V25.9091H12.2727V23.1818H2.72727C2.00455 23.1818 1.30909 22.8955 0.804545 22.3773C0.286364 21.8727 0 21.1773 0 20.4546V4.09092C0 2.57728 1.21364 1.36365 2.72727 1.36365ZM12.3682 15C12.709 15.354 13.1178 15.6357 13.57 15.828C14.0222 16.0204 14.5086 16.1196 15 16.1196C15.4914 16.1196 15.9778 16.0204 16.43 15.828C16.8822 15.6357 17.291 15.354 17.6318 15C18.3273 14.3182 18.7227 13.3773 18.7227 12.3955C18.7227 11.4136 18.3273 10.4591 17.6318 9.76365C16.9364 9.06819 15.9818 8.67274 15 8.67274C14.0182 8.67274 13.0636 9.06819 12.3682 9.76365C11.6727 10.4591 11.2773 11.4136 11.2773 12.3955C11.2773 13.3773 11.6727 14.3182 12.3682 15ZM6.81818 12.3955C7.46437 10.7519 8.5904 9.34083 10.0497 8.34609C11.509 7.35134 13.2339 6.81894 15 6.81819C18.7227 6.81819 21.9 9.13637 23.1818 12.3955C22.5402 14.0422 21.4153 15.4563 19.955 16.4517C18.4947 17.4472 16.7673 17.9774 15 17.9727C11.2773 17.9727 8.1 15.6818 6.81818 12.3955Z" fill="url(#paint0_linear_930_9504)"/>
<path d="M15 10.1591C14.4136 10.1591 13.8409 10.4045 13.4182 10.8136C13.0091 11.2364 12.7636 11.8091 12.7636 12.3955C12.7636 12.9955 13.0091 13.5545 13.4182 13.9773C13.8409 14.3864 14.4136 14.6318 15 14.6318C15.5864 14.6318 16.1591 14.4 16.5818 13.9773C16.9909 13.5545 17.2364 12.9955 17.2364 12.3955C17.2364 11.8091 16.9909 11.2364 16.5818 10.8273C16.1591 10.4045 15.5864 10.1727 15 10.1591Z" fill="#FFC514"/>
<defs>
<linearGradient id="paint0_linear_930_9504" x1="15" y1="1.36365" x2="15" y2="28.6364" gradientUnits="userSpaceOnUse">
<stop offset="0.275742" stop-color="#0380DC"/>
<stop offset="1" stop-color="#0061D3"/>
</linearGradient>
</defs>
</svg>
