<svg width="116" height="28" viewBox="0 0 116 28" fill="none" xmlns="http://www.w3.org/2000/svg">
<path d="M70.1172 26.9838V24.4358H71.3816V26.9838H70.1172ZM83.0516 18.2123C83.0126 17.6676 82.8575 17.1619 82.6237 16.734C82.39 16.3062 82.0797 15.9563 81.6901 15.6644C81.2902 15.3628 80.8337 15.1445 80.3478 15.0227C79.8214 14.881 79.2786 14.809 78.7335 14.8088C78.0072 14.8047 77.2894 14.9642 76.6333 15.2756C76.0291 15.5712 75.5077 16.0122 75.116 16.5591C74.7073 17.0839 74.3963 17.7058 74.1824 18.3873C73.9685 19.0688 73.8714 19.7679 73.8714 20.5074C73.8714 21.3631 73.9685 22.1408 74.1633 22.8605C74.3573 23.5809 74.669 24.2219 75.077 24.7475C75.4841 25.2699 76.0024 25.6951 76.5943 25.9921C77.2169 26.2839 77.9366 26.4398 78.7335 26.4398C79.3363 26.4398 79.881 26.342 80.3677 26.1479C80.8734 25.9531 81.3204 25.6811 81.7092 25.3312C82.0981 24.9813 82.4297 24.5726 82.6627 24.0859C82.8957 23.5993 83.0714 23.0553 83.1685 22.4907H84.102C84.0159 23.1966 83.8051 23.8816 83.4794 24.5138C83.1827 25.084 82.7801 25.5925 82.2929 26.0119C81.8259 26.4224 81.2843 26.7394 80.6977 26.9455C80.0949 27.1587 79.4532 27.2565 78.7725 27.2565C77.7227 27.2565 76.8464 27.0617 76.1077 26.7125C75.3689 26.3229 74.7661 25.8561 74.2993 25.2143C73.8325 24.5917 73.4825 23.872 73.2488 23.0553C73.03 22.2236 72.9189 21.3673 72.918 20.5074C72.918 19.6326 73.0349 18.7762 73.3076 17.9786C73.5597 17.2008 73.9295 16.501 74.4353 15.9173C74.941 15.3336 75.5247 14.847 76.2635 14.5169C76.9839 14.1663 77.8197 13.9913 78.7725 13.9913C79.4532 13.9913 80.1148 14.0891 80.6985 14.2442C81.3013 14.4191 81.8452 14.672 82.2937 15.0227C82.7642 15.3704 83.1552 15.8145 83.4404 16.3253C83.7323 16.8509 83.9072 17.4728 83.9852 18.2123H83.0714H83.0516ZM85.4826 20.6434C85.4826 19.7296 85.6002 18.8732 85.8722 18.0955C86.1251 17.3177 86.4941 16.598 86.9999 15.9754C87.4949 15.361 88.1191 14.8631 88.8281 14.5169C89.5485 14.1663 90.3844 13.9913 91.3371 13.9913C92.2707 13.9913 93.1072 14.1663 93.846 14.5169C94.5594 14.8565 95.1852 15.3555 95.675 15.9754C96.18 16.598 96.5307 17.2787 96.8027 18.0955C97.0555 18.9122 97.1923 19.7296 97.1923 20.6434C97.1923 21.5579 97.0747 22.4135 96.8027 23.2111C96.5693 23.9849 96.1862 24.7052 95.675 25.3312C95.178 25.934 94.5533 26.4189 93.846 26.7507C93.1271 27.1006 92.2905 27.2756 91.3371 27.2756C90.4035 27.2756 89.5676 27.1006 88.8281 26.7507C88.1252 26.4122 87.502 25.9284 86.9999 25.3312C86.514 24.7475 86.1251 24.0279 85.8722 23.2111C85.6002 22.4135 85.4826 21.538 85.4826 20.6434ZM86.3971 20.6434C86.3971 21.402 86.4941 22.121 86.708 22.8414C86.9121 23.5057 87.2278 24.1304 87.6416 24.6887C88.0472 25.2228 88.5651 25.6613 89.1589 25.973C89.7816 26.2839 90.4623 26.4398 91.2599 26.4398C91.9864 26.4461 92.7047 26.2864 93.3601 25.973C93.9603 25.6709 94.4803 25.2308 94.8774 24.6887C95.2912 24.1304 95.6069 23.5057 95.811 22.8414C96.0242 22.1607 96.122 21.4211 96.122 20.6434C96.122 19.8656 96.0051 19.1658 95.811 18.4454C95.5971 17.7647 95.2854 17.1427 94.8774 16.598C94.4694 16.0533 93.9438 15.6255 93.3601 15.3138C92.7375 15.0028 92.0568 14.847 91.2599 14.847C90.5332 14.8406 89.8146 15.0002 89.1589 15.3138C88.5587 15.6159 88.0387 16.056 87.6416 16.598C87.2278 17.1564 86.9121 17.7811 86.708 18.4454C86.514 19.1658 86.3971 19.8847 86.3971 20.6434ZM99.1176 14.303H100.051V16.8899H100.09C100.184 16.481 100.363 16.0964 100.615 15.7615C100.848 15.4115 101.159 15.0999 101.529 14.8279C101.892 14.5633 102.292 14.3535 102.715 14.2052C103.162 14.0651 103.628 13.9932 104.096 13.992C104.719 13.992 105.244 14.0692 105.672 14.2251C106.12 14.4 106.508 14.575 106.819 14.847C107.13 15.119 107.383 15.3917 107.559 15.7034C107.753 16.0143 107.87 16.3451 107.948 16.676H107.987C108.376 15.8004 108.862 15.1197 109.503 14.672C110.146 14.2251 110.982 13.9913 112.013 13.9913C112.577 13.9913 113.141 14.0891 113.608 14.2442C114.074 14.4191 114.522 14.672 114.872 15.0227C115.222 15.3733 115.494 15.8387 115.708 16.3643C115.902 16.909 116 17.5507 116 18.2903V26.9257H115.046V18.2315C115.046 17.4147 114.929 16.8119 114.656 16.3253C114.423 15.8783 114.112 15.5093 113.782 15.2756C113.451 15.0418 113.12 14.8859 112.751 14.8279C112.42 14.7889 112.148 14.7308 111.973 14.7308C111.409 14.7308 110.845 14.8279 110.378 15.0227C109.901 15.2247 109.471 15.5224 109.114 15.8975C108.764 16.3062 108.492 16.7723 108.278 17.3758C108.083 17.9786 107.986 18.6402 107.986 19.379V26.9257H107.052V18.2315C107.052 17.4537 106.935 16.8119 106.702 16.3451C106.469 15.8783 106.177 15.5284 105.866 15.2947C105.554 15.0616 105.224 14.9051 104.874 14.847C104.606 14.7829 104.332 14.7503 104.058 14.7499C103.609 14.7499 103.143 14.847 102.676 15.0028C102.209 15.1976 101.762 15.4505 101.373 15.8394C100.983 16.2283 100.652 16.6951 100.419 17.2979C100.186 17.9007 100.031 18.5814 100.031 19.3988V26.9264H99.097V14.2633H99.1168L99.1176 14.303Z" fill="white"/>
<path d="M38.8415 1.23345C37.4801 1.95313 36.9941 3.13961 36.9941 6.42631C36.9941 6.42631 37.6749 5.76471 38.6864 5.39568C39.4252 5.1428 40.0478 4.73408 40.4168 4.46208C41.5644 3.62552 41.7202 2.55519 41.7202 0.7468C41.7202 0.7468 39.853 0.68799 38.8415 1.23345Z" fill="#FFCB29"/>
<path d="M30.8676 2.01088C29.7781 2.98344 29.4473 4.51984 29.4473 4.51984L25.7908 18.5628L22.7761 7.04864C22.4843 5.84305 21.9396 4.30665 21.103 3.2944C20.0533 2.01088 17.8942 1.93296 17.6604 1.93296C17.4267 1.93296 15.2493 2.01088 14.1789 3.31424C13.3424 4.34488 12.7984 5.86216 12.5065 7.06775L9.49183 18.5819L5.87358 4.51984C5.87358 4.51984 5.56263 2.96359 4.45481 2.01088C2.6648 0.435526 0 0.766329 0 0.766329L6.94391 27.1004C6.94391 27.1004 9.23895 27.2754 10.3865 26.6726C11.8839 25.9139 12.6227 25.3112 13.5372 21.7128C14.3539 18.5231 16.6298 9.14813 16.8437 8.46742C16.9408 8.13661 17.0768 7.33975 17.6604 7.33975C18.2632 7.33975 18.3809 8.1175 18.4772 8.46742C18.6911 9.12902 20.9472 18.5238 21.7837 21.7128C22.6982 25.292 23.4179 25.875 24.9352 26.6726C26.0819 27.2754 28.3777 27.1004 28.3777 27.1004L35.3209 0.785442C35.3209 0.785442 32.6568 0.454639 30.8676 2.01088ZM41.7201 5.06456C41.7201 5.06456 41.2923 5.72616 40.3006 6.30911C39.6588 6.65976 39.0553 6.91191 38.3944 7.2236C37.305 7.74847 36.994 8.35127 36.994 9.2459V27.1019C36.994 27.1019 38.7635 27.3151 39.8919 26.7512C41.3694 25.9926 41.7002 25.2737 41.7201 21.9862V5.06456ZM59.0696 13.9918L67.8807 0.843516C67.8807 0.843516 64.1654 0.201759 62.3181 1.89473C61.1316 2.96359 59.8084 4.8896 59.8084 4.8896L56.5798 9.59656C56.4048 9.82959 56.2298 10.1023 55.899 10.1023C55.5682 10.1023 55.355 9.84944 55.2183 9.59656L51.9507 4.90871C51.9507 4.90871 50.6481 2.98271 49.4418 1.91385C47.6135 0.221607 43.8791 0.862629 43.8791 0.862629L52.7094 13.9727L43.8791 27.0622C43.8791 27.0622 47.7694 27.568 49.5976 25.8757C50.7841 24.8061 51.9316 23.036 51.9316 23.036L55.1602 18.3489C55.3352 18.1151 55.5102 17.8431 55.841 17.8431C56.1718 17.8431 56.3849 18.096 56.5217 18.3489L59.7503 23.036C59.7503 23.036 60.9559 24.7672 62.1233 25.8757C63.9515 27.568 67.7837 27.0622 67.7837 27.0622L59.0696 13.9918Z" fill="white"/>
</svg>
