<svg width="146" height="42" viewBox="0 0 146 42" fill="none" xmlns="http://www.w3.org/2000/svg">
<path d="M84.477 13.8984H78.7298V14.508C80.5275 14.508 80.8165 14.8933 80.8165 17.1728V21.283C80.8165 23.5625 80.528 23.9802 78.7298 23.9802C77.3498 23.7874 76.4181 23.049 75.1338 21.6361L73.6571 20.0309C75.6473 19.6773 76.7068 18.4254 76.7068 17.0125C76.7068 15.247 75.1982 13.8984 72.3725 13.8984H66.7218V14.508C68.5195 14.508 68.8085 14.8933 68.8085 17.1728V21.283C68.8085 23.5625 68.5198 23.9802 66.7218 23.9802V24.5902H73.1109V23.9802C71.3135 23.9802 71.0242 23.5625 71.0242 21.283V20.1277H71.5701L75.1341 24.5902H84.4773C89.0684 24.5902 91.0595 22.1503 91.0595 19.2282C91.0589 16.3063 89.0684 13.8984 84.477 13.8984ZM71.0245 19.1314V14.8617H72.3406C73.7852 14.8617 74.4276 15.8569 74.4276 17.0128C74.4276 18.1367 73.7852 19.1316 72.3406 19.1316L71.0245 19.1314ZM84.5735 23.5946H84.3486C83.193 23.5946 83.0324 23.3062 83.0324 21.8291V14.8617H84.5735C87.9126 14.8617 88.522 17.3015 88.522 19.196C88.5223 21.1543 87.9123 23.5946 84.5735 23.5946ZM48.839 20.3199L51.0541 13.7694C51.6965 11.8752 51.4077 11.3298 49.3527 11.3298V10.6874H55.3887V11.3298C53.3663 11.3298 52.8845 11.8111 52.082 14.1549L48.4215 25.1358H48.0043L44.7291 15.0861L41.3903 25.1358H40.9725L37.4088 14.1552C36.6382 11.8114 36.1245 11.3301 34.2622 11.3301V10.6877H41.39V11.3301C39.4952 11.3301 38.9815 11.7795 39.6561 13.7697L41.8072 20.3202L45.0497 10.6877H45.6602L48.839 20.3199ZM59.7549 25.0071C56.2233 25.0071 53.3336 22.4066 53.3336 19.2276C53.3336 16.0811 56.2233 13.4804 59.7549 13.4804C63.2865 13.4804 66.1762 16.0811 66.1762 19.2276C66.1762 22.4066 63.2867 25.0071 59.7549 25.0071ZM59.7549 14.4764C56.8014 14.4764 55.7734 17.1406 55.7734 19.2279C55.7734 21.3473 56.8014 23.9799 59.7549 23.9799C62.7411 23.9799 63.7685 21.3473 63.7685 19.2279C63.7685 17.1406 62.7411 14.4764 59.7549 14.4764Z" fill="white"/>
<path d="M98.9892 23.9478V24.5899H91.6367V23.9478C93.7881 23.9478 94.1733 23.4019 94.1733 20.1907V15.0542C94.1733 11.843 93.7881 11.3299 91.6367 11.3299V10.6872H98.2827C101.589 10.6872 103.42 12.3889 103.42 14.6689C103.42 16.8844 101.59 18.618 98.2827 18.618H96.4523V20.1907C96.4525 23.4022 96.8376 23.9478 98.9892 23.9478ZM98.2827 11.843H96.4523V17.43H98.2827C100.081 17.43 100.915 16.1779 100.915 14.6689C100.916 13.1278 100.081 11.843 98.2827 11.843ZM125.477 21.572L125.316 22.1498C125.028 23.2094 124.674 23.5947 122.394 23.5947H121.945C120.275 23.5947 119.986 23.2094 119.986 20.9302V19.4534C122.491 19.4534 122.684 19.6778 122.684 21.3476H123.294V16.5632H122.684C122.684 18.2327 122.491 18.4574 119.986 18.4574V14.8617H121.752C124.032 14.8617 124.385 15.247 124.674 16.3066L124.835 16.9165H125.348L125.124 13.8987H115.684V14.5083C117.482 14.5083 117.771 14.8936 117.771 17.1731V21.283C117.771 23.3684 117.526 23.8937 116.108 23.9689C114.761 23.7628 113.836 23.0283 112.57 21.6361L111.093 20.0309C113.084 19.6773 114.144 18.4255 114.144 17.0125C114.144 15.247 112.635 13.8984 109.809 13.8984H104.159V14.5081C105.956 14.5081 106.246 14.8933 106.246 17.1728V21.283C106.246 23.5625 105.957 23.9802 104.159 23.9802V24.5902H110.548V23.9802C108.751 23.9802 108.461 23.5625 108.461 21.283V20.1277H109.007L112.571 24.5902H125.767L125.959 21.5726L125.477 21.572ZM108.461 19.1314V14.8617H109.777C111.222 14.8617 111.864 15.8569 111.864 17.0128C111.864 18.1367 111.222 19.1317 109.777 19.1317L108.461 19.1314ZM131.995 25.0071C130.71 25.0071 129.586 24.3331 129.105 23.9153C128.944 24.0762 128.656 24.5577 128.591 25.0071H127.981V20.5765H128.623C128.881 22.6957 130.357 23.9478 132.251 23.9478C133.279 23.9478 134.114 23.3697 134.114 22.4069C134.114 21.5723 133.376 20.9299 132.059 20.32L130.229 19.4531C128.944 18.8426 127.981 17.7828 127.981 16.3707C127.981 14.8295 129.426 13.5134 131.417 13.5134C132.476 13.5134 133.375 13.8989 133.921 14.3483C134.082 14.2196 134.242 13.8665 134.339 13.4809H134.949V17.2699H134.274C134.049 15.7607 133.215 14.5086 131.513 14.5086C130.614 14.5086 129.779 15.022 129.779 15.8253C129.779 16.6599 130.454 17.1093 131.995 17.8155L133.76 18.6823C135.302 19.4207 135.911 20.6092 135.911 21.5723C135.911 23.5947 134.146 25.0071 131.995 25.0071ZM141.883 25.0071C140.599 25.0071 139.475 24.3331 138.994 23.9153C138.833 24.0762 138.544 24.5577 138.481 25.0071H137.87V20.5765H138.512C138.769 22.6957 140.246 23.9478 142.141 23.9478C143.168 23.9478 144.003 23.3697 144.003 22.4069C144.003 21.5723 143.264 20.9299 141.948 20.32L140.117 19.4531C138.833 18.8426 137.87 17.7828 137.87 16.3707C137.87 14.8295 139.315 13.5134 141.306 13.5134C142.365 13.5134 143.264 13.8989 143.81 14.3483C143.97 14.2196 144.131 13.8665 144.227 13.4809H144.837V17.2699H144.163C143.938 15.7607 143.104 14.5086 141.402 14.5086C140.503 14.5086 139.668 15.022 139.668 15.8253C139.668 16.6599 140.342 17.1093 141.884 17.8155L143.649 18.6823C145.19 19.4207 145.8 20.6092 145.8 21.5723C145.8 23.5947 144.034 25.0071 141.883 25.0071Z" fill="white"/>
<path d="M2.5542 17.4219C2.5542 23.0464 5.82271 27.9066 10.5623 30.2101L3.78439 11.6392C2.97187 13.4587 2.55267 15.4292 2.5542 17.4219ZM26.3554 16.7049C26.3554 14.9488 25.7247 13.7327 25.1837 12.7861C24.4634 11.6157 23.7885 10.6245 23.7885 9.45407C23.7885 8.14791 24.7789 6.93205 26.1743 6.93205C26.2373 6.93205 26.297 6.93989 26.3587 6.94341C23.8305 4.62742 20.4625 3.21338 16.7632 3.21338C11.7992 3.21338 7.43195 5.76027 4.89128 9.61791C5.22465 9.62792 5.53909 9.63468 5.80568 9.63468C7.2919 9.63468 9.59248 9.45434 9.59248 9.45434C10.3584 9.40919 10.4487 10.5342 9.68387 10.6248C9.68387 10.6248 8.91385 10.7153 8.05732 10.7602L13.2317 26.1511L16.3415 16.8252L14.1274 10.76C13.3623 10.7151 12.6374 10.6245 12.6374 10.6245C11.8717 10.5796 11.9615 9.40892 12.7272 9.45407C12.7272 9.45407 15.0737 9.63441 16.4699 9.63441C17.9558 9.63441 20.2567 9.45407 20.2567 9.45407C21.0232 9.40892 21.1132 10.5339 20.3478 10.6245C20.3478 10.6245 19.5764 10.7151 18.7215 10.76L23.8564 26.0343L25.2734 21.2982C25.888 19.3329 26.3554 17.9213 26.3554 16.7049Z" fill="white"/>
<path d="M17.0122 18.6646L12.749 31.0525C14.0524 31.4366 15.4042 31.6316 16.7629 31.6316C18.4176 31.6316 20.0044 31.3453 21.4814 30.8262C21.4418 30.7641 21.408 30.6986 21.3803 30.6304L17.0122 18.6646ZM29.2308 10.6046C29.2919 11.0572 29.3265 11.5433 29.3265 12.0657C29.3265 13.5076 29.0572 15.1284 28.2461 17.1551L23.9059 29.7038C28.1301 27.2405 30.9714 22.6639 30.9714 17.4217C30.9752 15.039 30.3765 12.6939 29.2308 10.6046Z" fill="white"/>
<path d="M16.7631 0.859131C7.6303 0.859131 0.199707 8.28918 0.199707 17.422C0.199707 26.5559 7.63003 33.986 16.7631 33.986C25.8957 33.986 33.3274 26.5562 33.3274 17.422C33.3271 8.28918 25.8957 0.859131 16.7631 0.859131ZM16.7631 33.2265C8.0491 33.2265 0.959177 26.1366 0.959177 17.422C0.959177 8.70825 8.04883 1.61887 16.7631 1.61887C25.4769 1.61887 32.5663 8.70825 32.5663 17.422C32.5663 26.1366 25.4766 33.2265 16.7631 33.2265Z" fill="white"/>
<path d="M48.944 38.1409L47.276 30.2689H48.308L49.136 34.5529C49.208 34.9769 49.284 35.4009 49.364 35.8249C49.444 36.2489 49.52 36.6729 49.592 37.0969H49.64C49.728 36.6729 49.82 36.2489 49.916 35.8249C50.012 35.3929 50.104 34.9689 50.192 34.5529L51.284 30.2689H52.196L53.288 34.5529C53.384 34.9689 53.48 35.3929 53.576 35.8249C53.672 36.2489 53.768 36.6729 53.864 37.0969H53.912C53.984 36.6729 54.056 36.2489 54.128 35.8249C54.2 35.3929 54.276 34.9689 54.356 34.5529L55.184 30.2689H56.144L54.512 38.1409H53.312L52.124 33.4009C52.052 33.0969 51.984 32.8009 51.92 32.5129C51.864 32.2169 51.804 31.9169 51.74 31.6129H51.692C51.636 31.9169 51.572 32.2169 51.5 32.5129C51.428 32.8009 51.36 33.0969 51.296 33.4009L50.132 38.1409H48.944ZM59.7816 38.2849C59.2616 38.2849 58.7896 38.1649 58.3656 37.9249C57.9416 37.6769 57.6056 37.3249 57.3576 36.8689C57.1096 36.4129 56.9856 35.8689 56.9856 35.2369C56.9856 34.5969 57.1096 34.0489 57.3576 33.5929C57.6136 33.1369 57.9416 32.7849 58.3416 32.5369C58.7416 32.2889 59.1616 32.1649 59.6016 32.1649C60.3456 32.1649 60.9176 32.4129 61.3176 32.9089C61.7256 33.4049 61.9296 34.0689 61.9296 34.9009C61.9296 35.0049 61.9256 35.1089 61.9176 35.2129C61.9176 35.3089 61.9096 35.3929 61.8936 35.4649H57.9576C57.9976 36.0809 58.1896 36.5729 58.5336 36.9409C58.8856 37.3089 59.3416 37.4929 59.9016 37.4929C60.1816 37.4929 60.4376 37.4529 60.6696 37.3729C60.9096 37.2849 61.1376 37.1729 61.3536 37.0369L61.7016 37.6849C61.4536 37.8449 61.1696 37.9849 60.8496 38.1049C60.5376 38.2249 60.1816 38.2849 59.7816 38.2849ZM57.9456 34.7569H61.0656C61.0656 34.1649 60.9376 33.7169 60.6816 33.4129C60.4336 33.1009 60.0816 32.9449 59.6256 32.9449C59.2176 32.9449 58.8496 33.1049 58.5216 33.4249C58.2016 33.7369 58.0096 34.1809 57.9456 34.7569ZM65.9507 38.2849C65.6787 38.2849 65.3947 38.2209 65.0987 38.0929C64.8107 37.9569 64.5387 37.7729 64.2827 37.5409H64.2467L64.1627 38.1409H63.3707V29.5969H64.3547V31.9249L64.3307 32.9809C64.5947 32.7489 64.8827 32.5569 65.1947 32.4049C65.5147 32.2449 65.8347 32.1649 66.1547 32.1649C66.9147 32.1649 67.4907 32.4329 67.8827 32.9689C68.2747 33.5049 68.4707 34.2249 68.4707 35.1289C68.4707 35.7929 68.3507 36.3609 68.1107 36.8329C67.8787 37.3049 67.5707 37.6649 67.1867 37.9129C66.8107 38.1609 66.3987 38.2849 65.9507 38.2849ZM65.7827 37.4569C66.2627 37.4569 66.6587 37.2529 66.9707 36.8449C67.2907 36.4289 67.4507 35.8609 67.4507 35.1409C67.4507 34.5009 67.3307 33.9849 67.0907 33.5929C66.8587 33.1929 66.4667 32.9929 65.9147 32.9929C65.6667 32.9929 65.4147 33.0609 65.1587 33.1969C64.9027 33.3329 64.6347 33.5289 64.3547 33.7849V36.8449C64.6107 37.0689 64.8627 37.2289 65.1107 37.3249C65.3667 37.4129 65.5907 37.4569 65.7827 37.4569ZM71.5275 38.2849C71.1115 38.2849 70.7155 38.2089 70.3395 38.0569C69.9635 37.8969 69.6355 37.7049 69.3555 37.4809L69.8475 36.8209C70.1035 37.0209 70.3675 37.1889 70.6395 37.3249C70.9115 37.4529 71.2195 37.5169 71.5635 37.5169C71.9475 37.5169 72.2355 37.4289 72.4275 37.2529C72.6195 37.0689 72.7155 36.8529 72.7155 36.6049C72.7155 36.4049 72.6475 36.2369 72.5115 36.1009C72.3835 35.9649 72.2155 35.8529 72.0075 35.7649C71.8075 35.6689 71.5995 35.5809 71.3835 35.5009C71.1115 35.3969 70.8435 35.2809 70.5795 35.1529C70.3155 35.0169 70.0995 34.8449 69.9315 34.6369C69.7635 34.4209 69.6795 34.1489 69.6795 33.8209C69.6795 33.3489 69.8555 32.9569 70.2075 32.6449C70.5675 32.3249 71.0635 32.1649 71.6955 32.1649C72.0555 32.1649 72.3915 32.2289 72.7035 32.3569C73.0155 32.4849 73.2835 32.6409 73.5075 32.8249L73.0275 33.4489C72.8275 33.2969 72.6195 33.1729 72.4035 33.0769C72.1875 32.9809 71.9515 32.9329 71.6955 32.9329C71.3275 32.9329 71.0555 33.0169 70.8795 33.1849C70.7115 33.3529 70.6275 33.5489 70.6275 33.7729C70.6275 33.9569 70.6875 34.1089 70.8075 34.2289C70.9275 34.3409 71.0835 34.4409 71.2755 34.5289C71.4675 34.6089 71.6715 34.6929 71.8875 34.7809C72.1675 34.8849 72.4435 35.0049 72.7155 35.1409C72.9875 35.2689 73.2115 35.4449 73.3875 35.6689C73.5715 35.8849 73.6635 36.1769 73.6635 36.5449C73.6635 36.8569 73.5795 37.1449 73.4115 37.4089C73.2515 37.6729 73.0115 37.8849 72.6915 38.0449C72.3795 38.2049 71.9915 38.2849 71.5275 38.2849ZM75.0309 38.1409V32.3089H76.0149V38.1409H75.0309ZM75.5349 31.1089C75.3429 31.1089 75.1829 31.0529 75.0549 30.9409C74.9349 30.8209 74.8749 30.6609 74.8749 30.4609C74.8749 30.2689 74.9349 30.1129 75.0549 29.9929C75.1829 29.8729 75.3429 29.8129 75.5349 29.8129C75.7269 29.8129 75.8829 29.8729 76.0029 29.9929C76.1309 30.1129 76.1949 30.2689 76.1949 30.4609C76.1949 30.6609 76.1309 30.8209 76.0029 30.9409C75.8829 31.0529 75.7269 31.1089 75.5349 31.1089ZM79.82 38.2849C79.196 38.2849 78.76 38.1049 78.512 37.7449C78.272 37.3849 78.152 36.9169 78.152 36.3409V33.1129H77.288V32.3689L78.2 32.3089L78.32 30.6769H79.148V32.3089H80.72V33.1129H79.148V36.3529C79.148 36.7129 79.212 36.9929 79.34 37.1929C79.476 37.3849 79.712 37.4809 80.048 37.4809C80.152 37.4809 80.264 37.4649 80.384 37.4329C80.504 37.3929 80.612 37.3569 80.708 37.3249L80.9 38.0689C80.74 38.1249 80.564 38.1729 80.372 38.2129C80.188 38.2609 80.004 38.2849 79.82 38.2849ZM84.2386 38.2849C83.7186 38.2849 83.2466 38.1649 82.8226 37.9249C82.3986 37.6769 82.0626 37.3249 81.8146 36.8689C81.5666 36.4129 81.4426 35.8689 81.4426 35.2369C81.4426 34.5969 81.5666 34.0489 81.8146 33.5929C82.0706 33.1369 82.3986 32.7849 82.7986 32.5369C83.1986 32.2889 83.6186 32.1649 84.0586 32.1649C84.8026 32.1649 85.3746 32.4129 85.7746 32.9089C86.1826 33.4049 86.3866 34.0689 86.3866 34.9009C86.3866 35.0049 86.3826 35.1089 86.3746 35.2129C86.3746 35.3089 86.3666 35.3929 86.3506 35.4649H82.4146C82.4546 36.0809 82.6466 36.5729 82.9906 36.9409C83.3426 37.3089 83.7986 37.4929 84.3586 37.4929C84.6386 37.4929 84.8946 37.4529 85.1266 37.3729C85.3666 37.2849 85.5946 37.1729 85.8106 37.0369L86.1586 37.6849C85.9106 37.8449 85.6266 37.9849 85.3066 38.1049C84.9946 38.2249 84.6386 38.2849 84.2386 38.2849ZM82.4026 34.7569H85.5226C85.5226 34.1649 85.3946 33.7169 85.1386 33.4129C84.8906 33.1009 84.5386 32.9449 84.0826 32.9449C83.6746 32.9449 83.3066 33.1049 82.9786 33.4249C82.6586 33.7369 82.4666 34.1809 82.4026 34.7569ZM93.3021 38.2849C92.6461 38.2849 92.0581 38.1249 91.5381 37.8049C91.0261 37.4769 90.6181 37.0089 90.3141 36.4009C90.0181 35.7929 89.8701 35.0609 89.8701 34.2049C89.8701 33.3569 90.0221 32.6289 90.3261 32.0209C90.6301 31.4129 91.0461 30.9449 91.5741 30.6169C92.1021 30.2889 92.6981 30.1249 93.3621 30.1249C93.8421 30.1249 94.2661 30.2249 94.6341 30.4249C95.0021 30.6169 95.2981 30.8409 95.5221 31.0969L94.9821 31.7449C94.7741 31.5209 94.5381 31.3409 94.2741 31.2049C94.0101 31.0689 93.7101 31.0009 93.3741 31.0009C92.8781 31.0009 92.4421 31.1329 92.0661 31.3969C91.6981 31.6529 91.4101 32.0169 91.2021 32.4889C91.0021 32.9609 90.9021 33.5249 90.9021 34.1809C90.9021 34.8369 91.0021 35.4089 91.2021 35.8969C91.4021 36.3769 91.6821 36.7489 92.0421 37.0129C92.4101 37.2769 92.8421 37.4089 93.3381 37.4089C93.7141 37.4089 94.0501 37.3289 94.3461 37.1689C94.6421 37.0089 94.9141 36.7929 95.1621 36.5209L95.7141 37.1449C95.4021 37.5049 95.0501 37.7849 94.6581 37.9849C94.2661 38.1849 93.8141 38.2849 93.3021 38.2849ZM97.0856 38.1409V29.5969H98.0696V31.9249L98.0336 33.1249C98.3136 32.8609 98.6056 32.6369 98.9096 32.4529C99.2216 32.2609 99.5776 32.1649 99.9776 32.1649C100.594 32.1649 101.042 32.3609 101.322 32.7529C101.61 33.1369 101.754 33.7009 101.754 34.4449V38.1409H100.77V34.5769C100.77 34.0329 100.682 33.6369 100.506 33.3889C100.33 33.1409 100.05 33.0169 99.6656 33.0169C99.3696 33.0169 99.1016 33.0929 98.8616 33.2449C98.6296 33.3969 98.3656 33.6209 98.0696 33.9169V38.1409H97.0856ZM104.957 38.2849C104.469 38.2849 104.061 38.1409 103.733 37.8529C103.413 37.5569 103.253 37.1489 103.253 36.6289C103.253 35.9889 103.537 35.5009 104.105 35.1649C104.681 34.8209 105.589 34.5809 106.829 34.4449C106.829 34.1969 106.793 33.9609 106.721 33.7369C106.657 33.5129 106.537 33.3329 106.361 33.1969C106.193 33.0529 105.949 32.9809 105.629 32.9809C105.293 32.9809 104.977 33.0449 104.681 33.1729C104.385 33.3009 104.121 33.4449 103.889 33.6049L103.505 32.9209C103.777 32.7449 104.109 32.5769 104.501 32.4169C104.901 32.2489 105.333 32.1649 105.797 32.1649C106.509 32.1649 107.025 32.3849 107.345 32.8249C107.665 33.2569 107.825 33.8369 107.825 34.5649V38.1409H107.009L106.925 37.4449H106.889C106.617 37.6689 106.317 37.8649 105.989 38.0329C105.669 38.2009 105.325 38.2849 104.957 38.2849ZM105.245 37.4929C105.525 37.4929 105.789 37.4249 106.037 37.2889C106.285 37.1529 106.549 36.9609 106.829 36.7129V35.0929C105.861 35.2129 105.181 35.3929 104.789 35.6329C104.405 35.8729 104.213 36.1809 104.213 36.5569C104.213 36.8849 104.313 37.1249 104.513 37.2769C104.713 37.4209 104.957 37.4929 105.245 37.4929ZM109.66 38.1409V32.3089H110.476L110.56 33.1489H110.596C110.876 32.8689 111.172 32.6369 111.484 32.4529C111.796 32.2609 112.152 32.1649 112.552 32.1649C113.168 32.1649 113.616 32.3609 113.896 32.7529C114.184 33.1369 114.328 33.7009 114.328 34.4449V38.1409H113.344V34.5769C113.344 34.0329 113.256 33.6369 113.08 33.3889C112.904 33.1409 112.624 33.0169 112.24 33.0169C111.944 33.0169 111.676 33.0929 111.436 33.2449C111.204 33.3969 110.94 33.6209 110.644 33.9169V38.1409H109.66ZM118.19 40.8289C117.478 40.8289 116.898 40.6929 116.45 40.4209C116.002 40.1489 115.778 39.7609 115.778 39.2569C115.778 39.0089 115.854 38.7689 116.006 38.5369C116.158 38.3129 116.366 38.1129 116.63 37.9369V37.8889C116.486 37.8009 116.362 37.6769 116.258 37.5169C116.162 37.3569 116.114 37.1649 116.114 36.9409C116.114 36.6929 116.182 36.4769 116.318 36.2929C116.454 36.1089 116.598 35.9649 116.75 35.8609V35.8129C116.558 35.6529 116.382 35.4369 116.222 35.1649C116.07 34.8929 115.994 34.5849 115.994 34.2409C115.994 33.8169 116.094 33.4489 116.294 33.1369C116.494 32.8249 116.762 32.5849 117.098 32.4169C117.434 32.2489 117.798 32.1649 118.19 32.1649C118.35 32.1649 118.502 32.1809 118.646 32.2129C118.79 32.2369 118.914 32.2689 119.018 32.3089H121.046V33.0649H119.846C119.982 33.1929 120.094 33.3649 120.182 33.5809C120.278 33.7889 120.326 34.0169 120.326 34.2649C120.326 34.6809 120.23 35.0409 120.038 35.3449C119.846 35.6489 119.59 35.8849 119.27 36.0529C118.95 36.2129 118.59 36.2929 118.19 36.2929C117.878 36.2929 117.586 36.2249 117.314 36.0889C117.21 36.1769 117.122 36.2769 117.05 36.3889C116.978 36.4929 116.942 36.6249 116.942 36.7849C116.942 36.9689 117.014 37.1209 117.158 37.2409C117.31 37.3609 117.582 37.4209 117.974 37.4209H119.102C119.782 37.4209 120.29 37.5329 120.626 37.7569C120.97 37.9729 121.142 38.3249 121.142 38.8129C121.142 39.1729 121.022 39.5049 120.782 39.8089C120.542 40.1129 120.202 40.3569 119.762 40.5409C119.322 40.7329 118.798 40.8289 118.19 40.8289ZM118.19 35.6329C118.526 35.6329 118.814 35.5089 119.054 35.2609C119.302 35.0049 119.426 34.6649 119.426 34.2409C119.426 33.8169 119.306 33.4849 119.066 33.2449C118.826 33.0049 118.534 32.8849 118.19 32.8849C117.846 32.8849 117.554 33.0049 117.314 33.2449C117.074 33.4849 116.954 33.8169 116.954 34.2409C116.954 34.6649 117.074 35.0049 117.314 35.2609C117.562 35.5089 117.854 35.6329 118.19 35.6329ZM118.334 40.1449C118.894 40.1449 119.342 40.0209 119.678 39.7729C120.014 39.5329 120.182 39.2609 120.182 38.9569C120.182 38.6849 120.078 38.4969 119.87 38.3929C119.67 38.2889 119.382 38.2369 119.006 38.2369H117.998C117.886 38.2369 117.762 38.2289 117.626 38.2129C117.498 38.1969 117.37 38.1729 117.242 38.1409C117.034 38.2929 116.882 38.4529 116.786 38.6209C116.69 38.7889 116.642 38.9569 116.642 39.1249C116.642 39.4369 116.79 39.6849 117.086 39.8689C117.39 40.0529 117.806 40.1449 118.334 40.1449ZM124.469 38.2849C123.949 38.2849 123.477 38.1649 123.053 37.9249C122.629 37.6769 122.293 37.3249 122.045 36.8689C121.797 36.4129 121.673 35.8689 121.673 35.2369C121.673 34.5969 121.797 34.0489 122.045 33.5929C122.301 33.1369 122.629 32.7849 123.029 32.5369C123.429 32.2889 123.849 32.1649 124.289 32.1649C125.033 32.1649 125.605 32.4129 126.005 32.9089C126.413 33.4049 126.617 34.0689 126.617 34.9009C126.617 35.0049 126.613 35.1089 126.605 35.2129C126.605 35.3089 126.597 35.3929 126.581 35.4649H122.645C122.685 36.0809 122.877 36.5729 123.221 36.9409C123.573 37.3089 124.029 37.4929 124.589 37.4929C124.869 37.4929 125.125 37.4529 125.357 37.3729C125.597 37.2849 125.825 37.1729 126.041 37.0369L126.389 37.6849C126.141 37.8449 125.857 37.9849 125.537 38.1049C125.225 38.2249 124.869 38.2849 124.469 38.2849ZM122.633 34.7569H125.753C125.753 34.1649 125.625 33.7169 125.369 33.4129C125.121 33.1009 124.769 32.9449 124.313 32.9449C123.905 32.9449 123.537 33.1049 123.209 33.4249C122.889 33.7369 122.697 34.1809 122.633 34.7569ZM129.582 38.2849C129.166 38.2849 128.77 38.2089 128.394 38.0569C128.018 37.8969 127.69 37.7049 127.41 37.4809L127.902 36.8209C128.158 37.0209 128.422 37.1889 128.694 37.3249C128.966 37.4529 129.274 37.5169 129.618 37.5169C130.002 37.5169 130.29 37.4289 130.482 37.2529C130.674 37.0689 130.77 36.8529 130.77 36.6049C130.77 36.4049 130.702 36.2369 130.566 36.1009C130.438 35.9649 130.27 35.8529 130.062 35.7649C129.862 35.6689 129.654 35.5809 129.438 35.5009C129.166 35.3969 128.898 35.2809 128.634 35.1529C128.37 35.0169 128.154 34.8449 127.986 34.6369C127.818 34.4209 127.734 34.1489 127.734 33.8209C127.734 33.3489 127.91 32.9569 128.262 32.6449C128.622 32.3249 129.118 32.1649 129.75 32.1649C130.11 32.1649 130.446 32.2289 130.758 32.3569C131.07 32.4849 131.338 32.6409 131.562 32.8249L131.082 33.4489C130.882 33.2969 130.674 33.1729 130.458 33.0769C130.242 32.9809 130.006 32.9329 129.75 32.9329C129.382 32.9329 129.11 33.0169 128.934 33.1849C128.766 33.3529 128.682 33.5489 128.682 33.7729C128.682 33.9569 128.742 34.1089 128.862 34.2289C128.982 34.3409 129.138 34.4409 129.33 34.5289C129.522 34.6089 129.726 34.6929 129.942 34.7809C130.222 34.8849 130.498 35.0049 130.77 35.1409C131.042 35.2689 131.266 35.4449 131.442 35.6689C131.626 35.8849 131.718 36.1769 131.718 36.5449C131.718 36.8569 131.634 37.1449 131.466 37.4089C131.306 37.6729 131.066 37.8849 130.746 38.0449C130.434 38.2049 130.046 38.2849 129.582 38.2849Z" fill="white"/>
</svg>
