<svg width="148" height="40" viewBox="0 0 148 40" fill="none" xmlns="http://www.w3.org/2000/svg">
<path d="M44.1073 36.7221C43.5553 36.7221 43.0433 36.6181 42.5713 36.4101C42.0993 36.1941 41.6913 35.9101 41.3473 35.5581L41.9473 34.8621C42.2273 35.1581 42.5553 35.3981 42.9313 35.5821C43.3153 35.7581 43.7113 35.8461 44.1193 35.8461C44.6393 35.8461 45.0433 35.7301 45.3313 35.4981C45.6193 35.2581 45.7633 34.9461 45.7633 34.5621C45.7633 34.2901 45.7033 34.0741 45.5833 33.9141C45.4713 33.7541 45.3153 33.6181 45.1153 33.5061C44.9233 33.3941 44.7033 33.2821 44.4553 33.1701L43.3273 32.6781C43.0793 32.5741 42.8313 32.4381 42.5833 32.2701C42.3433 32.1021 42.1393 31.8861 41.9713 31.6221C41.8113 31.3581 41.7313 31.0341 41.7313 30.6501C41.7313 30.2501 41.8353 29.8941 42.0433 29.5821C42.2593 29.2621 42.5553 29.0141 42.9313 28.8381C43.3073 28.6541 43.7313 28.5621 44.2033 28.5621C44.6753 28.5621 45.1113 28.6541 45.5113 28.8381C45.9113 29.0141 46.2513 29.2461 46.5313 29.5341L45.9913 30.1821C45.7513 29.9501 45.4833 29.7701 45.1873 29.6421C44.8993 29.5061 44.5713 29.4381 44.2033 29.4381C43.7633 29.4381 43.4073 29.5421 43.1353 29.7501C42.8713 29.9581 42.7393 30.2381 42.7393 30.5901C42.7393 30.8381 42.8033 31.0461 42.9313 31.2141C43.0673 31.3741 43.2353 31.5061 43.4353 31.6101C43.6353 31.7141 43.8393 31.8101 44.0473 31.8981L45.1633 32.3781C45.4673 32.5061 45.7393 32.6621 45.9793 32.8461C46.2273 33.0221 46.4233 33.2421 46.5673 33.5061C46.7113 33.7621 46.7833 34.0861 46.7833 34.4781C46.7833 34.8941 46.6753 35.2741 46.4593 35.6181C46.2433 35.9541 45.9353 36.2221 45.5353 36.4221C45.1353 36.6221 44.6593 36.7221 44.1073 36.7221ZM48.3334 39.0861C48.2054 39.0861 48.0814 39.0741 47.9614 39.0501C47.8494 39.0261 47.7454 38.9981 47.6494 38.9661L47.8414 38.1861C47.9054 38.2021 47.9774 38.2181 48.0574 38.2341C48.1374 38.2581 48.2134 38.2701 48.2854 38.2701C48.6134 38.2701 48.8854 38.1501 49.1014 37.9101C49.3174 37.6781 49.4854 37.3821 49.6054 37.0221L49.7374 36.5901L47.3974 30.7461H48.4174L49.6054 33.9741C49.6934 34.2221 49.7854 34.4901 49.8814 34.7781C49.9854 35.0661 50.0814 35.3461 50.1694 35.6181H50.2174C50.3054 35.3541 50.3894 35.0781 50.4694 34.7901C50.5494 34.5021 50.6294 34.2301 50.7094 33.9741L51.7534 30.7461H52.7134L50.5174 37.0581C50.3814 37.4421 50.2174 37.7861 50.0254 38.0901C49.8414 38.3941 49.6094 38.6341 49.3294 38.8101C49.0574 38.9941 48.7254 39.0861 48.3334 39.0861ZM55.363 36.7221C54.947 36.7221 54.551 36.6461 54.175 36.4941C53.799 36.3341 53.471 36.1421 53.191 35.9181L53.683 35.2581C53.939 35.4581 54.203 35.6261 54.475 35.7621C54.747 35.8901 55.055 35.9541 55.399 35.9541C55.783 35.9541 56.071 35.8661 56.263 35.6901C56.455 35.5061 56.551 35.2901 56.551 35.0421C56.551 34.8421 56.483 34.6741 56.347 34.5381C56.219 34.4021 56.051 34.2901 55.843 34.2021C55.643 34.1061 55.435 34.0181 55.219 33.9381C54.947 33.8341 54.679 33.7181 54.415 33.5901C54.151 33.4541 53.935 33.2821 53.767 33.0741C53.599 32.8581 53.515 32.5861 53.515 32.2581C53.515 31.7861 53.691 31.3941 54.043 31.0821C54.403 30.7621 54.899 30.6021 55.531 30.6021C55.891 30.6021 56.227 30.6661 56.539 30.7941C56.851 30.9221 57.119 31.0781 57.343 31.2621L56.863 31.8861C56.663 31.7341 56.455 31.6101 56.239 31.5141C56.023 31.4181 55.787 31.3701 55.531 31.3701C55.163 31.3701 54.891 31.4541 54.715 31.6221C54.547 31.7901 54.463 31.9861 54.463 32.2101C54.463 32.3941 54.523 32.5461 54.643 32.6661C54.763 32.7781 54.919 32.8781 55.111 32.9661C55.303 33.0461 55.507 33.1301 55.723 33.2181C56.003 33.3221 56.279 33.4421 56.551 33.5781C56.823 33.7061 57.047 33.8821 57.223 34.1061C57.407 34.3221 57.499 34.6141 57.499 34.9821C57.499 35.2941 57.415 35.5821 57.247 35.8461C57.087 36.1101 56.847 36.3221 56.527 36.4821C56.215 36.6421 55.827 36.7221 55.363 36.7221ZM60.4679 36.7221C59.8439 36.7221 59.4079 36.5421 59.1599 36.1821C58.9199 35.8221 58.7999 35.3541 58.7999 34.7781V31.5501H57.9359V30.8061L58.8479 30.7461L58.9679 29.1141H59.7959V30.7461H61.3679V31.5501H59.7959V34.7901C59.7959 35.1501 59.8599 35.4301 59.9879 35.6301C60.1239 35.8221 60.3599 35.9181 60.6959 35.9181C60.7999 35.9181 60.9119 35.9021 61.0319 35.8701C61.1519 35.8301 61.2599 35.7941 61.3559 35.7621L61.5479 36.5061C61.3879 36.5621 61.2119 36.6101 61.0199 36.6501C60.8359 36.6981 60.6519 36.7221 60.4679 36.7221ZM64.8866 36.7221C64.3666 36.7221 63.8946 36.6021 63.4706 36.3621C63.0466 36.1141 62.7106 35.7621 62.4626 35.3061C62.2146 34.8501 62.0906 34.3061 62.0906 33.6741C62.0906 33.0341 62.2146 32.4861 62.4626 32.0301C62.7186 31.5741 63.0466 31.2221 63.4466 30.9741C63.8466 30.7261 64.2666 30.6021 64.7066 30.6021C65.4506 30.6021 66.0226 30.8501 66.4226 31.3461C66.8306 31.8421 67.0346 32.5061 67.0346 33.3381C67.0346 33.4421 67.0306 33.5461 67.0226 33.6501C67.0226 33.7461 67.0146 33.8301 66.9986 33.9021H63.0626C63.1026 34.5181 63.2946 35.0101 63.6386 35.3781C63.9906 35.7461 64.4466 35.9301 65.0066 35.9301C65.2866 35.9301 65.5426 35.8901 65.7746 35.8101C66.0146 35.7221 66.2426 35.6101 66.4586 35.4741L66.8066 36.1221C66.5586 36.2821 66.2746 36.4221 65.9546 36.5421C65.6426 36.6621 65.2866 36.7221 64.8866 36.7221ZM63.0506 33.1941H66.1706C66.1706 32.6021 66.0426 32.1541 65.7866 31.8501C65.5386 31.5381 65.1866 31.3821 64.7306 31.3821C64.3226 31.3821 63.9546 31.5421 63.6266 31.8621C63.3066 32.1741 63.1146 32.6181 63.0506 33.1941ZM68.4757 36.5781V30.7461H69.2917L69.3757 31.5861H69.4117C69.6677 31.3061 69.9477 31.0741 70.2517 30.8901C70.5557 30.6981 70.8797 30.6021 71.2237 30.6021C71.6717 30.6021 72.0197 30.7021 72.2677 30.9021C72.5237 31.0941 72.7117 31.3661 72.8317 31.7181C73.1357 31.3901 73.4437 31.1221 73.7557 30.9141C74.0677 30.7061 74.3997 30.6021 74.7517 30.6021C75.3517 30.6021 75.7957 30.7981 76.0837 31.1901C76.3797 31.5741 76.5277 32.1381 76.5277 32.8821V36.5781H75.5437V33.0141C75.5437 32.4701 75.4557 32.0741 75.2797 31.8261C75.1037 31.5781 74.8317 31.4541 74.4637 31.4541C74.0317 31.4541 73.5437 31.7541 72.9997 32.3541V36.5781H72.0157V33.0141C72.0157 32.4701 71.9277 32.0741 71.7517 31.8261C71.5757 31.5781 71.2997 31.4541 70.9237 31.4541C70.4917 31.4541 70.0037 31.7541 69.4597 32.3541V36.5781H68.4757ZM83.8993 36.7221C83.2433 36.7221 82.6553 36.5621 82.1353 36.2421C81.6233 35.9141 81.2153 35.4461 80.9113 34.8381C80.6153 34.2301 80.4673 33.4981 80.4673 32.6421C80.4673 31.7941 80.6193 31.0661 80.9233 30.4581C81.2273 29.8501 81.6433 29.3821 82.1713 29.0541C82.6993 28.7261 83.2953 28.5621 83.9593 28.5621C84.4393 28.5621 84.8633 28.6621 85.2313 28.8621C85.5993 29.0541 85.8953 29.2781 86.1193 29.5341L85.5793 30.1821C85.3713 29.9581 85.1353 29.7781 84.8713 29.6421C84.6073 29.5061 84.3073 29.4381 83.9713 29.4381C83.4753 29.4381 83.0393 29.5701 82.6633 29.8341C82.2953 30.0901 82.0073 30.4541 81.7993 30.9261C81.5993 31.3981 81.4993 31.9621 81.4993 32.6181C81.4993 33.2741 81.5993 33.8461 81.7993 34.3341C81.9993 34.8141 82.2793 35.1861 82.6393 35.4501C83.0073 35.7141 83.4393 35.8461 83.9353 35.8461C84.3113 35.8461 84.6473 35.7661 84.9433 35.6061C85.2393 35.4461 85.5113 35.2301 85.7593 34.9581L86.3113 35.5821C85.9993 35.9421 85.6473 36.2221 85.2553 36.4221C84.8633 36.6221 84.4113 36.7221 83.8993 36.7221ZM89.9507 36.7221C89.4787 36.7221 89.0347 36.6021 88.6187 36.3621C88.2107 36.1221 87.8787 35.7741 87.6227 35.3181C87.3747 34.8621 87.2507 34.3141 87.2507 33.6741C87.2507 33.0181 87.3747 32.4621 87.6227 32.0061C87.8787 31.5501 88.2107 31.2021 88.6187 30.9621C89.0347 30.7221 89.4787 30.6021 89.9507 30.6021C90.4307 30.6021 90.8747 30.7221 91.2827 30.9621C91.6907 31.2021 92.0187 31.5501 92.2667 32.0061C92.5227 32.4621 92.6507 33.0181 92.6507 33.6741C92.6507 34.3141 92.5227 34.8621 92.2667 35.3181C92.0187 35.7741 91.6907 36.1221 91.2827 36.3621C90.8747 36.6021 90.4307 36.7221 89.9507 36.7221ZM89.9507 35.9061C90.4547 35.9061 90.8587 35.7021 91.1627 35.2941C91.4747 34.8781 91.6307 34.3381 91.6307 33.6741C91.6307 33.0021 91.4747 32.4581 91.1627 32.0421C90.8587 31.6261 90.4547 31.4181 89.9507 31.4181C89.4547 31.4181 89.0507 31.6261 88.7387 32.0421C88.4267 32.4581 88.2707 33.0021 88.2707 33.6741C88.2707 34.3381 88.4267 34.8781 88.7387 35.2941C89.0507 35.7021 89.4547 35.9061 89.9507 35.9061ZM94.1866 36.5781V30.7461H95.0026L95.0866 31.8021H95.1226C95.3226 31.4341 95.5666 31.1421 95.8546 30.9261C96.1426 30.7101 96.4506 30.6021 96.7786 30.6021C97.0106 30.6021 97.2186 30.6421 97.4026 30.7221L97.2106 31.5861C97.1146 31.5541 97.0266 31.5301 96.9466 31.5141C96.8666 31.4981 96.7666 31.4901 96.6466 31.4901C96.3986 31.4901 96.1386 31.5901 95.8666 31.7901C95.6026 31.9901 95.3706 32.3381 95.1706 32.8341V36.5781H94.1866ZM100.594 36.7221C100.074 36.7221 99.6016 36.6021 99.1776 36.3621C98.7536 36.1141 98.4176 35.7621 98.1696 35.3061C97.9216 34.8501 97.7976 34.3061 97.7976 33.6741C97.7976 33.0341 97.9216 32.4861 98.1696 32.0301C98.4256 31.5741 98.7536 31.2221 99.1536 30.9741C99.5536 30.7261 99.9736 30.6021 100.414 30.6021C101.158 30.6021 101.73 30.8501 102.13 31.3461C102.538 31.8421 102.742 32.5061 102.742 33.3381C102.742 33.4421 102.738 33.5461 102.73 33.6501C102.73 33.7461 102.722 33.8301 102.706 33.9021H98.7696C98.8096 34.5181 99.0016 35.0101 99.3456 35.3781C99.6976 35.7461 100.154 35.9301 100.714 35.9301C100.994 35.9301 101.25 35.8901 101.482 35.8101C101.722 35.7221 101.95 35.6101 102.166 35.4741L102.514 36.1221C102.266 36.2821 101.982 36.4221 101.662 36.5421C101.35 36.6621 100.994 36.7221 100.594 36.7221ZM98.7576 33.1941H101.878C101.878 32.6021 101.75 32.1541 101.494 31.8501C101.246 31.5381 100.894 31.3821 100.438 31.3821C100.03 31.3821 99.6616 31.5421 99.3336 31.8621C99.0136 32.1741 98.8216 32.6181 98.7576 33.1941ZM109.477 36.7221C108.941 36.7221 108.457 36.6141 108.025 36.3981C107.601 36.1821 107.265 35.8261 107.017 35.3301C106.769 34.8341 106.645 34.1661 106.645 33.3261V28.7061H107.641V33.3501C107.641 33.9821 107.721 34.4821 107.881 34.8501C108.049 35.2101 108.269 35.4661 108.541 35.6181C108.821 35.7701 109.133 35.8461 109.477 35.8461C109.829 35.8461 110.145 35.7701 110.425 35.6181C110.705 35.4661 110.925 35.2101 111.085 34.8501C111.253 34.4821 111.337 33.9821 111.337 33.3501V28.7061H112.297V33.3261C112.297 34.1661 112.173 34.8341 111.925 35.3301C111.677 35.8261 111.341 36.1821 110.917 36.3981C110.493 36.6141 110.013 36.7221 109.477 36.7221ZM114.319 39.0381V30.7461H115.135L115.219 31.4181H115.255C115.519 31.1941 115.807 31.0021 116.119 30.8421C116.439 30.6821 116.771 30.6021 117.115 30.6021C117.867 30.6021 118.439 30.8741 118.831 31.4181C119.223 31.9541 119.419 32.6741 119.419 33.5781C119.419 34.2341 119.299 34.7981 119.059 35.2701C118.827 35.7421 118.519 36.1021 118.135 36.3501C117.759 36.5981 117.347 36.7221 116.899 36.7221C116.627 36.7221 116.355 36.6621 116.083 36.5421C115.819 36.4221 115.551 36.2581 115.279 36.0501L115.303 37.0701V39.0381H114.319ZM116.731 35.8941C117.211 35.8941 117.607 35.6901 117.919 35.2821C118.239 34.8661 118.399 34.2981 118.399 33.5781C118.399 32.9381 118.279 32.4221 118.039 32.0301C117.807 31.6301 117.415 31.4301 116.863 31.4301C116.615 31.4301 116.363 31.4981 116.107 31.6341C115.859 31.7701 115.591 31.9661 115.303 32.2221V35.2821C115.567 35.5061 115.823 35.6661 116.071 35.7621C116.319 35.8501 116.539 35.8941 116.731 35.8941ZM122.968 36.7221C122.24 36.7221 121.656 36.4581 121.216 35.9301C120.776 35.3941 120.556 34.6421 120.556 33.6741C120.556 33.0421 120.672 32.4981 120.904 32.0421C121.144 31.5781 121.456 31.2221 121.84 30.9741C122.232 30.7261 122.648 30.6021 123.088 30.6021C123.424 30.6021 123.716 30.6621 123.964 30.7821C124.212 30.9021 124.464 31.0661 124.72 31.2741L124.672 30.2781V28.0341H125.668V36.5781H124.852L124.768 35.8941H124.732C124.508 36.1181 124.244 36.3141 123.94 36.4821C123.636 36.6421 123.312 36.7221 122.968 36.7221ZM123.184 35.8941C123.696 35.8941 124.192 35.6261 124.672 35.0901V32.0421C124.424 31.8181 124.184 31.6621 123.952 31.5741C123.728 31.4781 123.496 31.4301 123.256 31.4301C122.944 31.4301 122.66 31.5261 122.404 31.7181C122.156 31.9021 121.956 32.1621 121.804 32.4981C121.652 32.8261 121.576 33.2141 121.576 33.6621C121.576 34.3581 121.716 34.9061 121.996 35.3061C122.276 35.6981 122.672 35.8941 123.184 35.8941ZM128.976 36.7221C128.488 36.7221 128.08 36.5781 127.752 36.2901C127.432 35.9941 127.272 35.5861 127.272 35.0661C127.272 34.4261 127.556 33.9381 128.124 33.6021C128.7 33.2581 129.608 33.0181 130.848 32.8821C130.848 32.6341 130.812 32.3981 130.74 32.1741C130.676 31.9501 130.556 31.7701 130.38 31.6341C130.212 31.4901 129.968 31.4181 129.648 31.4181C129.312 31.4181 128.996 31.4821 128.7 31.6101C128.404 31.7381 128.14 31.8821 127.908 32.0421L127.524 31.3581C127.796 31.1821 128.128 31.0141 128.52 30.8541C128.92 30.6861 129.352 30.6021 129.816 30.6021C130.528 30.6021 131.044 30.8221 131.364 31.2621C131.684 31.6941 131.844 32.2741 131.844 33.0021V36.5781H131.028L130.944 35.8821H130.908C130.636 36.1061 130.336 36.3021 130.008 36.4701C129.688 36.6381 129.344 36.7221 128.976 36.7221ZM129.264 35.9301C129.544 35.9301 129.808 35.8621 130.056 35.7261C130.304 35.5901 130.568 35.3981 130.848 35.1501V33.5301C129.88 33.6501 129.2 33.8301 128.808 34.0701C128.424 34.3101 128.232 34.6181 128.232 34.9941C128.232 35.3221 128.332 35.5621 128.532 35.7141C128.732 35.8581 128.976 35.9301 129.264 35.9301ZM135.351 36.7221C134.727 36.7221 134.291 36.5421 134.043 36.1821C133.803 35.8221 133.683 35.3541 133.683 34.7781V31.5501H132.819V30.8061L133.731 30.7461L133.851 29.1141H134.679V30.7461H136.251V31.5501H134.679V34.7901C134.679 35.1501 134.743 35.4301 134.871 35.6301C135.007 35.8221 135.243 35.9181 135.579 35.9181C135.683 35.9181 135.795 35.9021 135.915 35.8701C136.035 35.8301 136.143 35.7941 136.239 35.7621L136.431 36.5061C136.271 36.5621 136.095 36.6101 135.903 36.6501C135.719 36.6981 135.535 36.7221 135.351 36.7221ZM139.769 36.7221C139.249 36.7221 138.777 36.6021 138.353 36.3621C137.929 36.1141 137.593 35.7621 137.345 35.3061C137.097 34.8501 136.973 34.3061 136.973 33.6741C136.973 33.0341 137.097 32.4861 137.345 32.0301C137.601 31.5741 137.929 31.2221 138.329 30.9741C138.729 30.7261 139.149 30.6021 139.589 30.6021C140.333 30.6021 140.905 30.8501 141.305 31.3461C141.713 31.8421 141.917 32.5061 141.917 33.3381C141.917 33.4421 141.913 33.5461 141.905 33.6501C141.905 33.7461 141.897 33.8301 141.881 33.9021H137.945C137.985 34.5181 138.177 35.0101 138.521 35.3781C138.873 35.7461 139.329 35.9301 139.889 35.9301C140.169 35.9301 140.425 35.8901 140.657 35.8101C140.897 35.7221 141.125 35.6101 141.341 35.4741L141.689 36.1221C141.441 36.2821 141.157 36.4221 140.837 36.5421C140.525 36.6621 140.169 36.7221 139.769 36.7221ZM137.933 33.1941H141.053C141.053 32.6021 140.925 32.1541 140.669 31.8501C140.421 31.5381 140.069 31.3821 139.613 31.3821C139.205 31.3821 138.837 31.5421 138.509 31.8621C138.189 32.1741 137.997 32.6181 137.933 33.1941ZM144.883 36.7221C144.467 36.7221 144.071 36.6461 143.695 36.4941C143.319 36.3341 142.991 36.1421 142.711 35.9181L143.203 35.2581C143.459 35.4581 143.723 35.6261 143.995 35.7621C144.267 35.8901 144.575 35.9541 144.919 35.9541C145.303 35.9541 145.591 35.8661 145.783 35.6901C145.975 35.5061 146.071 35.2901 146.071 35.0421C146.071 34.8421 146.003 34.6741 145.867 34.5381C145.739 34.4021 145.571 34.2901 145.363 34.2021C145.163 34.1061 144.955 34.0181 144.739 33.9381C144.467 33.8341 144.199 33.7181 143.935 33.5901C143.671 33.4541 143.455 33.2821 143.287 33.0741C143.119 32.8581 143.035 32.5861 143.035 32.2581C143.035 31.7861 143.211 31.3941 143.563 31.0821C143.923 30.7621 144.419 30.6021 145.051 30.6021C145.411 30.6021 145.747 30.6661 146.059 30.7941C146.371 30.9221 146.639 31.0781 146.863 31.2621L146.383 31.8861C146.183 31.7341 145.975 31.6101 145.759 31.5141C145.543 31.4181 145.307 31.3701 145.051 31.3701C144.683 31.3701 144.411 31.4541 144.235 31.6221C144.067 31.7901 143.983 31.9861 143.983 32.2101C143.983 32.3941 144.043 32.5461 144.163 32.6661C144.283 32.7781 144.439 32.8781 144.631 32.9661C144.823 33.0461 145.027 33.1301 145.243 33.2181C145.523 33.3221 145.799 33.4421 146.071 33.5781C146.343 33.7061 146.567 33.8821 146.743 34.1061C146.927 34.3221 147.019 34.6141 147.019 34.9821C147.019 35.2941 146.935 35.5821 146.767 35.8461C146.607 36.1101 146.367 36.3221 146.047 36.4821C145.735 36.6421 145.347 36.7221 144.883 36.7221Z" fill="#666666"/>
<path d="M86.3232 12.633H80.5759V13.2427C82.3736 13.2427 82.6627 13.628 82.6627 15.9075V20.0177C82.6627 22.2972 82.3742 22.7149 80.5759 22.7149C79.196 22.5221 78.2643 21.7837 76.98 20.3708L75.5033 18.7656C77.4935 18.4119 78.553 17.1601 78.553 15.7472C78.553 13.9816 77.0444 12.633 74.2187 12.633H68.568V13.2427C70.3657 13.2427 70.6547 13.628 70.6547 15.9075V20.0177C70.6547 22.2972 70.3659 22.7149 68.568 22.7149V23.3248H74.9571V22.7149C73.1597 22.7149 72.8704 22.2972 72.8704 20.0177V18.8624H73.4163L76.9803 23.3248H86.3235C90.9146 23.3248 92.9056 20.885 92.9056 17.9628C92.9051 15.041 90.9146 12.633 86.3232 12.633ZM72.8707 17.8661V13.5964H74.1868C75.6314 13.5964 76.2738 14.5916 76.2738 15.7474C76.2738 16.8714 75.6314 17.8663 74.1868 17.8663L72.8707 17.8661ZM86.4197 22.3293H86.1948C85.0392 22.3293 84.8786 22.0408 84.8786 20.5638V13.5964H86.4197C89.7588 13.5964 90.3682 16.0362 90.3682 17.9307C90.3685 19.889 89.7585 22.3293 86.4197 22.3293ZM50.6851 19.0546L52.9003 12.5041C53.5427 10.6099 53.2539 10.0645 51.1989 10.0645V9.42212H57.2349V10.0645C55.2125 10.0645 54.7307 10.5458 53.9282 12.8896L50.2677 23.8704H49.8505L46.5752 13.8208L43.2364 23.8704H42.8187L39.255 12.8899C38.4844 10.546 37.9707 10.0648 36.1084 10.0648V9.42239H43.2362V10.0648C41.3414 10.0648 40.8277 10.5141 41.5023 12.5043L43.6534 19.0549L46.8959 9.42239H47.5064L50.6851 19.0546ZM61.6011 23.7417C58.0695 23.7417 55.1798 21.1413 55.1798 17.9623C55.1798 14.8157 58.0695 12.215 61.6011 12.215C65.1327 12.215 68.0224 14.8157 68.0224 17.9623C68.0224 21.1413 65.1329 23.7417 61.6011 23.7417ZM61.6011 13.2111C58.6476 13.2111 57.6196 15.8753 57.6196 17.9626C57.6196 20.082 58.6476 22.7146 61.6011 22.7146C64.5873 22.7146 65.6147 20.082 65.6147 17.9626C65.6147 15.8753 64.5873 13.2111 61.6011 13.2111Z" fill="#464342"/>
<path d="M100.835 22.6825V23.3246H93.4829V22.6825C95.6342 22.6825 96.0195 22.1366 96.0195 18.9254V13.7889C96.0195 10.5777 95.6342 10.0645 93.4829 10.0645V9.42188H100.129C103.436 9.42188 105.266 11.1236 105.266 13.4036C105.266 15.619 103.436 17.3526 100.129 17.3526H98.2985V18.9254C98.2987 22.1369 98.6838 22.6825 100.835 22.6825ZM100.129 10.5777H98.2985V16.1646H100.129C101.927 16.1646 102.761 14.9126 102.761 13.4036C102.762 11.8625 101.927 10.5777 100.129 10.5777ZM127.323 20.3067L127.162 20.8845C126.874 21.9441 126.52 22.3294 124.241 22.3294H123.791C122.122 22.3294 121.833 21.9441 121.833 19.6649V18.1881C124.337 18.1881 124.53 18.4125 124.53 20.0823H125.14V15.2978H124.53C124.53 16.9674 124.337 17.192 121.833 17.192V13.5964H123.598C125.878 13.5964 126.231 13.9817 126.52 15.0413L126.681 15.6512H127.194L126.97 12.6333H117.53V13.243C119.328 13.243 119.617 13.6283 119.617 15.9078V20.0177C119.617 22.1031 119.372 22.6284 117.954 22.7035C116.607 22.4975 115.682 21.7629 114.417 20.3708L112.94 18.7656C114.93 18.412 115.99 17.1601 115.99 15.7472C115.99 13.9817 114.481 12.6331 111.656 12.6331H106.005V13.2427C107.803 13.2427 108.092 13.628 108.092 15.9075V20.0177C108.092 22.2972 107.803 22.7149 106.005 22.7149V23.3249H112.394V22.7149C110.597 22.7149 110.307 22.2972 110.307 20.0177V18.8624H110.853L114.417 23.3249H127.613L127.806 20.3073L127.323 20.3067ZM110.307 17.8661V13.5964H111.623C113.068 13.5964 113.71 14.5916 113.71 15.7475C113.71 16.8714 113.068 17.8664 111.623 17.8664L110.307 17.8661ZM133.841 23.7418C132.557 23.7418 131.433 23.0677 130.951 22.65C130.79 22.8109 130.502 23.2924 130.438 23.7418H129.827V19.3112H130.47C130.727 21.4304 132.203 22.6825 134.098 22.6825C135.125 22.6825 135.96 22.1044 135.96 21.1416C135.96 20.307 135.222 19.6646 133.905 19.0546L132.075 18.1878C130.79 17.5773 129.827 16.5175 129.827 15.1053C129.827 13.5642 131.272 12.2481 133.263 12.2481C134.323 12.2481 135.221 12.6336 135.767 13.083C135.928 12.9543 136.089 12.6012 136.185 12.2156H136.795V16.0046H136.121C135.896 14.4954 135.061 13.2433 133.36 13.2433C132.461 13.2433 131.626 13.7567 131.626 14.56C131.626 15.3946 132.3 15.844 133.841 16.5502L135.607 17.417C137.148 18.1554 137.758 19.3439 137.758 20.307C137.758 22.3294 135.992 23.7418 133.841 23.7418ZM143.73 23.7418C142.445 23.7418 141.321 23.0677 140.84 22.65C140.679 22.8109 140.391 23.2924 140.327 23.7418H139.717V19.3112H140.359C140.616 21.4304 142.092 22.6825 143.987 22.6825C145.014 22.6825 145.849 22.1044 145.849 21.1416C145.849 20.307 145.111 19.6646 143.794 19.0546L141.964 18.1878C140.679 17.5773 139.716 16.5175 139.716 15.1053C139.716 13.5642 141.161 12.2481 143.152 12.2481C144.211 12.2481 145.11 12.6336 145.656 13.083C145.817 12.9543 145.977 12.6012 146.073 12.2156H146.683V16.0046H146.009C145.784 14.4954 144.95 13.2433 143.248 13.2433C142.349 13.2433 141.514 13.7567 141.514 14.56C141.514 15.3946 142.189 15.844 143.73 16.5502L145.495 17.417C147.037 18.1554 147.646 19.3439 147.646 20.307C147.646 22.3294 145.88 23.7418 143.73 23.7418Z" fill="#464342"/>
<path d="M2.50092 16.9214C2.50092 22.5243 5.75448 27.3661 10.4727 29.6606L3.72553 11.1609C2.91672 12.9734 2.49941 14.9364 2.50092 16.9214ZM26.1941 16.2071C26.1941 14.4579 25.5661 13.2464 25.0277 12.3035C24.3106 11.1375 23.6386 10.1501 23.6386 8.98417C23.6386 7.68297 24.6247 6.47171 26.0138 6.47171C26.0765 6.47171 26.1359 6.47947 26.197 6.4831C23.6806 4.17588 20.3278 2.76727 16.6455 2.76727C11.704 2.76727 7.35656 5.30445 4.82742 9.14735C5.15924 9.15732 5.47193 9.16418 5.73767 9.16418C7.21703 9.16418 9.50719 8.98469 9.50719 8.98469C10.2698 8.93965 10.3596 10.0603 9.59797 10.1507C9.59797 10.1507 8.83165 10.2409 7.97895 10.2855L13.1301 25.6177L16.2255 16.3274L14.0217 10.2851C13.26 10.2405 12.5385 10.1503 12.5385 10.1503C11.7763 10.1055 11.8656 8.93926 12.6278 8.9843C12.6278 8.9843 14.9637 9.16392 16.3535 9.16392C17.8328 9.16392 20.1231 8.9843 20.1231 8.9843C20.8861 8.93926 20.9758 10.0599 20.2139 10.1503C20.2139 10.1503 19.446 10.2405 18.5949 10.2851L23.7066 25.5011L25.1174 20.7831C25.7288 18.8253 26.1941 17.419 26.1941 16.2071ZM16.8936 18.1596L12.6498 30.5004C13.9473 30.8828 15.2929 31.077 16.6455 31.077C18.2926 31.077 19.8721 30.792 21.3426 30.2747C21.3033 30.2128 21.2696 30.1475 21.2418 30.0796L16.8936 18.1596ZM29.0567 10.1305C29.1175 10.5813 29.152 11.0653 29.152 11.5859C29.152 13.0224 28.8839 14.637 28.0765 16.6559L23.756 29.1567C27.961 26.7027 30.7894 22.1437 30.7894 16.9218C30.7897 14.4609 30.1616 12.1466 29.0567 10.1305ZM16.6455 0.421875C7.55402 0.421875 0.157227 7.82351 0.157227 16.9214C0.157227 26.0205 7.55402 33.4219 16.6455 33.4219C25.7366 33.4219 33.1344 26.0205 33.1344 16.9214C33.1343 7.82351 25.7366 0.421875 16.6455 0.421875ZM16.6455 32.6656C7.97106 32.6656 0.9132 25.6028 0.9132 16.9214C0.9132 8.24072 7.97067 1.1784 16.6455 1.1784C25.3196 1.1784 32.3769 8.24072 32.3769 16.9214C32.3769 25.6028 25.3196 32.6656 16.6455 32.6656Z" fill="#464342"/>
</svg>
