<svg width="146" height="34" viewBox="0 0 146 34" fill="none" xmlns="http://www.w3.org/2000/svg">
<path d="M84.6772 13.4758H78.93V14.0855C80.7276 14.0855 81.0167 14.4708 81.0167 16.7503V20.8604C81.0167 23.1399 80.7282 23.5576 78.93 23.5576C77.55 23.3649 76.6183 22.6265 75.334 21.2135L73.8573 19.6083C75.8475 19.2547 76.907 18.0029 76.907 16.5899C76.907 14.8244 75.3984 13.4758 72.5727 13.4758H66.922V14.0855C68.7197 14.0855 69.0087 14.4708 69.0087 16.7503V20.8604C69.0087 23.1399 68.72 23.5576 66.922 23.5576V24.1676H73.3111V23.5576C71.5137 23.5576 71.2244 23.1399 71.2244 20.8604V19.7051H71.7703L75.3343 24.1676H84.6775C89.2686 24.1676 91.2597 21.7278 91.2597 18.8056C91.2591 15.8837 89.2686 13.4758 84.6772 13.4758ZM71.2247 18.7088V14.4391H72.5408C73.9854 14.4391 74.6278 15.4344 74.6278 16.5902C74.6278 17.7141 73.9854 18.7091 72.5408 18.7091L71.2247 18.7088ZM84.7737 23.1721H84.5488C83.3932 23.1721 83.2326 22.8836 83.2326 21.4066V14.4391H84.7737C88.1128 14.4391 88.7222 16.879 88.7222 18.7734C88.7225 20.7317 88.1125 23.1721 84.7737 23.1721ZM49.0392 19.8974L51.2543 13.3468C51.8967 11.4526 51.6079 10.9073 49.5529 10.9073V10.2649H55.5889V10.9073C53.5665 10.9073 53.0847 11.3886 52.2822 13.7324L48.6217 24.7132H48.2045L44.9293 14.6635L41.5904 24.7132H41.1727L37.609 13.7327C36.8384 11.3888 36.3247 10.9076 34.4624 10.9076V10.2652H41.5902V10.9076C39.6954 10.9076 39.1817 11.3569 39.8563 13.3471L42.0074 19.8976L45.2499 10.2652H45.8604L49.0392 19.8974ZM59.9551 24.5845C56.4235 24.5845 53.5338 21.9841 53.5338 18.8051C53.5338 15.6585 56.4235 13.0578 59.9551 13.0578C63.4867 13.0578 66.3764 15.6585 66.3764 18.8051C66.3764 21.9841 63.4869 24.5845 59.9551 24.5845ZM59.9551 14.0539C57.0016 14.0539 55.9736 16.7181 55.9736 18.8054C55.9736 20.9248 57.0016 23.5574 59.9551 23.5574C62.9413 23.5574 63.9687 20.9248 63.9687 18.8054C63.9687 16.7181 62.9413 14.0539 59.9551 14.0539Z" fill="white"/>
<path d="M99.1894 23.5252V24.1674H91.8369V23.5252C93.9883 23.5252 94.3735 22.9794 94.3735 19.7682V14.6317C94.3735 11.4205 93.9883 10.9073 91.8369 10.9073V10.2646H98.4829C101.79 10.2646 103.62 11.9664 103.62 14.2464C103.62 16.4618 101.79 18.1954 98.4829 18.1954H96.6525V19.7682C96.6527 22.9796 97.0378 23.5252 99.1894 23.5252ZM98.4829 11.4205H96.6525V17.0074H98.4829C100.281 17.0074 101.115 15.7553 101.115 14.2464C101.116 12.7053 100.281 11.4205 98.4829 11.4205ZM125.677 21.1495L125.516 21.7273C125.228 22.7869 124.874 23.1721 122.595 23.1721H122.145C120.476 23.1721 120.187 22.7869 120.187 20.5076V19.0309C122.691 19.0309 122.884 19.2553 122.884 20.9251H123.494V16.1406H122.884C122.884 17.8101 122.691 18.0348 120.187 18.0348V14.4392H121.952C124.232 14.4392 124.585 14.8244 124.874 15.884L125.035 16.494H125.548L125.324 13.4761H115.884V14.0858C117.682 14.0858 117.971 14.4711 117.971 16.7506V20.8605C117.971 22.9458 117.726 23.4712 116.308 23.5463C114.961 23.3403 114.036 22.6057 112.771 21.2136L111.294 19.6084C113.284 19.2547 114.344 18.0029 114.344 16.59C114.344 14.8244 112.835 13.4758 110.01 13.4758H104.359V14.0855C106.157 14.0855 106.446 14.4708 106.446 16.7503V20.8605C106.446 23.14 106.157 23.5577 104.359 23.5577V24.1676H110.748V23.5577C108.951 23.5577 108.661 23.14 108.661 20.8605V19.7052H109.207L112.771 24.1676H125.967L126.16 21.15L125.677 21.1495ZM108.661 18.7089V14.4392H109.977C111.422 14.4392 112.064 15.4344 112.064 16.5902C112.064 17.7142 111.422 18.7091 109.977 18.7091L108.661 18.7089ZM132.195 24.5845C130.911 24.5845 129.787 23.9105 129.305 23.4928C129.144 23.6537 128.856 24.1352 128.792 24.5845H128.181V20.154H128.824C129.081 22.2731 130.557 23.5252 132.452 23.5252C133.479 23.5252 134.314 22.9472 134.314 21.9844C134.314 21.1498 133.576 20.5074 132.259 19.8974L130.429 19.0306C129.144 18.4201 128.181 17.3602 128.181 15.9481C128.181 14.407 129.626 13.0908 131.617 13.0908C132.677 13.0908 133.575 13.4764 134.121 13.9257C134.282 13.797 134.443 13.4439 134.539 13.0584H135.149V16.8474H134.475C134.25 15.3381 133.415 14.0861 131.714 14.0861C130.815 14.0861 129.98 14.5995 129.98 15.4028C129.98 16.2374 130.654 16.6868 132.195 17.393L133.961 18.2598C135.502 18.9982 136.112 20.1867 136.112 21.1498C136.112 23.1721 134.346 24.5845 132.195 24.5845ZM142.084 24.5845C140.799 24.5845 139.675 23.9105 139.194 23.4928C139.033 23.6537 138.745 24.1352 138.681 24.5845H138.071V20.154H138.713C138.97 22.2731 140.446 23.5252 142.341 23.5252C143.368 23.5252 144.203 22.9472 144.203 21.9844C144.203 21.1498 143.465 20.5074 142.148 19.8974L140.318 19.0306C139.033 18.4201 138.07 17.3602 138.07 15.9481C138.07 14.407 139.515 13.0908 141.506 13.0908C142.565 13.0908 143.464 13.4764 144.01 13.9257C144.171 13.797 144.331 13.4439 144.427 13.0584H145.037V16.8474H144.363C144.138 15.3381 143.304 14.0861 141.602 14.0861C140.703 14.0861 139.868 14.5995 139.868 15.4028C139.868 16.2374 140.543 16.6868 142.084 17.393L143.849 18.2598C145.391 18.9982 146 20.1867 146 21.1498C146 23.1721 144.234 24.5845 142.084 24.5845Z" fill="white"/>
<path d="M2.3545 16.9993C2.3545 22.6239 5.623 27.484 10.3626 29.7876L3.58468 11.2167C2.77216 13.0361 2.35296 15.0067 2.3545 16.9993ZM26.1557 16.2823C26.1557 14.5263 25.525 13.3101 24.984 12.3636C24.2637 11.1931 23.5888 10.202 23.5888 9.03152C23.5888 7.72536 24.5792 6.50951 25.9746 6.50951C26.0376 6.50951 26.0973 6.51735 26.159 6.52086C23.6307 4.20487 20.2627 2.79083 16.5635 2.79083C11.5995 2.79083 7.23225 5.33772 4.69158 9.19537C5.02494 9.20537 5.33938 9.21213 5.60597 9.21213C7.0922 9.21213 9.39278 9.03179 9.39278 9.03179C10.1587 8.98664 10.249 10.1117 9.48416 10.2022C9.48416 10.2022 8.71415 10.2928 7.85761 10.3377L13.032 25.7285L16.1418 16.4026L13.9277 10.3374C13.1626 10.2925 12.4377 10.202 12.4377 10.202C11.672 10.1571 11.7618 8.98637 12.5275 9.03152C12.5275 9.03152 14.874 9.21186 16.2702 9.21186C17.7561 9.21186 20.057 9.03152 20.057 9.03152C20.8235 8.98637 20.9135 10.1114 20.1481 10.202C20.1481 10.202 19.3767 10.2925 18.5218 10.3374L23.6567 25.6117L25.0737 20.8756C25.6883 18.9103 26.1557 17.4987 26.1557 16.2823Z" fill="white"/>
<path d="M16.8125 18.2421L12.5493 30.6299C13.8527 31.014 15.2044 31.209 16.5632 31.209C18.2179 31.209 19.8047 30.9227 21.2817 30.4036C21.2421 30.3416 21.2083 30.2761 21.1806 30.2079L16.8125 18.2421ZM29.0311 10.1821C29.0922 10.6347 29.1268 11.1208 29.1268 11.6431C29.1268 13.085 28.8575 14.7059 28.0464 16.7326L23.7061 29.2813C27.9304 26.818 30.7717 22.2414 30.7717 16.9992C30.7755 14.6164 30.1768 12.2714 29.0311 10.1821Z" fill="white"/>
<path d="M16.5634 0.436584C7.43059 0.436584 0 7.86663 0 16.9995C0 26.1334 7.43032 33.5634 16.5634 33.5634C25.696 33.5634 33.1277 26.1337 33.1277 16.9995C33.1274 7.86663 25.696 0.436584 16.5634 0.436584ZM16.5634 32.804C7.84939 32.804 0.75947 25.714 0.75947 16.9995C0.75947 8.2857 7.84912 1.19633 16.5634 1.19633C25.2772 1.19633 32.3666 8.2857 32.3666 16.9995C32.3666 25.714 25.2769 32.804 16.5634 32.804Z" fill="white"/>
</svg>
