<svg width="30" height="30" viewBox="0 0 30 30" fill="none" xmlns="http://www.w3.org/2000/svg">
<path d="M2.13107 14.9994C2.13107 20.093 5.09106 24.4944 9.38328 26.5806L3.24514 9.76255C2.50931 11.4103 2.12968 13.1948 2.13107 14.9994ZM23.6857 14.3501C23.6857 12.7598 23.1145 11.6584 22.6245 10.8012C21.9722 9.74125 21.3611 8.84363 21.3611 7.78367C21.3611 6.6008 22.258 5.49971 23.5217 5.49971C23.5787 5.49971 23.6328 5.50681 23.6886 5.50999C21.399 3.41261 18.349 2.13204 14.9989 2.13204C10.5035 2.13204 6.54841 4.43853 4.24755 7.93205C4.54945 7.94111 4.83421 7.94723 5.07563 7.94723C6.42157 7.94723 8.505 7.78392 8.505 7.78392C9.19866 7.74303 9.28044 8.76185 8.58776 8.84387C8.58776 8.84387 7.89043 8.92589 7.11475 8.96654L11.8007 22.9046L14.617 14.459L12.6119 8.9663C11.9189 8.92565 11.2625 8.84363 11.2625 8.84363C10.5691 8.80298 10.6504 7.74278 11.3438 7.78367C11.3438 7.78367 13.4688 7.94699 14.7333 7.94699C16.0789 7.94699 18.1626 7.78367 18.1626 7.78367C18.8568 7.74278 18.9383 8.7616 18.2451 8.84363C18.2451 8.84363 17.5466 8.92565 16.7724 8.9663L21.4226 22.7989L22.7058 18.5098C23.2624 16.73 23.6857 15.4516 23.6857 14.3501Z" fill="#00749A"/>
<path d="M15.2247 16.1248L11.3639 27.3433C12.5443 27.6912 13.7684 27.8678 14.999 27.8678C16.4975 27.8678 17.9345 27.6085 19.2721 27.1384C19.2362 27.0822 19.2056 27.0229 19.1805 26.9611L15.2247 16.1248ZM26.29 8.82558C26.3453 9.23546 26.3767 9.6757 26.3767 10.1488C26.3767 11.4545 26.1328 12.9224 25.3982 14.7578L21.4677 26.122C25.2932 23.8912 27.8663 19.7466 27.8663 14.9992C27.8698 12.8414 27.3275 10.7177 26.29 8.82558Z" fill="#00749A"/>
<path d="M14.999 0C6.72824 0 -0.000976562 6.72872 -0.000976562 14.9995C-0.000976562 23.2713 6.72799 30 14.999 30C23.2696 30 29.9998 23.2715 29.9998 14.9995C29.9995 6.72872 23.2696 0 14.999 0ZM14.999 29.3122C7.10751 29.3122 0.686807 22.8915 0.686807 14.9995C0.686807 7.10824 7.10727 0.688028 14.999 0.688028C22.8903 0.688028 29.3105 7.10824 29.3105 14.9995C29.3105 22.8915 22.8901 29.3122 14.999 29.3122Z" fill="#00749A"/>
</svg>
