<svg width="35" height="20" viewBox="0 0 35 30" fill="none" xmlns="http://www.w3.org/2000/svg">
<path fill-rule="evenodd" clip-rule="evenodd" d="M37.4733 4.78845C37.035 3.14454 35.7382 1.84785 34.0883 1.40341C31.1051 0.605759 19.1355 0.605759 19.1355 0.605759C19.1355 0.605759 7.17205 0.605759 4.18269 1.40341C2.53894 1.84172 1.24209 3.13856 0.797646 4.78845C-7.50192e-08 7.77168 0 13.9999 0 13.9999C0 13.9999 -7.50192e-08 20.2283 0.797646 23.2116C1.23596 24.8555 2.5328 26.1522 4.18269 26.5966C7.17205 27.3942 19.1355 27.3942 19.1355 27.3942C19.1355 27.3942 31.1051 27.3942 34.0883 26.5966C35.7322 26.1583 37.0289 24.8614 37.4733 23.2116C38.271 20.2283 38.271 14.0001 38.271 14.0001C38.271 14.0001 38.271 7.77168 37.4733 4.78845Z" fill="#FF0000"/>
<path fill-rule="evenodd" clip-rule="evenodd" d="M15.312 19.7413L25.2541 14L15.312 8.25883V19.7413Z" fill="white"/>
</svg>
