<svg width="120" height="28" viewBox="0 0 120 28" fill="none" xmlns="http://www.w3.org/2000/svg">
<path fill-rule="evenodd" clip-rule="evenodd" d="M37.4733 4.78845C37.035 3.14454 35.7382 1.84785 34.0883 1.40341C31.1051 0.605759 19.1355 0.605759 19.1355 0.605759C19.1355 0.605759 7.17205 0.605759 4.18269 1.40341C2.53894 1.84172 1.24209 3.13856 0.797646 4.78845C-7.50192e-08 7.77168 0 13.9999 0 13.9999C0 13.9999 -7.50192e-08 20.2283 0.797646 23.2116C1.23596 24.8555 2.5328 26.1522 4.18269 26.5966C7.17205 27.3942 19.1355 27.3942 19.1355 27.3942C19.1355 27.3942 31.1051 27.3942 34.0883 26.5966C35.7322 26.1583 37.0289 24.8614 37.4733 23.2116C38.271 20.2283 38.271 14.0001 38.271 14.0001C38.271 14.0001 38.271 7.77168 37.4733 4.78845Z" fill="#FF0000"/>
<path fill-rule="evenodd" clip-rule="evenodd" d="M15.312 19.7413L25.2541 14L15.312 8.25883V19.7413Z" fill="white"/>
<path fill-rule="evenodd" clip-rule="evenodd" d="M55.5497 24.977C54.7946 24.4657 54.2528 23.6741 53.9363 22.5966C53.6196 21.5189 53.4552 20.0882 53.4552 18.2981V15.8629C53.4552 14.0547 53.6378 12.6057 54.0031 11.5096C54.3684 10.4139 54.9408 9.61637 55.7139 9.11702C56.4872 8.61782 57.504 8.36216 58.7642 8.36216C60.0063 8.36216 60.9987 8.61782 61.7474 9.12929C62.4963 9.6406 63.0442 10.4382 63.3913 11.5219C63.7384 12.6057 63.9089 14.0547 63.9089 15.8567V18.2922C63.9089 20.0821 63.7384 21.5189 63.4034 22.6026C63.0686 23.6863 62.5208 24.4839 61.7597 24.9831C61.0046 25.4823 59.9757 25.7383 58.6789 25.7383C57.3517 25.7441 56.3045 25.4884 55.5497 24.977ZM59.7931 22.3469C60.0001 21.799 60.1098 20.9039 60.1098 19.6681V14.4383C60.1098 13.2327 60.0062 12.3561 59.7931 11.796C59.5862 11.2419 59.2147 10.9618 58.685 10.9618C58.1737 10.9618 57.8144 11.2419 57.6014 11.796C57.3943 12.3499 57.2848 13.2327 57.2848 14.4383V19.6681C57.2848 20.9101 57.3822 21.8051 57.5831 22.3469C57.784 22.8949 58.1493 23.1688 58.679 23.1688C59.2147 23.1688 59.58 22.8949 59.7931 22.3469ZM113.674 18.3408V19.1872C113.674 20.2647 113.705 21.0683 113.772 21.6102C113.833 22.146 113.967 22.5417 114.168 22.7854C114.368 23.0288 114.679 23.1567 115.099 23.1567C115.665 23.1567 116.055 22.9375 116.262 22.4991C116.469 22.0608 116.584 21.3301 116.603 20.3074L119.86 20.4961C119.878 20.6421 119.884 20.843 119.884 21.0987C119.884 22.6514 119.458 23.808 118.612 24.5752C117.766 25.3423 116.566 25.7258 115.014 25.7258C113.151 25.7258 111.848 25.1414 111.099 23.9724C110.35 22.8035 109.979 21.0013 109.979 18.5539V15.6255C109.979 13.1049 110.368 11.2722 111.142 10.1096C111.915 8.95277 113.242 8.37428 115.123 8.37428C116.42 8.37428 117.413 8.61184 118.107 9.08665C118.801 9.56147 119.288 10.2981 119.574 11.3028C119.854 12.3073 120 13.6955 120 15.4611V18.3348H113.674V18.3408ZM114.155 11.2784C113.966 11.5159 113.839 11.9055 113.772 12.4413C113.705 12.977 113.674 13.7991 113.674 14.8887V16.0943H116.438V14.8887C116.438 13.811 116.402 12.9953 116.329 12.4413C116.256 11.8872 116.122 11.4915 115.933 11.2663C115.744 11.041 115.446 10.9253 115.044 10.9253C114.642 10.9192 114.344 11.041 114.155 11.2784ZM46.3563 18.0242L42.0581 2.50521H45.8083L47.3122 9.53724C47.6957 11.2724 47.9758 12.7458 48.1584 13.9694H48.2679C48.3959 13.0927 48.6759 11.6254 49.1144 9.56147L50.6728 2.49907H54.4232L50.0763 18.0242V25.4702H46.3563V18.0242ZM76.1036 8.69098V25.4641H73.1507L72.8219 23.4124H72.7428C71.9392 24.9649 70.7337 25.7381 69.1325 25.7381C68.0184 25.7381 67.1964 25.3728 66.6668 24.6422C66.1371 23.9116 65.8753 22.7731 65.8753 21.2206V8.69098H69.6501V21.0075C69.6501 21.7563 69.7292 22.2922 69.8936 22.6087C70.058 22.9253 70.3319 23.0897 70.7155 23.0897C71.0443 23.0897 71.3608 22.9921 71.6591 22.7914C71.9574 22.5905 72.1827 22.3347 72.3289 22.0243V8.69082L76.1036 8.69098ZM95.4765 8.69098V25.4641H92.5236L92.1948 23.4124H92.1157C91.3121 24.9649 90.1066 25.7381 88.5054 25.7381C87.3913 25.7381 86.5693 25.3728 86.0397 24.6422C85.51 23.9116 85.2482 22.7731 85.2482 21.2206V8.69098H89.023V21.0075C89.023 21.7563 89.1021 22.2922 89.2665 22.6087C89.4307 22.9253 89.7048 23.0897 90.0884 23.0897C90.4172 23.0897 90.7337 22.9921 91.032 22.7914C91.3303 22.5905 91.5556 22.3347 91.7018 22.0243V8.69082L95.4765 8.69098Z" fill="#282828"/>
<path fill-rule="evenodd" clip-rule="evenodd" d="M86.3682 5.5435H82.6178V25.4642H78.9222V5.5435H75.1719V2.50552H86.362V5.5435H86.3682ZM107.975 11.3759C107.744 10.3166 107.379 9.54951 106.867 9.0747C106.356 8.59973 105.656 8.36232 104.761 8.36232C104.067 8.36232 103.421 8.55709 102.819 8.95293C102.216 9.34247 101.753 9.86007 101.425 10.4993H101.394V1.6591H97.7533V25.4703H100.87L101.254 23.8813H101.333C101.625 24.4476 102.064 24.892 102.648 25.2207C103.233 25.5495 103.878 25.7139 104.59 25.7139C105.869 25.7139 106.806 25.1233 107.409 23.9482C108.012 22.7733 108.31 20.9346 108.31 18.4323V15.7778C108.317 13.9026 108.201 12.4354 107.975 11.3761V11.3759ZM104.511 18.2192C104.511 19.443 104.462 20.3988 104.359 21.0929C104.262 21.787 104.091 22.2801 103.854 22.5724C103.616 22.8645 103.3 23.0107 102.898 23.0107C102.587 23.0107 102.301 22.9377 102.033 22.7915C101.772 22.6454 101.552 22.4262 101.388 22.1339V12.6059C101.516 12.1492 101.735 11.7779 102.046 11.4857C102.356 11.1934 102.691 11.0473 103.056 11.0473C103.44 11.0473 103.738 11.1994 103.945 11.4977C104.152 11.7961 104.298 12.3074 104.383 13.0137C104.463 13.7261 104.505 14.7367 104.505 16.0517V18.2192H104.511Z" fill="#282828"/>
</svg>
