<svg width="30" height="30" viewBox="0 0 30 30" fill="none" xmlns="http://www.w3.org/2000/svg">
<path d="M29.724 12.4027H20.8883L27.1127 6.22251C26.6542 5.51002 26.1544 5.03427 25.6753 4.32178C24.9872 3.82734 24.3464 3.27109 23.7609 2.66006L17.5181 8.83345V0.251717C16.7365 0.0555364 15.9299 -0.0242474 15.1246 0.0149793C14.3191 -0.0361499 13.5107 0.0438175 12.7311 0.251717V9.04742L6.26596 2.6282C5.52314 3.05149 4.87243 3.6171 4.35163 4.29219C3.8931 5.00468 3.15487 5.48043 2.67801 6.19291L8.90247 12.3731H0.25471L0.0162908 14.7496C-0.0377302 15.5569 0.0428166 16.3676 0.25471 17.1488H9.11339L2.6482 23.5681C3.59505 24.9794 4.81474 26.1949 6.23845 27.1328L12.4629 20.9526V29.7483C13.2445 29.9445 14.0512 30.0242 14.8564 29.985C15.6619 30.0362 16.4704 29.9562 17.2499 29.7483V20.9526L23.4744 27.1328C24.2172 26.7095 24.8679 26.1439 25.3887 25.4688C26.0059 24.8893 26.5663 24.2528 27.0623 23.5681L20.8883 17.3924H29.747C29.9445 16.6164 30.0249 15.8154 29.9854 15.0159C30.0358 14.1365 29.9555 13.2544 29.747 12.3982L29.724 12.4027ZM18.7103 14.7792C18.688 15.8262 18.5261 16.8657 18.2288 17.8704C17.243 18.2574 16.1769 18.4168 15.1155 18.3257C14.061 18.3035 13.0141 18.1428 12.0021 17.8477C11.6123 16.8689 11.4519 15.8104 11.5436 14.7564C11.5659 13.7094 11.7278 12.67 12.025 11.6652C13.0109 11.2782 14.0769 11.1189 15.1384 11.2099C16.1929 11.2321 17.2398 11.3928 18.2518 11.688C18.528 12.6972 18.6888 13.7342 18.7309 14.7792H18.7103Z" fill="#FF4A00"/>
</svg>
