<svg width="88" height="40" viewBox="0 0 88 40" fill="none" xmlns="http://www.w3.org/2000/svg">
<path d="M0.37207 31.4692L9.43386 17.4298H1.43991C1.36581 16.9897 1.33616 16.5433 1.35142 16.0973C1.33696 15.6514 1.36674 15.2039 1.43991 14.7648H14.3221L14.4923 15.209L5.34031 29.2484H13.8797C13.9538 29.6884 13.9834 30.1348 13.9682 30.5808C13.9862 30.9975 13.9566 31.4149 13.8797 31.8248H0.461411L0.37207 31.4692ZM26.4062 20.629C26.4556 20.1263 26.3936 19.6189 26.2247 19.1428C26.0557 18.6668 25.7839 18.2338 25.4286 17.8748C24.5696 17.2845 23.5361 17.0026 22.4964 17.0749C21.7529 17.0864 21.0108 17.1458 20.2748 17.2528C19.6126 17.3487 18.959 17.4973 18.3204 17.6969C17.8661 16.8847 17.6508 15.9605 17.6992 15.0312C18.5057 14.7598 19.3404 14.5808 20.1872 14.4977C21.0677 14.3501 21.9607 14.2905 22.853 14.3198C24.6668 14.2063 26.4619 14.7417 27.9174 15.8301C29.0728 16.8086 29.694 18.4959 29.694 20.7167V31.4675L26.8504 32.0009C25.734 32.1779 24.6041 32.2673 23.4741 32.2673C22.4905 32.2758 21.5171 32.1856 20.542 32.0009C19.7393 31.8401 18.9812 31.5065 18.3204 31.0233C17.7104 30.5908 17.221 30.0098 16.8986 29.3352C16.5255 28.56 16.3426 27.7071 16.3651 26.8472C16.3275 25.9753 16.5432 25.1112 16.9862 24.3593C17.3448 23.6305 17.8986 23.0155 18.5858 22.5826C19.3027 22.1219 20.0802 21.763 20.896 21.5165C21.7911 21.2612 22.7194 21.1421 23.6502 21.1608C24.2439 21.1387 24.8383 21.1683 25.4268 21.2493C25.871 21.2493 26.2267 21.3378 26.5823 21.3378V20.6273L26.4062 20.629ZM26.4062 23.8283C25.9867 23.807 25.5706 23.7475 25.1622 23.6581C24.6287 23.6581 24.1837 23.5697 23.8298 23.5697C22.7066 23.5025 21.5899 23.7817 20.6305 24.3695C20.2797 24.6401 19.9996 24.9915 19.814 25.3937C19.6284 25.796 19.5427 26.2371 19.5643 26.6796C19.5142 27.1696 19.6046 27.6638 19.8248 28.1043C20.0451 28.5449 20.3862 28.9136 20.8083 29.1675C21.1894 29.3819 21.6155 29.5037 22.0523 29.5232C22.463 29.5939 22.8797 29.6236 23.2963 29.6117C23.831 29.6266 24.3661 29.597 24.8959 29.5232L26.3169 29.2569V23.8368L26.4062 23.8283ZM33.3366 14.7648C33.6029 14.7648 33.7807 14.6763 34.047 14.6763H35.468C35.7343 14.6763 35.9121 14.7648 36.1785 14.7648C36.2268 14.9085 36.2565 15.0578 36.267 15.209C36.267 15.4753 36.3554 15.6531 36.3554 15.9195C36.3554 16.1858 36.4439 16.453 36.4439 16.7193C36.4414 16.8724 36.472 17.023 36.5324 17.1634L37.3322 16.0973C37.6777 15.7527 38.0657 15.454 38.4877 15.209C39.5215 14.6363 40.683 14.3326 41.864 14.3207C42.8 14.3088 43.7461 14.4908 44.6183 14.8542C45.4752 15.1988 46.2347 15.748 46.8305 16.4538C47.4777 17.2385 47.9612 18.145 48.2523 19.1196C48.6277 20.3576 48.8077 21.6465 48.7858 22.94C48.9277 25.4755 48.0661 27.965 46.3872 29.8704C44.7876 31.5585 42.5583 32.3583 39.6347 32.3583C39.1297 32.3731 38.6243 32.3435 38.1244 32.2698C37.5912 32.1808 37.147 32.092 36.7919 32.0035V39.9115C36.5256 39.9115 36.2585 40 35.9036 40H34.304C34.0377 40 33.7705 39.9115 33.5042 39.9115V14.7648H33.3366ZM36.6235 29.1599C37.0556 29.3196 37.5017 29.4387 37.9559 29.5156C38.5445 29.5965 39.1389 29.6262 39.7326 29.604C40.4983 29.6236 41.242 29.5019 41.9448 29.2484C42.6019 29.0234 43.1855 28.624 43.633 28.0929C44.1396 27.4878 44.5312 26.7952 44.7884 26.0491C45.0931 25.1019 45.2431 24.1119 45.2326 23.117C45.2884 21.6341 44.9511 20.1629 44.2549 18.8524C43.5632 17.7718 42.3354 17.1507 41.0557 17.2528C40.5116 17.2544 39.9713 17.3444 39.456 17.5191C38.9501 17.7101 38.4944 18.0139 38.1236 18.4074C37.6981 18.8389 37.3654 19.3529 37.1459 19.9177C36.877 20.6265 36.7562 21.3812 36.7902 22.13V29.1497L36.6235 29.1599ZM52.7951 17.3328H50.5829C50.5032 17.136 50.4728 16.9228 50.4944 16.7116V15.2907C50.4944 15.0243 50.5829 14.8465 50.5829 14.6695H56.0029V31.9065C55.7366 31.9065 55.4694 31.995 55.2031 31.995H53.6035C53.3372 31.995 53.07 31.9065 52.8037 31.9065L52.7951 17.3328ZM63.1911 24.1738C63.2796 26.0397 63.7246 27.4615 64.6121 28.2614C65.7462 29.226 67.2149 29.7048 68.6996 29.5938C70.2457 29.6023 71.7815 29.3326 73.2314 28.794C73.4464 29.1816 73.5964 29.6019 73.6755 30.038C73.7774 30.5054 73.8372 30.9809 73.8542 31.4589C73.0896 31.8007 72.283 32.0396 71.4556 32.1694C70.489 32.3541 69.4986 32.4434 68.5235 32.4357C67.1629 32.4893 65.8047 32.2784 64.5244 31.8146C63.4968 31.3331 62.564 30.6711 61.7701 29.8602C61.0323 29.0429 60.4859 28.0715 60.1705 27.0165C59.8069 25.8673 59.6268 24.6678 59.637 23.4624C59.6421 22.2644 59.7902 21.08 60.0812 19.9084C60.3866 18.8679 60.9005 17.9004 61.5915 17.0647C62.2977 16.2709 63.14 15.6183 64.0794 15.1103C65.2437 14.5555 66.5219 14.2815 67.8113 14.3105C68.8168 14.2667 69.8191 14.4519 70.7425 14.8521C71.666 15.2523 72.4864 15.857 73.1421 16.6206C73.774 17.3347 74.2303 18.1867 74.4745 19.1085C74.8081 20.1406 74.9595 21.2229 74.9187 22.3078V23.2863C74.9187 23.642 74.8302 23.9075 74.8302 24.1746L63.1911 24.1738ZM71.7211 21.6858C71.7261 21.0833 71.6362 20.4838 71.4548 19.9092C71.2721 19.382 71.034 18.8757 70.7443 18.3989C70.4167 17.953 69.9911 17.5883 69.5003 17.3328C68.9462 17.0705 68.3361 16.9484 67.7237 16.9771C67.1463 16.9478 66.5694 17.0439 66.0325 17.2586C65.4957 17.4733 65.0117 17.8017 64.6138 18.2211C63.8271 19.2137 63.3623 20.4228 63.2813 21.6867L71.7211 21.6858ZM78.6515 14.7563C78.9178 14.7563 79.0956 14.6678 79.3619 14.6678H80.7829C81.0492 14.6678 81.227 14.7563 81.4934 14.7563C81.6081 15.1913 81.6679 15.6389 81.6712 16.0888C81.7431 16.5588 81.7728 17.0344 81.7597 17.5097C82.2128 16.7157 82.8534 16.0447 83.6256 15.5553C84.5009 15.0011 85.5223 14.7225 86.5577 14.7555H87.0912C87.2451 14.7327 87.402 14.764 87.5354 14.844C87.5354 15.0141 87.6239 15.2881 87.6239 15.4651V16.1756C87.6384 16.4452 87.6085 16.7154 87.5354 16.9754C87.5354 17.2417 87.4469 17.5089 87.4469 17.7752C87.2767 17.7752 87.0912 17.6867 86.9134 17.6867H86.4693C85.8957 17.6813 85.3252 17.7713 84.7811 17.953C84.215 18.1267 83.6977 18.431 83.2708 18.8414C82.7764 19.3382 82.4105 19.948 82.2047 20.618C81.9265 21.539 81.8063 22.5004 81.849 23.4616V32.0018C81.5827 32.0018 81.3155 32.0903 81.0492 32.0903H79.4496C79.1832 32.0903 78.8284 32.0018 78.5613 32.0018V14.7648L78.6515 14.7563ZM59.192 4.63605H55.9127L58.2229 2.32593C58.0527 2.0596 57.8672 1.88177 57.6894 1.61545C57.434 1.43063 57.1962 1.22271 56.9789 0.994313L54.662 3.30188V0.0940899C54.3719 0.0207591 54.0725 -0.0090635 53.7737 0.00559914C53.4747 -0.0135126 53.1746 0.0163787 52.8853 0.0940899V3.38186L50.4859 0.982401C50.2102 1.14062 49.9687 1.35205 49.7754 1.60439C49.6052 1.87071 49.3312 2.04854 49.1543 2.31487L51.4644 4.62498H48.2549L48.1664 5.5133C48.1464 5.81507 48.1763 6.11808 48.2549 6.41011H51.5427L49.1432 8.80958C49.4946 9.33712 49.9473 9.79148 50.4757 10.142L52.7858 7.83192V11.1197C53.0759 11.193 53.3753 11.2228 53.6741 11.2082C53.973 11.2273 54.2731 11.1974 54.5624 11.1197V7.83192L56.8725 10.142C57.1482 9.98382 57.3897 9.7724 57.583 9.52005C57.8121 9.30343 58.0201 9.06554 58.2041 8.80958L55.9127 6.50116H59.2005C59.2738 6.21107 59.3037 5.9117 59.289 5.61285C59.3077 5.2841 59.2779 4.9544 59.2005 4.63434L59.192 4.63605ZM55.1044 5.52436C55.0961 5.91572 55.036 6.30426 54.9257 6.67984C54.5599 6.82449 54.1642 6.88405 53.7702 6.85002C53.3789 6.84173 52.9903 6.78165 52.6148 6.67133C52.4701 6.30546 52.4106 5.9098 52.4446 5.51585C52.4529 5.12449 52.513 4.73595 52.6233 4.36036C52.9892 4.21572 53.3848 4.15615 53.7788 4.19019C54.1701 4.19847 54.5587 4.25856 54.9342 4.36887C55.0368 4.74612 55.0964 5.13373 55.1121 5.52436H55.1044Z" fill="white"/>
</svg>
