<svg width="126" height="24" viewBox="0 0 126 24" fill="none" xmlns="http://www.w3.org/2000/svg">
<path d="M83.1392 20.7081C84.8007 20.7481 86.4023 20.1276 87.6034 18.9664L89.8055 21.3487C88.3441 22.8501 86.3222 23.9712 83.1792 23.9712C77.7741 23.9712 74.2907 20.3878 74.2907 15.5432C74.2907 10.7386 77.9542 7.11516 82.6787 7.11516C88.0438 7.11516 91.0667 11.1991 90.8065 16.8444H78.1544C78.5948 19.2067 80.2564 20.7081 83.1392 20.7081ZM86.9828 14.1619C86.6425 11.9798 85.3413 10.3582 82.7188 10.3582C80.2764 10.3582 78.5948 11.7396 78.1544 14.1619H86.9828ZM0 20.5279L9.74928 10.6185H0.22021V7.51554H14.2536V10.6986L4.52431 20.588H14.3937V23.6909H0V20.5279ZM25.3241 20.7081C26.9857 20.7481 28.5872 20.1276 29.7884 18.9664L31.9905 21.3487C30.5291 22.8501 28.5071 23.9712 25.3642 23.9712C19.979 23.9712 16.4757 20.3878 16.4757 15.5432C16.4757 10.7386 20.1392 7.11516 24.8637 7.11516C30.2288 7.11516 33.2517 11.1991 32.9914 16.8444H20.3394C20.7998 19.2067 22.4414 20.7081 25.3241 20.7081ZM29.1878 14.1619C28.8475 11.9798 27.5462 10.3582 24.9237 10.3582C22.4814 10.3582 20.7998 11.7396 20.3594 14.1619H29.1878ZM54.0515 15.5632C54.0515 10.3783 57.9151 7.1552 62.1792 7.1552C64.3212 7.1552 66.3632 8.0961 67.5643 9.57751V0.0284119H71.0076V23.6509H67.5643V21.4088C66.3232 22.9903 64.2812 23.9712 62.1392 23.9712C58.0152 23.9712 54.0515 20.7081 54.0515 15.5632ZM67.7645 15.5232C67.7645 12.6404 65.5824 10.2782 62.6396 10.2782C59.7569 10.2782 57.5148 12.5804 57.5148 15.5232C57.5148 18.466 59.7569 20.7882 62.6396 20.7882C65.5824 20.8082 67.7645 18.446 67.7645 15.5232ZM93.0486 20.2076L96.1716 18.5861C97.0124 20.0875 98.6139 20.9884 100.336 20.9483C102.277 20.9483 103.298 19.9474 103.298 18.8063C103.298 17.5051 101.417 17.2248 99.3746 16.8044C96.612 16.2238 93.7493 15.323 93.7493 11.9798C93.7493 9.41735 96.1916 7.0551 100.015 7.09514C103.038 7.09514 105.28 8.29629 106.541 10.2381L103.639 11.8397C102.898 10.6986 101.617 9.99791 99.9952 9.99791C98.1334 9.99791 97.1925 10.8988 97.1925 11.9398C97.1925 13.1009 98.694 13.4212 101.036 13.9417C103.699 14.5222 106.722 15.4031 106.722 18.7663C106.722 21.0084 104.78 24.0113 100.155 23.9712C96.7922 23.9712 94.4099 22.6099 93.0486 20.2076ZM116.071 16.4641L113.348 19.4469V23.6509H109.905V0.0284119H113.348V15.4831L120.655 7.4755H124.839L118.513 14.4021L125.019 23.6509H121.115L116.071 16.4641ZM43.6416 7.13518C39.5376 7.13518 36.1144 9.79772 36.1144 14.1819V23.6509H39.6377V14.6423C39.6377 11.9798 41.1592 10.3983 43.7617 10.3983C46.3641 10.3983 47.6654 11.9798 47.6654 14.6423V23.6509H51.1687V14.2019C51.1687 9.79772 47.7455 7.13518 43.6416 7.13518Z" fill="white"/>
<path d="M123.878 5.37362C124.358 4.89316 125.159 4.89316 125.639 5.37362C126.12 5.85408 126.12 6.65484 125.639 7.1353C125.159 7.61575 124.358 7.61575 123.878 7.1353C123.377 6.65484 123.377 5.8741 123.878 5.37362ZM125.419 6.93511C125.78 6.55474 125.76 5.95417 125.399 5.59383C125.019 5.23348 124.418 5.2535 124.058 5.61385C123.698 5.99421 123.698 6.57476 124.078 6.93511C124.458 7.31547 125.059 7.29545 125.419 6.93511ZM124.859 5.45369L125.239 5.83406C125.479 6.07429 125.479 6.35455 125.319 6.51471C125.199 6.65484 124.999 6.69488 124.839 6.6148L124.719 7.09526L124.458 6.83501L124.639 6.17438L124.739 6.27448C124.799 6.35455 124.939 6.37457 125.019 6.31451L125.039 6.2945C125.119 6.21442 125.099 6.07429 125.019 6.01423L124.999 5.99421L124.859 5.85408L124.158 6.55474L123.938 6.33453L124.859 5.45369Z" fill="white"/>
</svg>
