<svg width="100" height="36" viewBox="0 0 100 36" fill="none" xmlns="http://www.w3.org/2000/svg">
<path d="M100 8.11719V31.8281L96.7188 35.0312V11.8281L100 8.11719Z" fill="#E79225"/>
<path d="M78.4961 8.13672L75.0977 11.8281L75.2734 12.0625L96.582 11.9844L96.7773 11.8281L100 8.11719L78.4961 8.13672Z" fill="#FFF16D"/>
<path d="M75.0977 11.828H96.7773V35.0507H75.0977V11.828Z" fill="url(#paint0_linear_187_2194)"/>
<path d="M93.4766 20.1874C93.0469 19.1132 92.4023 18.1366 91.5625 17.2968C90.7617 16.4765 89.8633 15.8515 88.8477 15.4413C87.8516 15.0312 86.7773 14.8163 85.6055 14.8163C84.4336 14.8163 83.3398 15.0312 82.3438 15.4413C81.3281 15.8515 80.4297 16.4765 79.6289 17.2968C78.7891 18.1366 78.1641 19.1132 77.7344 20.1874C77.3047 21.2616 77.1094 22.4335 77.1094 23.7226C77.1094 24.9726 77.3242 26.1444 77.7539 27.2382C78.1836 28.3319 78.8086 29.3085 79.6484 30.1679C80.4297 30.9687 81.3281 31.5741 82.3242 31.9843C83.3203 32.3944 84.4336 32.6093 85.625 32.6093C86.7773 32.6093 87.8516 32.3944 88.8477 31.9843C89.8438 31.5741 90.7617 30.9687 91.5625 30.1679C92.4023 29.3085 93.0469 28.3319 93.4766 27.2577C93.9063 26.1835 94.1211 24.9921 94.1211 23.7421C94.1211 22.4335 93.9063 21.2616 93.4766 20.1874ZM89.0039 27.8437C88.1641 28.8398 87.0508 29.3476 85.6055 29.3476C84.1602 29.3476 83.0273 28.8398 82.1875 27.8437C81.3477 26.8476 80.9375 25.4608 80.9375 23.703C80.9375 21.9062 81.3672 20.5194 82.1875 19.5038C83.0273 18.4882 84.1406 17.9999 85.6055 17.9999C87.0508 17.9999 88.1641 18.5077 89.0039 19.5038C89.8242 20.5194 90.2539 21.9062 90.2539 23.703C90.2539 25.4608 89.8438 26.8476 89.0039 27.8437Z" fill="white"/>
<path d="M72.9688 6.18362V6.30081L75.7422 27.6094L74.1211 32.1016L73.9063 31.9453L71.0547 11.5157L71.1133 11.2422L72.8906 6.30081L72.9688 6.18362Z" fill="#009ADA"/>
<path d="M51.6211 9.15237L72.9688 6.18362L71.1719 11.3008L70.918 11.5742L50.957 14.5039L51.0547 10.8516L51.6211 9.15237Z" fill="#91C9ED"/>
<path d="M71.1719 11.3008L74.1211 32.1015L53.0859 35.0508L50.2539 14.9531L51.4844 13.9961L71.1719 11.3008Z" fill="url(#paint1_linear_187_2194)"/>
<path d="M67.5977 15.285C67.5 14.6405 67.2852 14.1522 66.9336 13.8202C66.6406 13.5663 66.2891 13.4296 65.8789 13.4296C65.7812 13.4296 65.6641 13.4296 65.5469 13.4491C65 13.5272 64.5898 13.7811 64.3359 14.1913C64.1406 14.4843 64.0625 14.8553 64.0625 15.285C64.0625 15.4413 64.082 15.6171 64.1016 15.7928L64.8633 21.203L58.8086 22.1014L58.0469 16.6913C57.9492 16.0663 57.7344 15.578 57.3828 15.246C57.0898 14.9725 56.7383 14.8358 56.3477 14.8358C56.25 14.8358 56.1523 14.8358 56.0547 14.8553C55.4883 14.9335 55.0586 15.1874 54.7852 15.5975C54.5898 15.8905 54.5117 16.2616 54.5117 16.6913C54.5117 16.8475 54.5312 17.0233 54.5508 17.2186L56.6211 31.3007C56.7187 31.9452 56.9336 32.4335 57.3242 32.7655C57.6172 33.0194 57.9687 33.1366 58.3984 33.1366C58.5156 33.1366 58.6328 33.1366 58.75 33.1171C59.2773 33.0389 59.668 32.785 59.9219 32.3749C60.0977 32.0819 60.1758 31.7303 60.1758 31.3202C60.1758 31.1639 60.1562 30.9882 60.1367 30.8124L59.2969 25.246L65.3516 24.3475L66.1914 29.9139C66.2891 30.5585 66.5039 31.0468 66.875 31.3593C67.168 31.6132 67.5195 31.7499 67.9297 31.7499C68.0273 31.7499 68.1445 31.7499 68.2617 31.7303C68.8086 31.6522 69.2188 31.3983 69.4727 30.9882C69.6484 30.6952 69.7461 30.3436 69.7461 29.9139C69.7461 29.7577 69.7266 29.5819 69.707 29.4061L67.5977 15.285Z" fill="white"/>
<path d="M31.6406 0.753906L24.043 18.8008L25.0781 26.7305L25.1367 26.7109L33.6719 7.51172L33.6328 7.10156L31.7969 1.00781L31.6406 0.753906Z" fill="#66BF6B"/>
<path d="M31.6406 0.753906L33.6133 7.375L33.6523 7.51172L52.4414 15.9297L52.5 15.8906L50.8984 9.5625L31.6406 0.753906Z" fill="#98D0A0"/>
<path d="M33.6133 7.37502L52.5 15.8906L43.9648 35.2461L25.0781 26.7305L33.6133 7.37502Z" fill="url(#paint2_linear_187_2194)"/>
<path d="M46.7773 17.4531C46.3672 16.3593 45.8008 15.4218 45.0586 14.6406C44.3164 13.8593 43.418 13.2343 42.3633 12.7851C41.3086 12.3359 40.2539 12.1211 39.1797 12.1211H39.1211C38.0273 12.1211 36.9531 12.375 35.8984 12.8437C34.7852 13.332 33.8281 13.9961 33.0078 14.875C32.1875 15.7343 31.5234 16.789 31.0156 18C30.5078 19.1914 30.2344 20.4023 30.1758 21.5937V22.0039C30.1758 23.0586 30.3516 24.0937 30.7227 25.1093C31.1133 26.1836 31.6797 27.1015 32.4219 27.8828C33.1641 28.664 34.082 29.289 35.1758 29.7383C36.2109 30.1875 37.2656 30.4023 38.3398 30.4023H38.3594C39.4336 30.4023 40.5078 30.1679 41.5625 29.7187C42.6758 29.2304 43.6523 28.5468 44.4727 27.6679C45.293 26.8086 45.9766 25.7734 46.4844 24.5625C46.9922 23.3515 47.2656 22.1601 47.3242 20.9687V20.6172C47.3438 19.5429 47.168 18.4883 46.7773 17.4531ZM43.0078 23.0781C42.3047 24.7578 41.3477 25.9101 40.1953 26.5351C39.5703 26.8672 38.9258 27.0429 38.2812 27.0429C37.7148 27.0429 37.1094 26.9062 36.5039 26.6523C35.1758 26.0859 34.3555 25.1875 34.0039 23.8984C33.8867 23.4687 33.8281 23.0195 33.8281 22.5508C33.8281 21.6133 34.0625 20.5781 34.5313 19.4648C35.2539 17.7461 36.2109 16.5742 37.3633 15.9297C37.9883 15.5781 38.6328 15.4218 39.2773 15.4218C39.8633 15.4218 40.4492 15.5586 41.0742 15.8125C42.3828 16.3789 43.2031 17.2773 43.5547 18.5664C43.6719 18.9765 43.7305 19.4258 43.7305 19.8945C43.7305 20.8711 43.4961 21.9258 43.0078 23.0781Z" fill="white"/>
<path d="M22.5391 3.82019L25.625 24.4843L24.2188 31.7499L24.0234 31.496L21.0156 11.535V11.1444L22.3438 4.17175L22.5391 3.82019Z" fill="#760D16"/>
<path d="M0 14.5038L1.46484 7.19916L22.5391 3.82025L21.1133 11.2617V11.7499L0.253906 14.6992L0 14.5038Z" fill="#EF463E"/>
<path d="M21.1133 11.2618L24.2187 31.7501L3.35938 35.0118L0 14.504L21.1133 11.2618Z" fill="url(#paint3_linear_187_2194)"/>
<path d="M18.8672 28.4882C18.7109 28.2929 18.4766 28.1562 18.2031 28.0585C17.9297 27.9608 17.5977 27.9218 17.1875 27.9218C16.8164 27.9218 16.3867 27.9608 15.918 28.039L10.4102 28.9765C10.4688 28.5468 10.6836 27.9999 11.0547 27.3163C11.4648 26.5546 12.0898 25.6366 12.8906 24.5819C13.1641 24.2108 13.3789 23.9374 13.5352 23.7421C13.6328 23.6054 13.7891 23.4296 13.9844 23.1757C15.2539 21.5155 16.0156 20.1679 16.3281 19.1132C16.5039 18.5077 16.6016 17.9023 16.6406 17.2968C16.6602 17.121 16.6602 16.9648 16.6602 16.8085C16.6602 16.3788 16.6211 15.9491 16.543 15.5194C16.4844 15.1288 16.3867 14.8163 16.25 14.5624C16.1133 14.3085 15.957 14.1132 15.7617 13.996C15.5469 13.8593 15.2148 13.8007 14.8047 13.8007C14.4727 13.8007 14.0625 13.8398 13.5742 13.9179L7.20703 15.0116C6.44531 15.1483 5.85938 15.3632 5.50781 15.7148C5.21484 15.9882 5.07812 16.3398 5.07812 16.7304C5.07812 16.828 5.07813 16.9452 5.09766 17.0624C5.19531 17.6093 5.46875 17.9999 5.91797 18.1952C6.19141 18.3124 6.50391 18.371 6.89453 18.371C7.14844 18.371 7.44141 18.3515 7.75391 18.2929L13.0664 17.3554C13.0664 17.453 13.0859 17.5507 13.0859 17.6288C13.0859 17.9608 13.0273 18.2929 12.9102 18.6054C12.7539 19.0546 12.3633 19.6796 11.7188 20.4804C11.543 20.6952 11.2695 21.0468 10.8984 21.496C9.45312 23.2343 8.4375 24.7187 7.8125 25.9491C7.36328 26.8085 7.07031 27.6288 6.89453 28.4687C6.79687 28.9569 6.73828 29.4062 6.73828 29.8554C6.73828 30.1679 6.75781 30.4804 6.81641 30.7733C6.89453 31.203 6.99219 31.5546 7.12891 31.828C7.26562 32.1015 7.46094 32.3163 7.67578 32.4335C7.89062 32.5507 8.18359 32.5898 8.61328 32.5898C9.14062 32.5898 9.86328 32.5116 10.7812 32.3554L16.5625 31.3593C17.5781 31.1835 18.3008 30.9296 18.7109 30.5976C19.043 30.3241 19.2188 29.953 19.2188 29.5233C19.2188 29.4062 19.1992 29.289 19.1797 29.1718C19.1406 28.9179 19.043 28.6835 18.8672 28.4882Z" fill="white"/>
<defs>
<linearGradient id="paint0_linear_187_2194" x1="85.9366" y1="12.1603" x2="85.9366" y2="34.3496" gradientUnits="userSpaceOnUse">
<stop offset="0.00562" stop-color="#FFE513"/>
<stop offset="1" stop-color="#FDB924"/>
</linearGradient>
<linearGradient id="paint1_linear_187_2194" x1="51.3308" y1="14.5056" x2="73.0036" y2="32.0827" gradientUnits="userSpaceOnUse">
<stop offset="0.00562" stop-color="#008CD2"/>
<stop offset="1" stop-color="#00649D"/>
</linearGradient>
<linearGradient id="paint2_linear_187_2194" x1="38.7896" y1="15.1173" x2="38.7896" y2="34.5574" gradientUnits="userSpaceOnUse">
<stop stop-color="#26A146"/>
<stop offset="1" stop-color="#008A52"/>
</linearGradient>
<linearGradient id="paint3_linear_187_2194" x1="10.5918" y1="13.2112" x2="13.8114" y2="33.4162" gradientUnits="userSpaceOnUse">
<stop stop-color="#D92231"/>
<stop offset="1" stop-color="#BA2234"/>
</linearGradient>
</defs>
</svg>
