<svg width="24" height="24" viewBox="0 0 24 24" fill="none" xmlns="http://www.w3.org/2000/svg">
<path d="M11.9999 0C5.37269 0 0 5.37254 0 11.9998C0 18.6277 5.37269 24 11.9999 24C18.6275 24 23.9999 18.6277 23.9999 11.9998C23.9999 5.37297 18.6279 0 11.9999 0ZM17.503 17.3071C17.2875 17.6606 16.827 17.7714 16.4746 17.556C13.6567 15.8338 10.1099 15.4447 5.93282 16.3989C5.53031 16.4912 5.12908 16.2389 5.03738 15.8365C4.94524 15.434 5.19643 15.0328 5.59995 14.9411C10.1711 13.896 14.092 14.3458 17.255 16.2786C17.6075 16.4949 17.7194 16.9546 17.503 17.3071ZM18.9718 14.0402C18.7004 14.4805 18.1246 14.6186 17.6849 14.3482C14.46 12.3659 9.54256 11.7917 5.72734 12.9498C5.23254 13.0993 4.70995 12.8204 4.55978 12.3265C4.41075 11.8317 4.68975 11.3101 5.18368 11.1596C9.54171 9.83733 14.9594 10.4779 18.6636 12.7541C19.1035 13.0249 19.2426 13.6008 18.9718 14.0402ZM19.0979 10.6378C15.2298 8.34061 8.84944 8.12939 5.15688 9.2501C4.56393 9.42993 3.93687 9.09519 3.75718 8.50224C3.57749 7.90901 3.91194 7.28237 4.50532 7.10211C8.74412 5.81533 15.7906 6.06394 20.2434 8.7073C20.7767 9.02383 20.9517 9.71265 20.6356 10.2453C20.3203 10.7786 19.6295 10.9544 19.0979 10.6378Z" fill="#2EBD59"/>
</svg>
