<?xml version="1.0" encoding="utf-8"?>
<!-- Generator: Adobe Illustrator 24.2.0, SVG Export Plug-In . SVG Version: 6.00 Build 0)  -->
<svg version="1.1" id="Layer_1" xmlns="http://www.w3.org/2000/svg" xmlns:xlink="http://www.w3.org/1999/xlink" x="0px" y="0px"
	 viewBox="0 0 500 500" style="enable-background:new 0 0 500 500;" xml:space="preserve">
<style type="text/css">
	.st0{fill:#002E60;}
</style>
<g>
	<path class="st0" d="M422.4,288H77.6c-9.7,0-17.6-7.9-17.6-17.6v-40.8c0-9.7,7.9-17.6,17.6-17.6h344.8c9.7,0,17.6,7.9,17.6,17.6
		v40.8C440,280.1,432.1,288,422.4,288z"/>
	<path class="st0" d="M212,422.4V77.6c0-9.7,7.9-17.6,17.6-17.6h40.8c9.7,0,17.6,7.9,17.6,17.6v344.8c0,9.7-7.9,17.6-17.6,17.6
		h-40.8C219.9,440,212,432.1,212,422.4z"/>
</g>
</svg>
