<?xml version="1.0" encoding="utf-8"?>
<!-- Generator: Adobe Illustrator 24.2.0, SVG Export Plug-In . SVG Version: 6.00 Build 0)  -->
<svg version="1.1" id="Layer_1" xmlns="http://www.w3.org/2000/svg" xmlns:xlink="http://www.w3.org/1999/xlink" x="0px" y="0px"
	 viewBox="0 0 500 500" style="enable-background:new 0 0 500 500;" xml:space="preserve">
<style type="text/css">
	.st0{fill:#002E60;}
</style>
<g>
	<path class="st0" d="M434.9,111.2H65.1c-8.4,0-15.1,6.7-15.1,15.1v247.4c0,8.4,6.7,15.1,15.1,15.1h369.8c8.4,0,15.1-6.7,15.1-15.1
		V126.3C450,118.1,443.3,111.2,434.9,111.2z M310.7,301.9c0,7.5-5.3,13.7-11.8,13.7H99.6c-6.5,0-11.8-6.1-11.8-13.7l0,0
		c0-7.5,5.3-13.7,11.8-13.7h199.3C305.3,288.2,310.7,294.2,310.7,301.9L310.7,301.9z M412.3,235.5c0,7.5-5.3,13.7-11.8,13.7H99.7
		c-6.5,0-11.8-6.1-11.8-13.7l0,0c0-7.5,5.3-13.7,11.8-13.7h300.8C406.9,221.7,412.3,227.9,412.3,235.5L412.3,235.5z M400.4,182.6
		H99.6c-6.5,0-11.8-6.1-11.8-13.7c0-7.4,5.3-13.7,11.8-13.7h300.8c6.5,0,11.8,6.1,11.8,13.7C412.2,176.5,406.9,182.6,400.4,182.6z"
		/>
</g>
</svg>
