<?xml version="1.0" encoding="utf-8"?>
<!-- Generator: Adobe Illustrator 24.2.0, SVG Export Plug-In . SVG Version: 6.00 Build 0)  -->
<svg version="1.1" id="Layer_1" xmlns="http://www.w3.org/2000/svg" xmlns:xlink="http://www.w3.org/1999/xlink" x="0px" y="0px"
	 viewBox="0 0 500 500" style="enable-background:new 0 0 500 500;" xml:space="preserve">
<style type="text/css">
	.st0{fill:#002E60;}
</style>
<g>
	<path class="st0" d="M218,313.9c-7.6,0-13.8-6.2-13.8-13.8V178.3c0-7.6,6.2-13.8,13.8-13.8h52.6c7.6,0,13.8,6.2,13.8,13.8V300
		c0,7.6-6.2,13.8-13.8,13.8H218V313.9z"/>
	<polygon class="st0" points="244.9,89.8 244.9,89.8 169.6,178.7 319,178.7 	"/>
	<path class="st0" d="M426.4,302.8H290.7c-0.9,8.4-6.2,18.4-20,18.4H218c-13.8,0-19.2-10-20-18.4H73.6c-7.5,0-13.6,6.1-13.6,13.6
		v80.2c0,7.5,6.1,13.6,13.6,13.6h352.8c7.5,0,13.6-6.1,13.6-13.6v-80.2C440,308.8,433.9,302.8,426.4,302.8z M329.5,368.5
		c-9.1,0-16.4-7.3-16.4-16.4s7.3-16.4,16.4-16.4s16.4,7.3,16.4,16.4C345.9,361.1,338.6,368.5,329.5,368.5z M389.2,368.5
		c-9.1,0-16.4-7.3-16.4-16.4s7.3-16.4,16.4-16.4s16.4,7.3,16.4,16.4C405.6,361.1,398.2,368.5,389.2,368.5z"/>
</g>
</svg>
