<?xml version="1.0" encoding="utf-8"?>
<!-- Generator: Adobe Illustrator 24.2.0, SVG Export Plug-In . SVG Version: 6.00 Build 0)  -->
<svg version="1.1" id="Layer_2_1_" xmlns="http://www.w3.org/2000/svg" xmlns:xlink="http://www.w3.org/1999/xlink" x="0px" y="0px"
	 viewBox="0 0 400 160" style="enable-background:new 0 0 400 160;" xml:space="preserve">
<style type="text/css">
	.st0{fill:#FFFFFF;stroke:#FABC04;stroke-width:2;stroke-miterlimit:10;}
	.st1{enable-background:new    ;}
	.st2{fill:#666666;}
	.st3{fill:#3C8BD9;}
	.st4{fill:#FABC04;}
	.st5{fill:#34A852;}
</style>
<g>
	<path class="st0" d="M376.7,150H23.3C16,150,10,144,10,136.7V23.3C10,16,16,10,23.3,10h353.4c7.3,0,13.3,6,13.3,13.3v113.4
		C390,144,384,150,376.7,150z"/>
</g>
<g>
	<g class="st1">
		<path class="st2" d="M171.3,80.2h11.5c0,0.3,0.1,0.6,0.1,0.9c0,0.3,0.1,0.7,0.1,1c0,1.4-0.2,2.8-0.7,4.2c-0.4,1.4-1.2,2.6-2.2,3.7
			c-1.1,1.1-2.3,2-3.8,2.6c-1.5,0.6-3.1,0.9-5,0.9c-1.7,0-3.3-0.3-4.8-0.9c-1.5-0.6-2.8-1.5-3.9-2.6c-1.1-1.1-2-2.4-2.7-3.9
			c-0.6-1.5-1-3.2-1-4.9c0-1.8,0.3-3.4,1-4.9s1.5-2.8,2.7-3.9c1.1-1.1,2.4-2,3.9-2.6c1.5-0.6,3.1-0.9,4.8-0.9c1.8,0,3.5,0.3,5,1
			c1.5,0.6,2.8,1.5,3.8,2.7l-2.6,2.6c-0.8-0.9-1.7-1.5-2.7-2c-1-0.5-2.2-0.7-3.5-0.7c-1.1,0-2.2,0.2-3.2,0.6c-1,0.4-1.9,1-2.7,1.8
			c-0.8,0.8-1.4,1.7-1.9,2.8c-0.5,1.1-0.7,2.3-0.7,3.6c0,1.3,0.2,2.6,0.7,3.6s1.1,2,1.9,2.8s1.7,1.3,2.7,1.8c1,0.4,2.1,0.6,3.3,0.6
			c1.5,0,2.7-0.2,3.7-0.7c0.9-0.5,1.7-1,2.4-1.6c0.5-0.4,0.9-1,1.2-1.7c0.4-0.7,0.6-1.5,0.7-2.4h-8V80.2z"/>
		<path class="st2" d="M193.5,76.3c1.2,0,2.4,0.2,3.4,0.6c1,0.4,1.9,1,2.7,1.8c0.7,0.8,1.3,1.7,1.7,2.7c0.4,1.1,0.6,2.2,0.6,3.4
			c0,1.2-0.2,2.4-0.6,3.4c-0.4,1.1-1,2-1.7,2.7c-0.7,0.8-1.6,1.4-2.7,1.8c-1,0.4-2.2,0.6-3.4,0.6c-1.2,0-2.4-0.2-3.4-0.6
			c-1-0.4-1.9-1-2.7-1.8c-0.7-0.8-1.3-1.7-1.7-2.7c-0.4-1.1-0.6-2.2-0.6-3.4c0-1.2,0.2-2.4,0.6-3.4c0.4-1.1,1-2,1.7-2.7
			c0.7-0.8,1.6-1.4,2.7-1.8C191.1,76.5,192.3,76.3,193.5,76.3z M193.5,90.1c0.6,0,1.2-0.1,1.8-0.4c0.6-0.2,1.1-0.6,1.5-1
			c0.5-0.4,0.8-1,1.1-1.6c0.3-0.6,0.4-1.4,0.4-2.2c0-0.8-0.1-1.5-0.4-2.2c-0.3-0.6-0.6-1.2-1.1-1.6c-0.5-0.4-1-0.8-1.5-1
			c-0.6-0.2-1.2-0.4-1.8-0.4c-0.6,0-1.2,0.1-1.8,0.4c-0.6,0.2-1.1,0.6-1.5,1c-0.5,0.4-0.8,1-1.1,1.6c-0.3,0.6-0.4,1.4-0.4,2.2
			c0,0.8,0.1,1.5,0.4,2.2c0.3,0.6,0.6,1.2,1.1,1.6c0.5,0.4,1,0.8,1.5,1C192.3,90,192.9,90.1,193.5,90.1z"/>
		<path class="st2" d="M212.2,76.3c1.2,0,2.4,0.2,3.4,0.6s1.9,1,2.7,1.8c0.7,0.8,1.3,1.7,1.7,2.7c0.4,1.1,0.6,2.2,0.6,3.4
			c0,1.2-0.2,2.4-0.6,3.4c-0.4,1.1-1,2-1.7,2.7c-0.7,0.8-1.6,1.4-2.7,1.8c-1,0.4-2.2,0.6-3.4,0.6c-1.2,0-2.4-0.2-3.4-0.6
			c-1-0.4-1.9-1-2.7-1.8c-0.7-0.8-1.3-1.7-1.7-2.7c-0.4-1.1-0.6-2.2-0.6-3.4c0-1.2,0.2-2.4,0.6-3.4c0.4-1.1,1-2,1.7-2.7
			c0.7-0.8,1.6-1.4,2.7-1.8S211,76.3,212.2,76.3z M212.2,90.1c0.6,0,1.2-0.1,1.8-0.4c0.6-0.2,1.1-0.6,1.5-1c0.5-0.4,0.8-1,1.1-1.6
			c0.3-0.6,0.4-1.4,0.4-2.2c0-0.8-0.1-1.5-0.4-2.2c-0.3-0.6-0.6-1.2-1.1-1.6c-0.5-0.4-1-0.8-1.5-1s-1.2-0.4-1.8-0.4
			c-0.6,0-1.2,0.1-1.8,0.4c-0.6,0.2-1.1,0.6-1.5,1c-0.5,0.4-0.8,1-1.1,1.6c-0.3,0.6-0.4,1.4-0.4,2.2c0,0.8,0.1,1.5,0.4,2.2
			c0.3,0.6,0.6,1.2,1.1,1.6c0.5,0.4,1,0.8,1.5,1C211,90,211.6,90.1,212.2,90.1z"/>
		<path class="st2" d="M230.8,100.7c-1.1,0-2.1-0.1-3-0.4c-0.9-0.3-1.6-0.7-2.3-1.1c-0.6-0.5-1.2-1-1.6-1.6
			c-0.4-0.6-0.7-1.1-0.9-1.7l3.5-1.4c0.3,0.9,0.8,1.6,1.6,2.1c0.7,0.5,1.6,0.8,2.6,0.8c1.5,0,2.7-0.4,3.5-1.3s1.3-2.1,1.3-3.7V91
			h-0.2c-0.5,0.7-1.2,1.3-2.1,1.8c-0.9,0.5-1.9,0.7-3.1,0.7c-1,0-1.9-0.2-2.9-0.6s-1.7-1-2.5-1.8c-0.7-0.8-1.3-1.7-1.7-2.7
			c-0.4-1.1-0.6-2.2-0.6-3.5s0.2-2.4,0.6-3.5c0.4-1.1,1-2,1.7-2.7c0.7-0.8,1.5-1.3,2.5-1.8s1.9-0.6,2.9-0.6c1.2,0,2.2,0.2,3.1,0.7
			c0.9,0.5,1.6,1.1,2.1,1.8h0.2v-2h3.5v15.2c0,1.4-0.2,2.6-0.6,3.7c-0.4,1.1-1,2-1.7,2.7c-0.7,0.7-1.6,1.3-2.6,1.6
			C233.1,100.5,232,100.7,230.8,100.7z M230.9,90.1c0.6,0,1.2-0.1,1.7-0.3c0.6-0.2,1.1-0.6,1.5-1s0.8-1,1-1.6
			c0.3-0.6,0.4-1.4,0.4-2.2c0-0.8-0.1-1.6-0.4-2.2c-0.3-0.7-0.6-1.2-1-1.6s-0.9-0.8-1.5-1c-0.6-0.2-1.2-0.4-1.7-0.4
			c-0.6,0-1.2,0.1-1.8,0.4c-0.6,0.2-1.1,0.6-1.5,1s-0.8,1-1.1,1.6c-0.3,0.6-0.4,1.4-0.4,2.2s0.1,1.6,0.4,2.2
			c0.3,0.6,0.6,1.2,1.1,1.6c0.4,0.4,0.9,0.8,1.5,1C229.7,90,230.3,90.1,230.9,90.1z"/>
		<path class="st2" d="M242.8,93V69.4h3.7V93H242.8z"/>
		<path class="st2" d="M265,89.1c-0.7,1.3-1.7,2.3-2.9,3.1c-1.3,0.8-2.8,1.3-4.6,1.3c-1.2,0-2.3-0.2-3.3-0.6c-1-0.4-1.9-1-2.7-1.8
			c-0.7-0.8-1.3-1.7-1.7-2.7s-0.6-2.2-0.6-3.4c0-1.2,0.2-2.3,0.6-3.3c0.4-1,1-2,1.7-2.7c0.7-0.8,1.6-1.4,2.6-1.9s2.1-0.7,3.4-0.7
			c1.3,0,2.4,0.2,3.3,0.6c1,0.4,1.8,1,2.5,1.7c0.7,0.7,1.2,1.7,1.6,2.7c0.4,1.1,0.5,2.2,0.5,3.5c0,0.1,0,0.2,0,0.3
			c0,0.1,0,0.2,0,0.3c0,0.1,0,0.2,0,0.3h-12.4c0.1,0.8,0.3,1.4,0.6,2c0.3,0.6,0.7,1,1.1,1.4c0.5,0.4,1,0.6,1.5,0.8
			c0.5,0.2,1.1,0.3,1.6,0.3c1.1,0,1.9-0.3,2.6-0.8c0.7-0.5,1.2-1.1,1.7-1.9L265,89.1z M261.6,82.9c0-0.3-0.1-0.7-0.3-1.1
			s-0.4-0.8-0.8-1.1c-0.3-0.3-0.8-0.6-1.3-0.9c-0.5-0.2-1.2-0.4-2-0.4c-1.1,0-2,0.3-2.7,0.9c-0.8,0.6-1.3,1.5-1.5,2.5H261.6z"/>
	</g>
	<g class="st1">
		<path class="st2" d="M276.5,93h-3.4l8.9-23.6h3.4l8.9,23.6H291l-2.3-6.4h-9.9L276.5,93z M283.7,73.1l-3.9,10.7h7.9l-3.9-10.7
			H283.7z"/>
		<path class="st2" d="M302.9,93.5c-2.1,0-3.9-0.8-5.4-2.5c-1.5-1.7-2.2-3.7-2.2-6.1s0.7-4.4,2.2-6.1c1.5-1.7,3.3-2.5,5.4-2.5
			c1.2,0,2.3,0.3,3.3,0.8c1,0.5,1.7,1.2,2.3,2h0.1l-0.1-2.2v-7.5h3V93h-2.9v-2.2h-0.1c-0.5,0.8-1.3,1.5-2.3,2
			C305.2,93.3,304.1,93.5,302.9,93.5z M303.4,90.8c1.5,0,2.7-0.5,3.7-1.6c1-1.1,1.5-2.5,1.5-4.2c0-1.7-0.5-3.1-1.5-4.2
			c-1-1.1-2.2-1.6-3.7-1.6c-1.5,0-2.7,0.5-3.7,1.6c-1,1.1-1.5,2.5-1.5,4.2c0,1.7,0.5,3.1,1.5,4.2C300.8,90.2,302,90.8,303.4,90.8z"
			/>
		<path class="st2" d="M327.4,88.5c0,1.4-0.6,2.6-1.8,3.6c-1.2,1-2.8,1.5-4.7,1.5c-1.6,0-3.1-0.4-4.3-1.3s-2.1-2-2.6-3.3l2.7-1.2
			c0.4,1,1,1.7,1.7,2.3s1.6,0.8,2.5,0.8c1,0,1.8-0.2,2.4-0.6c0.6-0.4,1-0.9,1-1.5c0-1-0.8-1.8-2.4-2.3l-2.8-0.7
			c-3.1-0.8-4.7-2.3-4.7-4.6c0-1.5,0.6-2.7,1.8-3.5c1.2-0.9,2.7-1.3,4.6-1.3c1.4,0,2.7,0.3,3.9,1s2,1.6,2.4,2.7l-2.7,1.1
			c-0.3-0.7-0.8-1.2-1.5-1.6c-0.7-0.4-1.5-0.6-2.3-0.6c-0.8,0-1.5,0.2-2.1,0.6c-0.6,0.4-0.9,0.9-0.9,1.5c0,0.9,0.9,1.6,2.6,2
			l2.4,0.6C325.8,84.5,327.4,86.1,327.4,88.5z"/>
	</g>
	<g>
		<path class="st3" d="M94.8,57.3c0.6-1.7,1.5-3.2,2.8-4.5c5.2-5.1,13.9-3.8,17.5,2.6c2.7,4.9,5.5,9.6,8.3,14.5l13.8,24
			c3.8,6.7-0.3,15.2-7.9,16.4c-4.7,0.7-9-1.4-11.4-5.6l-12.2-21.1c-0.1-0.2-0.2-0.3-0.3-0.4c-0.4-0.3-0.6-0.9-0.9-1.3l-8.9-15.5
			c-1-1.8-1.5-3.8-1.5-5.9C94.1,59.3,94.3,58.2,94.8,57.3"/>
		<path class="st4" d="M94.8,57.3c-0.2,1-0.5,1.9-0.5,2.9c-0.1,2.2,0.5,4.3,1.6,6.3l8.8,15.2c0.3,0.5,0.5,0.9,0.7,1.3l-4.8,8.3
			L93.8,103c-0.1,0-0.1-0.1-0.2-0.1c0-0.2,0.1-0.4,0.1-0.6c1.1-4,0.2-7.6-2.6-10.6c-1.7-1.8-3.8-2.9-6.3-3.2
			c-3.2-0.5-6.1,0.4-8.6,2.4c-0.5,0.3-0.7,0.9-1.3,1.1c-0.1,0-0.2-0.1-0.2-0.1l3.8-6.7l15.9-27.6C94.6,57.5,94.7,57.4,94.8,57.3"/>
		<path class="st5" d="M74.9,91.9l1.5-1.4c6.5-5.1,16.3-1.4,17.7,6.7c0.3,2,0.2,3.8-0.4,5.7c0,0.2-0.1,0.3-0.1,0.5
			c-0.2,0.4-0.5,0.9-0.7,1.3c-2.4,3.9-5.9,5.9-10.5,5.6c-5.3-0.4-9.4-4.3-10.1-9.6c-0.3-2.5,0.2-4.9,1.5-7.1
			c0.3-0.5,0.6-0.9,0.9-1.4C74.7,92.1,74.7,91.9,74.9,91.9"/>
	</g>
</g>
</svg>
