<?xml version="1.0" encoding="utf-8"?>
<!-- Generator: Adobe Illustrator 24.2.0, SVG Export Plug-In . SVG Version: 6.00 Build 0)  -->
<svg version="1.1" id="Layer_1" xmlns="http://www.w3.org/2000/svg" xmlns:xlink="http://www.w3.org/1999/xlink" x="0px" y="0px"
	 viewBox="0 0 400 160" style="enable-background:new 0 0 400 160;" xml:space="preserve">
<style type="text/css">
	.st0{fill:#FFFFFF;stroke:#1A73E8;stroke-width:2.2194;stroke-miterlimit:10;}
	.st1{enable-background:new    ;}
	.st2{fill:#666666;}
	.st3{fill:#669CF4;}
	.st4{fill:#1C72EA;}
</style>
<g>
	<path class="st0" d="M376.7,150H23.3C16,150,10,144,10,136.7V23.3C10,16,16,10,23.3,10h353.4c7.3,0,13.3,6,13.3,13.3v113.4
		C390,144,384,150,376.7,150z"/>
</g>
<g>
	<g class="st1">
		<path class="st2" d="M162.4,90.5V66.9h7.2c3.6,0,6.5,1.1,8.7,3.3c2.2,2.2,3.3,5,3.3,8.5c0,3.5-1.1,6.4-3.3,8.6
			c-2.2,2.2-5.1,3.3-8.7,3.3H162.4z M165.4,69.8v17.8h4.2c2.8,0,4.9-0.8,6.5-2.4c1.6-1.6,2.4-3.8,2.4-6.6c0-2.8-0.8-4.9-2.4-6.5
			s-3.8-2.4-6.5-2.4H165.4z"/>
		<path class="st2" d="M190.8,73.8c2.2,0,4,0.6,5.3,1.8c1.3,1.2,1.9,2.8,1.9,4.9v10h-2.9v-2.2H195c-1.3,1.8-2.9,2.8-5,2.8
			c-1.8,0-3.3-0.5-4.5-1.6c-1.2-1.1-1.8-2.4-1.8-4c0-1.7,0.6-3,1.9-4c1.3-1,3-1.5,5.1-1.5c1.8,0,3.3,0.3,4.5,1v-0.7
			c0-1.1-0.4-2-1.3-2.7c-0.8-0.7-1.8-1.1-2.9-1.1c-1.7,0-3,0.7-4,2.1l-2.7-1.7C185.8,74.9,187.9,73.8,190.8,73.8z M186.9,85.6
			c0,0.8,0.3,1.5,1,2c0.7,0.5,1.5,0.8,2.4,0.8c1.3,0,2.4-0.5,3.4-1.4s1.5-2.1,1.5-3.3c-0.9-0.7-2.3-1.1-4-1.1
			c-1.2,0-2.3,0.3-3.1,0.9C187.3,83.9,186.9,84.7,186.9,85.6z"/>
		<path class="st2" d="M207.6,90.8c-1.3,0-2.4-0.4-3.3-1.2c-0.9-0.8-1.3-1.9-1.3-3.4v-9h-2.8v-2.8h2.8v-5h3v5h4v2.8h-4v8.1
			c0,1.1,0.2,1.8,0.6,2.2s0.9,0.6,1.4,0.6c0.2,0,0.5,0,0.7-0.1c0.2-0.1,0.4-0.1,0.6-0.2l1,2.7C209.6,90.6,208.6,90.8,207.6,90.8z"/>
		<path class="st2" d="M218.7,73.8c2.2,0,4,0.6,5.3,1.8c1.3,1.2,1.9,2.8,1.9,4.9v10H223v-2.2h-0.1c-1.3,1.8-2.9,2.8-5,2.8
			c-1.8,0-3.3-0.5-4.5-1.6c-1.2-1.1-1.8-2.4-1.8-4c0-1.7,0.6-3,1.9-4c1.3-1,3-1.5,5.1-1.5c1.8,0,3.3,0.3,4.5,1v-0.7
			c0-1.1-0.4-2-1.3-2.7c-0.8-0.7-1.8-1.1-2.9-1.1c-1.7,0-3,0.7-4,2.1l-2.7-1.7C213.6,74.9,215.8,73.8,218.7,73.8z M214.7,85.6
			c0,0.8,0.3,1.5,1,2c0.7,0.5,1.5,0.8,2.4,0.8c1.3,0,2.4-0.5,3.4-1.4s1.5-2.1,1.5-3.3c-0.9-0.7-2.3-1.1-4-1.1
			c-1.2,0-2.3,0.3-3.1,0.9C215.2,83.9,214.7,84.7,214.7,85.6z"/>
		<path class="st2" d="M250.8,84.2c0,2.1-0.8,3.7-2.3,5c-1.5,1.2-3.4,1.9-5.6,1.9c-2,0-3.7-0.6-5.2-1.7c-1.5-1.1-2.5-2.7-3.1-4.7
			l2.9-1.2c0.2,0.7,0.5,1.3,0.8,1.9c0.4,0.6,0.8,1.1,1.2,1.5c0.5,0.4,1,0.7,1.6,1c0.6,0.2,1.2,0.3,1.8,0.3c1.4,0,2.5-0.4,3.4-1.1
			s1.3-1.7,1.3-2.9c0-1-0.4-1.8-1.1-2.5c-0.7-0.7-2-1.3-3.8-2c-1.9-0.7-3.1-1.1-3.5-1.4c-2.5-1.3-3.8-3.2-3.8-5.6
			c0-1.7,0.7-3.2,2.1-4.5c1.4-1.2,3.1-1.8,5.2-1.8c1.8,0,3.4,0.5,4.7,1.4c1.3,0.9,2.2,2,2.6,3.4l-2.8,1.2c-0.3-0.9-0.8-1.6-1.6-2.2
			c-0.8-0.6-1.7-0.9-2.9-0.9c-1.2,0-2.2,0.3-3,1c-0.8,0.6-1.2,1.4-1.2,2.4c0,0.8,0.3,1.5,1,2.1c0.7,0.6,2.2,1.3,4.6,2.1
			c2.4,0.8,4.1,1.8,5.1,3C250.2,81,250.8,82.5,250.8,84.2z"/>
		<path class="st2" d="M259.5,90.8c-1.3,0-2.4-0.4-3.3-1.2c-0.9-0.8-1.3-1.9-1.3-3.4v-9H252v-2.8h2.8v-5h3v5h4v2.8h-4v8.1
			c0,1.1,0.2,1.8,0.6,2.2c0.4,0.4,0.9,0.6,1.4,0.6c0.2,0,0.5,0,0.7-0.1c0.2-0.1,0.4-0.1,0.6-0.2l1,2.7
			C261.4,90.6,260.5,90.8,259.5,90.8z"/>
		<path class="st2" d="M278.9,90.5H276v-2.2h-0.1c-0.5,0.8-1.2,1.5-2.1,2c-1,0.5-2,0.8-3,0.8c-2,0-3.5-0.6-4.6-1.7
			c-1.1-1.1-1.6-2.7-1.6-4.8V74.3h3v10c0.1,2.6,1.4,4,4,4c1.2,0,2.2-0.5,3-1.5c0.8-1,1.2-2.1,1.2-3.5v-8.9h3V90.5z"/>
		<path class="st2" d="M289.2,91c-2.1,0-3.9-0.8-5.4-2.5c-1.5-1.7-2.2-3.7-2.2-6.1c0-2.4,0.7-4.4,2.2-6.1c1.5-1.7,3.3-2.5,5.4-2.5
			c1.2,0,2.3,0.3,3.3,0.8c1,0.5,1.7,1.2,2.3,2h0.1l-0.1-2.2v-7.5h3v23.6h-2.9v-2.2h-0.1c-0.5,0.8-1.3,1.5-2.3,2
			C291.5,90.8,290.4,91,289.2,91z M289.7,88.3c1.5,0,2.7-0.5,3.7-1.6c1-1.1,1.5-2.5,1.5-4.2c0-1.7-0.5-3.1-1.5-4.2
			c-1-1.1-2.2-1.6-3.7-1.6c-1.5,0-2.7,0.5-3.7,1.6c-1,1.1-1.5,2.5-1.5,4.2c0,1.7,0.5,3.1,1.5,4.2C287.1,87.7,288.3,88.3,289.7,88.3z
			"/>
		<path class="st2" d="M305.4,68.8c0,0.6-0.2,1.1-0.6,1.5s-0.9,0.6-1.5,0.6s-1.1-0.2-1.5-0.6s-0.6-0.9-0.6-1.5s0.2-1.1,0.6-1.5
			s0.9-0.6,1.5-0.6s1.1,0.2,1.5,0.6S305.4,68.2,305.4,68.8z M304.8,74.3v16.2h-3V74.3H304.8z"/>
		<path class="st2" d="M307.6,82.4c0-2.5,0.8-4.5,2.3-6.2c1.6-1.6,3.6-2.4,6-2.4c2.4,0,4.4,0.8,5.9,2.4c1.6,1.6,2.4,3.7,2.4,6.2
			c0,2.5-0.8,4.6-2.4,6.2c-1.6,1.6-3.5,2.4-5.9,2.4c-2.4,0-4.4-0.8-6-2.4C308.4,87,307.6,84.9,307.6,82.4z M310.7,82.4
			c0,1.7,0.5,3.1,1.5,4.2c1,1.1,2.3,1.6,3.8,1.6c1.5,0,2.7-0.5,3.8-1.6c1-1.1,1.5-2.5,1.5-4.2c0-1.7-0.5-3.1-1.5-4.2
			c-1-1.1-2.3-1.6-3.8-1.6c-1.5,0-2.7,0.5-3.8,1.6C311.2,79.3,310.7,80.7,310.7,82.4z"/>
	</g>
	<g>
		<g>
			<path class="st3" d="M130.2,65.5h-25c-4.3,0-7.8-3.5-7.8-7.8l0,0c0-4.3,3.5-7.8,7.8-7.8h25c4.3,0,7.8,3.5,7.8,7.8l0,0
				C138,62.1,134.5,65.5,130.2,65.5z"/>
			<circle class="st4" cx="130.2" cy="57.8" r="7.8"/>
		</g>
		<g>
			<path class="st3" d="M107.5,87.8h-25c-4.3,0-7.8-3.5-7.8-7.8l0,0c0-4.3,3.5-7.8,7.8-7.8h25c4.3,0,7.8,3.5,7.8,7.8l0,0
				C115.3,84.3,111.8,87.8,107.5,87.8z"/>
			<circle class="st4" cx="107.5" cy="80" r="7.8"/>
		</g>
		<g>
			<path class="st3" d="M130.2,110h-25c-4.3,0-7.8-3.5-7.8-7.8l0,0c0-4.3,3.5-7.8,7.8-7.8h25c4.3,0,7.8,3.5,7.8,7.8l0,0
				C138,106.5,134.5,110,130.2,110z"/>
			<circle class="st4" cx="130.2" cy="102.2" r="7.8"/>
		</g>
	</g>
</g>
</svg>
