<?xml version="1.0" encoding="utf-8"?>
<!-- Generator: Adobe Illustrator 24.2.0, SVG Export Plug-In . SVG Version: 6.00 Build 0)  -->
<svg version="1.1" id="Layer_2_1_" xmlns="http://www.w3.org/2000/svg" xmlns:xlink="http://www.w3.org/1999/xlink" x="0px" y="0px"
	 viewBox="0 0 400 160" style="enable-background:new 0 0 400 160;" xml:space="preserve">
<style type="text/css">
	.st0{fill:#FFFFFF;stroke:#E37400;stroke-width:2;stroke-miterlimit:10;}
	.st1{enable-background:new    ;}
	.st2{fill:#666666;}
	.st3{fill:#F9AB01;}
	.st4{fill:#E37501;}
</style>
<g>
	<path class="st0" d="M376.7,150H23.3C16,150,10,144,10,136.7V23.3C10,16,16,10,23.3,10h353.4c7.3,0,13.3,6,13.3,13.3v113.4
		C390,144,384,150,376.7,150z"/>
</g>
<g>
	<g class="st1">
		<path class="st2" d="M128.3,80.6h11.5c0,0.3,0.1,0.6,0.1,0.9c0,0.3,0.1,0.7,0.1,1c0,1.4-0.2,2.8-0.7,4.2c-0.4,1.4-1.2,2.6-2.2,3.7
			c-1.1,1.1-2.3,2-3.8,2.6c-1.5,0.6-3.1,0.9-5,0.9c-1.7,0-3.3-0.3-4.8-0.9c-1.5-0.6-2.8-1.5-3.9-2.6c-1.1-1.1-2-2.4-2.7-3.9
			c-0.6-1.5-1-3.2-1-4.9c0-1.8,0.3-3.4,1-4.9s1.5-2.8,2.7-3.9c1.1-1.1,2.4-2,3.9-2.6c1.5-0.6,3.1-0.9,4.8-0.9c1.8,0,3.5,0.3,5,1
			c1.5,0.6,2.8,1.5,3.8,2.7l-2.6,2.6c-0.8-0.9-1.7-1.5-2.7-2c-1-0.5-2.2-0.7-3.5-0.7c-1.1,0-2.2,0.2-3.2,0.6c-1,0.4-1.9,1-2.7,1.8
			c-0.8,0.8-1.4,1.7-1.9,2.8c-0.5,1.1-0.7,2.3-0.7,3.6c0,1.3,0.2,2.6,0.7,3.6s1.1,2,1.9,2.8s1.7,1.3,2.7,1.8c1,0.4,2.1,0.6,3.3,0.6
			c1.5,0,2.7-0.2,3.7-0.7c0.9-0.5,1.7-1,2.4-1.6c0.5-0.4,0.9-1,1.2-1.7c0.4-0.7,0.6-1.5,0.7-2.4h-8V80.6z"/>
		<path class="st2" d="M150.5,76.7c1.2,0,2.4,0.2,3.4,0.6c1,0.4,1.9,1,2.7,1.8c0.7,0.8,1.3,1.7,1.7,2.7c0.4,1.1,0.6,2.2,0.6,3.4
			c0,1.2-0.2,2.4-0.6,3.4c-0.4,1.1-1,2-1.7,2.7c-0.7,0.8-1.6,1.4-2.7,1.8c-1,0.4-2.2,0.6-3.4,0.6c-1.2,0-2.4-0.2-3.4-0.6
			c-1-0.4-1.9-1-2.7-1.8c-0.7-0.8-1.3-1.7-1.7-2.7c-0.4-1.1-0.6-2.2-0.6-3.4c0-1.2,0.2-2.4,0.6-3.4c0.4-1.1,1-2,1.7-2.7
			c0.7-0.8,1.6-1.4,2.7-1.8C148.2,76.9,149.3,76.7,150.5,76.7z M150.5,90.5c0.6,0,1.2-0.1,1.8-0.4c0.6-0.2,1.1-0.6,1.5-1
			c0.5-0.4,0.8-1,1.1-1.6c0.3-0.6,0.4-1.4,0.4-2.2c0-0.8-0.1-1.5-0.4-2.2c-0.3-0.6-0.6-1.2-1.1-1.6c-0.5-0.4-1-0.8-1.5-1
			c-0.6-0.2-1.2-0.4-1.8-0.4c-0.6,0-1.2,0.1-1.8,0.4c-0.6,0.2-1.1,0.6-1.5,1c-0.5,0.4-0.8,1-1.1,1.6c-0.3,0.6-0.4,1.4-0.4,2.2
			c0,0.8,0.1,1.5,0.4,2.2c0.3,0.6,0.6,1.2,1.1,1.6c0.5,0.4,1,0.8,1.5,1C149.3,90.4,149.9,90.5,150.5,90.5z"/>
		<path class="st2" d="M169.3,76.7c1.2,0,2.4,0.2,3.4,0.6c1,0.4,1.9,1,2.7,1.8c0.7,0.8,1.3,1.7,1.7,2.7c0.4,1.1,0.6,2.2,0.6,3.4
			c0,1.2-0.2,2.4-0.6,3.4c-0.4,1.1-1,2-1.7,2.7c-0.7,0.8-1.6,1.4-2.7,1.8c-1,0.4-2.2,0.6-3.4,0.6c-1.2,0-2.4-0.2-3.4-0.6
			c-1-0.4-1.9-1-2.7-1.8c-0.7-0.8-1.3-1.7-1.7-2.7c-0.4-1.1-0.6-2.2-0.6-3.4c0-1.2,0.2-2.4,0.6-3.4c0.4-1.1,1-2,1.7-2.7
			c0.7-0.8,1.6-1.4,2.7-1.8C166.9,76.9,168,76.7,169.3,76.7z M169.3,90.5c0.6,0,1.2-0.1,1.8-0.4c0.6-0.2,1.1-0.6,1.5-1
			c0.5-0.4,0.8-1,1.1-1.6c0.3-0.6,0.4-1.4,0.4-2.2c0-0.8-0.1-1.5-0.4-2.2c-0.3-0.6-0.6-1.2-1.1-1.6c-0.5-0.4-1-0.8-1.5-1
			c-0.6-0.2-1.2-0.4-1.8-0.4c-0.6,0-1.2,0.1-1.8,0.4c-0.6,0.2-1.1,0.6-1.5,1c-0.5,0.4-0.8,1-1.1,1.6c-0.3,0.6-0.4,1.4-0.4,2.2
			c0,0.8,0.1,1.5,0.4,2.2c0.3,0.6,0.6,1.2,1.1,1.6c0.5,0.4,1,0.8,1.5,1C168.1,90.4,168.7,90.5,169.3,90.5z"/>
		<path class="st2" d="M187.8,101c-1.1,0-2.1-0.1-3-0.4c-0.9-0.3-1.6-0.7-2.3-1.1s-1.2-1-1.6-1.6c-0.4-0.6-0.7-1.1-0.9-1.7l3.5-1.4
			c0.3,0.9,0.8,1.6,1.6,2.1c0.7,0.5,1.6,0.8,2.6,0.8c1.5,0,2.7-0.4,3.5-1.3c0.8-0.9,1.3-2.1,1.3-3.7v-1.3h-0.2
			c-0.5,0.7-1.2,1.3-2.1,1.8c-0.9,0.5-1.9,0.7-3.1,0.7c-1,0-1.9-0.2-2.9-0.6s-1.7-1-2.5-1.8c-0.7-0.8-1.3-1.7-1.7-2.7
			c-0.4-1.1-0.6-2.2-0.6-3.5s0.2-2.4,0.6-3.5c0.4-1.1,1-2,1.7-2.7c0.7-0.8,1.5-1.3,2.5-1.8s1.9-0.6,2.9-0.6c1.2,0,2.2,0.2,3.1,0.7
			c0.9,0.5,1.6,1.1,2.1,1.8h0.2v-2h3.5v15.2c0,1.4-0.2,2.6-0.6,3.7c-0.4,1.1-1,2-1.7,2.7c-0.7,0.7-1.6,1.3-2.6,1.6
			C190.1,100.8,189,101,187.8,101z M188,90.5c0.6,0,1.2-0.1,1.7-0.3c0.6-0.2,1.1-0.6,1.5-1c0.4-0.4,0.8-1,1-1.6
			c0.3-0.6,0.4-1.4,0.4-2.2c0-0.8-0.1-1.6-0.4-2.2c-0.3-0.7-0.6-1.2-1-1.6c-0.4-0.4-0.9-0.8-1.5-1c-0.6-0.2-1.2-0.4-1.7-0.4
			c-0.6,0-1.2,0.1-1.8,0.4c-0.6,0.2-1.1,0.6-1.5,1c-0.4,0.4-0.8,1-1.1,1.6c-0.3,0.6-0.4,1.4-0.4,2.2s0.1,1.6,0.4,2.2
			c0.3,0.6,0.6,1.2,1.1,1.6c0.4,0.4,0.9,0.8,1.5,1C186.8,90.4,187.3,90.5,188,90.5z"/>
		<path class="st2" d="M199.9,93.4V69.7h3.7v23.6H199.9z"/>
		<path class="st2" d="M222,89.5c-0.7,1.3-1.7,2.3-2.9,3.1c-1.3,0.8-2.8,1.3-4.6,1.3c-1.2,0-2.3-0.2-3.3-0.6c-1-0.4-1.9-1-2.7-1.8
			c-0.7-0.8-1.3-1.7-1.7-2.7s-0.6-2.2-0.6-3.4c0-1.2,0.2-2.3,0.6-3.3c0.4-1,1-2,1.7-2.7c0.7-0.8,1.6-1.4,2.6-1.9s2.1-0.7,3.4-0.7
			c1.3,0,2.4,0.2,3.3,0.6c1,0.4,1.8,1,2.5,1.7c0.7,0.7,1.2,1.7,1.6,2.7c0.4,1.1,0.5,2.2,0.5,3.5c0,0.1,0,0.2,0,0.3
			c0,0.1,0,0.2,0,0.3c0,0.1,0,0.2,0,0.3h-12.4c0.1,0.8,0.3,1.4,0.6,2c0.3,0.6,0.7,1,1.1,1.4c0.5,0.4,1,0.6,1.5,0.8
			c0.5,0.2,1.1,0.3,1.6,0.3c1.1,0,1.9-0.3,2.6-0.8c0.7-0.5,1.2-1.1,1.7-1.9L222,89.5z M218.6,83.3c0-0.3-0.1-0.7-0.3-1.1
			s-0.4-0.8-0.8-1.1c-0.3-0.3-0.8-0.6-1.3-0.9c-0.5-0.2-1.2-0.4-2-0.4c-1.1,0-2,0.3-2.7,0.9c-0.8,0.6-1.3,1.5-1.5,2.5H218.6z"/>
	</g>
	<g class="st1">
		<path class="st2" d="M233.6,93.4h-3.4l8.9-23.6h3.4l8.9,23.6h-3.4l-2.3-6.4h-9.9L233.6,93.4z M240.8,73.5l-3.9,10.7h7.9l-3.9-10.7
			H240.8z"/>
		<path class="st2" d="M253.7,77.2h2.9v2.2h0.1c0.5-0.8,1.2-1.5,2.1-2c1-0.5,2-0.8,3-0.8c2,0,3.5,0.6,4.6,1.7s1.6,2.7,1.6,4.8v10.2
			h-3v-10c-0.1-2.6-1.4-4-4-4c-1.2,0-2.2,0.5-3,1.5c-0.8,1-1.2,2.1-1.2,3.5v8.9h-3V77.2z"/>
		<path class="st2" d="M277.5,76.7c2.2,0,4,0.6,5.3,1.8c1.3,1.2,1.9,2.8,1.9,4.9v10h-2.9v-2.2h-0.1c-1.3,1.8-2.9,2.8-5,2.8
			c-1.8,0-3.3-0.5-4.5-1.6c-1.2-1.1-1.8-2.4-1.8-4c0-1.7,0.6-3,1.9-4c1.3-1,3-1.5,5.1-1.5c1.8,0,3.3,0.3,4.5,1v-0.7
			c0-1.1-0.4-2-1.3-2.7c-0.8-0.7-1.8-1.1-2.9-1.1c-1.7,0-3,0.7-4,2.1l-2.7-1.7C272.5,77.7,274.7,76.7,277.5,76.7z M273.6,88.4
			c0,0.8,0.3,1.5,1,2c0.7,0.5,1.5,0.8,2.4,0.8c1.3,0,2.4-0.5,3.4-1.4s1.5-2.1,1.5-3.3c-0.9-0.7-2.3-1.1-4-1.1
			c-1.2,0-2.3,0.3-3.1,0.9C274,86.8,273.6,87.5,273.6,88.4z"/>
		<path class="st2" d="M291.3,69.7v23.6h-3V69.7H291.3z"/>
		<path class="st2" d="M309.4,77.2l-10.1,23.3h-3.1l3.8-8.2l-6.7-15.1h3.3l4.8,11.6h0.1l4.7-11.6H309.4z"/>
		<path class="st2" d="M317.8,93.6c-1.3,0-2.4-0.4-3.3-1.2c-0.9-0.8-1.3-1.9-1.3-3.4v-9h-2.8v-2.8h2.8v-5h3v5h4V80h-4V88
			c0,1.1,0.2,1.8,0.6,2.2c0.4,0.4,0.9,0.6,1.4,0.6c0.2,0,0.5,0,0.7-0.1c0.2-0.1,0.4-0.1,0.6-0.2l1,2.7
			C319.8,93.5,318.9,93.6,317.8,93.6z"/>
		<path class="st2" d="M327.2,71.6c0,0.6-0.2,1.1-0.6,1.5c-0.4,0.4-0.9,0.6-1.5,0.6c-0.6,0-1.1-0.2-1.5-0.6s-0.6-0.9-0.6-1.5
			s0.2-1.1,0.6-1.5s0.9-0.6,1.5-0.6c0.6,0,1.1,0.2,1.5,0.6C327,70.5,327.2,71,327.2,71.6z M326.6,77.2v16.2h-3V77.2H326.6z"/>
		<path class="st2" d="M337.7,93.9c-2.4,0-4.4-0.8-6-2.4c-1.6-1.7-2.3-3.7-2.3-6.2c0-2.5,0.8-4.5,2.3-6.2c1.6-1.6,3.6-2.4,6-2.4
			c1.6,0,3.1,0.4,4.3,1.2c1.2,0.8,2.2,2,2.8,3.4l-2.8,1.2c-0.9-2-2.4-3-4.5-3c-1.4,0-2.6,0.6-3.6,1.7c-1,1.1-1.5,2.5-1.5,4.2
			s0.5,3,1.5,4.2c1,1.1,2.2,1.7,3.6,1.7c2.2,0,3.8-1,4.7-3l2.7,1.2c-0.6,1.5-1.5,2.6-2.8,3.4C340.9,93.5,339.4,93.9,337.7,93.9z"/>
		<path class="st2" d="M359.9,88.9c0,1.4-0.6,2.6-1.8,3.6c-1.2,1-2.8,1.5-4.7,1.5c-1.6,0-3.1-0.4-4.3-1.3s-2.1-2-2.6-3.3l2.7-1.2
			c0.4,1,1,1.7,1.7,2.3s1.6,0.8,2.5,0.8c1,0,1.8-0.2,2.4-0.6c0.6-0.4,1-0.9,1-1.5c0-1-0.8-1.8-2.4-2.3l-2.8-0.7
			c-3.1-0.8-4.7-2.3-4.7-4.6c0-1.5,0.6-2.7,1.8-3.5c1.2-0.9,2.7-1.3,4.6-1.3c1.4,0,2.7,0.3,3.9,1s2,1.6,2.4,2.7l-2.7,1.1
			c-0.3-0.7-0.8-1.2-1.5-1.6c-0.7-0.4-1.5-0.6-2.3-0.6c-0.8,0-1.5,0.2-2.1,0.6c-0.6,0.4-0.9,0.9-0.9,1.5c0,0.9,0.9,1.6,2.6,2
			l2.4,0.6C358.3,84.8,359.9,86.4,359.9,88.9z"/>
	</g>
	<g>
		<path class="st3" d="M77,79.6c0-7.4,0-15,0-22.4c0-3.4,2.2-6.3,5.6-7c3.5-0.8,7.1,1.2,8.2,4.6c0.3,0.9,0.5,1.9,0.5,2.8
			c0,14.9,0,29.6,0,44.5c0,1.8-0.3,3.4-1.4,4.9c-1.3,1.9-3.1,2.8-5.4,3c-3.6,0.3-6.8-2.4-7.4-6.2c-0.1-0.6-0.1-1.3-0.1-1.9
			C77,94.3,77,86.9,77,79.6z"/>
		<path class="st4" d="M72.6,91.1c0,3.7,0,7.5,0,11.2c0,1.9-0.6,3.6-1.9,5.1c-1.5,1.7-3.3,2.4-5.5,2.3c-2.6-0.1-4.6-1.3-6-3.5
			c-0.8-1.3-1.1-2.6-1.1-4.1c0-7.4,0-14.9,0-22.3c0-4.2,3.7-7.2,7.4-7c3.3,0.1,6.1,2.3,6.7,5.7c0.1,0.6,0.2,1.2,0.2,1.7
			C72.6,83.8,72.6,87.4,72.6,91.1z"/>
		<path class="st4" d="M46.7,109.8c-3.3,0.2-7.1-2.5-7.1-7.1c0-4.1,3.3-7.1,7.1-7c4.2,0,7,3.4,7.1,7
			C53.9,106.9,50.1,109.9,46.7,109.8z"/>
	</g>
</g>
</svg>
